<?xml version="1.0" encoding="utf-8" standalone="no"?>
<!DOCTYPE svg PUBLIC "-//W3C//DTD SVG 1.1//EN"
  "http://www.w3.org/Graphics/SVG/1.1/DTD/svg11.dtd">
<svg xmlns:xlink="http://www.w3.org/1999/xlink" width="259.698pt" height="161.867477pt" viewBox="0 0 259.698 161.867477" xmlns="http://www.w3.org/2000/svg" version="1.1">
 <metadata>
  <rdf:RDF xmlns:dc="http://purl.org/dc/elements/1.1/" xmlns:cc="http://creativecommons.org/ns#" xmlns:rdf="http://www.w3.org/1999/02/22-rdf-syntax-ns#">
   <cc:Work>
    <dc:type rdf:resource="http://purl.org/dc/dcmitype/StillImage"/>
    <dc:date>2024-11-04T17:02:57.277781</dc:date>
    <dc:format>image/svg+xml</dc:format>
    <dc:creator>
     <cc:Agent>
      <dc:title>Matplotlib v3.5.2, https://matplotlib.org/</dc:title>
     </cc:Agent>
    </dc:creator>
   </cc:Work>
  </rdf:RDF>
 </metadata>
 <defs>
  <style type="text/css">*{stroke-linejoin: round; stroke-linecap: butt}</style>
 </defs>
 <g id="figure_1">
  <g id="patch_1">
   <path d="M 0 161.867477 
L 259.698 161.867477 
L 259.698 0 
L 0 0 
z
" style="fill: #ffffff"/>
  </g>
  <g id="axes_1">
   <g id="patch_2">
    <path d="M 43.527 86.365523 
L 252.498 86.365523 
L 252.498 19.582687 
L 43.527 19.582687 
z
" style="fill: #ffffff"/>
   </g>
   <g id="matplotlib.axis_1">
    <g id="xtick_1">
     <g id="text_1">
      <!-- E. coli -->
      <g style="fill: #262626" transform="translate(36.591573 116.254307)rotate(-45)scale(0.077 -0.077)">
       <defs>
        <path id="DejaVuSans-45" d="M 628 4666 
L 3578 4666 
L 3578 4134 
L 1259 4134 
L 1259 2753 
L 3481 2753 
L 3481 2222 
L 1259 2222 
L 1259 531 
L 3634 531 
L 3634 0 
L 628 0 
L 628 4666 
z
" transform="scale(0.015625)"/>
        <path id="DejaVuSans-2e" d="M 684 794 
L 1344 794 
L 1344 0 
L 684 0 
L 684 794 
z
" transform="scale(0.015625)"/>
        <path id="DejaVuSans-20" transform="scale(0.015625)"/>
        <path id="DejaVuSans-63" d="M 3122 3366 
L 3122 2828 
Q 2878 2963 2633 3030 
Q 2388 3097 2138 3097 
Q 1578 3097 1268 2742 
Q 959 2388 959 1747 
Q 959 1106 1268 751 
Q 1578 397 2138 397 
Q 2388 397 2633 464 
Q 2878 531 3122 666 
L 3122 134 
Q 2881 22 2623 -34 
Q 2366 -91 2075 -91 
Q 1284 -91 818 406 
Q 353 903 353 1747 
Q 353 2603 823 3093 
Q 1294 3584 2113 3584 
Q 2378 3584 2631 3529 
Q 2884 3475 3122 3366 
z
" transform="scale(0.015625)"/>
        <path id="DejaVuSans-6f" d="M 1959 3097 
Q 1497 3097 1228 2736 
Q 959 2375 959 1747 
Q 959 1119 1226 758 
Q 1494 397 1959 397 
Q 2419 397 2687 759 
Q 2956 1122 2956 1747 
Q 2956 2369 2687 2733 
Q 2419 3097 1959 3097 
z
M 1959 3584 
Q 2709 3584 3137 3096 
Q 3566 2609 3566 1747 
Q 3566 888 3137 398 
Q 2709 -91 1959 -91 
Q 1206 -91 779 398 
Q 353 888 353 1747 
Q 353 2609 779 3096 
Q 1206 3584 1959 3584 
z
" transform="scale(0.015625)"/>
        <path id="DejaVuSans-6c" d="M 603 4863 
L 1178 4863 
L 1178 0 
L 603 0 
L 603 4863 
z
" transform="scale(0.015625)"/>
        <path id="DejaVuSans-69" d="M 603 3500 
L 1178 3500 
L 1178 0 
L 603 0 
L 603 3500 
z
M 603 4863 
L 1178 4863 
L 1178 4134 
L 603 4134 
L 603 4863 
z
" transform="scale(0.015625)"/>
       </defs>
       <use xlink:href="#DejaVuSans-45"/>
       <use xlink:href="#DejaVuSans-2e" x="63.183594"/>
       <use xlink:href="#DejaVuSans-20" x="94.970703"/>
       <use xlink:href="#DejaVuSans-63" x="126.757812"/>
       <use xlink:href="#DejaVuSans-6f" x="181.738281"/>
       <use xlink:href="#DejaVuSans-6c" x="242.919922"/>
       <use xlink:href="#DejaVuSans-69" x="270.703125"/>
      </g>
     </g>
    </g>
    <g id="xtick_2">
     <g id="text_2">
      <!-- K. pneumoniae -->
      <g style="fill: #262626" transform="translate(32.716038 141.026942)rotate(-45)scale(0.077 -0.077)">
       <defs>
        <path id="DejaVuSans-4b" d="M 628 4666 
L 1259 4666 
L 1259 2694 
L 3353 4666 
L 4166 4666 
L 1850 2491 
L 4331 0 
L 3500 0 
L 1259 2247 
L 1259 0 
L 628 0 
L 628 4666 
z
" transform="scale(0.015625)"/>
        <path id="DejaVuSans-70" d="M 1159 525 
L 1159 -1331 
L 581 -1331 
L 581 3500 
L 1159 3500 
L 1159 2969 
Q 1341 3281 1617 3432 
Q 1894 3584 2278 3584 
Q 2916 3584 3314 3078 
Q 3713 2572 3713 1747 
Q 3713 922 3314 415 
Q 2916 -91 2278 -91 
Q 1894 -91 1617 61 
Q 1341 213 1159 525 
z
M 3116 1747 
Q 3116 2381 2855 2742 
Q 2594 3103 2138 3103 
Q 1681 3103 1420 2742 
Q 1159 2381 1159 1747 
Q 1159 1113 1420 752 
Q 1681 391 2138 391 
Q 2594 391 2855 752 
Q 3116 1113 3116 1747 
z
" transform="scale(0.015625)"/>
        <path id="DejaVuSans-6e" d="M 3513 2113 
L 3513 0 
L 2938 0 
L 2938 2094 
Q 2938 2591 2744 2837 
Q 2550 3084 2163 3084 
Q 1697 3084 1428 2787 
Q 1159 2491 1159 1978 
L 1159 0 
L 581 0 
L 581 3500 
L 1159 3500 
L 1159 2956 
Q 1366 3272 1645 3428 
Q 1925 3584 2291 3584 
Q 2894 3584 3203 3211 
Q 3513 2838 3513 2113 
z
" transform="scale(0.015625)"/>
        <path id="DejaVuSans-65" d="M 3597 1894 
L 3597 1613 
L 953 1613 
Q 991 1019 1311 708 
Q 1631 397 2203 397 
Q 2534 397 2845 478 
Q 3156 559 3463 722 
L 3463 178 
Q 3153 47 2828 -22 
Q 2503 -91 2169 -91 
Q 1331 -91 842 396 
Q 353 884 353 1716 
Q 353 2575 817 3079 
Q 1281 3584 2069 3584 
Q 2775 3584 3186 3129 
Q 3597 2675 3597 1894 
z
M 3022 2063 
Q 3016 2534 2758 2815 
Q 2500 3097 2075 3097 
Q 1594 3097 1305 2825 
Q 1016 2553 972 2059 
L 3022 2063 
z
" transform="scale(0.015625)"/>
        <path id="DejaVuSans-75" d="M 544 1381 
L 544 3500 
L 1119 3500 
L 1119 1403 
Q 1119 906 1312 657 
Q 1506 409 1894 409 
Q 2359 409 2629 706 
Q 2900 1003 2900 1516 
L 2900 3500 
L 3475 3500 
L 3475 0 
L 2900 0 
L 2900 538 
Q 2691 219 2414 64 
Q 2138 -91 1772 -91 
Q 1169 -91 856 284 
Q 544 659 544 1381 
z
M 1991 3584 
L 1991 3584 
z
" transform="scale(0.015625)"/>
        <path id="DejaVuSans-6d" d="M 3328 2828 
Q 3544 3216 3844 3400 
Q 4144 3584 4550 3584 
Q 5097 3584 5394 3201 
Q 5691 2819 5691 2113 
L 5691 0 
L 5113 0 
L 5113 2094 
Q 5113 2597 4934 2840 
Q 4756 3084 4391 3084 
Q 3944 3084 3684 2787 
Q 3425 2491 3425 1978 
L 3425 0 
L 2847 0 
L 2847 2094 
Q 2847 2600 2669 2842 
Q 2491 3084 2119 3084 
Q 1678 3084 1418 2786 
Q 1159 2488 1159 1978 
L 1159 0 
L 581 0 
L 581 3500 
L 1159 3500 
L 1159 2956 
Q 1356 3278 1631 3431 
Q 1906 3584 2284 3584 
Q 2666 3584 2933 3390 
Q 3200 3197 3328 2828 
z
" transform="scale(0.015625)"/>
        <path id="DejaVuSans-61" d="M 2194 1759 
Q 1497 1759 1228 1600 
Q 959 1441 959 1056 
Q 959 750 1161 570 
Q 1363 391 1709 391 
Q 2188 391 2477 730 
Q 2766 1069 2766 1631 
L 2766 1759 
L 2194 1759 
z
M 3341 1997 
L 3341 0 
L 2766 0 
L 2766 531 
Q 2569 213 2275 61 
Q 1981 -91 1556 -91 
Q 1019 -91 701 211 
Q 384 513 384 1019 
Q 384 1609 779 1909 
Q 1175 2209 1959 2209 
L 2766 2209 
L 2766 2266 
Q 2766 2663 2505 2880 
Q 2244 3097 1772 3097 
Q 1472 3097 1187 3025 
Q 903 2953 641 2809 
L 641 3341 
Q 956 3463 1253 3523 
Q 1550 3584 1831 3584 
Q 2591 3584 2966 3190 
Q 3341 2797 3341 1997 
z
" transform="scale(0.015625)"/>
       </defs>
       <use xlink:href="#DejaVuSans-4b"/>
       <use xlink:href="#DejaVuSans-2e" x="65.576172"/>
       <use xlink:href="#DejaVuSans-20" x="97.363281"/>
       <use xlink:href="#DejaVuSans-70" x="129.150391"/>
       <use xlink:href="#DejaVuSans-6e" x="192.626953"/>
       <use xlink:href="#DejaVuSans-65" x="256.005859"/>
       <use xlink:href="#DejaVuSans-75" x="317.529297"/>
       <use xlink:href="#DejaVuSans-6d" x="380.908203"/>
       <use xlink:href="#DejaVuSans-6f" x="478.320312"/>
       <use xlink:href="#DejaVuSans-6e" x="539.501953"/>
       <use xlink:href="#DejaVuSans-69" x="602.880859"/>
       <use xlink:href="#DejaVuSans-61" x="630.664062"/>
       <use xlink:href="#DejaVuSans-65" x="691.943359"/>
      </g>
     </g>
    </g>
    <g id="xtick_3">
     <g id="text_3">
      <!-- S. enterica -->
      <g style="fill: #262626" transform="translate(65.35332 129.28676)rotate(-45)scale(0.077 -0.077)">
       <defs>
        <path id="DejaVuSans-53" d="M 3425 4513 
L 3425 3897 
Q 3066 4069 2747 4153 
Q 2428 4238 2131 4238 
Q 1616 4238 1336 4038 
Q 1056 3838 1056 3469 
Q 1056 3159 1242 3001 
Q 1428 2844 1947 2747 
L 2328 2669 
Q 3034 2534 3370 2195 
Q 3706 1856 3706 1288 
Q 3706 609 3251 259 
Q 2797 -91 1919 -91 
Q 1588 -91 1214 -16 
Q 841 59 441 206 
L 441 856 
Q 825 641 1194 531 
Q 1563 422 1919 422 
Q 2459 422 2753 634 
Q 3047 847 3047 1241 
Q 3047 1584 2836 1778 
Q 2625 1972 2144 2069 
L 1759 2144 
Q 1053 2284 737 2584 
Q 422 2884 422 3419 
Q 422 4038 858 4394 
Q 1294 4750 2059 4750 
Q 2388 4750 2728 4690 
Q 3069 4631 3425 4513 
z
" transform="scale(0.015625)"/>
        <path id="DejaVuSans-74" d="M 1172 4494 
L 1172 3500 
L 2356 3500 
L 2356 3053 
L 1172 3053 
L 1172 1153 
Q 1172 725 1289 603 
Q 1406 481 1766 481 
L 2356 481 
L 2356 0 
L 1766 0 
Q 1100 0 847 248 
Q 594 497 594 1153 
L 594 3053 
L 172 3053 
L 172 3500 
L 594 3500 
L 594 4494 
L 1172 4494 
z
" transform="scale(0.015625)"/>
        <path id="DejaVuSans-72" d="M 2631 2963 
Q 2534 3019 2420 3045 
Q 2306 3072 2169 3072 
Q 1681 3072 1420 2755 
Q 1159 2438 1159 1844 
L 1159 0 
L 581 0 
L 581 3500 
L 1159 3500 
L 1159 2956 
Q 1341 3275 1631 3429 
Q 1922 3584 2338 3584 
Q 2397 3584 2469 3576 
Q 2541 3569 2628 3553 
L 2631 2963 
z
" transform="scale(0.015625)"/>
       </defs>
       <use xlink:href="#DejaVuSans-53"/>
       <use xlink:href="#DejaVuSans-2e" x="63.476562"/>
       <use xlink:href="#DejaVuSans-20" x="95.263672"/>
       <use xlink:href="#DejaVuSans-65" x="127.050781"/>
       <use xlink:href="#DejaVuSans-6e" x="188.574219"/>
       <use xlink:href="#DejaVuSans-74" x="251.953125"/>
       <use xlink:href="#DejaVuSans-65" x="291.162109"/>
       <use xlink:href="#DejaVuSans-72" x="352.685547"/>
       <use xlink:href="#DejaVuSans-69" x="393.798828"/>
       <use xlink:href="#DejaVuSans-63" x="421.582031"/>
       <use xlink:href="#DejaVuSans-61" x="476.5625"/>
      </g>
     </g>
    </g>
    <g id="xtick_4">
     <g id="text_4">
      <!-- S. aureus -->
      <g style="fill: #262626" transform="translate(90.077039 125.460141)rotate(-45)scale(0.077 -0.077)">
       <defs>
        <path id="DejaVuSans-73" d="M 2834 3397 
L 2834 2853 
Q 2591 2978 2328 3040 
Q 2066 3103 1784 3103 
Q 1356 3103 1142 2972 
Q 928 2841 928 2578 
Q 928 2378 1081 2264 
Q 1234 2150 1697 2047 
L 1894 2003 
Q 2506 1872 2764 1633 
Q 3022 1394 3022 966 
Q 3022 478 2636 193 
Q 2250 -91 1575 -91 
Q 1294 -91 989 -36 
Q 684 19 347 128 
L 347 722 
Q 666 556 975 473 
Q 1284 391 1588 391 
Q 1994 391 2212 530 
Q 2431 669 2431 922 
Q 2431 1156 2273 1281 
Q 2116 1406 1581 1522 
L 1381 1569 
Q 847 1681 609 1914 
Q 372 2147 372 2553 
Q 372 3047 722 3315 
Q 1072 3584 1716 3584 
Q 2034 3584 2315 3537 
Q 2597 3491 2834 3397 
z
" transform="scale(0.015625)"/>
       </defs>
       <use xlink:href="#DejaVuSans-53"/>
       <use xlink:href="#DejaVuSans-2e" x="63.476562"/>
       <use xlink:href="#DejaVuSans-20" x="95.263672"/>
       <use xlink:href="#DejaVuSans-61" x="127.050781"/>
       <use xlink:href="#DejaVuSans-75" x="188.330078"/>
       <use xlink:href="#DejaVuSans-72" x="251.708984"/>
       <use xlink:href="#DejaVuSans-65" x="290.572266"/>
       <use xlink:href="#DejaVuSans-75" x="352.095703"/>
       <use xlink:href="#DejaVuSans-73" x="415.474609"/>
      </g>
     </g>
    </g>
    <g id="xtick_5">
     <g id="text_5">
      <!-- S. pyogenes -->
      <g style="fill: #262626" transform="translate(103.059724 133.374555)rotate(-45)scale(0.077 -0.077)">
       <defs>
        <path id="DejaVuSans-79" d="M 2059 -325 
Q 1816 -950 1584 -1140 
Q 1353 -1331 966 -1331 
L 506 -1331 
L 506 -850 
L 844 -850 
Q 1081 -850 1212 -737 
Q 1344 -625 1503 -206 
L 1606 56 
L 191 3500 
L 800 3500 
L 1894 763 
L 2988 3500 
L 3597 3500 
L 2059 -325 
z
" transform="scale(0.015625)"/>
        <path id="DejaVuSans-67" d="M 2906 1791 
Q 2906 2416 2648 2759 
Q 2391 3103 1925 3103 
Q 1463 3103 1205 2759 
Q 947 2416 947 1791 
Q 947 1169 1205 825 
Q 1463 481 1925 481 
Q 2391 481 2648 825 
Q 2906 1169 2906 1791 
z
M 3481 434 
Q 3481 -459 3084 -895 
Q 2688 -1331 1869 -1331 
Q 1566 -1331 1297 -1286 
Q 1028 -1241 775 -1147 
L 775 -588 
Q 1028 -725 1275 -790 
Q 1522 -856 1778 -856 
Q 2344 -856 2625 -561 
Q 2906 -266 2906 331 
L 2906 616 
Q 2728 306 2450 153 
Q 2172 0 1784 0 
Q 1141 0 747 490 
Q 353 981 353 1791 
Q 353 2603 747 3093 
Q 1141 3584 1784 3584 
Q 2172 3584 2450 3431 
Q 2728 3278 2906 2969 
L 2906 3500 
L 3481 3500 
L 3481 434 
z
" transform="scale(0.015625)"/>
       </defs>
       <use xlink:href="#DejaVuSans-53"/>
       <use xlink:href="#DejaVuSans-2e" x="63.476562"/>
       <use xlink:href="#DejaVuSans-20" x="95.263672"/>
       <use xlink:href="#DejaVuSans-70" x="127.050781"/>
       <use xlink:href="#DejaVuSans-79" x="190.527344"/>
       <use xlink:href="#DejaVuSans-6f" x="249.707031"/>
       <use xlink:href="#DejaVuSans-67" x="310.888672"/>
       <use xlink:href="#DejaVuSans-65" x="374.365234"/>
       <use xlink:href="#DejaVuSans-6e" x="435.888672"/>
       <use xlink:href="#DejaVuSans-65" x="499.267578"/>
       <use xlink:href="#DejaVuSans-73" x="560.791016"/>
      </g>
     </g>
    </g>
    <g id="xtick_6">
     <g id="text_6">
      <!-- P. aeruginosa -->
      <g style="fill: #262626" transform="translate(121.135778 136.195602)rotate(-45)scale(0.077 -0.077)">
       <defs>
        <path id="DejaVuSans-50" d="M 1259 4147 
L 1259 2394 
L 2053 2394 
Q 2494 2394 2734 2622 
Q 2975 2850 2975 3272 
Q 2975 3691 2734 3919 
Q 2494 4147 2053 4147 
L 1259 4147 
z
M 628 4666 
L 2053 4666 
Q 2838 4666 3239 4311 
Q 3641 3956 3641 3272 
Q 3641 2581 3239 2228 
Q 2838 1875 2053 1875 
L 1259 1875 
L 1259 0 
L 628 0 
L 628 4666 
z
" transform="scale(0.015625)"/>
       </defs>
       <use xlink:href="#DejaVuSans-50"/>
       <use xlink:href="#DejaVuSans-2e" x="44.677734"/>
       <use xlink:href="#DejaVuSans-20" x="76.464844"/>
       <use xlink:href="#DejaVuSans-61" x="108.251953"/>
       <use xlink:href="#DejaVuSans-65" x="169.53125"/>
       <use xlink:href="#DejaVuSans-72" x="231.054688"/>
       <use xlink:href="#DejaVuSans-75" x="272.167969"/>
       <use xlink:href="#DejaVuSans-67" x="335.546875"/>
       <use xlink:href="#DejaVuSans-69" x="399.023438"/>
       <use xlink:href="#DejaVuSans-6e" x="426.806641"/>
       <use xlink:href="#DejaVuSans-6f" x="490.185547"/>
       <use xlink:href="#DejaVuSans-73" x="551.367188"/>
       <use xlink:href="#DejaVuSans-61" x="603.466797"/>
      </g>
     </g>
    </g>
    <g id="xtick_7">
     <g id="text_7">
      <!-- S. pneumoniae -->
      <g style="fill: #262626" transform="translate(137.315536 140.912943)rotate(-45)scale(0.077 -0.077)">
       <use xlink:href="#DejaVuSans-53"/>
       <use xlink:href="#DejaVuSans-2e" x="63.476562"/>
       <use xlink:href="#DejaVuSans-20" x="95.263672"/>
       <use xlink:href="#DejaVuSans-70" x="127.050781"/>
       <use xlink:href="#DejaVuSans-6e" x="190.527344"/>
       <use xlink:href="#DejaVuSans-65" x="253.90625"/>
       <use xlink:href="#DejaVuSans-75" x="315.429688"/>
       <use xlink:href="#DejaVuSans-6d" x="378.808594"/>
       <use xlink:href="#DejaVuSans-6f" x="476.220703"/>
       <use xlink:href="#DejaVuSans-6e" x="537.402344"/>
       <use xlink:href="#DejaVuSans-69" x="600.78125"/>
       <use xlink:href="#DejaVuSans-61" x="628.564453"/>
       <use xlink:href="#DejaVuSans-65" x="689.84375"/>
      </g>
     </g>
    </g>
    <g id="xtick_8">
     <g id="text_8">
      <!-- S. dysgalactiae -->
      <g style="fill: #262626" transform="translate(157.720059 141.40552)rotate(-45)scale(0.077 -0.077)">
       <defs>
        <path id="DejaVuSans-64" d="M 2906 2969 
L 2906 4863 
L 3481 4863 
L 3481 0 
L 2906 0 
L 2906 525 
Q 2725 213 2448 61 
Q 2172 -91 1784 -91 
Q 1150 -91 751 415 
Q 353 922 353 1747 
Q 353 2572 751 3078 
Q 1150 3584 1784 3584 
Q 2172 3584 2448 3432 
Q 2725 3281 2906 2969 
z
M 947 1747 
Q 947 1113 1208 752 
Q 1469 391 1925 391 
Q 2381 391 2643 752 
Q 2906 1113 2906 1747 
Q 2906 2381 2643 2742 
Q 2381 3103 1925 3103 
Q 1469 3103 1208 2742 
Q 947 2381 947 1747 
z
" transform="scale(0.015625)"/>
       </defs>
       <use xlink:href="#DejaVuSans-53"/>
       <use xlink:href="#DejaVuSans-2e" x="63.476562"/>
       <use xlink:href="#DejaVuSans-20" x="95.263672"/>
       <use xlink:href="#DejaVuSans-64" x="127.050781"/>
       <use xlink:href="#DejaVuSans-79" x="190.527344"/>
       <use xlink:href="#DejaVuSans-73" x="249.707031"/>
       <use xlink:href="#DejaVuSans-67" x="301.806641"/>
       <use xlink:href="#DejaVuSans-61" x="365.283203"/>
       <use xlink:href="#DejaVuSans-6c" x="426.5625"/>
       <use xlink:href="#DejaVuSans-61" x="454.345703"/>
       <use xlink:href="#DejaVuSans-63" x="515.625"/>
       <use xlink:href="#DejaVuSans-74" x="570.605469"/>
       <use xlink:href="#DejaVuSans-69" x="609.814453"/>
       <use xlink:href="#DejaVuSans-61" x="637.597656"/>
       <use xlink:href="#DejaVuSans-65" x="698.876953"/>
      </g>
     </g>
    </g>
    <g id="xtick_9">
     <g id="text_9">
      <!-- C. perfringens -->
      <g style="fill: #262626" transform="translate(181.50031 138.52237)rotate(-45)scale(0.077 -0.077)">
       <defs>
        <path id="DejaVuSans-43" d="M 4122 4306 
L 4122 3641 
Q 3803 3938 3442 4084 
Q 3081 4231 2675 4231 
Q 1875 4231 1450 3742 
Q 1025 3253 1025 2328 
Q 1025 1406 1450 917 
Q 1875 428 2675 428 
Q 3081 428 3442 575 
Q 3803 722 4122 1019 
L 4122 359 
Q 3791 134 3420 21 
Q 3050 -91 2638 -91 
Q 1578 -91 968 557 
Q 359 1206 359 2328 
Q 359 3453 968 4101 
Q 1578 4750 2638 4750 
Q 3056 4750 3426 4639 
Q 3797 4528 4122 4306 
z
" transform="scale(0.015625)"/>
        <path id="DejaVuSans-66" d="M 2375 4863 
L 2375 4384 
L 1825 4384 
Q 1516 4384 1395 4259 
Q 1275 4134 1275 3809 
L 1275 3500 
L 2222 3500 
L 2222 3053 
L 1275 3053 
L 1275 0 
L 697 0 
L 697 3053 
L 147 3053 
L 147 3500 
L 697 3500 
L 697 3744 
Q 697 4328 969 4595 
Q 1241 4863 1831 4863 
L 2375 4863 
z
" transform="scale(0.015625)"/>
       </defs>
       <use xlink:href="#DejaVuSans-43"/>
       <use xlink:href="#DejaVuSans-2e" x="69.824219"/>
       <use xlink:href="#DejaVuSans-20" x="101.611328"/>
       <use xlink:href="#DejaVuSans-70" x="133.398438"/>
       <use xlink:href="#DejaVuSans-65" x="196.875"/>
       <use xlink:href="#DejaVuSans-72" x="258.398438"/>
       <use xlink:href="#DejaVuSans-66" x="299.511719"/>
       <use xlink:href="#DejaVuSans-72" x="334.716797"/>
       <use xlink:href="#DejaVuSans-69" x="375.830078"/>
       <use xlink:href="#DejaVuSans-6e" x="403.613281"/>
       <use xlink:href="#DejaVuSans-67" x="466.992188"/>
       <use xlink:href="#DejaVuSans-65" x="530.46875"/>
       <use xlink:href="#DejaVuSans-6e" x="591.992188"/>
       <use xlink:href="#DejaVuSans-73" x="655.371094"/>
      </g>
     </g>
    </g>
    <g id="xtick_10">
     <g id="text_10">
      <!-- E. faecalis -->
      <g style="fill: #262626" transform="translate(213.220497 127.699283)rotate(-45)scale(0.077 -0.077)">
       <use xlink:href="#DejaVuSans-45"/>
       <use xlink:href="#DejaVuSans-2e" x="63.183594"/>
       <use xlink:href="#DejaVuSans-20" x="94.970703"/>
       <use xlink:href="#DejaVuSans-66" x="126.757812"/>
       <use xlink:href="#DejaVuSans-61" x="161.962891"/>
       <use xlink:href="#DejaVuSans-65" x="223.242188"/>
       <use xlink:href="#DejaVuSans-63" x="284.765625"/>
       <use xlink:href="#DejaVuSans-61" x="339.746094"/>
       <use xlink:href="#DejaVuSans-6c" x="401.025391"/>
       <use xlink:href="#DejaVuSans-69" x="428.808594"/>
       <use xlink:href="#DejaVuSans-73" x="456.591797"/>
      </g>
     </g>
    </g>
    <g id="text_11">
     <!-- Species -->
     <g style="fill: #262626" transform="translate(131.847094 152.92054)scale(0.084 -0.084)">
      <use xlink:href="#DejaVuSans-53"/>
      <use xlink:href="#DejaVuSans-70" x="63.476562"/>
      <use xlink:href="#DejaVuSans-65" x="126.953125"/>
      <use xlink:href="#DejaVuSans-63" x="188.476562"/>
      <use xlink:href="#DejaVuSans-69" x="243.457031"/>
      <use xlink:href="#DejaVuSans-65" x="271.240234"/>
      <use xlink:href="#DejaVuSans-73" x="332.763672"/>
     </g>
    </g>
   </g>
   <g id="matplotlib.axis_2">
    <g id="ytick_1">
     <g id="text_12">
      <!-- 0 -->
      <g style="fill: #262626" transform="translate(29.127875 89.290922)scale(0.077 -0.077)">
       <defs>
        <path id="DejaVuSans-30" d="M 2034 4250 
Q 1547 4250 1301 3770 
Q 1056 3291 1056 2328 
Q 1056 1369 1301 889 
Q 1547 409 2034 409 
Q 2525 409 2770 889 
Q 3016 1369 3016 2328 
Q 3016 3291 2770 3770 
Q 2525 4250 2034 4250 
z
M 2034 4750 
Q 2819 4750 3233 4129 
Q 3647 3509 3647 2328 
Q 3647 1150 3233 529 
Q 2819 -91 2034 -91 
Q 1250 -91 836 529 
Q 422 1150 422 2328 
Q 422 3509 836 4129 
Q 1250 4750 2034 4750 
z
" transform="scale(0.015625)"/>
       </defs>
       <use xlink:href="#DejaVuSans-30"/>
      </g>
     </g>
    </g>
    <g id="ytick_2">
     <g id="text_13">
      <!-- 100 -->
      <g style="fill: #262626" transform="translate(19.329625 59.570034)scale(0.077 -0.077)">
       <defs>
        <path id="DejaVuSans-31" d="M 794 531 
L 1825 531 
L 1825 4091 
L 703 3866 
L 703 4441 
L 1819 4666 
L 2450 4666 
L 2450 531 
L 3481 531 
L 3481 0 
L 794 0 
L 794 531 
z
" transform="scale(0.015625)"/>
       </defs>
       <use xlink:href="#DejaVuSans-31"/>
       <use xlink:href="#DejaVuSans-30" x="63.623047"/>
       <use xlink:href="#DejaVuSans-30" x="127.246094"/>
      </g>
     </g>
    </g>
    <g id="ytick_3">
     <g id="text_14">
      <!-- 200 -->
      <g style="fill: #262626" transform="translate(19.329625 29.849145)scale(0.077 -0.077)">
       <defs>
        <path id="DejaVuSans-32" d="M 1228 531 
L 3431 531 
L 3431 0 
L 469 0 
L 469 531 
Q 828 903 1448 1529 
Q 2069 2156 2228 2338 
Q 2531 2678 2651 2914 
Q 2772 3150 2772 3378 
Q 2772 3750 2511 3984 
Q 2250 4219 1831 4219 
Q 1534 4219 1204 4116 
Q 875 4013 500 3803 
L 500 4441 
Q 881 4594 1212 4672 
Q 1544 4750 1819 4750 
Q 2544 4750 2975 4387 
Q 3406 4025 3406 3419 
Q 3406 3131 3298 2873 
Q 3191 2616 2906 2266 
Q 2828 2175 2409 1742 
Q 1991 1309 1228 531 
z
" transform="scale(0.015625)"/>
       </defs>
       <use xlink:href="#DejaVuSans-32"/>
       <use xlink:href="#DejaVuSans-30" x="63.623047"/>
       <use xlink:href="#DejaVuSans-30" x="127.246094"/>
      </g>
     </g>
    </g>
    <g id="text_15">
     <!-- Count -->
     <g style="fill: #262626" transform="translate(13.582688 65.446793)rotate(-90)scale(0.084 -0.084)">
      <use xlink:href="#DejaVuSans-43"/>
      <use xlink:href="#DejaVuSans-6f" x="69.824219"/>
      <use xlink:href="#DejaVuSans-75" x="131.005859"/>
      <use xlink:href="#DejaVuSans-6e" x="194.384766"/>
      <use xlink:href="#DejaVuSans-74" x="257.763672"/>
     </g>
    </g>
   </g>
   <g id="patch_3">
    <path d="M 45.61671 86.365523 
L 62.33439 86.365523 
L 62.33439 22.762823 
L 45.61671 22.762823 
z
" clip-path="url(#pc22a9d3165)" style="fill: #4c72b0; stroke: #ffffff; stroke-linejoin: miter"/>
   </g>
   <g id="patch_4">
    <path d="M 66.51381 86.365523 
L 83.23149 86.365523 
L 83.23149 53.672546 
L 66.51381 53.672546 
z
" clip-path="url(#pc22a9d3165)" style="fill: #4c72b0; stroke: #ffffff; stroke-linejoin: miter"/>
   </g>
   <g id="patch_5">
    <path d="M 87.41091 86.365523 
L 104.12859 86.365523 
L 104.12859 54.564173 
L 87.41091 54.564173 
z
" clip-path="url(#pc22a9d3165)" style="fill: #4c72b0; stroke: #ffffff; stroke-linejoin: miter"/>
   </g>
   <g id="patch_6">
    <path d="M 108.30801 86.365523 
L 125.02569 86.365523 
L 125.02569 56.347426 
L 108.30801 56.347426 
z
" clip-path="url(#pc22a9d3165)" style="fill: #4c72b0; stroke: #ffffff; stroke-linejoin: miter"/>
   </g>
   <g id="patch_7">
    <path d="M 129.20511 86.365523 
L 145.92279 86.365523 
L 145.92279 63.480439 
L 129.20511 63.480439 
z
" clip-path="url(#pc22a9d3165)" style="fill: #4c72b0; stroke: #ffffff; stroke-linejoin: miter"/>
   </g>
   <g id="patch_8">
    <path d="M 150.10221 86.365523 
L 166.81989 86.365523 
L 166.81989 74.774377 
L 150.10221 74.774377 
z
" clip-path="url(#pc22a9d3165)" style="fill: #4c72b0; stroke: #ffffff; stroke-linejoin: miter"/>
   </g>
   <g id="patch_9">
    <path d="M 170.99931 86.365523 
L 187.71699 86.365523 
L 187.71699 77.746466 
L 170.99931 77.746466 
z
" clip-path="url(#pc22a9d3165)" style="fill: #4c72b0; stroke: #ffffff; stroke-linejoin: miter"/>
   </g>
   <g id="patch_10">
    <path d="M 191.89641 86.365523 
L 208.61409 86.365523 
L 208.61409 79.529719 
L 191.89641 79.529719 
z
" clip-path="url(#pc22a9d3165)" style="fill: #4c72b0; stroke: #ffffff; stroke-linejoin: miter"/>
   </g>
   <g id="patch_11">
    <path d="M 212.79351 86.365523 
L 229.51119 86.365523 
L 229.51119 79.826928 
L 212.79351 79.826928 
z
" clip-path="url(#pc22a9d3165)" style="fill: #4c72b0; stroke: #ffffff; stroke-linejoin: miter"/>
   </g>
   <g id="patch_12">
    <path d="M 233.69061 86.365523 
L 250.40829 86.365523 
L 250.40829 79.826928 
L 233.69061 79.826928 
z
" clip-path="url(#pc22a9d3165)" style="fill: #4c72b0; stroke: #ffffff; stroke-linejoin: miter"/>
   </g>
   <g id="line2d_1">
    <path clip-path="url(#pc22a9d3165)" style="fill: none; stroke: #424242; stroke-width: 2.7; stroke-linecap: round"/>
   </g>
   <g id="line2d_2">
    <path clip-path="url(#pc22a9d3165)" style="fill: none; stroke: #424242; stroke-width: 2.7; stroke-linecap: round"/>
   </g>
   <g id="line2d_3">
    <path clip-path="url(#pc22a9d3165)" style="fill: none; stroke: #424242; stroke-width: 2.7; stroke-linecap: round"/>
   </g>
   <g id="line2d_4">
    <path clip-path="url(#pc22a9d3165)" style="fill: none; stroke: #424242; stroke-width: 2.7; stroke-linecap: round"/>
   </g>
   <g id="line2d_5">
    <path clip-path="url(#pc22a9d3165)" style="fill: none; stroke: #424242; stroke-width: 2.7; stroke-linecap: round"/>
   </g>
   <g id="line2d_6">
    <path clip-path="url(#pc22a9d3165)" style="fill: none; stroke: #424242; stroke-width: 2.7; stroke-linecap: round"/>
   </g>
   <g id="line2d_7">
    <path clip-path="url(#pc22a9d3165)" style="fill: none; stroke: #424242; stroke-width: 2.7; stroke-linecap: round"/>
   </g>
   <g id="line2d_8">
    <path clip-path="url(#pc22a9d3165)" style="fill: none; stroke: #424242; stroke-width: 2.7; stroke-linecap: round"/>
   </g>
   <g id="line2d_9">
    <path clip-path="url(#pc22a9d3165)" style="fill: none; stroke: #424242; stroke-width: 2.7; stroke-linecap: round"/>
   </g>
   <g id="line2d_10">
    <path clip-path="url(#pc22a9d3165)" style="fill: none; stroke: #424242; stroke-width: 2.7; stroke-linecap: round"/>
   </g>
   <g id="patch_13">
    <path d="M 43.527 86.365523 
L 43.527 19.582687 
" style="fill: none; stroke: #262626; stroke-width: 1.25; stroke-linejoin: miter; stroke-linecap: square"/>
   </g>
   <g id="patch_14">
    <path d="M 43.527 86.365523 
L 252.498 86.365523 
" style="fill: none; stroke: #262626; stroke-width: 1.25; stroke-linejoin: miter; stroke-linecap: square"/>
   </g>
   <g id="text_16">
    <!-- Top 10 species -->
    <g style="fill: #262626" transform="translate(117.223875 13.582687)scale(0.084 -0.084)">
     <defs>
      <path id="DejaVuSans-54" d="M -19 4666 
L 3928 4666 
L 3928 4134 
L 2272 4134 
L 2272 0 
L 1638 0 
L 1638 4134 
L -19 4134 
L -19 4666 
z
" transform="scale(0.015625)"/>
     </defs>
     <use xlink:href="#DejaVuSans-54"/>
     <use xlink:href="#DejaVuSans-6f" x="44.083984"/>
     <use xlink:href="#DejaVuSans-70" x="105.265625"/>
     <use xlink:href="#DejaVuSans-20" x="168.742188"/>
     <use xlink:href="#DejaVuSans-31" x="200.529297"/>
     <use xlink:href="#DejaVuSans-30" x="264.152344"/>
     <use xlink:href="#DejaVuSans-20" x="327.775391"/>
     <use xlink:href="#DejaVuSans-73" x="359.5625"/>
     <use xlink:href="#DejaVuSans-70" x="411.662109"/>
     <use xlink:href="#DejaVuSans-65" x="475.138672"/>
     <use xlink:href="#DejaVuSans-63" x="536.662109"/>
     <use xlink:href="#DejaVuSans-69" x="591.642578"/>
     <use xlink:href="#DejaVuSans-65" x="619.425781"/>
     <use xlink:href="#DejaVuSans-73" x="680.949219"/>
    </g>
   </g>
  </g>
 </g>
 <defs>
  <clipPath id="pc22a9d3165">
   <rect x="43.527" y="19.582687" width="208.971" height="66.782836"/>
  </clipPath>
 </defs>
</svg>
