<?xml version="1.0" encoding="utf-8" standalone="no"?>
<!DOCTYPE svg PUBLIC "-//W3C//DTD SVG 1.1//EN"
  "http://www.w3.org/Graphics/SVG/1.1/DTD/svg11.dtd">
<svg xmlns:xlink="http://www.w3.org/1999/xlink" width="419.402031pt" height="273.304469pt" viewBox="0 0 419.402031 273.304469" xmlns="http://www.w3.org/2000/svg" version="1.1">
 <metadata>
  <rdf:RDF xmlns:dc="http://purl.org/dc/elements/1.1/" xmlns:cc="http://creativecommons.org/ns#" xmlns:rdf="http://www.w3.org/1999/02/22-rdf-syntax-ns#">
   <cc:Work>
    <dc:type rdf:resource="http://purl.org/dc/dcmitype/StillImage"/>
    <dc:date>2023-05-10T10:56:54.461939</dc:date>
    <dc:format>image/svg+xml</dc:format>
    <dc:creator>
     <cc:Agent>
      <dc:title>Matplotlib v3.5.2, https://matplotlib.org/</dc:title>
     </cc:Agent>
    </dc:creator>
   </cc:Work>
  </rdf:RDF>
 </metadata>
 <defs>
  <style type="text/css">*{stroke-linejoin: round; stroke-linecap: butt}</style>
 </defs>
 <g id="figure_1">
  <g id="patch_1">
   <path d="M 0 273.304469 
L 419.402031 273.304469 
L 419.402031 0 
L 0 0 
z
" style="fill: #ffffff"/>
  </g>
  <g id="axes_1">
   <g id="patch_2">
    <path d="M 43.527 237.022687 
L 378.327 237.022687 
L 378.327 19.582687 
L 43.527 19.582687 
z
" style="fill: #ffffff"/>
   </g>
   <g id="matplotlib.axis_1">
    <g id="xtick_1">
     <g id="text_1">
      <!-- 1920 -->
      <g style="fill: #262626" transform="translate(75.802547 252.373484)scale(0.077 -0.077)">
       <defs>
        <path id="DejaVuSans-31" d="M 794 531 
L 1825 531 
L 1825 4091 
L 703 3866 
L 703 4441 
L 1819 4666 
L 2450 4666 
L 2450 531 
L 3481 531 
L 3481 0 
L 794 0 
L 794 531 
z
" transform="scale(0.015625)"/>
        <path id="DejaVuSans-39" d="M 703 97 
L 703 672 
Q 941 559 1184 500 
Q 1428 441 1663 441 
Q 2288 441 2617 861 
Q 2947 1281 2994 2138 
Q 2813 1869 2534 1725 
Q 2256 1581 1919 1581 
Q 1219 1581 811 2004 
Q 403 2428 403 3163 
Q 403 3881 828 4315 
Q 1253 4750 1959 4750 
Q 2769 4750 3195 4129 
Q 3622 3509 3622 2328 
Q 3622 1225 3098 567 
Q 2575 -91 1691 -91 
Q 1453 -91 1209 -44 
Q 966 3 703 97 
z
M 1959 2075 
Q 2384 2075 2632 2365 
Q 2881 2656 2881 3163 
Q 2881 3666 2632 3958 
Q 2384 4250 1959 4250 
Q 1534 4250 1286 3958 
Q 1038 3666 1038 3163 
Q 1038 2656 1286 2365 
Q 1534 2075 1959 2075 
z
" transform="scale(0.015625)"/>
        <path id="DejaVuSans-32" d="M 1228 531 
L 3431 531 
L 3431 0 
L 469 0 
L 469 531 
Q 828 903 1448 1529 
Q 2069 2156 2228 2338 
Q 2531 2678 2651 2914 
Q 2772 3150 2772 3378 
Q 2772 3750 2511 3984 
Q 2250 4219 1831 4219 
Q 1534 4219 1204 4116 
Q 875 4013 500 3803 
L 500 4441 
Q 881 4594 1212 4672 
Q 1544 4750 1819 4750 
Q 2544 4750 2975 4387 
Q 3406 4025 3406 3419 
Q 3406 3131 3298 2873 
Q 3191 2616 2906 2266 
Q 2828 2175 2409 1742 
Q 1991 1309 1228 531 
z
" transform="scale(0.015625)"/>
        <path id="DejaVuSans-30" d="M 2034 4250 
Q 1547 4250 1301 3770 
Q 1056 3291 1056 2328 
Q 1056 1369 1301 889 
Q 1547 409 2034 409 
Q 2525 409 2770 889 
Q 3016 1369 3016 2328 
Q 3016 3291 2770 3770 
Q 2525 4250 2034 4250 
z
M 2034 4750 
Q 2819 4750 3233 4129 
Q 3647 3509 3647 2328 
Q 3647 1150 3233 529 
Q 2819 -91 2034 -91 
Q 1250 -91 836 529 
Q 422 1150 422 2328 
Q 422 3509 836 4129 
Q 1250 4750 2034 4750 
z
" transform="scale(0.015625)"/>
       </defs>
       <use xlink:href="#DejaVuSans-31"/>
       <use xlink:href="#DejaVuSans-39" x="63.623047"/>
       <use xlink:href="#DejaVuSans-32" x="127.246094"/>
       <use xlink:href="#DejaVuSans-30" x="190.869141"/>
      </g>
     </g>
    </g>
    <g id="xtick_2">
     <g id="text_2">
      <!-- 1940 -->
      <g style="fill: #262626" transform="translate(135.481691 252.373484)scale(0.077 -0.077)">
       <defs>
        <path id="DejaVuSans-34" d="M 2419 4116 
L 825 1625 
L 2419 1625 
L 2419 4116 
z
M 2253 4666 
L 3047 4666 
L 3047 1625 
L 3713 1625 
L 3713 1100 
L 3047 1100 
L 3047 0 
L 2419 0 
L 2419 1100 
L 313 1100 
L 313 1709 
L 2253 4666 
z
" transform="scale(0.015625)"/>
       </defs>
       <use xlink:href="#DejaVuSans-31"/>
       <use xlink:href="#DejaVuSans-39" x="63.623047"/>
       <use xlink:href="#DejaVuSans-34" x="127.246094"/>
       <use xlink:href="#DejaVuSans-30" x="190.869141"/>
      </g>
     </g>
    </g>
    <g id="xtick_3">
     <g id="text_3">
      <!-- 1960 -->
      <g style="fill: #262626" transform="translate(195.160836 252.373484)scale(0.077 -0.077)">
       <defs>
        <path id="DejaVuSans-36" d="M 2113 2584 
Q 1688 2584 1439 2293 
Q 1191 2003 1191 1497 
Q 1191 994 1439 701 
Q 1688 409 2113 409 
Q 2538 409 2786 701 
Q 3034 994 3034 1497 
Q 3034 2003 2786 2293 
Q 2538 2584 2113 2584 
z
M 3366 4563 
L 3366 3988 
Q 3128 4100 2886 4159 
Q 2644 4219 2406 4219 
Q 1781 4219 1451 3797 
Q 1122 3375 1075 2522 
Q 1259 2794 1537 2939 
Q 1816 3084 2150 3084 
Q 2853 3084 3261 2657 
Q 3669 2231 3669 1497 
Q 3669 778 3244 343 
Q 2819 -91 2113 -91 
Q 1303 -91 875 529 
Q 447 1150 447 2328 
Q 447 3434 972 4092 
Q 1497 4750 2381 4750 
Q 2619 4750 2861 4703 
Q 3103 4656 3366 4563 
z
" transform="scale(0.015625)"/>
       </defs>
       <use xlink:href="#DejaVuSans-31"/>
       <use xlink:href="#DejaVuSans-39" x="63.623047"/>
       <use xlink:href="#DejaVuSans-36" x="127.246094"/>
       <use xlink:href="#DejaVuSans-30" x="190.869141"/>
      </g>
     </g>
    </g>
    <g id="xtick_4">
     <g id="text_4">
      <!-- 1980 -->
      <g style="fill: #262626" transform="translate(254.83998 252.373484)scale(0.077 -0.077)">
       <defs>
        <path id="DejaVuSans-38" d="M 2034 2216 
Q 1584 2216 1326 1975 
Q 1069 1734 1069 1313 
Q 1069 891 1326 650 
Q 1584 409 2034 409 
Q 2484 409 2743 651 
Q 3003 894 3003 1313 
Q 3003 1734 2745 1975 
Q 2488 2216 2034 2216 
z
M 1403 2484 
Q 997 2584 770 2862 
Q 544 3141 544 3541 
Q 544 4100 942 4425 
Q 1341 4750 2034 4750 
Q 2731 4750 3128 4425 
Q 3525 4100 3525 3541 
Q 3525 3141 3298 2862 
Q 3072 2584 2669 2484 
Q 3125 2378 3379 2068 
Q 3634 1759 3634 1313 
Q 3634 634 3220 271 
Q 2806 -91 2034 -91 
Q 1263 -91 848 271 
Q 434 634 434 1313 
Q 434 1759 690 2068 
Q 947 2378 1403 2484 
z
M 1172 3481 
Q 1172 3119 1398 2916 
Q 1625 2713 2034 2713 
Q 2441 2713 2670 2916 
Q 2900 3119 2900 3481 
Q 2900 3844 2670 4047 
Q 2441 4250 2034 4250 
Q 1625 4250 1398 4047 
Q 1172 3844 1172 3481 
z
" transform="scale(0.015625)"/>
       </defs>
       <use xlink:href="#DejaVuSans-31"/>
       <use xlink:href="#DejaVuSans-39" x="63.623047"/>
       <use xlink:href="#DejaVuSans-38" x="127.246094"/>
       <use xlink:href="#DejaVuSans-30" x="190.869141"/>
      </g>
     </g>
    </g>
    <g id="xtick_5">
     <g id="text_5">
      <!-- 2000 -->
      <g style="fill: #262626" transform="translate(314.519124 252.373484)scale(0.077 -0.077)">
       <use xlink:href="#DejaVuSans-32"/>
       <use xlink:href="#DejaVuSans-30" x="63.623047"/>
       <use xlink:href="#DejaVuSans-30" x="127.246094"/>
       <use xlink:href="#DejaVuSans-30" x="190.869141"/>
      </g>
     </g>
    </g>
    <g id="text_6">
     <!-- Year Cultured -->
     <g style="fill: #262626" transform="translate(182.746313 264.357531)scale(0.084 -0.084)">
      <defs>
       <path id="DejaVuSans-59" d="M -13 4666 
L 666 4666 
L 1959 2747 
L 3244 4666 
L 3922 4666 
L 2272 2222 
L 2272 0 
L 1638 0 
L 1638 2222 
L -13 4666 
z
" transform="scale(0.015625)"/>
       <path id="DejaVuSans-65" d="M 3597 1894 
L 3597 1613 
L 953 1613 
Q 991 1019 1311 708 
Q 1631 397 2203 397 
Q 2534 397 2845 478 
Q 3156 559 3463 722 
L 3463 178 
Q 3153 47 2828 -22 
Q 2503 -91 2169 -91 
Q 1331 -91 842 396 
Q 353 884 353 1716 
Q 353 2575 817 3079 
Q 1281 3584 2069 3584 
Q 2775 3584 3186 3129 
Q 3597 2675 3597 1894 
z
M 3022 2063 
Q 3016 2534 2758 2815 
Q 2500 3097 2075 3097 
Q 1594 3097 1305 2825 
Q 1016 2553 972 2059 
L 3022 2063 
z
" transform="scale(0.015625)"/>
       <path id="DejaVuSans-61" d="M 2194 1759 
Q 1497 1759 1228 1600 
Q 959 1441 959 1056 
Q 959 750 1161 570 
Q 1363 391 1709 391 
Q 2188 391 2477 730 
Q 2766 1069 2766 1631 
L 2766 1759 
L 2194 1759 
z
M 3341 1997 
L 3341 0 
L 2766 0 
L 2766 531 
Q 2569 213 2275 61 
Q 1981 -91 1556 -91 
Q 1019 -91 701 211 
Q 384 513 384 1019 
Q 384 1609 779 1909 
Q 1175 2209 1959 2209 
L 2766 2209 
L 2766 2266 
Q 2766 2663 2505 2880 
Q 2244 3097 1772 3097 
Q 1472 3097 1187 3025 
Q 903 2953 641 2809 
L 641 3341 
Q 956 3463 1253 3523 
Q 1550 3584 1831 3584 
Q 2591 3584 2966 3190 
Q 3341 2797 3341 1997 
z
" transform="scale(0.015625)"/>
       <path id="DejaVuSans-72" d="M 2631 2963 
Q 2534 3019 2420 3045 
Q 2306 3072 2169 3072 
Q 1681 3072 1420 2755 
Q 1159 2438 1159 1844 
L 1159 0 
L 581 0 
L 581 3500 
L 1159 3500 
L 1159 2956 
Q 1341 3275 1631 3429 
Q 1922 3584 2338 3584 
Q 2397 3584 2469 3576 
Q 2541 3569 2628 3553 
L 2631 2963 
z
" transform="scale(0.015625)"/>
       <path id="DejaVuSans-20" transform="scale(0.015625)"/>
       <path id="DejaVuSans-43" d="M 4122 4306 
L 4122 3641 
Q 3803 3938 3442 4084 
Q 3081 4231 2675 4231 
Q 1875 4231 1450 3742 
Q 1025 3253 1025 2328 
Q 1025 1406 1450 917 
Q 1875 428 2675 428 
Q 3081 428 3442 575 
Q 3803 722 4122 1019 
L 4122 359 
Q 3791 134 3420 21 
Q 3050 -91 2638 -91 
Q 1578 -91 968 557 
Q 359 1206 359 2328 
Q 359 3453 968 4101 
Q 1578 4750 2638 4750 
Q 3056 4750 3426 4639 
Q 3797 4528 4122 4306 
z
" transform="scale(0.015625)"/>
       <path id="DejaVuSans-75" d="M 544 1381 
L 544 3500 
L 1119 3500 
L 1119 1403 
Q 1119 906 1312 657 
Q 1506 409 1894 409 
Q 2359 409 2629 706 
Q 2900 1003 2900 1516 
L 2900 3500 
L 3475 3500 
L 3475 0 
L 2900 0 
L 2900 538 
Q 2691 219 2414 64 
Q 2138 -91 1772 -91 
Q 1169 -91 856 284 
Q 544 659 544 1381 
z
M 1991 3584 
L 1991 3584 
z
" transform="scale(0.015625)"/>
       <path id="DejaVuSans-6c" d="M 603 4863 
L 1178 4863 
L 1178 0 
L 603 0 
L 603 4863 
z
" transform="scale(0.015625)"/>
       <path id="DejaVuSans-74" d="M 1172 4494 
L 1172 3500 
L 2356 3500 
L 2356 3053 
L 1172 3053 
L 1172 1153 
Q 1172 725 1289 603 
Q 1406 481 1766 481 
L 2356 481 
L 2356 0 
L 1766 0 
Q 1100 0 847 248 
Q 594 497 594 1153 
L 594 3053 
L 172 3053 
L 172 3500 
L 594 3500 
L 594 4494 
L 1172 4494 
z
" transform="scale(0.015625)"/>
       <path id="DejaVuSans-64" d="M 2906 2969 
L 2906 4863 
L 3481 4863 
L 3481 0 
L 2906 0 
L 2906 525 
Q 2725 213 2448 61 
Q 2172 -91 1784 -91 
Q 1150 -91 751 415 
Q 353 922 353 1747 
Q 353 2572 751 3078 
Q 1150 3584 1784 3584 
Q 2172 3584 2448 3432 
Q 2725 3281 2906 2969 
z
M 947 1747 
Q 947 1113 1208 752 
Q 1469 391 1925 391 
Q 2381 391 2643 752 
Q 2906 1113 2906 1747 
Q 2906 2381 2643 2742 
Q 2381 3103 1925 3103 
Q 1469 3103 1208 2742 
Q 947 2381 947 1747 
z
" transform="scale(0.015625)"/>
      </defs>
      <use xlink:href="#DejaVuSans-59"/>
      <use xlink:href="#DejaVuSans-65" x="47.833984"/>
      <use xlink:href="#DejaVuSans-61" x="109.357422"/>
      <use xlink:href="#DejaVuSans-72" x="170.636719"/>
      <use xlink:href="#DejaVuSans-20" x="211.75"/>
      <use xlink:href="#DejaVuSans-43" x="243.537109"/>
      <use xlink:href="#DejaVuSans-75" x="313.361328"/>
      <use xlink:href="#DejaVuSans-6c" x="376.740234"/>
      <use xlink:href="#DejaVuSans-74" x="404.523438"/>
      <use xlink:href="#DejaVuSans-75" x="443.732422"/>
      <use xlink:href="#DejaVuSans-72" x="507.111328"/>
      <use xlink:href="#DejaVuSans-65" x="545.974609"/>
      <use xlink:href="#DejaVuSans-64" x="607.498047"/>
     </g>
    </g>
   </g>
   <g id="matplotlib.axis_2">
    <g id="ytick_1">
     <g id="line2d_1">
      <defs>
       <path id="m6c891b6602" d="M 0 0 
L -6 0 
" style="stroke: #262626; stroke-width: 1.25"/>
      </defs>
      <g>
       <use xlink:href="#m6c891b6602" x="43.527" y="237.022687" style="fill: #262626; stroke: #262626; stroke-width: 1.25"/>
      </g>
     </g>
     <g id="text_7">
      <!-- 0 -->
      <g style="fill: #262626" transform="translate(29.127875 239.948086)scale(0.077 -0.077)">
       <use xlink:href="#DejaVuSans-30"/>
      </g>
     </g>
    </g>
    <g id="ytick_2">
     <g id="line2d_2">
      <g>
       <use xlink:href="#m6c891b6602" x="43.527" y="203.07421" style="fill: #262626; stroke: #262626; stroke-width: 1.25"/>
      </g>
     </g>
     <g id="text_8">
      <!-- 20 -->
      <g style="fill: #262626" transform="translate(24.22875 205.999608)scale(0.077 -0.077)">
       <use xlink:href="#DejaVuSans-32"/>
       <use xlink:href="#DejaVuSans-30" x="63.623047"/>
      </g>
     </g>
    </g>
    <g id="ytick_3">
     <g id="line2d_3">
      <g>
       <use xlink:href="#m6c891b6602" x="43.527" y="169.125732" style="fill: #262626; stroke: #262626; stroke-width: 1.25"/>
      </g>
     </g>
     <g id="text_9">
      <!-- 40 -->
      <g style="fill: #262626" transform="translate(24.22875 172.05113)scale(0.077 -0.077)">
       <use xlink:href="#DejaVuSans-34"/>
       <use xlink:href="#DejaVuSans-30" x="63.623047"/>
      </g>
     </g>
    </g>
    <g id="ytick_4">
     <g id="line2d_4">
      <g>
       <use xlink:href="#m6c891b6602" x="43.527" y="135.177254" style="fill: #262626; stroke: #262626; stroke-width: 1.25"/>
      </g>
     </g>
     <g id="text_10">
      <!-- 60 -->
      <g style="fill: #262626" transform="translate(24.22875 138.102653)scale(0.077 -0.077)">
       <use xlink:href="#DejaVuSans-36"/>
       <use xlink:href="#DejaVuSans-30" x="63.623047"/>
      </g>
     </g>
    </g>
    <g id="ytick_5">
     <g id="line2d_5">
      <g>
       <use xlink:href="#m6c891b6602" x="43.527" y="101.228776" style="fill: #262626; stroke: #262626; stroke-width: 1.25"/>
      </g>
     </g>
     <g id="text_11">
      <!-- 80 -->
      <g style="fill: #262626" transform="translate(24.22875 104.154175)scale(0.077 -0.077)">
       <use xlink:href="#DejaVuSans-38"/>
       <use xlink:href="#DejaVuSans-30" x="63.623047"/>
      </g>
     </g>
    </g>
    <g id="ytick_6">
     <g id="line2d_6">
      <g>
       <use xlink:href="#m6c891b6602" x="43.527" y="67.280299" style="fill: #262626; stroke: #262626; stroke-width: 1.25"/>
      </g>
     </g>
     <g id="text_12">
      <!-- 100 -->
      <g style="fill: #262626" transform="translate(19.329625 70.205697)scale(0.077 -0.077)">
       <use xlink:href="#DejaVuSans-31"/>
       <use xlink:href="#DejaVuSans-30" x="63.623047"/>
       <use xlink:href="#DejaVuSans-30" x="127.246094"/>
      </g>
     </g>
    </g>
    <g id="ytick_7">
     <g id="line2d_7">
      <g>
       <use xlink:href="#m6c891b6602" x="43.527" y="33.331821" style="fill: #262626; stroke: #262626; stroke-width: 1.25"/>
      </g>
     </g>
     <g id="text_13">
      <!-- 120 -->
      <g style="fill: #262626" transform="translate(19.329625 36.257219)scale(0.077 -0.077)">
       <use xlink:href="#DejaVuSans-31"/>
       <use xlink:href="#DejaVuSans-32" x="63.623047"/>
       <use xlink:href="#DejaVuSans-30" x="127.246094"/>
      </g>
     </g>
    </g>
    <g id="text_14">
     <!-- Count -->
     <g style="fill: #262626" transform="translate(13.582688 140.775375)rotate(-90)scale(0.084 -0.084)">
      <defs>
       <path id="DejaVuSans-6f" d="M 1959 3097 
Q 1497 3097 1228 2736 
Q 959 2375 959 1747 
Q 959 1119 1226 758 
Q 1494 397 1959 397 
Q 2419 397 2687 759 
Q 2956 1122 2956 1747 
Q 2956 2369 2687 2733 
Q 2419 3097 1959 3097 
z
M 1959 3584 
Q 2709 3584 3137 3096 
Q 3566 2609 3566 1747 
Q 3566 888 3137 398 
Q 2709 -91 1959 -91 
Q 1206 -91 779 398 
Q 353 888 353 1747 
Q 353 2609 779 3096 
Q 1206 3584 1959 3584 
z
" transform="scale(0.015625)"/>
       <path id="DejaVuSans-6e" d="M 3513 2113 
L 3513 0 
L 2938 0 
L 2938 2094 
Q 2938 2591 2744 2837 
Q 2550 3084 2163 3084 
Q 1697 3084 1428 2787 
Q 1159 2491 1159 1978 
L 1159 0 
L 581 0 
L 581 3500 
L 1159 3500 
L 1159 2956 
Q 1366 3272 1645 3428 
Q 1925 3584 2291 3584 
Q 2894 3584 3203 3211 
Q 3513 2838 3513 2113 
z
" transform="scale(0.015625)"/>
      </defs>
      <use xlink:href="#DejaVuSans-43"/>
      <use xlink:href="#DejaVuSans-6f" x="69.824219"/>
      <use xlink:href="#DejaVuSans-75" x="131.005859"/>
      <use xlink:href="#DejaVuSans-6e" x="194.384766"/>
      <use xlink:href="#DejaVuSans-74" x="257.763672"/>
     </g>
    </g>
   </g>
   <g id="line2d_8">
    <path d="M 58.745182 237.022687 
L 74.764321 237.022687 
L 74.764321 237.022687 
L 90.783459 237.022687 
L 90.783459 237.022687 
L 106.802598 237.022687 
L 106.802598 237.022687 
L 122.821737 237.022687 
L 122.821737 237.022687 
L 138.840876 237.022687 
L 138.840876 237.022687 
L 154.860014 237.022687 
L 154.860014 237.022687 
L 170.879153 237.022687 
L 170.879153 237.022687 
L 186.898292 237.022687 
L 186.898292 231.930416 
L 202.917431 231.930416 
L 202.917431 231.930416 
L 218.936569 231.930416 
L 218.936569 231.930416 
L 234.955708 231.930416 
L 234.955708 231.930416 
L 250.974847 231.930416 
L 250.974847 230.232992 
L 266.993986 230.232992 
L 266.993986 218.351025 
L 283.013124 218.351025 
L 283.013124 218.351025 
L 299.032263 218.351025 
L 299.032263 218.351025 
L 315.051402 218.351025 
L 315.051402 218.351025 
L 331.070541 218.351025 
L 331.070541 216.653601 
L 347.089679 216.653601 
L 347.089679 216.653601 
L 363.108818 216.653601 
L 363.108818 216.653601 
" clip-path="url(#pf8ea42923d)" style="fill: none; stroke: #937860; stroke-width: 1.5; stroke-linecap: round"/>
   </g>
   <g id="line2d_9">
    <path d="M 58.745182 237.022687 
L 74.764321 237.022687 
L 74.764321 237.022687 
L 90.783459 237.022687 
L 90.783459 237.022687 
L 106.802598 237.022687 
L 106.802598 237.022687 
L 122.821737 237.022687 
L 122.821737 237.022687 
L 138.840876 237.022687 
L 138.840876 237.022687 
L 154.860014 237.022687 
L 154.860014 231.930416 
L 170.879153 231.930416 
L 170.879153 231.930416 
L 186.898292 231.930416 
L 186.898292 231.930416 
L 202.917431 231.930416 
L 202.917431 231.930416 
L 218.936569 231.930416 
L 218.936569 231.930416 
L 234.955708 231.930416 
L 234.955708 231.930416 
L 250.974847 231.930416 
L 250.974847 231.930416 
L 266.993986 231.930416 
L 266.993986 230.232992 
L 283.013124 230.232992 
L 283.013124 230.232992 
L 299.032263 230.232992 
L 299.032263 230.232992 
L 315.051402 230.232992 
L 315.051402 230.232992 
L 331.070541 230.232992 
L 331.070541 220.048449 
L 347.089679 220.048449 
L 347.089679 220.048449 
L 363.108818 220.048449 
L 363.108818 220.048449 
" clip-path="url(#pf8ea42923d)" style="fill: none; stroke: #8172b3; stroke-width: 1.5; stroke-linecap: round"/>
   </g>
   <g id="line2d_10">
    <path d="M 58.745182 237.022687 
L 74.764321 237.022687 
L 74.764321 237.022687 
L 90.783459 237.022687 
L 90.783459 237.022687 
L 106.802598 237.022687 
L 106.802598 237.022687 
L 122.821737 237.022687 
L 122.821737 237.022687 
L 138.840876 237.022687 
L 138.840876 237.022687 
L 154.860014 237.022687 
L 154.860014 230.232992 
L 170.879153 230.232992 
L 170.879153 230.232992 
L 186.898292 230.232992 
L 186.898292 230.232992 
L 202.917431 230.232992 
L 202.917431 230.232992 
L 218.936569 230.232992 
L 218.936569 230.232992 
L 234.955708 230.232992 
L 234.955708 230.232992 
L 250.974847 230.232992 
L 250.974847 230.232992 
L 266.993986 230.232992 
L 266.993986 230.232992 
L 283.013124 230.232992 
L 283.013124 226.838144 
L 299.032263 226.838144 
L 299.032263 226.838144 
L 315.051402 226.838144 
L 315.051402 226.838144 
L 331.070541 226.838144 
L 331.070541 226.838144 
L 347.089679 226.838144 
L 347.089679 225.14072 
L 363.108818 225.14072 
L 363.108818 225.14072 
" clip-path="url(#pf8ea42923d)" style="fill: none; stroke: #c44e52; stroke-width: 1.5; stroke-linecap: round"/>
   </g>
   <g id="line2d_11">
    <path d="M 58.745182 237.022687 
L 74.764321 237.022687 
L 74.764321 237.022687 
L 90.783459 237.022687 
L 90.783459 235.325264 
L 106.802598 235.325264 
L 106.802598 235.325264 
L 122.821737 235.325264 
L 122.821737 235.325264 
L 138.840876 235.325264 
L 138.840876 235.325264 
L 154.860014 235.325264 
L 154.860014 231.930416 
L 170.879153 231.930416 
L 170.879153 226.838144 
L 186.898292 226.838144 
L 186.898292 214.956177 
L 202.917431 214.956177 
L 202.917431 204.771634 
L 218.936569 204.771634 
L 218.936569 194.58709 
L 234.955708 194.58709 
L 234.955708 192.889666 
L 250.974847 192.889666 
L 250.974847 192.889666 
L 266.993986 192.889666 
L 266.993986 189.494819 
L 283.013124 189.494819 
L 283.013124 189.494819 
L 299.032263 189.494819 
L 299.032263 189.494819 
L 315.051402 189.494819 
L 315.051402 189.494819 
L 331.070541 189.494819 
L 331.070541 189.494819 
L 347.089679 189.494819 
L 347.089679 170.823156 
L 363.108818 170.823156 
L 363.108818 170.823156 
" clip-path="url(#pf8ea42923d)" style="fill: none; stroke: #55a868; stroke-width: 1.5; stroke-linecap: round"/>
   </g>
   <g id="line2d_12">
    <path d="M 58.745182 235.325264 
L 74.764321 235.325264 
L 74.764321 231.930416 
L 90.783459 231.930416 
L 90.783459 231.930416 
L 106.802598 231.930416 
L 106.802598 226.838144 
L 122.821737 226.838144 
L 122.821737 199.679362 
L 138.840876 199.679362 
L 138.840876 181.007699 
L 154.860014 181.007699 
L 154.860014 169.125732 
L 170.879153 169.125732 
L 170.879153 96.136505 
L 186.898292 96.136505 
L 186.898292 52.003484 
L 202.917431 52.003484 
L 202.917431 43.516364 
L 218.936569 43.516364 
L 218.936569 43.516364 
L 234.955708 43.516364 
L 234.955708 41.81894 
L 250.974847 41.81894 
L 250.974847 36.726669 
L 266.993986 36.726669 
L 266.993986 36.726669 
L 283.013124 36.726669 
L 283.013124 36.726669 
L 299.032263 36.726669 
L 299.032263 36.726669 
L 315.051402 36.726669 
L 315.051402 36.726669 
L 331.070541 36.726669 
L 331.070541 35.029245 
L 347.089679 35.029245 
L 347.089679 29.936973 
L 363.108818 29.936973 
L 363.108818 29.936973 
" clip-path="url(#pf8ea42923d)" style="fill: none; stroke: #dd8452; stroke-width: 1.5; stroke-linecap: round"/>
   </g>
   <g id="line2d_13">
    <path d="M 58.745182 233.62784 
L 74.764321 233.62784 
L 74.764321 221.745873 
L 90.783459 221.745873 
L 90.783459 220.048449 
L 106.802598 220.048449 
L 106.802598 214.956177 
L 122.821737 214.956177 
L 122.821737 192.889666 
L 138.840876 192.889666 
L 138.840876 152.151493 
L 154.860014 152.151493 
L 154.860014 133.47983 
L 170.879153 133.47983 
L 170.879153 101.228776 
L 186.898292 101.228776 
L 186.898292 74.069994 
L 202.917431 74.069994 
L 202.917431 67.280299 
L 218.936569 67.280299 
L 218.936569 57.095755 
L 234.955708 57.095755 
L 234.955708 55.398332 
L 250.974847 55.398332 
L 250.974847 53.700908 
L 266.993986 53.700908 
L 266.993986 45.213788 
L 283.013124 45.213788 
L 283.013124 36.726669 
L 299.032263 36.726669 
L 299.032263 35.029245 
L 315.051402 35.029245 
L 315.051402 35.029245 
L 331.070541 35.029245 
L 331.070541 35.029245 
L 347.089679 35.029245 
L 347.089679 35.029245 
L 363.108818 35.029245 
L 363.108818 35.029245 
" clip-path="url(#pf8ea42923d)" style="fill: none; stroke: #4c72b0; stroke-width: 1.5; stroke-linecap: round"/>
   </g>
   <g id="line2d_14">
    <path d="M 210.927 237.022687 
L 210.927 19.582687 
" clip-path="url(#pf8ea42923d)" style="fill: none; stroke-dasharray: 3.7,1.6; stroke-dashoffset: 0; stroke: #808080"/>
   </g>
   <g id="line2d_15">
    <path d="M 154.231813 237.022687 
L 154.231813 19.582687 
" clip-path="url(#pf8ea42923d)" style="fill: none; stroke-dasharray: 3.7,1.6; stroke-dashoffset: 0; stroke: #808080"/>
   </g>
   <g id="line2d_16">
    <path d="M 216.894914 237.022687 
L 216.894914 19.582687 
" clip-path="url(#pf8ea42923d)" style="fill: none; stroke-dasharray: 3.7,1.6; stroke-dashoffset: 0; stroke: #808080"/>
   </g>
   <g id="line2d_17">
    <path d="M 169.151599 237.022687 
L 169.151599 19.582687 
" clip-path="url(#pf8ea42923d)" style="fill: none; stroke-dasharray: 3.7,1.6; stroke-dashoffset: 0; stroke: #808080"/>
   </g>
   <g id="line2d_18">
    <path d="M 181.087428 237.022687 
L 181.087428 19.582687 
" clip-path="url(#pf8ea42923d)" style="fill: none; stroke-dasharray: 3.7,1.6; stroke-dashoffset: 0; stroke: #808080"/>
   </g>
   <g id="line2d_19">
    <path d="M 163.183684 237.022687 
L 163.183684 19.582687 
" clip-path="url(#pf8ea42923d)" style="fill: none; stroke-dasharray: 3.7,1.6; stroke-dashoffset: 0; stroke: #808080"/>
   </g>
   <g id="line2d_20">
    <path d="M 282.541973 237.022687 
L 282.541973 19.582687 
" clip-path="url(#pf8ea42923d)" style="fill: none; stroke-dasharray: 3.7,1.6; stroke-dashoffset: 0; stroke: #808080"/>
   </g>
   <g id="line2d_21">
    <path d="M 133.344112 237.022687 
L 133.344112 19.582687 
" clip-path="url(#pf8ea42923d)" style="fill: none; stroke-dasharray: 3.7,1.6; stroke-dashoffset: 0; stroke: #808080"/>
   </g>
   <g id="line2d_22">
    <path d="M 198.991171 237.022687 
L 198.991171 19.582687 
" clip-path="url(#pf8ea42923d)" style="fill: none; stroke-dasharray: 3.7,1.6; stroke-dashoffset: 0; stroke: #808080"/>
   </g>
   <g id="patch_3">
    <path d="M 43.527 237.022687 
L 43.527 19.582687 
" style="fill: none; stroke: #262626; stroke-width: 1.25; stroke-linejoin: miter; stroke-linecap: square"/>
   </g>
   <g id="patch_4">
    <path d="M 378.327 237.022687 
L 378.327 19.582687 
" style="fill: none; stroke: #262626; stroke-width: 1.25; stroke-linejoin: miter; stroke-linecap: square"/>
   </g>
   <g id="patch_5">
    <path d="M 43.527 237.022687 
L 378.327 237.022687 
" style="fill: none; stroke: #262626; stroke-width: 1.25; stroke-linejoin: miter; stroke-linecap: square"/>
   </g>
   <g id="text_15">
    <!-- Fluoroquinolone -->
    <g style="fill: #262626" transform="translate(210.195459 89.50575)rotate(-90)scale(0.06 -0.06)">
     <defs>
      <path id="DejaVuSans-46" d="M 628 4666 
L 3309 4666 
L 3309 4134 
L 1259 4134 
L 1259 2759 
L 3109 2759 
L 3109 2228 
L 1259 2228 
L 1259 0 
L 628 0 
L 628 4666 
z
" transform="scale(0.015625)"/>
      <path id="DejaVuSans-71" d="M 947 1747 
Q 947 1113 1208 752 
Q 1469 391 1925 391 
Q 2381 391 2643 752 
Q 2906 1113 2906 1747 
Q 2906 2381 2643 2742 
Q 2381 3103 1925 3103 
Q 1469 3103 1208 2742 
Q 947 2381 947 1747 
z
M 2906 525 
Q 2725 213 2448 61 
Q 2172 -91 1784 -91 
Q 1150 -91 751 415 
Q 353 922 353 1747 
Q 353 2572 751 3078 
Q 1150 3584 1784 3584 
Q 2172 3584 2448 3432 
Q 2725 3281 2906 2969 
L 2906 3500 
L 3481 3500 
L 3481 -1331 
L 2906 -1331 
L 2906 525 
z
" transform="scale(0.015625)"/>
      <path id="DejaVuSans-69" d="M 603 3500 
L 1178 3500 
L 1178 0 
L 603 0 
L 603 3500 
z
M 603 4863 
L 1178 4863 
L 1178 4134 
L 603 4134 
L 603 4863 
z
" transform="scale(0.015625)"/>
     </defs>
     <use xlink:href="#DejaVuSans-46"/>
     <use xlink:href="#DejaVuSans-6c" x="57.519531"/>
     <use xlink:href="#DejaVuSans-75" x="85.302734"/>
     <use xlink:href="#DejaVuSans-6f" x="148.681641"/>
     <use xlink:href="#DejaVuSans-72" x="209.863281"/>
     <use xlink:href="#DejaVuSans-6f" x="248.726562"/>
     <use xlink:href="#DejaVuSans-71" x="309.908203"/>
     <use xlink:href="#DejaVuSans-75" x="373.384766"/>
     <use xlink:href="#DejaVuSans-69" x="436.763672"/>
     <use xlink:href="#DejaVuSans-6e" x="464.546875"/>
     <use xlink:href="#DejaVuSans-6f" x="527.925781"/>
     <use xlink:href="#DejaVuSans-6c" x="589.107422"/>
     <use xlink:href="#DejaVuSans-6f" x="616.890625"/>
     <use xlink:href="#DejaVuSans-6e" x="678.072266"/>
     <use xlink:href="#DejaVuSans-65" x="741.451172"/>
    </g>
   </g>
   <g id="text_16">
    <!-- Penam -->
    <g style="fill: #262626" transform="translate(153.500272 61.742625)rotate(-90)scale(0.06 -0.06)">
     <defs>
      <path id="DejaVuSans-50" d="M 1259 4147 
L 1259 2394 
L 2053 2394 
Q 2494 2394 2734 2622 
Q 2975 2850 2975 3272 
Q 2975 3691 2734 3919 
Q 2494 4147 2053 4147 
L 1259 4147 
z
M 628 4666 
L 2053 4666 
Q 2838 4666 3239 4311 
Q 3641 3956 3641 3272 
Q 3641 2581 3239 2228 
Q 2838 1875 2053 1875 
L 1259 1875 
L 1259 0 
L 628 0 
L 628 4666 
z
" transform="scale(0.015625)"/>
      <path id="DejaVuSans-6d" d="M 3328 2828 
Q 3544 3216 3844 3400 
Q 4144 3584 4550 3584 
Q 5097 3584 5394 3201 
Q 5691 2819 5691 2113 
L 5691 0 
L 5113 0 
L 5113 2094 
Q 5113 2597 4934 2840 
Q 4756 3084 4391 3084 
Q 3944 3084 3684 2787 
Q 3425 2491 3425 1978 
L 3425 0 
L 2847 0 
L 2847 2094 
Q 2847 2600 2669 2842 
Q 2491 3084 2119 3084 
Q 1678 3084 1418 2786 
Q 1159 2488 1159 1978 
L 1159 0 
L 581 0 
L 581 3500 
L 1159 3500 
L 1159 2956 
Q 1356 3278 1631 3431 
Q 1906 3584 2284 3584 
Q 2666 3584 2933 3390 
Q 3200 3197 3328 2828 
z
" transform="scale(0.015625)"/>
     </defs>
     <use xlink:href="#DejaVuSans-50"/>
     <use xlink:href="#DejaVuSans-65" x="56.677734"/>
     <use xlink:href="#DejaVuSans-6e" x="118.201172"/>
     <use xlink:href="#DejaVuSans-61" x="181.580078"/>
     <use xlink:href="#DejaVuSans-6d" x="242.859375"/>
    </g>
   </g>
   <g id="text_17">
    <!-- Cephalosporin -->
    <g style="fill: #262626" transform="translate(216.163374 84.376687)rotate(-90)scale(0.06 -0.06)">
     <defs>
      <path id="DejaVuSans-70" d="M 1159 525 
L 1159 -1331 
L 581 -1331 
L 581 3500 
L 1159 3500 
L 1159 2969 
Q 1341 3281 1617 3432 
Q 1894 3584 2278 3584 
Q 2916 3584 3314 3078 
Q 3713 2572 3713 1747 
Q 3713 922 3314 415 
Q 2916 -91 2278 -91 
Q 1894 -91 1617 61 
Q 1341 213 1159 525 
z
M 3116 1747 
Q 3116 2381 2855 2742 
Q 2594 3103 2138 3103 
Q 1681 3103 1420 2742 
Q 1159 2381 1159 1747 
Q 1159 1113 1420 752 
Q 1681 391 2138 391 
Q 2594 391 2855 752 
Q 3116 1113 3116 1747 
z
" transform="scale(0.015625)"/>
      <path id="DejaVuSans-68" d="M 3513 2113 
L 3513 0 
L 2938 0 
L 2938 2094 
Q 2938 2591 2744 2837 
Q 2550 3084 2163 3084 
Q 1697 3084 1428 2787 
Q 1159 2491 1159 1978 
L 1159 0 
L 581 0 
L 581 4863 
L 1159 4863 
L 1159 2956 
Q 1366 3272 1645 3428 
Q 1925 3584 2291 3584 
Q 2894 3584 3203 3211 
Q 3513 2838 3513 2113 
z
" transform="scale(0.015625)"/>
      <path id="DejaVuSans-73" d="M 2834 3397 
L 2834 2853 
Q 2591 2978 2328 3040 
Q 2066 3103 1784 3103 
Q 1356 3103 1142 2972 
Q 928 2841 928 2578 
Q 928 2378 1081 2264 
Q 1234 2150 1697 2047 
L 1894 2003 
Q 2506 1872 2764 1633 
Q 3022 1394 3022 966 
Q 3022 478 2636 193 
Q 2250 -91 1575 -91 
Q 1294 -91 989 -36 
Q 684 19 347 128 
L 347 722 
Q 666 556 975 473 
Q 1284 391 1588 391 
Q 1994 391 2212 530 
Q 2431 669 2431 922 
Q 2431 1156 2273 1281 
Q 2116 1406 1581 1522 
L 1381 1569 
Q 847 1681 609 1914 
Q 372 2147 372 2553 
Q 372 3047 722 3315 
Q 1072 3584 1716 3584 
Q 2034 3584 2315 3537 
Q 2597 3491 2834 3397 
z
" transform="scale(0.015625)"/>
     </defs>
     <use xlink:href="#DejaVuSans-43"/>
     <use xlink:href="#DejaVuSans-65" x="69.824219"/>
     <use xlink:href="#DejaVuSans-70" x="131.347656"/>
     <use xlink:href="#DejaVuSans-68" x="194.824219"/>
     <use xlink:href="#DejaVuSans-61" x="258.203125"/>
     <use xlink:href="#DejaVuSans-6c" x="319.482422"/>
     <use xlink:href="#DejaVuSans-6f" x="347.265625"/>
     <use xlink:href="#DejaVuSans-73" x="408.447266"/>
     <use xlink:href="#DejaVuSans-70" x="460.546875"/>
     <use xlink:href="#DejaVuSans-6f" x="524.023438"/>
     <use xlink:href="#DejaVuSans-72" x="585.205078"/>
     <use xlink:href="#DejaVuSans-69" x="626.318359"/>
     <use xlink:href="#DejaVuSans-6e" x="654.101562"/>
    </g>
   </g>
   <g id="text_18">
    <!-- Tetracycline -->
    <g style="fill: #262626" transform="translate(168.420058 77.136375)rotate(-90)scale(0.06 -0.06)">
     <defs>
      <path id="DejaVuSans-54" d="M -19 4666 
L 3928 4666 
L 3928 4134 
L 2272 4134 
L 2272 0 
L 1638 0 
L 1638 4134 
L -19 4134 
L -19 4666 
z
" transform="scale(0.015625)"/>
      <path id="DejaVuSans-63" d="M 3122 3366 
L 3122 2828 
Q 2878 2963 2633 3030 
Q 2388 3097 2138 3097 
Q 1578 3097 1268 2742 
Q 959 2388 959 1747 
Q 959 1106 1268 751 
Q 1578 397 2138 397 
Q 2388 397 2633 464 
Q 2878 531 3122 666 
L 3122 134 
Q 2881 22 2623 -34 
Q 2366 -91 2075 -91 
Q 1284 -91 818 406 
Q 353 903 353 1747 
Q 353 2603 823 3093 
Q 1294 3584 2113 3584 
Q 2378 3584 2631 3529 
Q 2884 3475 3122 3366 
z
" transform="scale(0.015625)"/>
      <path id="DejaVuSans-79" d="M 2059 -325 
Q 1816 -950 1584 -1140 
Q 1353 -1331 966 -1331 
L 506 -1331 
L 506 -850 
L 844 -850 
Q 1081 -850 1212 -737 
Q 1344 -625 1503 -206 
L 1606 56 
L 191 3500 
L 800 3500 
L 1894 763 
L 2988 3500 
L 3597 3500 
L 2059 -325 
z
" transform="scale(0.015625)"/>
     </defs>
     <use xlink:href="#DejaVuSans-54"/>
     <use xlink:href="#DejaVuSans-65" x="44.083984"/>
     <use xlink:href="#DejaVuSans-74" x="105.607422"/>
     <use xlink:href="#DejaVuSans-72" x="144.816406"/>
     <use xlink:href="#DejaVuSans-61" x="185.929688"/>
     <use xlink:href="#DejaVuSans-63" x="247.208984"/>
     <use xlink:href="#DejaVuSans-79" x="302.189453"/>
     <use xlink:href="#DejaVuSans-63" x="361.369141"/>
     <use xlink:href="#DejaVuSans-6c" x="416.349609"/>
     <use xlink:href="#DejaVuSans-69" x="444.132812"/>
     <use xlink:href="#DejaVuSans-6e" x="471.916016"/>
     <use xlink:href="#DejaVuSans-65" x="535.294922"/>
    </g>
   </g>
   <g id="text_19">
    <!-- Macrolide -->
    <g style="fill: #262626" transform="translate(180.355887 70.317)rotate(-90)scale(0.06 -0.06)">
     <defs>
      <path id="DejaVuSans-4d" d="M 628 4666 
L 1569 4666 
L 2759 1491 
L 3956 4666 
L 4897 4666 
L 4897 0 
L 4281 0 
L 4281 4097 
L 3078 897 
L 2444 897 
L 1241 4097 
L 1241 0 
L 628 0 
L 628 4666 
z
" transform="scale(0.015625)"/>
     </defs>
     <use xlink:href="#DejaVuSans-4d"/>
     <use xlink:href="#DejaVuSans-61" x="86.279297"/>
     <use xlink:href="#DejaVuSans-63" x="147.558594"/>
     <use xlink:href="#DejaVuSans-72" x="202.539062"/>
     <use xlink:href="#DejaVuSans-6f" x="241.402344"/>
     <use xlink:href="#DejaVuSans-6c" x="302.583984"/>
     <use xlink:href="#DejaVuSans-69" x="330.367188"/>
     <use xlink:href="#DejaVuSans-64" x="358.150391"/>
     <use xlink:href="#DejaVuSans-65" x="421.626953"/>
    </g>
   </g>
   <g id="text_20">
    <!-- Aminoglycoside -->
    <g style="fill: #262626" transform="translate(162.452144 88.707)rotate(-90)scale(0.06 -0.06)">
     <defs>
      <path id="DejaVuSans-41" d="M 2188 4044 
L 1331 1722 
L 3047 1722 
L 2188 4044 
z
M 1831 4666 
L 2547 4666 
L 4325 0 
L 3669 0 
L 3244 1197 
L 1141 1197 
L 716 0 
L 50 0 
L 1831 4666 
z
" transform="scale(0.015625)"/>
      <path id="DejaVuSans-67" d="M 2906 1791 
Q 2906 2416 2648 2759 
Q 2391 3103 1925 3103 
Q 1463 3103 1205 2759 
Q 947 2416 947 1791 
Q 947 1169 1205 825 
Q 1463 481 1925 481 
Q 2391 481 2648 825 
Q 2906 1169 2906 1791 
z
M 3481 434 
Q 3481 -459 3084 -895 
Q 2688 -1331 1869 -1331 
Q 1566 -1331 1297 -1286 
Q 1028 -1241 775 -1147 
L 775 -588 
Q 1028 -725 1275 -790 
Q 1522 -856 1778 -856 
Q 2344 -856 2625 -561 
Q 2906 -266 2906 331 
L 2906 616 
Q 2728 306 2450 153 
Q 2172 0 1784 0 
Q 1141 0 747 490 
Q 353 981 353 1791 
Q 353 2603 747 3093 
Q 1141 3584 1784 3584 
Q 2172 3584 2450 3431 
Q 2728 3278 2906 2969 
L 2906 3500 
L 3481 3500 
L 3481 434 
z
" transform="scale(0.015625)"/>
     </defs>
     <use xlink:href="#DejaVuSans-41"/>
     <use xlink:href="#DejaVuSans-6d" x="68.408203"/>
     <use xlink:href="#DejaVuSans-69" x="165.820312"/>
     <use xlink:href="#DejaVuSans-6e" x="193.603516"/>
     <use xlink:href="#DejaVuSans-6f" x="256.982422"/>
     <use xlink:href="#DejaVuSans-67" x="318.164062"/>
     <use xlink:href="#DejaVuSans-6c" x="381.640625"/>
     <use xlink:href="#DejaVuSans-79" x="409.423828"/>
     <use xlink:href="#DejaVuSans-63" x="468.603516"/>
     <use xlink:href="#DejaVuSans-6f" x="523.583984"/>
     <use xlink:href="#DejaVuSans-73" x="584.765625"/>
     <use xlink:href="#DejaVuSans-69" x="636.865234"/>
     <use xlink:href="#DejaVuSans-64" x="664.648438"/>
     <use xlink:href="#DejaVuSans-65" x="728.125"/>
    </g>
   </g>
   <g id="text_21">
    <!-- Monobactam -->
    <g style="fill: #262626" transform="translate(281.810432 80.307)rotate(-90)scale(0.06 -0.06)">
     <defs>
      <path id="DejaVuSans-62" d="M 3116 1747 
Q 3116 2381 2855 2742 
Q 2594 3103 2138 3103 
Q 1681 3103 1420 2742 
Q 1159 2381 1159 1747 
Q 1159 1113 1420 752 
Q 1681 391 2138 391 
Q 2594 391 2855 752 
Q 3116 1113 3116 1747 
z
M 1159 2969 
Q 1341 3281 1617 3432 
Q 1894 3584 2278 3584 
Q 2916 3584 3314 3078 
Q 3713 2572 3713 1747 
Q 3713 922 3314 415 
Q 2916 -91 2278 -91 
Q 1894 -91 1617 61 
Q 1341 213 1159 525 
L 1159 0 
L 581 0 
L 581 4863 
L 1159 4863 
L 1159 2969 
z
" transform="scale(0.015625)"/>
     </defs>
     <use xlink:href="#DejaVuSans-4d"/>
     <use xlink:href="#DejaVuSans-6f" x="86.279297"/>
     <use xlink:href="#DejaVuSans-6e" x="147.460938"/>
     <use xlink:href="#DejaVuSans-6f" x="210.839844"/>
     <use xlink:href="#DejaVuSans-62" x="272.021484"/>
     <use xlink:href="#DejaVuSans-61" x="335.498047"/>
     <use xlink:href="#DejaVuSans-63" x="396.777344"/>
     <use xlink:href="#DejaVuSans-74" x="451.757812"/>
     <use xlink:href="#DejaVuSans-61" x="490.966797"/>
     <use xlink:href="#DejaVuSans-6d" x="552.246094"/>
    </g>
   </g>
   <g id="text_22">
    <!-- Sulfonamide -->
    <g style="fill: #262626" transform="translate(132.612572 78.880125)rotate(-90)scale(0.06 -0.06)">
     <defs>
      <path id="DejaVuSans-53" d="M 3425 4513 
L 3425 3897 
Q 3066 4069 2747 4153 
Q 2428 4238 2131 4238 
Q 1616 4238 1336 4038 
Q 1056 3838 1056 3469 
Q 1056 3159 1242 3001 
Q 1428 2844 1947 2747 
L 2328 2669 
Q 3034 2534 3370 2195 
Q 3706 1856 3706 1288 
Q 3706 609 3251 259 
Q 2797 -91 1919 -91 
Q 1588 -91 1214 -16 
Q 841 59 441 206 
L 441 856 
Q 825 641 1194 531 
Q 1563 422 1919 422 
Q 2459 422 2753 634 
Q 3047 847 3047 1241 
Q 3047 1584 2836 1778 
Q 2625 1972 2144 2069 
L 1759 2144 
Q 1053 2284 737 2584 
Q 422 2884 422 3419 
Q 422 4038 858 4394 
Q 1294 4750 2059 4750 
Q 2388 4750 2728 4690 
Q 3069 4631 3425 4513 
z
" transform="scale(0.015625)"/>
      <path id="DejaVuSans-66" d="M 2375 4863 
L 2375 4384 
L 1825 4384 
Q 1516 4384 1395 4259 
Q 1275 4134 1275 3809 
L 1275 3500 
L 2222 3500 
L 2222 3053 
L 1275 3053 
L 1275 0 
L 697 0 
L 697 3053 
L 147 3053 
L 147 3500 
L 697 3500 
L 697 3744 
Q 697 4328 969 4595 
Q 1241 4863 1831 4863 
L 2375 4863 
z
" transform="scale(0.015625)"/>
     </defs>
     <use xlink:href="#DejaVuSans-53"/>
     <use xlink:href="#DejaVuSans-75" x="63.476562"/>
     <use xlink:href="#DejaVuSans-6c" x="126.855469"/>
     <use xlink:href="#DejaVuSans-66" x="154.638672"/>
     <use xlink:href="#DejaVuSans-6f" x="189.84375"/>
     <use xlink:href="#DejaVuSans-6e" x="251.025391"/>
     <use xlink:href="#DejaVuSans-61" x="314.404297"/>
     <use xlink:href="#DejaVuSans-6d" x="375.683594"/>
     <use xlink:href="#DejaVuSans-69" x="473.095703"/>
     <use xlink:href="#DejaVuSans-64" x="500.878906"/>
     <use xlink:href="#DejaVuSans-65" x="564.355469"/>
    </g>
   </g>
   <g id="text_23">
    <!-- Glycopeptide -->
    <g style="fill: #262626" transform="translate(198.25963 80.994187)rotate(-90)scale(0.06 -0.06)">
     <defs>
      <path id="DejaVuSans-47" d="M 3809 666 
L 3809 1919 
L 2778 1919 
L 2778 2438 
L 4434 2438 
L 4434 434 
Q 4069 175 3628 42 
Q 3188 -91 2688 -91 
Q 1594 -91 976 548 
Q 359 1188 359 2328 
Q 359 3472 976 4111 
Q 1594 4750 2688 4750 
Q 3144 4750 3555 4637 
Q 3966 4525 4313 4306 
L 4313 3634 
Q 3963 3931 3569 4081 
Q 3175 4231 2741 4231 
Q 1884 4231 1454 3753 
Q 1025 3275 1025 2328 
Q 1025 1384 1454 906 
Q 1884 428 2741 428 
Q 3075 428 3337 486 
Q 3600 544 3809 666 
z
" transform="scale(0.015625)"/>
     </defs>
     <use xlink:href="#DejaVuSans-47"/>
     <use xlink:href="#DejaVuSans-6c" x="77.490234"/>
     <use xlink:href="#DejaVuSans-79" x="105.273438"/>
     <use xlink:href="#DejaVuSans-63" x="164.453125"/>
     <use xlink:href="#DejaVuSans-6f" x="219.433594"/>
     <use xlink:href="#DejaVuSans-70" x="280.615234"/>
     <use xlink:href="#DejaVuSans-65" x="344.091797"/>
     <use xlink:href="#DejaVuSans-70" x="405.615234"/>
     <use xlink:href="#DejaVuSans-74" x="469.091797"/>
     <use xlink:href="#DejaVuSans-69" x="508.300781"/>
     <use xlink:href="#DejaVuSans-64" x="536.083984"/>
     <use xlink:href="#DejaVuSans-65" x="599.560547"/>
    </g>
   </g>
   <g id="text_24">
    <!-- ESKAPE pathogens over time -->
    <g style="fill: #262626" transform="translate(149.788125 13.582687)scale(0.084 -0.084)">
     <defs>
      <path id="DejaVuSans-45" d="M 628 4666 
L 3578 4666 
L 3578 4134 
L 1259 4134 
L 1259 2753 
L 3481 2753 
L 3481 2222 
L 1259 2222 
L 1259 531 
L 3634 531 
L 3634 0 
L 628 0 
L 628 4666 
z
" transform="scale(0.015625)"/>
      <path id="DejaVuSans-4b" d="M 628 4666 
L 1259 4666 
L 1259 2694 
L 3353 4666 
L 4166 4666 
L 1850 2491 
L 4331 0 
L 3500 0 
L 1259 2247 
L 1259 0 
L 628 0 
L 628 4666 
z
" transform="scale(0.015625)"/>
      <path id="DejaVuSans-76" d="M 191 3500 
L 800 3500 
L 1894 563 
L 2988 3500 
L 3597 3500 
L 2284 0 
L 1503 0 
L 191 3500 
z
" transform="scale(0.015625)"/>
     </defs>
     <use xlink:href="#DejaVuSans-45"/>
     <use xlink:href="#DejaVuSans-53" x="63.183594"/>
     <use xlink:href="#DejaVuSans-4b" x="126.660156"/>
     <use xlink:href="#DejaVuSans-41" x="190.486328"/>
     <use xlink:href="#DejaVuSans-50" x="258.894531"/>
     <use xlink:href="#DejaVuSans-45" x="319.197266"/>
     <use xlink:href="#DejaVuSans-20" x="382.380859"/>
     <use xlink:href="#DejaVuSans-70" x="414.167969"/>
     <use xlink:href="#DejaVuSans-61" x="477.644531"/>
     <use xlink:href="#DejaVuSans-74" x="538.923828"/>
     <use xlink:href="#DejaVuSans-68" x="578.132812"/>
     <use xlink:href="#DejaVuSans-6f" x="641.511719"/>
     <use xlink:href="#DejaVuSans-67" x="702.693359"/>
     <use xlink:href="#DejaVuSans-65" x="766.169922"/>
     <use xlink:href="#DejaVuSans-6e" x="827.693359"/>
     <use xlink:href="#DejaVuSans-73" x="891.072266"/>
     <use xlink:href="#DejaVuSans-20" x="943.171875"/>
     <use xlink:href="#DejaVuSans-6f" x="974.958984"/>
     <use xlink:href="#DejaVuSans-76" x="1036.140625"/>
     <use xlink:href="#DejaVuSans-65" x="1095.320312"/>
     <use xlink:href="#DejaVuSans-72" x="1156.84375"/>
     <use xlink:href="#DejaVuSans-20" x="1197.957031"/>
     <use xlink:href="#DejaVuSans-74" x="1229.744141"/>
     <use xlink:href="#DejaVuSans-69" x="1268.953125"/>
     <use xlink:href="#DejaVuSans-6d" x="1296.736328"/>
     <use xlink:href="#DejaVuSans-65" x="1394.148438"/>
    </g>
   </g>
  </g>
  <g id="axes_2">
   <g id="matplotlib.axis_3">
    <g id="ytick_8">
     <g id="line2d_23">
      <defs>
       <path id="m1a539e5f62" d="M 0 0 
L 6 0 
" style="stroke: #262626; stroke-width: 1.25"/>
      </defs>
      <g>
       <use xlink:href="#m1a539e5f62" x="378.327" y="227.139051" style="fill: #262626; stroke: #262626; stroke-width: 1.25"/>
      </g>
     </g>
     <g id="text_25">
      <!-- 0.0 -->
      <g style="fill: #262626" transform="translate(387.827 230.06445)scale(0.077 -0.077)">
       <defs>
        <path id="DejaVuSans-2e" d="M 684 794 
L 1344 794 
L 1344 0 
L 684 0 
L 684 794 
z
" transform="scale(0.015625)"/>
       </defs>
       <use xlink:href="#DejaVuSans-30"/>
       <use xlink:href="#DejaVuSans-2e" x="63.623047"/>
       <use xlink:href="#DejaVuSans-30" x="95.410156"/>
      </g>
     </g>
    </g>
    <g id="ytick_9">
     <g id="line2d_24">
      <g>
       <use xlink:href="#m1a539e5f62" x="378.327" y="187.604506" style="fill: #262626; stroke: #262626; stroke-width: 1.25"/>
      </g>
     </g>
     <g id="text_26">
      <!-- 0.2 -->
      <g style="fill: #262626" transform="translate(387.827 190.529904)scale(0.077 -0.077)">
       <use xlink:href="#DejaVuSans-30"/>
       <use xlink:href="#DejaVuSans-2e" x="63.623047"/>
       <use xlink:href="#DejaVuSans-32" x="95.410156"/>
      </g>
     </g>
    </g>
    <g id="ytick_10">
     <g id="line2d_25">
      <g>
       <use xlink:href="#m1a539e5f62" x="378.327" y="148.06996" style="fill: #262626; stroke: #262626; stroke-width: 1.25"/>
      </g>
     </g>
     <g id="text_27">
      <!-- 0.4 -->
      <g style="fill: #262626" transform="translate(387.827 150.995359)scale(0.077 -0.077)">
       <use xlink:href="#DejaVuSans-30"/>
       <use xlink:href="#DejaVuSans-2e" x="63.623047"/>
       <use xlink:href="#DejaVuSans-34" x="95.410156"/>
      </g>
     </g>
    </g>
    <g id="ytick_11">
     <g id="line2d_26">
      <g>
       <use xlink:href="#m1a539e5f62" x="378.327" y="108.535415" style="fill: #262626; stroke: #262626; stroke-width: 1.25"/>
      </g>
     </g>
     <g id="text_28">
      <!-- 0.6 -->
      <g style="fill: #262626" transform="translate(387.827 111.460813)scale(0.077 -0.077)">
       <use xlink:href="#DejaVuSans-30"/>
       <use xlink:href="#DejaVuSans-2e" x="63.623047"/>
       <use xlink:href="#DejaVuSans-36" x="95.410156"/>
      </g>
     </g>
    </g>
    <g id="ytick_12">
     <g id="line2d_27">
      <g>
       <use xlink:href="#m1a539e5f62" x="378.327" y="69.000869" style="fill: #262626; stroke: #262626; stroke-width: 1.25"/>
      </g>
     </g>
     <g id="text_29">
      <!-- 0.8 -->
      <g style="fill: #262626" transform="translate(387.827 71.926268)scale(0.077 -0.077)">
       <use xlink:href="#DejaVuSans-30"/>
       <use xlink:href="#DejaVuSans-2e" x="63.623047"/>
       <use xlink:href="#DejaVuSans-38" x="95.410156"/>
      </g>
     </g>
    </g>
    <g id="ytick_13">
     <g id="line2d_28">
      <g>
       <use xlink:href="#m1a539e5f62" x="378.327" y="29.466324" style="fill: #262626; stroke: #262626; stroke-width: 1.25"/>
      </g>
     </g>
     <g id="text_30">
      <!-- 1.0 -->
      <g style="fill: #262626" transform="translate(387.827 32.391722)scale(0.077 -0.077)">
       <use xlink:href="#DejaVuSans-31"/>
       <use xlink:href="#DejaVuSans-2e" x="63.623047"/>
       <use xlink:href="#DejaVuSans-30" x="95.410156"/>
      </g>
     </g>
    </g>
    <g id="text_31">
     <!-- Fraction of isolates with resistance -->
     <g style="fill: #262626" transform="translate(410.455094 200.985)rotate(-90)scale(0.084 -0.084)">
      <defs>
       <path id="DejaVuSans-77" d="M 269 3500 
L 844 3500 
L 1563 769 
L 2278 3500 
L 2956 3500 
L 3675 769 
L 4391 3500 
L 4966 3500 
L 4050 0 
L 3372 0 
L 2619 2869 
L 1863 0 
L 1184 0 
L 269 3500 
z
" transform="scale(0.015625)"/>
      </defs>
      <use xlink:href="#DejaVuSans-46"/>
      <use xlink:href="#DejaVuSans-72" x="50.269531"/>
      <use xlink:href="#DejaVuSans-61" x="91.382812"/>
      <use xlink:href="#DejaVuSans-63" x="152.662109"/>
      <use xlink:href="#DejaVuSans-74" x="207.642578"/>
      <use xlink:href="#DejaVuSans-69" x="246.851562"/>
      <use xlink:href="#DejaVuSans-6f" x="274.634766"/>
      <use xlink:href="#DejaVuSans-6e" x="335.816406"/>
      <use xlink:href="#DejaVuSans-20" x="399.195312"/>
      <use xlink:href="#DejaVuSans-6f" x="430.982422"/>
      <use xlink:href="#DejaVuSans-66" x="492.164062"/>
      <use xlink:href="#DejaVuSans-20" x="527.369141"/>
      <use xlink:href="#DejaVuSans-69" x="559.15625"/>
      <use xlink:href="#DejaVuSans-73" x="586.939453"/>
      <use xlink:href="#DejaVuSans-6f" x="639.039062"/>
      <use xlink:href="#DejaVuSans-6c" x="700.220703"/>
      <use xlink:href="#DejaVuSans-61" x="728.003906"/>
      <use xlink:href="#DejaVuSans-74" x="789.283203"/>
      <use xlink:href="#DejaVuSans-65" x="828.492188"/>
      <use xlink:href="#DejaVuSans-73" x="890.015625"/>
      <use xlink:href="#DejaVuSans-20" x="942.115234"/>
      <use xlink:href="#DejaVuSans-77" x="973.902344"/>
      <use xlink:href="#DejaVuSans-69" x="1055.689453"/>
      <use xlink:href="#DejaVuSans-74" x="1083.472656"/>
      <use xlink:href="#DejaVuSans-68" x="1122.681641"/>
      <use xlink:href="#DejaVuSans-20" x="1186.060547"/>
      <use xlink:href="#DejaVuSans-72" x="1217.847656"/>
      <use xlink:href="#DejaVuSans-65" x="1256.710938"/>
      <use xlink:href="#DejaVuSans-73" x="1318.234375"/>
      <use xlink:href="#DejaVuSans-69" x="1370.333984"/>
      <use xlink:href="#DejaVuSans-73" x="1398.117188"/>
      <use xlink:href="#DejaVuSans-74" x="1450.216797"/>
      <use xlink:href="#DejaVuSans-61" x="1489.425781"/>
      <use xlink:href="#DejaVuSans-6e" x="1550.705078"/>
      <use xlink:href="#DejaVuSans-63" x="1614.083984"/>
      <use xlink:href="#DejaVuSans-65" x="1669.064453"/>
     </g>
    </g>
   </g>
   <g id="PathCollection_1">
    <defs>
     <path id="C0_0_afe447d9a5" d="M 0 3 
C 0.795609 3 1.55874 2.683901 2.12132 2.12132 
C 2.683901 1.55874 3 0.795609 3 -0 
C 3 -0.795609 2.683901 -1.55874 2.12132 -2.12132 
C 1.55874 -2.683901 0.795609 -3 0 -3 
C -0.795609 -3 -1.55874 -2.683901 -2.12132 -2.12132 
C -2.683901 -1.55874 -3 -0.795609 -3 0 
C -3 0.795609 -2.683901 1.55874 -2.12132 2.12132 
C -1.55874 2.683901 -0.795609 3 0 3 
z
"/>
    </defs>
    <g clip-path="url(#pf8ea42923d)">
     <use xlink:href="#C0_0_afe447d9a5" x="133.344112" y="227.139051" style="fill: #dd8452; stroke: #ffffff; stroke-width: 0.48"/>
    </g>
    <g clip-path="url(#pf8ea42923d)">
     <use xlink:href="#C0_0_afe447d9a5" x="133.344112" y="216.735223" style="fill: #55a868; stroke: #ffffff; stroke-width: 0.48"/>
    </g>
    <g clip-path="url(#pf8ea42923d)">
     <use xlink:href="#C0_0_afe447d9a5" x="133.344112" y="29.466324" style="fill: #8172b3; stroke: #ffffff; stroke-width: 0.48"/>
    </g>
    <g clip-path="url(#pf8ea42923d)">
     <use xlink:href="#C0_0_afe447d9a5" x="154.231813" y="37.373233" style="fill: #dd8452; stroke: #ffffff; stroke-width: 0.48"/>
    </g>
    <g clip-path="url(#pf8ea42923d)">
     <use xlink:href="#C0_0_afe447d9a5" x="154.231813" y="65.40682" style="fill: #55a868; stroke: #ffffff; stroke-width: 0.48"/>
    </g>
    <g clip-path="url(#pf8ea42923d)">
     <use xlink:href="#C0_0_afe447d9a5" x="154.231813" y="29.466324" style="fill: #8172b3; stroke: #ffffff; stroke-width: 0.48"/>
    </g>
    <g clip-path="url(#pf8ea42923d)">
     <use xlink:href="#C0_0_afe447d9a5" x="163.183684" y="29.466324" style="fill: #4c72b0; stroke: #ffffff; stroke-width: 0.48"/>
    </g>
    <g clip-path="url(#pf8ea42923d)">
     <use xlink:href="#C0_0_afe447d9a5" x="163.183684" y="36.654423" style="fill: #dd8452; stroke: #ffffff; stroke-width: 0.48"/>
    </g>
    <g clip-path="url(#pf8ea42923d)">
     <use xlink:href="#C0_0_afe447d9a5" x="163.183684" y="64.349746" style="fill: #55a868; stroke: #ffffff; stroke-width: 0.48"/>
    </g>
    <g clip-path="url(#pf8ea42923d)">
     <use xlink:href="#C0_0_afe447d9a5" x="163.183684" y="29.466324" style="fill: #8172b3; stroke: #ffffff; stroke-width: 0.48"/>
    </g>
    <g clip-path="url(#pf8ea42923d)">
     <use xlink:href="#C0_0_afe447d9a5" x="169.151599" y="227.139051" style="fill: #4c72b0; stroke: #ffffff; stroke-width: 0.48"/>
    </g>
    <g clip-path="url(#pf8ea42923d)">
     <use xlink:href="#C0_0_afe447d9a5" x="169.151599" y="39.187933" style="fill: #dd8452; stroke: #ffffff; stroke-width: 0.48"/>
    </g>
    <g clip-path="url(#pf8ea42923d)">
     <use xlink:href="#C0_0_afe447d9a5" x="169.151599" y="59.117233" style="fill: #55a868; stroke: #ffffff; stroke-width: 0.48"/>
    </g>
    <g clip-path="url(#pf8ea42923d)">
     <use xlink:href="#C0_0_afe447d9a5" x="169.151599" y="29.466324" style="fill: #c44e52; stroke: #ffffff; stroke-width: 0.48"/>
    </g>
    <g clip-path="url(#pf8ea42923d)">
     <use xlink:href="#C0_0_afe447d9a5" x="169.151599" y="29.466324" style="fill: #8172b3; stroke: #ffffff; stroke-width: 0.48"/>
    </g>
    <g clip-path="url(#pf8ea42923d)">
     <use xlink:href="#C0_0_afe447d9a5" x="181.087428" y="29.466324" style="fill: #4c72b0; stroke: #ffffff; stroke-width: 0.48"/>
    </g>
    <g clip-path="url(#pf8ea42923d)">
     <use xlink:href="#C0_0_afe447d9a5" x="181.087428" y="39.870152" style="fill: #dd8452; stroke: #ffffff; stroke-width: 0.48"/>
    </g>
    <g clip-path="url(#pf8ea42923d)">
     <use xlink:href="#C0_0_afe447d9a5" x="181.087428" y="44.479442" style="fill: #55a868; stroke: #ffffff; stroke-width: 0.48"/>
    </g>
    <g clip-path="url(#pf8ea42923d)">
     <use xlink:href="#C0_0_afe447d9a5" x="181.087428" y="29.466324" style="fill: #c44e52; stroke: #ffffff; stroke-width: 0.48"/>
    </g>
    <g clip-path="url(#pf8ea42923d)">
     <use xlink:href="#C0_0_afe447d9a5" x="181.087428" y="29.466324" style="fill: #8172b3; stroke: #ffffff; stroke-width: 0.48"/>
    </g>
    <g clip-path="url(#pf8ea42923d)">
     <use xlink:href="#C0_0_afe447d9a5" x="198.991171" y="29.466324" style="fill: #4c72b0; stroke: #ffffff; stroke-width: 0.48"/>
    </g>
    <g clip-path="url(#pf8ea42923d)">
     <use xlink:href="#C0_0_afe447d9a5" x="198.991171" y="54.972482" style="fill: #dd8452; stroke: #ffffff; stroke-width: 0.48"/>
    </g>
    <g clip-path="url(#pf8ea42923d)">
     <use xlink:href="#C0_0_afe447d9a5" x="198.991171" y="62.109527" style="fill: #55a868; stroke: #ffffff; stroke-width: 0.48"/>
    </g>
    <g clip-path="url(#pf8ea42923d)">
     <use xlink:href="#C0_0_afe447d9a5" x="198.991171" y="227.139051" style="fill: #c44e52; stroke: #ffffff; stroke-width: 0.48"/>
    </g>
    <g clip-path="url(#pf8ea42923d)">
     <use xlink:href="#C0_0_afe447d9a5" x="198.991171" y="29.466324" style="fill: #8172b3; stroke: #ffffff; stroke-width: 0.48"/>
    </g>
    <g clip-path="url(#pf8ea42923d)">
     <use xlink:href="#C0_0_afe447d9a5" x="198.991171" y="161.248142" style="fill: #937860; stroke: #ffffff; stroke-width: 0.48"/>
    </g>
    <g clip-path="url(#pf8ea42923d)">
     <use xlink:href="#C0_0_afe447d9a5" x="210.927" y="29.466324" style="fill: #4c72b0; stroke: #ffffff; stroke-width: 0.48"/>
    </g>
    <g clip-path="url(#pf8ea42923d)">
     <use xlink:href="#C0_0_afe447d9a5" x="210.927" y="35.51753" style="fill: #dd8452; stroke: #ffffff; stroke-width: 0.48"/>
    </g>
    <g clip-path="url(#pf8ea42923d)">
     <use xlink:href="#C0_0_afe447d9a5" x="210.927" y="39.870152" style="fill: #55a868; stroke: #ffffff; stroke-width: 0.48"/>
    </g>
    <g clip-path="url(#pf8ea42923d)">
     <use xlink:href="#C0_0_afe447d9a5" x="210.927" y="29.466324" style="fill: #c44e52; stroke: #ffffff; stroke-width: 0.48"/>
    </g>
    <g clip-path="url(#pf8ea42923d)">
     <use xlink:href="#C0_0_afe447d9a5" x="210.927" y="29.466324" style="fill: #8172b3; stroke: #ffffff; stroke-width: 0.48"/>
    </g>
    <g clip-path="url(#pf8ea42923d)">
     <use xlink:href="#C0_0_afe447d9a5" x="210.927" y="95.357233" style="fill: #937860; stroke: #ffffff; stroke-width: 0.48"/>
    </g>
    <g clip-path="url(#pf8ea42923d)">
     <use xlink:href="#C0_0_afe447d9a5" x="216.894914" y="227.139051" style="fill: #4c72b0; stroke: #ffffff; stroke-width: 0.48"/>
    </g>
    <g clip-path="url(#pf8ea42923d)">
     <use xlink:href="#C0_0_afe447d9a5" x="216.894914" y="35.396506" style="fill: #dd8452; stroke: #ffffff; stroke-width: 0.48"/>
    </g>
    <g clip-path="url(#pf8ea42923d)">
     <use xlink:href="#C0_0_afe447d9a5" x="216.894914" y="39.870152" style="fill: #55a868; stroke: #ffffff; stroke-width: 0.48"/>
    </g>
    <g clip-path="url(#pf8ea42923d)">
     <use xlink:href="#C0_0_afe447d9a5" x="216.894914" y="29.466324" style="fill: #c44e52; stroke: #ffffff; stroke-width: 0.48"/>
    </g>
    <g clip-path="url(#pf8ea42923d)">
     <use xlink:href="#C0_0_afe447d9a5" x="216.894914" y="29.466324" style="fill: #8172b3; stroke: #ffffff; stroke-width: 0.48"/>
    </g>
    <g clip-path="url(#pf8ea42923d)">
     <use xlink:href="#C0_0_afe447d9a5" x="216.894914" y="95.357233" style="fill: #937860; stroke: #ffffff; stroke-width: 0.48"/>
    </g>
    <g clip-path="url(#pf8ea42923d)">
     <use xlink:href="#C0_0_afe447d9a5" x="282.541973" y="227.139051" style="fill: #4c72b0; stroke: #ffffff; stroke-width: 0.48"/>
    </g>
    <g clip-path="url(#pf8ea42923d)">
     <use xlink:href="#C0_0_afe447d9a5" x="282.541973" y="36.463589" style="fill: #dd8452; stroke: #ffffff; stroke-width: 0.48"/>
    </g>
    <g clip-path="url(#pf8ea42923d)">
     <use xlink:href="#C0_0_afe447d9a5" x="282.541973" y="42.867865" style="fill: #55a868; stroke: #ffffff; stroke-width: 0.48"/>
    </g>
    <g clip-path="url(#pf8ea42923d)">
     <use xlink:href="#C0_0_afe447d9a5" x="282.541973" y="227.139051" style="fill: #c44e52; stroke: #ffffff; stroke-width: 0.48"/>
    </g>
    <g clip-path="url(#pf8ea42923d)">
     <use xlink:href="#C0_0_afe447d9a5" x="282.541973" y="29.466324" style="fill: #8172b3; stroke: #ffffff; stroke-width: 0.48"/>
    </g>
    <g clip-path="url(#pf8ea42923d)">
     <use xlink:href="#C0_0_afe447d9a5" x="282.541973" y="65.40682" style="fill: #937860; stroke: #ffffff; stroke-width: 0.48"/>
    </g>
   </g>
   <g id="PathCollection_2"/>
   <g id="PathCollection_3"/>
   <g id="PathCollection_4"/>
   <g id="PathCollection_5"/>
   <g id="PathCollection_6"/>
   <g id="PathCollection_7"/>
   <g id="patch_6">
    <path d="M 43.527 237.022687 
L 43.527 19.582687 
" style="fill: none; stroke: #262626; stroke-width: 1.25; stroke-linejoin: miter; stroke-linecap: square"/>
   </g>
   <g id="patch_7">
    <path d="M 378.327 237.022687 
L 378.327 19.582687 
" style="fill: none; stroke: #262626; stroke-width: 1.25; stroke-linejoin: miter; stroke-linecap: square"/>
   </g>
   <g id="patch_8">
    <path d="M 43.527 237.022687 
L 378.327 237.022687 
" style="fill: none; stroke: #262626; stroke-width: 1.25; stroke-linejoin: miter; stroke-linecap: square"/>
   </g>
   <g id="legend_1">
    <g id="patch_9">
     <path d="M 284.534984 105.53525 
L 372.937 105.53525 
Q 374.477 105.53525 374.477 103.99525 
L 374.477 24.972687 
Q 374.477 23.432687 372.937 23.432687 
L 284.534984 23.432687 
Q 282.994984 23.432687 282.994984 24.972687 
L 282.994984 103.99525 
Q 282.994984 105.53525 284.534984 105.53525 
z
" style="fill: #ffffff; opacity: 0.8; stroke: #cccccc; stroke-linejoin: miter"/>
    </g>
    <g id="text_32">
     <!-- Species -->
     <g style="fill: #262626" transform="translate(312.570586 32.895375)scale(0.084 -0.084)">
      <use xlink:href="#DejaVuSans-53"/>
      <use xlink:href="#DejaVuSans-70" x="63.476562"/>
      <use xlink:href="#DejaVuSans-65" x="126.953125"/>
      <use xlink:href="#DejaVuSans-63" x="188.476562"/>
      <use xlink:href="#DejaVuSans-69" x="243.457031"/>
      <use xlink:href="#DejaVuSans-65" x="271.240234"/>
      <use xlink:href="#DejaVuSans-73" x="332.763672"/>
     </g>
    </g>
    <g id="PathCollection_8">
     <defs>
      <path id="mdc7c0c6302" d="M 0 3 
C 0.795609 3 1.55874 2.683901 2.12132 2.12132 
C 2.683901 1.55874 3 0.795609 3 0 
C 3 -0.795609 2.683901 -1.55874 2.12132 -2.12132 
C 1.55874 -2.683901 0.795609 -3 0 -3 
C -0.795609 -3 -1.55874 -2.683901 -2.12132 -2.12132 
C -2.683901 -1.55874 -3 -0.795609 -3 0 
C -3 0.795609 -2.683901 1.55874 -2.12132 2.12132 
C -1.55874 2.683901 -0.795609 3 0 3 
z
" style="stroke: #4c72b0"/>
     </defs>
     <g>
      <use xlink:href="#mdc7c0c6302" x="293.774984" y="42.321859" style="fill: #4c72b0; stroke: #4c72b0"/>
     </g>
    </g>
    <g id="text_33">
     <!-- E. faecium -->
     <g style="fill: #262626" transform="translate(307.634984 44.343109)scale(0.077 -0.077)">
      <use xlink:href="#DejaVuSans-45"/>
      <use xlink:href="#DejaVuSans-2e" x="63.183594"/>
      <use xlink:href="#DejaVuSans-20" x="94.970703"/>
      <use xlink:href="#DejaVuSans-66" x="126.757812"/>
      <use xlink:href="#DejaVuSans-61" x="161.962891"/>
      <use xlink:href="#DejaVuSans-65" x="223.242188"/>
      <use xlink:href="#DejaVuSans-63" x="284.765625"/>
      <use xlink:href="#DejaVuSans-69" x="339.746094"/>
      <use xlink:href="#DejaVuSans-75" x="367.529297"/>
      <use xlink:href="#DejaVuSans-6d" x="430.908203"/>
     </g>
    </g>
    <g id="PathCollection_9">
     <defs>
      <path id="m8af7db19b5" d="M 0 3 
C 0.795609 3 1.55874 2.683901 2.12132 2.12132 
C 2.683901 1.55874 3 0.795609 3 0 
C 3 -0.795609 2.683901 -1.55874 2.12132 -2.12132 
C 1.55874 -2.683901 0.795609 -3 0 -3 
C -0.795609 -3 -1.55874 -2.683901 -2.12132 -2.12132 
C -2.683901 -1.55874 -3 -0.795609 -3 0 
C -3 0.795609 -2.683901 1.55874 -2.12132 2.12132 
C -1.55874 2.683901 -0.795609 3 0 3 
z
" style="stroke: #dd8452"/>
     </defs>
     <g>
      <use xlink:href="#m8af7db19b5" x="293.774984" y="53.624016" style="fill: #dd8452; stroke: #dd8452"/>
     </g>
    </g>
    <g id="text_34">
     <!-- S. enterica -->
     <g style="fill: #262626" transform="translate(307.634984 55.645266)scale(0.077 -0.077)">
      <use xlink:href="#DejaVuSans-53"/>
      <use xlink:href="#DejaVuSans-2e" x="63.476562"/>
      <use xlink:href="#DejaVuSans-20" x="95.263672"/>
      <use xlink:href="#DejaVuSans-65" x="127.050781"/>
      <use xlink:href="#DejaVuSans-6e" x="188.574219"/>
      <use xlink:href="#DejaVuSans-74" x="251.953125"/>
      <use xlink:href="#DejaVuSans-65" x="291.162109"/>
      <use xlink:href="#DejaVuSans-72" x="352.685547"/>
      <use xlink:href="#DejaVuSans-69" x="393.798828"/>
      <use xlink:href="#DejaVuSans-63" x="421.582031"/>
      <use xlink:href="#DejaVuSans-61" x="476.5625"/>
     </g>
    </g>
    <g id="PathCollection_10">
     <defs>
      <path id="m1bfcac0e2b" d="M 0 3 
C 0.795609 3 1.55874 2.683901 2.12132 2.12132 
C 2.683901 1.55874 3 0.795609 3 0 
C 3 -0.795609 2.683901 -1.55874 2.12132 -2.12132 
C 1.55874 -2.683901 0.795609 -3 0 -3 
C -0.795609 -3 -1.55874 -2.683901 -2.12132 -2.12132 
C -2.683901 -1.55874 -3 -0.795609 -3 0 
C -3 0.795609 -2.683901 1.55874 -2.12132 2.12132 
C -1.55874 2.683901 -0.795609 3 0 3 
z
" style="stroke: #55a868"/>
     </defs>
     <g>
      <use xlink:href="#m1bfcac0e2b" x="293.774984" y="64.926172" style="fill: #55a868; stroke: #55a868"/>
     </g>
    </g>
    <g id="text_35">
     <!-- K. pneumoniae -->
     <g style="fill: #262626" transform="translate(307.634984 66.947422)scale(0.077 -0.077)">
      <use xlink:href="#DejaVuSans-4b"/>
      <use xlink:href="#DejaVuSans-2e" x="65.576172"/>
      <use xlink:href="#DejaVuSans-20" x="97.363281"/>
      <use xlink:href="#DejaVuSans-70" x="129.150391"/>
      <use xlink:href="#DejaVuSans-6e" x="192.626953"/>
      <use xlink:href="#DejaVuSans-65" x="256.005859"/>
      <use xlink:href="#DejaVuSans-75" x="317.529297"/>
      <use xlink:href="#DejaVuSans-6d" x="380.908203"/>
      <use xlink:href="#DejaVuSans-6f" x="478.320312"/>
      <use xlink:href="#DejaVuSans-6e" x="539.501953"/>
      <use xlink:href="#DejaVuSans-69" x="602.880859"/>
      <use xlink:href="#DejaVuSans-61" x="630.664062"/>
      <use xlink:href="#DejaVuSans-65" x="691.943359"/>
     </g>
    </g>
    <g id="PathCollection_11">
     <defs>
      <path id="m86ef88179d" d="M 0 3 
C 0.795609 3 1.55874 2.683901 2.12132 2.12132 
C 2.683901 1.55874 3 0.795609 3 0 
C 3 -0.795609 2.683901 -1.55874 2.12132 -2.12132 
C 1.55874 -2.683901 0.795609 -3 0 -3 
C -0.795609 -3 -1.55874 -2.683901 -2.12132 -2.12132 
C -2.683901 -1.55874 -3 -0.795609 -3 0 
C -3 0.795609 -2.683901 1.55874 -2.12132 2.12132 
C -1.55874 2.683901 -0.795609 3 0 3 
z
" style="stroke: #c44e52"/>
     </defs>
     <g>
      <use xlink:href="#m86ef88179d" x="293.774984" y="76.228328" style="fill: #c44e52; stroke: #c44e52"/>
     </g>
    </g>
    <g id="text_36">
     <!-- A. baumannii -->
     <g style="fill: #262626" transform="translate(307.634984 78.249578)scale(0.077 -0.077)">
      <use xlink:href="#DejaVuSans-41"/>
      <use xlink:href="#DejaVuSans-2e" x="66.658203"/>
      <use xlink:href="#DejaVuSans-20" x="98.445312"/>
      <use xlink:href="#DejaVuSans-62" x="130.232422"/>
      <use xlink:href="#DejaVuSans-61" x="193.708984"/>
      <use xlink:href="#DejaVuSans-75" x="254.988281"/>
      <use xlink:href="#DejaVuSans-6d" x="318.367188"/>
      <use xlink:href="#DejaVuSans-61" x="415.779297"/>
      <use xlink:href="#DejaVuSans-6e" x="477.058594"/>
      <use xlink:href="#DejaVuSans-6e" x="540.4375"/>
      <use xlink:href="#DejaVuSans-69" x="603.816406"/>
      <use xlink:href="#DejaVuSans-69" x="631.599609"/>
     </g>
    </g>
    <g id="PathCollection_12">
     <defs>
      <path id="me0f1d0ba0d" d="M 0 3 
C 0.795609 3 1.55874 2.683901 2.12132 2.12132 
C 2.683901 1.55874 3 0.795609 3 0 
C 3 -0.795609 2.683901 -1.55874 2.12132 -2.12132 
C 1.55874 -2.683901 0.795609 -3 0 -3 
C -0.795609 -3 -1.55874 -2.683901 -2.12132 -2.12132 
C -2.683901 -1.55874 -3 -0.795609 -3 0 
C -3 0.795609 -2.683901 1.55874 -2.12132 2.12132 
C -1.55874 2.683901 -0.795609 3 0 3 
z
" style="stroke: #8172b3"/>
     </defs>
     <g>
      <use xlink:href="#me0f1d0ba0d" x="293.774984" y="87.530484" style="fill: #8172b3; stroke: #8172b3"/>
     </g>
    </g>
    <g id="text_37">
     <!-- P. aeruginosa -->
     <g style="fill: #262626" transform="translate(307.634984 89.551734)scale(0.077 -0.077)">
      <use xlink:href="#DejaVuSans-50"/>
      <use xlink:href="#DejaVuSans-2e" x="44.677734"/>
      <use xlink:href="#DejaVuSans-20" x="76.464844"/>
      <use xlink:href="#DejaVuSans-61" x="108.251953"/>
      <use xlink:href="#DejaVuSans-65" x="169.53125"/>
      <use xlink:href="#DejaVuSans-72" x="231.054688"/>
      <use xlink:href="#DejaVuSans-75" x="272.167969"/>
      <use xlink:href="#DejaVuSans-67" x="335.546875"/>
      <use xlink:href="#DejaVuSans-69" x="399.023438"/>
      <use xlink:href="#DejaVuSans-6e" x="426.806641"/>
      <use xlink:href="#DejaVuSans-6f" x="490.185547"/>
      <use xlink:href="#DejaVuSans-73" x="551.367188"/>
      <use xlink:href="#DejaVuSans-61" x="603.466797"/>
     </g>
    </g>
    <g id="PathCollection_13">
     <defs>
      <path id="m516222558b" d="M 0 3 
C 0.795609 3 1.55874 2.683901 2.12132 2.12132 
C 2.683901 1.55874 3 0.795609 3 0 
C 3 -0.795609 2.683901 -1.55874 2.12132 -2.12132 
C 1.55874 -2.683901 0.795609 -3 0 -3 
C -0.795609 -3 -1.55874 -2.683901 -2.12132 -2.12132 
C -2.683901 -1.55874 -3 -0.795609 -3 0 
C -3 0.795609 -2.683901 1.55874 -2.12132 2.12132 
C -1.55874 2.683901 -0.795609 3 0 3 
z
" style="stroke: #937860"/>
     </defs>
     <g>
      <use xlink:href="#m516222558b" x="293.774984" y="98.832641" style="fill: #937860; stroke: #937860"/>
     </g>
    </g>
    <g id="text_38">
     <!-- Enterobacter sp. -->
     <g style="fill: #262626" transform="translate(307.634984 100.853891)scale(0.077 -0.077)">
      <use xlink:href="#DejaVuSans-45"/>
      <use xlink:href="#DejaVuSans-6e" x="63.183594"/>
      <use xlink:href="#DejaVuSans-74" x="126.5625"/>
      <use xlink:href="#DejaVuSans-65" x="165.771484"/>
      <use xlink:href="#DejaVuSans-72" x="227.294922"/>
      <use xlink:href="#DejaVuSans-6f" x="266.158203"/>
      <use xlink:href="#DejaVuSans-62" x="327.339844"/>
      <use xlink:href="#DejaVuSans-61" x="390.816406"/>
      <use xlink:href="#DejaVuSans-63" x="452.095703"/>
      <use xlink:href="#DejaVuSans-74" x="507.076172"/>
      <use xlink:href="#DejaVuSans-65" x="546.285156"/>
      <use xlink:href="#DejaVuSans-72" x="607.808594"/>
      <use xlink:href="#DejaVuSans-20" x="648.921875"/>
      <use xlink:href="#DejaVuSans-73" x="680.708984"/>
      <use xlink:href="#DejaVuSans-70" x="732.808594"/>
      <use xlink:href="#DejaVuSans-2e" x="796.285156"/>
     </g>
    </g>
   </g>
  </g>
 </g>
 <defs>
  <clipPath id="pf8ea42923d">
   <rect x="43.527" y="19.582687" width="334.8" height="217.44"/>
  </clipPath>
 </defs>
</svg>
