<?xml version="1.0" encoding="utf-8" standalone="no"?>
<!DOCTYPE svg PUBLIC "-//W3C//DTD SVG 1.1//EN"
  "http://www.w3.org/Graphics/SVG/1.1/DTD/svg11.dtd">
<svg xmlns:xlink="http://www.w3.org/1999/xlink" width="764.885734pt" height="212.220469pt" viewBox="0 0 764.885734 212.220469" xmlns="http://www.w3.org/2000/svg" version="1.1">
 <metadata>
  <rdf:RDF xmlns:dc="http://purl.org/dc/elements/1.1/" xmlns:cc="http://creativecommons.org/ns#" xmlns:rdf="http://www.w3.org/1999/02/22-rdf-syntax-ns#">
   <cc:Work>
    <dc:type rdf:resource="http://purl.org/dc/dcmitype/StillImage"/>
    <dc:date>2024-02-27T11:23:51.285333</dc:date>
    <dc:format>image/svg+xml</dc:format>
    <dc:creator>
     <cc:Agent>
      <dc:title>Matplotlib v3.5.2, https://matplotlib.org/</dc:title>
     </cc:Agent>
    </dc:creator>
   </cc:Work>
  </rdf:RDF>
 </metadata>
 <defs>
  <style type="text/css">*{stroke-linejoin: round; stroke-linecap: butt}</style>
 </defs>
 <g id="figure_1">
  <g id="patch_1">
   <path d="M 0 212.220469 
L 764.885734 212.220469 
L 764.885734 0 
L 0 0 
z
" style="fill: #ffffff"/>
  </g>
  <g id="axes_1">
   <g id="patch_2">
    <path d="M 38.627875 175.938687 
L 231.781875 175.938687 
L 231.781875 19.582687 
L 38.627875 19.582687 
z
" style="fill: #ffffff"/>
   </g>
   <g id="matplotlib.axis_1">
    <g id="xtick_1">
     <g id="text_1">
      <!-- 1950 -->
      <g style="fill: #262626" transform="translate(48.092609 191.289484)scale(0.077 -0.077)">
       <defs>
        <path id="DejaVuSans-31" d="M 794 531 
L 1825 531 
L 1825 4091 
L 703 3866 
L 703 4441 
L 1819 4666 
L 2450 4666 
L 2450 531 
L 3481 531 
L 3481 0 
L 794 0 
L 794 531 
z
" transform="scale(0.015625)"/>
        <path id="DejaVuSans-39" d="M 703 97 
L 703 672 
Q 941 559 1184 500 
Q 1428 441 1663 441 
Q 2288 441 2617 861 
Q 2947 1281 2994 2138 
Q 2813 1869 2534 1725 
Q 2256 1581 1919 1581 
Q 1219 1581 811 2004 
Q 403 2428 403 3163 
Q 403 3881 828 4315 
Q 1253 4750 1959 4750 
Q 2769 4750 3195 4129 
Q 3622 3509 3622 2328 
Q 3622 1225 3098 567 
Q 2575 -91 1691 -91 
Q 1453 -91 1209 -44 
Q 966 3 703 97 
z
M 1959 2075 
Q 2384 2075 2632 2365 
Q 2881 2656 2881 3163 
Q 2881 3666 2632 3958 
Q 2384 4250 1959 4250 
Q 1534 4250 1286 3958 
Q 1038 3666 1038 3163 
Q 1038 2656 1286 2365 
Q 1534 2075 1959 2075 
z
" transform="scale(0.015625)"/>
        <path id="DejaVuSans-35" d="M 691 4666 
L 3169 4666 
L 3169 4134 
L 1269 4134 
L 1269 2991 
Q 1406 3038 1543 3061 
Q 1681 3084 1819 3084 
Q 2600 3084 3056 2656 
Q 3513 2228 3513 1497 
Q 3513 744 3044 326 
Q 2575 -91 1722 -91 
Q 1428 -91 1123 -41 
Q 819 9 494 109 
L 494 744 
Q 775 591 1075 516 
Q 1375 441 1709 441 
Q 2250 441 2565 725 
Q 2881 1009 2881 1497 
Q 2881 1984 2565 2268 
Q 2250 2553 1709 2553 
Q 1456 2553 1204 2497 
Q 953 2441 691 2322 
L 691 4666 
z
" transform="scale(0.015625)"/>
        <path id="DejaVuSans-30" d="M 2034 4250 
Q 1547 4250 1301 3770 
Q 1056 3291 1056 2328 
Q 1056 1369 1301 889 
Q 1547 409 2034 409 
Q 2525 409 2770 889 
Q 3016 1369 3016 2328 
Q 3016 3291 2770 3770 
Q 2525 4250 2034 4250 
z
M 2034 4750 
Q 2819 4750 3233 4129 
Q 3647 3509 3647 2328 
Q 3647 1150 3233 529 
Q 2819 -91 2034 -91 
Q 1250 -91 836 529 
Q 422 1150 422 2328 
Q 422 3509 836 4129 
Q 1250 4750 2034 4750 
z
" transform="scale(0.015625)"/>
       </defs>
       <use xlink:href="#DejaVuSans-31"/>
       <use xlink:href="#DejaVuSans-39" x="63.623047"/>
       <use xlink:href="#DejaVuSans-35" x="127.246094"/>
       <use xlink:href="#DejaVuSans-30" x="190.869141"/>
      </g>
     </g>
    </g>
    <g id="xtick_2">
     <g id="text_2">
      <!-- 1960 -->
      <g style="fill: #262626" transform="translate(74.30075 191.289484)scale(0.077 -0.077)">
       <defs>
        <path id="DejaVuSans-36" d="M 2113 2584 
Q 1688 2584 1439 2293 
Q 1191 2003 1191 1497 
Q 1191 994 1439 701 
Q 1688 409 2113 409 
Q 2538 409 2786 701 
Q 3034 994 3034 1497 
Q 3034 2003 2786 2293 
Q 2538 2584 2113 2584 
z
M 3366 4563 
L 3366 3988 
Q 3128 4100 2886 4159 
Q 2644 4219 2406 4219 
Q 1781 4219 1451 3797 
Q 1122 3375 1075 2522 
Q 1259 2794 1537 2939 
Q 1816 3084 2150 3084 
Q 2853 3084 3261 2657 
Q 3669 2231 3669 1497 
Q 3669 778 3244 343 
Q 2819 -91 2113 -91 
Q 1303 -91 875 529 
Q 447 1150 447 2328 
Q 447 3434 972 4092 
Q 1497 4750 2381 4750 
Q 2619 4750 2861 4703 
Q 3103 4656 3366 4563 
z
" transform="scale(0.015625)"/>
       </defs>
       <use xlink:href="#DejaVuSans-31"/>
       <use xlink:href="#DejaVuSans-39" x="63.623047"/>
       <use xlink:href="#DejaVuSans-36" x="127.246094"/>
       <use xlink:href="#DejaVuSans-30" x="190.869141"/>
      </g>
     </g>
    </g>
    <g id="xtick_3">
     <g id="text_3">
      <!-- 1970 -->
      <g style="fill: #262626" transform="translate(100.508891 191.289484)scale(0.077 -0.077)">
       <defs>
        <path id="DejaVuSans-37" d="M 525 4666 
L 3525 4666 
L 3525 4397 
L 1831 0 
L 1172 0 
L 2766 4134 
L 525 4134 
L 525 4666 
z
" transform="scale(0.015625)"/>
       </defs>
       <use xlink:href="#DejaVuSans-31"/>
       <use xlink:href="#DejaVuSans-39" x="63.623047"/>
       <use xlink:href="#DejaVuSans-37" x="127.246094"/>
       <use xlink:href="#DejaVuSans-30" x="190.869141"/>
      </g>
     </g>
    </g>
    <g id="xtick_4">
     <g id="text_4">
      <!-- 1980 -->
      <g style="fill: #262626" transform="translate(126.717032 191.289484)scale(0.077 -0.077)">
       <defs>
        <path id="DejaVuSans-38" d="M 2034 2216 
Q 1584 2216 1326 1975 
Q 1069 1734 1069 1313 
Q 1069 891 1326 650 
Q 1584 409 2034 409 
Q 2484 409 2743 651 
Q 3003 894 3003 1313 
Q 3003 1734 2745 1975 
Q 2488 2216 2034 2216 
z
M 1403 2484 
Q 997 2584 770 2862 
Q 544 3141 544 3541 
Q 544 4100 942 4425 
Q 1341 4750 2034 4750 
Q 2731 4750 3128 4425 
Q 3525 4100 3525 3541 
Q 3525 3141 3298 2862 
Q 3072 2584 2669 2484 
Q 3125 2378 3379 2068 
Q 3634 1759 3634 1313 
Q 3634 634 3220 271 
Q 2806 -91 2034 -91 
Q 1263 -91 848 271 
Q 434 634 434 1313 
Q 434 1759 690 2068 
Q 947 2378 1403 2484 
z
M 1172 3481 
Q 1172 3119 1398 2916 
Q 1625 2713 2034 2713 
Q 2441 2713 2670 2916 
Q 2900 3119 2900 3481 
Q 2900 3844 2670 4047 
Q 2441 4250 2034 4250 
Q 1625 4250 1398 4047 
Q 1172 3844 1172 3481 
z
" transform="scale(0.015625)"/>
       </defs>
       <use xlink:href="#DejaVuSans-31"/>
       <use xlink:href="#DejaVuSans-39" x="63.623047"/>
       <use xlink:href="#DejaVuSans-38" x="127.246094"/>
       <use xlink:href="#DejaVuSans-30" x="190.869141"/>
      </g>
     </g>
    </g>
    <g id="xtick_5">
     <g id="text_5">
      <!-- 1990 -->
      <g style="fill: #262626" transform="translate(152.925173 191.289484)scale(0.077 -0.077)">
       <use xlink:href="#DejaVuSans-31"/>
       <use xlink:href="#DejaVuSans-39" x="63.623047"/>
       <use xlink:href="#DejaVuSans-39" x="127.246094"/>
       <use xlink:href="#DejaVuSans-30" x="190.869141"/>
      </g>
     </g>
    </g>
    <g id="xtick_6">
     <g id="text_6">
      <!-- 2000 -->
      <g style="fill: #262626" transform="translate(179.133314 191.289484)scale(0.077 -0.077)">
       <defs>
        <path id="DejaVuSans-32" d="M 1228 531 
L 3431 531 
L 3431 0 
L 469 0 
L 469 531 
Q 828 903 1448 1529 
Q 2069 2156 2228 2338 
Q 2531 2678 2651 2914 
Q 2772 3150 2772 3378 
Q 2772 3750 2511 3984 
Q 2250 4219 1831 4219 
Q 1534 4219 1204 4116 
Q 875 4013 500 3803 
L 500 4441 
Q 881 4594 1212 4672 
Q 1544 4750 1819 4750 
Q 2544 4750 2975 4387 
Q 3406 4025 3406 3419 
Q 3406 3131 3298 2873 
Q 3191 2616 2906 2266 
Q 2828 2175 2409 1742 
Q 1991 1309 1228 531 
z
" transform="scale(0.015625)"/>
       </defs>
       <use xlink:href="#DejaVuSans-32"/>
       <use xlink:href="#DejaVuSans-30" x="63.623047"/>
       <use xlink:href="#DejaVuSans-30" x="127.246094"/>
       <use xlink:href="#DejaVuSans-30" x="190.869141"/>
      </g>
     </g>
    </g>
    <g id="xtick_7">
     <g id="text_7">
      <!-- 2010 -->
      <g style="fill: #262626" transform="translate(205.341455 191.289484)scale(0.077 -0.077)">
       <use xlink:href="#DejaVuSans-32"/>
       <use xlink:href="#DejaVuSans-30" x="63.623047"/>
       <use xlink:href="#DejaVuSans-31" x="127.246094"/>
       <use xlink:href="#DejaVuSans-30" x="190.869141"/>
      </g>
     </g>
    </g>
    <g id="text_8">
     <!-- Year Cultured -->
     <g style="fill: #262626" transform="translate(107.024188 203.273531)scale(0.084 -0.084)">
      <defs>
       <path id="DejaVuSans-59" d="M -13 4666 
L 666 4666 
L 1959 2747 
L 3244 4666 
L 3922 4666 
L 2272 2222 
L 2272 0 
L 1638 0 
L 1638 2222 
L -13 4666 
z
" transform="scale(0.015625)"/>
       <path id="DejaVuSans-65" d="M 3597 1894 
L 3597 1613 
L 953 1613 
Q 991 1019 1311 708 
Q 1631 397 2203 397 
Q 2534 397 2845 478 
Q 3156 559 3463 722 
L 3463 178 
Q 3153 47 2828 -22 
Q 2503 -91 2169 -91 
Q 1331 -91 842 396 
Q 353 884 353 1716 
Q 353 2575 817 3079 
Q 1281 3584 2069 3584 
Q 2775 3584 3186 3129 
Q 3597 2675 3597 1894 
z
M 3022 2063 
Q 3016 2534 2758 2815 
Q 2500 3097 2075 3097 
Q 1594 3097 1305 2825 
Q 1016 2553 972 2059 
L 3022 2063 
z
" transform="scale(0.015625)"/>
       <path id="DejaVuSans-61" d="M 2194 1759 
Q 1497 1759 1228 1600 
Q 959 1441 959 1056 
Q 959 750 1161 570 
Q 1363 391 1709 391 
Q 2188 391 2477 730 
Q 2766 1069 2766 1631 
L 2766 1759 
L 2194 1759 
z
M 3341 1997 
L 3341 0 
L 2766 0 
L 2766 531 
Q 2569 213 2275 61 
Q 1981 -91 1556 -91 
Q 1019 -91 701 211 
Q 384 513 384 1019 
Q 384 1609 779 1909 
Q 1175 2209 1959 2209 
L 2766 2209 
L 2766 2266 
Q 2766 2663 2505 2880 
Q 2244 3097 1772 3097 
Q 1472 3097 1187 3025 
Q 903 2953 641 2809 
L 641 3341 
Q 956 3463 1253 3523 
Q 1550 3584 1831 3584 
Q 2591 3584 2966 3190 
Q 3341 2797 3341 1997 
z
" transform="scale(0.015625)"/>
       <path id="DejaVuSans-72" d="M 2631 2963 
Q 2534 3019 2420 3045 
Q 2306 3072 2169 3072 
Q 1681 3072 1420 2755 
Q 1159 2438 1159 1844 
L 1159 0 
L 581 0 
L 581 3500 
L 1159 3500 
L 1159 2956 
Q 1341 3275 1631 3429 
Q 1922 3584 2338 3584 
Q 2397 3584 2469 3576 
Q 2541 3569 2628 3553 
L 2631 2963 
z
" transform="scale(0.015625)"/>
       <path id="DejaVuSans-20" transform="scale(0.015625)"/>
       <path id="DejaVuSans-43" d="M 4122 4306 
L 4122 3641 
Q 3803 3938 3442 4084 
Q 3081 4231 2675 4231 
Q 1875 4231 1450 3742 
Q 1025 3253 1025 2328 
Q 1025 1406 1450 917 
Q 1875 428 2675 428 
Q 3081 428 3442 575 
Q 3803 722 4122 1019 
L 4122 359 
Q 3791 134 3420 21 
Q 3050 -91 2638 -91 
Q 1578 -91 968 557 
Q 359 1206 359 2328 
Q 359 3453 968 4101 
Q 1578 4750 2638 4750 
Q 3056 4750 3426 4639 
Q 3797 4528 4122 4306 
z
" transform="scale(0.015625)"/>
       <path id="DejaVuSans-75" d="M 544 1381 
L 544 3500 
L 1119 3500 
L 1119 1403 
Q 1119 906 1312 657 
Q 1506 409 1894 409 
Q 2359 409 2629 706 
Q 2900 1003 2900 1516 
L 2900 3500 
L 3475 3500 
L 3475 0 
L 2900 0 
L 2900 538 
Q 2691 219 2414 64 
Q 2138 -91 1772 -91 
Q 1169 -91 856 284 
Q 544 659 544 1381 
z
M 1991 3584 
L 1991 3584 
z
" transform="scale(0.015625)"/>
       <path id="DejaVuSans-6c" d="M 603 4863 
L 1178 4863 
L 1178 0 
L 603 0 
L 603 4863 
z
" transform="scale(0.015625)"/>
       <path id="DejaVuSans-74" d="M 1172 4494 
L 1172 3500 
L 2356 3500 
L 2356 3053 
L 1172 3053 
L 1172 1153 
Q 1172 725 1289 603 
Q 1406 481 1766 481 
L 2356 481 
L 2356 0 
L 1766 0 
Q 1100 0 847 248 
Q 594 497 594 1153 
L 594 3053 
L 172 3053 
L 172 3500 
L 594 3500 
L 594 4494 
L 1172 4494 
z
" transform="scale(0.015625)"/>
       <path id="DejaVuSans-64" d="M 2906 2969 
L 2906 4863 
L 3481 4863 
L 3481 0 
L 2906 0 
L 2906 525 
Q 2725 213 2448 61 
Q 2172 -91 1784 -91 
Q 1150 -91 751 415 
Q 353 922 353 1747 
Q 353 2572 751 3078 
Q 1150 3584 1784 3584 
Q 2172 3584 2448 3432 
Q 2725 3281 2906 2969 
z
M 947 1747 
Q 947 1113 1208 752 
Q 1469 391 1925 391 
Q 2381 391 2643 752 
Q 2906 1113 2906 1747 
Q 2906 2381 2643 2742 
Q 2381 3103 1925 3103 
Q 1469 3103 1208 2742 
Q 947 2381 947 1747 
z
" transform="scale(0.015625)"/>
      </defs>
      <use xlink:href="#DejaVuSans-59"/>
      <use xlink:href="#DejaVuSans-65" x="47.833984"/>
      <use xlink:href="#DejaVuSans-61" x="109.357422"/>
      <use xlink:href="#DejaVuSans-72" x="170.636719"/>
      <use xlink:href="#DejaVuSans-20" x="211.75"/>
      <use xlink:href="#DejaVuSans-43" x="243.537109"/>
      <use xlink:href="#DejaVuSans-75" x="313.361328"/>
      <use xlink:href="#DejaVuSans-6c" x="376.740234"/>
      <use xlink:href="#DejaVuSans-74" x="404.523438"/>
      <use xlink:href="#DejaVuSans-75" x="443.732422"/>
      <use xlink:href="#DejaVuSans-72" x="507.111328"/>
      <use xlink:href="#DejaVuSans-65" x="545.974609"/>
      <use xlink:href="#DejaVuSans-64" x="607.498047"/>
     </g>
    </g>
   </g>
   <g id="matplotlib.axis_2">
    <g id="ytick_1">
     <g id="text_9">
      <!-- 0 -->
      <g style="fill: #262626" transform="translate(24.22875 178.864086)scale(0.077 -0.077)">
       <use xlink:href="#DejaVuSans-30"/>
      </g>
     </g>
    </g>
    <g id="ytick_2">
     <g id="text_10">
      <!-- 5 -->
      <g style="fill: #262626" transform="translate(24.22875 126.745419)scale(0.077 -0.077)">
       <use xlink:href="#DejaVuSans-35"/>
      </g>
     </g>
    </g>
    <g id="ytick_3">
     <g id="text_11">
      <!-- 10 -->
      <g style="fill: #262626" transform="translate(19.329625 74.626753)scale(0.077 -0.077)">
       <use xlink:href="#DejaVuSans-31"/>
       <use xlink:href="#DejaVuSans-30" x="63.623047"/>
      </g>
     </g>
    </g>
    <g id="ytick_4">
     <g id="text_12">
      <!-- 15 -->
      <g style="fill: #262626" transform="translate(19.329625 22.508086)scale(0.077 -0.077)">
       <use xlink:href="#DejaVuSans-31"/>
       <use xlink:href="#DejaVuSans-35" x="63.623047"/>
      </g>
     </g>
    </g>
    <g id="text_13">
     <!-- Count -->
     <g style="fill: #262626" transform="translate(13.582688 110.233375)rotate(-90)scale(0.084 -0.084)">
      <defs>
       <path id="DejaVuSans-6f" d="M 1959 3097 
Q 1497 3097 1228 2736 
Q 959 2375 959 1747 
Q 959 1119 1226 758 
Q 1494 397 1959 397 
Q 2419 397 2687 759 
Q 2956 1122 2956 1747 
Q 2956 2369 2687 2733 
Q 2419 3097 1959 3097 
z
M 1959 3584 
Q 2709 3584 3137 3096 
Q 3566 2609 3566 1747 
Q 3566 888 3137 398 
Q 2709 -91 1959 -91 
Q 1206 -91 779 398 
Q 353 888 353 1747 
Q 353 2609 779 3096 
Q 1206 3584 1959 3584 
z
" transform="scale(0.015625)"/>
       <path id="DejaVuSans-6e" d="M 3513 2113 
L 3513 0 
L 2938 0 
L 2938 2094 
Q 2938 2591 2744 2837 
Q 2550 3084 2163 3084 
Q 1697 3084 1428 2787 
Q 1159 2491 1159 1978 
L 1159 0 
L 581 0 
L 581 3500 
L 1159 3500 
L 1159 2956 
Q 1366 3272 1645 3428 
Q 1925 3584 2291 3584 
Q 2894 3584 3203 3211 
Q 3513 2838 3513 2113 
z
" transform="scale(0.015625)"/>
      </defs>
      <use xlink:href="#DejaVuSans-43"/>
      <use xlink:href="#DejaVuSans-6f" x="69.824219"/>
      <use xlink:href="#DejaVuSans-75" x="131.005859"/>
      <use xlink:href="#DejaVuSans-6e" x="194.384766"/>
      <use xlink:href="#DejaVuSans-74" x="257.763672"/>
     </g>
    </g>
   </g>
   <g id="PathCollection_1">
    <path d="M 89.340628 137.243754 
C 90.136237 137.243754 90.899368 136.927655 91.461948 136.365075 
C 92.024529 135.802494 92.340628 135.039363 92.340628 134.243754 
C 92.340628 133.448145 92.024529 132.685015 91.461948 132.122434 
C 90.899368 131.559853 90.136237 131.243754 89.340628 131.243754 
C 88.545019 131.243754 87.781888 131.559853 87.219308 132.122434 
C 86.656727 132.685015 86.340628 133.448145 86.340628 134.243754 
C 86.340628 135.039363 86.656727 135.802494 87.219308 136.365075 
C 87.781888 136.927655 88.545019 137.243754 89.340628 137.243754 
z
" clip-path="url(#pa7e5e768c3)" style="fill: #8c8c8c"/>
   </g>
   <g id="PathCollection_2">
    <path d="M 63.132487 137.243754 
C 63.928096 137.243754 64.691227 136.927655 65.253807 136.365075 
C 65.816388 135.802494 66.132487 135.039363 66.132487 134.243754 
C 66.132487 133.448145 65.816388 132.685015 65.253807 132.122434 
C 64.691227 131.559853 63.928096 131.243754 63.132487 131.243754 
C 62.336878 131.243754 61.573747 131.559853 61.011167 132.122434 
C 60.448586 132.685015 60.132487 133.448145 60.132487 134.243754 
C 60.132487 135.039363 60.448586 135.802494 61.011167 136.365075 
C 61.573747 136.927655 62.336878 137.243754 63.132487 137.243754 
z
" clip-path="url(#pa7e5e768c3)" style="fill: #937860"/>
   </g>
   <g id="PathCollection_3">
    <path d="M 91.961442 137.243754 
C 92.757051 137.243754 93.520182 136.927655 94.082763 136.365075 
C 94.645343 135.802494 94.961442 135.039363 94.961442 134.243754 
C 94.961442 133.448145 94.645343 132.685015 94.082763 132.122434 
C 93.520182 131.559853 92.757051 131.243754 91.961442 131.243754 
C 91.165833 131.243754 90.402703 131.559853 89.840122 132.122434 
C 89.277541 132.685015 88.961442 133.448145 88.961442 134.243754 
C 88.961442 135.039363 89.277541 135.802494 89.840122 136.365075 
C 90.402703 136.927655 91.165833 137.243754 91.961442 137.243754 
z
" clip-path="url(#pa7e5e768c3)" style="fill: #ccb974"/>
   </g>
   <g id="PathCollection_4">
    <path d="M 78.857372 137.243754 
C 79.652981 137.243754 80.416111 136.927655 80.978692 136.365075 
C 81.541273 135.802494 81.857372 135.039363 81.857372 134.243754 
C 81.857372 133.448145 81.541273 132.685015 80.978692 132.122434 
C 80.416111 131.559853 79.652981 131.243754 78.857372 131.243754 
C 78.061762 131.243754 77.298632 131.559853 76.736051 132.122434 
C 76.173471 132.685015 75.857372 133.448145 75.857372 134.243754 
C 75.857372 135.039363 76.173471 135.802494 76.736051 136.365075 
C 77.298632 136.927655 78.061762 137.243754 78.857372 137.243754 
z
" clip-path="url(#pa7e5e768c3)" style="fill: #da8bc3"/>
   </g>
   <g id="line2d_1">
    <path d="M 47.407602 134.243754 
L 91.306239 134.243754 
L 91.306239 134.243754 
L 135.204875 134.243754 
L 135.204875 113.396287 
L 179.103511 113.396287 
L 179.103511 102.972554 
L 223.002148 102.972554 
L 223.002148 102.972554 
" clip-path="url(#pa7e5e768c3)" style="fill: none; stroke: #000000; stroke-width: 1.5; stroke-linecap: round"/>
   </g>
   <g id="line2d_2">
    <path d="M 89.340628 175.938687 
L 89.340628 19.582687 
" clip-path="url(#pa7e5e768c3)" style="fill: none; stroke-dasharray: 3.7,1.6; stroke-dashoffset: 0; stroke: #8c8c8c; stroke-opacity: 0.7"/>
   </g>
   <g id="line2d_3">
    <path d="M 63.132487 175.938687 
L 63.132487 19.582687 
" clip-path="url(#pa7e5e768c3)" style="fill: none; stroke-dasharray: 3.7,1.6; stroke-dashoffset: 0; stroke: #937860; stroke-opacity: 0.7"/>
   </g>
   <g id="line2d_4">
    <path d="M 91.961442 175.938687 
L 91.961442 19.582687 
" clip-path="url(#pa7e5e768c3)" style="fill: none; stroke-dasharray: 3.7,1.6; stroke-dashoffset: 0; stroke: #ccb974; stroke-opacity: 0.7"/>
   </g>
   <g id="line2d_5">
    <path d="M 78.857372 175.938687 
L 78.857372 19.582687 
" clip-path="url(#pa7e5e768c3)" style="fill: none; stroke-dasharray: 3.7,1.6; stroke-dashoffset: 0; stroke: #da8bc3; stroke-opacity: 0.7"/>
   </g>
   <g id="patch_3">
    <path d="M 38.627875 175.938687 
L 38.627875 19.582687 
" style="fill: none; stroke: #262626; stroke-width: 1.25; stroke-linejoin: miter; stroke-linecap: square"/>
   </g>
   <g id="patch_4">
    <path d="M 38.627875 175.938687 
L 231.781875 175.938687 
" style="fill: none; stroke: #262626; stroke-width: 1.25; stroke-linejoin: miter; stroke-linecap: square"/>
   </g>
   <g id="text_14">
    <!-- E. faecium -->
    <g style="fill: #262626" transform="translate(113.01575 13.582687)scale(0.084 -0.084)">
     <defs>
      <path id="DejaVuSans-45" d="M 628 4666 
L 3578 4666 
L 3578 4134 
L 1259 4134 
L 1259 2753 
L 3481 2753 
L 3481 2222 
L 1259 2222 
L 1259 531 
L 3634 531 
L 3634 0 
L 628 0 
L 628 4666 
z
" transform="scale(0.015625)"/>
      <path id="DejaVuSans-2e" d="M 684 794 
L 1344 794 
L 1344 0 
L 684 0 
L 684 794 
z
" transform="scale(0.015625)"/>
      <path id="DejaVuSans-66" d="M 2375 4863 
L 2375 4384 
L 1825 4384 
Q 1516 4384 1395 4259 
Q 1275 4134 1275 3809 
L 1275 3500 
L 2222 3500 
L 2222 3053 
L 1275 3053 
L 1275 0 
L 697 0 
L 697 3053 
L 147 3053 
L 147 3500 
L 697 3500 
L 697 3744 
Q 697 4328 969 4595 
Q 1241 4863 1831 4863 
L 2375 4863 
z
" transform="scale(0.015625)"/>
      <path id="DejaVuSans-63" d="M 3122 3366 
L 3122 2828 
Q 2878 2963 2633 3030 
Q 2388 3097 2138 3097 
Q 1578 3097 1268 2742 
Q 959 2388 959 1747 
Q 959 1106 1268 751 
Q 1578 397 2138 397 
Q 2388 397 2633 464 
Q 2878 531 3122 666 
L 3122 134 
Q 2881 22 2623 -34 
Q 2366 -91 2075 -91 
Q 1284 -91 818 406 
Q 353 903 353 1747 
Q 353 2603 823 3093 
Q 1294 3584 2113 3584 
Q 2378 3584 2631 3529 
Q 2884 3475 3122 3366 
z
" transform="scale(0.015625)"/>
      <path id="DejaVuSans-69" d="M 603 3500 
L 1178 3500 
L 1178 0 
L 603 0 
L 603 3500 
z
M 603 4863 
L 1178 4863 
L 1178 4134 
L 603 4134 
L 603 4863 
z
" transform="scale(0.015625)"/>
      <path id="DejaVuSans-6d" d="M 3328 2828 
Q 3544 3216 3844 3400 
Q 4144 3584 4550 3584 
Q 5097 3584 5394 3201 
Q 5691 2819 5691 2113 
L 5691 0 
L 5113 0 
L 5113 2094 
Q 5113 2597 4934 2840 
Q 4756 3084 4391 3084 
Q 3944 3084 3684 2787 
Q 3425 2491 3425 1978 
L 3425 0 
L 2847 0 
L 2847 2094 
Q 2847 2600 2669 2842 
Q 2491 3084 2119 3084 
Q 1678 3084 1418 2786 
Q 1159 2488 1159 1978 
L 1159 0 
L 581 0 
L 581 3500 
L 1159 3500 
L 1159 2956 
Q 1356 3278 1631 3431 
Q 1906 3584 2284 3584 
Q 2666 3584 2933 3390 
Q 3200 3197 3328 2828 
z
" transform="scale(0.015625)"/>
     </defs>
     <use xlink:href="#DejaVuSans-45"/>
     <use xlink:href="#DejaVuSans-2e" x="63.183594"/>
     <use xlink:href="#DejaVuSans-20" x="94.970703"/>
     <use xlink:href="#DejaVuSans-66" x="126.757812"/>
     <use xlink:href="#DejaVuSans-61" x="161.962891"/>
     <use xlink:href="#DejaVuSans-65" x="223.242188"/>
     <use xlink:href="#DejaVuSans-63" x="284.765625"/>
     <use xlink:href="#DejaVuSans-69" x="339.746094"/>
     <use xlink:href="#DejaVuSans-75" x="367.529297"/>
     <use xlink:href="#DejaVuSans-6d" x="430.908203"/>
    </g>
   </g>
  </g>
  <g id="axes_2">
   <g id="patch_5">
    <path d="M 240.853875 175.938687 
L 434.007875 175.938687 
L 434.007875 19.582687 
L 240.853875 19.582687 
z
" style="fill: #ffffff"/>
   </g>
   <g id="matplotlib.axis_3">
    <g id="xtick_8">
     <g id="text_15">
      <!-- 1950 -->
      <g style="fill: #262626" transform="translate(250.318609 191.289484)scale(0.077 -0.077)">
       <use xlink:href="#DejaVuSans-31"/>
       <use xlink:href="#DejaVuSans-39" x="63.623047"/>
       <use xlink:href="#DejaVuSans-35" x="127.246094"/>
       <use xlink:href="#DejaVuSans-30" x="190.869141"/>
      </g>
     </g>
    </g>
    <g id="xtick_9">
     <g id="text_16">
      <!-- 1960 -->
      <g style="fill: #262626" transform="translate(276.52675 191.289484)scale(0.077 -0.077)">
       <use xlink:href="#DejaVuSans-31"/>
       <use xlink:href="#DejaVuSans-39" x="63.623047"/>
       <use xlink:href="#DejaVuSans-36" x="127.246094"/>
       <use xlink:href="#DejaVuSans-30" x="190.869141"/>
      </g>
     </g>
    </g>
    <g id="xtick_10">
     <g id="text_17">
      <!-- 1970 -->
      <g style="fill: #262626" transform="translate(302.734891 191.289484)scale(0.077 -0.077)">
       <use xlink:href="#DejaVuSans-31"/>
       <use xlink:href="#DejaVuSans-39" x="63.623047"/>
       <use xlink:href="#DejaVuSans-37" x="127.246094"/>
       <use xlink:href="#DejaVuSans-30" x="190.869141"/>
      </g>
     </g>
    </g>
    <g id="xtick_11">
     <g id="text_18">
      <!-- 1980 -->
      <g style="fill: #262626" transform="translate(328.943032 191.289484)scale(0.077 -0.077)">
       <use xlink:href="#DejaVuSans-31"/>
       <use xlink:href="#DejaVuSans-39" x="63.623047"/>
       <use xlink:href="#DejaVuSans-38" x="127.246094"/>
       <use xlink:href="#DejaVuSans-30" x="190.869141"/>
      </g>
     </g>
    </g>
    <g id="xtick_12">
     <g id="text_19">
      <!-- 1990 -->
      <g style="fill: #262626" transform="translate(355.151173 191.289484)scale(0.077 -0.077)">
       <use xlink:href="#DejaVuSans-31"/>
       <use xlink:href="#DejaVuSans-39" x="63.623047"/>
       <use xlink:href="#DejaVuSans-39" x="127.246094"/>
       <use xlink:href="#DejaVuSans-30" x="190.869141"/>
      </g>
     </g>
    </g>
    <g id="xtick_13">
     <g id="text_20">
      <!-- 2000 -->
      <g style="fill: #262626" transform="translate(381.359314 191.289484)scale(0.077 -0.077)">
       <use xlink:href="#DejaVuSans-32"/>
       <use xlink:href="#DejaVuSans-30" x="63.623047"/>
       <use xlink:href="#DejaVuSans-30" x="127.246094"/>
       <use xlink:href="#DejaVuSans-30" x="190.869141"/>
      </g>
     </g>
    </g>
    <g id="xtick_14">
     <g id="text_21">
      <!-- 2010 -->
      <g style="fill: #262626" transform="translate(407.567455 191.289484)scale(0.077 -0.077)">
       <use xlink:href="#DejaVuSans-32"/>
       <use xlink:href="#DejaVuSans-30" x="63.623047"/>
       <use xlink:href="#DejaVuSans-31" x="127.246094"/>
       <use xlink:href="#DejaVuSans-30" x="190.869141"/>
      </g>
     </g>
    </g>
    <g id="text_22">
     <!-- Year Cultured -->
     <g style="fill: #262626" transform="translate(309.250188 203.273531)scale(0.084 -0.084)">
      <use xlink:href="#DejaVuSans-59"/>
      <use xlink:href="#DejaVuSans-65" x="47.833984"/>
      <use xlink:href="#DejaVuSans-61" x="109.357422"/>
      <use xlink:href="#DejaVuSans-72" x="170.636719"/>
      <use xlink:href="#DejaVuSans-20" x="211.75"/>
      <use xlink:href="#DejaVuSans-43" x="243.537109"/>
      <use xlink:href="#DejaVuSans-75" x="313.361328"/>
      <use xlink:href="#DejaVuSans-6c" x="376.740234"/>
      <use xlink:href="#DejaVuSans-74" x="404.523438"/>
      <use xlink:href="#DejaVuSans-75" x="443.732422"/>
      <use xlink:href="#DejaVuSans-72" x="507.111328"/>
      <use xlink:href="#DejaVuSans-65" x="545.974609"/>
      <use xlink:href="#DejaVuSans-64" x="607.498047"/>
     </g>
    </g>
   </g>
   <g id="matplotlib.axis_4">
    <g id="ytick_5"/>
    <g id="ytick_6"/>
    <g id="ytick_7"/>
    <g id="ytick_8"/>
   </g>
   <g id="PathCollection_5">
    <path d="M 291.566628 147.667487 
C 292.362237 147.667487 293.125368 147.351389 293.687948 146.788808 
C 294.250529 146.226227 294.566628 145.463097 294.566628 144.667487 
C 294.566628 143.871878 294.250529 143.108748 293.687948 142.546167 
C 293.125368 141.983586 292.362237 141.667487 291.566628 141.667487 
C 290.771019 141.667487 290.007888 141.983586 289.445308 142.546167 
C 288.882727 143.108748 288.566628 143.871878 288.566628 144.667487 
C 288.566628 145.463097 288.882727 146.226227 289.445308 146.788808 
C 290.007888 147.351389 290.771019 147.667487 291.566628 147.667487 
z
" clip-path="url(#pb13b7eb234)" style="fill: #8c8c8c"/>
   </g>
   <g id="PathCollection_6">
    <path d="M 296.808256 147.667487 
C 297.603866 147.667487 298.366996 147.351389 298.929577 146.788808 
C 299.492157 146.226227 299.808256 145.463097 299.808256 144.667487 
C 299.808256 143.871878 299.492157 143.108748 298.929577 142.546167 
C 298.366996 141.983586 297.603866 141.667487 296.808256 141.667487 
C 296.012647 141.667487 295.249517 141.983586 294.686936 142.546167 
C 294.124355 143.108748 293.808256 143.871878 293.808256 144.667487 
C 293.808256 145.463097 294.124355 146.226227 294.686936 146.788808 
C 295.249517 147.351389 296.012647 147.667487 296.808256 147.667487 
z
" clip-path="url(#pb13b7eb234)" style="fill: #64b5cd"/>
   </g>
   <g id="PathCollection_7">
    <path d="M 254.87523 168.514954 
C 255.67084 168.514954 256.43397 168.198855 256.996551 167.636275 
C 257.559132 167.073694 257.87523 166.310563 257.87523 165.514954 
C 257.87523 164.719345 257.559132 163.956215 256.996551 163.393634 
C 256.43397 162.831053 255.67084 162.514954 254.87523 162.514954 
C 254.079621 162.514954 253.316491 162.831053 252.75391 163.393634 
C 252.191329 163.956215 251.87523 164.719345 251.87523 165.514954 
C 251.87523 166.310563 252.191329 167.073694 252.75391 167.636275 
C 253.316491 168.198855 254.079621 168.514954 254.87523 168.514954 
z
" clip-path="url(#pb13b7eb234)" style="fill: #c44e52"/>
   </g>
   <g id="PathCollection_8">
    <path d="M 257.496045 147.667487 
C 258.291654 147.667487 259.054784 147.351389 259.617365 146.788808 
C 260.179946 146.226227 260.496045 145.463097 260.496045 144.667487 
C 260.496045 143.871878 260.179946 143.108748 259.617365 142.546167 
C 259.054784 141.983586 258.291654 141.667487 257.496045 141.667487 
C 256.700435 141.667487 255.937305 141.983586 255.374724 142.546167 
C 254.812144 143.108748 254.496045 143.871878 254.496045 144.667487 
C 254.496045 145.463097 254.812144 146.226227 255.374724 146.788808 
C 255.937305 147.351389 256.700435 147.667487 257.496045 147.667487 
z
" clip-path="url(#pb13b7eb234)" style="fill: #8172b3"/>
   </g>
   <g id="PathCollection_9">
    <path d="M 265.358487 147.667487 
C 266.154096 147.667487 266.917227 147.351389 267.479807 146.788808 
C 268.042388 146.226227 268.358487 145.463097 268.358487 144.667487 
C 268.358487 143.871878 268.042388 143.108748 267.479807 142.546167 
C 266.917227 141.983586 266.154096 141.667487 265.358487 141.667487 
C 264.562878 141.667487 263.799747 141.983586 263.237167 142.546167 
C 262.674586 143.108748 262.358487 143.871878 262.358487 144.667487 
C 262.358487 145.463097 262.674586 146.226227 263.237167 146.788808 
C 263.799747 147.351389 264.562878 147.667487 265.358487 147.667487 
z
" clip-path="url(#pb13b7eb234)" style="fill: #937860"/>
   </g>
   <g id="PathCollection_10">
    <path d="M 294.187442 158.091221 
C 294.983051 158.091221 295.746182 157.775122 296.308763 157.212541 
C 296.871343 156.64996 297.187442 155.88683 297.187442 155.091221 
C 297.187442 154.295612 296.871343 153.532481 296.308763 152.9699 
C 295.746182 152.40732 294.983051 152.091221 294.187442 152.091221 
C 293.391833 152.091221 292.628703 152.40732 292.066122 152.9699 
C 291.503541 153.532481 291.187442 154.295612 291.187442 155.091221 
C 291.187442 155.88683 291.503541 156.64996 292.066122 157.212541 
C 292.628703 157.775122 293.391833 158.091221 294.187442 158.091221 
z
" clip-path="url(#pb13b7eb234)" style="fill: #ccb974"/>
   </g>
   <g id="line2d_6">
    <path d="M 252.254416 144.667487 
L 283.704186 144.667487 
L 283.704186 144.667487 
L 315.153955 144.667487 
L 315.153955 144.667487 
L 346.603724 144.667487 
L 346.603724 134.243754 
L 378.053494 134.243754 
L 378.053494 71.701354 
L 409.503263 71.701354 
L 409.503263 71.701354 
" clip-path="url(#pb13b7eb234)" style="fill: none; stroke: #000000; stroke-width: 1.5; stroke-linecap: round"/>
   </g>
   <g id="line2d_7">
    <path d="M 291.566628 175.938687 
L 291.566628 19.582687 
" clip-path="url(#pb13b7eb234)" style="fill: none; stroke-dasharray: 3.7,1.6; stroke-dashoffset: 0; stroke: #8c8c8c; stroke-opacity: 0.7"/>
   </g>
   <g id="line2d_8">
    <path d="M 296.808256 175.938687 
L 296.808256 19.582687 
" clip-path="url(#pb13b7eb234)" style="fill: none; stroke-dasharray: 3.7,1.6; stroke-dashoffset: 0; stroke: #64b5cd; stroke-opacity: 0.7"/>
   </g>
   <g id="line2d_9">
    <path d="M 254.87523 175.938687 
L 254.87523 19.582687 
" clip-path="url(#pb13b7eb234)" style="fill: none; stroke-dasharray: 3.7,1.6; stroke-dashoffset: 0; stroke: #c44e52; stroke-opacity: 0.7"/>
   </g>
   <g id="line2d_10">
    <path d="M 257.496045 175.938687 
L 257.496045 19.582687 
" clip-path="url(#pb13b7eb234)" style="fill: none; stroke-dasharray: 3.7,1.6; stroke-dashoffset: 0; stroke: #8172b3; stroke-opacity: 0.7"/>
   </g>
   <g id="line2d_11">
    <path d="M 265.358487 175.938687 
L 265.358487 19.582687 
" clip-path="url(#pb13b7eb234)" style="fill: none; stroke-dasharray: 3.7,1.6; stroke-dashoffset: 0; stroke: #937860; stroke-opacity: 0.7"/>
   </g>
   <g id="line2d_12">
    <path d="M 294.187442 175.938687 
L 294.187442 19.582687 
" clip-path="url(#pb13b7eb234)" style="fill: none; stroke-dasharray: 3.7,1.6; stroke-dashoffset: 0; stroke: #ccb974; stroke-opacity: 0.7"/>
   </g>
   <g id="patch_6">
    <path d="M 240.853875 175.938687 
L 240.853875 19.582687 
" style="fill: none; stroke: #262626; stroke-width: 1.25; stroke-linejoin: miter; stroke-linecap: square"/>
   </g>
   <g id="patch_7">
    <path d="M 240.853875 175.938687 
L 434.007875 175.938687 
" style="fill: none; stroke: #262626; stroke-width: 1.25; stroke-linejoin: miter; stroke-linecap: square"/>
   </g>
   <g id="text_23">
    <!-- A. baumannii -->
    <g style="fill: #262626" transform="translate(309.737781 13.582687)scale(0.084 -0.084)">
     <defs>
      <path id="DejaVuSans-41" d="M 2188 4044 
L 1331 1722 
L 3047 1722 
L 2188 4044 
z
M 1831 4666 
L 2547 4666 
L 4325 0 
L 3669 0 
L 3244 1197 
L 1141 1197 
L 716 0 
L 50 0 
L 1831 4666 
z
" transform="scale(0.015625)"/>
      <path id="DejaVuSans-62" d="M 3116 1747 
Q 3116 2381 2855 2742 
Q 2594 3103 2138 3103 
Q 1681 3103 1420 2742 
Q 1159 2381 1159 1747 
Q 1159 1113 1420 752 
Q 1681 391 2138 391 
Q 2594 391 2855 752 
Q 3116 1113 3116 1747 
z
M 1159 2969 
Q 1341 3281 1617 3432 
Q 1894 3584 2278 3584 
Q 2916 3584 3314 3078 
Q 3713 2572 3713 1747 
Q 3713 922 3314 415 
Q 2916 -91 2278 -91 
Q 1894 -91 1617 61 
Q 1341 213 1159 525 
L 1159 0 
L 581 0 
L 581 4863 
L 1159 4863 
L 1159 2969 
z
" transform="scale(0.015625)"/>
     </defs>
     <use xlink:href="#DejaVuSans-41"/>
     <use xlink:href="#DejaVuSans-2e" x="66.658203"/>
     <use xlink:href="#DejaVuSans-20" x="98.445312"/>
     <use xlink:href="#DejaVuSans-62" x="130.232422"/>
     <use xlink:href="#DejaVuSans-61" x="193.708984"/>
     <use xlink:href="#DejaVuSans-75" x="254.988281"/>
     <use xlink:href="#DejaVuSans-6d" x="318.367188"/>
     <use xlink:href="#DejaVuSans-61" x="415.779297"/>
     <use xlink:href="#DejaVuSans-6e" x="477.058594"/>
     <use xlink:href="#DejaVuSans-6e" x="540.4375"/>
     <use xlink:href="#DejaVuSans-69" x="603.816406"/>
     <use xlink:href="#DejaVuSans-69" x="631.599609"/>
    </g>
   </g>
  </g>
  <g id="axes_3">
   <g id="patch_8">
    <path d="M 443.079875 175.938687 
L 636.233875 175.938687 
L 636.233875 19.582687 
L 443.079875 19.582687 
z
" style="fill: #ffffff"/>
   </g>
   <g id="matplotlib.axis_5">
    <g id="xtick_15">
     <g id="text_24">
      <!-- 1950 -->
      <g style="fill: #262626" transform="translate(452.544609 191.289484)scale(0.077 -0.077)">
       <use xlink:href="#DejaVuSans-31"/>
       <use xlink:href="#DejaVuSans-39" x="63.623047"/>
       <use xlink:href="#DejaVuSans-35" x="127.246094"/>
       <use xlink:href="#DejaVuSans-30" x="190.869141"/>
      </g>
     </g>
    </g>
    <g id="xtick_16">
     <g id="text_25">
      <!-- 1960 -->
      <g style="fill: #262626" transform="translate(478.75275 191.289484)scale(0.077 -0.077)">
       <use xlink:href="#DejaVuSans-31"/>
       <use xlink:href="#DejaVuSans-39" x="63.623047"/>
       <use xlink:href="#DejaVuSans-36" x="127.246094"/>
       <use xlink:href="#DejaVuSans-30" x="190.869141"/>
      </g>
     </g>
    </g>
    <g id="xtick_17">
     <g id="text_26">
      <!-- 1970 -->
      <g style="fill: #262626" transform="translate(504.960891 191.289484)scale(0.077 -0.077)">
       <use xlink:href="#DejaVuSans-31"/>
       <use xlink:href="#DejaVuSans-39" x="63.623047"/>
       <use xlink:href="#DejaVuSans-37" x="127.246094"/>
       <use xlink:href="#DejaVuSans-30" x="190.869141"/>
      </g>
     </g>
    </g>
    <g id="xtick_18">
     <g id="text_27">
      <!-- 1980 -->
      <g style="fill: #262626" transform="translate(531.169032 191.289484)scale(0.077 -0.077)">
       <use xlink:href="#DejaVuSans-31"/>
       <use xlink:href="#DejaVuSans-39" x="63.623047"/>
       <use xlink:href="#DejaVuSans-38" x="127.246094"/>
       <use xlink:href="#DejaVuSans-30" x="190.869141"/>
      </g>
     </g>
    </g>
    <g id="xtick_19">
     <g id="text_28">
      <!-- 1990 -->
      <g style="fill: #262626" transform="translate(557.377173 191.289484)scale(0.077 -0.077)">
       <use xlink:href="#DejaVuSans-31"/>
       <use xlink:href="#DejaVuSans-39" x="63.623047"/>
       <use xlink:href="#DejaVuSans-39" x="127.246094"/>
       <use xlink:href="#DejaVuSans-30" x="190.869141"/>
      </g>
     </g>
    </g>
    <g id="xtick_20">
     <g id="text_29">
      <!-- 2000 -->
      <g style="fill: #262626" transform="translate(583.585314 191.289484)scale(0.077 -0.077)">
       <use xlink:href="#DejaVuSans-32"/>
       <use xlink:href="#DejaVuSans-30" x="63.623047"/>
       <use xlink:href="#DejaVuSans-30" x="127.246094"/>
       <use xlink:href="#DejaVuSans-30" x="190.869141"/>
      </g>
     </g>
    </g>
    <g id="xtick_21">
     <g id="text_30">
      <!-- 2010 -->
      <g style="fill: #262626" transform="translate(609.793455 191.289484)scale(0.077 -0.077)">
       <use xlink:href="#DejaVuSans-32"/>
       <use xlink:href="#DejaVuSans-30" x="63.623047"/>
       <use xlink:href="#DejaVuSans-31" x="127.246094"/>
       <use xlink:href="#DejaVuSans-30" x="190.869141"/>
      </g>
     </g>
    </g>
    <g id="text_31">
     <!-- Year Cultured -->
     <g style="fill: #262626" transform="translate(511.476188 203.273531)scale(0.084 -0.084)">
      <use xlink:href="#DejaVuSans-59"/>
      <use xlink:href="#DejaVuSans-65" x="47.833984"/>
      <use xlink:href="#DejaVuSans-61" x="109.357422"/>
      <use xlink:href="#DejaVuSans-72" x="170.636719"/>
      <use xlink:href="#DejaVuSans-20" x="211.75"/>
      <use xlink:href="#DejaVuSans-43" x="243.537109"/>
      <use xlink:href="#DejaVuSans-75" x="313.361328"/>
      <use xlink:href="#DejaVuSans-6c" x="376.740234"/>
      <use xlink:href="#DejaVuSans-74" x="404.523438"/>
      <use xlink:href="#DejaVuSans-75" x="443.732422"/>
      <use xlink:href="#DejaVuSans-72" x="507.111328"/>
      <use xlink:href="#DejaVuSans-65" x="545.974609"/>
      <use xlink:href="#DejaVuSans-64" x="607.498047"/>
     </g>
    </g>
   </g>
   <g id="matplotlib.axis_6">
    <g id="ytick_9"/>
    <g id="ytick_10"/>
    <g id="ytick_11"/>
    <g id="ytick_12"/>
   </g>
   <g id="PathCollection_11">
    <path d="M 493.792628 158.091221 
C 494.588237 158.091221 495.351368 157.775122 495.913948 157.212541 
C 496.476529 156.64996 496.792628 155.88683 496.792628 155.091221 
C 496.792628 154.295612 496.476529 153.532481 495.913948 152.9699 
C 495.351368 152.40732 494.588237 152.091221 493.792628 152.091221 
C 492.997019 152.091221 492.233888 152.40732 491.671308 152.9699 
C 491.108727 153.532481 490.792628 154.295612 490.792628 155.091221 
C 490.792628 155.88683 491.108727 156.64996 491.671308 157.212541 
C 492.233888 157.775122 492.997019 158.091221 493.792628 158.091221 
z
" clip-path="url(#p2ce53b75f5)" style="fill: #8c8c8c"/>
   </g>
   <g id="PathCollection_12">
    <path d="M 499.034256 158.091221 
C 499.829866 158.091221 500.592996 157.775122 501.155577 157.212541 
C 501.718157 156.64996 502.034256 155.88683 502.034256 155.091221 
C 502.034256 154.295612 501.718157 153.532481 501.155577 152.9699 
C 500.592996 152.40732 499.829866 152.091221 499.034256 152.091221 
C 498.238647 152.091221 497.475517 152.40732 496.912936 152.9699 
C 496.350355 153.532481 496.034256 154.295612 496.034256 155.091221 
C 496.034256 155.88683 496.350355 156.64996 496.912936 157.212541 
C 497.475517 157.775122 498.238647 158.091221 499.034256 158.091221 
z
" clip-path="url(#p2ce53b75f5)" style="fill: #64b5cd"/>
   </g>
   <g id="PathCollection_13">
    <path d="M 496.413442 158.091221 
C 497.209051 158.091221 497.972182 157.775122 498.534763 157.212541 
C 499.097343 156.64996 499.413442 155.88683 499.413442 155.091221 
C 499.413442 154.295612 499.097343 153.532481 498.534763 152.9699 
C 497.972182 152.40732 497.209051 152.091221 496.413442 152.091221 
C 495.617833 152.091221 494.854703 152.40732 494.292122 152.9699 
C 493.729541 153.532481 493.413442 154.295612 493.413442 155.091221 
C 493.413442 155.88683 493.729541 156.64996 494.292122 157.212541 
C 494.854703 157.775122 495.617833 158.091221 496.413442 158.091221 
z
" clip-path="url(#p2ce53b75f5)" style="fill: #ccb974"/>
   </g>
   <g id="PathCollection_14">
    <path d="M 556.692167 85.125087 
C 557.487776 85.125087 558.250906 84.808989 558.813487 84.246408 
C 559.376068 83.683827 559.692167 82.920697 559.692167 82.125087 
C 559.692167 81.329478 559.376068 80.566348 558.813487 80.003767 
C 558.250906 79.441186 557.487776 79.125087 556.692167 79.125087 
C 555.896557 79.125087 555.133427 79.441186 554.570846 80.003767 
C 554.008266 80.566348 553.692167 81.329478 553.692167 82.125087 
C 553.692167 82.920697 554.008266 83.683827 554.570846 84.246408 
C 555.133427 84.808989 555.896557 85.125087 556.692167 85.125087 
z
" clip-path="url(#p2ce53b75f5)" style="fill: #4c72b0"/>
   </g>
   <g id="PathCollection_15">
    <path d="M 483.309372 168.514954 
C 484.104981 168.514954 484.868111 168.198855 485.430692 167.636275 
C 485.993273 167.073694 486.309372 166.310563 486.309372 165.514954 
C 486.309372 164.719345 485.993273 163.956215 485.430692 163.393634 
C 484.868111 162.831053 484.104981 162.514954 483.309372 162.514954 
C 482.513762 162.514954 481.750632 162.831053 481.188051 163.393634 
C 480.625471 163.956215 480.309372 164.719345 480.309372 165.514954 
C 480.309372 166.310563 480.625471 167.073694 481.188051 167.636275 
C 481.750632 168.198855 482.513762 168.514954 483.309372 168.514954 
z
" clip-path="url(#p2ce53b75f5)" style="fill: #da8bc3"/>
   </g>
   <g id="line2d_13">
    <path d="M 475.446929 144.667487 
L 494.541432 144.667487 
L 494.541432 144.667487 
L 513.635935 144.667487 
L 513.635935 144.667487 
L 532.730438 144.667487 
L 532.730438 82.125087 
L 551.824941 82.125087 
L 551.824941 61.277621 
L 570.919443 61.277621 
L 570.919443 61.277621 
L 590.013946 61.277621 
L 590.013946 50.853887 
L 609.108449 50.853887 
L 609.108449 50.853887 
" clip-path="url(#p2ce53b75f5)" style="fill: none; stroke: #000000; stroke-width: 1.5; stroke-linecap: round"/>
   </g>
   <g id="line2d_14">
    <path d="M 493.792628 175.938687 
L 493.792628 19.582687 
" clip-path="url(#p2ce53b75f5)" style="fill: none; stroke-dasharray: 3.7,1.6; stroke-dashoffset: 0; stroke: #8c8c8c; stroke-opacity: 0.7"/>
   </g>
   <g id="line2d_15">
    <path d="M 499.034256 175.938687 
L 499.034256 19.582687 
" clip-path="url(#p2ce53b75f5)" style="fill: none; stroke-dasharray: 3.7,1.6; stroke-dashoffset: 0; stroke: #64b5cd; stroke-opacity: 0.7"/>
   </g>
   <g id="line2d_16">
    <path d="M 496.413442 175.938687 
L 496.413442 19.582687 
" clip-path="url(#p2ce53b75f5)" style="fill: none; stroke-dasharray: 3.7,1.6; stroke-dashoffset: 0; stroke: #ccb974; stroke-opacity: 0.7"/>
   </g>
   <g id="line2d_17">
    <path d="M 556.692167 175.938687 
L 556.692167 19.582687 
" clip-path="url(#p2ce53b75f5)" style="fill: none; stroke-dasharray: 3.7,1.6; stroke-dashoffset: 0; stroke: #4c72b0; stroke-opacity: 0.7"/>
   </g>
   <g id="line2d_18">
    <path d="M 483.309372 175.938687 
L 483.309372 19.582687 
" clip-path="url(#p2ce53b75f5)" style="fill: none; stroke-dasharray: 3.7,1.6; stroke-dashoffset: 0; stroke: #da8bc3; stroke-opacity: 0.7"/>
   </g>
   <g id="patch_9">
    <path d="M 443.079875 175.938687 
L 443.079875 19.582687 
" style="fill: none; stroke: #262626; stroke-width: 1.25; stroke-linejoin: miter; stroke-linecap: square"/>
   </g>
   <g id="patch_10">
    <path d="M 443.079875 175.938687 
L 636.233875 175.938687 
" style="fill: none; stroke: #262626; stroke-width: 1.25; stroke-linejoin: miter; stroke-linecap: square"/>
   </g>
   <g id="text_32">
    <!-- Enterobacter sp. -->
    <g style="fill: #262626" transform="translate(504.877594 13.582687)scale(0.084 -0.084)">
     <defs>
      <path id="DejaVuSans-73" d="M 2834 3397 
L 2834 2853 
Q 2591 2978 2328 3040 
Q 2066 3103 1784 3103 
Q 1356 3103 1142 2972 
Q 928 2841 928 2578 
Q 928 2378 1081 2264 
Q 1234 2150 1697 2047 
L 1894 2003 
Q 2506 1872 2764 1633 
Q 3022 1394 3022 966 
Q 3022 478 2636 193 
Q 2250 -91 1575 -91 
Q 1294 -91 989 -36 
Q 684 19 347 128 
L 347 722 
Q 666 556 975 473 
Q 1284 391 1588 391 
Q 1994 391 2212 530 
Q 2431 669 2431 922 
Q 2431 1156 2273 1281 
Q 2116 1406 1581 1522 
L 1381 1569 
Q 847 1681 609 1914 
Q 372 2147 372 2553 
Q 372 3047 722 3315 
Q 1072 3584 1716 3584 
Q 2034 3584 2315 3537 
Q 2597 3491 2834 3397 
z
" transform="scale(0.015625)"/>
      <path id="DejaVuSans-70" d="M 1159 525 
L 1159 -1331 
L 581 -1331 
L 581 3500 
L 1159 3500 
L 1159 2969 
Q 1341 3281 1617 3432 
Q 1894 3584 2278 3584 
Q 2916 3584 3314 3078 
Q 3713 2572 3713 1747 
Q 3713 922 3314 415 
Q 2916 -91 2278 -91 
Q 1894 -91 1617 61 
Q 1341 213 1159 525 
z
M 3116 1747 
Q 3116 2381 2855 2742 
Q 2594 3103 2138 3103 
Q 1681 3103 1420 2742 
Q 1159 2381 1159 1747 
Q 1159 1113 1420 752 
Q 1681 391 2138 391 
Q 2594 391 2855 752 
Q 3116 1113 3116 1747 
z
" transform="scale(0.015625)"/>
     </defs>
     <use xlink:href="#DejaVuSans-45"/>
     <use xlink:href="#DejaVuSans-6e" x="63.183594"/>
     <use xlink:href="#DejaVuSans-74" x="126.5625"/>
     <use xlink:href="#DejaVuSans-65" x="165.771484"/>
     <use xlink:href="#DejaVuSans-72" x="227.294922"/>
     <use xlink:href="#DejaVuSans-6f" x="266.158203"/>
     <use xlink:href="#DejaVuSans-62" x="327.339844"/>
     <use xlink:href="#DejaVuSans-61" x="390.816406"/>
     <use xlink:href="#DejaVuSans-63" x="452.095703"/>
     <use xlink:href="#DejaVuSans-74" x="507.076172"/>
     <use xlink:href="#DejaVuSans-65" x="546.285156"/>
     <use xlink:href="#DejaVuSans-72" x="607.808594"/>
     <use xlink:href="#DejaVuSans-20" x="648.921875"/>
     <use xlink:href="#DejaVuSans-73" x="680.708984"/>
     <use xlink:href="#DejaVuSans-70" x="732.808594"/>
     <use xlink:href="#DejaVuSans-2e" x="796.285156"/>
    </g>
   </g>
   <g id="legend_1">
    <g id="patch_11">
     <path d="M 641.623875 150.066406 
L 756.145734 150.066406 
Q 757.685734 150.066406 757.685734 148.526406 
L 757.685734 24.972687 
Q 757.685734 23.432687 756.145734 23.432687 
L 641.623875 23.432687 
Q 640.083875 23.432687 640.083875 24.972687 
L 640.083875 148.526406 
Q 640.083875 150.066406 641.623875 150.066406 
z
" style="fill: #ffffff; opacity: 0.8; stroke: #cccccc; stroke-linejoin: miter"/>
    </g>
    <g id="line2d_19">
     <path d="M 643.163875 29.668484 
L 650.863875 29.668484 
L 658.563875 29.668484 
" style="fill: none; stroke: #4c72b0; stroke-width: 1.5; stroke-linecap: round"/>
     <defs>
      <path id="m359fae9f5b" d="M 0 3 
C 0.795609 3 1.55874 2.683901 2.12132 2.12132 
C 2.683901 1.55874 3 0.795609 3 0 
C 3 -0.795609 2.683901 -1.55874 2.12132 -2.12132 
C 1.55874 -2.683901 0.795609 -3 0 -3 
C -0.795609 -3 -1.55874 -2.683901 -2.12132 -2.12132 
C -2.683901 -1.55874 -3 -0.795609 -3 0 
C -3 0.795609 -2.683901 1.55874 -2.12132 2.12132 
C -1.55874 2.683901 -0.795609 3 0 3 
z
" style="stroke: #4c72b0"/>
     </defs>
     <g>
      <use xlink:href="#m359fae9f5b" x="650.863875" y="29.668484" style="fill: #4c72b0; stroke: #4c72b0"/>
     </g>
    </g>
    <g id="text_33">
     <!-- Sulfonamide (1936) -->
     <g style="fill: #262626" transform="translate(664.723875 32.363484)scale(0.077 -0.077)">
      <defs>
       <path id="DejaVuSans-53" d="M 3425 4513 
L 3425 3897 
Q 3066 4069 2747 4153 
Q 2428 4238 2131 4238 
Q 1616 4238 1336 4038 
Q 1056 3838 1056 3469 
Q 1056 3159 1242 3001 
Q 1428 2844 1947 2747 
L 2328 2669 
Q 3034 2534 3370 2195 
Q 3706 1856 3706 1288 
Q 3706 609 3251 259 
Q 2797 -91 1919 -91 
Q 1588 -91 1214 -16 
Q 841 59 441 206 
L 441 856 
Q 825 641 1194 531 
Q 1563 422 1919 422 
Q 2459 422 2753 634 
Q 3047 847 3047 1241 
Q 3047 1584 2836 1778 
Q 2625 1972 2144 2069 
L 1759 2144 
Q 1053 2284 737 2584 
Q 422 2884 422 3419 
Q 422 4038 858 4394 
Q 1294 4750 2059 4750 
Q 2388 4750 2728 4690 
Q 3069 4631 3425 4513 
z
" transform="scale(0.015625)"/>
       <path id="DejaVuSans-28" d="M 1984 4856 
Q 1566 4138 1362 3434 
Q 1159 2731 1159 2009 
Q 1159 1288 1364 580 
Q 1569 -128 1984 -844 
L 1484 -844 
Q 1016 -109 783 600 
Q 550 1309 550 2009 
Q 550 2706 781 3412 
Q 1013 4119 1484 4856 
L 1984 4856 
z
" transform="scale(0.015625)"/>
       <path id="DejaVuSans-33" d="M 2597 2516 
Q 3050 2419 3304 2112 
Q 3559 1806 3559 1356 
Q 3559 666 3084 287 
Q 2609 -91 1734 -91 
Q 1441 -91 1130 -33 
Q 819 25 488 141 
L 488 750 
Q 750 597 1062 519 
Q 1375 441 1716 441 
Q 2309 441 2620 675 
Q 2931 909 2931 1356 
Q 2931 1769 2642 2001 
Q 2353 2234 1838 2234 
L 1294 2234 
L 1294 2753 
L 1863 2753 
Q 2328 2753 2575 2939 
Q 2822 3125 2822 3475 
Q 2822 3834 2567 4026 
Q 2313 4219 1838 4219 
Q 1578 4219 1281 4162 
Q 984 4106 628 3988 
L 628 4550 
Q 988 4650 1302 4700 
Q 1616 4750 1894 4750 
Q 2613 4750 3031 4423 
Q 3450 4097 3450 3541 
Q 3450 3153 3228 2886 
Q 3006 2619 2597 2516 
z
" transform="scale(0.015625)"/>
       <path id="DejaVuSans-29" d="M 513 4856 
L 1013 4856 
Q 1481 4119 1714 3412 
Q 1947 2706 1947 2009 
Q 1947 1309 1714 600 
Q 1481 -109 1013 -844 
L 513 -844 
Q 928 -128 1133 580 
Q 1338 1288 1338 2009 
Q 1338 2731 1133 3434 
Q 928 4138 513 4856 
z
" transform="scale(0.015625)"/>
      </defs>
      <use xlink:href="#DejaVuSans-53"/>
      <use xlink:href="#DejaVuSans-75" x="63.476562"/>
      <use xlink:href="#DejaVuSans-6c" x="126.855469"/>
      <use xlink:href="#DejaVuSans-66" x="154.638672"/>
      <use xlink:href="#DejaVuSans-6f" x="189.84375"/>
      <use xlink:href="#DejaVuSans-6e" x="251.025391"/>
      <use xlink:href="#DejaVuSans-61" x="314.404297"/>
      <use xlink:href="#DejaVuSans-6d" x="375.683594"/>
      <use xlink:href="#DejaVuSans-69" x="473.095703"/>
      <use xlink:href="#DejaVuSans-64" x="500.878906"/>
      <use xlink:href="#DejaVuSans-65" x="564.355469"/>
      <use xlink:href="#DejaVuSans-20" x="625.878906"/>
      <use xlink:href="#DejaVuSans-28" x="657.666016"/>
      <use xlink:href="#DejaVuSans-31" x="696.679688"/>
      <use xlink:href="#DejaVuSans-39" x="760.302734"/>
      <use xlink:href="#DejaVuSans-33" x="823.925781"/>
      <use xlink:href="#DejaVuSans-36" x="887.548828"/>
      <use xlink:href="#DejaVuSans-29" x="951.171875"/>
     </g>
    </g>
    <g id="line2d_20">
     <path d="M 643.163875 40.970641 
L 650.863875 40.970641 
L 658.563875 40.970641 
" style="fill: none; stroke: #dd8452; stroke-width: 1.5; stroke-linecap: round"/>
     <defs>
      <path id="mc5d24099ae" d="M 0 3 
C 0.795609 3 1.55874 2.683901 2.12132 2.12132 
C 2.683901 1.55874 3 0.795609 3 0 
C 3 -0.795609 2.683901 -1.55874 2.12132 -2.12132 
C 1.55874 -2.683901 0.795609 -3 0 -3 
C -0.795609 -3 -1.55874 -2.683901 -2.12132 -2.12132 
C -2.683901 -1.55874 -3 -0.795609 -3 0 
C -3 0.795609 -2.683901 1.55874 -2.12132 2.12132 
C -1.55874 2.683901 -0.795609 3 0 3 
z
" style="stroke: #dd8452"/>
     </defs>
     <g>
      <use xlink:href="#mc5d24099ae" x="650.863875" y="40.970641" style="fill: #dd8452; stroke: #dd8452"/>
     </g>
    </g>
    <g id="text_34">
     <!-- Penam (1943) -->
     <g style="fill: #262626" transform="translate(664.723875 43.665641)scale(0.077 -0.077)">
      <defs>
       <path id="DejaVuSans-50" d="M 1259 4147 
L 1259 2394 
L 2053 2394 
Q 2494 2394 2734 2622 
Q 2975 2850 2975 3272 
Q 2975 3691 2734 3919 
Q 2494 4147 2053 4147 
L 1259 4147 
z
M 628 4666 
L 2053 4666 
Q 2838 4666 3239 4311 
Q 3641 3956 3641 3272 
Q 3641 2581 3239 2228 
Q 2838 1875 2053 1875 
L 1259 1875 
L 1259 0 
L 628 0 
L 628 4666 
z
" transform="scale(0.015625)"/>
       <path id="DejaVuSans-34" d="M 2419 4116 
L 825 1625 
L 2419 1625 
L 2419 4116 
z
M 2253 4666 
L 3047 4666 
L 3047 1625 
L 3713 1625 
L 3713 1100 
L 3047 1100 
L 3047 0 
L 2419 0 
L 2419 1100 
L 313 1100 
L 313 1709 
L 2253 4666 
z
" transform="scale(0.015625)"/>
      </defs>
      <use xlink:href="#DejaVuSans-50"/>
      <use xlink:href="#DejaVuSans-65" x="56.677734"/>
      <use xlink:href="#DejaVuSans-6e" x="118.201172"/>
      <use xlink:href="#DejaVuSans-61" x="181.580078"/>
      <use xlink:href="#DejaVuSans-6d" x="242.859375"/>
      <use xlink:href="#DejaVuSans-20" x="340.271484"/>
      <use xlink:href="#DejaVuSans-28" x="372.058594"/>
      <use xlink:href="#DejaVuSans-31" x="411.072266"/>
      <use xlink:href="#DejaVuSans-39" x="474.695312"/>
      <use xlink:href="#DejaVuSans-34" x="538.318359"/>
      <use xlink:href="#DejaVuSans-33" x="601.941406"/>
      <use xlink:href="#DejaVuSans-29" x="665.564453"/>
     </g>
    </g>
    <g id="line2d_21">
     <path d="M 643.163875 52.272797 
L 650.863875 52.272797 
L 658.563875 52.272797 
" style="fill: none; stroke: #55a868; stroke-width: 1.5; stroke-linecap: round"/>
     <defs>
      <path id="ma773b9aae8" d="M 0 3 
C 0.795609 3 1.55874 2.683901 2.12132 2.12132 
C 2.683901 1.55874 3 0.795609 3 0 
C 3 -0.795609 2.683901 -1.55874 2.12132 -2.12132 
C 1.55874 -2.683901 0.795609 -3 0 -3 
C -0.795609 -3 -1.55874 -2.683901 -2.12132 -2.12132 
C -2.683901 -1.55874 -3 -0.795609 -3 0 
C -3 0.795609 -2.683901 1.55874 -2.12132 2.12132 
C -1.55874 2.683901 -0.795609 3 0 3 
z
" style="stroke: #55a868"/>
     </defs>
     <g>
      <use xlink:href="#ma773b9aae8" x="650.863875" y="52.272797" style="fill: #55a868; stroke: #55a868"/>
     </g>
    </g>
    <g id="text_35">
     <!-- Aminoglycoside (1946) -->
     <g style="fill: #262626" transform="translate(664.723875 54.967797)scale(0.077 -0.077)">
      <defs>
       <path id="DejaVuSans-67" d="M 2906 1791 
Q 2906 2416 2648 2759 
Q 2391 3103 1925 3103 
Q 1463 3103 1205 2759 
Q 947 2416 947 1791 
Q 947 1169 1205 825 
Q 1463 481 1925 481 
Q 2391 481 2648 825 
Q 2906 1169 2906 1791 
z
M 3481 434 
Q 3481 -459 3084 -895 
Q 2688 -1331 1869 -1331 
Q 1566 -1331 1297 -1286 
Q 1028 -1241 775 -1147 
L 775 -588 
Q 1028 -725 1275 -790 
Q 1522 -856 1778 -856 
Q 2344 -856 2625 -561 
Q 2906 -266 2906 331 
L 2906 616 
Q 2728 306 2450 153 
Q 2172 0 1784 0 
Q 1141 0 747 490 
Q 353 981 353 1791 
Q 353 2603 747 3093 
Q 1141 3584 1784 3584 
Q 2172 3584 2450 3431 
Q 2728 3278 2906 2969 
L 2906 3500 
L 3481 3500 
L 3481 434 
z
" transform="scale(0.015625)"/>
       <path id="DejaVuSans-79" d="M 2059 -325 
Q 1816 -950 1584 -1140 
Q 1353 -1331 966 -1331 
L 506 -1331 
L 506 -850 
L 844 -850 
Q 1081 -850 1212 -737 
Q 1344 -625 1503 -206 
L 1606 56 
L 191 3500 
L 800 3500 
L 1894 763 
L 2988 3500 
L 3597 3500 
L 2059 -325 
z
" transform="scale(0.015625)"/>
      </defs>
      <use xlink:href="#DejaVuSans-41"/>
      <use xlink:href="#DejaVuSans-6d" x="68.408203"/>
      <use xlink:href="#DejaVuSans-69" x="165.820312"/>
      <use xlink:href="#DejaVuSans-6e" x="193.603516"/>
      <use xlink:href="#DejaVuSans-6f" x="256.982422"/>
      <use xlink:href="#DejaVuSans-67" x="318.164062"/>
      <use xlink:href="#DejaVuSans-6c" x="381.640625"/>
      <use xlink:href="#DejaVuSans-79" x="409.423828"/>
      <use xlink:href="#DejaVuSans-63" x="468.603516"/>
      <use xlink:href="#DejaVuSans-6f" x="523.583984"/>
      <use xlink:href="#DejaVuSans-73" x="584.765625"/>
      <use xlink:href="#DejaVuSans-69" x="636.865234"/>
      <use xlink:href="#DejaVuSans-64" x="664.648438"/>
      <use xlink:href="#DejaVuSans-65" x="728.125"/>
      <use xlink:href="#DejaVuSans-20" x="789.648438"/>
      <use xlink:href="#DejaVuSans-28" x="821.435547"/>
      <use xlink:href="#DejaVuSans-31" x="860.449219"/>
      <use xlink:href="#DejaVuSans-39" x="924.072266"/>
      <use xlink:href="#DejaVuSans-34" x="987.695312"/>
      <use xlink:href="#DejaVuSans-36" x="1051.318359"/>
      <use xlink:href="#DejaVuSans-29" x="1114.941406"/>
     </g>
    </g>
    <g id="line2d_22">
     <path d="M 643.163875 63.574953 
L 650.863875 63.574953 
L 658.563875 63.574953 
" style="fill: none; stroke: #c44e52; stroke-width: 1.5; stroke-linecap: round"/>
     <defs>
      <path id="mb2e4de4d3f" d="M 0 3 
C 0.795609 3 1.55874 2.683901 2.12132 2.12132 
C 2.683901 1.55874 3 0.795609 3 0 
C 3 -0.795609 2.683901 -1.55874 2.12132 -2.12132 
C 1.55874 -2.683901 0.795609 -3 0 -3 
C -0.795609 -3 -1.55874 -2.683901 -2.12132 -2.12132 
C -2.683901 -1.55874 -3 -0.795609 -3 0 
C -3 0.795609 -2.683901 1.55874 -2.12132 2.12132 
C -1.55874 2.683901 -0.795609 3 0 3 
z
" style="stroke: #c44e52"/>
     </defs>
     <g>
      <use xlink:href="#mb2e4de4d3f" x="650.863875" y="63.574953" style="fill: #c44e52; stroke: #c44e52"/>
     </g>
    </g>
    <g id="text_36">
     <!-- Tetracycline (1948) -->
     <g style="fill: #262626" transform="translate(664.723875 66.269953)scale(0.077 -0.077)">
      <defs>
       <path id="DejaVuSans-54" d="M -19 4666 
L 3928 4666 
L 3928 4134 
L 2272 4134 
L 2272 0 
L 1638 0 
L 1638 4134 
L -19 4134 
L -19 4666 
z
" transform="scale(0.015625)"/>
      </defs>
      <use xlink:href="#DejaVuSans-54"/>
      <use xlink:href="#DejaVuSans-65" x="44.083984"/>
      <use xlink:href="#DejaVuSans-74" x="105.607422"/>
      <use xlink:href="#DejaVuSans-72" x="144.816406"/>
      <use xlink:href="#DejaVuSans-61" x="185.929688"/>
      <use xlink:href="#DejaVuSans-63" x="247.208984"/>
      <use xlink:href="#DejaVuSans-79" x="302.189453"/>
      <use xlink:href="#DejaVuSans-63" x="361.369141"/>
      <use xlink:href="#DejaVuSans-6c" x="416.349609"/>
      <use xlink:href="#DejaVuSans-69" x="444.132812"/>
      <use xlink:href="#DejaVuSans-6e" x="471.916016"/>
      <use xlink:href="#DejaVuSans-65" x="535.294922"/>
      <use xlink:href="#DejaVuSans-20" x="596.818359"/>
      <use xlink:href="#DejaVuSans-28" x="628.605469"/>
      <use xlink:href="#DejaVuSans-31" x="667.619141"/>
      <use xlink:href="#DejaVuSans-39" x="731.242188"/>
      <use xlink:href="#DejaVuSans-34" x="794.865234"/>
      <use xlink:href="#DejaVuSans-38" x="858.488281"/>
      <use xlink:href="#DejaVuSans-29" x="922.111328"/>
     </g>
    </g>
    <g id="line2d_23">
     <path d="M 643.163875 74.877109 
L 650.863875 74.877109 
L 658.563875 74.877109 
" style="fill: none; stroke: #8172b3; stroke-width: 1.5; stroke-linecap: round"/>
     <defs>
      <path id="mffd3ab2f00" d="M 0 3 
C 0.795609 3 1.55874 2.683901 2.12132 2.12132 
C 2.683901 1.55874 3 0.795609 3 0 
C 3 -0.795609 2.683901 -1.55874 2.12132 -2.12132 
C 1.55874 -2.683901 0.795609 -3 0 -3 
C -0.795609 -3 -1.55874 -2.683901 -2.12132 -2.12132 
C -2.683901 -1.55874 -3 -0.795609 -3 0 
C -3 0.795609 -2.683901 1.55874 -2.12132 2.12132 
C -1.55874 2.683901 -0.795609 3 0 3 
z
" style="stroke: #8172b3"/>
     </defs>
     <g>
      <use xlink:href="#mffd3ab2f00" x="650.863875" y="74.877109" style="fill: #8172b3; stroke: #8172b3"/>
     </g>
    </g>
    <g id="text_37">
     <!-- Phenicol (1949) -->
     <g style="fill: #262626" transform="translate(664.723875 77.572109)scale(0.077 -0.077)">
      <defs>
       <path id="DejaVuSans-68" d="M 3513 2113 
L 3513 0 
L 2938 0 
L 2938 2094 
Q 2938 2591 2744 2837 
Q 2550 3084 2163 3084 
Q 1697 3084 1428 2787 
Q 1159 2491 1159 1978 
L 1159 0 
L 581 0 
L 581 4863 
L 1159 4863 
L 1159 2956 
Q 1366 3272 1645 3428 
Q 1925 3584 2291 3584 
Q 2894 3584 3203 3211 
Q 3513 2838 3513 2113 
z
" transform="scale(0.015625)"/>
      </defs>
      <use xlink:href="#DejaVuSans-50"/>
      <use xlink:href="#DejaVuSans-68" x="60.302734"/>
      <use xlink:href="#DejaVuSans-65" x="123.681641"/>
      <use xlink:href="#DejaVuSans-6e" x="185.205078"/>
      <use xlink:href="#DejaVuSans-69" x="248.583984"/>
      <use xlink:href="#DejaVuSans-63" x="276.367188"/>
      <use xlink:href="#DejaVuSans-6f" x="331.347656"/>
      <use xlink:href="#DejaVuSans-6c" x="392.529297"/>
      <use xlink:href="#DejaVuSans-20" x="420.3125"/>
      <use xlink:href="#DejaVuSans-28" x="452.099609"/>
      <use xlink:href="#DejaVuSans-31" x="491.113281"/>
      <use xlink:href="#DejaVuSans-39" x="554.736328"/>
      <use xlink:href="#DejaVuSans-34" x="618.359375"/>
      <use xlink:href="#DejaVuSans-39" x="681.982422"/>
      <use xlink:href="#DejaVuSans-29" x="745.605469"/>
     </g>
    </g>
    <g id="line2d_24">
     <path d="M 643.163875 86.179266 
L 650.863875 86.179266 
L 658.563875 86.179266 
" style="fill: none; stroke: #937860; stroke-width: 1.5; stroke-linecap: round"/>
     <defs>
      <path id="m3e54691a4e" d="M 0 3 
C 0.795609 3 1.55874 2.683901 2.12132 2.12132 
C 2.683901 1.55874 3 0.795609 3 0 
C 3 -0.795609 2.683901 -1.55874 2.12132 -2.12132 
C 1.55874 -2.683901 0.795609 -3 0 -3 
C -0.795609 -3 -1.55874 -2.683901 -2.12132 -2.12132 
C -2.683901 -1.55874 -3 -0.795609 -3 0 
C -3 0.795609 -2.683901 1.55874 -2.12132 2.12132 
C -1.55874 2.683901 -0.795609 3 0 3 
z
" style="stroke: #937860"/>
     </defs>
     <g>
      <use xlink:href="#m3e54691a4e" x="650.863875" y="86.179266" style="fill: #937860; stroke: #937860"/>
     </g>
    </g>
    <g id="text_38">
     <!-- Macrolide (1952) -->
     <g style="fill: #262626" transform="translate(664.723875 88.874266)scale(0.077 -0.077)">
      <defs>
       <path id="DejaVuSans-4d" d="M 628 4666 
L 1569 4666 
L 2759 1491 
L 3956 4666 
L 4897 4666 
L 4897 0 
L 4281 0 
L 4281 4097 
L 3078 897 
L 2444 897 
L 1241 4097 
L 1241 0 
L 628 0 
L 628 4666 
z
" transform="scale(0.015625)"/>
      </defs>
      <use xlink:href="#DejaVuSans-4d"/>
      <use xlink:href="#DejaVuSans-61" x="86.279297"/>
      <use xlink:href="#DejaVuSans-63" x="147.558594"/>
      <use xlink:href="#DejaVuSans-72" x="202.539062"/>
      <use xlink:href="#DejaVuSans-6f" x="241.402344"/>
      <use xlink:href="#DejaVuSans-6c" x="302.583984"/>
      <use xlink:href="#DejaVuSans-69" x="330.367188"/>
      <use xlink:href="#DejaVuSans-64" x="358.150391"/>
      <use xlink:href="#DejaVuSans-65" x="421.626953"/>
      <use xlink:href="#DejaVuSans-20" x="483.150391"/>
      <use xlink:href="#DejaVuSans-28" x="514.9375"/>
      <use xlink:href="#DejaVuSans-31" x="553.951172"/>
      <use xlink:href="#DejaVuSans-39" x="617.574219"/>
      <use xlink:href="#DejaVuSans-35" x="681.197266"/>
      <use xlink:href="#DejaVuSans-32" x="744.820312"/>
      <use xlink:href="#DejaVuSans-29" x="808.443359"/>
     </g>
    </g>
    <g id="line2d_25">
     <path d="M 643.163875 97.481422 
L 650.863875 97.481422 
L 658.563875 97.481422 
" style="fill: none; stroke: #da8bc3; stroke-width: 1.5; stroke-linecap: round"/>
     <defs>
      <path id="me76a51918c" d="M 0 3 
C 0.795609 3 1.55874 2.683901 2.12132 2.12132 
C 2.683901 1.55874 3 0.795609 3 0 
C 3 -0.795609 2.683901 -1.55874 2.12132 -2.12132 
C 1.55874 -2.683901 0.795609 -3 0 -3 
C -0.795609 -3 -1.55874 -2.683901 -2.12132 -2.12132 
C -2.683901 -1.55874 -3 -0.795609 -3 0 
C -3 0.795609 -2.683901 1.55874 -2.12132 2.12132 
C -1.55874 2.683901 -0.795609 3 0 3 
z
" style="stroke: #da8bc3"/>
     </defs>
     <g>
      <use xlink:href="#me76a51918c" x="650.863875" y="97.481422" style="fill: #da8bc3; stroke: #da8bc3"/>
     </g>
    </g>
    <g id="text_39">
     <!-- Glycopeptide (1958) -->
     <g style="fill: #262626" transform="translate(664.723875 100.176422)scale(0.077 -0.077)">
      <defs>
       <path id="DejaVuSans-47" d="M 3809 666 
L 3809 1919 
L 2778 1919 
L 2778 2438 
L 4434 2438 
L 4434 434 
Q 4069 175 3628 42 
Q 3188 -91 2688 -91 
Q 1594 -91 976 548 
Q 359 1188 359 2328 
Q 359 3472 976 4111 
Q 1594 4750 2688 4750 
Q 3144 4750 3555 4637 
Q 3966 4525 4313 4306 
L 4313 3634 
Q 3963 3931 3569 4081 
Q 3175 4231 2741 4231 
Q 1884 4231 1454 3753 
Q 1025 3275 1025 2328 
Q 1025 1384 1454 906 
Q 1884 428 2741 428 
Q 3075 428 3337 486 
Q 3600 544 3809 666 
z
" transform="scale(0.015625)"/>
      </defs>
      <use xlink:href="#DejaVuSans-47"/>
      <use xlink:href="#DejaVuSans-6c" x="77.490234"/>
      <use xlink:href="#DejaVuSans-79" x="105.273438"/>
      <use xlink:href="#DejaVuSans-63" x="164.453125"/>
      <use xlink:href="#DejaVuSans-6f" x="219.433594"/>
      <use xlink:href="#DejaVuSans-70" x="280.615234"/>
      <use xlink:href="#DejaVuSans-65" x="344.091797"/>
      <use xlink:href="#DejaVuSans-70" x="405.615234"/>
      <use xlink:href="#DejaVuSans-74" x="469.091797"/>
      <use xlink:href="#DejaVuSans-69" x="508.300781"/>
      <use xlink:href="#DejaVuSans-64" x="536.083984"/>
      <use xlink:href="#DejaVuSans-65" x="599.560547"/>
      <use xlink:href="#DejaVuSans-20" x="661.083984"/>
      <use xlink:href="#DejaVuSans-28" x="692.871094"/>
      <use xlink:href="#DejaVuSans-31" x="731.884766"/>
      <use xlink:href="#DejaVuSans-39" x="795.507812"/>
      <use xlink:href="#DejaVuSans-35" x="859.130859"/>
      <use xlink:href="#DejaVuSans-38" x="922.753906"/>
      <use xlink:href="#DejaVuSans-29" x="986.376953"/>
     </g>
    </g>
    <g id="line2d_26">
     <path d="M 643.163875 108.783578 
L 650.863875 108.783578 
L 658.563875 108.783578 
" style="fill: none; stroke: #8c8c8c; stroke-width: 1.5; stroke-linecap: round"/>
     <defs>
      <path id="m164c693c2e" d="M 0 3 
C 0.795609 3 1.55874 2.683901 2.12132 2.12132 
C 2.683901 1.55874 3 0.795609 3 0 
C 3 -0.795609 2.683901 -1.55874 2.12132 -2.12132 
C 1.55874 -2.683901 0.795609 -3 0 -3 
C -0.795609 -3 -1.55874 -2.683901 -2.12132 -2.12132 
C -2.683901 -1.55874 -3 -0.795609 -3 0 
C -3 0.795609 -2.683901 1.55874 -2.12132 2.12132 
C -1.55874 2.683901 -0.795609 3 0 3 
z
" style="stroke: #8c8c8c"/>
     </defs>
     <g>
      <use xlink:href="#m164c693c2e" x="650.863875" y="108.783578" style="fill: #8c8c8c; stroke: #8c8c8c"/>
     </g>
    </g>
    <g id="text_40">
     <!-- Fluoroquinolone (1962) -->
     <g style="fill: #262626" transform="translate(664.723875 111.478578)scale(0.077 -0.077)">
      <defs>
       <path id="DejaVuSans-46" d="M 628 4666 
L 3309 4666 
L 3309 4134 
L 1259 4134 
L 1259 2759 
L 3109 2759 
L 3109 2228 
L 1259 2228 
L 1259 0 
L 628 0 
L 628 4666 
z
" transform="scale(0.015625)"/>
       <path id="DejaVuSans-71" d="M 947 1747 
Q 947 1113 1208 752 
Q 1469 391 1925 391 
Q 2381 391 2643 752 
Q 2906 1113 2906 1747 
Q 2906 2381 2643 2742 
Q 2381 3103 1925 3103 
Q 1469 3103 1208 2742 
Q 947 2381 947 1747 
z
M 2906 525 
Q 2725 213 2448 61 
Q 2172 -91 1784 -91 
Q 1150 -91 751 415 
Q 353 922 353 1747 
Q 353 2572 751 3078 
Q 1150 3584 1784 3584 
Q 2172 3584 2448 3432 
Q 2725 3281 2906 2969 
L 2906 3500 
L 3481 3500 
L 3481 -1331 
L 2906 -1331 
L 2906 525 
z
" transform="scale(0.015625)"/>
      </defs>
      <use xlink:href="#DejaVuSans-46"/>
      <use xlink:href="#DejaVuSans-6c" x="57.519531"/>
      <use xlink:href="#DejaVuSans-75" x="85.302734"/>
      <use xlink:href="#DejaVuSans-6f" x="148.681641"/>
      <use xlink:href="#DejaVuSans-72" x="209.863281"/>
      <use xlink:href="#DejaVuSans-6f" x="248.726562"/>
      <use xlink:href="#DejaVuSans-71" x="309.908203"/>
      <use xlink:href="#DejaVuSans-75" x="373.384766"/>
      <use xlink:href="#DejaVuSans-69" x="436.763672"/>
      <use xlink:href="#DejaVuSans-6e" x="464.546875"/>
      <use xlink:href="#DejaVuSans-6f" x="527.925781"/>
      <use xlink:href="#DejaVuSans-6c" x="589.107422"/>
      <use xlink:href="#DejaVuSans-6f" x="616.890625"/>
      <use xlink:href="#DejaVuSans-6e" x="678.072266"/>
      <use xlink:href="#DejaVuSans-65" x="741.451172"/>
      <use xlink:href="#DejaVuSans-20" x="802.974609"/>
      <use xlink:href="#DejaVuSans-28" x="834.761719"/>
      <use xlink:href="#DejaVuSans-31" x="873.775391"/>
      <use xlink:href="#DejaVuSans-39" x="937.398438"/>
      <use xlink:href="#DejaVuSans-36" x="1001.021484"/>
      <use xlink:href="#DejaVuSans-32" x="1064.644531"/>
      <use xlink:href="#DejaVuSans-29" x="1128.267578"/>
     </g>
    </g>
    <g id="line2d_27">
     <path d="M 643.163875 120.085734 
L 650.863875 120.085734 
L 658.563875 120.085734 
" style="fill: none; stroke: #ccb974; stroke-width: 1.5; stroke-linecap: round"/>
     <defs>
      <path id="mc8682e034b" d="M 0 3 
C 0.795609 3 1.55874 2.683901 2.12132 2.12132 
C 2.683901 1.55874 3 0.795609 3 0 
C 3 -0.795609 2.683901 -1.55874 2.12132 -2.12132 
C 1.55874 -2.683901 0.795609 -3 0 -3 
C -0.795609 -3 -1.55874 -2.683901 -2.12132 -2.12132 
C -2.683901 -1.55874 -3 -0.795609 -3 0 
C -3 0.795609 -2.683901 1.55874 -2.12132 2.12132 
C -1.55874 2.683901 -0.795609 3 0 3 
z
" style="stroke: #ccb974"/>
     </defs>
     <g>
      <use xlink:href="#mc8682e034b" x="650.863875" y="120.085734" style="fill: #ccb974; stroke: #ccb974"/>
     </g>
    </g>
    <g id="text_41">
     <!-- Rifamycin (1963) -->
     <g style="fill: #262626" transform="translate(664.723875 122.780734)scale(0.077 -0.077)">
      <defs>
       <path id="DejaVuSans-52" d="M 2841 2188 
Q 3044 2119 3236 1894 
Q 3428 1669 3622 1275 
L 4263 0 
L 3584 0 
L 2988 1197 
Q 2756 1666 2539 1819 
Q 2322 1972 1947 1972 
L 1259 1972 
L 1259 0 
L 628 0 
L 628 4666 
L 2053 4666 
Q 2853 4666 3247 4331 
Q 3641 3997 3641 3322 
Q 3641 2881 3436 2590 
Q 3231 2300 2841 2188 
z
M 1259 4147 
L 1259 2491 
L 2053 2491 
Q 2509 2491 2742 2702 
Q 2975 2913 2975 3322 
Q 2975 3731 2742 3939 
Q 2509 4147 2053 4147 
L 1259 4147 
z
" transform="scale(0.015625)"/>
      </defs>
      <use xlink:href="#DejaVuSans-52"/>
      <use xlink:href="#DejaVuSans-69" x="69.482422"/>
      <use xlink:href="#DejaVuSans-66" x="97.265625"/>
      <use xlink:href="#DejaVuSans-61" x="132.470703"/>
      <use xlink:href="#DejaVuSans-6d" x="193.75"/>
      <use xlink:href="#DejaVuSans-79" x="291.162109"/>
      <use xlink:href="#DejaVuSans-63" x="350.341797"/>
      <use xlink:href="#DejaVuSans-69" x="405.322266"/>
      <use xlink:href="#DejaVuSans-6e" x="433.105469"/>
      <use xlink:href="#DejaVuSans-20" x="496.484375"/>
      <use xlink:href="#DejaVuSans-28" x="528.271484"/>
      <use xlink:href="#DejaVuSans-31" x="567.285156"/>
      <use xlink:href="#DejaVuSans-39" x="630.908203"/>
      <use xlink:href="#DejaVuSans-36" x="694.53125"/>
      <use xlink:href="#DejaVuSans-33" x="758.154297"/>
      <use xlink:href="#DejaVuSans-29" x="821.777344"/>
     </g>
    </g>
    <g id="line2d_28">
     <path d="M 643.163875 131.387891 
L 650.863875 131.387891 
L 658.563875 131.387891 
" style="fill: none; stroke: #64b5cd; stroke-width: 1.5; stroke-linecap: round"/>
     <defs>
      <path id="m67a28aeee6" d="M 0 3 
C 0.795609 3 1.55874 2.683901 2.12132 2.12132 
C 2.683901 1.55874 3 0.795609 3 0 
C 3 -0.795609 2.683901 -1.55874 2.12132 -2.12132 
C 1.55874 -2.683901 0.795609 -3 0 -3 
C -0.795609 -3 -1.55874 -2.683901 -2.12132 -2.12132 
C -2.683901 -1.55874 -3 -0.795609 -3 0 
C -3 0.795609 -2.683901 1.55874 -2.12132 2.12132 
C -1.55874 2.683901 -0.795609 3 0 3 
z
" style="stroke: #64b5cd"/>
     </defs>
     <g>
      <use xlink:href="#m67a28aeee6" x="650.863875" y="131.387891" style="fill: #64b5cd; stroke: #64b5cd"/>
     </g>
    </g>
    <g id="text_42">
     <!-- Cephalosporin (1964) -->
     <g style="fill: #262626" transform="translate(664.723875 134.082891)scale(0.077 -0.077)">
      <use xlink:href="#DejaVuSans-43"/>
      <use xlink:href="#DejaVuSans-65" x="69.824219"/>
      <use xlink:href="#DejaVuSans-70" x="131.347656"/>
      <use xlink:href="#DejaVuSans-68" x="194.824219"/>
      <use xlink:href="#DejaVuSans-61" x="258.203125"/>
      <use xlink:href="#DejaVuSans-6c" x="319.482422"/>
      <use xlink:href="#DejaVuSans-6f" x="347.265625"/>
      <use xlink:href="#DejaVuSans-73" x="408.447266"/>
      <use xlink:href="#DejaVuSans-70" x="460.546875"/>
      <use xlink:href="#DejaVuSans-6f" x="524.023438"/>
      <use xlink:href="#DejaVuSans-72" x="585.205078"/>
      <use xlink:href="#DejaVuSans-69" x="626.318359"/>
      <use xlink:href="#DejaVuSans-6e" x="654.101562"/>
      <use xlink:href="#DejaVuSans-20" x="717.480469"/>
      <use xlink:href="#DejaVuSans-28" x="749.267578"/>
      <use xlink:href="#DejaVuSans-31" x="788.28125"/>
      <use xlink:href="#DejaVuSans-39" x="851.904297"/>
      <use xlink:href="#DejaVuSans-36" x="915.527344"/>
      <use xlink:href="#DejaVuSans-34" x="979.150391"/>
      <use xlink:href="#DejaVuSans-29" x="1042.773438"/>
     </g>
    </g>
    <g id="line2d_29">
     <path d="M 643.163875 142.690047 
L 650.863875 142.690047 
L 658.563875 142.690047 
" style="fill: none; stroke: #4c72b0; stroke-width: 1.5; stroke-linecap: round"/>
     <g>
      <use xlink:href="#m359fae9f5b" x="650.863875" y="142.690047" style="fill: #4c72b0; stroke: #4c72b0"/>
     </g>
    </g>
    <g id="text_43">
     <!-- Monobactam (1986) -->
     <g style="fill: #262626" transform="translate(664.723875 145.385047)scale(0.077 -0.077)">
      <use xlink:href="#DejaVuSans-4d"/>
      <use xlink:href="#DejaVuSans-6f" x="86.279297"/>
      <use xlink:href="#DejaVuSans-6e" x="147.460938"/>
      <use xlink:href="#DejaVuSans-6f" x="210.839844"/>
      <use xlink:href="#DejaVuSans-62" x="272.021484"/>
      <use xlink:href="#DejaVuSans-61" x="335.498047"/>
      <use xlink:href="#DejaVuSans-63" x="396.777344"/>
      <use xlink:href="#DejaVuSans-74" x="451.757812"/>
      <use xlink:href="#DejaVuSans-61" x="490.966797"/>
      <use xlink:href="#DejaVuSans-6d" x="552.246094"/>
      <use xlink:href="#DejaVuSans-20" x="649.658203"/>
      <use xlink:href="#DejaVuSans-28" x="681.445312"/>
      <use xlink:href="#DejaVuSans-31" x="720.458984"/>
      <use xlink:href="#DejaVuSans-39" x="784.082031"/>
      <use xlink:href="#DejaVuSans-38" x="847.705078"/>
      <use xlink:href="#DejaVuSans-36" x="911.328125"/>
      <use xlink:href="#DejaVuSans-29" x="974.951172"/>
     </g>
    </g>
   </g>
  </g>
 </g>
 <defs>
  <clipPath id="pa7e5e768c3">
   <rect x="38.627875" y="19.582687" width="193.154" height="156.356"/>
  </clipPath>
  <clipPath id="pb13b7eb234">
   <rect x="240.853875" y="19.582687" width="193.154" height="156.356"/>
  </clipPath>
  <clipPath id="p2ce53b75f5">
   <rect x="443.079875" y="19.582687" width="193.154" height="156.356"/>
  </clipPath>
 </defs>
</svg>
