<?xml version="1.0" encoding="utf-8" standalone="no"?>
<!DOCTYPE svg PUBLIC "-//W3C//DTD SVG 1.1//EN"
  "http://www.w3.org/Graphics/SVG/1.1/DTD/svg11.dtd">
<svg xmlns:xlink="http://www.w3.org/1999/xlink" width="327.275031pt" height="262.759125pt" viewBox="0 0 327.275031 262.759125" xmlns="http://www.w3.org/2000/svg" version="1.1">
 <metadata>
  <rdf:RDF xmlns:dc="http://purl.org/dc/elements/1.1/" xmlns:cc="http://creativecommons.org/ns#" xmlns:rdf="http://www.w3.org/1999/02/22-rdf-syntax-ns#">
   <cc:Work>
    <dc:type rdf:resource="http://purl.org/dc/dcmitype/StillImage"/>
    <dc:date>2023-06-01T20:03:07.094987</dc:date>
    <dc:format>image/svg+xml</dc:format>
    <dc:creator>
     <cc:Agent>
      <dc:title>Matplotlib v3.5.2, https://matplotlib.org/</dc:title>
     </cc:Agent>
    </dc:creator>
   </cc:Work>
  </rdf:RDF>
 </metadata>
 <defs>
  <style type="text/css">*{stroke-linejoin: round; stroke-linecap: butt}</style>
 </defs>
 <g id="figure_1">
  <g id="patch_1">
   <path d="M -0 262.759125 
L 327.275031 262.759125 
L 327.275031 0 
L -0 0 
z
" style="fill: #ffffff"/>
  </g>
  <g id="axes_1">
   <g id="patch_2">
    <path d="M 41.075031 214.539563 
L 320.075031 214.539563 
L 320.075031 48.219562 
L 41.075031 48.219562 
z
" style="fill: #ffffff"/>
   </g>
   <g id="matplotlib.axis_1">
    <g id="xtick_1">
     <g id="text_1">
      <!-- 1920 -->
      <g style="fill: #262626" transform="translate(41.009339 229.890359)scale(0.077 -0.077)">
       <defs>
        <path id="DejaVuSans-31" d="M 794 531 
L 1825 531 
L 1825 4091 
L 703 3866 
L 703 4441 
L 1819 4666 
L 2450 4666 
L 2450 531 
L 3481 531 
L 3481 0 
L 794 0 
L 794 531 
z
" transform="scale(0.015625)"/>
        <path id="DejaVuSans-39" d="M 703 97 
L 703 672 
Q 941 559 1184 500 
Q 1428 441 1663 441 
Q 2288 441 2617 861 
Q 2947 1281 2994 2138 
Q 2813 1869 2534 1725 
Q 2256 1581 1919 1581 
Q 1219 1581 811 2004 
Q 403 2428 403 3163 
Q 403 3881 828 4315 
Q 1253 4750 1959 4750 
Q 2769 4750 3195 4129 
Q 3622 3509 3622 2328 
Q 3622 1225 3098 567 
Q 2575 -91 1691 -91 
Q 1453 -91 1209 -44 
Q 966 3 703 97 
z
M 1959 2075 
Q 2384 2075 2632 2365 
Q 2881 2656 2881 3163 
Q 2881 3666 2632 3958 
Q 2384 4250 1959 4250 
Q 1534 4250 1286 3958 
Q 1038 3666 1038 3163 
Q 1038 2656 1286 2365 
Q 1534 2075 1959 2075 
z
" transform="scale(0.015625)"/>
        <path id="DejaVuSans-32" d="M 1228 531 
L 3431 531 
L 3431 0 
L 469 0 
L 469 531 
Q 828 903 1448 1529 
Q 2069 2156 2228 2338 
Q 2531 2678 2651 2914 
Q 2772 3150 2772 3378 
Q 2772 3750 2511 3984 
Q 2250 4219 1831 4219 
Q 1534 4219 1204 4116 
Q 875 4013 500 3803 
L 500 4441 
Q 881 4594 1212 4672 
Q 1544 4750 1819 4750 
Q 2544 4750 2975 4387 
Q 3406 4025 3406 3419 
Q 3406 3131 3298 2873 
Q 3191 2616 2906 2266 
Q 2828 2175 2409 1742 
Q 1991 1309 1228 531 
z
" transform="scale(0.015625)"/>
        <path id="DejaVuSans-30" d="M 2034 4250 
Q 1547 4250 1301 3770 
Q 1056 3291 1056 2328 
Q 1056 1369 1301 889 
Q 1547 409 2034 409 
Q 2525 409 2770 889 
Q 3016 1369 3016 2328 
Q 3016 3291 2770 3770 
Q 2525 4250 2034 4250 
z
M 2034 4750 
Q 2819 4750 3233 4129 
Q 3647 3509 3647 2328 
Q 3647 1150 3233 529 
Q 2819 -91 2034 -91 
Q 1250 -91 836 529 
Q 422 1150 422 2328 
Q 422 3509 836 4129 
Q 1250 4750 2034 4750 
z
" transform="scale(0.015625)"/>
       </defs>
       <use xlink:href="#DejaVuSans-31"/>
       <use xlink:href="#DejaVuSans-39" x="63.623047"/>
       <use xlink:href="#DejaVuSans-32" x="127.246094"/>
       <use xlink:href="#DejaVuSans-30" x="190.869141"/>
      </g>
     </g>
    </g>
    <g id="xtick_2">
     <g id="text_2">
      <!-- 1940 -->
      <g style="fill: #262626" transform="translate(99.99454 229.890359)scale(0.077 -0.077)">
       <defs>
        <path id="DejaVuSans-34" d="M 2419 4116 
L 825 1625 
L 2419 1625 
L 2419 4116 
z
M 2253 4666 
L 3047 4666 
L 3047 1625 
L 3713 1625 
L 3713 1100 
L 3047 1100 
L 3047 0 
L 2419 0 
L 2419 1100 
L 313 1100 
L 313 1709 
L 2253 4666 
z
" transform="scale(0.015625)"/>
       </defs>
       <use xlink:href="#DejaVuSans-31"/>
       <use xlink:href="#DejaVuSans-39" x="63.623047"/>
       <use xlink:href="#DejaVuSans-34" x="127.246094"/>
       <use xlink:href="#DejaVuSans-30" x="190.869141"/>
      </g>
     </g>
    </g>
    <g id="xtick_3">
     <g id="text_3">
      <!-- 1960 -->
      <g style="fill: #262626" transform="translate(158.979741 229.890359)scale(0.077 -0.077)">
       <defs>
        <path id="DejaVuSans-36" d="M 2113 2584 
Q 1688 2584 1439 2293 
Q 1191 2003 1191 1497 
Q 1191 994 1439 701 
Q 1688 409 2113 409 
Q 2538 409 2786 701 
Q 3034 994 3034 1497 
Q 3034 2003 2786 2293 
Q 2538 2584 2113 2584 
z
M 3366 4563 
L 3366 3988 
Q 3128 4100 2886 4159 
Q 2644 4219 2406 4219 
Q 1781 4219 1451 3797 
Q 1122 3375 1075 2522 
Q 1259 2794 1537 2939 
Q 1816 3084 2150 3084 
Q 2853 3084 3261 2657 
Q 3669 2231 3669 1497 
Q 3669 778 3244 343 
Q 2819 -91 2113 -91 
Q 1303 -91 875 529 
Q 447 1150 447 2328 
Q 447 3434 972 4092 
Q 1497 4750 2381 4750 
Q 2619 4750 2861 4703 
Q 3103 4656 3366 4563 
z
" transform="scale(0.015625)"/>
       </defs>
       <use xlink:href="#DejaVuSans-31"/>
       <use xlink:href="#DejaVuSans-39" x="63.623047"/>
       <use xlink:href="#DejaVuSans-36" x="127.246094"/>
       <use xlink:href="#DejaVuSans-30" x="190.869141"/>
      </g>
     </g>
    </g>
    <g id="xtick_4">
     <g id="text_4">
      <!-- 1980 -->
      <g style="fill: #262626" transform="translate(217.964942 229.890359)scale(0.077 -0.077)">
       <defs>
        <path id="DejaVuSans-38" d="M 2034 2216 
Q 1584 2216 1326 1975 
Q 1069 1734 1069 1313 
Q 1069 891 1326 650 
Q 1584 409 2034 409 
Q 2484 409 2743 651 
Q 3003 894 3003 1313 
Q 3003 1734 2745 1975 
Q 2488 2216 2034 2216 
z
M 1403 2484 
Q 997 2584 770 2862 
Q 544 3141 544 3541 
Q 544 4100 942 4425 
Q 1341 4750 2034 4750 
Q 2731 4750 3128 4425 
Q 3525 4100 3525 3541 
Q 3525 3141 3298 2862 
Q 3072 2584 2669 2484 
Q 3125 2378 3379 2068 
Q 3634 1759 3634 1313 
Q 3634 634 3220 271 
Q 2806 -91 2034 -91 
Q 1263 -91 848 271 
Q 434 634 434 1313 
Q 434 1759 690 2068 
Q 947 2378 1403 2484 
z
M 1172 3481 
Q 1172 3119 1398 2916 
Q 1625 2713 2034 2713 
Q 2441 2713 2670 2916 
Q 2900 3119 2900 3481 
Q 2900 3844 2670 4047 
Q 2441 4250 2034 4250 
Q 1625 4250 1398 4047 
Q 1172 3844 1172 3481 
z
" transform="scale(0.015625)"/>
       </defs>
       <use xlink:href="#DejaVuSans-31"/>
       <use xlink:href="#DejaVuSans-39" x="63.623047"/>
       <use xlink:href="#DejaVuSans-38" x="127.246094"/>
       <use xlink:href="#DejaVuSans-30" x="190.869141"/>
      </g>
     </g>
    </g>
    <g id="xtick_5">
     <g id="text_5">
      <!-- 2000 -->
      <g style="fill: #262626" transform="translate(276.950143 229.890359)scale(0.077 -0.077)">
       <use xlink:href="#DejaVuSans-32"/>
       <use xlink:href="#DejaVuSans-30" x="63.623047"/>
       <use xlink:href="#DejaVuSans-30" x="127.246094"/>
       <use xlink:href="#DejaVuSans-30" x="190.869141"/>
      </g>
     </g>
    </g>
    <g id="text_6">
     <!-- Year Cultured -->
     <g style="fill: #262626" transform="translate(152.394344 241.874406)scale(0.084 -0.084)">
      <defs>
       <path id="DejaVuSans-59" d="M -13 4666 
L 666 4666 
L 1959 2747 
L 3244 4666 
L 3922 4666 
L 2272 2222 
L 2272 0 
L 1638 0 
L 1638 2222 
L -13 4666 
z
" transform="scale(0.015625)"/>
       <path id="DejaVuSans-65" d="M 3597 1894 
L 3597 1613 
L 953 1613 
Q 991 1019 1311 708 
Q 1631 397 2203 397 
Q 2534 397 2845 478 
Q 3156 559 3463 722 
L 3463 178 
Q 3153 47 2828 -22 
Q 2503 -91 2169 -91 
Q 1331 -91 842 396 
Q 353 884 353 1716 
Q 353 2575 817 3079 
Q 1281 3584 2069 3584 
Q 2775 3584 3186 3129 
Q 3597 2675 3597 1894 
z
M 3022 2063 
Q 3016 2534 2758 2815 
Q 2500 3097 2075 3097 
Q 1594 3097 1305 2825 
Q 1016 2553 972 2059 
L 3022 2063 
z
" transform="scale(0.015625)"/>
       <path id="DejaVuSans-61" d="M 2194 1759 
Q 1497 1759 1228 1600 
Q 959 1441 959 1056 
Q 959 750 1161 570 
Q 1363 391 1709 391 
Q 2188 391 2477 730 
Q 2766 1069 2766 1631 
L 2766 1759 
L 2194 1759 
z
M 3341 1997 
L 3341 0 
L 2766 0 
L 2766 531 
Q 2569 213 2275 61 
Q 1981 -91 1556 -91 
Q 1019 -91 701 211 
Q 384 513 384 1019 
Q 384 1609 779 1909 
Q 1175 2209 1959 2209 
L 2766 2209 
L 2766 2266 
Q 2766 2663 2505 2880 
Q 2244 3097 1772 3097 
Q 1472 3097 1187 3025 
Q 903 2953 641 2809 
L 641 3341 
Q 956 3463 1253 3523 
Q 1550 3584 1831 3584 
Q 2591 3584 2966 3190 
Q 3341 2797 3341 1997 
z
" transform="scale(0.015625)"/>
       <path id="DejaVuSans-72" d="M 2631 2963 
Q 2534 3019 2420 3045 
Q 2306 3072 2169 3072 
Q 1681 3072 1420 2755 
Q 1159 2438 1159 1844 
L 1159 0 
L 581 0 
L 581 3500 
L 1159 3500 
L 1159 2956 
Q 1341 3275 1631 3429 
Q 1922 3584 2338 3584 
Q 2397 3584 2469 3576 
Q 2541 3569 2628 3553 
L 2631 2963 
z
" transform="scale(0.015625)"/>
       <path id="DejaVuSans-20" transform="scale(0.015625)"/>
       <path id="DejaVuSans-43" d="M 4122 4306 
L 4122 3641 
Q 3803 3938 3442 4084 
Q 3081 4231 2675 4231 
Q 1875 4231 1450 3742 
Q 1025 3253 1025 2328 
Q 1025 1406 1450 917 
Q 1875 428 2675 428 
Q 3081 428 3442 575 
Q 3803 722 4122 1019 
L 4122 359 
Q 3791 134 3420 21 
Q 3050 -91 2638 -91 
Q 1578 -91 968 557 
Q 359 1206 359 2328 
Q 359 3453 968 4101 
Q 1578 4750 2638 4750 
Q 3056 4750 3426 4639 
Q 3797 4528 4122 4306 
z
" transform="scale(0.015625)"/>
       <path id="DejaVuSans-75" d="M 544 1381 
L 544 3500 
L 1119 3500 
L 1119 1403 
Q 1119 906 1312 657 
Q 1506 409 1894 409 
Q 2359 409 2629 706 
Q 2900 1003 2900 1516 
L 2900 3500 
L 3475 3500 
L 3475 0 
L 2900 0 
L 2900 538 
Q 2691 219 2414 64 
Q 2138 -91 1772 -91 
Q 1169 -91 856 284 
Q 544 659 544 1381 
z
M 1991 3584 
L 1991 3584 
z
" transform="scale(0.015625)"/>
       <path id="DejaVuSans-6c" d="M 603 4863 
L 1178 4863 
L 1178 0 
L 603 0 
L 603 4863 
z
" transform="scale(0.015625)"/>
       <path id="DejaVuSans-74" d="M 1172 4494 
L 1172 3500 
L 2356 3500 
L 2356 3053 
L 1172 3053 
L 1172 1153 
Q 1172 725 1289 603 
Q 1406 481 1766 481 
L 2356 481 
L 2356 0 
L 1766 0 
Q 1100 0 847 248 
Q 594 497 594 1153 
L 594 3053 
L 172 3053 
L 172 3500 
L 594 3500 
L 594 4494 
L 1172 4494 
z
" transform="scale(0.015625)"/>
       <path id="DejaVuSans-64" d="M 2906 2969 
L 2906 4863 
L 3481 4863 
L 3481 0 
L 2906 0 
L 2906 525 
Q 2725 213 2448 61 
Q 2172 -91 1784 -91 
Q 1150 -91 751 415 
Q 353 922 353 1747 
Q 353 2572 751 3078 
Q 1150 3584 1784 3584 
Q 2172 3584 2448 3432 
Q 2725 3281 2906 2969 
z
M 947 1747 
Q 947 1113 1208 752 
Q 1469 391 1925 391 
Q 2381 391 2643 752 
Q 2906 1113 2906 1747 
Q 2906 2381 2643 2742 
Q 2381 3103 1925 3103 
Q 1469 3103 1208 2742 
Q 947 2381 947 1747 
z
" transform="scale(0.015625)"/>
      </defs>
      <use xlink:href="#DejaVuSans-59"/>
      <use xlink:href="#DejaVuSans-65" x="47.833984"/>
      <use xlink:href="#DejaVuSans-61" x="109.357422"/>
      <use xlink:href="#DejaVuSans-72" x="170.636719"/>
      <use xlink:href="#DejaVuSans-20" x="211.75"/>
      <use xlink:href="#DejaVuSans-43" x="243.537109"/>
      <use xlink:href="#DejaVuSans-75" x="313.361328"/>
      <use xlink:href="#DejaVuSans-6c" x="376.740234"/>
      <use xlink:href="#DejaVuSans-74" x="404.523438"/>
      <use xlink:href="#DejaVuSans-75" x="443.732422"/>
      <use xlink:href="#DejaVuSans-72" x="507.111328"/>
      <use xlink:href="#DejaVuSans-65" x="545.974609"/>
      <use xlink:href="#DejaVuSans-64" x="607.498047"/>
     </g>
    </g>
   </g>
   <g id="matplotlib.axis_2">
    <g id="ytick_1">
     <g id="text_7">
      <!-- 0.0 -->
      <g style="fill: #262626" transform="translate(19.329625 217.464961)scale(0.077 -0.077)">
       <defs>
        <path id="DejaVuSans-2e" d="M 684 794 
L 1344 794 
L 1344 0 
L 684 0 
L 684 794 
z
" transform="scale(0.015625)"/>
       </defs>
       <use xlink:href="#DejaVuSans-30"/>
       <use xlink:href="#DejaVuSans-2e" x="63.623047"/>
       <use xlink:href="#DejaVuSans-30" x="95.410156"/>
      </g>
     </g>
    </g>
    <g id="ytick_2">
     <g id="text_8">
      <!-- 0.2 -->
      <g style="fill: #262626" transform="translate(19.329625 184.200961)scale(0.077 -0.077)">
       <use xlink:href="#DejaVuSans-30"/>
       <use xlink:href="#DejaVuSans-2e" x="63.623047"/>
       <use xlink:href="#DejaVuSans-32" x="95.410156"/>
      </g>
     </g>
    </g>
    <g id="ytick_3">
     <g id="text_9">
      <!-- 0.4 -->
      <g style="fill: #262626" transform="translate(19.329625 150.936961)scale(0.077 -0.077)">
       <use xlink:href="#DejaVuSans-30"/>
       <use xlink:href="#DejaVuSans-2e" x="63.623047"/>
       <use xlink:href="#DejaVuSans-34" x="95.410156"/>
      </g>
     </g>
    </g>
    <g id="ytick_4">
     <g id="text_10">
      <!-- 0.6 -->
      <g style="fill: #262626" transform="translate(19.329625 117.672961)scale(0.077 -0.077)">
       <use xlink:href="#DejaVuSans-30"/>
       <use xlink:href="#DejaVuSans-2e" x="63.623047"/>
       <use xlink:href="#DejaVuSans-36" x="95.410156"/>
      </g>
     </g>
    </g>
    <g id="ytick_5">
     <g id="text_11">
      <!-- 0.8 -->
      <g style="fill: #262626" transform="translate(19.329625 84.408961)scale(0.077 -0.077)">
       <use xlink:href="#DejaVuSans-30"/>
       <use xlink:href="#DejaVuSans-2e" x="63.623047"/>
       <use xlink:href="#DejaVuSans-38" x="95.410156"/>
      </g>
     </g>
    </g>
    <g id="ytick_6">
     <g id="text_12">
      <!-- 1.0 -->
      <g style="fill: #262626" transform="translate(19.329625 51.144961)scale(0.077 -0.077)">
       <use xlink:href="#DejaVuSans-31"/>
       <use xlink:href="#DejaVuSans-2e" x="63.623047"/>
       <use xlink:href="#DejaVuSans-30" x="95.410156"/>
      </g>
     </g>
    </g>
    <g id="text_13">
     <!-- Fraction of isolates with ≥ 1 resistance-associated element -->
     <g style="fill: #262626" transform="translate(13.582688 255.559125)rotate(-90)scale(0.084 -0.084)">
      <defs>
       <path id="DejaVuSans-46" d="M 628 4666 
L 3309 4666 
L 3309 4134 
L 1259 4134 
L 1259 2759 
L 3109 2759 
L 3109 2228 
L 1259 2228 
L 1259 0 
L 628 0 
L 628 4666 
z
" transform="scale(0.015625)"/>
       <path id="DejaVuSans-63" d="M 3122 3366 
L 3122 2828 
Q 2878 2963 2633 3030 
Q 2388 3097 2138 3097 
Q 1578 3097 1268 2742 
Q 959 2388 959 1747 
Q 959 1106 1268 751 
Q 1578 397 2138 397 
Q 2388 397 2633 464 
Q 2878 531 3122 666 
L 3122 134 
Q 2881 22 2623 -34 
Q 2366 -91 2075 -91 
Q 1284 -91 818 406 
Q 353 903 353 1747 
Q 353 2603 823 3093 
Q 1294 3584 2113 3584 
Q 2378 3584 2631 3529 
Q 2884 3475 3122 3366 
z
" transform="scale(0.015625)"/>
       <path id="DejaVuSans-69" d="M 603 3500 
L 1178 3500 
L 1178 0 
L 603 0 
L 603 3500 
z
M 603 4863 
L 1178 4863 
L 1178 4134 
L 603 4134 
L 603 4863 
z
" transform="scale(0.015625)"/>
       <path id="DejaVuSans-6f" d="M 1959 3097 
Q 1497 3097 1228 2736 
Q 959 2375 959 1747 
Q 959 1119 1226 758 
Q 1494 397 1959 397 
Q 2419 397 2687 759 
Q 2956 1122 2956 1747 
Q 2956 2369 2687 2733 
Q 2419 3097 1959 3097 
z
M 1959 3584 
Q 2709 3584 3137 3096 
Q 3566 2609 3566 1747 
Q 3566 888 3137 398 
Q 2709 -91 1959 -91 
Q 1206 -91 779 398 
Q 353 888 353 1747 
Q 353 2609 779 3096 
Q 1206 3584 1959 3584 
z
" transform="scale(0.015625)"/>
       <path id="DejaVuSans-6e" d="M 3513 2113 
L 3513 0 
L 2938 0 
L 2938 2094 
Q 2938 2591 2744 2837 
Q 2550 3084 2163 3084 
Q 1697 3084 1428 2787 
Q 1159 2491 1159 1978 
L 1159 0 
L 581 0 
L 581 3500 
L 1159 3500 
L 1159 2956 
Q 1366 3272 1645 3428 
Q 1925 3584 2291 3584 
Q 2894 3584 3203 3211 
Q 3513 2838 3513 2113 
z
" transform="scale(0.015625)"/>
       <path id="DejaVuSans-66" d="M 2375 4863 
L 2375 4384 
L 1825 4384 
Q 1516 4384 1395 4259 
Q 1275 4134 1275 3809 
L 1275 3500 
L 2222 3500 
L 2222 3053 
L 1275 3053 
L 1275 0 
L 697 0 
L 697 3053 
L 147 3053 
L 147 3500 
L 697 3500 
L 697 3744 
Q 697 4328 969 4595 
Q 1241 4863 1831 4863 
L 2375 4863 
z
" transform="scale(0.015625)"/>
       <path id="DejaVuSans-73" d="M 2834 3397 
L 2834 2853 
Q 2591 2978 2328 3040 
Q 2066 3103 1784 3103 
Q 1356 3103 1142 2972 
Q 928 2841 928 2578 
Q 928 2378 1081 2264 
Q 1234 2150 1697 2047 
L 1894 2003 
Q 2506 1872 2764 1633 
Q 3022 1394 3022 966 
Q 3022 478 2636 193 
Q 2250 -91 1575 -91 
Q 1294 -91 989 -36 
Q 684 19 347 128 
L 347 722 
Q 666 556 975 473 
Q 1284 391 1588 391 
Q 1994 391 2212 530 
Q 2431 669 2431 922 
Q 2431 1156 2273 1281 
Q 2116 1406 1581 1522 
L 1381 1569 
Q 847 1681 609 1914 
Q 372 2147 372 2553 
Q 372 3047 722 3315 
Q 1072 3584 1716 3584 
Q 2034 3584 2315 3537 
Q 2597 3491 2834 3397 
z
" transform="scale(0.015625)"/>
       <path id="DejaVuSans-77" d="M 269 3500 
L 844 3500 
L 1563 769 
L 2278 3500 
L 2956 3500 
L 3675 769 
L 4391 3500 
L 4966 3500 
L 4050 0 
L 3372 0 
L 2619 2869 
L 1863 0 
L 1184 0 
L 269 3500 
z
" transform="scale(0.015625)"/>
       <path id="DejaVuSans-68" d="M 3513 2113 
L 3513 0 
L 2938 0 
L 2938 2094 
Q 2938 2591 2744 2837 
Q 2550 3084 2163 3084 
Q 1697 3084 1428 2787 
Q 1159 2491 1159 1978 
L 1159 0 
L 581 0 
L 581 4863 
L 1159 4863 
L 1159 2956 
Q 1366 3272 1645 3428 
Q 1925 3584 2291 3584 
Q 2894 3584 3203 3211 
Q 3513 2838 3513 2113 
z
" transform="scale(0.015625)"/>
       <path id="DejaVuSans-2265" d="M 678 3175 
L 678 3725 
L 4684 2578 
L 4684 2047 
L 678 897 
L 678 1453 
L 3681 2309 
L 678 3175 
z
M 4684 531 
L 4684 0 
L 678 0 
L 678 531 
L 4684 531 
z
" transform="scale(0.015625)"/>
       <path id="DejaVuSans-2d" d="M 313 2009 
L 1997 2009 
L 1997 1497 
L 313 1497 
L 313 2009 
z
" transform="scale(0.015625)"/>
       <path id="DejaVuSans-6d" d="M 3328 2828 
Q 3544 3216 3844 3400 
Q 4144 3584 4550 3584 
Q 5097 3584 5394 3201 
Q 5691 2819 5691 2113 
L 5691 0 
L 5113 0 
L 5113 2094 
Q 5113 2597 4934 2840 
Q 4756 3084 4391 3084 
Q 3944 3084 3684 2787 
Q 3425 2491 3425 1978 
L 3425 0 
L 2847 0 
L 2847 2094 
Q 2847 2600 2669 2842 
Q 2491 3084 2119 3084 
Q 1678 3084 1418 2786 
Q 1159 2488 1159 1978 
L 1159 0 
L 581 0 
L 581 3500 
L 1159 3500 
L 1159 2956 
Q 1356 3278 1631 3431 
Q 1906 3584 2284 3584 
Q 2666 3584 2933 3390 
Q 3200 3197 3328 2828 
z
" transform="scale(0.015625)"/>
      </defs>
      <use xlink:href="#DejaVuSans-46"/>
      <use xlink:href="#DejaVuSans-72" x="50.269531"/>
      <use xlink:href="#DejaVuSans-61" x="91.382812"/>
      <use xlink:href="#DejaVuSans-63" x="152.662109"/>
      <use xlink:href="#DejaVuSans-74" x="207.642578"/>
      <use xlink:href="#DejaVuSans-69" x="246.851562"/>
      <use xlink:href="#DejaVuSans-6f" x="274.634766"/>
      <use xlink:href="#DejaVuSans-6e" x="335.816406"/>
      <use xlink:href="#DejaVuSans-20" x="399.195312"/>
      <use xlink:href="#DejaVuSans-6f" x="430.982422"/>
      <use xlink:href="#DejaVuSans-66" x="492.164062"/>
      <use xlink:href="#DejaVuSans-20" x="527.369141"/>
      <use xlink:href="#DejaVuSans-69" x="559.15625"/>
      <use xlink:href="#DejaVuSans-73" x="586.939453"/>
      <use xlink:href="#DejaVuSans-6f" x="639.039062"/>
      <use xlink:href="#DejaVuSans-6c" x="700.220703"/>
      <use xlink:href="#DejaVuSans-61" x="728.003906"/>
      <use xlink:href="#DejaVuSans-74" x="789.283203"/>
      <use xlink:href="#DejaVuSans-65" x="828.492188"/>
      <use xlink:href="#DejaVuSans-73" x="890.015625"/>
      <use xlink:href="#DejaVuSans-20" x="942.115234"/>
      <use xlink:href="#DejaVuSans-77" x="973.902344"/>
      <use xlink:href="#DejaVuSans-69" x="1055.689453"/>
      <use xlink:href="#DejaVuSans-74" x="1083.472656"/>
      <use xlink:href="#DejaVuSans-68" x="1122.681641"/>
      <use xlink:href="#DejaVuSans-20" x="1186.060547"/>
      <use xlink:href="#DejaVuSans-2265" x="1217.847656"/>
      <use xlink:href="#DejaVuSans-20" x="1301.636719"/>
      <use xlink:href="#DejaVuSans-31" x="1333.423828"/>
      <use xlink:href="#DejaVuSans-20" x="1397.046875"/>
      <use xlink:href="#DejaVuSans-72" x="1428.833984"/>
      <use xlink:href="#DejaVuSans-65" x="1467.697266"/>
      <use xlink:href="#DejaVuSans-73" x="1529.220703"/>
      <use xlink:href="#DejaVuSans-69" x="1581.320312"/>
      <use xlink:href="#DejaVuSans-73" x="1609.103516"/>
      <use xlink:href="#DejaVuSans-74" x="1661.203125"/>
      <use xlink:href="#DejaVuSans-61" x="1700.412109"/>
      <use xlink:href="#DejaVuSans-6e" x="1761.691406"/>
      <use xlink:href="#DejaVuSans-63" x="1825.070312"/>
      <use xlink:href="#DejaVuSans-65" x="1880.050781"/>
      <use xlink:href="#DejaVuSans-2d" x="1941.574219"/>
      <use xlink:href="#DejaVuSans-61" x="1977.658203"/>
      <use xlink:href="#DejaVuSans-73" x="2038.9375"/>
      <use xlink:href="#DejaVuSans-73" x="2091.037109"/>
      <use xlink:href="#DejaVuSans-6f" x="2143.136719"/>
      <use xlink:href="#DejaVuSans-63" x="2204.318359"/>
      <use xlink:href="#DejaVuSans-69" x="2259.298828"/>
      <use xlink:href="#DejaVuSans-61" x="2287.082031"/>
      <use xlink:href="#DejaVuSans-74" x="2348.361328"/>
      <use xlink:href="#DejaVuSans-65" x="2387.570312"/>
      <use xlink:href="#DejaVuSans-64" x="2449.09375"/>
      <use xlink:href="#DejaVuSans-20" x="2512.570312"/>
      <use xlink:href="#DejaVuSans-65" x="2544.357422"/>
      <use xlink:href="#DejaVuSans-6c" x="2605.880859"/>
      <use xlink:href="#DejaVuSans-65" x="2633.664062"/>
      <use xlink:href="#DejaVuSans-6d" x="2695.1875"/>
      <use xlink:href="#DejaVuSans-65" x="2792.599609"/>
      <use xlink:href="#DejaVuSans-6e" x="2854.123047"/>
      <use xlink:href="#DejaVuSans-74" x="2917.501953"/>
     </g>
    </g>
   </g>
   <g id="PathCollection_1">
    <defs>
     <path id="C0_0_5f2098c32e" d="M 0 3 
C 0.795609 3 1.55874 2.683901 2.12132 2.12132 
C 2.683901 1.55874 3 0.795609 3 -0 
C 3 -0.795609 2.683901 -1.55874 2.12132 -2.12132 
C 1.55874 -2.683901 0.795609 -3 0 -3 
C -0.795609 -3 -1.55874 -2.683901 -2.12132 -2.12132 
C -2.683901 -1.55874 -3 -0.795609 -3 0 
C -3 0.795609 -2.683901 1.55874 -2.12132 2.12132 
C -1.55874 2.683901 -0.795609 3 0 3 
z
"/>
    </defs>
    <g clip-path="url(#p294916062a)">
     <use xlink:href="#C0_0_5f2098c32e" x="53.756849" y="214.539563" style="fill: #4c72b0"/>
    </g>
    <g clip-path="url(#p294916062a)">
     <use xlink:href="#C0_0_5f2098c32e" x="62.60463" y="214.539563" style="fill: #4c72b0"/>
    </g>
    <g clip-path="url(#p294916062a)">
     <use xlink:href="#C0_0_5f2098c32e" x="71.45241" y="214.539563" style="fill: #4c72b0"/>
    </g>
    <g clip-path="url(#p294916062a)">
     <use xlink:href="#C0_0_5f2098c32e" x="74.40167" y="214.539563" style="fill: #4c72b0"/>
    </g>
    <g clip-path="url(#p294916062a)">
     <use xlink:href="#C0_0_5f2098c32e" x="86.19871" y="214.539563" style="fill: #4c72b0"/>
    </g>
    <g clip-path="url(#p294916062a)">
     <use xlink:href="#C0_0_5f2098c32e" x="89.14797" y="214.539563" style="fill: #4c72b0"/>
    </g>
    <g clip-path="url(#p294916062a)">
     <use xlink:href="#C0_0_5f2098c32e" x="95.04649" y="214.539563" style="fill: #4c72b0"/>
    </g>
    <g clip-path="url(#p294916062a)">
     <use xlink:href="#C0_0_5f2098c32e" x="97.99575" y="214.539563" style="fill: #4c72b0"/>
    </g>
    <g clip-path="url(#p294916062a)">
     <use xlink:href="#C0_0_5f2098c32e" x="103.89427" y="214.539563" style="fill: #4c72b0"/>
    </g>
    <g clip-path="url(#p294916062a)">
     <use xlink:href="#C0_0_5f2098c32e" x="109.79279" y="214.539563" style="fill: #4c72b0"/>
    </g>
    <g clip-path="url(#p294916062a)">
     <use xlink:href="#C0_0_5f2098c32e" x="112.74205" y="214.539563" style="fill: #4c72b0"/>
    </g>
    <g clip-path="url(#p294916062a)">
     <use xlink:href="#C0_0_5f2098c32e" x="118.64057" y="214.539563" style="fill: #4c72b0"/>
    </g>
    <g clip-path="url(#p294916062a)">
     <use xlink:href="#C0_0_5f2098c32e" x="121.58983" y="214.539563" style="fill: #4c72b0"/>
    </g>
    <g clip-path="url(#p294916062a)">
     <use xlink:href="#C0_0_5f2098c32e" x="124.53909" y="214.539563" style="fill: #4c72b0"/>
    </g>
    <g clip-path="url(#p294916062a)">
     <use xlink:href="#C0_0_5f2098c32e" x="130.437611" y="214.539563" style="fill: #4c72b0"/>
    </g>
    <g clip-path="url(#p294916062a)">
     <use xlink:href="#C0_0_5f2098c32e" x="133.386871" y="214.539563" style="fill: #4c72b0"/>
    </g>
    <g clip-path="url(#p294916062a)">
     <use xlink:href="#C0_0_5f2098c32e" x="136.336131" y="214.539563" style="fill: #4c72b0"/>
    </g>
    <g clip-path="url(#p294916062a)">
     <use xlink:href="#C0_0_5f2098c32e" x="139.285391" y="214.539563" style="fill: #4c72b0"/>
    </g>
    <g clip-path="url(#p294916062a)">
     <use xlink:href="#C0_0_5f2098c32e" x="142.234651" y="210.274947" style="fill: #4c72b0"/>
    </g>
    <g clip-path="url(#p294916062a)">
     <use xlink:href="#C0_0_5f2098c32e" x="151.082431" y="209.174401" style="fill: #dd8452"/>
    </g>
    <g clip-path="url(#p294916062a)">
     <use xlink:href="#C0_0_5f2098c32e" x="154.031691" y="208.379563" style="fill: #dd8452"/>
    </g>
    <g clip-path="url(#p294916062a)">
     <use xlink:href="#C0_0_5f2098c32e" x="156.980951" y="207.886763" style="fill: #dd8452"/>
    </g>
    <g clip-path="url(#p294916062a)">
     <use xlink:href="#C0_0_5f2098c32e" x="162.879471" y="206.223563" style="fill: #dd8452"/>
    </g>
    <g clip-path="url(#p294916062a)">
     <use xlink:href="#C0_0_5f2098c32e" x="165.828731" y="206.979563" style="fill: #dd8452"/>
    </g>
    <g clip-path="url(#p294916062a)">
     <use xlink:href="#C0_0_5f2098c32e" x="168.777991" y="199.419563" style="fill: #dd8452"/>
    </g>
    <g clip-path="url(#p294916062a)">
     <use xlink:href="#C0_0_5f2098c32e" x="177.625771" y="181.275563" style="fill: #dd8452"/>
    </g>
    <g clip-path="url(#p294916062a)">
     <use xlink:href="#C0_0_5f2098c32e" x="180.575031" y="186.819563" style="fill: #dd8452"/>
    </g>
    <g clip-path="url(#p294916062a)">
     <use xlink:href="#C0_0_5f2098c32e" x="183.524291" y="176.158024" style="fill: #dd8452"/>
    </g>
    <g clip-path="url(#p294916062a)">
     <use xlink:href="#C0_0_5f2098c32e" x="192.372071" y="178.899563" style="fill: #dd8452"/>
    </g>
    <g clip-path="url(#p294916062a)">
     <use xlink:href="#C0_0_5f2098c32e" x="195.321331" y="176.158024" style="fill: #dd8452"/>
    </g>
    <g clip-path="url(#p294916062a)">
     <use xlink:href="#C0_0_5f2098c32e" x="198.270592" y="159.099562" style="fill: #dd8452"/>
    </g>
    <g clip-path="url(#p294916062a)">
     <use xlink:href="#C0_0_5f2098c32e" x="201.219852" y="154.059562" style="fill: #dd8452"/>
    </g>
    <g clip-path="url(#p294916062a)">
     <use xlink:href="#C0_0_5f2098c32e" x="210.067632" y="181.275563" style="fill: #dd8452"/>
    </g>
    <g clip-path="url(#p294916062a)">
     <use xlink:href="#C0_0_5f2098c32e" x="213.016892" y="167.019563" style="fill: #dd8452"/>
    </g>
    <g clip-path="url(#p294916062a)">
     <use xlink:href="#C0_0_5f2098c32e" x="218.915412" y="159.099562" style="fill: #dd8452"/>
    </g>
    <g clip-path="url(#p294916062a)">
     <use xlink:href="#C0_0_5f2098c32e" x="236.610972" y="140.619563" style="fill: #dd8452"/>
    </g>
    <g clip-path="url(#p294916062a)">
     <use xlink:href="#C0_0_5f2098c32e" x="242.509492" y="140.619563" style="fill: #dd8452"/>
    </g>
    <g clip-path="url(#p294916062a)">
     <use xlink:href="#C0_0_5f2098c32e" x="245.458752" y="140.619563" style="fill: #dd8452"/>
    </g>
    <g clip-path="url(#p294916062a)">
     <use xlink:href="#C0_0_5f2098c32e" x="251.357272" y="140.619563" style="fill: #dd8452"/>
    </g>
    <g clip-path="url(#p294916062a)">
     <use xlink:href="#C0_0_5f2098c32e" x="295.596173" y="159.099562" style="fill: #dd8452"/>
    </g>
    <g clip-path="url(#p294916062a)">
     <use xlink:href="#C0_0_5f2098c32e" x="301.494693" y="159.099562" style="fill: #dd8452"/>
    </g>
    <g clip-path="url(#p294916062a)">
     <use xlink:href="#C0_0_5f2098c32e" x="307.393213" y="159.099562" style="fill: #dd8452"/>
    </g>
   </g>
   <g id="PolyCollection_1">
    <defs>
     <path id="m6d76fe8078" d="M 53.756849 -165.907299 
L 53.756849 -49.617276 
L 62.60463 -49.059605 
L 71.45241 -48.919894 
L 74.40167 -48.745088 
L 86.19871 -48.601928 
L 89.14797 -48.441039 
L 95.04649 -48.441039 
L 97.99575 -48.402543 
L 103.89427 -48.402543 
L 109.79279 -48.394922 
L 112.74205 -48.419959 
L 118.64057 -48.359865 
L 121.58983 -48.38144 
L 124.53909 -48.369882 
L 130.437611 -48.359865 
L 133.386871 -48.359865 
L 136.336131 -48.324801 
L 139.285391 -48.324801 
L 142.234651 -49.236384 
L 142.234651 -70.104922 
L 142.234651 -70.104922 
L 139.285391 -62.871906 
L 136.336131 -62.871906 
L 133.386871 -67.463337 
L 130.437611 -67.463337 
L 124.53909 -68.749458 
L 121.58983 -70.219475 
L 118.64057 -67.463337 
L 112.74205 -75.013318 
L 109.79279 -71.915771 
L 103.89427 -72.865713 
L 97.99575 -72.865713 
L 95.04649 -77.569539 
L 89.14797 -77.569539 
L 86.19871 -95.606484 
L 74.40167 -109.660939 
L 71.45241 -124.603374 
L 62.60463 -135.009289 
L 53.756849 -165.907299 
z
" style="stroke: #4c72b0; stroke-opacity: 0.3"/>
    </defs>
    <g clip-path="url(#p294916062a)">
     <use xlink:href="#m6d76fe8078" x="0" y="262.759125" style="fill: #4c72b0; fill-opacity: 0.3; stroke: #4c72b0; stroke-opacity: 0.3"/>
    </g>
   </g>
   <g id="PolyCollection_2">
    <defs>
     <path id="mac39a645a8" d="M 151.082431 -75.191842 
L 151.082431 -49.493696 
L 154.031691 -49.678272 
L 156.980951 -49.792183 
L 162.879471 -50.173709 
L 165.828731 -50.000844 
L 168.777991 -51.689418 
L 177.625771 -58.234976 
L 180.575031 -56.598943 
L 183.524291 -62.172034 
L 192.372071 -61.171158 
L 195.321331 -62.172034 
L 198.270592 -71.268078 
L 201.219852 -73.442361 
L 210.067632 -58.234976 
L 213.016892 -62.395584 
L 218.915412 -59.460464 
L 236.610972 -79.335711 
L 242.509492 -79.335711 
L 245.458752 -79.335711 
L 251.357272 -79.335711 
L 295.596173 -64.683293 
L 301.494693 -64.683293 
L 307.393213 -64.683293 
L 307.393213 -166.236764 
L 307.393213 -166.236764 
L 301.494693 -166.236764 
L 295.596173 -166.236764 
L 251.357272 -170.900841 
L 245.458752 -170.900841 
L 242.509492 -170.900841 
L 236.610972 -170.900841 
L 218.915412 -182.253449 
L 213.016892 -156.469898 
L 210.067632 -134.332716 
L 201.219852 -156.514588 
L 198.270592 -150.383562 
L 195.321331 -132.706077 
L 192.372071 -128.201376 
L 183.524291 -132.706077 
L 180.575031 -123.807188 
L 177.625771 -134.332716 
L 168.777991 -112.218861 
L 165.828731 -84.724575 
L 162.879471 -87.830319 
L 156.980951 -80.879762 
L 154.031691 -78.735557 
L 151.082431 -75.191842 
z
" style="stroke: #dd8452; stroke-opacity: 0.3"/>
    </defs>
    <g clip-path="url(#p294916062a)">
     <use xlink:href="#mac39a645a8" x="0" y="262.759125" style="fill: #dd8452; fill-opacity: 0.3; stroke: #dd8452; stroke-opacity: 0.3"/>
    </g>
   </g>
   <g id="line2d_1">
    <path d="M 53.756849 214.539563 
L 62.60463 214.539563 
L 71.45241 214.539563 
L 74.40167 214.539563 
L 86.19871 214.539563 
L 89.14797 214.539563 
L 95.04649 214.539563 
L 97.99575 214.539563 
L 103.89427 214.539563 
L 109.79279 214.539563 
L 112.74205 214.539563 
L 118.64057 214.539563 
L 121.58983 214.539563 
L 124.53909 214.539563 
L 130.437611 214.539563 
L 133.386871 214.539563 
L 136.336131 214.539563 
L 139.285391 214.539563 
L 142.234651 210.274947 
" clip-path="url(#p294916062a)" style="fill: none; stroke: #4c72b0; stroke-width: 1.5; stroke-linecap: round"/>
   </g>
   <g id="line2d_2">
    <path d="M 151.082431 209.174401 
L 154.031691 208.379563 
L 156.980951 207.886763 
L 162.879471 206.223563 
L 165.828731 206.979563 
L 168.777991 199.419563 
L 177.625771 181.275563 
L 180.575031 186.819563 
L 183.524291 176.158024 
L 192.372071 178.899563 
L 195.321331 176.158024 
L 198.270592 159.099563 
L 201.219852 154.059562 
L 210.067632 181.275563 
L 213.016892 167.019563 
L 218.915412 159.099563 
L 236.610972 140.619563 
L 242.509492 140.619563 
L 245.458752 140.619563 
L 251.357272 140.619563 
L 295.596173 159.099563 
L 301.494693 159.099563 
L 307.393213 159.099563 
" clip-path="url(#p294916062a)" style="fill: none; stroke: #dd8452; stroke-width: 1.5; stroke-linecap: round"/>
   </g>
   <g id="line2d_3"/>
   <g id="line2d_4"/>
   <g id="line2d_5">
    <path d="M 145.183911 214.539563 
L 145.183911 48.219562 
" clip-path="url(#p294916062a)" style="fill: none; stroke: #ff0000; stroke-width: 1.5; stroke-linecap: round"/>
   </g>
   <g id="line2d_6">
    <path d="M 145.183911 214.539563 
L 145.183911 48.219562 
" clip-path="url(#p294916062a)" style="fill: none; stroke: #ff0000; stroke-width: 1.5; stroke-linecap: round"/>
   </g>
   <g id="LineCollection_1">
    <path d="M 53.756849 214.315109 
L 142.234651 214.315109 
" clip-path="url(#p294916062a)" style="fill: none; stroke: #4c72b0; stroke-width: 1.5"/>
   </g>
   <g id="LineCollection_2">
    <path d="M 151.082431 173.813256 
L 307.393213 173.813256 
" clip-path="url(#p294916062a)" style="fill: none; stroke: #dd8452; stroke-width: 1.5"/>
   </g>
   <g id="patch_3">
    <path d="M 41.075031 214.539563 
L 41.075031 48.219562 
" style="fill: none; stroke: #262626; stroke-width: 1.25; stroke-linejoin: miter; stroke-linecap: square"/>
   </g>
   <g id="patch_4">
    <path d="M 41.075031 214.539563 
L 320.075031 214.539563 
" style="fill: none; stroke: #262626; stroke-width: 1.25; stroke-linejoin: miter; stroke-linecap: square"/>
   </g>
   <g id="text_14">
    <!-- Introduced clinically in 1952 -->
    <g style="fill: #262626" transform="translate(138.703649 166.098761)rotate(-90)scale(0.069972 -0.069972)">
     <defs>
      <path id="DejaVuSans-49" d="M 628 4666 
L 1259 4666 
L 1259 0 
L 628 0 
L 628 4666 
z
" transform="scale(0.015625)"/>
      <path id="DejaVuSans-79" d="M 2059 -325 
Q 1816 -950 1584 -1140 
Q 1353 -1331 966 -1331 
L 506 -1331 
L 506 -850 
L 844 -850 
Q 1081 -850 1212 -737 
Q 1344 -625 1503 -206 
L 1606 56 
L 191 3500 
L 800 3500 
L 1894 763 
L 2988 3500 
L 3597 3500 
L 2059 -325 
z
" transform="scale(0.015625)"/>
      <path id="DejaVuSans-35" d="M 691 4666 
L 3169 4666 
L 3169 4134 
L 1269 4134 
L 1269 2991 
Q 1406 3038 1543 3061 
Q 1681 3084 1819 3084 
Q 2600 3084 3056 2656 
Q 3513 2228 3513 1497 
Q 3513 744 3044 326 
Q 2575 -91 1722 -91 
Q 1428 -91 1123 -41 
Q 819 9 494 109 
L 494 744 
Q 775 591 1075 516 
Q 1375 441 1709 441 
Q 2250 441 2565 725 
Q 2881 1009 2881 1497 
Q 2881 1984 2565 2268 
Q 2250 2553 1709 2553 
Q 1456 2553 1204 2497 
Q 953 2441 691 2322 
L 691 4666 
z
" transform="scale(0.015625)"/>
     </defs>
     <use xlink:href="#DejaVuSans-49"/>
     <use xlink:href="#DejaVuSans-6e" x="29.492188"/>
     <use xlink:href="#DejaVuSans-74" x="92.871094"/>
     <use xlink:href="#DejaVuSans-72" x="132.080078"/>
     <use xlink:href="#DejaVuSans-6f" x="170.943359"/>
     <use xlink:href="#DejaVuSans-64" x="232.125"/>
     <use xlink:href="#DejaVuSans-75" x="295.601562"/>
     <use xlink:href="#DejaVuSans-63" x="358.980469"/>
     <use xlink:href="#DejaVuSans-65" x="413.960938"/>
     <use xlink:href="#DejaVuSans-64" x="475.484375"/>
     <use xlink:href="#DejaVuSans-20" x="538.960938"/>
     <use xlink:href="#DejaVuSans-63" x="570.748047"/>
     <use xlink:href="#DejaVuSans-6c" x="625.728516"/>
     <use xlink:href="#DejaVuSans-69" x="653.511719"/>
     <use xlink:href="#DejaVuSans-6e" x="681.294922"/>
     <use xlink:href="#DejaVuSans-69" x="744.673828"/>
     <use xlink:href="#DejaVuSans-63" x="772.457031"/>
     <use xlink:href="#DejaVuSans-61" x="827.4375"/>
     <use xlink:href="#DejaVuSans-6c" x="888.716797"/>
     <use xlink:href="#DejaVuSans-6c" x="916.5"/>
     <use xlink:href="#DejaVuSans-79" x="944.283203"/>
     <use xlink:href="#DejaVuSans-20" x="1003.462891"/>
     <use xlink:href="#DejaVuSans-69" x="1035.25"/>
     <use xlink:href="#DejaVuSans-6e" x="1063.033203"/>
     <use xlink:href="#DejaVuSans-20" x="1126.412109"/>
     <use xlink:href="#DejaVuSans-31" x="1158.199219"/>
     <use xlink:href="#DejaVuSans-39" x="1221.822266"/>
     <use xlink:href="#DejaVuSans-35" x="1285.445312"/>
     <use xlink:href="#DejaVuSans-32" x="1349.068359"/>
    </g>
   </g>
   <g id="legend_1">
    <g id="patch_5">
     <path d="M 244.539234 76.983875 
L 314.685031 76.983875 
Q 316.225031 76.983875 316.225031 75.443875 
L 316.225031 53.609563 
Q 316.225031 52.069563 314.685031 52.069563 
L 244.539234 52.069563 
Q 242.999234 52.069563 242.999234 53.609563 
L 242.999234 75.443875 
Q 242.999234 76.983875 244.539234 76.983875 
z
" style="fill: #ffffff; opacity: 0.8; stroke: #cccccc; stroke-linejoin: miter"/>
    </g>
    <g id="line2d_7">
     <path d="M 246.079234 58.305359 
L 253.779234 58.305359 
L 261.479234 58.305359 
" style="fill: none; stroke: #4c72b0; stroke-width: 1.5; stroke-linecap: round"/>
    </g>
    <g id="text_15">
     <!-- Pre-clinical -->
     <g style="fill: #262626" transform="translate(267.639234 61.000359)scale(0.077 -0.077)">
      <defs>
       <path id="DejaVuSans-50" d="M 1259 4147 
L 1259 2394 
L 2053 2394 
Q 2494 2394 2734 2622 
Q 2975 2850 2975 3272 
Q 2975 3691 2734 3919 
Q 2494 4147 2053 4147 
L 1259 4147 
z
M 628 4666 
L 2053 4666 
Q 2838 4666 3239 4311 
Q 3641 3956 3641 3272 
Q 3641 2581 3239 2228 
Q 2838 1875 2053 1875 
L 1259 1875 
L 1259 0 
L 628 0 
L 628 4666 
z
" transform="scale(0.015625)"/>
      </defs>
      <use xlink:href="#DejaVuSans-50"/>
      <use xlink:href="#DejaVuSans-72" x="58.552734"/>
      <use xlink:href="#DejaVuSans-65" x="97.416016"/>
      <use xlink:href="#DejaVuSans-2d" x="158.939453"/>
      <use xlink:href="#DejaVuSans-63" x="195.023438"/>
      <use xlink:href="#DejaVuSans-6c" x="250.003906"/>
      <use xlink:href="#DejaVuSans-69" x="277.787109"/>
      <use xlink:href="#DejaVuSans-6e" x="305.570312"/>
      <use xlink:href="#DejaVuSans-69" x="368.949219"/>
      <use xlink:href="#DejaVuSans-63" x="396.732422"/>
      <use xlink:href="#DejaVuSans-61" x="451.712891"/>
      <use xlink:href="#DejaVuSans-6c" x="512.992188"/>
     </g>
    </g>
    <g id="line2d_8">
     <path d="M 246.079234 69.607516 
L 253.779234 69.607516 
L 261.479234 69.607516 
" style="fill: none; stroke: #dd8452; stroke-width: 1.5; stroke-linecap: round"/>
    </g>
    <g id="text_16">
     <!-- Post-clinical -->
     <g style="fill: #262626" transform="translate(267.639234 72.302516)scale(0.077 -0.077)">
      <use xlink:href="#DejaVuSans-50"/>
      <use xlink:href="#DejaVuSans-6f" x="56.677734"/>
      <use xlink:href="#DejaVuSans-73" x="117.859375"/>
      <use xlink:href="#DejaVuSans-74" x="169.958984"/>
      <use xlink:href="#DejaVuSans-2d" x="209.167969"/>
      <use xlink:href="#DejaVuSans-63" x="245.251953"/>
      <use xlink:href="#DejaVuSans-6c" x="300.232422"/>
      <use xlink:href="#DejaVuSans-69" x="328.015625"/>
      <use xlink:href="#DejaVuSans-6e" x="355.798828"/>
      <use xlink:href="#DejaVuSans-69" x="419.177734"/>
      <use xlink:href="#DejaVuSans-63" x="446.960938"/>
      <use xlink:href="#DejaVuSans-61" x="501.941406"/>
      <use xlink:href="#DejaVuSans-6c" x="563.220703"/>
     </g>
    </g>
   </g>
  </g>
 </g>
 <defs>
  <clipPath id="p294916062a">
   <rect x="41.075031" y="48.219562" width="279" height="166.32"/>
  </clipPath>
 </defs>
</svg>
