<?xml version="1.0" encoding="utf-8" standalone="no"?>
<!DOCTYPE svg PUBLIC "-//W3C//DTD SVG 1.1//EN"
  "http://www.w3.org/Graphics/SVG/1.1/DTD/svg11.dtd">
<svg xmlns:xlink="http://www.w3.org/1999/xlink" width="341.664821pt" height="209.48718pt" viewBox="0 0 341.664821 209.48718" xmlns="http://www.w3.org/2000/svg" version="1.1">
 <metadata>
  <rdf:RDF xmlns:dc="http://purl.org/dc/elements/1.1/" xmlns:cc="http://creativecommons.org/ns#" xmlns:rdf="http://www.w3.org/1999/02/22-rdf-syntax-ns#">
   <cc:Work>
    <dc:type rdf:resource="http://purl.org/dc/dcmitype/StillImage"/>
    <dc:date>2024-11-04T17:17:49.725553</dc:date>
    <dc:format>image/svg+xml</dc:format>
    <dc:creator>
     <cc:Agent>
      <dc:title>Matplotlib v3.5.2, https://matplotlib.org/</dc:title>
     </cc:Agent>
    </dc:creator>
   </cc:Work>
  </rdf:RDF>
 </metadata>
 <defs>
  <style type="text/css">*{stroke-linejoin: round; stroke-linecap: butt}</style>
 </defs>
 <g id="figure_1">
  <g id="patch_1">
   <path d="M 0 209.48718 
L 341.664821 209.48718 
L 341.664821 0 
L 0 0 
z
" style="fill: #ffffff"/>
  </g>
  <g id="axes_1">
   <g id="patch_2">
    <path d="M 50.544194 173.205398 
L 329.544194 173.205398 
L 329.544194 10.125398 
L 50.544194 10.125398 
z
" style="fill: #ffffff"/>
   </g>
   <g id="matplotlib.axis_1">
    <g id="xtick_1">
     <g id="text_1">
      <!-- 1880 -->
      <g style="fill: #262626" transform="translate(41.721468 188.556195)scale(0.077 -0.077)">
       <defs>
        <path id="DejaVuSans-31" d="M 794 531 
L 1825 531 
L 1825 4091 
L 703 3866 
L 703 4441 
L 1819 4666 
L 2450 4666 
L 2450 531 
L 3481 531 
L 3481 0 
L 794 0 
L 794 531 
z
" transform="scale(0.015625)"/>
        <path id="DejaVuSans-38" d="M 2034 2216 
Q 1584 2216 1326 1975 
Q 1069 1734 1069 1313 
Q 1069 891 1326 650 
Q 1584 409 2034 409 
Q 2484 409 2743 651 
Q 3003 894 3003 1313 
Q 3003 1734 2745 1975 
Q 2488 2216 2034 2216 
z
M 1403 2484 
Q 997 2584 770 2862 
Q 544 3141 544 3541 
Q 544 4100 942 4425 
Q 1341 4750 2034 4750 
Q 2731 4750 3128 4425 
Q 3525 4100 3525 3541 
Q 3525 3141 3298 2862 
Q 3072 2584 2669 2484 
Q 3125 2378 3379 2068 
Q 3634 1759 3634 1313 
Q 3634 634 3220 271 
Q 2806 -91 2034 -91 
Q 1263 -91 848 271 
Q 434 634 434 1313 
Q 434 1759 690 2068 
Q 947 2378 1403 2484 
z
M 1172 3481 
Q 1172 3119 1398 2916 
Q 1625 2713 2034 2713 
Q 2441 2713 2670 2916 
Q 2900 3119 2900 3481 
Q 2900 3844 2670 4047 
Q 2441 4250 2034 4250 
Q 1625 4250 1398 4047 
Q 1172 3844 1172 3481 
z
" transform="scale(0.015625)"/>
        <path id="DejaVuSans-30" d="M 2034 4250 
Q 1547 4250 1301 3770 
Q 1056 3291 1056 2328 
Q 1056 1369 1301 889 
Q 1547 409 2034 409 
Q 2525 409 2770 889 
Q 3016 1369 3016 2328 
Q 3016 3291 2770 3770 
Q 2525 4250 2034 4250 
z
M 2034 4750 
Q 2819 4750 3233 4129 
Q 3647 3509 3647 2328 
Q 3647 1150 3233 529 
Q 2819 -91 2034 -91 
Q 1250 -91 836 529 
Q 422 1150 422 2328 
Q 422 3509 836 4129 
Q 1250 4750 2034 4750 
z
" transform="scale(0.015625)"/>
       </defs>
       <use xlink:href="#DejaVuSans-31"/>
       <use xlink:href="#DejaVuSans-38" x="63.623047"/>
       <use xlink:href="#DejaVuSans-38" x="127.246094"/>
       <use xlink:href="#DejaVuSans-30" x="190.869141"/>
      </g>
     </g>
    </g>
    <g id="xtick_2">
     <g id="text_2">
      <!-- 1900 -->
      <g style="fill: #262626" transform="translate(80.742447 188.556195)scale(0.077 -0.077)">
       <defs>
        <path id="DejaVuSans-39" d="M 703 97 
L 703 672 
Q 941 559 1184 500 
Q 1428 441 1663 441 
Q 2288 441 2617 861 
Q 2947 1281 2994 2138 
Q 2813 1869 2534 1725 
Q 2256 1581 1919 1581 
Q 1219 1581 811 2004 
Q 403 2428 403 3163 
Q 403 3881 828 4315 
Q 1253 4750 1959 4750 
Q 2769 4750 3195 4129 
Q 3622 3509 3622 2328 
Q 3622 1225 3098 567 
Q 2575 -91 1691 -91 
Q 1453 -91 1209 -44 
Q 966 3 703 97 
z
M 1959 2075 
Q 2384 2075 2632 2365 
Q 2881 2656 2881 3163 
Q 2881 3666 2632 3958 
Q 2384 4250 1959 4250 
Q 1534 4250 1286 3958 
Q 1038 3666 1038 3163 
Q 1038 2656 1286 2365 
Q 1534 2075 1959 2075 
z
" transform="scale(0.015625)"/>
       </defs>
       <use xlink:href="#DejaVuSans-31"/>
       <use xlink:href="#DejaVuSans-39" x="63.623047"/>
       <use xlink:href="#DejaVuSans-30" x="127.246094"/>
       <use xlink:href="#DejaVuSans-30" x="190.869141"/>
      </g>
     </g>
    </g>
    <g id="xtick_3">
     <g id="text_3">
      <!-- 1920 -->
      <g style="fill: #262626" transform="translate(119.763426 188.556195)scale(0.077 -0.077)">
       <defs>
        <path id="DejaVuSans-32" d="M 1228 531 
L 3431 531 
L 3431 0 
L 469 0 
L 469 531 
Q 828 903 1448 1529 
Q 2069 2156 2228 2338 
Q 2531 2678 2651 2914 
Q 2772 3150 2772 3378 
Q 2772 3750 2511 3984 
Q 2250 4219 1831 4219 
Q 1534 4219 1204 4116 
Q 875 4013 500 3803 
L 500 4441 
Q 881 4594 1212 4672 
Q 1544 4750 1819 4750 
Q 2544 4750 2975 4387 
Q 3406 4025 3406 3419 
Q 3406 3131 3298 2873 
Q 3191 2616 2906 2266 
Q 2828 2175 2409 1742 
Q 1991 1309 1228 531 
z
" transform="scale(0.015625)"/>
       </defs>
       <use xlink:href="#DejaVuSans-31"/>
       <use xlink:href="#DejaVuSans-39" x="63.623047"/>
       <use xlink:href="#DejaVuSans-32" x="127.246094"/>
       <use xlink:href="#DejaVuSans-30" x="190.869141"/>
      </g>
     </g>
    </g>
    <g id="xtick_4">
     <g id="text_4">
      <!-- 1940 -->
      <g style="fill: #262626" transform="translate(158.784405 188.556195)scale(0.077 -0.077)">
       <defs>
        <path id="DejaVuSans-34" d="M 2419 4116 
L 825 1625 
L 2419 1625 
L 2419 4116 
z
M 2253 4666 
L 3047 4666 
L 3047 1625 
L 3713 1625 
L 3713 1100 
L 3047 1100 
L 3047 0 
L 2419 0 
L 2419 1100 
L 313 1100 
L 313 1709 
L 2253 4666 
z
" transform="scale(0.015625)"/>
       </defs>
       <use xlink:href="#DejaVuSans-31"/>
       <use xlink:href="#DejaVuSans-39" x="63.623047"/>
       <use xlink:href="#DejaVuSans-34" x="127.246094"/>
       <use xlink:href="#DejaVuSans-30" x="190.869141"/>
      </g>
     </g>
    </g>
    <g id="xtick_5">
     <g id="text_5">
      <!-- 1960 -->
      <g style="fill: #262626" transform="translate(197.805384 188.556195)scale(0.077 -0.077)">
       <defs>
        <path id="DejaVuSans-36" d="M 2113 2584 
Q 1688 2584 1439 2293 
Q 1191 2003 1191 1497 
Q 1191 994 1439 701 
Q 1688 409 2113 409 
Q 2538 409 2786 701 
Q 3034 994 3034 1497 
Q 3034 2003 2786 2293 
Q 2538 2584 2113 2584 
z
M 3366 4563 
L 3366 3988 
Q 3128 4100 2886 4159 
Q 2644 4219 2406 4219 
Q 1781 4219 1451 3797 
Q 1122 3375 1075 2522 
Q 1259 2794 1537 2939 
Q 1816 3084 2150 3084 
Q 2853 3084 3261 2657 
Q 3669 2231 3669 1497 
Q 3669 778 3244 343 
Q 2819 -91 2113 -91 
Q 1303 -91 875 529 
Q 447 1150 447 2328 
Q 447 3434 972 4092 
Q 1497 4750 2381 4750 
Q 2619 4750 2861 4703 
Q 3103 4656 3366 4563 
z
" transform="scale(0.015625)"/>
       </defs>
       <use xlink:href="#DejaVuSans-31"/>
       <use xlink:href="#DejaVuSans-39" x="63.623047"/>
       <use xlink:href="#DejaVuSans-36" x="127.246094"/>
       <use xlink:href="#DejaVuSans-30" x="190.869141"/>
      </g>
     </g>
    </g>
    <g id="xtick_6">
     <g id="text_6">
      <!-- 1980 -->
      <g style="fill: #262626" transform="translate(236.826363 188.556195)scale(0.077 -0.077)">
       <use xlink:href="#DejaVuSans-31"/>
       <use xlink:href="#DejaVuSans-39" x="63.623047"/>
       <use xlink:href="#DejaVuSans-38" x="127.246094"/>
       <use xlink:href="#DejaVuSans-30" x="190.869141"/>
      </g>
     </g>
    </g>
    <g id="xtick_7">
     <g id="text_7">
      <!-- 2000 -->
      <g style="fill: #262626" transform="translate(275.847342 188.556195)scale(0.077 -0.077)">
       <use xlink:href="#DejaVuSans-32"/>
       <use xlink:href="#DejaVuSans-30" x="63.623047"/>
       <use xlink:href="#DejaVuSans-30" x="127.246094"/>
       <use xlink:href="#DejaVuSans-30" x="190.869141"/>
      </g>
     </g>
    </g>
    <g id="xtick_8">
     <g id="text_8">
      <!-- 2020 -->
      <g style="fill: #262626" transform="translate(314.868321 188.556195)scale(0.077 -0.077)">
       <use xlink:href="#DejaVuSans-32"/>
       <use xlink:href="#DejaVuSans-30" x="63.623047"/>
       <use xlink:href="#DejaVuSans-32" x="127.246094"/>
       <use xlink:href="#DejaVuSans-30" x="190.869141"/>
      </g>
     </g>
    </g>
    <g id="text_9">
     <!-- Year Cultured -->
     <g style="fill: #262626" transform="translate(161.863506 200.540242)scale(0.084 -0.084)">
      <defs>
       <path id="DejaVuSans-59" d="M -13 4666 
L 666 4666 
L 1959 2747 
L 3244 4666 
L 3922 4666 
L 2272 2222 
L 2272 0 
L 1638 0 
L 1638 2222 
L -13 4666 
z
" transform="scale(0.015625)"/>
       <path id="DejaVuSans-65" d="M 3597 1894 
L 3597 1613 
L 953 1613 
Q 991 1019 1311 708 
Q 1631 397 2203 397 
Q 2534 397 2845 478 
Q 3156 559 3463 722 
L 3463 178 
Q 3153 47 2828 -22 
Q 2503 -91 2169 -91 
Q 1331 -91 842 396 
Q 353 884 353 1716 
Q 353 2575 817 3079 
Q 1281 3584 2069 3584 
Q 2775 3584 3186 3129 
Q 3597 2675 3597 1894 
z
M 3022 2063 
Q 3016 2534 2758 2815 
Q 2500 3097 2075 3097 
Q 1594 3097 1305 2825 
Q 1016 2553 972 2059 
L 3022 2063 
z
" transform="scale(0.015625)"/>
       <path id="DejaVuSans-61" d="M 2194 1759 
Q 1497 1759 1228 1600 
Q 959 1441 959 1056 
Q 959 750 1161 570 
Q 1363 391 1709 391 
Q 2188 391 2477 730 
Q 2766 1069 2766 1631 
L 2766 1759 
L 2194 1759 
z
M 3341 1997 
L 3341 0 
L 2766 0 
L 2766 531 
Q 2569 213 2275 61 
Q 1981 -91 1556 -91 
Q 1019 -91 701 211 
Q 384 513 384 1019 
Q 384 1609 779 1909 
Q 1175 2209 1959 2209 
L 2766 2209 
L 2766 2266 
Q 2766 2663 2505 2880 
Q 2244 3097 1772 3097 
Q 1472 3097 1187 3025 
Q 903 2953 641 2809 
L 641 3341 
Q 956 3463 1253 3523 
Q 1550 3584 1831 3584 
Q 2591 3584 2966 3190 
Q 3341 2797 3341 1997 
z
" transform="scale(0.015625)"/>
       <path id="DejaVuSans-72" d="M 2631 2963 
Q 2534 3019 2420 3045 
Q 2306 3072 2169 3072 
Q 1681 3072 1420 2755 
Q 1159 2438 1159 1844 
L 1159 0 
L 581 0 
L 581 3500 
L 1159 3500 
L 1159 2956 
Q 1341 3275 1631 3429 
Q 1922 3584 2338 3584 
Q 2397 3584 2469 3576 
Q 2541 3569 2628 3553 
L 2631 2963 
z
" transform="scale(0.015625)"/>
       <path id="DejaVuSans-20" transform="scale(0.015625)"/>
       <path id="DejaVuSans-43" d="M 4122 4306 
L 4122 3641 
Q 3803 3938 3442 4084 
Q 3081 4231 2675 4231 
Q 1875 4231 1450 3742 
Q 1025 3253 1025 2328 
Q 1025 1406 1450 917 
Q 1875 428 2675 428 
Q 3081 428 3442 575 
Q 3803 722 4122 1019 
L 4122 359 
Q 3791 134 3420 21 
Q 3050 -91 2638 -91 
Q 1578 -91 968 557 
Q 359 1206 359 2328 
Q 359 3453 968 4101 
Q 1578 4750 2638 4750 
Q 3056 4750 3426 4639 
Q 3797 4528 4122 4306 
z
" transform="scale(0.015625)"/>
       <path id="DejaVuSans-75" d="M 544 1381 
L 544 3500 
L 1119 3500 
L 1119 1403 
Q 1119 906 1312 657 
Q 1506 409 1894 409 
Q 2359 409 2629 706 
Q 2900 1003 2900 1516 
L 2900 3500 
L 3475 3500 
L 3475 0 
L 2900 0 
L 2900 538 
Q 2691 219 2414 64 
Q 2138 -91 1772 -91 
Q 1169 -91 856 284 
Q 544 659 544 1381 
z
M 1991 3584 
L 1991 3584 
z
" transform="scale(0.015625)"/>
       <path id="DejaVuSans-6c" d="M 603 4863 
L 1178 4863 
L 1178 0 
L 603 0 
L 603 4863 
z
" transform="scale(0.015625)"/>
       <path id="DejaVuSans-74" d="M 1172 4494 
L 1172 3500 
L 2356 3500 
L 2356 3053 
L 1172 3053 
L 1172 1153 
Q 1172 725 1289 603 
Q 1406 481 1766 481 
L 2356 481 
L 2356 0 
L 1766 0 
Q 1100 0 847 248 
Q 594 497 594 1153 
L 594 3053 
L 172 3053 
L 172 3500 
L 594 3500 
L 594 4494 
L 1172 4494 
z
" transform="scale(0.015625)"/>
       <path id="DejaVuSans-64" d="M 2906 2969 
L 2906 4863 
L 3481 4863 
L 3481 0 
L 2906 0 
L 2906 525 
Q 2725 213 2448 61 
Q 2172 -91 1784 -91 
Q 1150 -91 751 415 
Q 353 922 353 1747 
Q 353 2572 751 3078 
Q 1150 3584 1784 3584 
Q 2172 3584 2448 3432 
Q 2725 3281 2906 2969 
z
M 947 1747 
Q 947 1113 1208 752 
Q 1469 391 1925 391 
Q 2381 391 2643 752 
Q 2906 1113 2906 1747 
Q 2906 2381 2643 2742 
Q 2381 3103 1925 3103 
Q 1469 3103 1208 2742 
Q 947 2381 947 1747 
z
" transform="scale(0.015625)"/>
      </defs>
      <use xlink:href="#DejaVuSans-59"/>
      <use xlink:href="#DejaVuSans-65" x="47.833984"/>
      <use xlink:href="#DejaVuSans-61" x="109.357422"/>
      <use xlink:href="#DejaVuSans-72" x="170.636719"/>
      <use xlink:href="#DejaVuSans-20" x="211.75"/>
      <use xlink:href="#DejaVuSans-43" x="243.537109"/>
      <use xlink:href="#DejaVuSans-75" x="313.361328"/>
      <use xlink:href="#DejaVuSans-6c" x="376.740234"/>
      <use xlink:href="#DejaVuSans-74" x="404.523438"/>
      <use xlink:href="#DejaVuSans-75" x="443.732422"/>
      <use xlink:href="#DejaVuSans-72" x="507.111328"/>
      <use xlink:href="#DejaVuSans-65" x="545.974609"/>
      <use xlink:href="#DejaVuSans-64" x="607.498047"/>
     </g>
    </g>
   </g>
   <g id="matplotlib.axis_2">
    <g id="ytick_1">
     <g id="text_10">
      <!-- 0.0 -->
      <g style="fill: #262626" transform="translate(28.798788 176.130797)scale(0.077 -0.077)">
       <defs>
        <path id="DejaVuSans-2e" d="M 684 794 
L 1344 794 
L 1344 0 
L 684 0 
L 684 794 
z
" transform="scale(0.015625)"/>
       </defs>
       <use xlink:href="#DejaVuSans-30"/>
       <use xlink:href="#DejaVuSans-2e" x="63.623047"/>
       <use xlink:href="#DejaVuSans-30" x="95.410156"/>
      </g>
     </g>
    </g>
    <g id="ytick_2">
     <g id="text_11">
      <!-- 0.2 -->
      <g style="fill: #262626" transform="translate(28.798788 143.514797)scale(0.077 -0.077)">
       <use xlink:href="#DejaVuSans-30"/>
       <use xlink:href="#DejaVuSans-2e" x="63.623047"/>
       <use xlink:href="#DejaVuSans-32" x="95.410156"/>
      </g>
     </g>
    </g>
    <g id="ytick_3">
     <g id="text_12">
      <!-- 0.4 -->
      <g style="fill: #262626" transform="translate(28.798788 110.898797)scale(0.077 -0.077)">
       <use xlink:href="#DejaVuSans-30"/>
       <use xlink:href="#DejaVuSans-2e" x="63.623047"/>
       <use xlink:href="#DejaVuSans-34" x="95.410156"/>
      </g>
     </g>
    </g>
    <g id="ytick_4">
     <g id="text_13">
      <!-- 0.6 -->
      <g style="fill: #262626" transform="translate(28.798788 78.282797)scale(0.077 -0.077)">
       <use xlink:href="#DejaVuSans-30"/>
       <use xlink:href="#DejaVuSans-2e" x="63.623047"/>
       <use xlink:href="#DejaVuSans-36" x="95.410156"/>
      </g>
     </g>
    </g>
    <g id="ytick_5">
     <g id="text_14">
      <!-- 0.8 -->
      <g style="fill: #262626" transform="translate(28.798788 45.666797)scale(0.077 -0.077)">
       <use xlink:href="#DejaVuSans-30"/>
       <use xlink:href="#DejaVuSans-2e" x="63.623047"/>
       <use xlink:href="#DejaVuSans-38" x="95.410156"/>
      </g>
     </g>
    </g>
    <g id="ytick_6">
     <g id="text_15">
      <!-- 1.0 -->
      <g style="fill: #262626" transform="translate(28.798788 13.050797)scale(0.077 -0.077)">
       <use xlink:href="#DejaVuSans-31"/>
       <use xlink:href="#DejaVuSans-2e" x="63.623047"/>
       <use xlink:href="#DejaVuSans-30" x="95.410156"/>
      </g>
     </g>
    </g>
    <g id="text_16">
     <!-- Fraction of all isolates -->
     <g style="fill: #262626" transform="translate(13.582687 137.475586)rotate(-90)scale(0.084 -0.084)">
      <defs>
       <path id="DejaVuSans-46" d="M 628 4666 
L 3309 4666 
L 3309 4134 
L 1259 4134 
L 1259 2759 
L 3109 2759 
L 3109 2228 
L 1259 2228 
L 1259 0 
L 628 0 
L 628 4666 
z
" transform="scale(0.015625)"/>
       <path id="DejaVuSans-63" d="M 3122 3366 
L 3122 2828 
Q 2878 2963 2633 3030 
Q 2388 3097 2138 3097 
Q 1578 3097 1268 2742 
Q 959 2388 959 1747 
Q 959 1106 1268 751 
Q 1578 397 2138 397 
Q 2388 397 2633 464 
Q 2878 531 3122 666 
L 3122 134 
Q 2881 22 2623 -34 
Q 2366 -91 2075 -91 
Q 1284 -91 818 406 
Q 353 903 353 1747 
Q 353 2603 823 3093 
Q 1294 3584 2113 3584 
Q 2378 3584 2631 3529 
Q 2884 3475 3122 3366 
z
" transform="scale(0.015625)"/>
       <path id="DejaVuSans-69" d="M 603 3500 
L 1178 3500 
L 1178 0 
L 603 0 
L 603 3500 
z
M 603 4863 
L 1178 4863 
L 1178 4134 
L 603 4134 
L 603 4863 
z
" transform="scale(0.015625)"/>
       <path id="DejaVuSans-6f" d="M 1959 3097 
Q 1497 3097 1228 2736 
Q 959 2375 959 1747 
Q 959 1119 1226 758 
Q 1494 397 1959 397 
Q 2419 397 2687 759 
Q 2956 1122 2956 1747 
Q 2956 2369 2687 2733 
Q 2419 3097 1959 3097 
z
M 1959 3584 
Q 2709 3584 3137 3096 
Q 3566 2609 3566 1747 
Q 3566 888 3137 398 
Q 2709 -91 1959 -91 
Q 1206 -91 779 398 
Q 353 888 353 1747 
Q 353 2609 779 3096 
Q 1206 3584 1959 3584 
z
" transform="scale(0.015625)"/>
       <path id="DejaVuSans-6e" d="M 3513 2113 
L 3513 0 
L 2938 0 
L 2938 2094 
Q 2938 2591 2744 2837 
Q 2550 3084 2163 3084 
Q 1697 3084 1428 2787 
Q 1159 2491 1159 1978 
L 1159 0 
L 581 0 
L 581 3500 
L 1159 3500 
L 1159 2956 
Q 1366 3272 1645 3428 
Q 1925 3584 2291 3584 
Q 2894 3584 3203 3211 
Q 3513 2838 3513 2113 
z
" transform="scale(0.015625)"/>
       <path id="DejaVuSans-66" d="M 2375 4863 
L 2375 4384 
L 1825 4384 
Q 1516 4384 1395 4259 
Q 1275 4134 1275 3809 
L 1275 3500 
L 2222 3500 
L 2222 3053 
L 1275 3053 
L 1275 0 
L 697 0 
L 697 3053 
L 147 3053 
L 147 3500 
L 697 3500 
L 697 3744 
Q 697 4328 969 4595 
Q 1241 4863 1831 4863 
L 2375 4863 
z
" transform="scale(0.015625)"/>
       <path id="DejaVuSans-73" d="M 2834 3397 
L 2834 2853 
Q 2591 2978 2328 3040 
Q 2066 3103 1784 3103 
Q 1356 3103 1142 2972 
Q 928 2841 928 2578 
Q 928 2378 1081 2264 
Q 1234 2150 1697 2047 
L 1894 2003 
Q 2506 1872 2764 1633 
Q 3022 1394 3022 966 
Q 3022 478 2636 193 
Q 2250 -91 1575 -91 
Q 1294 -91 989 -36 
Q 684 19 347 128 
L 347 722 
Q 666 556 975 473 
Q 1284 391 1588 391 
Q 1994 391 2212 530 
Q 2431 669 2431 922 
Q 2431 1156 2273 1281 
Q 2116 1406 1581 1522 
L 1381 1569 
Q 847 1681 609 1914 
Q 372 2147 372 2553 
Q 372 3047 722 3315 
Q 1072 3584 1716 3584 
Q 2034 3584 2315 3537 
Q 2597 3491 2834 3397 
z
" transform="scale(0.015625)"/>
      </defs>
      <use xlink:href="#DejaVuSans-46"/>
      <use xlink:href="#DejaVuSans-72" x="50.269531"/>
      <use xlink:href="#DejaVuSans-61" x="91.382812"/>
      <use xlink:href="#DejaVuSans-63" x="152.662109"/>
      <use xlink:href="#DejaVuSans-74" x="207.642578"/>
      <use xlink:href="#DejaVuSans-69" x="246.851562"/>
      <use xlink:href="#DejaVuSans-6f" x="274.634766"/>
      <use xlink:href="#DejaVuSans-6e" x="335.816406"/>
      <use xlink:href="#DejaVuSans-20" x="399.195312"/>
      <use xlink:href="#DejaVuSans-6f" x="430.982422"/>
      <use xlink:href="#DejaVuSans-66" x="492.164062"/>
      <use xlink:href="#DejaVuSans-20" x="527.369141"/>
      <use xlink:href="#DejaVuSans-61" x="559.15625"/>
      <use xlink:href="#DejaVuSans-6c" x="620.435547"/>
      <use xlink:href="#DejaVuSans-6c" x="648.21875"/>
      <use xlink:href="#DejaVuSans-20" x="676.001953"/>
      <use xlink:href="#DejaVuSans-69" x="707.789062"/>
      <use xlink:href="#DejaVuSans-73" x="735.572266"/>
      <use xlink:href="#DejaVuSans-6f" x="787.671875"/>
      <use xlink:href="#DejaVuSans-6c" x="848.853516"/>
      <use xlink:href="#DejaVuSans-61" x="876.636719"/>
      <use xlink:href="#DejaVuSans-74" x="937.916016"/>
      <use xlink:href="#DejaVuSans-65" x="977.125"/>
      <use xlink:href="#DejaVuSans-73" x="1038.648438"/>
     </g>
     <!--  with ≥ 1 β-Lactamase -->
     <g style="fill: #262626" transform="translate(23.05185 139.182492)rotate(-90)scale(0.084 -0.084)">
      <defs>
       <path id="DejaVuSans-77" d="M 269 3500 
L 844 3500 
L 1563 769 
L 2278 3500 
L 2956 3500 
L 3675 769 
L 4391 3500 
L 4966 3500 
L 4050 0 
L 3372 0 
L 2619 2869 
L 1863 0 
L 1184 0 
L 269 3500 
z
" transform="scale(0.015625)"/>
       <path id="DejaVuSans-68" d="M 3513 2113 
L 3513 0 
L 2938 0 
L 2938 2094 
Q 2938 2591 2744 2837 
Q 2550 3084 2163 3084 
Q 1697 3084 1428 2787 
Q 1159 2491 1159 1978 
L 1159 0 
L 581 0 
L 581 4863 
L 1159 4863 
L 1159 2956 
Q 1366 3272 1645 3428 
Q 1925 3584 2291 3584 
Q 2894 3584 3203 3211 
Q 3513 2838 3513 2113 
z
" transform="scale(0.015625)"/>
       <path id="DejaVuSans-2265" d="M 678 3175 
L 678 3725 
L 4684 2578 
L 4684 2047 
L 678 897 
L 678 1453 
L 3681 2309 
L 678 3175 
z
M 4684 531 
L 4684 0 
L 678 0 
L 678 531 
L 4684 531 
z
" transform="scale(0.015625)"/>
       <path id="DejaVuSans-3b2" d="M 1178 216 
L 1178 -1331 
L 600 -1331 
L 600 3478 
Q 600 4903 1931 4903 
Q 3288 4903 3288 3700 
Q 3288 2844 2750 2531 
Q 3625 2250 3625 1416 
Q 3625 -66 2119 -66 
Q 1456 -66 1178 216 
z
M 1178 966 
Q 1525 425 2141 425 
Q 3041 425 3041 1406 
Q 3041 2288 1591 2219 
L 1591 2750 
Q 2725 2750 2725 3750 
Q 2725 4434 1994 4434 
Q 1178 4434 1178 3459 
L 1178 966 
z
" transform="scale(0.015625)"/>
       <path id="DejaVuSans-2d" d="M 313 2009 
L 1997 2009 
L 1997 1497 
L 313 1497 
L 313 2009 
z
" transform="scale(0.015625)"/>
       <path id="DejaVuSans-4c" d="M 628 4666 
L 1259 4666 
L 1259 531 
L 3531 531 
L 3531 0 
L 628 0 
L 628 4666 
z
" transform="scale(0.015625)"/>
       <path id="DejaVuSans-6d" d="M 3328 2828 
Q 3544 3216 3844 3400 
Q 4144 3584 4550 3584 
Q 5097 3584 5394 3201 
Q 5691 2819 5691 2113 
L 5691 0 
L 5113 0 
L 5113 2094 
Q 5113 2597 4934 2840 
Q 4756 3084 4391 3084 
Q 3944 3084 3684 2787 
Q 3425 2491 3425 1978 
L 3425 0 
L 2847 0 
L 2847 2094 
Q 2847 2600 2669 2842 
Q 2491 3084 2119 3084 
Q 1678 3084 1418 2786 
Q 1159 2488 1159 1978 
L 1159 0 
L 581 0 
L 581 3500 
L 1159 3500 
L 1159 2956 
Q 1356 3278 1631 3431 
Q 1906 3584 2284 3584 
Q 2666 3584 2933 3390 
Q 3200 3197 3328 2828 
z
" transform="scale(0.015625)"/>
      </defs>
      <use xlink:href="#DejaVuSans-20"/>
      <use xlink:href="#DejaVuSans-77" x="31.787109"/>
      <use xlink:href="#DejaVuSans-69" x="113.574219"/>
      <use xlink:href="#DejaVuSans-74" x="141.357422"/>
      <use xlink:href="#DejaVuSans-68" x="180.566406"/>
      <use xlink:href="#DejaVuSans-20" x="243.945312"/>
      <use xlink:href="#DejaVuSans-2265" x="275.732422"/>
      <use xlink:href="#DejaVuSans-20" x="359.521484"/>
      <use xlink:href="#DejaVuSans-31" x="391.308594"/>
      <use xlink:href="#DejaVuSans-20" x="454.931641"/>
      <use xlink:href="#DejaVuSans-3b2" x="486.71875"/>
      <use xlink:href="#DejaVuSans-2d" x="550.537109"/>
      <use xlink:href="#DejaVuSans-4c" x="586.621094"/>
      <use xlink:href="#DejaVuSans-61" x="642.333984"/>
      <use xlink:href="#DejaVuSans-63" x="703.613281"/>
      <use xlink:href="#DejaVuSans-74" x="758.59375"/>
      <use xlink:href="#DejaVuSans-61" x="797.802734"/>
      <use xlink:href="#DejaVuSans-6d" x="859.082031"/>
      <use xlink:href="#DejaVuSans-61" x="956.494141"/>
      <use xlink:href="#DejaVuSans-73" x="1017.773438"/>
      <use xlink:href="#DejaVuSans-65" x="1069.873047"/>
     </g>
    </g>
   </g>
   <g id="PathCollection_1">
    <defs>
     <path id="C0_0_89b894e33f" d="M 0 3 
C 0.795609 3 1.55874 2.683901 2.12132 2.12132 
C 2.683901 1.55874 3 0.795609 3 -0 
C 3 -0.795609 2.683901 -1.55874 2.12132 -2.12132 
C 1.55874 -2.683901 0.795609 -3 0 -3 
C -0.795609 -3 -1.55874 -2.683901 -2.12132 -2.12132 
C -2.683901 -1.55874 -3 -0.795609 -3 0 
C -3 0.795609 -2.683901 1.55874 -2.12132 2.12132 
C -1.55874 2.683901 -0.795609 3 0 3 
z
"/>
    </defs>
    <g clip-path="url(#pf77a70c906)">
     <use xlink:href="#C0_0_89b894e33f" x="63.226012" y="10.125398" style="fill: #4c72b0"/>
    </g>
    <g clip-path="url(#pf77a70c906)">
     <use xlink:href="#C0_0_89b894e33f" x="92.491746" y="107.973398" style="fill: #4c72b0"/>
    </g>
    <g clip-path="url(#pf77a70c906)">
     <use xlink:href="#C0_0_89b894e33f" x="98.344893" y="107.973398" style="fill: #4c72b0"/>
    </g>
    <g clip-path="url(#pf77a70c906)">
     <use xlink:href="#C0_0_89b894e33f" x="100.295942" y="107.973398" style="fill: #4c72b0"/>
    </g>
    <g clip-path="url(#pf77a70c906)">
     <use xlink:href="#C0_0_89b894e33f" x="102.246991" y="103.31397" style="fill: #4c72b0"/>
    </g>
    <g clip-path="url(#pf77a70c906)">
     <use xlink:href="#C0_0_89b894e33f" x="112.002236" y="85.393091" style="fill: #4c72b0"/>
    </g>
    <g clip-path="url(#pf77a70c906)">
     <use xlink:href="#C0_0_89b894e33f" x="113.953285" y="112.050398" style="fill: #4c72b0"/>
    </g>
    <g clip-path="url(#pf77a70c906)">
     <use xlink:href="#C0_0_89b894e33f" x="117.855383" y="132.435398" style="fill: #4c72b0"/>
    </g>
    <g clip-path="url(#pf77a70c906)">
     <use xlink:href="#C0_0_89b894e33f" x="121.75748" y="140.589398" style="fill: #4c72b0"/>
    </g>
    <g clip-path="url(#pf77a70c906)">
     <use xlink:href="#C0_0_89b894e33f" x="123.708529" y="145.56472" style="fill: #4c72b0"/>
    </g>
    <g clip-path="url(#pf77a70c906)">
     <use xlink:href="#C0_0_89b894e33f" x="125.659578" y="143.307398" style="fill: #4c72b0"/>
    </g>
    <g clip-path="url(#pf77a70c906)">
     <use xlink:href="#C0_0_89b894e33f" x="127.610627" y="146.025398" style="fill: #4c72b0"/>
    </g>
    <g clip-path="url(#pf77a70c906)">
     <use xlink:href="#C0_0_89b894e33f" x="129.561676" y="144.426575" style="fill: #4c72b0"/>
    </g>
    <g clip-path="url(#pf77a70c906)">
     <use xlink:href="#C0_0_89b894e33f" x="131.512725" y="146.397727" style="fill: #4c72b0"/>
    </g>
    <g clip-path="url(#pf77a70c906)">
     <use xlink:href="#C0_0_89b894e33f" x="133.463774" y="152.820398" style="fill: #4c72b0"/>
    </g>
    <g clip-path="url(#pf77a70c906)">
     <use xlink:href="#C0_0_89b894e33f" x="135.414823" y="155.085398" style="fill: #4c72b0"/>
    </g>
    <g clip-path="url(#pf77a70c906)">
     <use xlink:href="#C0_0_89b894e33f" x="137.365872" y="151.461398" style="fill: #4c72b0"/>
    </g>
    <g clip-path="url(#pf77a70c906)">
     <use xlink:href="#C0_0_89b894e33f" x="139.316921" y="152.026178" style="fill: #4c72b0"/>
    </g>
    <g clip-path="url(#pf77a70c906)">
     <use xlink:href="#C0_0_89b894e33f" x="141.26797" y="145.248827" style="fill: #4c72b0"/>
    </g>
    <g clip-path="url(#pf77a70c906)">
     <use xlink:href="#C0_0_89b894e33f" x="143.219019" y="151.121648" style="fill: #4c72b0"/>
    </g>
    <g clip-path="url(#pf77a70c906)">
     <use xlink:href="#C0_0_89b894e33f" x="145.170068" y="149.455884" style="fill: #4c72b0"/>
    </g>
    <g clip-path="url(#pf77a70c906)">
     <use xlink:href="#C0_0_89b894e33f" x="147.121117" y="146.025398" style="fill: #4c72b0"/>
    </g>
    <g clip-path="url(#pf77a70c906)">
     <use xlink:href="#C0_0_89b894e33f" x="149.072166" y="145.393305" style="fill: #4c72b0"/>
    </g>
    <g clip-path="url(#pf77a70c906)">
     <use xlink:href="#C0_0_89b894e33f" x="151.023215" y="148.496308" style="fill: #4c72b0"/>
    </g>
    <g clip-path="url(#pf77a70c906)">
     <use xlink:href="#C0_0_89b894e33f" x="152.974264" y="149.256587" style="fill: #4c72b0"/>
    </g>
    <g clip-path="url(#pf77a70c906)">
     <use xlink:href="#C0_0_89b894e33f" x="154.925313" y="151.666531" style="fill: #4c72b0"/>
    </g>
    <g clip-path="url(#pf77a70c906)">
     <use xlink:href="#C0_0_89b894e33f" x="156.876362" y="150.18234" style="fill: #4c72b0"/>
    </g>
    <g clip-path="url(#pf77a70c906)">
     <use xlink:href="#C0_0_89b894e33f" x="158.827411" y="149.012212" style="fill: #4c72b0"/>
    </g>
    <g clip-path="url(#pf77a70c906)">
     <use xlink:href="#C0_0_89b894e33f" x="160.778459" y="149.532495" style="fill: #4c72b0"/>
    </g>
    <g clip-path="url(#pf77a70c906)">
     <use xlink:href="#C0_0_89b894e33f" x="162.729508" y="151.859849" style="fill: #4c72b0"/>
    </g>
    <g clip-path="url(#pf77a70c906)">
     <use xlink:href="#C0_0_89b894e33f" x="164.680557" y="150.87897" style="fill: #4c72b0"/>
    </g>
    <g clip-path="url(#pf77a70c906)">
     <use xlink:href="#C0_0_89b894e33f" x="166.631606" y="147.304457" style="fill: #4c72b0"/>
    </g>
    <g clip-path="url(#pf77a70c906)">
     <use xlink:href="#C0_0_89b894e33f" x="168.582655" y="150.609977" style="fill: #4c72b0"/>
    </g>
    <g clip-path="url(#pf77a70c906)">
     <use xlink:href="#C0_0_89b894e33f" x="170.533704" y="152.195092" style="fill: #4c72b0"/>
    </g>
    <g clip-path="url(#pf77a70c906)">
     <use xlink:href="#C0_0_89b894e33f" x="172.484753" y="146.486076" style="fill: #4c72b0"/>
    </g>
    <g clip-path="url(#pf77a70c906)">
     <use xlink:href="#C0_0_89b894e33f" x="174.435802" y="145.115064" style="fill: #dd8452"/>
    </g>
    <g clip-path="url(#pf77a70c906)">
     <use xlink:href="#C0_0_89b894e33f" x="176.386851" y="136.404159" style="fill: #dd8452"/>
    </g>
    <g clip-path="url(#pf77a70c906)">
     <use xlink:href="#C0_0_89b894e33f" x="178.3379" y="135.174885" style="fill: #dd8452"/>
    </g>
    <g clip-path="url(#pf77a70c906)">
     <use xlink:href="#C0_0_89b894e33f" x="180.288949" y="136.965398" style="fill: #dd8452"/>
    </g>
    <g clip-path="url(#pf77a70c906)">
     <use xlink:href="#C0_0_89b894e33f" x="182.239998" y="98.831622" style="fill: #dd8452"/>
    </g>
    <g clip-path="url(#pf77a70c906)">
     <use xlink:href="#C0_0_89b894e33f" x="184.191047" y="99.448762" style="fill: #dd8452"/>
    </g>
    <g clip-path="url(#pf77a70c906)">
     <use xlink:href="#C0_0_89b894e33f" x="186.142096" y="100.452036" style="fill: #dd8452"/>
    </g>
    <g clip-path="url(#pf77a70c906)">
     <use xlink:href="#C0_0_89b894e33f" x="188.093145" y="95.855201" style="fill: #dd8452"/>
    </g>
    <g clip-path="url(#pf77a70c906)">
     <use xlink:href="#C0_0_89b894e33f" x="190.044194" y="95.774003" style="fill: #dd8452"/>
    </g>
    <g clip-path="url(#pf77a70c906)">
     <use xlink:href="#C0_0_89b894e33f" x="191.995243" y="92.752598" style="fill: #dd8452"/>
    </g>
    <g clip-path="url(#pf77a70c906)">
     <use xlink:href="#C0_0_89b894e33f" x="193.946292" y="91.821905" style="fill: #dd8452"/>
    </g>
    <g clip-path="url(#pf77a70c906)">
     <use xlink:href="#C0_0_89b894e33f" x="195.897341" y="88.323595" style="fill: #dd8452"/>
    </g>
    <g clip-path="url(#pf77a70c906)">
     <use xlink:href="#C0_0_89b894e33f" x="197.84839" y="88.759361" style="fill: #dd8452"/>
    </g>
    <g clip-path="url(#pf77a70c906)">
     <use xlink:href="#C0_0_89b894e33f" x="199.799439" y="87.696637" style="fill: #dd8452"/>
    </g>
    <g clip-path="url(#pf77a70c906)">
     <use xlink:href="#C0_0_89b894e33f" x="201.750487" y="83.45411" style="fill: #dd8452"/>
    </g>
    <g clip-path="url(#pf77a70c906)">
     <use xlink:href="#C0_0_89b894e33f" x="203.701536" y="111.560038" style="fill: #dd8452"/>
    </g>
    <g clip-path="url(#pf77a70c906)">
     <use xlink:href="#C0_0_89b894e33f" x="205.652585" y="111.45084" style="fill: #dd8452"/>
    </g>
    <g clip-path="url(#pf77a70c906)">
     <use xlink:href="#C0_0_89b894e33f" x="207.603634" y="111.653803" style="fill: #dd8452"/>
    </g>
    <g clip-path="url(#pf77a70c906)">
     <use xlink:href="#C0_0_89b894e33f" x="209.554683" y="127.362633" style="fill: #dd8452"/>
    </g>
    <g clip-path="url(#pf77a70c906)">
     <use xlink:href="#C0_0_89b894e33f" x="211.505732" y="132.255795" style="fill: #dd8452"/>
    </g>
    <g clip-path="url(#pf77a70c906)">
     <use xlink:href="#C0_0_89b894e33f" x="213.456781" y="138.834277" style="fill: #dd8452"/>
    </g>
    <g clip-path="url(#pf77a70c906)">
     <use xlink:href="#C0_0_89b894e33f" x="215.40783" y="143.620089" style="fill: #dd8452"/>
    </g>
    <g clip-path="url(#pf77a70c906)">
     <use xlink:href="#C0_0_89b894e33f" x="217.358879" y="139.895441" style="fill: #dd8452"/>
    </g>
    <g clip-path="url(#pf77a70c906)">
     <use xlink:href="#C0_0_89b894e33f" x="219.309928" y="136.231795" style="fill: #dd8452"/>
    </g>
    <g clip-path="url(#pf77a70c906)">
     <use xlink:href="#C0_0_89b894e33f" x="221.260977" y="134.682564" style="fill: #dd8452"/>
    </g>
    <g clip-path="url(#pf77a70c906)">
     <use xlink:href="#C0_0_89b894e33f" x="223.212026" y="136.675478" style="fill: #dd8452"/>
    </g>
    <g clip-path="url(#pf77a70c906)">
     <use xlink:href="#C0_0_89b894e33f" x="225.163075" y="137.8928" style="fill: #dd8452"/>
    </g>
    <g clip-path="url(#pf77a70c906)">
     <use xlink:href="#C0_0_89b894e33f" x="227.114124" y="135.571552" style="fill: #dd8452"/>
    </g>
    <g clip-path="url(#pf77a70c906)">
     <use xlink:href="#C0_0_89b894e33f" x="229.065173" y="129.833058" style="fill: #dd8452"/>
    </g>
    <g clip-path="url(#pf77a70c906)">
     <use xlink:href="#C0_0_89b894e33f" x="231.016222" y="128.990046" style="fill: #dd8452"/>
    </g>
    <g clip-path="url(#pf77a70c906)">
     <use xlink:href="#C0_0_89b894e33f" x="232.967271" y="128.676462" style="fill: #dd8452"/>
    </g>
    <g clip-path="url(#pf77a70c906)">
     <use xlink:href="#C0_0_89b894e33f" x="234.91832" y="129.877871" style="fill: #dd8452"/>
    </g>
    <g clip-path="url(#pf77a70c906)">
     <use xlink:href="#C0_0_89b894e33f" x="236.869369" y="125.859592" style="fill: #dd8452"/>
    </g>
    <g clip-path="url(#pf77a70c906)">
     <use xlink:href="#C0_0_89b894e33f" x="238.820418" y="128.517996" style="fill: #dd8452"/>
    </g>
    <g clip-path="url(#pf77a70c906)">
     <use xlink:href="#C0_0_89b894e33f" x="240.771466" y="131.236281" style="fill: #dd8452"/>
    </g>
    <g clip-path="url(#pf77a70c906)">
     <use xlink:href="#C0_0_89b894e33f" x="242.722515" y="131.43403" style="fill: #dd8452"/>
    </g>
    <g clip-path="url(#pf77a70c906)">
     <use xlink:href="#C0_0_89b894e33f" x="244.673564" y="131.771392" style="fill: #dd8452"/>
    </g>
    <g clip-path="url(#pf77a70c906)">
     <use xlink:href="#C0_0_89b894e33f" x="246.624613" y="130.481565" style="fill: #dd8452"/>
    </g>
    <g clip-path="url(#pf77a70c906)">
     <use xlink:href="#C0_0_89b894e33f" x="248.575662" y="131.376437" style="fill: #dd8452"/>
    </g>
    <g clip-path="url(#pf77a70c906)">
     <use xlink:href="#C0_0_89b894e33f" x="250.526711" y="136.965398" style="fill: #dd8452"/>
    </g>
    <g clip-path="url(#pf77a70c906)">
     <use xlink:href="#C0_0_89b894e33f" x="252.47776" y="138.814378" style="fill: #dd8452"/>
    </g>
    <g clip-path="url(#pf77a70c906)">
     <use xlink:href="#C0_0_89b894e33f" x="254.428809" y="135.748861" style="fill: #dd8452"/>
    </g>
    <g clip-path="url(#pf77a70c906)">
     <use xlink:href="#C0_0_89b894e33f" x="256.379858" y="134.765113" style="fill: #dd8452"/>
    </g>
    <g clip-path="url(#pf77a70c906)">
     <use xlink:href="#C0_0_89b894e33f" x="258.330907" y="138.971047" style="fill: #dd8452"/>
    </g>
    <g clip-path="url(#pf77a70c906)">
     <use xlink:href="#C0_0_89b894e33f" x="260.281956" y="137.10864" style="fill: #dd8452"/>
    </g>
    <g clip-path="url(#pf77a70c906)">
     <use xlink:href="#C0_0_89b894e33f" x="262.233005" y="138.462268" style="fill: #dd8452"/>
    </g>
    <g clip-path="url(#pf77a70c906)">
     <use xlink:href="#C0_0_89b894e33f" x="264.184054" y="137.716487" style="fill: #dd8452"/>
    </g>
    <g clip-path="url(#pf77a70c906)">
     <use xlink:href="#C0_0_89b894e33f" x="266.135103" y="135.255964" style="fill: #dd8452"/>
    </g>
    <g clip-path="url(#pf77a70c906)">
     <use xlink:href="#C0_0_89b894e33f" x="268.086152" y="136.544003" style="fill: #dd8452"/>
    </g>
    <g clip-path="url(#pf77a70c906)">
     <use xlink:href="#C0_0_89b894e33f" x="270.037201" y="136.011714" style="fill: #dd8452"/>
    </g>
    <g clip-path="url(#pf77a70c906)">
     <use xlink:href="#C0_0_89b894e33f" x="271.98825" y="132.435398" style="fill: #dd8452"/>
    </g>
    <g clip-path="url(#pf77a70c906)">
     <use xlink:href="#C0_0_89b894e33f" x="273.939299" y="124.281398" style="fill: #dd8452"/>
    </g>
    <g clip-path="url(#pf77a70c906)">
     <use xlink:href="#C0_0_89b894e33f" x="275.890348" y="125.763944" style="fill: #dd8452"/>
    </g>
    <g clip-path="url(#pf77a70c906)">
     <use xlink:href="#C0_0_89b894e33f" x="277.841397" y="120.027138" style="fill: #dd8452"/>
    </g>
    <g clip-path="url(#pf77a70c906)">
     <use xlink:href="#C0_0_89b894e33f" x="279.792445" y="114.66386" style="fill: #dd8452"/>
    </g>
    <g clip-path="url(#pf77a70c906)">
     <use xlink:href="#C0_0_89b894e33f" x="283.694543" y="100.725398" style="fill: #dd8452"/>
    </g>
    <g clip-path="url(#pf77a70c906)">
     <use xlink:href="#C0_0_89b894e33f" x="285.645592" y="100.725398" style="fill: #dd8452"/>
    </g>
    <g clip-path="url(#pf77a70c906)">
     <use xlink:href="#C0_0_89b894e33f" x="289.54769" y="94.136308" style="fill: #dd8452"/>
    </g>
    <g clip-path="url(#pf77a70c906)">
     <use xlink:href="#C0_0_89b894e33f" x="291.498739" y="78.075398" style="fill: #dd8452"/>
    </g>
    <g clip-path="url(#pf77a70c906)">
     <use xlink:href="#C0_0_89b894e33f" x="293.449788" y="75.357398" style="fill: #dd8452"/>
    </g>
    <g clip-path="url(#pf77a70c906)">
     <use xlink:href="#C0_0_89b894e33f" x="295.400837" y="73.13358" style="fill: #dd8452"/>
    </g>
    <g clip-path="url(#pf77a70c906)">
     <use xlink:href="#C0_0_89b894e33f" x="297.351886" y="66.848877" style="fill: #dd8452"/>
    </g>
    <g clip-path="url(#pf77a70c906)">
     <use xlink:href="#C0_0_89b894e33f" x="299.302935" y="71.665021" style="fill: #dd8452"/>
    </g>
    <g clip-path="url(#pf77a70c906)">
     <use xlink:href="#C0_0_89b894e33f" x="301.253984" y="67.346451" style="fill: #dd8452"/>
    </g>
    <g clip-path="url(#pf77a70c906)">
     <use xlink:href="#C0_0_89b894e33f" x="303.205033" y="73.545398" style="fill: #dd8452"/>
    </g>
    <g clip-path="url(#pf77a70c906)">
     <use xlink:href="#C0_0_89b894e33f" x="305.156082" y="91.665398" style="fill: #dd8452"/>
    </g>
    <g clip-path="url(#pf77a70c906)">
     <use xlink:href="#C0_0_89b894e33f" x="307.107131" y="92.813849" style="fill: #dd8452"/>
    </g>
    <g clip-path="url(#pf77a70c906)">
     <use xlink:href="#C0_0_89b894e33f" x="309.05818" y="98.136827" style="fill: #dd8452"/>
    </g>
    <g clip-path="url(#pf77a70c906)">
     <use xlink:href="#C0_0_89b894e33f" x="311.009229" y="99.556366" style="fill: #dd8452"/>
    </g>
    <g clip-path="url(#pf77a70c906)">
     <use xlink:href="#C0_0_89b894e33f" x="312.960278" y="109.138256" style="fill: #dd8452"/>
    </g>
    <g clip-path="url(#pf77a70c906)">
     <use xlink:href="#C0_0_89b894e33f" x="314.911327" y="113.618475" style="fill: #dd8452"/>
    </g>
    <g clip-path="url(#pf77a70c906)">
     <use xlink:href="#C0_0_89b894e33f" x="316.862376" y="118.845398" style="fill: #dd8452"/>
    </g>
   </g>
   <g id="PolyCollection_1">
    <defs>
     <path id="mc6b63ce111" d="M 63.226012 -197.310379 
L 63.226012 -62.066993 
L 92.491746 -55.544342 
L 98.344893 -55.544342 
L 100.295942 -55.544342 
L 102.246991 -61.887424 
L 112.002236 -83.348202 
L 113.953285 -66.359761 
L 117.855383 -57.048407 
L 121.75748 -55.186373 
L 123.708529 -51.812839 
L 125.659578 -53.567319 
L 127.610627 -51.956933 
L 129.561676 -53.29301 
L 131.512725 -52.099362 
L 133.463774 -47.32133 
L 135.414823 -45.733069 
L 137.365872 -48.435961 
L 139.316921 -48.114465 
L 141.26797 -52.794532 
L 143.219019 -49.525988 
L 145.170068 -51.051998 
L 147.121117 -54.153423 
L 149.072166 -55.131355 
L 151.023215 -52.66749 
L 152.974264 -52.31097 
L 154.925313 -50.66859 
L 156.876362 -52.084385 
L 158.827411 -53.26536 
L 160.778459 -52.89313 
L 162.729508 -51.024704 
L 164.680557 -51.473848 
L 166.631606 -54.48947 
L 168.582655 -51.660323 
L 170.533704 -50.309307 
L 172.484753 -55.312497 
L 172.484753 -73.06094 
L 172.484753 -73.06094 
L 170.533704 -67.112823 
L 168.582655 -68.808983 
L 166.631606 -72.37985 
L 164.680557 -68.437938 
L 162.729508 -66.645172 
L 160.778459 -69.399769 
L 158.827411 -70.097785 
L 156.876362 -69.158288 
L 154.925313 -67.855399 
L 152.974264 -71.220619 
L 151.023215 -72.590991 
L 149.072166 -76.225149 
L 147.121117 -76.386825 
L 145.170068 -73.253117 
L 143.219019 -71.877403 
L 141.26797 -81.394007 
L 139.316921 -72.675064 
L 137.365872 -73.577491 
L 135.414823 -69.642131 
L 133.463774 -72.35178 
L 131.512725 -79.683209 
L 129.561676 -82.611054 
L 127.610627 -81.096298 
L 125.659578 -85.170944 
L 123.708529 -82.795337 
L 121.75748 -89.174005 
L 117.855383 -107.28687 
L 113.953285 -136.855881 
L 112.002236 -161.794584 
L 102.246991 -159.429488 
L 100.295942 -163.031129 
L 98.344893 -163.031129 
L 92.491746 -163.031129 
L 63.226012 -197.310379 
z
" style="stroke: #4c72b0; stroke-opacity: 0.3"/>
    </defs>
    <g clip-path="url(#pf77a70c906)">
     <use xlink:href="#mc6b63ce111" x="0" y="209.48718" style="fill: #4c72b0; fill-opacity: 0.3; stroke: #4c72b0; stroke-opacity: 0.3"/>
    </g>
   </g>
   <g id="PolyCollection_2">
    <defs>
     <path id="m9dce469936" d="M 174.435802 -73.683124 
L 174.435802 -57.024272 
L 176.386851 -64.995273 
L 178.3379 -66.511843 
L 180.288949 -65.219524 
L 182.239998 -102.993724 
L 184.191047 -102.551814 
L 186.142096 -101.759138 
L 188.093145 -106.592582 
L 190.044194 -106.7406 
L 191.995243 -109.790928 
L 193.946292 -110.6877 
L 195.897341 -113.933833 
L 197.84839 -113.417514 
L 199.799439 -114.276606 
L 201.750487 -118.294365 
L 203.701536 -89.15508 
L 205.652585 -88.971065 
L 207.603634 -88.527852 
L 209.554683 -73.061271 
L 211.505732 -68.766033 
L 213.456781 -62.770403 
L 215.40783 -58.578355 
L 217.358879 -62.004274 
L 219.309928 -65.468635 
L 221.260977 -66.973603 
L 223.212026 -65.109509 
L 225.163075 -64.06448 
L 227.114124 -66.247146 
L 229.065173 -71.802789 
L 231.016222 -72.609774 
L 232.967271 -72.874796 
L 234.91832 -71.615608 
L 236.869369 -75.455916 
L 238.820418 -73.008766 
L 240.771466 -70.37588 
L 242.722515 -70.361027 
L 244.673564 -70.308552 
L 246.624613 -71.570888 
L 248.575662 -70.68538 
L 250.526711 -65.324184 
L 252.47776 -63.709327 
L 254.428809 -66.375566 
L 256.379858 -67.238476 
L 258.330907 -63.19606 
L 260.281956 -64.759129 
L 262.233005 -63.211049 
L 264.184054 -63.238112 
L 266.135103 -64.638273 
L 268.086152 -62.609016 
L 270.037201 -62.501759 
L 271.98825 -64.472881 
L 273.939299 -69.779811 
L 275.890348 -66.907998 
L 277.841397 -70.306936 
L 279.792445 -73.343786 
L 283.694543 -81.146485 
L 285.645592 -81.146485 
L 289.54769 -89.163614 
L 291.498739 -104.938013 
L 293.449788 -108.86018 
L 295.400837 -112.180862 
L 297.351886 -118.941736 
L 299.302935 -115.76981 
L 301.253984 -120.888123 
L 303.205033 -114.11371 
L 305.156082 -99.173157 
L 307.107131 -98.212572 
L 309.05818 -92.185039 
L 311.009229 -90.736531 
L 312.960278 -81.228704 
L 314.911327 -76.704779 
L 316.862376 -71.106464 
L 316.862376 -114.588238 
L 316.862376 -114.588238 
L 314.911327 -118.142523 
L 312.960278 -121.77673 
L 311.009229 -130.071107 
L 309.05818 -131.279744 
L 307.107131 -135.255026 
L 305.156082 -136.470406 
L 303.205033 -155.292857 
L 301.253984 -160.235494 
L 299.302935 -157.091727 
L 297.351886 -162.389218 
L 295.400837 -157.454152 
L 293.449788 -156.444345 
L 291.498739 -155.170465 
L 289.54769 -142.072945 
L 285.645592 -138.729676 
L 283.694543 -138.729676 
L 279.792445 -120.568775 
L 277.841397 -113.122021 
L 275.890348 -105.11764 
L 273.939299 -104.112155 
L 271.98825 -92.973058 
L 270.037201 -87.400923 
L 268.086152 -85.925087 
L 266.135103 -85.919792 
L 264.184054 -82.133092 
L 262.233005 -80.402954 
L 260.281956 -81.380463 
L 258.330907 -79.22646 
L 256.379858 -83.391818 
L 254.428809 -82.301565 
L 252.47776 -78.872646 
L 250.526711 -80.931787 
L 248.575662 -86.530644 
L 246.624613 -87.397096 
L 244.673564 -86.130691 
L 242.722515 -86.820795 
L 240.771466 -87.246685 
L 238.820418 -89.940326 
L 236.869369 -92.743746 
L 234.91832 -88.689267 
L 232.967271 -89.758147 
L 231.016222 -89.397459 
L 229.065173 -88.548562 
L 227.114124 -82.884336 
L 225.163075 -80.525157 
L 223.212026 -81.899472 
L 221.260977 -83.939286 
L 219.309928 -82.430526 
L 217.358879 -78.75738 
L 215.40783 -74.922532 
L 213.456781 -80.160832 
L 211.505732 -87.071294 
L 209.554683 -92.451698 
L 207.603634 -107.737773 
L 205.652585 -107.662069 
L 203.701536 -107.226326 
L 201.750487 -133.623025 
L 199.799439 -129.236534 
L 197.84839 -127.990965 
L 195.897341 -128.34032 
L 193.946292 -124.645176 
L 191.995243 -123.694274 
L 190.044194 -120.747417 
L 188.093145 -120.735494 
L 186.142096 -116.457708 
L 184.191047 -117.661881 
L 182.239998 -118.449047 
L 180.288949 -81.075138 
L 178.3379 -83.436465 
L 176.386851 -82.692329 
L 174.435802 -73.683124 
z
" style="stroke: #dd8452; stroke-opacity: 0.3"/>
    </defs>
    <g clip-path="url(#pf77a70c906)">
     <use xlink:href="#m9dce469936" x="0" y="209.48718" style="fill: #dd8452; fill-opacity: 0.3; stroke: #dd8452; stroke-opacity: 0.3"/>
    </g>
   </g>
   <g id="line2d_1">
    <path d="M 63.226012 10.125398 
L 92.491746 107.973398 
L 98.344893 107.973398 
L 100.295942 107.973398 
L 102.246991 103.31397 
L 112.002236 85.393091 
L 113.953285 112.050398 
L 117.855383 132.435398 
L 121.75748 140.589398 
L 123.708529 145.56472 
L 125.659578 143.307398 
L 127.610627 146.025398 
L 129.561676 144.426575 
L 131.512725 146.397727 
L 133.463774 152.820398 
L 135.414823 155.085398 
L 137.365872 151.461398 
L 139.316921 152.026178 
L 141.26797 145.248827 
L 143.219019 151.121648 
L 145.170068 149.455884 
L 147.121117 146.025398 
L 149.072166 145.393305 
L 151.023215 148.496308 
L 152.974264 149.256587 
L 154.925313 151.666531 
L 156.876362 150.18234 
L 158.827411 149.012212 
L 160.778459 149.532495 
L 162.729508 151.859849 
L 164.680557 150.87897 
L 166.631606 147.304457 
L 168.582655 150.609977 
L 170.533704 152.195092 
L 172.484753 146.486076 
" clip-path="url(#pf77a70c906)" style="fill: none; stroke: #4c72b0; stroke-width: 1.5; stroke-linecap: round"/>
   </g>
   <g id="line2d_2">
    <path d="M 174.435802 145.115064 
L 176.386851 136.404159 
L 178.3379 135.174885 
L 180.288949 136.965398 
L 182.239998 98.831622 
L 184.191047 99.448762 
L 186.142096 100.452036 
L 188.093145 95.855201 
L 190.044194 95.774003 
L 191.995243 92.752598 
L 193.946292 91.821905 
L 195.897341 88.323595 
L 197.84839 88.759361 
L 199.799439 87.696637 
L 201.750487 83.45411 
L 203.701536 111.560038 
L 205.652585 111.45084 
L 207.603634 111.653803 
L 209.554683 127.362633 
L 211.505732 132.255795 
L 213.456781 138.834277 
L 215.40783 143.620089 
L 217.358879 139.895441 
L 219.309928 136.231795 
L 221.260977 134.682564 
L 223.212026 136.675478 
L 225.163075 137.8928 
L 227.114124 135.571552 
L 229.065173 129.833058 
L 231.016222 128.990046 
L 232.967271 128.676462 
L 234.91832 129.877871 
L 236.869369 125.859592 
L 238.820418 128.517996 
L 240.771466 131.236281 
L 242.722515 131.43403 
L 244.673564 131.771392 
L 246.624613 130.481565 
L 248.575662 131.376437 
L 250.526711 136.965398 
L 252.47776 138.814378 
L 254.428809 135.748861 
L 256.379858 134.765113 
L 258.330907 138.971047 
L 260.281956 137.10864 
L 262.233005 138.462268 
L 264.184054 137.716487 
L 266.135103 135.255964 
L 268.086152 136.544003 
L 270.037201 136.011714 
L 271.98825 132.435398 
L 273.939299 124.281398 
L 275.890348 125.763944 
L 277.841397 120.027138 
L 279.792445 114.66386 
L 283.694543 100.725398 
L 285.645592 100.725398 
L 289.54769 94.136308 
L 291.498739 78.075398 
L 293.449788 75.357398 
L 295.400837 73.13358 
L 297.351886 66.848877 
L 299.302935 71.665021 
L 301.253984 67.346451 
L 303.205033 73.545398 
L 305.156082 91.665398 
L 307.107131 92.813849 
L 309.05818 98.136827 
L 311.009229 99.556366 
L 312.960278 109.138256 
L 314.911327 113.618475 
L 316.862376 118.845398 
" clip-path="url(#pf77a70c906)" style="fill: none; stroke: #dd8452; stroke-width: 1.5; stroke-linecap: round"/>
   </g>
   <g id="line2d_3"/>
   <g id="line2d_4"/>
   <g id="line2d_5">
    <path d="M 174.435802 173.205398 
L 174.435802 10.125398 
" clip-path="url(#pf77a70c906)" style="fill: none; stroke: #ff0000; stroke-width: 1.5; stroke-linecap: round"/>
   </g>
   <g id="line2d_6">
    <path d="M 174.435802 173.205398 
L 174.435802 10.125398 
" clip-path="url(#pf77a70c906)" style="fill: none; stroke: #ff0000; stroke-width: 1.5; stroke-linecap: round"/>
   </g>
   <g id="LineCollection_1">
    <path d="M 63.226012 136.561971 
L 172.484753 136.561971 
" clip-path="url(#pf77a70c906)" style="fill: none; stroke: #4c72b0; stroke-width: 1.5"/>
   </g>
   <g id="LineCollection_2">
    <path d="M 174.435802 115.99223 
L 316.862376 115.99223 
" clip-path="url(#pf77a70c906)" style="fill: none; stroke: #dd8452; stroke-width: 1.5"/>
   </g>
   <g id="patch_3">
    <path d="M 50.544194 173.205398 
L 50.544194 10.125398 
" style="fill: none; stroke: #262626; stroke-width: 1.25; stroke-linejoin: miter; stroke-linecap: square"/>
   </g>
   <g id="patch_4">
    <path d="M 50.544194 173.205398 
L 329.544194 173.205398 
" style="fill: none; stroke: #262626; stroke-width: 1.25; stroke-linejoin: miter; stroke-linecap: square"/>
   </g>
   <g id="text_17">
    <!-- Introduced clinically in 1943 -->
    <g style="fill: #262626" transform="translate(171.948385 125.736597)rotate(-90)scale(0.069972 -0.069972)">
     <defs>
      <path id="DejaVuSans-49" d="M 628 4666 
L 1259 4666 
L 1259 0 
L 628 0 
L 628 4666 
z
" transform="scale(0.015625)"/>
      <path id="DejaVuSans-79" d="M 2059 -325 
Q 1816 -950 1584 -1140 
Q 1353 -1331 966 -1331 
L 506 -1331 
L 506 -850 
L 844 -850 
Q 1081 -850 1212 -737 
Q 1344 -625 1503 -206 
L 1606 56 
L 191 3500 
L 800 3500 
L 1894 763 
L 2988 3500 
L 3597 3500 
L 2059 -325 
z
" transform="scale(0.015625)"/>
      <path id="DejaVuSans-33" d="M 2597 2516 
Q 3050 2419 3304 2112 
Q 3559 1806 3559 1356 
Q 3559 666 3084 287 
Q 2609 -91 1734 -91 
Q 1441 -91 1130 -33 
Q 819 25 488 141 
L 488 750 
Q 750 597 1062 519 
Q 1375 441 1716 441 
Q 2309 441 2620 675 
Q 2931 909 2931 1356 
Q 2931 1769 2642 2001 
Q 2353 2234 1838 2234 
L 1294 2234 
L 1294 2753 
L 1863 2753 
Q 2328 2753 2575 2939 
Q 2822 3125 2822 3475 
Q 2822 3834 2567 4026 
Q 2313 4219 1838 4219 
Q 1578 4219 1281 4162 
Q 984 4106 628 3988 
L 628 4550 
Q 988 4650 1302 4700 
Q 1616 4750 1894 4750 
Q 2613 4750 3031 4423 
Q 3450 4097 3450 3541 
Q 3450 3153 3228 2886 
Q 3006 2619 2597 2516 
z
" transform="scale(0.015625)"/>
     </defs>
     <use xlink:href="#DejaVuSans-49"/>
     <use xlink:href="#DejaVuSans-6e" x="29.492188"/>
     <use xlink:href="#DejaVuSans-74" x="92.871094"/>
     <use xlink:href="#DejaVuSans-72" x="132.080078"/>
     <use xlink:href="#DejaVuSans-6f" x="170.943359"/>
     <use xlink:href="#DejaVuSans-64" x="232.125"/>
     <use xlink:href="#DejaVuSans-75" x="295.601562"/>
     <use xlink:href="#DejaVuSans-63" x="358.980469"/>
     <use xlink:href="#DejaVuSans-65" x="413.960938"/>
     <use xlink:href="#DejaVuSans-64" x="475.484375"/>
     <use xlink:href="#DejaVuSans-20" x="538.960938"/>
     <use xlink:href="#DejaVuSans-63" x="570.748047"/>
     <use xlink:href="#DejaVuSans-6c" x="625.728516"/>
     <use xlink:href="#DejaVuSans-69" x="653.511719"/>
     <use xlink:href="#DejaVuSans-6e" x="681.294922"/>
     <use xlink:href="#DejaVuSans-69" x="744.673828"/>
     <use xlink:href="#DejaVuSans-63" x="772.457031"/>
     <use xlink:href="#DejaVuSans-61" x="827.4375"/>
     <use xlink:href="#DejaVuSans-6c" x="888.716797"/>
     <use xlink:href="#DejaVuSans-6c" x="916.5"/>
     <use xlink:href="#DejaVuSans-79" x="944.283203"/>
     <use xlink:href="#DejaVuSans-20" x="1003.462891"/>
     <use xlink:href="#DejaVuSans-69" x="1035.25"/>
     <use xlink:href="#DejaVuSans-6e" x="1063.033203"/>
     <use xlink:href="#DejaVuSans-20" x="1126.412109"/>
     <use xlink:href="#DejaVuSans-31" x="1158.199219"/>
     <use xlink:href="#DejaVuSans-39" x="1221.822266"/>
     <use xlink:href="#DejaVuSans-34" x="1285.445312"/>
     <use xlink:href="#DejaVuSans-33" x="1349.068359"/>
    </g>
   </g>
   <g id="legend_1">
    <g id="patch_5">
     <path d="M 254.008397 38.889711 
L 324.154194 38.889711 
Q 325.694194 38.889711 325.694194 37.349711 
L 325.694194 15.515398 
Q 325.694194 13.975398 324.154194 13.975398 
L 254.008397 13.975398 
Q 252.468397 13.975398 252.468397 15.515398 
L 252.468397 37.349711 
Q 252.468397 38.889711 254.008397 38.889711 
z
" style="fill: #ffffff; opacity: 0.8; stroke: #cccccc; stroke-linejoin: miter"/>
    </g>
    <g id="line2d_7">
     <path d="M 255.548397 20.211195 
L 263.248397 20.211195 
L 270.948397 20.211195 
" style="fill: none; stroke: #4c72b0; stroke-width: 1.5; stroke-linecap: round"/>
    </g>
    <g id="text_18">
     <!-- Pre-clinical -->
     <g style="fill: #262626" transform="translate(277.108397 22.906195)scale(0.077 -0.077)">
      <defs>
       <path id="DejaVuSans-50" d="M 1259 4147 
L 1259 2394 
L 2053 2394 
Q 2494 2394 2734 2622 
Q 2975 2850 2975 3272 
Q 2975 3691 2734 3919 
Q 2494 4147 2053 4147 
L 1259 4147 
z
M 628 4666 
L 2053 4666 
Q 2838 4666 3239 4311 
Q 3641 3956 3641 3272 
Q 3641 2581 3239 2228 
Q 2838 1875 2053 1875 
L 1259 1875 
L 1259 0 
L 628 0 
L 628 4666 
z
" transform="scale(0.015625)"/>
      </defs>
      <use xlink:href="#DejaVuSans-50"/>
      <use xlink:href="#DejaVuSans-72" x="58.552734"/>
      <use xlink:href="#DejaVuSans-65" x="97.416016"/>
      <use xlink:href="#DejaVuSans-2d" x="158.939453"/>
      <use xlink:href="#DejaVuSans-63" x="195.023438"/>
      <use xlink:href="#DejaVuSans-6c" x="250.003906"/>
      <use xlink:href="#DejaVuSans-69" x="277.787109"/>
      <use xlink:href="#DejaVuSans-6e" x="305.570312"/>
      <use xlink:href="#DejaVuSans-69" x="368.949219"/>
      <use xlink:href="#DejaVuSans-63" x="396.732422"/>
      <use xlink:href="#DejaVuSans-61" x="451.712891"/>
      <use xlink:href="#DejaVuSans-6c" x="512.992188"/>
     </g>
    </g>
    <g id="line2d_8">
     <path d="M 255.548397 31.513352 
L 263.248397 31.513352 
L 270.948397 31.513352 
" style="fill: none; stroke: #dd8452; stroke-width: 1.5; stroke-linecap: round"/>
    </g>
    <g id="text_19">
     <!-- Post-clinical -->
     <g style="fill: #262626" transform="translate(277.108397 34.208352)scale(0.077 -0.077)">
      <use xlink:href="#DejaVuSans-50"/>
      <use xlink:href="#DejaVuSans-6f" x="56.677734"/>
      <use xlink:href="#DejaVuSans-73" x="117.859375"/>
      <use xlink:href="#DejaVuSans-74" x="169.958984"/>
      <use xlink:href="#DejaVuSans-2d" x="209.167969"/>
      <use xlink:href="#DejaVuSans-63" x="245.251953"/>
      <use xlink:href="#DejaVuSans-6c" x="300.232422"/>
      <use xlink:href="#DejaVuSans-69" x="328.015625"/>
      <use xlink:href="#DejaVuSans-6e" x="355.798828"/>
      <use xlink:href="#DejaVuSans-69" x="419.177734"/>
      <use xlink:href="#DejaVuSans-63" x="446.960938"/>
      <use xlink:href="#DejaVuSans-61" x="501.941406"/>
      <use xlink:href="#DejaVuSans-6c" x="563.220703"/>
     </g>
    </g>
   </g>
  </g>
 </g>
 <defs>
  <clipPath id="pf77a70c906">
   <rect x="50.544194" y="10.125398" width="279" height="163.08"/>
  </clipPath>
 </defs>
</svg>
