<?xml version="1.0" encoding="utf-8" standalone="no"?>
<!DOCTYPE svg PUBLIC "-//W3C//DTD SVG 1.1//EN"
  "http://www.w3.org/Graphics/SVG/1.1/DTD/svg11.dtd">
<svg xmlns:xlink="http://www.w3.org/1999/xlink" width="176.99075pt" height="218.944469pt" viewBox="0 0 176.99075 218.944469" xmlns="http://www.w3.org/2000/svg" version="1.1">
 <metadata>
  <rdf:RDF xmlns:dc="http://purl.org/dc/elements/1.1/" xmlns:cc="http://creativecommons.org/ns#" xmlns:rdf="http://www.w3.org/1999/02/22-rdf-syntax-ns#">
   <cc:Work>
    <dc:type rdf:resource="http://purl.org/dc/dcmitype/StillImage"/>
    <dc:date>2023-06-04T21:14:44.916932</dc:date>
    <dc:format>image/svg+xml</dc:format>
    <dc:creator>
     <cc:Agent>
      <dc:title>Matplotlib v3.5.2, https://matplotlib.org/</dc:title>
     </cc:Agent>
    </dc:creator>
   </cc:Work>
  </rdf:RDF>
 </metadata>
 <defs>
  <style type="text/css">*{stroke-linejoin: round; stroke-linecap: butt}</style>
 </defs>
 <g id="figure_1">
  <g id="patch_1">
   <path d="M 0 218.944469 
L 176.99075 218.944469 
L 176.99075 0 
L 0 0 
z
" style="fill: #ffffff"/>
  </g>
  <g id="axes_1">
   <g id="patch_2">
    <path d="M 33.72875 182.662688 
L 145.32875 182.662688 
L 145.32875 19.582687 
L 33.72875 19.582687 
z
" style="fill: #ffffff"/>
   </g>
   <g id="matplotlib.axis_1">
    <g id="xtick_1">
     <g id="text_1">
      <!-- −0.25 -->
      <g style="fill: #262626" transform="translate(37.223454 198.013484)scale(0.077 -0.077)">
       <defs>
        <path id="DejaVuSans-2212" d="M 678 2272 
L 4684 2272 
L 4684 1741 
L 678 1741 
L 678 2272 
z
" transform="scale(0.015625)"/>
        <path id="DejaVuSans-30" d="M 2034 4250 
Q 1547 4250 1301 3770 
Q 1056 3291 1056 2328 
Q 1056 1369 1301 889 
Q 1547 409 2034 409 
Q 2525 409 2770 889 
Q 3016 1369 3016 2328 
Q 3016 3291 2770 3770 
Q 2525 4250 2034 4250 
z
M 2034 4750 
Q 2819 4750 3233 4129 
Q 3647 3509 3647 2328 
Q 3647 1150 3233 529 
Q 2819 -91 2034 -91 
Q 1250 -91 836 529 
Q 422 1150 422 2328 
Q 422 3509 836 4129 
Q 1250 4750 2034 4750 
z
" transform="scale(0.015625)"/>
        <path id="DejaVuSans-2e" d="M 684 794 
L 1344 794 
L 1344 0 
L 684 0 
L 684 794 
z
" transform="scale(0.015625)"/>
        <path id="DejaVuSans-32" d="M 1228 531 
L 3431 531 
L 3431 0 
L 469 0 
L 469 531 
Q 828 903 1448 1529 
Q 2069 2156 2228 2338 
Q 2531 2678 2651 2914 
Q 2772 3150 2772 3378 
Q 2772 3750 2511 3984 
Q 2250 4219 1831 4219 
Q 1534 4219 1204 4116 
Q 875 4013 500 3803 
L 500 4441 
Q 881 4594 1212 4672 
Q 1544 4750 1819 4750 
Q 2544 4750 2975 4387 
Q 3406 4025 3406 3419 
Q 3406 3131 3298 2873 
Q 3191 2616 2906 2266 
Q 2828 2175 2409 1742 
Q 1991 1309 1228 531 
z
" transform="scale(0.015625)"/>
        <path id="DejaVuSans-35" d="M 691 4666 
L 3169 4666 
L 3169 4134 
L 1269 4134 
L 1269 2991 
Q 1406 3038 1543 3061 
Q 1681 3084 1819 3084 
Q 2600 3084 3056 2656 
Q 3513 2228 3513 1497 
Q 3513 744 3044 326 
Q 2575 -91 1722 -91 
Q 1428 -91 1123 -41 
Q 819 9 494 109 
L 494 744 
Q 775 591 1075 516 
Q 1375 441 1709 441 
Q 2250 441 2565 725 
Q 2881 1009 2881 1497 
Q 2881 1984 2565 2268 
Q 2250 2553 1709 2553 
Q 1456 2553 1204 2497 
Q 953 2441 691 2322 
L 691 4666 
z
" transform="scale(0.015625)"/>
       </defs>
       <use xlink:href="#DejaVuSans-2212"/>
       <use xlink:href="#DejaVuSans-30" x="83.789062"/>
       <use xlink:href="#DejaVuSans-2e" x="147.412109"/>
       <use xlink:href="#DejaVuSans-32" x="179.199219"/>
       <use xlink:href="#DejaVuSans-35" x="242.822266"/>
      </g>
     </g>
    </g>
    <g id="xtick_2">
     <g id="text_2">
      <!-- 0.00 -->
      <g style="fill: #262626" transform="translate(73.190269 198.013484)scale(0.077 -0.077)">
       <use xlink:href="#DejaVuSans-30"/>
       <use xlink:href="#DejaVuSans-2e" x="63.623047"/>
       <use xlink:href="#DejaVuSans-30" x="95.410156"/>
       <use xlink:href="#DejaVuSans-30" x="159.033203"/>
      </g>
     </g>
    </g>
    <g id="xtick_3">
     <g id="text_3">
      <!-- 0.25 -->
      <g style="fill: #262626" transform="translate(105.930904 198.013484)scale(0.077 -0.077)">
       <use xlink:href="#DejaVuSans-30"/>
       <use xlink:href="#DejaVuSans-2e" x="63.623047"/>
       <use xlink:href="#DejaVuSans-32" x="95.410156"/>
       <use xlink:href="#DejaVuSans-35" x="159.033203"/>
      </g>
     </g>
    </g>
    <g id="text_4">
     <!-- Null $\Delta$ distribution in 5000 simulations -->
     <g style="fill: #262626" transform="translate(9.26675 209.997531)scale(0.084 -0.084)">
      <defs>
       <path id="DejaVuSans-4e" d="M 628 4666 
L 1478 4666 
L 3547 763 
L 3547 4666 
L 4159 4666 
L 4159 0 
L 3309 0 
L 1241 3903 
L 1241 0 
L 628 0 
L 628 4666 
z
" transform="scale(0.015625)"/>
       <path id="DejaVuSans-75" d="M 544 1381 
L 544 3500 
L 1119 3500 
L 1119 1403 
Q 1119 906 1312 657 
Q 1506 409 1894 409 
Q 2359 409 2629 706 
Q 2900 1003 2900 1516 
L 2900 3500 
L 3475 3500 
L 3475 0 
L 2900 0 
L 2900 538 
Q 2691 219 2414 64 
Q 2138 -91 1772 -91 
Q 1169 -91 856 284 
Q 544 659 544 1381 
z
M 1991 3584 
L 1991 3584 
z
" transform="scale(0.015625)"/>
       <path id="DejaVuSans-6c" d="M 603 4863 
L 1178 4863 
L 1178 0 
L 603 0 
L 603 4863 
z
" transform="scale(0.015625)"/>
       <path id="DejaVuSans-20" transform="scale(0.015625)"/>
       <path id="DejaVuSans-394" d="M 2188 4044 
L 906 525 
L 3472 525 
L 2188 4044 
z
M 50 0 
L 1831 4666 
L 2547 4666 
L 4325 0 
L 50 0 
z
" transform="scale(0.015625)"/>
       <path id="DejaVuSans-64" d="M 2906 2969 
L 2906 4863 
L 3481 4863 
L 3481 0 
L 2906 0 
L 2906 525 
Q 2725 213 2448 61 
Q 2172 -91 1784 -91 
Q 1150 -91 751 415 
Q 353 922 353 1747 
Q 353 2572 751 3078 
Q 1150 3584 1784 3584 
Q 2172 3584 2448 3432 
Q 2725 3281 2906 2969 
z
M 947 1747 
Q 947 1113 1208 752 
Q 1469 391 1925 391 
Q 2381 391 2643 752 
Q 2906 1113 2906 1747 
Q 2906 2381 2643 2742 
Q 2381 3103 1925 3103 
Q 1469 3103 1208 2742 
Q 947 2381 947 1747 
z
" transform="scale(0.015625)"/>
       <path id="DejaVuSans-69" d="M 603 3500 
L 1178 3500 
L 1178 0 
L 603 0 
L 603 3500 
z
M 603 4863 
L 1178 4863 
L 1178 4134 
L 603 4134 
L 603 4863 
z
" transform="scale(0.015625)"/>
       <path id="DejaVuSans-73" d="M 2834 3397 
L 2834 2853 
Q 2591 2978 2328 3040 
Q 2066 3103 1784 3103 
Q 1356 3103 1142 2972 
Q 928 2841 928 2578 
Q 928 2378 1081 2264 
Q 1234 2150 1697 2047 
L 1894 2003 
Q 2506 1872 2764 1633 
Q 3022 1394 3022 966 
Q 3022 478 2636 193 
Q 2250 -91 1575 -91 
Q 1294 -91 989 -36 
Q 684 19 347 128 
L 347 722 
Q 666 556 975 473 
Q 1284 391 1588 391 
Q 1994 391 2212 530 
Q 2431 669 2431 922 
Q 2431 1156 2273 1281 
Q 2116 1406 1581 1522 
L 1381 1569 
Q 847 1681 609 1914 
Q 372 2147 372 2553 
Q 372 3047 722 3315 
Q 1072 3584 1716 3584 
Q 2034 3584 2315 3537 
Q 2597 3491 2834 3397 
z
" transform="scale(0.015625)"/>
       <path id="DejaVuSans-74" d="M 1172 4494 
L 1172 3500 
L 2356 3500 
L 2356 3053 
L 1172 3053 
L 1172 1153 
Q 1172 725 1289 603 
Q 1406 481 1766 481 
L 2356 481 
L 2356 0 
L 1766 0 
Q 1100 0 847 248 
Q 594 497 594 1153 
L 594 3053 
L 172 3053 
L 172 3500 
L 594 3500 
L 594 4494 
L 1172 4494 
z
" transform="scale(0.015625)"/>
       <path id="DejaVuSans-72" d="M 2631 2963 
Q 2534 3019 2420 3045 
Q 2306 3072 2169 3072 
Q 1681 3072 1420 2755 
Q 1159 2438 1159 1844 
L 1159 0 
L 581 0 
L 581 3500 
L 1159 3500 
L 1159 2956 
Q 1341 3275 1631 3429 
Q 1922 3584 2338 3584 
Q 2397 3584 2469 3576 
Q 2541 3569 2628 3553 
L 2631 2963 
z
" transform="scale(0.015625)"/>
       <path id="DejaVuSans-62" d="M 3116 1747 
Q 3116 2381 2855 2742 
Q 2594 3103 2138 3103 
Q 1681 3103 1420 2742 
Q 1159 2381 1159 1747 
Q 1159 1113 1420 752 
Q 1681 391 2138 391 
Q 2594 391 2855 752 
Q 3116 1113 3116 1747 
z
M 1159 2969 
Q 1341 3281 1617 3432 
Q 1894 3584 2278 3584 
Q 2916 3584 3314 3078 
Q 3713 2572 3713 1747 
Q 3713 922 3314 415 
Q 2916 -91 2278 -91 
Q 1894 -91 1617 61 
Q 1341 213 1159 525 
L 1159 0 
L 581 0 
L 581 4863 
L 1159 4863 
L 1159 2969 
z
" transform="scale(0.015625)"/>
       <path id="DejaVuSans-6f" d="M 1959 3097 
Q 1497 3097 1228 2736 
Q 959 2375 959 1747 
Q 959 1119 1226 758 
Q 1494 397 1959 397 
Q 2419 397 2687 759 
Q 2956 1122 2956 1747 
Q 2956 2369 2687 2733 
Q 2419 3097 1959 3097 
z
M 1959 3584 
Q 2709 3584 3137 3096 
Q 3566 2609 3566 1747 
Q 3566 888 3137 398 
Q 2709 -91 1959 -91 
Q 1206 -91 779 398 
Q 353 888 353 1747 
Q 353 2609 779 3096 
Q 1206 3584 1959 3584 
z
" transform="scale(0.015625)"/>
       <path id="DejaVuSans-6e" d="M 3513 2113 
L 3513 0 
L 2938 0 
L 2938 2094 
Q 2938 2591 2744 2837 
Q 2550 3084 2163 3084 
Q 1697 3084 1428 2787 
Q 1159 2491 1159 1978 
L 1159 0 
L 581 0 
L 581 3500 
L 1159 3500 
L 1159 2956 
Q 1366 3272 1645 3428 
Q 1925 3584 2291 3584 
Q 2894 3584 3203 3211 
Q 3513 2838 3513 2113 
z
" transform="scale(0.015625)"/>
       <path id="DejaVuSans-6d" d="M 3328 2828 
Q 3544 3216 3844 3400 
Q 4144 3584 4550 3584 
Q 5097 3584 5394 3201 
Q 5691 2819 5691 2113 
L 5691 0 
L 5113 0 
L 5113 2094 
Q 5113 2597 4934 2840 
Q 4756 3084 4391 3084 
Q 3944 3084 3684 2787 
Q 3425 2491 3425 1978 
L 3425 0 
L 2847 0 
L 2847 2094 
Q 2847 2600 2669 2842 
Q 2491 3084 2119 3084 
Q 1678 3084 1418 2786 
Q 1159 2488 1159 1978 
L 1159 0 
L 581 0 
L 581 3500 
L 1159 3500 
L 1159 2956 
Q 1356 3278 1631 3431 
Q 1906 3584 2284 3584 
Q 2666 3584 2933 3390 
Q 3200 3197 3328 2828 
z
" transform="scale(0.015625)"/>
       <path id="DejaVuSans-61" d="M 2194 1759 
Q 1497 1759 1228 1600 
Q 959 1441 959 1056 
Q 959 750 1161 570 
Q 1363 391 1709 391 
Q 2188 391 2477 730 
Q 2766 1069 2766 1631 
L 2766 1759 
L 2194 1759 
z
M 3341 1997 
L 3341 0 
L 2766 0 
L 2766 531 
Q 2569 213 2275 61 
Q 1981 -91 1556 -91 
Q 1019 -91 701 211 
Q 384 513 384 1019 
Q 384 1609 779 1909 
Q 1175 2209 1959 2209 
L 2766 2209 
L 2766 2266 
Q 2766 2663 2505 2880 
Q 2244 3097 1772 3097 
Q 1472 3097 1187 3025 
Q 903 2953 641 2809 
L 641 3341 
Q 956 3463 1253 3523 
Q 1550 3584 1831 3584 
Q 2591 3584 2966 3190 
Q 3341 2797 3341 1997 
z
" transform="scale(0.015625)"/>
      </defs>
      <use xlink:href="#DejaVuSans-4e" transform="translate(0 0.015625)"/>
      <use xlink:href="#DejaVuSans-75" transform="translate(74.804688 0.015625)"/>
      <use xlink:href="#DejaVuSans-6c" transform="translate(138.183594 0.015625)"/>
      <use xlink:href="#DejaVuSans-6c" transform="translate(165.966797 0.015625)"/>
      <use xlink:href="#DejaVuSans-20" transform="translate(193.75 0.015625)"/>
      <use xlink:href="#DejaVuSans-394" transform="translate(225.537109 0.015625)"/>
      <use xlink:href="#DejaVuSans-20" transform="translate(293.945312 0.015625)"/>
      <use xlink:href="#DejaVuSans-64" transform="translate(325.732422 0.015625)"/>
      <use xlink:href="#DejaVuSans-69" transform="translate(389.208984 0.015625)"/>
      <use xlink:href="#DejaVuSans-73" transform="translate(416.992188 0.015625)"/>
      <use xlink:href="#DejaVuSans-74" transform="translate(469.091797 0.015625)"/>
      <use xlink:href="#DejaVuSans-72" transform="translate(508.300781 0.015625)"/>
      <use xlink:href="#DejaVuSans-69" transform="translate(549.414062 0.015625)"/>
      <use xlink:href="#DejaVuSans-62" transform="translate(577.197266 0.015625)"/>
      <use xlink:href="#DejaVuSans-75" transform="translate(640.673828 0.015625)"/>
      <use xlink:href="#DejaVuSans-74" transform="translate(704.052734 0.015625)"/>
      <use xlink:href="#DejaVuSans-69" transform="translate(743.261719 0.015625)"/>
      <use xlink:href="#DejaVuSans-6f" transform="translate(771.044922 0.015625)"/>
      <use xlink:href="#DejaVuSans-6e" transform="translate(832.226562 0.015625)"/>
      <use xlink:href="#DejaVuSans-20" transform="translate(895.605469 0.015625)"/>
      <use xlink:href="#DejaVuSans-69" transform="translate(927.392578 0.015625)"/>
      <use xlink:href="#DejaVuSans-6e" transform="translate(955.175781 0.015625)"/>
      <use xlink:href="#DejaVuSans-20" transform="translate(1018.554688 0.015625)"/>
      <use xlink:href="#DejaVuSans-35" transform="translate(1050.341797 0.015625)"/>
      <use xlink:href="#DejaVuSans-30" transform="translate(1113.964844 0.015625)"/>
      <use xlink:href="#DejaVuSans-30" transform="translate(1177.587891 0.015625)"/>
      <use xlink:href="#DejaVuSans-30" transform="translate(1241.210938 0.015625)"/>
      <use xlink:href="#DejaVuSans-20" transform="translate(1304.833984 0.015625)"/>
      <use xlink:href="#DejaVuSans-73" transform="translate(1336.621094 0.015625)"/>
      <use xlink:href="#DejaVuSans-69" transform="translate(1388.720703 0.015625)"/>
      <use xlink:href="#DejaVuSans-6d" transform="translate(1416.503906 0.015625)"/>
      <use xlink:href="#DejaVuSans-75" transform="translate(1513.916016 0.015625)"/>
      <use xlink:href="#DejaVuSans-6c" transform="translate(1577.294922 0.015625)"/>
      <use xlink:href="#DejaVuSans-61" transform="translate(1605.078125 0.015625)"/>
      <use xlink:href="#DejaVuSans-74" transform="translate(1666.357422 0.015625)"/>
      <use xlink:href="#DejaVuSans-69" transform="translate(1705.566406 0.015625)"/>
      <use xlink:href="#DejaVuSans-6f" transform="translate(1733.349609 0.015625)"/>
      <use xlink:href="#DejaVuSans-6e" transform="translate(1794.53125 0.015625)"/>
      <use xlink:href="#DejaVuSans-73" transform="translate(1857.910156 0.015625)"/>
     </g>
    </g>
   </g>
   <g id="matplotlib.axis_2">
    <g id="ytick_1">
     <g id="text_5">
      <!-- 0 -->
      <g style="fill: #262626" transform="translate(19.329625 185.588086)scale(0.077 -0.077)">
       <use xlink:href="#DejaVuSans-30"/>
      </g>
     </g>
    </g>
    <g id="ytick_2">
     <g id="text_6">
      <!-- 1 -->
      <g style="fill: #262626" transform="translate(19.329625 151.586763)scale(0.077 -0.077)">
       <defs>
        <path id="DejaVuSans-31" d="M 794 531 
L 1825 531 
L 1825 4091 
L 703 3866 
L 703 4441 
L 1819 4666 
L 2450 4666 
L 2450 531 
L 3481 531 
L 3481 0 
L 794 0 
L 794 531 
z
" transform="scale(0.015625)"/>
       </defs>
       <use xlink:href="#DejaVuSans-31"/>
      </g>
     </g>
    </g>
    <g id="ytick_3">
     <g id="text_7">
      <!-- 2 -->
      <g style="fill: #262626" transform="translate(19.329625 117.585439)scale(0.077 -0.077)">
       <use xlink:href="#DejaVuSans-32"/>
      </g>
     </g>
    </g>
    <g id="ytick_4">
     <g id="text_8">
      <!-- 3 -->
      <g style="fill: #262626" transform="translate(19.329625 83.584116)scale(0.077 -0.077)">
       <defs>
        <path id="DejaVuSans-33" d="M 2597 2516 
Q 3050 2419 3304 2112 
Q 3559 1806 3559 1356 
Q 3559 666 3084 287 
Q 2609 -91 1734 -91 
Q 1441 -91 1130 -33 
Q 819 25 488 141 
L 488 750 
Q 750 597 1062 519 
Q 1375 441 1716 441 
Q 2309 441 2620 675 
Q 2931 909 2931 1356 
Q 2931 1769 2642 2001 
Q 2353 2234 1838 2234 
L 1294 2234 
L 1294 2753 
L 1863 2753 
Q 2328 2753 2575 2939 
Q 2822 3125 2822 3475 
Q 2822 3834 2567 4026 
Q 2313 4219 1838 4219 
Q 1578 4219 1281 4162 
Q 984 4106 628 3988 
L 628 4550 
Q 988 4650 1302 4700 
Q 1616 4750 1894 4750 
Q 2613 4750 3031 4423 
Q 3450 4097 3450 3541 
Q 3450 3153 3228 2886 
Q 3006 2619 2597 2516 
z
" transform="scale(0.015625)"/>
       </defs>
       <use xlink:href="#DejaVuSans-33"/>
      </g>
     </g>
    </g>
    <g id="ytick_5">
     <g id="text_9">
      <!-- 4 -->
      <g style="fill: #262626" transform="translate(19.329625 49.582792)scale(0.077 -0.077)">
       <defs>
        <path id="DejaVuSans-34" d="M 2419 4116 
L 825 1625 
L 2419 1625 
L 2419 4116 
z
M 2253 4666 
L 3047 4666 
L 3047 1625 
L 3713 1625 
L 3713 1100 
L 3047 1100 
L 3047 0 
L 2419 0 
L 2419 1100 
L 313 1100 
L 313 1709 
L 2253 4666 
z
" transform="scale(0.015625)"/>
       </defs>
       <use xlink:href="#DejaVuSans-34"/>
      </g>
     </g>
    </g>
    <g id="text_10">
     <!-- Density -->
     <g style="fill: #262626" transform="translate(13.582688 117.089906)rotate(-90)scale(0.084 -0.084)">
      <defs>
       <path id="DejaVuSans-44" d="M 1259 4147 
L 1259 519 
L 2022 519 
Q 2988 519 3436 956 
Q 3884 1394 3884 2338 
Q 3884 3275 3436 3711 
Q 2988 4147 2022 4147 
L 1259 4147 
z
M 628 4666 
L 1925 4666 
Q 3281 4666 3915 4102 
Q 4550 3538 4550 2338 
Q 4550 1131 3912 565 
Q 3275 0 1925 0 
L 628 0 
L 628 4666 
z
" transform="scale(0.015625)"/>
       <path id="DejaVuSans-65" d="M 3597 1894 
L 3597 1613 
L 953 1613 
Q 991 1019 1311 708 
Q 1631 397 2203 397 
Q 2534 397 2845 478 
Q 3156 559 3463 722 
L 3463 178 
Q 3153 47 2828 -22 
Q 2503 -91 2169 -91 
Q 1331 -91 842 396 
Q 353 884 353 1716 
Q 353 2575 817 3079 
Q 1281 3584 2069 3584 
Q 2775 3584 3186 3129 
Q 3597 2675 3597 1894 
z
M 3022 2063 
Q 3016 2534 2758 2815 
Q 2500 3097 2075 3097 
Q 1594 3097 1305 2825 
Q 1016 2553 972 2059 
L 3022 2063 
z
" transform="scale(0.015625)"/>
       <path id="DejaVuSans-79" d="M 2059 -325 
Q 1816 -950 1584 -1140 
Q 1353 -1331 966 -1331 
L 506 -1331 
L 506 -850 
L 844 -850 
Q 1081 -850 1212 -737 
Q 1344 -625 1503 -206 
L 1606 56 
L 191 3500 
L 800 3500 
L 1894 763 
L 2988 3500 
L 3597 3500 
L 2059 -325 
z
" transform="scale(0.015625)"/>
      </defs>
      <use xlink:href="#DejaVuSans-44"/>
      <use xlink:href="#DejaVuSans-65" x="77.001953"/>
      <use xlink:href="#DejaVuSans-6e" x="138.525391"/>
      <use xlink:href="#DejaVuSans-73" x="201.904297"/>
      <use xlink:href="#DejaVuSans-69" x="254.003906"/>
      <use xlink:href="#DejaVuSans-74" x="281.787109"/>
      <use xlink:href="#DejaVuSans-79" x="320.996094"/>
     </g>
    </g>
   </g>
   <g id="patch_3">
    <path d="M 43.033206 182.662688 
L 44.913975 182.662688 
L 44.913975 180.768611 
L 43.033206 180.768611 
z
" clip-path="url(#pa02914d4e5)" style="fill: #4c72b0; fill-opacity: 0.75"/>
   </g>
   <g id="patch_4">
    <path d="M 44.913975 182.662688 
L 46.794743 182.662688 
L 46.794743 181.715649 
L 44.913975 181.715649 
z
" clip-path="url(#pa02914d4e5)" style="fill: #4c72b0; fill-opacity: 0.75"/>
   </g>
   <g id="patch_5">
    <path d="M 46.794743 182.662688 
L 48.675512 182.662688 
L 48.675512 180.295092 
L 46.794743 180.295092 
z
" clip-path="url(#pa02914d4e5)" style="fill: #4c72b0; fill-opacity: 0.75"/>
   </g>
   <g id="patch_6">
    <path d="M 48.675512 182.662688 
L 50.55628 182.662688 
L 50.55628 179.348053 
L 48.675512 179.348053 
z
" clip-path="url(#pa02914d4e5)" style="fill: #4c72b0; fill-opacity: 0.75"/>
   </g>
   <g id="patch_7">
    <path d="M 50.55628 182.662688 
L 52.437049 182.662688 
L 52.437049 174.612862 
L 50.55628 174.612862 
z
" clip-path="url(#pa02914d4e5)" style="fill: #4c72b0; fill-opacity: 0.75"/>
   </g>
   <g id="patch_8">
    <path d="M 52.437049 182.662688 
L 54.317817 182.662688 
L 54.317817 174.612862 
L 52.437049 174.612862 
z
" clip-path="url(#pa02914d4e5)" style="fill: #4c72b0; fill-opacity: 0.75"/>
   </g>
   <g id="patch_9">
    <path d="M 54.317817 182.662688 
L 56.198586 182.662688 
L 56.198586 170.824708 
L 54.317817 170.824708 
z
" clip-path="url(#pa02914d4e5)" style="fill: #4c72b0; fill-opacity: 0.75"/>
   </g>
   <g id="patch_10">
    <path d="M 56.198586 182.662688 
L 58.079354 182.662688 
L 58.079354 160.880806 
L 56.198586 160.880806 
z
" clip-path="url(#pa02914d4e5)" style="fill: #4c72b0; fill-opacity: 0.75"/>
   </g>
   <g id="patch_11">
    <path d="M 58.079354 182.662688 
L 59.960123 182.662688 
L 59.960123 160.880806 
L 58.079354 160.880806 
z
" clip-path="url(#pa02914d4e5)" style="fill: #4c72b0; fill-opacity: 0.75"/>
   </g>
   <g id="patch_12">
    <path d="M 59.960123 182.662688 
L 61.840891 182.662688 
L 61.840891 140.519482 
L 59.960123 140.519482 
z
" clip-path="url(#pa02914d4e5)" style="fill: #4c72b0; fill-opacity: 0.75"/>
   </g>
   <g id="patch_13">
    <path d="M 61.840891 182.662688 
L 63.72166 182.662688 
L 63.72166 142.887078 
L 61.840891 142.887078 
z
" clip-path="url(#pa02914d4e5)" style="fill: #4c72b0; fill-opacity: 0.75"/>
   </g>
   <g id="patch_14">
    <path d="M 63.72166 182.662688 
L 65.602428 182.662688 
L 65.602428 129.155022 
L 63.72166 129.155022 
z
" clip-path="url(#pa02914d4e5)" style="fill: #4c72b0; fill-opacity: 0.75"/>
   </g>
   <g id="patch_15">
    <path d="M 65.602428 182.662688 
L 67.483197 182.662688 
L 67.483197 115.896485 
L 65.602428 115.896485 
z
" clip-path="url(#pa02914d4e5)" style="fill: #4c72b0; fill-opacity: 0.75"/>
   </g>
   <g id="patch_16">
    <path d="M 67.483197 182.662688 
L 69.363965 182.662688 
L 69.363965 106.426102 
L 67.483197 106.426102 
z
" clip-path="url(#pa02914d4e5)" style="fill: #4c72b0; fill-opacity: 0.75"/>
   </g>
   <g id="patch_17">
    <path d="M 69.363965 182.662688 
L 71.244734 182.662688 
L 71.244734 89.379412 
L 69.363965 89.379412 
z
" clip-path="url(#pa02914d4e5)" style="fill: #4c72b0; fill-opacity: 0.75"/>
   </g>
   <g id="patch_18">
    <path d="M 71.244734 182.662688 
L 73.125503 182.662688 
L 73.125503 86.538297 
L 71.244734 86.538297 
z
" clip-path="url(#pa02914d4e5)" style="fill: #4c72b0; fill-opacity: 0.75"/>
   </g>
   <g id="patch_19">
    <path d="M 73.125503 182.662688 
L 75.006271 182.662688 
L 75.006271 61.441782 
L 73.125503 61.441782 
z
" clip-path="url(#pa02914d4e5)" style="fill: #4c72b0; fill-opacity: 0.75"/>
   </g>
   <g id="patch_20">
    <path d="M 75.006271 182.662688 
L 76.88704 182.662688 
L 76.88704 48.183245 
L 75.006271 48.183245 
z
" clip-path="url(#pa02914d4e5)" style="fill: #4c72b0; fill-opacity: 0.75"/>
   </g>
   <g id="patch_21">
    <path d="M 76.88704 182.662688 
L 78.767808 182.662688 
L 78.767808 37.292304 
L 76.88704 37.292304 
z
" clip-path="url(#pa02914d4e5)" style="fill: #4c72b0; fill-opacity: 0.75"/>
   </g>
   <g id="patch_22">
    <path d="M 78.767808 182.662688 
L 80.648577 182.662688 
L 80.648577 27.348402 
L 78.767808 27.348402 
z
" clip-path="url(#pa02914d4e5)" style="fill: #4c72b0; fill-opacity: 0.75"/>
   </g>
   <g id="patch_23">
    <path d="M 80.648577 182.662688 
L 82.529345 182.662688 
L 82.529345 37.765823 
L 80.648577 37.765823 
z
" clip-path="url(#pa02914d4e5)" style="fill: #4c72b0; fill-opacity: 0.75"/>
   </g>
   <g id="patch_24">
    <path d="M 82.529345 182.662688 
L 84.410114 182.662688 
L 84.410114 34.924708 
L 82.529345 34.924708 
z
" clip-path="url(#pa02914d4e5)" style="fill: #4c72b0; fill-opacity: 0.75"/>
   </g>
   <g id="patch_25">
    <path d="M 84.410114 182.662688 
L 86.290882 182.662688 
L 86.290882 54.338994 
L 84.410114 54.338994 
z
" clip-path="url(#pa02914d4e5)" style="fill: #4c72b0; fill-opacity: 0.75"/>
   </g>
   <g id="patch_26">
    <path d="M 86.290882 182.662688 
L 88.171651 182.662688 
L 88.171651 51.02436 
L 86.290882 51.02436 
z
" clip-path="url(#pa02914d4e5)" style="fill: #4c72b0; fill-opacity: 0.75"/>
   </g>
   <g id="patch_27">
    <path d="M 88.171651 182.662688 
L 90.052419 182.662688 
L 90.052419 61.915301 
L 88.171651 61.915301 
z
" clip-path="url(#pa02914d4e5)" style="fill: #4c72b0; fill-opacity: 0.75"/>
   </g>
   <g id="patch_28">
    <path d="M 90.052419 182.662688 
L 91.933188 182.662688 
L 91.933188 67.597531 
L 90.052419 67.597531 
z
" clip-path="url(#pa02914d4e5)" style="fill: #4c72b0; fill-opacity: 0.75"/>
   </g>
   <g id="patch_29">
    <path d="M 91.933188 182.662688 
L 93.813956 182.662688 
L 93.813956 79.909029 
L 91.933188 79.909029 
z
" clip-path="url(#pa02914d4e5)" style="fill: #4c72b0; fill-opacity: 0.75"/>
   </g>
   <g id="patch_30">
    <path d="M 93.813956 182.662688 
L 95.694725 182.662688 
L 95.694725 109.267217 
L 93.813956 109.267217 
z
" clip-path="url(#pa02914d4e5)" style="fill: #4c72b0; fill-opacity: 0.75"/>
   </g>
   <g id="patch_31">
    <path d="M 95.694725 182.662688 
L 97.575493 182.662688 
L 97.575493 119.21112 
L 95.694725 119.21112 
z
" clip-path="url(#pa02914d4e5)" style="fill: #4c72b0; fill-opacity: 0.75"/>
   </g>
   <g id="patch_32">
    <path d="M 97.575493 182.662688 
L 99.456262 182.662688 
L 99.456262 125.366869 
L 97.575493 125.366869 
z
" clip-path="url(#pa02914d4e5)" style="fill: #4c72b0; fill-opacity: 0.75"/>
   </g>
   <g id="patch_33">
    <path d="M 99.456262 182.662688 
L 101.33703 182.662688 
L 101.33703 133.890214 
L 99.456262 133.890214 
z
" clip-path="url(#pa02914d4e5)" style="fill: #4c72b0; fill-opacity: 0.75"/>
   </g>
   <g id="patch_34">
    <path d="M 101.33703 182.662688 
L 103.217799 182.662688 
L 103.217799 147.622269 
L 101.33703 147.622269 
z
" clip-path="url(#pa02914d4e5)" style="fill: #4c72b0; fill-opacity: 0.75"/>
   </g>
   <g id="patch_35">
    <path d="M 103.217799 182.662688 
L 105.098567 182.662688 
L 105.098567 160.407287 
L 103.217799 160.407287 
z
" clip-path="url(#pa02914d4e5)" style="fill: #4c72b0; fill-opacity: 0.75"/>
   </g>
   <g id="patch_36">
    <path d="M 105.098567 182.662688 
L 106.979336 182.662688 
L 106.979336 162.301363 
L 105.098567 162.301363 
z
" clip-path="url(#pa02914d4e5)" style="fill: #4c72b0; fill-opacity: 0.75"/>
   </g>
   <g id="patch_37">
    <path d="M 106.979336 182.662688 
L 108.860104 182.662688 
L 108.860104 167.036555 
L 106.979336 167.036555 
z
" clip-path="url(#pa02914d4e5)" style="fill: #4c72b0; fill-opacity: 0.75"/>
   </g>
   <g id="patch_38">
    <path d="M 108.860104 182.662688 
L 110.740873 182.662688 
L 110.740873 171.771747 
L 108.860104 171.771747 
z
" clip-path="url(#pa02914d4e5)" style="fill: #4c72b0; fill-opacity: 0.75"/>
   </g>
   <g id="patch_39">
    <path d="M 110.740873 182.662688 
L 112.621641 182.662688 
L 112.621641 174.139343 
L 110.740873 174.139343 
z
" clip-path="url(#pa02914d4e5)" style="fill: #4c72b0; fill-opacity: 0.75"/>
   </g>
   <g id="patch_40">
    <path d="M 112.621641 182.662688 
L 114.50241 182.662688 
L 114.50241 176.033419 
L 112.621641 176.033419 
z
" clip-path="url(#pa02914d4e5)" style="fill: #4c72b0; fill-opacity: 0.75"/>
   </g>
   <g id="patch_41">
    <path d="M 114.50241 182.662688 
L 116.383178 182.662688 
L 116.383178 180.295092 
L 114.50241 180.295092 
z
" clip-path="url(#pa02914d4e5)" style="fill: #4c72b0; fill-opacity: 0.75"/>
   </g>
   <g id="patch_42">
    <path d="M 116.383178 182.662688 
L 118.263947 182.662688 
L 118.263947 179.348053 
L 116.383178 179.348053 
z
" clip-path="url(#pa02914d4e5)" style="fill: #4c72b0; fill-opacity: 0.75"/>
   </g>
   <g id="patch_43">
    <path d="M 118.263947 182.662688 
L 120.144715 182.662688 
L 120.144715 181.715649 
L 118.263947 181.715649 
z
" clip-path="url(#pa02914d4e5)" style="fill: #4c72b0; fill-opacity: 0.75"/>
   </g>
   <g id="patch_44">
    <path d="M 120.144715 182.662688 
L 122.025484 182.662688 
L 122.025484 181.24213 
L 120.144715 181.24213 
z
" clip-path="url(#pa02914d4e5)" style="fill: #4c72b0; fill-opacity: 0.75"/>
   </g>
   <g id="patch_45">
    <path d="M 122.025484 182.662688 
L 123.906252 182.662688 
L 123.906252 181.715649 
L 122.025484 181.715649 
z
" clip-path="url(#pa02914d4e5)" style="fill: #4c72b0; fill-opacity: 0.75"/>
   </g>
   <g id="patch_46">
    <path d="M 123.906252 182.662688 
L 125.787021 182.662688 
L 125.787021 182.189168 
L 123.906252 182.189168 
z
" clip-path="url(#pa02914d4e5)" style="fill: #4c72b0; fill-opacity: 0.75"/>
   </g>
   <g id="patch_47">
    <path d="M 125.787021 182.662688 
L 127.667789 182.662688 
L 127.667789 182.189168 
L 125.787021 182.189168 
z
" clip-path="url(#pa02914d4e5)" style="fill: #4c72b0; fill-opacity: 0.75"/>
   </g>
   <g id="line2d_1">
    <path d="M 38.801477 182.393239 
L 41.669471 182.056448 
L 43.829777 181.586486 
L 45.617617 180.973185 
L 47.163354 180.210795 
L 48.578727 179.263134 
L 49.900984 178.105813 
L 51.16737 176.696445 
L 52.415134 174.964524 
L 53.644274 172.869334 
L 54.892037 170.288928 
L 56.158424 167.142665 
L 57.462057 163.287954 
L 58.82156 158.543171 
L 60.236933 152.766296 
L 61.745423 145.637347 
L 63.365653 136.871356 
L 65.19074 125.716838 
L 67.388293 110.812824 
L 74.91212 58.431859 
L 76.383363 50.468247 
L 77.59388 45.059844 
L 78.636786 41.355421 
L 79.530706 38.948379 
L 80.294263 37.485193 
L 80.94608 36.682408 
L 81.50478 36.327244 
L 81.988986 36.269991 
L 82.473193 36.445731 
L 82.994646 36.894567 
L 83.571969 37.702489 
L 84.242409 39.043675 
L 85.024589 41.139823 
L 85.918509 44.204254 
L 86.961416 48.61828 
L 88.171933 54.75588 
L 89.624553 63.329201 
L 91.486886 75.750382 
L 94.708723 99.046746 
L 97.911936 121.594508 
L 99.997749 134.724868 
L 101.785589 144.61332 
L 103.405819 152.3741 
L 104.914309 158.559061 
L 106.348306 163.539449 
L 107.726432 167.553491 
L 109.067312 170.796538 
L 110.370946 173.389935 
L 111.674579 175.499689 
L 112.978212 177.192927 
L 114.300469 178.550737 
L 115.659972 179.633962 
L 117.112592 180.508159 
L 118.695575 181.200227 
L 120.502039 181.742174 
L 122.662345 182.148695 
L 125.418598 182.429296 
L 129.441238 182.595473 
L 131.899518 182.632931 
L 131.899518 182.632931 
" clip-path="url(#pa02914d4e5)" style="fill: none; stroke: #1a1a1a; stroke-width: 2; stroke-linecap: round"/>
   </g>
   <g id="line2d_2">
    <path d="M 140.256023 182.662688 
L 140.256023 19.582687 
" clip-path="url(#pa02914d4e5)" style="fill: none; stroke: #ff0000; stroke-width: 1.5; stroke-linecap: round"/>
   </g>
   <g id="patch_48">
    <path d="M 33.72875 182.662688 
L 33.72875 19.582687 
" style="fill: none; stroke: #262626; stroke-width: 1.25; stroke-linejoin: miter; stroke-linecap: square"/>
   </g>
   <g id="patch_49">
    <path d="M 33.72875 182.662688 
L 145.32875 182.662688 
" style="fill: none; stroke: #262626; stroke-width: 1.25; stroke-linejoin: miter; stroke-linecap: square"/>
   </g>
   <g id="text_11">
    <!-- Observed $\Delta$ = 0.447 -->
    <g style="fill: #262626" transform="translate(135.911585 102.335062)rotate(-90)scale(0.058296 -0.058296)">
     <defs>
      <path id="DejaVuSans-4f" d="M 2522 4238 
Q 1834 4238 1429 3725 
Q 1025 3213 1025 2328 
Q 1025 1447 1429 934 
Q 1834 422 2522 422 
Q 3209 422 3611 934 
Q 4013 1447 4013 2328 
Q 4013 3213 3611 3725 
Q 3209 4238 2522 4238 
z
M 2522 4750 
Q 3503 4750 4090 4092 
Q 4678 3434 4678 2328 
Q 4678 1225 4090 567 
Q 3503 -91 2522 -91 
Q 1538 -91 948 565 
Q 359 1222 359 2328 
Q 359 3434 948 4092 
Q 1538 4750 2522 4750 
z
" transform="scale(0.015625)"/>
      <path id="DejaVuSans-76" d="M 191 3500 
L 800 3500 
L 1894 563 
L 2988 3500 
L 3597 3500 
L 2284 0 
L 1503 0 
L 191 3500 
z
" transform="scale(0.015625)"/>
      <path id="DejaVuSans-3d" d="M 678 2906 
L 4684 2906 
L 4684 2381 
L 678 2381 
L 678 2906 
z
M 678 1631 
L 4684 1631 
L 4684 1100 
L 678 1100 
L 678 1631 
z
" transform="scale(0.015625)"/>
      <path id="DejaVuSans-37" d="M 525 4666 
L 3525 4666 
L 3525 4397 
L 1831 0 
L 1172 0 
L 2766 4134 
L 525 4134 
L 525 4666 
z
" transform="scale(0.015625)"/>
     </defs>
     <use xlink:href="#DejaVuSans-4f" transform="translate(0 0.015625)"/>
     <use xlink:href="#DejaVuSans-62" transform="translate(78.710938 0.015625)"/>
     <use xlink:href="#DejaVuSans-73" transform="translate(142.1875 0.015625)"/>
     <use xlink:href="#DejaVuSans-65" transform="translate(194.287109 0.015625)"/>
     <use xlink:href="#DejaVuSans-72" transform="translate(255.810547 0.015625)"/>
     <use xlink:href="#DejaVuSans-76" transform="translate(296.923828 0.015625)"/>
     <use xlink:href="#DejaVuSans-65" transform="translate(356.103516 0.015625)"/>
     <use xlink:href="#DejaVuSans-64" transform="translate(417.626953 0.015625)"/>
     <use xlink:href="#DejaVuSans-20" transform="translate(481.103516 0.015625)"/>
     <use xlink:href="#DejaVuSans-394" transform="translate(512.890625 0.015625)"/>
     <use xlink:href="#DejaVuSans-20" transform="translate(581.298828 0.015625)"/>
     <use xlink:href="#DejaVuSans-3d" transform="translate(613.085938 0.015625)"/>
     <use xlink:href="#DejaVuSans-20" transform="translate(696.875 0.015625)"/>
     <use xlink:href="#DejaVuSans-30" transform="translate(728.662109 0.015625)"/>
     <use xlink:href="#DejaVuSans-2e" transform="translate(792.285156 0.015625)"/>
     <use xlink:href="#DejaVuSans-34" transform="translate(824.072266 0.015625)"/>
     <use xlink:href="#DejaVuSans-34" transform="translate(887.695312 0.015625)"/>
     <use xlink:href="#DejaVuSans-37" transform="translate(951.318359 0.015625)"/>
    </g>
   </g>
   <g id="text_12">
    <g id="patch_50">
     <path d="M 72.235062 38.386312 
L 139.74875 38.386312 
Q 142.26875 38.386312 142.26875 35.866312 
L 142.26875 27.736687 
Q 142.26875 25.216687 139.74875 25.216687 
L 72.235062 25.216687 
Q 69.715062 25.216687 69.715062 27.736687 
L 69.715062 35.866312 
Q 69.715062 38.386312 72.235062 38.386312 
z
" style="fill: #ffffff"/>
    </g>
    <!-- p-value = 0.005 -->
    <g style="fill: #262626" transform="translate(72.235062 34.119375)scale(0.084 -0.084)">
     <defs>
      <path id="DejaVuSans-70" d="M 1159 525 
L 1159 -1331 
L 581 -1331 
L 581 3500 
L 1159 3500 
L 1159 2969 
Q 1341 3281 1617 3432 
Q 1894 3584 2278 3584 
Q 2916 3584 3314 3078 
Q 3713 2572 3713 1747 
Q 3713 922 3314 415 
Q 2916 -91 2278 -91 
Q 1894 -91 1617 61 
Q 1341 213 1159 525 
z
M 3116 1747 
Q 3116 2381 2855 2742 
Q 2594 3103 2138 3103 
Q 1681 3103 1420 2742 
Q 1159 2381 1159 1747 
Q 1159 1113 1420 752 
Q 1681 391 2138 391 
Q 2594 391 2855 752 
Q 3116 1113 3116 1747 
z
" transform="scale(0.015625)"/>
      <path id="DejaVuSans-2d" d="M 313 2009 
L 1997 2009 
L 1997 1497 
L 313 1497 
L 313 2009 
z
" transform="scale(0.015625)"/>
     </defs>
     <use xlink:href="#DejaVuSans-70"/>
     <use xlink:href="#DejaVuSans-2d" x="63.476562"/>
     <use xlink:href="#DejaVuSans-76" x="96.935547"/>
     <use xlink:href="#DejaVuSans-61" x="156.115234"/>
     <use xlink:href="#DejaVuSans-6c" x="217.394531"/>
     <use xlink:href="#DejaVuSans-75" x="245.177734"/>
     <use xlink:href="#DejaVuSans-65" x="308.556641"/>
     <use xlink:href="#DejaVuSans-20" x="370.080078"/>
     <use xlink:href="#DejaVuSans-3d" x="401.867188"/>
     <use xlink:href="#DejaVuSans-20" x="485.65625"/>
     <use xlink:href="#DejaVuSans-30" x="517.443359"/>
     <use xlink:href="#DejaVuSans-2e" x="581.066406"/>
     <use xlink:href="#DejaVuSans-30" x="612.853516"/>
     <use xlink:href="#DejaVuSans-30" x="676.476562"/>
     <use xlink:href="#DejaVuSans-35" x="740.099609"/>
    </g>
   </g>
   <g id="text_13">
    <!-- Unstructured Shuffling -->
    <g style="fill: #262626" transform="translate(42.1265 13.582687)scale(0.084 -0.084)">
     <defs>
      <path id="DejaVuSans-55" d="M 556 4666 
L 1191 4666 
L 1191 1831 
Q 1191 1081 1462 751 
Q 1734 422 2344 422 
Q 2950 422 3222 751 
Q 3494 1081 3494 1831 
L 3494 4666 
L 4128 4666 
L 4128 1753 
Q 4128 841 3676 375 
Q 3225 -91 2344 -91 
Q 1459 -91 1007 375 
Q 556 841 556 1753 
L 556 4666 
z
" transform="scale(0.015625)"/>
      <path id="DejaVuSans-63" d="M 3122 3366 
L 3122 2828 
Q 2878 2963 2633 3030 
Q 2388 3097 2138 3097 
Q 1578 3097 1268 2742 
Q 959 2388 959 1747 
Q 959 1106 1268 751 
Q 1578 397 2138 397 
Q 2388 397 2633 464 
Q 2878 531 3122 666 
L 3122 134 
Q 2881 22 2623 -34 
Q 2366 -91 2075 -91 
Q 1284 -91 818 406 
Q 353 903 353 1747 
Q 353 2603 823 3093 
Q 1294 3584 2113 3584 
Q 2378 3584 2631 3529 
Q 2884 3475 3122 3366 
z
" transform="scale(0.015625)"/>
      <path id="DejaVuSans-53" d="M 3425 4513 
L 3425 3897 
Q 3066 4069 2747 4153 
Q 2428 4238 2131 4238 
Q 1616 4238 1336 4038 
Q 1056 3838 1056 3469 
Q 1056 3159 1242 3001 
Q 1428 2844 1947 2747 
L 2328 2669 
Q 3034 2534 3370 2195 
Q 3706 1856 3706 1288 
Q 3706 609 3251 259 
Q 2797 -91 1919 -91 
Q 1588 -91 1214 -16 
Q 841 59 441 206 
L 441 856 
Q 825 641 1194 531 
Q 1563 422 1919 422 
Q 2459 422 2753 634 
Q 3047 847 3047 1241 
Q 3047 1584 2836 1778 
Q 2625 1972 2144 2069 
L 1759 2144 
Q 1053 2284 737 2584 
Q 422 2884 422 3419 
Q 422 4038 858 4394 
Q 1294 4750 2059 4750 
Q 2388 4750 2728 4690 
Q 3069 4631 3425 4513 
z
" transform="scale(0.015625)"/>
      <path id="DejaVuSans-68" d="M 3513 2113 
L 3513 0 
L 2938 0 
L 2938 2094 
Q 2938 2591 2744 2837 
Q 2550 3084 2163 3084 
Q 1697 3084 1428 2787 
Q 1159 2491 1159 1978 
L 1159 0 
L 581 0 
L 581 4863 
L 1159 4863 
L 1159 2956 
Q 1366 3272 1645 3428 
Q 1925 3584 2291 3584 
Q 2894 3584 3203 3211 
Q 3513 2838 3513 2113 
z
" transform="scale(0.015625)"/>
      <path id="DejaVuSans-66" d="M 2375 4863 
L 2375 4384 
L 1825 4384 
Q 1516 4384 1395 4259 
Q 1275 4134 1275 3809 
L 1275 3500 
L 2222 3500 
L 2222 3053 
L 1275 3053 
L 1275 0 
L 697 0 
L 697 3053 
L 147 3053 
L 147 3500 
L 697 3500 
L 697 3744 
Q 697 4328 969 4595 
Q 1241 4863 1831 4863 
L 2375 4863 
z
" transform="scale(0.015625)"/>
      <path id="DejaVuSans-67" d="M 2906 1791 
Q 2906 2416 2648 2759 
Q 2391 3103 1925 3103 
Q 1463 3103 1205 2759 
Q 947 2416 947 1791 
Q 947 1169 1205 825 
Q 1463 481 1925 481 
Q 2391 481 2648 825 
Q 2906 1169 2906 1791 
z
M 3481 434 
Q 3481 -459 3084 -895 
Q 2688 -1331 1869 -1331 
Q 1566 -1331 1297 -1286 
Q 1028 -1241 775 -1147 
L 775 -588 
Q 1028 -725 1275 -790 
Q 1522 -856 1778 -856 
Q 2344 -856 2625 -561 
Q 2906 -266 2906 331 
L 2906 616 
Q 2728 306 2450 153 
Q 2172 0 1784 0 
Q 1141 0 747 490 
Q 353 981 353 1791 
Q 353 2603 747 3093 
Q 1141 3584 1784 3584 
Q 2172 3584 2450 3431 
Q 2728 3278 2906 2969 
L 2906 3500 
L 3481 3500 
L 3481 434 
z
" transform="scale(0.015625)"/>
     </defs>
     <use xlink:href="#DejaVuSans-55"/>
     <use xlink:href="#DejaVuSans-6e" x="73.193359"/>
     <use xlink:href="#DejaVuSans-73" x="136.572266"/>
     <use xlink:href="#DejaVuSans-74" x="188.671875"/>
     <use xlink:href="#DejaVuSans-72" x="227.880859"/>
     <use xlink:href="#DejaVuSans-75" x="268.994141"/>
     <use xlink:href="#DejaVuSans-63" x="332.373047"/>
     <use xlink:href="#DejaVuSans-74" x="387.353516"/>
     <use xlink:href="#DejaVuSans-75" x="426.5625"/>
     <use xlink:href="#DejaVuSans-72" x="489.941406"/>
     <use xlink:href="#DejaVuSans-65" x="528.804688"/>
     <use xlink:href="#DejaVuSans-64" x="590.328125"/>
     <use xlink:href="#DejaVuSans-20" x="653.804688"/>
     <use xlink:href="#DejaVuSans-53" x="685.591797"/>
     <use xlink:href="#DejaVuSans-68" x="749.068359"/>
     <use xlink:href="#DejaVuSans-75" x="812.447266"/>
     <use xlink:href="#DejaVuSans-66" x="875.826172"/>
     <use xlink:href="#DejaVuSans-66" x="911.03125"/>
     <use xlink:href="#DejaVuSans-6c" x="946.236328"/>
     <use xlink:href="#DejaVuSans-69" x="974.019531"/>
     <use xlink:href="#DejaVuSans-6e" x="1001.802734"/>
     <use xlink:href="#DejaVuSans-67" x="1065.181641"/>
    </g>
   </g>
  </g>
 </g>
 <defs>
  <clipPath id="pa02914d4e5">
   <rect x="33.72875" y="19.582687" width="111.6" height="163.08"/>
  </clipPath>
 </defs>
</svg>
