<?xml version="1.0" encoding="utf-8" standalone="no"?>
<!DOCTYPE svg PUBLIC "-//W3C//DTD SVG 1.1//EN"
  "http://www.w3.org/Graphics/SVG/1.1/DTD/svg11.dtd">
<svg xmlns:xlink="http://www.w3.org/1999/xlink" width="608.190812pt" height="206.561781pt" viewBox="0 0 608.190812 206.561781" xmlns="http://www.w3.org/2000/svg" version="1.1">
 <metadata>
  <rdf:RDF xmlns:dc="http://purl.org/dc/elements/1.1/" xmlns:cc="http://creativecommons.org/ns#" xmlns:rdf="http://www.w3.org/1999/02/22-rdf-syntax-ns#">
   <cc:Work>
    <dc:type rdf:resource="http://purl.org/dc/dcmitype/StillImage"/>
    <dc:date>2024-12-12T15:40:11.326699</dc:date>
    <dc:format>image/svg+xml</dc:format>
    <dc:creator>
     <cc:Agent>
      <dc:title>Matplotlib v3.5.2, https://matplotlib.org/</dc:title>
     </cc:Agent>
    </dc:creator>
   </cc:Work>
  </rdf:RDF>
 </metadata>
 <defs>
  <style type="text/css">*{stroke-linejoin: round; stroke-linecap: butt}</style>
 </defs>
 <g id="figure_1">
  <g id="patch_1">
   <path d="M 0 206.561781 
L 608.190812 206.561781 
L 608.190812 0 
L 0 0 
L 0 206.561781 
z
" style="fill: none"/>
  </g>
  <g id="axes_1">
   <g id="patch_2">
    <path d="M 41.127531 170.28 
L 320.127531 170.28 
L 320.127531 7.2 
L 41.127531 7.2 
L 41.127531 170.28 
z
" style="fill: none"/>
   </g>
   <g id="matplotlib.axis_1">
    <g id="xtick_1">
     <g id="text_1">
      <!-- 1880 -->
      <g style="fill: #262626" transform="translate(32.304806 185.630797)scale(0.077 -0.077)">
       <defs>
        <path id="DejaVuSans-31" d="M 794 531 
L 1825 531 
L 1825 4091 
L 703 3866 
L 703 4441 
L 1819 4666 
L 2450 4666 
L 2450 531 
L 3481 531 
L 3481 0 
L 794 0 
L 794 531 
z
" transform="scale(0.015625)"/>
        <path id="DejaVuSans-38" d="M 2034 2216 
Q 1584 2216 1326 1975 
Q 1069 1734 1069 1313 
Q 1069 891 1326 650 
Q 1584 409 2034 409 
Q 2484 409 2743 651 
Q 3003 894 3003 1313 
Q 3003 1734 2745 1975 
Q 2488 2216 2034 2216 
z
M 1403 2484 
Q 997 2584 770 2862 
Q 544 3141 544 3541 
Q 544 4100 942 4425 
Q 1341 4750 2034 4750 
Q 2731 4750 3128 4425 
Q 3525 4100 3525 3541 
Q 3525 3141 3298 2862 
Q 3072 2584 2669 2484 
Q 3125 2378 3379 2068 
Q 3634 1759 3634 1313 
Q 3634 634 3220 271 
Q 2806 -91 2034 -91 
Q 1263 -91 848 271 
Q 434 634 434 1313 
Q 434 1759 690 2068 
Q 947 2378 1403 2484 
z
M 1172 3481 
Q 1172 3119 1398 2916 
Q 1625 2713 2034 2713 
Q 2441 2713 2670 2916 
Q 2900 3119 2900 3481 
Q 2900 3844 2670 4047 
Q 2441 4250 2034 4250 
Q 1625 4250 1398 4047 
Q 1172 3844 1172 3481 
z
" transform="scale(0.015625)"/>
        <path id="DejaVuSans-30" d="M 2034 4250 
Q 1547 4250 1301 3770 
Q 1056 3291 1056 2328 
Q 1056 1369 1301 889 
Q 1547 409 2034 409 
Q 2525 409 2770 889 
Q 3016 1369 3016 2328 
Q 3016 3291 2770 3770 
Q 2525 4250 2034 4250 
z
M 2034 4750 
Q 2819 4750 3233 4129 
Q 3647 3509 3647 2328 
Q 3647 1150 3233 529 
Q 2819 -91 2034 -91 
Q 1250 -91 836 529 
Q 422 1150 422 2328 
Q 422 3509 836 4129 
Q 1250 4750 2034 4750 
z
" transform="scale(0.015625)"/>
       </defs>
       <use xlink:href="#DejaVuSans-31"/>
       <use xlink:href="#DejaVuSans-38" x="63.623047"/>
       <use xlink:href="#DejaVuSans-38" x="127.246094"/>
       <use xlink:href="#DejaVuSans-30" x="190.869141"/>
      </g>
     </g>
    </g>
    <g id="xtick_2">
     <g id="text_2">
      <!-- 1900 -->
      <g style="fill: #262626" transform="translate(71.325785 185.630797)scale(0.077 -0.077)">
       <defs>
        <path id="DejaVuSans-39" d="M 703 97 
L 703 672 
Q 941 559 1184 500 
Q 1428 441 1663 441 
Q 2288 441 2617 861 
Q 2947 1281 2994 2138 
Q 2813 1869 2534 1725 
Q 2256 1581 1919 1581 
Q 1219 1581 811 2004 
Q 403 2428 403 3163 
Q 403 3881 828 4315 
Q 1253 4750 1959 4750 
Q 2769 4750 3195 4129 
Q 3622 3509 3622 2328 
Q 3622 1225 3098 567 
Q 2575 -91 1691 -91 
Q 1453 -91 1209 -44 
Q 966 3 703 97 
z
M 1959 2075 
Q 2384 2075 2632 2365 
Q 2881 2656 2881 3163 
Q 2881 3666 2632 3958 
Q 2384 4250 1959 4250 
Q 1534 4250 1286 3958 
Q 1038 3666 1038 3163 
Q 1038 2656 1286 2365 
Q 1534 2075 1959 2075 
z
" transform="scale(0.015625)"/>
       </defs>
       <use xlink:href="#DejaVuSans-31"/>
       <use xlink:href="#DejaVuSans-39" x="63.623047"/>
       <use xlink:href="#DejaVuSans-30" x="127.246094"/>
       <use xlink:href="#DejaVuSans-30" x="190.869141"/>
      </g>
     </g>
    </g>
    <g id="xtick_3">
     <g id="text_3">
      <!-- 1920 -->
      <g style="fill: #262626" transform="translate(110.346764 185.630797)scale(0.077 -0.077)">
       <defs>
        <path id="DejaVuSans-32" d="M 1228 531 
L 3431 531 
L 3431 0 
L 469 0 
L 469 531 
Q 828 903 1448 1529 
Q 2069 2156 2228 2338 
Q 2531 2678 2651 2914 
Q 2772 3150 2772 3378 
Q 2772 3750 2511 3984 
Q 2250 4219 1831 4219 
Q 1534 4219 1204 4116 
Q 875 4013 500 3803 
L 500 4441 
Q 881 4594 1212 4672 
Q 1544 4750 1819 4750 
Q 2544 4750 2975 4387 
Q 3406 4025 3406 3419 
Q 3406 3131 3298 2873 
Q 3191 2616 2906 2266 
Q 2828 2175 2409 1742 
Q 1991 1309 1228 531 
z
" transform="scale(0.015625)"/>
       </defs>
       <use xlink:href="#DejaVuSans-31"/>
       <use xlink:href="#DejaVuSans-39" x="63.623047"/>
       <use xlink:href="#DejaVuSans-32" x="127.246094"/>
       <use xlink:href="#DejaVuSans-30" x="190.869141"/>
      </g>
     </g>
    </g>
    <g id="xtick_4">
     <g id="text_4">
      <!-- 1940 -->
      <g style="fill: #262626" transform="translate(149.367743 185.630797)scale(0.077 -0.077)">
       <defs>
        <path id="DejaVuSans-34" d="M 2419 4116 
L 825 1625 
L 2419 1625 
L 2419 4116 
z
M 2253 4666 
L 3047 4666 
L 3047 1625 
L 3713 1625 
L 3713 1100 
L 3047 1100 
L 3047 0 
L 2419 0 
L 2419 1100 
L 313 1100 
L 313 1709 
L 2253 4666 
z
" transform="scale(0.015625)"/>
       </defs>
       <use xlink:href="#DejaVuSans-31"/>
       <use xlink:href="#DejaVuSans-39" x="63.623047"/>
       <use xlink:href="#DejaVuSans-34" x="127.246094"/>
       <use xlink:href="#DejaVuSans-30" x="190.869141"/>
      </g>
     </g>
    </g>
    <g id="xtick_5">
     <g id="text_5">
      <!-- 1960 -->
      <g style="fill: #262626" transform="translate(188.388722 185.630797)scale(0.077 -0.077)">
       <defs>
        <path id="DejaVuSans-36" d="M 2113 2584 
Q 1688 2584 1439 2293 
Q 1191 2003 1191 1497 
Q 1191 994 1439 701 
Q 1688 409 2113 409 
Q 2538 409 2786 701 
Q 3034 994 3034 1497 
Q 3034 2003 2786 2293 
Q 2538 2584 2113 2584 
z
M 3366 4563 
L 3366 3988 
Q 3128 4100 2886 4159 
Q 2644 4219 2406 4219 
Q 1781 4219 1451 3797 
Q 1122 3375 1075 2522 
Q 1259 2794 1537 2939 
Q 1816 3084 2150 3084 
Q 2853 3084 3261 2657 
Q 3669 2231 3669 1497 
Q 3669 778 3244 343 
Q 2819 -91 2113 -91 
Q 1303 -91 875 529 
Q 447 1150 447 2328 
Q 447 3434 972 4092 
Q 1497 4750 2381 4750 
Q 2619 4750 2861 4703 
Q 3103 4656 3366 4563 
z
" transform="scale(0.015625)"/>
       </defs>
       <use xlink:href="#DejaVuSans-31"/>
       <use xlink:href="#DejaVuSans-39" x="63.623047"/>
       <use xlink:href="#DejaVuSans-36" x="127.246094"/>
       <use xlink:href="#DejaVuSans-30" x="190.869141"/>
      </g>
     </g>
    </g>
    <g id="xtick_6">
     <g id="text_6">
      <!-- 1980 -->
      <g style="fill: #262626" transform="translate(227.409701 185.630797)scale(0.077 -0.077)">
       <use xlink:href="#DejaVuSans-31"/>
       <use xlink:href="#DejaVuSans-39" x="63.623047"/>
       <use xlink:href="#DejaVuSans-38" x="127.246094"/>
       <use xlink:href="#DejaVuSans-30" x="190.869141"/>
      </g>
     </g>
    </g>
    <g id="xtick_7">
     <g id="text_7">
      <!-- 2000 -->
      <g style="fill: #262626" transform="translate(266.43068 185.630797)scale(0.077 -0.077)">
       <use xlink:href="#DejaVuSans-32"/>
       <use xlink:href="#DejaVuSans-30" x="63.623047"/>
       <use xlink:href="#DejaVuSans-30" x="127.246094"/>
       <use xlink:href="#DejaVuSans-30" x="190.869141"/>
      </g>
     </g>
    </g>
    <g id="xtick_8">
     <g id="text_8">
      <!-- 2020 -->
      <g style="fill: #262626" transform="translate(305.451659 185.630797)scale(0.077 -0.077)">
       <use xlink:href="#DejaVuSans-32"/>
       <use xlink:href="#DejaVuSans-30" x="63.623047"/>
       <use xlink:href="#DejaVuSans-32" x="127.246094"/>
       <use xlink:href="#DejaVuSans-30" x="190.869141"/>
      </g>
     </g>
    </g>
    <g id="text_9">
     <!-- Year Cultured -->
     <g style="fill: #262626" transform="translate(152.446844 197.614844)scale(0.084 -0.084)">
      <defs>
       <path id="DejaVuSans-59" d="M -13 4666 
L 666 4666 
L 1959 2747 
L 3244 4666 
L 3922 4666 
L 2272 2222 
L 2272 0 
L 1638 0 
L 1638 2222 
L -13 4666 
z
" transform="scale(0.015625)"/>
       <path id="DejaVuSans-65" d="M 3597 1894 
L 3597 1613 
L 953 1613 
Q 991 1019 1311 708 
Q 1631 397 2203 397 
Q 2534 397 2845 478 
Q 3156 559 3463 722 
L 3463 178 
Q 3153 47 2828 -22 
Q 2503 -91 2169 -91 
Q 1331 -91 842 396 
Q 353 884 353 1716 
Q 353 2575 817 3079 
Q 1281 3584 2069 3584 
Q 2775 3584 3186 3129 
Q 3597 2675 3597 1894 
z
M 3022 2063 
Q 3016 2534 2758 2815 
Q 2500 3097 2075 3097 
Q 1594 3097 1305 2825 
Q 1016 2553 972 2059 
L 3022 2063 
z
" transform="scale(0.015625)"/>
       <path id="DejaVuSans-61" d="M 2194 1759 
Q 1497 1759 1228 1600 
Q 959 1441 959 1056 
Q 959 750 1161 570 
Q 1363 391 1709 391 
Q 2188 391 2477 730 
Q 2766 1069 2766 1631 
L 2766 1759 
L 2194 1759 
z
M 3341 1997 
L 3341 0 
L 2766 0 
L 2766 531 
Q 2569 213 2275 61 
Q 1981 -91 1556 -91 
Q 1019 -91 701 211 
Q 384 513 384 1019 
Q 384 1609 779 1909 
Q 1175 2209 1959 2209 
L 2766 2209 
L 2766 2266 
Q 2766 2663 2505 2880 
Q 2244 3097 1772 3097 
Q 1472 3097 1187 3025 
Q 903 2953 641 2809 
L 641 3341 
Q 956 3463 1253 3523 
Q 1550 3584 1831 3584 
Q 2591 3584 2966 3190 
Q 3341 2797 3341 1997 
z
" transform="scale(0.015625)"/>
       <path id="DejaVuSans-72" d="M 2631 2963 
Q 2534 3019 2420 3045 
Q 2306 3072 2169 3072 
Q 1681 3072 1420 2755 
Q 1159 2438 1159 1844 
L 1159 0 
L 581 0 
L 581 3500 
L 1159 3500 
L 1159 2956 
Q 1341 3275 1631 3429 
Q 1922 3584 2338 3584 
Q 2397 3584 2469 3576 
Q 2541 3569 2628 3553 
L 2631 2963 
z
" transform="scale(0.015625)"/>
       <path id="DejaVuSans-20" transform="scale(0.015625)"/>
       <path id="DejaVuSans-43" d="M 4122 4306 
L 4122 3641 
Q 3803 3938 3442 4084 
Q 3081 4231 2675 4231 
Q 1875 4231 1450 3742 
Q 1025 3253 1025 2328 
Q 1025 1406 1450 917 
Q 1875 428 2675 428 
Q 3081 428 3442 575 
Q 3803 722 4122 1019 
L 4122 359 
Q 3791 134 3420 21 
Q 3050 -91 2638 -91 
Q 1578 -91 968 557 
Q 359 1206 359 2328 
Q 359 3453 968 4101 
Q 1578 4750 2638 4750 
Q 3056 4750 3426 4639 
Q 3797 4528 4122 4306 
z
" transform="scale(0.015625)"/>
       <path id="DejaVuSans-75" d="M 544 1381 
L 544 3500 
L 1119 3500 
L 1119 1403 
Q 1119 906 1312 657 
Q 1506 409 1894 409 
Q 2359 409 2629 706 
Q 2900 1003 2900 1516 
L 2900 3500 
L 3475 3500 
L 3475 0 
L 2900 0 
L 2900 538 
Q 2691 219 2414 64 
Q 2138 -91 1772 -91 
Q 1169 -91 856 284 
Q 544 659 544 1381 
z
M 1991 3584 
L 1991 3584 
z
" transform="scale(0.015625)"/>
       <path id="DejaVuSans-6c" d="M 603 4863 
L 1178 4863 
L 1178 0 
L 603 0 
L 603 4863 
z
" transform="scale(0.015625)"/>
       <path id="DejaVuSans-74" d="M 1172 4494 
L 1172 3500 
L 2356 3500 
L 2356 3053 
L 1172 3053 
L 1172 1153 
Q 1172 725 1289 603 
Q 1406 481 1766 481 
L 2356 481 
L 2356 0 
L 1766 0 
Q 1100 0 847 248 
Q 594 497 594 1153 
L 594 3053 
L 172 3053 
L 172 3500 
L 594 3500 
L 594 4494 
L 1172 4494 
z
" transform="scale(0.015625)"/>
       <path id="DejaVuSans-64" d="M 2906 2969 
L 2906 4863 
L 3481 4863 
L 3481 0 
L 2906 0 
L 2906 525 
Q 2725 213 2448 61 
Q 2172 -91 1784 -91 
Q 1150 -91 751 415 
Q 353 922 353 1747 
Q 353 2572 751 3078 
Q 1150 3584 1784 3584 
Q 2172 3584 2448 3432 
Q 2725 3281 2906 2969 
z
M 947 1747 
Q 947 1113 1208 752 
Q 1469 391 1925 391 
Q 2381 391 2643 752 
Q 2906 1113 2906 1747 
Q 2906 2381 2643 2742 
Q 2381 3103 1925 3103 
Q 1469 3103 1208 2742 
Q 947 2381 947 1747 
z
" transform="scale(0.015625)"/>
      </defs>
      <use xlink:href="#DejaVuSans-59"/>
      <use xlink:href="#DejaVuSans-65" x="47.833984"/>
      <use xlink:href="#DejaVuSans-61" x="109.357422"/>
      <use xlink:href="#DejaVuSans-72" x="170.636719"/>
      <use xlink:href="#DejaVuSans-20" x="211.75"/>
      <use xlink:href="#DejaVuSans-43" x="243.537109"/>
      <use xlink:href="#DejaVuSans-75" x="313.361328"/>
      <use xlink:href="#DejaVuSans-6c" x="376.740234"/>
      <use xlink:href="#DejaVuSans-74" x="404.523438"/>
      <use xlink:href="#DejaVuSans-75" x="443.732422"/>
      <use xlink:href="#DejaVuSans-72" x="507.111328"/>
      <use xlink:href="#DejaVuSans-65" x="545.974609"/>
      <use xlink:href="#DejaVuSans-64" x="607.498047"/>
     </g>
    </g>
   </g>
   <g id="matplotlib.axis_2">
    <g id="ytick_1">
     <g id="text_10">
      <!-- 0.0 -->
      <g style="fill: #262626" transform="translate(19.382125 168.911857)scale(0.077 -0.077)">
       <defs>
        <path id="DejaVuSans-2e" d="M 684 794 
L 1344 794 
L 1344 0 
L 684 0 
L 684 794 
z
" transform="scale(0.015625)"/>
       </defs>
       <use xlink:href="#DejaVuSans-30"/>
       <use xlink:href="#DejaVuSans-2e" x="63.623047"/>
       <use xlink:href="#DejaVuSans-30" x="95.410156"/>
      </g>
     </g>
    </g>
    <g id="ytick_2">
     <g id="text_11">
      <!-- 0.2 -->
      <g style="fill: #262626" transform="translate(19.382125 138.637111)scale(0.077 -0.077)">
       <use xlink:href="#DejaVuSans-30"/>
       <use xlink:href="#DejaVuSans-2e" x="63.623047"/>
       <use xlink:href="#DejaVuSans-32" x="95.410156"/>
      </g>
     </g>
    </g>
    <g id="ytick_3">
     <g id="text_12">
      <!-- 0.4 -->
      <g style="fill: #262626" transform="translate(19.382125 108.362365)scale(0.077 -0.077)">
       <use xlink:href="#DejaVuSans-30"/>
       <use xlink:href="#DejaVuSans-2e" x="63.623047"/>
       <use xlink:href="#DejaVuSans-34" x="95.410156"/>
      </g>
     </g>
    </g>
    <g id="ytick_4">
     <g id="text_13">
      <!-- 0.6 -->
      <g style="fill: #262626" transform="translate(19.382125 78.087618)scale(0.077 -0.077)">
       <use xlink:href="#DejaVuSans-30"/>
       <use xlink:href="#DejaVuSans-2e" x="63.623047"/>
       <use xlink:href="#DejaVuSans-36" x="95.410156"/>
      </g>
     </g>
    </g>
    <g id="ytick_5">
     <g id="text_14">
      <!-- 0.8 -->
      <g style="fill: #262626" transform="translate(19.382125 47.812872)scale(0.077 -0.077)">
       <use xlink:href="#DejaVuSans-30"/>
       <use xlink:href="#DejaVuSans-2e" x="63.623047"/>
       <use xlink:href="#DejaVuSans-38" x="95.410156"/>
      </g>
     </g>
    </g>
    <g id="ytick_6">
     <g id="text_15">
      <!-- 1.0 -->
      <g style="fill: #262626" transform="translate(19.382125 17.538126)scale(0.077 -0.077)">
       <use xlink:href="#DejaVuSans-31"/>
       <use xlink:href="#DejaVuSans-2e" x="63.623047"/>
       <use xlink:href="#DejaVuSans-30" x="95.410156"/>
      </g>
     </g>
    </g>
    <g id="text_16">
     <!-- Fraction of β-Lactamases -->
     <g style="fill: #262626" transform="translate(13.635187 141.488062)rotate(-90)scale(0.084 -0.084)">
      <defs>
       <path id="DejaVuSans-46" d="M 628 4666 
L 3309 4666 
L 3309 4134 
L 1259 4134 
L 1259 2759 
L 3109 2759 
L 3109 2228 
L 1259 2228 
L 1259 0 
L 628 0 
L 628 4666 
z
" transform="scale(0.015625)"/>
       <path id="DejaVuSans-63" d="M 3122 3366 
L 3122 2828 
Q 2878 2963 2633 3030 
Q 2388 3097 2138 3097 
Q 1578 3097 1268 2742 
Q 959 2388 959 1747 
Q 959 1106 1268 751 
Q 1578 397 2138 397 
Q 2388 397 2633 464 
Q 2878 531 3122 666 
L 3122 134 
Q 2881 22 2623 -34 
Q 2366 -91 2075 -91 
Q 1284 -91 818 406 
Q 353 903 353 1747 
Q 353 2603 823 3093 
Q 1294 3584 2113 3584 
Q 2378 3584 2631 3529 
Q 2884 3475 3122 3366 
z
" transform="scale(0.015625)"/>
       <path id="DejaVuSans-69" d="M 603 3500 
L 1178 3500 
L 1178 0 
L 603 0 
L 603 3500 
z
M 603 4863 
L 1178 4863 
L 1178 4134 
L 603 4134 
L 603 4863 
z
" transform="scale(0.015625)"/>
       <path id="DejaVuSans-6f" d="M 1959 3097 
Q 1497 3097 1228 2736 
Q 959 2375 959 1747 
Q 959 1119 1226 758 
Q 1494 397 1959 397 
Q 2419 397 2687 759 
Q 2956 1122 2956 1747 
Q 2956 2369 2687 2733 
Q 2419 3097 1959 3097 
z
M 1959 3584 
Q 2709 3584 3137 3096 
Q 3566 2609 3566 1747 
Q 3566 888 3137 398 
Q 2709 -91 1959 -91 
Q 1206 -91 779 398 
Q 353 888 353 1747 
Q 353 2609 779 3096 
Q 1206 3584 1959 3584 
z
" transform="scale(0.015625)"/>
       <path id="DejaVuSans-6e" d="M 3513 2113 
L 3513 0 
L 2938 0 
L 2938 2094 
Q 2938 2591 2744 2837 
Q 2550 3084 2163 3084 
Q 1697 3084 1428 2787 
Q 1159 2491 1159 1978 
L 1159 0 
L 581 0 
L 581 3500 
L 1159 3500 
L 1159 2956 
Q 1366 3272 1645 3428 
Q 1925 3584 2291 3584 
Q 2894 3584 3203 3211 
Q 3513 2838 3513 2113 
z
" transform="scale(0.015625)"/>
       <path id="DejaVuSans-66" d="M 2375 4863 
L 2375 4384 
L 1825 4384 
Q 1516 4384 1395 4259 
Q 1275 4134 1275 3809 
L 1275 3500 
L 2222 3500 
L 2222 3053 
L 1275 3053 
L 1275 0 
L 697 0 
L 697 3053 
L 147 3053 
L 147 3500 
L 697 3500 
L 697 3744 
Q 697 4328 969 4595 
Q 1241 4863 1831 4863 
L 2375 4863 
z
" transform="scale(0.015625)"/>
       <path id="DejaVuSans-3b2" d="M 1178 216 
L 1178 -1331 
L 600 -1331 
L 600 3478 
Q 600 4903 1931 4903 
Q 3288 4903 3288 3700 
Q 3288 2844 2750 2531 
Q 3625 2250 3625 1416 
Q 3625 -66 2119 -66 
Q 1456 -66 1178 216 
z
M 1178 966 
Q 1525 425 2141 425 
Q 3041 425 3041 1406 
Q 3041 2288 1591 2219 
L 1591 2750 
Q 2725 2750 2725 3750 
Q 2725 4434 1994 4434 
Q 1178 4434 1178 3459 
L 1178 966 
z
" transform="scale(0.015625)"/>
       <path id="DejaVuSans-2d" d="M 313 2009 
L 1997 2009 
L 1997 1497 
L 313 1497 
L 313 2009 
z
" transform="scale(0.015625)"/>
       <path id="DejaVuSans-4c" d="M 628 4666 
L 1259 4666 
L 1259 531 
L 3531 531 
L 3531 0 
L 628 0 
L 628 4666 
z
" transform="scale(0.015625)"/>
       <path id="DejaVuSans-6d" d="M 3328 2828 
Q 3544 3216 3844 3400 
Q 4144 3584 4550 3584 
Q 5097 3584 5394 3201 
Q 5691 2819 5691 2113 
L 5691 0 
L 5113 0 
L 5113 2094 
Q 5113 2597 4934 2840 
Q 4756 3084 4391 3084 
Q 3944 3084 3684 2787 
Q 3425 2491 3425 1978 
L 3425 0 
L 2847 0 
L 2847 2094 
Q 2847 2600 2669 2842 
Q 2491 3084 2119 3084 
Q 1678 3084 1418 2786 
Q 1159 2488 1159 1978 
L 1159 0 
L 581 0 
L 581 3500 
L 1159 3500 
L 1159 2956 
Q 1356 3278 1631 3431 
Q 1906 3584 2284 3584 
Q 2666 3584 2933 3390 
Q 3200 3197 3328 2828 
z
" transform="scale(0.015625)"/>
       <path id="DejaVuSans-73" d="M 2834 3397 
L 2834 2853 
Q 2591 2978 2328 3040 
Q 2066 3103 1784 3103 
Q 1356 3103 1142 2972 
Q 928 2841 928 2578 
Q 928 2378 1081 2264 
Q 1234 2150 1697 2047 
L 1894 2003 
Q 2506 1872 2764 1633 
Q 3022 1394 3022 966 
Q 3022 478 2636 193 
Q 2250 -91 1575 -91 
Q 1294 -91 989 -36 
Q 684 19 347 128 
L 347 722 
Q 666 556 975 473 
Q 1284 391 1588 391 
Q 1994 391 2212 530 
Q 2431 669 2431 922 
Q 2431 1156 2273 1281 
Q 2116 1406 1581 1522 
L 1381 1569 
Q 847 1681 609 1914 
Q 372 2147 372 2553 
Q 372 3047 722 3315 
Q 1072 3584 1716 3584 
Q 2034 3584 2315 3537 
Q 2597 3491 2834 3397 
z
" transform="scale(0.015625)"/>
      </defs>
      <use xlink:href="#DejaVuSans-46"/>
      <use xlink:href="#DejaVuSans-72" x="50.269531"/>
      <use xlink:href="#DejaVuSans-61" x="91.382812"/>
      <use xlink:href="#DejaVuSans-63" x="152.662109"/>
      <use xlink:href="#DejaVuSans-74" x="207.642578"/>
      <use xlink:href="#DejaVuSans-69" x="246.851562"/>
      <use xlink:href="#DejaVuSans-6f" x="274.634766"/>
      <use xlink:href="#DejaVuSans-6e" x="335.816406"/>
      <use xlink:href="#DejaVuSans-20" x="399.195312"/>
      <use xlink:href="#DejaVuSans-6f" x="430.982422"/>
      <use xlink:href="#DejaVuSans-66" x="492.164062"/>
      <use xlink:href="#DejaVuSans-20" x="527.369141"/>
      <use xlink:href="#DejaVuSans-3b2" x="559.15625"/>
      <use xlink:href="#DejaVuSans-2d" x="622.974609"/>
      <use xlink:href="#DejaVuSans-4c" x="659.058594"/>
      <use xlink:href="#DejaVuSans-61" x="714.771484"/>
      <use xlink:href="#DejaVuSans-63" x="776.050781"/>
      <use xlink:href="#DejaVuSans-74" x="831.03125"/>
      <use xlink:href="#DejaVuSans-61" x="870.240234"/>
      <use xlink:href="#DejaVuSans-6d" x="931.519531"/>
      <use xlink:href="#DejaVuSans-61" x="1028.931641"/>
      <use xlink:href="#DejaVuSans-73" x="1090.210938"/>
      <use xlink:href="#DejaVuSans-65" x="1142.310547"/>
      <use xlink:href="#DejaVuSans-73" x="1203.833984"/>
     </g>
    </g>
   </g>
   <g id="PathCollection_1">
    <defs>
     <path id="C0_0_67d295ebbe" d="M 0 3 
C 0.795609 3 1.55874 2.683901 2.12132 2.12132 
C 2.683901 1.55874 3 0.795609 3 -0 
C 3 -0.795609 2.683901 -1.55874 2.12132 -2.12132 
C 1.55874 -2.683901 0.795609 -3 0 -3 
C -0.795609 -3 -1.55874 -2.683901 -2.12132 -2.12132 
C -2.683901 -1.55874 -3 -0.795609 -3 0 
C -3 0.795609 -2.683901 1.55874 -2.12132 2.12132 
C -1.55874 2.683901 -0.795609 3 0 3 
z
"/>
    </defs>
    <g clip-path="url(#p3475640d24)">
     <use xlink:href="#C0_0_67d295ebbe" x="53.809349" y="14.612727" style="fill: #4c72b0"/>
    </g>
    <g clip-path="url(#p3475640d24)">
     <use xlink:href="#C0_0_67d295ebbe" x="92.830328" y="14.612727" style="fill: #4c72b0"/>
    </g>
    <g clip-path="url(#p3475640d24)">
     <use xlink:href="#C0_0_67d295ebbe" x="102.585573" y="14.612727" style="fill: #4c72b0"/>
    </g>
    <g clip-path="url(#p3475640d24)">
     <use xlink:href="#C0_0_67d295ebbe" x="112.340818" y="29.7501" style="fill: #4c72b0"/>
    </g>
    <g clip-path="url(#p3475640d24)">
     <use xlink:href="#C0_0_67d295ebbe" x="114.291867" y="29.7501" style="fill: #4c72b0"/>
    </g>
    <g clip-path="url(#p3475640d24)">
     <use xlink:href="#C0_0_67d295ebbe" x="120.145014" y="29.7501" style="fill: #4c72b0"/>
    </g>
    <g clip-path="url(#p3475640d24)">
     <use xlink:href="#C0_0_67d295ebbe" x="122.096063" y="29.7501" style="fill: #4c72b0"/>
    </g>
    <g clip-path="url(#p3475640d24)">
     <use xlink:href="#C0_0_67d295ebbe" x="125.998161" y="29.7501" style="fill: #4c72b0"/>
    </g>
    <g clip-path="url(#p3475640d24)">
     <use xlink:href="#C0_0_67d295ebbe" x="129.900259" y="14.612727" style="fill: #4c72b0"/>
    </g>
    <g clip-path="url(#p3475640d24)">
     <use xlink:href="#C0_0_67d295ebbe" x="137.704454" y="22.181414" style="fill: #4c72b0"/>
    </g>
    <g clip-path="url(#p3475640d24)">
     <use xlink:href="#C0_0_67d295ebbe" x="139.655503" y="32.272996" style="fill: #4c72b0"/>
    </g>
    <g clip-path="url(#p3475640d24)">
     <use xlink:href="#C0_0_67d295ebbe" x="141.606552" y="32.272996" style="fill: #4c72b0"/>
    </g>
    <g clip-path="url(#p3475640d24)">
     <use xlink:href="#C0_0_67d295ebbe" x="143.557601" y="32.272996" style="fill: #4c72b0"/>
    </g>
    <g clip-path="url(#p3475640d24)">
     <use xlink:href="#C0_0_67d295ebbe" x="145.50865" y="42.364578" style="fill: #4c72b0"/>
    </g>
    <g clip-path="url(#p3475640d24)">
     <use xlink:href="#C0_0_67d295ebbe" x="147.459699" y="34.795891" style="fill: #4c72b0"/>
    </g>
    <g clip-path="url(#p3475640d24)">
     <use xlink:href="#C0_0_67d295ebbe" x="149.410748" y="24.704309" style="fill: #4c72b0"/>
    </g>
    <g clip-path="url(#p3475640d24)">
     <use xlink:href="#C0_0_67d295ebbe" x="153.312846" y="30.759259" style="fill: #4c72b0"/>
    </g>
    <g clip-path="url(#p3475640d24)">
     <use xlink:href="#C0_0_67d295ebbe" x="157.214944" y="30.759259" style="fill: #4c72b0"/>
    </g>
    <g clip-path="url(#p3475640d24)">
     <use xlink:href="#C0_0_67d295ebbe" x="159.165993" y="20.667677" style="fill: #4c72b0"/>
    </g>
    <g clip-path="url(#p3475640d24)">
     <use xlink:href="#C0_0_67d295ebbe" x="161.117042" y="20.667677" style="fill: #4c72b0"/>
    </g>
    <g clip-path="url(#p3475640d24)">
     <use xlink:href="#C0_0_67d295ebbe" x="163.068091" y="20.667677" style="fill: #4c72b0"/>
    </g>
    <g clip-path="url(#p3475640d24)">
     <use xlink:href="#C0_0_67d295ebbe" x="165.01914" y="14.612727" style="fill: #4c72b0"/>
    </g>
    <g clip-path="url(#p3475640d24)">
     <use xlink:href="#C0_0_67d295ebbe" x="166.970189" y="14.612727" style="fill: #4c72b0"/>
    </g>
    <g clip-path="url(#p3475640d24)">
     <use xlink:href="#C0_0_67d295ebbe" x="168.921238" y="17.135623" style="fill: #4c72b0"/>
    </g>
    <g clip-path="url(#p3475640d24)">
     <use xlink:href="#C0_0_67d295ebbe" x="170.872286" y="17.135623" style="fill: #4c72b0"/>
    </g>
    <g clip-path="url(#p3475640d24)">
     <use xlink:href="#C0_0_67d295ebbe" x="172.823335" y="26.218047" style="fill: #4c72b0"/>
    </g>
    <g clip-path="url(#p3475640d24)">
     <use xlink:href="#C0_0_67d295ebbe" x="174.774384" y="28.546873" style="fill: #4c72b0"/>
    </g>
    <g clip-path="url(#p3475640d24)">
     <use xlink:href="#C0_0_67d295ebbe" x="176.725433" y="39.899903" style="fill: #4c72b0"/>
    </g>
    <g clip-path="url(#p3475640d24)">
     <use xlink:href="#C0_0_67d295ebbe" x="178.676482" y="37.839218" style="fill: #4c72b0"/>
    </g>
    <g clip-path="url(#p3475640d24)">
     <use xlink:href="#C0_0_67d295ebbe" x="180.627531" y="37.839218" style="fill: #4c72b0"/>
    </g>
    <g clip-path="url(#p3475640d24)">
     <use xlink:href="#C0_0_67d295ebbe" x="182.57858" y="34.811743" style="fill: #4c72b0"/>
    </g>
    <g clip-path="url(#p3475640d24)">
     <use xlink:href="#C0_0_67d295ebbe" x="184.529629" y="37.916845" style="fill: #4c72b0"/>
    </g>
    <g clip-path="url(#p3475640d24)">
     <use xlink:href="#C0_0_67d295ebbe" x="186.480678" y="34.132502" style="fill: #4c72b0"/>
    </g>
    <g clip-path="url(#p3475640d24)">
     <use xlink:href="#C0_0_67d295ebbe" x="188.431727" y="34.986585" style="fill: #4c72b0"/>
    </g>
    <g clip-path="url(#p3475640d24)">
     <use xlink:href="#C0_0_67d295ebbe" x="190.382776" y="37.738835" style="fill: #4c72b0"/>
    </g>
    <g clip-path="url(#p3475640d24)">
     <use xlink:href="#C0_0_67d295ebbe" x="192.333825" y="31.683886" style="fill: #4c72b0"/>
    </g>
    <g clip-path="url(#p3475640d24)">
     <use xlink:href="#C0_0_67d295ebbe" x="194.284874" y="29.002207" style="fill: #4c72b0"/>
    </g>
    <g clip-path="url(#p3475640d24)">
     <use xlink:href="#C0_0_67d295ebbe" x="196.235923" y="21.43352" style="fill: #4c72b0"/>
    </g>
    <g clip-path="url(#p3475640d24)">
     <use xlink:href="#C0_0_67d295ebbe" x="198.186972" y="23.90157" style="fill: #4c72b0"/>
    </g>
    <g clip-path="url(#p3475640d24)">
     <use xlink:href="#C0_0_67d295ebbe" x="200.138021" y="24.933664" style="fill: #4c72b0"/>
    </g>
    <g clip-path="url(#p3475640d24)">
     <use xlink:href="#C0_0_67d295ebbe" x="202.08907" y="40.071037" style="fill: #4c72b0"/>
    </g>
    <g clip-path="url(#p3475640d24)">
     <use xlink:href="#C0_0_67d295ebbe" x="204.040119" y="37.318787" style="fill: #4c72b0"/>
    </g>
    <g clip-path="url(#p3475640d24)">
     <use xlink:href="#C0_0_67d295ebbe" x="205.991168" y="37.318787" style="fill: #4c72b0"/>
    </g>
    <g clip-path="url(#p3475640d24)">
     <use xlink:href="#C0_0_67d295ebbe" x="207.942217" y="33.534444" style="fill: #4c72b0"/>
    </g>
    <g clip-path="url(#p3475640d24)">
     <use xlink:href="#C0_0_67d295ebbe" x="209.893266" y="34.075064" style="fill: #4c72b0"/>
    </g>
    <g clip-path="url(#p3475640d24)">
     <use xlink:href="#C0_0_67d295ebbe" x="211.844314" y="18.937691" style="fill: #4c72b0"/>
    </g>
    <g clip-path="url(#p3475640d24)">
     <use xlink:href="#C0_0_67d295ebbe" x="213.795363" y="21.266518" style="fill: #4c72b0"/>
    </g>
    <g clip-path="url(#p3475640d24)">
     <use xlink:href="#C0_0_67d295ebbe" x="215.746412" y="28.474791" style="fill: #4c72b0"/>
    </g>
    <g clip-path="url(#p3475640d24)">
     <use xlink:href="#C0_0_67d295ebbe" x="217.697461" y="28.474791" style="fill: #4c72b0"/>
    </g>
    <g clip-path="url(#p3475640d24)">
     <use xlink:href="#C0_0_67d295ebbe" x="219.64851" y="24.149827" style="fill: #4c72b0"/>
    </g>
    <g clip-path="url(#p3475640d24)">
     <use xlink:href="#C0_0_67d295ebbe" x="221.599559" y="24.149827" style="fill: #4c72b0"/>
    </g>
    <g clip-path="url(#p3475640d24)">
     <use xlink:href="#C0_0_67d295ebbe" x="223.550608" y="29.389687" style="fill: #4c72b0"/>
    </g>
    <g clip-path="url(#p3475640d24)">
     <use xlink:href="#C0_0_67d295ebbe" x="225.501657" y="27.685913" style="fill: #4c72b0"/>
    </g>
    <g clip-path="url(#p3475640d24)">
     <use xlink:href="#C0_0_67d295ebbe" x="227.452706" y="33.740862" style="fill: #4c72b0"/>
    </g>
    <g clip-path="url(#p3475640d24)">
     <use xlink:href="#C0_0_67d295ebbe" x="229.403755" y="33.740862" style="fill: #4c72b0"/>
    </g>
    <g clip-path="url(#p3475640d24)">
     <use xlink:href="#C0_0_67d295ebbe" x="231.354804" y="36.263758" style="fill: #4c72b0"/>
    </g>
    <g clip-path="url(#p3475640d24)">
     <use xlink:href="#C0_0_67d295ebbe" x="233.305853" y="38.786654" style="fill: #4c72b0"/>
    </g>
    <g clip-path="url(#p3475640d24)">
     <use xlink:href="#C0_0_67d295ebbe" x="237.207951" y="41.35542" style="fill: #4c72b0"/>
    </g>
    <g clip-path="url(#p3475640d24)">
     <use xlink:href="#C0_0_67d295ebbe" x="239.159" y="47.410369" style="fill: #4c72b0"/>
    </g>
    <g clip-path="url(#p3475640d24)">
     <use xlink:href="#C0_0_67d295ebbe" x="241.110049" y="47.410369" style="fill: #4c72b0"/>
    </g>
    <g clip-path="url(#p3475640d24)">
     <use xlink:href="#C0_0_67d295ebbe" x="243.061098" y="61.400972" style="fill: #4c72b0"/>
    </g>
    <g clip-path="url(#p3475640d24)">
     <use xlink:href="#C0_0_67d295ebbe" x="245.012147" y="57.364339" style="fill: #4c72b0"/>
    </g>
    <g clip-path="url(#p3475640d24)">
     <use xlink:href="#C0_0_67d295ebbe" x="246.963196" y="64.428446" style="fill: #4c72b0"/>
    </g>
    <g clip-path="url(#p3475640d24)">
     <use xlink:href="#C0_0_67d295ebbe" x="248.914245" y="70.483395" style="fill: #4c72b0"/>
    </g>
    <g clip-path="url(#p3475640d24)">
     <use xlink:href="#C0_0_67d295ebbe" x="250.865293" y="89.405112" style="fill: #4c72b0"/>
    </g>
    <g clip-path="url(#p3475640d24)">
     <use xlink:href="#C0_0_67d295ebbe" x="252.816342" y="72.891614" style="fill: #4c72b0"/>
    </g>
    <g clip-path="url(#p3475640d24)">
     <use xlink:href="#C0_0_67d295ebbe" x="254.767391" y="66.836665" style="fill: #4c72b0"/>
    </g>
    <g clip-path="url(#p3475640d24)">
     <use xlink:href="#C0_0_67d295ebbe" x="256.71844" y="61.790874" style="fill: #4c72b0"/>
    </g>
    <g clip-path="url(#p3475640d24)">
     <use xlink:href="#C0_0_67d295ebbe" x="258.669489" y="43.626026" style="fill: #4c72b0"/>
    </g>
    <g clip-path="url(#p3475640d24)">
     <use xlink:href="#C0_0_67d295ebbe" x="260.620538" y="24.704309" style="fill: #4c72b0"/>
    </g>
    <g clip-path="url(#p3475640d24)">
     <use xlink:href="#C0_0_67d295ebbe" x="262.571587" y="24.704309" style="fill: #4c72b0"/>
    </g>
    <g clip-path="url(#p3475640d24)">
     <use xlink:href="#C0_0_67d295ebbe" x="264.522636" y="24.704309" style="fill: #4c72b0"/>
    </g>
    <g clip-path="url(#p3475640d24)">
     <use xlink:href="#C0_0_67d295ebbe" x="266.473685" y="14.612727" style="fill: #4c72b0"/>
    </g>
    <g clip-path="url(#p3475640d24)">
     <use xlink:href="#C0_0_67d295ebbe" x="268.424734" y="14.612727" style="fill: #4c72b0"/>
    </g>
    <g clip-path="url(#p3475640d24)">
     <use xlink:href="#C0_0_67d295ebbe" x="270.375783" y="34.795891" style="fill: #4c72b0"/>
    </g>
    <g clip-path="url(#p3475640d24)">
     <use xlink:href="#C0_0_67d295ebbe" x="274.277881" y="44.887474" style="fill: #4c72b0"/>
    </g>
    <g clip-path="url(#p3475640d24)">
     <use xlink:href="#C0_0_67d295ebbe" x="282.082077" y="44.887474" style="fill: #4c72b0"/>
    </g>
    <g clip-path="url(#p3475640d24)">
     <use xlink:href="#C0_0_67d295ebbe" x="284.033126" y="67.593533" style="fill: #4c72b0"/>
    </g>
    <g clip-path="url(#p3475640d24)">
     <use xlink:href="#C0_0_67d295ebbe" x="285.984175" y="67.593533" style="fill: #4c72b0"/>
    </g>
    <g clip-path="url(#p3475640d24)">
     <use xlink:href="#C0_0_67d295ebbe" x="287.935224" y="59.876441" style="fill: #4c72b0"/>
    </g>
    <g clip-path="url(#p3475640d24)">
     <use xlink:href="#C0_0_67d295ebbe" x="289.886273" y="68.706575" style="fill: #4c72b0"/>
    </g>
    <g clip-path="url(#p3475640d24)">
     <use xlink:href="#C0_0_67d295ebbe" x="291.837321" y="78.798158" style="fill: #4c72b0"/>
    </g>
    <g clip-path="url(#p3475640d24)">
     <use xlink:href="#C0_0_67d295ebbe" x="293.78837" y="66.18368" style="fill: #4c72b0"/>
    </g>
    <g clip-path="url(#p3475640d24)">
     <use xlink:href="#C0_0_67d295ebbe" x="295.739419" y="79.158571" style="fill: #4c72b0"/>
    </g>
    <g clip-path="url(#p3475640d24)">
     <use xlink:href="#C0_0_67d295ebbe" x="297.690468" y="74.261186" style="fill: #4c72b0"/>
    </g>
    <g clip-path="url(#p3475640d24)">
     <use xlink:href="#C0_0_67d295ebbe" x="299.641517" y="55.339469" style="fill: #4c72b0"/>
    </g>
    <g clip-path="url(#p3475640d24)">
     <use xlink:href="#C0_0_67d295ebbe" x="301.592566" y="45.247887" style="fill: #4c72b0"/>
    </g>
    <g clip-path="url(#p3475640d24)">
     <use xlink:href="#C0_0_67d295ebbe" x="303.543615" y="55.339469" style="fill: #4c72b0"/>
    </g>
    <g clip-path="url(#p3475640d24)">
     <use xlink:href="#C0_0_67d295ebbe" x="305.494664" y="49.302541" style="fill: #4c72b0"/>
    </g>
    <g clip-path="url(#p3475640d24)">
     <use xlink:href="#C0_0_67d295ebbe" x="307.445713" y="48.251334" style="fill: #4c72b0"/>
    </g>
   </g>
   <g id="PolyCollection_1">
    <defs>
     <path id="mb916f543f5" d="M 53.809349 -190.255586 
L 53.809349 -71.285497 
L 92.830328 -78.655841 
L 102.585573 -75.826595 
L 112.340818 -73.894625 
L 114.291867 -73.894625 
L 120.145014 -73.894625 
L 122.096063 -73.894625 
L 125.998161 -77.960157 
L 129.900259 -79.892127 
L 137.704454 -79.625112 
L 139.655503 -80.715202 
L 141.606552 -77.529282 
L 143.557601 -85.047715 
L 145.50865 -86.137805 
L 147.459699 -82.339287 
L 149.410748 -88.50065 
L 153.312846 -90.509792 
L 157.214944 -78.925827 
L 159.165993 -87.525544 
L 161.117042 -87.525544 
L 163.068091 -94.577986 
L 165.01914 -88.503311 
L 166.970189 -88.503311 
L 168.921238 -93.393479 
L 170.872286 -109.541696 
L 172.823335 -104.929809 
L 174.774384 -120.16411 
L 176.725433 -124.438335 
L 178.676482 -133.721707 
L 180.627531 -134.435675 
L 182.57858 -134.556631 
L 184.529629 -134.886455 
L 186.480678 -137.932439 
L 188.431727 -133.162902 
L 190.382776 -130.138999 
L 192.333825 -130.015845 
L 194.284874 -128.290002 
L 196.235923 -125.035326 
L 198.186972 -116.821943 
L 200.138021 -113.86409 
L 202.08907 -102.242314 
L 204.040119 -95.655483 
L 205.991168 -98.841404 
L 207.942217 -92.026506 
L 209.893266 -90.694019 
L 211.844314 -102.315796 
L 213.795363 -110.298645 
L 215.746412 -114.79932 
L 217.697461 -125.037681 
L 219.64851 -119.555271 
L 221.599559 -121.449429 
L 223.550608 -113.535336 
L 225.501657 -115.530191 
L 227.452706 -107.300972 
L 229.403755 -112.925248 
L 231.354804 -115.921257 
L 233.305853 -112.60661 
L 237.207951 -108.490488 
L 239.159 -108.356694 
L 241.110049 -115.529072 
L 243.061098 -102.548534 
L 245.012147 -104.617648 
L 246.963196 -94.639201 
L 248.914245 -87.487433 
L 250.865293 -69.985899 
L 252.816342 -72.451993 
L 254.767391 -66.377319 
L 256.71844 -78.702489 
L 258.669489 -83.978909 
L 260.620538 -84.618258 
L 262.571587 -84.618258 
L 264.522636 -84.618258 
L 266.473685 -72.640675 
L 268.424734 -68.575143 
L 270.375783 -67.983739 
L 274.277881 -65.008297 
L 282.082077 -65.008297 
L 284.033126 -63.343841 
L 285.984175 -63.343841 
L 287.935224 -69.970131 
L 289.886273 -68.240693 
L 291.837321 -75.131965 
L 293.78837 -82.531466 
L 295.739419 -85.15778 
L 297.690468 -86.443101 
L 299.641517 -87.08245 
L 301.592566 -87.442629 
L 303.543615 -78.966876 
L 305.494664 -79.298299 
L 307.445713 -72.027516 
L 307.445713 -181.201063 
L 307.445713 -181.201063 
L 305.494664 -181.055305 
L 303.543615 -178.480533 
L 301.592566 -180.677516 
L 299.641517 -176.67308 
L 297.690468 -167.992827 
L 295.739419 -163.740834 
L 293.78837 -168.113526 
L 291.837321 -156.625638 
L 289.886273 -160.440263 
L 287.935224 -167.455196 
L 285.984175 -162.295264 
L 284.033126 -162.295264 
L 282.082077 -177.082286 
L 274.277881 -177.082286 
L 270.375783 -178.874013 
L 268.424734 -190.171314 
L 266.473685 -190.297722 
L 264.522636 -183.501717 
L 262.571587 -183.501717 
L 260.620538 -183.501717 
L 258.669489 -174.821465 
L 256.71844 -168.331336 
L 254.767391 -171.0689 
L 252.816342 -170.139684 
L 250.865293 -162.018002 
L 248.914245 -171.009483 
L 246.963196 -171.773737 
L 245.012147 -172.87764 
L 243.061098 -171.19084 
L 241.110049 -178.985468 
L 239.159 -178.902158 
L 237.207951 -183.572409 
L 233.305853 -184.649177 
L 231.354804 -185.379817 
L 229.403755 -185.833815 
L 227.452706 -185.732304 
L 225.501657 -186.946689 
L 223.550608 -185.957134 
L 221.599559 -187.684614 
L 219.64851 -187.659183 
L 217.697461 -186.949232 
L 215.746412 -186.79047 
L 213.795363 -189.847607 
L 211.844314 -190.195314 
L 209.893266 -187.493337 
L 207.942217 -187.605627 
L 205.991168 -187.007967 
L 204.040119 -186.944563 
L 202.08907 -186.503973 
L 200.138021 -189.20595 
L 198.186972 -189.426424 
L 196.235923 -189.967998 
L 194.284874 -187.956215 
L 192.333825 -185.84728 
L 190.382776 -184.177114 
L 188.431727 -184.73912 
L 186.480678 -184.906984 
L 184.529629 -183.02568 
L 182.57858 -185.227499 
L 180.627531 -182.634188 
L 178.676482 -182.627237 
L 176.725433 -182.188404 
L 174.774384 -185.955083 
L 172.823335 -186.112978 
L 170.872286 -190.433706 
L 168.921238 -190.129428 
L 166.970189 -190.557995 
L 165.01914 -190.557995 
L 163.068091 -189.62878 
L 161.117042 -189.533422 
L 159.165993 -189.533422 
L 157.214944 -187.640184 
L 153.312846 -187.893534 
L 149.410748 -188.949158 
L 147.459699 -187.094026 
L 145.50865 -185.878016 
L 143.557601 -187.543335 
L 141.606552 -187.416392 
L 139.655503 -187.479797 
L 137.704454 -189.145116 
L 129.900259 -190.487534 
L 125.998161 -188.013476 
L 122.096063 -187.887068 
L 120.145014 -187.887068 
L 114.291867 -187.887068 
L 112.340818 -187.887068 
L 102.585573 -190.361126 
L 92.830328 -190.440181 
L 53.809349 -190.255586 
z
" style="stroke: #4c72b0; stroke-opacity: 0.3"/>
    </defs>
    <g clip-path="url(#p3475640d24)">
     <use xlink:href="#mb916f543f5" x="0" y="206.561781" style="fill: #4c72b0; fill-opacity: 0.3; stroke: #4c72b0; stroke-opacity: 0.3"/>
    </g>
   </g>
   <g id="PathCollection_2">
    <defs>
     <path id="C1_0_4d0dbc16a4" d="M 0 3 
C 0.795609 3 1.55874 2.683901 2.12132 2.12132 
C 2.683901 1.55874 3 0.795609 3 -0 
C 3 -0.795609 2.683901 -1.55874 2.12132 -2.12132 
C 1.55874 -2.683901 0.795609 -3 0 -3 
C -0.795609 -3 -1.55874 -2.683901 -2.12132 -2.12132 
C -2.683901 -1.55874 -3 -0.795609 -3 0 
C -3 0.795609 -2.683901 1.55874 -2.12132 2.12132 
C -1.55874 2.683901 -0.795609 3 0 3 
z
"/>
    </defs>
    <g clip-path="url(#p3475640d24)">
     <use xlink:href="#C1_0_4d0dbc16a4" x="108.43872" y="39.841683" style="fill: #dd8452"/>
    </g>
    <g clip-path="url(#p3475640d24)">
     <use xlink:href="#C1_0_4d0dbc16a4" x="118.193965" y="58.763399" style="fill: #dd8452"/>
    </g>
    <g clip-path="url(#p3475640d24)">
     <use xlink:href="#C1_0_4d0dbc16a4" x="120.145014" y="77.685115" style="fill: #dd8452"/>
    </g>
    <g clip-path="url(#p3475640d24)">
     <use xlink:href="#C1_0_4d0dbc16a4" x="149.410748" y="103.41865" style="fill: #dd8452"/>
    </g>
    <g clip-path="url(#p3475640d24)">
     <use xlink:href="#C1_0_4d0dbc16a4" x="172.823335" y="129.909053" style="fill: #dd8452"/>
    </g>
    <g clip-path="url(#p3475640d24)">
     <use xlink:href="#C1_0_4d0dbc16a4" x="176.725433" y="144.584216" style="fill: #dd8452"/>
    </g>
    <g clip-path="url(#p3475640d24)">
     <use xlink:href="#C1_0_4d0dbc16a4" x="180.627531" y="150.018145" style="fill: #dd8452"/>
    </g>
    <g clip-path="url(#p3475640d24)">
     <use xlink:href="#C1_0_4d0dbc16a4" x="182.57858" y="144.972354" style="fill: #dd8452"/>
    </g>
    <g clip-path="url(#p3475640d24)">
     <use xlink:href="#C1_0_4d0dbc16a4" x="188.431727" y="148.197273" style="fill: #dd8452"/>
    </g>
    <g clip-path="url(#p3475640d24)">
     <use xlink:href="#C1_0_4d0dbc16a4" x="190.382776" y="149.229366" style="fill: #dd8452"/>
    </g>
    <g clip-path="url(#p3475640d24)">
     <use xlink:href="#C1_0_4d0dbc16a4" x="192.333825" y="145.907233" style="fill: #dd8452"/>
    </g>
    <g clip-path="url(#p3475640d24)">
     <use xlink:href="#C1_0_4d0dbc16a4" x="194.284874" y="146.239922" style="fill: #dd8452"/>
    </g>
    <g clip-path="url(#p3475640d24)">
     <use xlink:href="#C1_0_4d0dbc16a4" x="204.040119" y="151.056359" style="fill: #dd8452"/>
    </g>
    <g clip-path="url(#p3475640d24)">
     <use xlink:href="#C1_0_4d0dbc16a4" x="219.64851" y="146.317703" style="fill: #dd8452"/>
    </g>
    <g clip-path="url(#p3475640d24)">
     <use xlink:href="#C1_0_4d0dbc16a4" x="229.403755" y="144.024162" style="fill: #dd8452"/>
    </g>
    <g clip-path="url(#p3475640d24)">
     <use xlink:href="#C1_0_4d0dbc16a4" x="231.354804" y="134.047257" style="fill: #dd8452"/>
    </g>
    <g clip-path="url(#p3475640d24)">
     <use xlink:href="#C1_0_4d0dbc16a4" x="239.159" y="132.317271" style="fill: #dd8452"/>
    </g>
    <g clip-path="url(#p3475640d24)">
     <use xlink:href="#C1_0_4d0dbc16a4" x="246.963196" y="127.500834" style="fill: #dd8452"/>
    </g>
    <g clip-path="url(#p3475640d24)">
     <use xlink:href="#C1_0_4d0dbc16a4" x="248.914245" y="133.15212" style="fill: #dd8452"/>
    </g>
    <g clip-path="url(#p3475640d24)">
     <use xlink:href="#C1_0_4d0dbc16a4" x="254.767391" y="133.15212" style="fill: #dd8452"/>
    </g>
    <g clip-path="url(#p3475640d24)">
     <use xlink:href="#C1_0_4d0dbc16a4" x="260.620538" y="136.821787" style="fill: #dd8452"/>
    </g>
    <g clip-path="url(#p3475640d24)">
     <use xlink:href="#C1_0_4d0dbc16a4" x="282.082077" y="141.095868" style="fill: #dd8452"/>
    </g>
    <g clip-path="url(#p3475640d24)">
     <use xlink:href="#C1_0_4d0dbc16a4" x="284.033126" y="141.095868" style="fill: #dd8452"/>
    </g>
    <g clip-path="url(#p3475640d24)">
     <use xlink:href="#C1_0_4d0dbc16a4" x="291.837321" y="137.715188" style="fill: #dd8452"/>
    </g>
    <g clip-path="url(#p3475640d24)">
     <use xlink:href="#C1_0_4d0dbc16a4" x="295.739419" y="136.95461" style="fill: #dd8452"/>
    </g>
    <g clip-path="url(#p3475640d24)">
     <use xlink:href="#C1_0_4d0dbc16a4" x="301.592566" y="144.09663" style="fill: #dd8452"/>
    </g>
   </g>
   <g id="PolyCollection_2">
    <defs>
     <path id="m82eb93ea4c" d="M 108.43872 -185.921475 
L 108.43872 -61.289662 
L 118.193965 -58.668763 
L 120.145014 -55.631552 
L 149.410748 -52.493565 
L 172.823335 -48.558789 
L 176.725433 -45.846545 
L 180.627531 -46.02204 
L 182.57858 -47.706768 
L 188.431727 -46.368405 
L 190.382776 -46.147931 
L 192.333825 -46.857369 
L 194.284874 -46.205994 
L 204.040119 -44.779959 
L 219.64851 -45.779496 
L 229.403755 -46.258746 
L 231.354804 -51.79296 
L 239.159 -51.532735 
L 246.963196 -52.958771 
L 248.914245 -51.745696 
L 254.767391 -52.160112 
L 260.620538 -47.819965 
L 282.082077 -46.926235 
L 284.033126 -47.412622 
L 291.837321 -48.167734 
L 295.739419 -48.159244 
L 301.592566 -47.27697 
L 301.592566 -105.846245 
L 301.592566 -105.846245 
L 295.739419 -120.025763 
L 291.837321 -117.894671 
L 284.033126 -105.441069 
L 282.082077 -107.316953 
L 260.620538 -118.466869 
L 254.767391 -115.967712 
L 248.914245 -119.729414 
L 246.963196 -136.988771 
L 239.159 -127.309504 
L 231.354804 -118.465873 
L 229.403755 -111.17469 
L 219.64851 -105.303599 
L 204.040119 -92.284462 
L 194.284874 -101.963729 
L 192.333825 -100.426698 
L 190.382776 -87.443779 
L 188.431727 -90.401632 
L 182.57858 -95.010124 
L 180.627531 -87.750357 
L 176.725433 -103.115604 
L 172.823335 -128.910922 
L 149.410748 -144.197379 
L 120.145014 -163.088726 
L 118.193965 -180.082186 
L 108.43872 -185.921475 
z
" style="stroke: #dd8452; stroke-opacity: 0.3"/>
    </defs>
    <g clip-path="url(#p3475640d24)">
     <use xlink:href="#m82eb93ea4c" x="0" y="206.561781" style="fill: #dd8452; fill-opacity: 0.3; stroke: #dd8452; stroke-opacity: 0.3"/>
    </g>
   </g>
   <g id="PathCollection_3">
    <defs>
     <path id="C2_0_b5d13a08ba" d="M 0 3 
C 0.795609 3 1.55874 2.683901 2.12132 2.12132 
C 2.683901 1.55874 3 0.795609 3 -0 
C 3 -0.795609 2.683901 -1.55874 2.12132 -2.12132 
C 1.55874 -2.683901 0.795609 -3 0 -3 
C -0.795609 -3 -1.55874 -2.683901 -2.12132 -2.12132 
C -2.683901 -1.55874 -3 -0.795609 -3 0 
C -3 0.795609 -2.683901 1.55874 -2.12132 2.12132 
C -1.55874 2.683901 -0.795609 3 0 3 
z
"/>
    </defs>
    <g clip-path="url(#p3475640d24)">
     <use xlink:href="#C2_0_b5d13a08ba" x="141.606552" y="126.461096" style="fill: #55a868"/>
    </g>
    <g clip-path="url(#p3475640d24)">
     <use xlink:href="#C2_0_b5d13a08ba" x="143.557601" y="133.431403" style="fill: #55a868"/>
    </g>
    <g clip-path="url(#p3475640d24)">
     <use xlink:href="#C2_0_b5d13a08ba" x="159.165993" y="136.158071" style="fill: #55a868"/>
    </g>
    <g clip-path="url(#p3475640d24)">
     <use xlink:href="#C2_0_b5d13a08ba" x="178.676482" y="140.699283" style="fill: #55a868"/>
    </g>
    <g clip-path="url(#p3475640d24)">
     <use xlink:href="#C2_0_b5d13a08ba" x="180.627531" y="150.014589" style="fill: #55a868"/>
    </g>
    <g clip-path="url(#p3475640d24)">
     <use xlink:href="#C2_0_b5d13a08ba" x="186.480678" y="152.285195" style="fill: #55a868"/>
    </g>
    <g clip-path="url(#p3475640d24)">
     <use xlink:href="#C2_0_b5d13a08ba" x="188.431727" y="139.476649" style="fill: #55a868"/>
    </g>
    <g clip-path="url(#p3475640d24)">
     <use xlink:href="#C2_0_b5d13a08ba" x="202.08907" y="140.932166" style="fill: #55a868"/>
    </g>
    <g clip-path="url(#p3475640d24)">
     <use xlink:href="#C2_0_b5d13a08ba" x="205.991168" y="140.175297" style="fill: #55a868"/>
    </g>
    <g clip-path="url(#p3475640d24)">
     <use xlink:href="#C2_0_b5d13a08ba" x="217.697461" y="138.428677" style="fill: #55a868"/>
    </g>
    <g clip-path="url(#p3475640d24)">
     <use xlink:href="#C2_0_b5d13a08ba" x="227.452706" y="137.167229" style="fill: #55a868"/>
    </g>
    <g clip-path="url(#p3475640d24)">
     <use xlink:href="#C2_0_b5d13a08ba" x="237.207951" y="148.26797" style="fill: #55a868"/>
    </g>
    <g clip-path="url(#p3475640d24)">
     <use xlink:href="#C2_0_b5d13a08ba" x="239.159" y="146.560163" style="fill: #55a868"/>
    </g>
    <g clip-path="url(#p3475640d24)">
     <use xlink:href="#C2_0_b5d13a08ba" x="241.110049" y="147.592257" style="fill: #55a868"/>
    </g>
    <g clip-path="url(#p3475640d24)">
     <use xlink:href="#C2_0_b5d13a08ba" x="243.061098" y="142.546466" style="fill: #55a868"/>
    </g>
    <g clip-path="url(#p3475640d24)">
     <use xlink:href="#C2_0_b5d13a08ba" x="246.963196" y="141.537308" style="fill: #55a868"/>
    </g>
    <g clip-path="url(#p3475640d24)">
     <use xlink:href="#C2_0_b5d13a08ba" x="250.865293" y="141.789597" style="fill: #55a868"/>
    </g>
    <g clip-path="url(#p3475640d24)">
     <use xlink:href="#C2_0_b5d13a08ba" x="252.816342" y="136.138311" style="fill: #55a868"/>
    </g>
    <g clip-path="url(#p3475640d24)">
     <use xlink:href="#C2_0_b5d13a08ba" x="254.767391" y="136.367665" style="fill: #55a868"/>
    </g>
    <g clip-path="url(#p3475640d24)">
     <use xlink:href="#C2_0_b5d13a08ba" x="260.620538" y="140.152009" style="fill: #55a868"/>
    </g>
    <g clip-path="url(#p3475640d24)">
     <use xlink:href="#C2_0_b5d13a08ba" x="282.082077" y="144.426091" style="fill: #55a868"/>
    </g>
    <g clip-path="url(#p3475640d24)">
     <use xlink:href="#C2_0_b5d13a08ba" x="287.935224" y="144.426091" style="fill: #55a868"/>
    </g>
    <g clip-path="url(#p3475640d24)">
     <use xlink:href="#C2_0_b5d13a08ba" x="291.837321" y="145.464082" style="fill: #55a868"/>
    </g>
    <g clip-path="url(#p3475640d24)">
     <use xlink:href="#C2_0_b5d13a08ba" x="293.78837" y="137.895395" style="fill: #55a868"/>
    </g>
    <g clip-path="url(#p3475640d24)">
     <use xlink:href="#C2_0_b5d13a08ba" x="299.641517" y="135.603058" style="fill: #55a868"/>
    </g>
    <g clip-path="url(#p3475640d24)">
     <use xlink:href="#C2_0_b5d13a08ba" x="307.445713" y="128.443371" style="fill: #55a868"/>
    </g>
   </g>
   <g id="PolyCollection_3">
    <defs>
     <path id="m62233e50e2" d="M 141.606552 -149.74263 
L 141.606552 -48.830378 
L 143.557601 -47.44002 
L 159.165993 -46.919162 
L 178.676482 -46.013531 
L 180.627531 -44.152471 
L 186.480678 -43.694509 
L 188.431727 -46.010672 
L 202.08907 -45.697315 
L 205.991168 -45.858188 
L 217.697461 -46.254576 
L 227.452706 -46.513352 
L 237.207951 -44.883796 
L 239.159 -45.570404 
L 241.110049 -45.349929 
L 243.061098 -46.365292 
L 246.963196 -46.564479 
L 250.865293 -46.191229 
L 252.816342 -51.790727 
L 254.767391 -51.740596 
L 260.620538 -51.293745 
L 282.082077 -50.400014 
L 287.935224 -50.400014 
L 291.837321 -46.155604 
L 293.78837 -47.620276 
L 299.641517 -47.944029 
L 307.445713 -49.706407 
L 307.445713 -138.42491 
L 307.445713 -138.42491 
L 299.641517 -124.291636 
L 293.78837 -118.580768 
L 291.837321 -105.090883 
L 287.935224 -98.481667 
L 282.082077 -98.481667 
L 260.620538 -109.631583 
L 254.767391 -120.288559 
L 252.816342 -121.030252 
L 250.865293 -119.54462 
L 246.963196 -116.546806 
L 243.061098 -114.654289 
L 241.110049 -103.872832 
L 239.159 -106.830685 
L 237.207951 -105.474626 
L 227.452706 -121.284839 
L 217.697461 -118.3716 
L 205.991168 -111.447415 
L 202.08907 -109.336763 
L 188.431727 -113.690636 
L 186.480678 -96.524364 
L 180.627531 -101.330119 
L 178.676482 -121.744189 
L 159.165993 -130.936753 
L 143.557601 -135.267787 
L 141.606552 -149.74263 
z
" style="stroke: #55a868; stroke-opacity: 0.3"/>
    </defs>
    <g clip-path="url(#p3475640d24)">
     <use xlink:href="#m62233e50e2" x="0" y="206.561781" style="fill: #55a868; fill-opacity: 0.3; stroke: #55a868; stroke-opacity: 0.3"/>
    </g>
   </g>
   <g id="PathCollection_4">
    <defs>
     <path id="C3_0_89d5f5d040" d="M 0 3 
C 0.795609 3 1.55874 2.683901 2.12132 2.12132 
C 2.683901 1.55874 3 0.795609 3 -0 
C 3 -0.795609 2.683901 -1.55874 2.12132 -2.12132 
C 1.55874 -2.683901 0.795609 -3 0 -3 
C -0.795609 -3 -1.55874 -2.683901 -2.12132 -2.12132 
C -2.683901 -1.55874 -3 -0.795609 -3 0 
C -3 0.795609 -2.683901 1.55874 -2.12132 2.12132 
C -1.55874 2.683901 -0.795609 3 0 3 
z
"/>
    </defs>
    <g clip-path="url(#p3475640d24)">
     <use xlink:href="#C3_0_89d5f5d040" x="176.725433" y="147.064742" style="fill: #c44e52"/>
    </g>
    <g clip-path="url(#p3475640d24)">
     <use xlink:href="#C3_0_89d5f5d040" x="180.627531" y="148.354859" style="fill: #c44e52"/>
    </g>
    <g clip-path="url(#p3475640d24)">
     <use xlink:href="#C3_0_89d5f5d040" x="186.480678" y="147.556216" style="fill: #c44e52"/>
    </g>
    <g clip-path="url(#p3475640d24)">
     <use xlink:href="#C3_0_89d5f5d040" x="198.186972" y="149.214118" style="fill: #c44e52"/>
    </g>
    <g clip-path="url(#p3475640d24)">
     <use xlink:href="#C3_0_89d5f5d040" x="213.795363" y="149.214118" style="fill: #c44e52"/>
    </g>
    <g clip-path="url(#p3475640d24)">
     <use xlink:href="#C3_0_89d5f5d040" x="219.64851" y="149.489343" style="fill: #c44e52"/>
    </g>
    <g clip-path="url(#p3475640d24)">
     <use xlink:href="#C3_0_89d5f5d040" x="227.452706" y="148.20496" style="fill: #c44e52"/>
    </g>
    <g clip-path="url(#p3475640d24)">
     <use xlink:href="#C3_0_89d5f5d040" x="229.403755" y="144.456658" style="fill: #c44e52"/>
    </g>
    <g clip-path="url(#p3475640d24)">
     <use xlink:href="#C3_0_89d5f5d040" x="241.110049" y="135.230069" style="fill: #c44e52"/>
    </g>
    <g clip-path="url(#p3475640d24)">
     <use xlink:href="#C3_0_89d5f5d040" x="243.061098" y="131.445726" style="fill: #c44e52"/>
    </g>
    <g clip-path="url(#p3475640d24)">
     <use xlink:href="#C3_0_89d5f5d040" x="252.816342" y="121.583498" style="fill: #c44e52"/>
    </g>
    <g clip-path="url(#p3475640d24)">
     <use xlink:href="#C3_0_89d5f5d040" x="254.767391" y="106.698414" style="fill: #c44e52"/>
    </g>
    <g clip-path="url(#p3475640d24)">
     <use xlink:href="#C3_0_89d5f5d040" x="282.082077" y="109.429077" style="fill: #c44e52"/>
    </g>
    <g clip-path="url(#p3475640d24)">
     <use xlink:href="#C3_0_89d5f5d040" x="287.935224" y="106.401603" style="fill: #c44e52"/>
    </g>
    <g clip-path="url(#p3475640d24)">
     <use xlink:href="#C3_0_89d5f5d040" x="291.837321" y="110.185946" style="fill: #c44e52"/>
    </g>
    <g clip-path="url(#p3475640d24)">
     <use xlink:href="#C3_0_89d5f5d040" x="293.78837" y="112.003915" style="fill: #c44e52"/>
    </g>
    <g clip-path="url(#p3475640d24)">
     <use xlink:href="#C3_0_89d5f5d040" x="301.592566" y="125.545928" style="fill: #c44e52"/>
    </g>
   </g>
   <g id="PolyCollection_4">
    <defs>
     <path id="m3dfeed9809" d="M 176.725433 -104.086716 
L 176.725433 -45.895591 
L 180.627531 -45.355034 
L 186.480678 -45.363464 
L 198.186972 -44.594252 
L 213.795363 -44.594252 
L 219.64851 -44.743213 
L 227.452706 -45.336937 
L 229.403755 -47.707932 
L 241.110049 -50.404243 
L 243.061098 -51.818366 
L 252.816342 -56.797985 
L 254.767391 -67.176469 
L 282.082077 -65.781472 
L 287.935224 -68.624006 
L 291.837321 -67.209883 
L 293.78837 -66.593787 
L 301.592566 -55.926916 
L 301.592566 -125.580023 
L 301.592566 -125.580023 
L 293.78837 -135.192553 
L 291.837321 -136.983767 
L 287.935224 -140.543988 
L 282.082077 -140.217941 
L 254.767391 -143.535851 
L 252.816342 -130.454533 
L 243.061098 -118.228287 
L 241.110049 -114.668066 
L 229.403755 -99.966372 
L 227.452706 -100.04929 
L 219.64851 -100.08925 
L 213.795363 -104.097644 
L 198.186972 -104.097644 
L 186.480678 -106.271711 
L 180.627531 -102.770875 
L 176.725433 -104.086716 
z
" style="stroke: #c44e52; stroke-opacity: 0.3"/>
    </defs>
    <g clip-path="url(#p3475640d24)">
     <use xlink:href="#m3dfeed9809" x="0" y="206.561781" style="fill: #c44e52; fill-opacity: 0.3; stroke: #c44e52; stroke-opacity: 0.3"/>
    </g>
   </g>
   <g id="PathCollection_5">
    <defs>
     <path id="C4_0_5e7afeef37" d="M 0 3 
C 0.795609 3 1.55874 2.683901 2.12132 2.12132 
C 2.683901 1.55874 3 0.795609 3 -0 
C 3 -0.795609 2.683901 -1.55874 2.12132 -2.12132 
C 1.55874 -2.683901 0.795609 -3 0 -3 
C -0.795609 -3 -1.55874 -2.683901 -2.12132 -2.12132 
C -2.683901 -1.55874 -3 -0.795609 -3 0 
C -3 0.795609 -2.683901 1.55874 -2.12132 2.12132 
C -1.55874 2.683901 -0.795609 3 0 3 
z
"/>
    </defs>
    <g clip-path="url(#p3475640d24)">
     <use xlink:href="#C4_0_5e7afeef37" x="250.865293" y="129.344405" style="fill: #8172b3"/>
    </g>
    <g clip-path="url(#p3475640d24)">
     <use xlink:href="#C4_0_5e7afeef37" x="299.641517" y="129.344405" style="fill: #8172b3"/>
    </g>
    <g clip-path="url(#p3475640d24)">
     <use xlink:href="#C4_0_5e7afeef37" x="307.445713" y="129.344405" style="fill: #8172b3"/>
    </g>
   </g>
   <g id="PolyCollection_5">
    <defs>
     <path id="m9a259bd449" d="M 250.865293 -143.953851 
L 250.865293 -48.254258 
L 299.641517 -48.254258 
L 307.445713 -48.254258 
L 307.445713 -143.953851 
L 307.445713 -143.953851 
L 299.641517 -143.953851 
L 250.865293 -143.953851 
z
" style="stroke: #8172b3; stroke-opacity: 0.3"/>
    </defs>
    <g clip-path="url(#p3475640d24)">
     <use xlink:href="#m9a259bd449" x="0" y="206.561781" style="fill: #8172b3; fill-opacity: 0.3; stroke: #8172b3; stroke-opacity: 0.3"/>
    </g>
   </g>
   <g id="PathCollection_6">
    <path d="M 291.837321 151.177785 
C 292.632931 151.177785 293.396061 150.861686 293.958642 150.299105 
C 294.521223 149.736524 294.837321 148.973394 294.837321 148.177785 
C 294.837321 147.382175 294.521223 146.619045 293.958642 146.056464 
C 293.396061 145.493883 292.632931 145.177785 291.837321 145.177785 
C 291.041712 145.177785 290.278582 145.493883 289.716001 146.056464 
C 289.15342 146.619045 288.837321 147.382175 288.837321 148.177785 
C 288.837321 148.973394 289.15342 149.736524 289.716001 150.299105 
C 290.278582 150.861686 291.041712 151.177785 291.837321 151.177785 
z
" clip-path="url(#p3475640d24)" style="fill: #937860"/>
   </g>
   <g id="PolyCollection_6">
    <defs>
     <path id="mb34726fce1" d="M 291.837321 -93.120238 
L 291.837321 -45.992244 
L 291.837321 -93.120238 
L 291.837321 -93.120238 
z
" style="stroke: #937860; stroke-opacity: 0.3"/>
    </defs>
    <g clip-path="url(#p3475640d24)">
     <use xlink:href="#mb34726fce1" x="0" y="206.561781" style="fill: #937860; fill-opacity: 0.3; stroke: #937860; stroke-opacity: 0.3"/>
    </g>
   </g>
   <g id="PathCollection_7">
    <defs>
     <path id="C5_0_c3dce15f5f" d="M 0 3 
C 0.795609 3 1.55874 2.683901 2.12132 2.12132 
C 2.683901 1.55874 3 0.795609 3 -0 
C 3 -0.795609 2.683901 -1.55874 2.12132 -2.12132 
C 1.55874 -2.683901 0.795609 -3 0 -3 
C -0.795609 -3 -1.55874 -2.683901 -2.12132 -2.12132 
C -2.683901 -1.55874 -3 -0.795609 -3 0 
C -3 0.795609 -2.683901 1.55874 -2.12132 2.12132 
C -1.55874 2.683901 -0.795609 3 0 3 
z
"/>
    </defs>
    <g clip-path="url(#p3475640d24)">
     <use xlink:href="#C5_0_c3dce15f5f" x="295.739419" y="134.450265" style="fill: #da8bc3"/>
    </g>
    <g clip-path="url(#p3475640d24)">
     <use xlink:href="#C5_0_c3dce15f5f" x="297.690468" y="134.450265" style="fill: #da8bc3"/>
    </g>
   </g>
   <g id="PolyCollection_7">
    <defs>
     <path id="m41eaf242e0" d="M 295.739419 -117.227217 
L 295.739419 -51.228925 
L 297.690468 -51.228925 
L 297.690468 -117.227217 
L 297.690468 -117.227217 
L 295.739419 -117.227217 
z
" style="stroke: #da8bc3; stroke-opacity: 0.3"/>
    </defs>
    <g clip-path="url(#p3475640d24)">
     <use xlink:href="#m41eaf242e0" x="0" y="206.561781" style="fill: #da8bc3; fill-opacity: 0.3; stroke: #da8bc3; stroke-opacity: 0.3"/>
    </g>
   </g>
   <g id="line2d_1">
    <path d="M 53.809349 14.612727 
L 92.830328 14.612727 
L 102.585573 14.612727 
L 112.340818 29.7501 
L 114.291867 29.7501 
L 120.145014 29.7501 
L 122.096063 29.7501 
L 125.998161 29.7501 
L 129.900259 14.612727 
L 137.704454 22.181414 
L 139.655503 32.272996 
L 141.606552 32.272996 
L 143.557601 32.272996 
L 145.50865 42.364578 
L 147.459699 34.795891 
L 149.410748 24.704309 
L 153.312846 30.759259 
L 157.214944 30.759259 
L 159.165993 20.667677 
L 161.117042 20.667677 
L 163.068091 20.667677 
L 165.01914 14.612727 
L 166.970189 14.612727 
L 168.921238 17.135623 
L 170.872286 17.135623 
L 172.823335 26.218047 
L 174.774384 28.546873 
L 176.725433 39.899903 
L 178.676482 37.839218 
L 180.627531 37.839218 
L 182.57858 34.811743 
L 184.529629 37.916845 
L 186.480678 34.132502 
L 188.431727 34.986585 
L 190.382776 37.738835 
L 192.333825 31.683886 
L 194.284874 29.002207 
L 196.235923 21.43352 
L 198.186972 23.90157 
L 200.138021 24.933664 
L 202.08907 40.071037 
L 204.040119 37.318787 
L 205.991168 37.318787 
L 207.942217 33.534444 
L 209.893266 34.075064 
L 211.844314 18.937691 
L 213.795363 21.266518 
L 215.746412 28.474791 
L 217.697461 28.474791 
L 219.64851 24.149827 
L 221.599559 24.149827 
L 223.550608 29.389687 
L 225.501657 27.685913 
L 227.452706 33.740862 
L 229.403755 33.740862 
L 231.354804 36.263758 
L 233.305853 38.786654 
L 237.207951 41.35542 
L 239.159 47.410369 
L 241.110049 47.410369 
L 243.061098 61.400972 
L 245.012147 57.364339 
L 246.963196 64.428446 
L 248.914245 70.483395 
L 250.865293 89.405112 
L 252.816342 72.891614 
L 254.767391 66.836665 
L 256.71844 61.790874 
L 258.669489 43.626026 
L 260.620538 24.704309 
L 262.571587 24.704309 
L 264.522636 24.704309 
L 266.473685 14.612727 
L 268.424734 14.612727 
L 270.375783 34.795891 
L 274.277881 44.887474 
L 282.082077 44.887474 
L 284.033126 67.593533 
L 285.984175 67.593533 
L 287.935224 59.876441 
L 289.886273 68.706575 
L 291.837321 78.798158 
L 293.78837 66.18368 
L 295.739419 79.158571 
L 297.690468 74.261186 
L 299.641517 55.339469 
L 301.592566 45.247887 
L 303.543615 55.339469 
L 305.494664 49.302541 
L 307.445713 48.251334 
" clip-path="url(#p3475640d24)" style="fill: none; stroke: #4c72b0; stroke-width: 1.5; stroke-linecap: round"/>
   </g>
   <g id="line2d_2">
    <path d="M 108.43872 39.841683 
L 118.193965 58.763399 
L 120.145014 77.685115 
L 149.410748 103.41865 
L 172.823335 129.909053 
L 176.725433 144.584216 
L 180.627531 150.018145 
L 182.57858 144.972354 
L 188.431727 148.197273 
L 190.382776 149.229366 
L 192.333825 145.907233 
L 194.284874 146.239922 
L 204.040119 151.056359 
L 219.64851 146.317703 
L 229.403755 144.024162 
L 231.354804 134.047257 
L 239.159 132.317271 
L 246.963196 127.500834 
L 248.914245 133.15212 
L 254.767391 133.15212 
L 260.620538 136.821787 
L 282.082077 141.095868 
L 284.033126 141.095868 
L 291.837321 137.715188 
L 295.739419 136.95461 
L 301.592566 144.09663 
" clip-path="url(#p3475640d24)" style="fill: none; stroke: #dd8452; stroke-width: 1.5; stroke-linecap: round"/>
   </g>
   <g id="line2d_3">
    <path d="M 141.606552 126.461096 
L 143.557601 133.431403 
L 159.165993 136.158071 
L 178.676482 140.699283 
L 180.627531 150.014589 
L 186.480678 152.285195 
L 188.431727 139.476649 
L 202.08907 140.932166 
L 205.991168 140.175297 
L 217.697461 138.428677 
L 227.452706 137.167229 
L 237.207951 148.26797 
L 239.159 146.560163 
L 241.110049 147.592257 
L 243.061098 142.546466 
L 246.963196 141.537308 
L 250.865293 141.789597 
L 252.816342 136.138311 
L 254.767391 136.367665 
L 260.620538 140.152009 
L 282.082077 144.426091 
L 287.935224 144.426091 
L 291.837321 145.464082 
L 293.78837 137.895395 
L 299.641517 135.603058 
L 307.445713 128.443371 
" clip-path="url(#p3475640d24)" style="fill: none; stroke: #55a868; stroke-width: 1.5; stroke-linecap: round"/>
   </g>
   <g id="line2d_4">
    <path d="M 176.725433 147.064742 
L 180.627531 148.354859 
L 186.480678 147.556216 
L 198.186972 149.214118 
L 213.795363 149.214118 
L 219.64851 149.489343 
L 227.452706 148.20496 
L 229.403755 144.456658 
L 241.110049 135.230069 
L 243.061098 131.445726 
L 252.816342 121.583498 
L 254.767391 106.698414 
L 282.082077 109.429077 
L 287.935224 106.401603 
L 291.837321 110.185946 
L 293.78837 112.003915 
L 301.592566 125.545928 
" clip-path="url(#p3475640d24)" style="fill: none; stroke: #c44e52; stroke-width: 1.5; stroke-linecap: round"/>
   </g>
   <g id="line2d_5">
    <path d="M 250.865293 129.344405 
L 299.641517 129.344405 
L 307.445713 129.344405 
" clip-path="url(#p3475640d24)" style="fill: none; stroke: #8172b3; stroke-width: 1.5; stroke-linecap: round"/>
   </g>
   <g id="line2d_6">
    <path d="M 291.837321 148.177785 
" clip-path="url(#p3475640d24)" style="fill: none; stroke: #937860; stroke-width: 1.5; stroke-linecap: round"/>
   </g>
   <g id="line2d_7">
    <path d="M 295.739419 134.450265 
L 297.690468 134.450265 
" clip-path="url(#p3475640d24)" style="fill: none; stroke: #da8bc3; stroke-width: 1.5; stroke-linecap: round"/>
   </g>
   <g id="patch_3">
    <path d="M 41.127531 170.28 
L 41.127531 7.2 
" style="fill: none; stroke: #262626; stroke-width: 1.25; stroke-linejoin: miter; stroke-linecap: square"/>
   </g>
   <g id="patch_4">
    <path d="M 41.127531 170.28 
L 320.127531 170.28 
" style="fill: none; stroke: #262626; stroke-width: 1.25; stroke-linejoin: miter; stroke-linecap: square"/>
   </g>
   <g id="legend_1">
    <g id="patch_5">
     <path d="M 339.467531 104.454719 
L 599.450812 104.454719 
Q 600.990812 104.454719 600.990812 102.914719 
L 600.990812 12.59 
Q 600.990812 11.05 599.450812 11.05 
L 339.467531 11.05 
Q 337.927531 11.05 337.927531 12.59 
L 337.927531 102.914719 
Q 337.927531 104.454719 339.467531 104.454719 
z
" style="fill: #ffffff; opacity: 0.8; stroke: #cccccc; stroke-linejoin: miter"/>
    </g>
    <g id="text_17">
     <!-- Mobility Prediction -->
     <g style="fill: #262626" transform="translate(430.768641 20.512687)scale(0.084 -0.084)">
      <defs>
       <path id="DejaVuSans-4d" d="M 628 4666 
L 1569 4666 
L 2759 1491 
L 3956 4666 
L 4897 4666 
L 4897 0 
L 4281 0 
L 4281 4097 
L 3078 897 
L 2444 897 
L 1241 4097 
L 1241 0 
L 628 0 
L 628 4666 
z
" transform="scale(0.015625)"/>
       <path id="DejaVuSans-62" d="M 3116 1747 
Q 3116 2381 2855 2742 
Q 2594 3103 2138 3103 
Q 1681 3103 1420 2742 
Q 1159 2381 1159 1747 
Q 1159 1113 1420 752 
Q 1681 391 2138 391 
Q 2594 391 2855 752 
Q 3116 1113 3116 1747 
z
M 1159 2969 
Q 1341 3281 1617 3432 
Q 1894 3584 2278 3584 
Q 2916 3584 3314 3078 
Q 3713 2572 3713 1747 
Q 3713 922 3314 415 
Q 2916 -91 2278 -91 
Q 1894 -91 1617 61 
Q 1341 213 1159 525 
L 1159 0 
L 581 0 
L 581 4863 
L 1159 4863 
L 1159 2969 
z
" transform="scale(0.015625)"/>
       <path id="DejaVuSans-79" d="M 2059 -325 
Q 1816 -950 1584 -1140 
Q 1353 -1331 966 -1331 
L 506 -1331 
L 506 -850 
L 844 -850 
Q 1081 -850 1212 -737 
Q 1344 -625 1503 -206 
L 1606 56 
L 191 3500 
L 800 3500 
L 1894 763 
L 2988 3500 
L 3597 3500 
L 2059 -325 
z
" transform="scale(0.015625)"/>
       <path id="DejaVuSans-50" d="M 1259 4147 
L 1259 2394 
L 2053 2394 
Q 2494 2394 2734 2622 
Q 2975 2850 2975 3272 
Q 2975 3691 2734 3919 
Q 2494 4147 2053 4147 
L 1259 4147 
z
M 628 4666 
L 2053 4666 
Q 2838 4666 3239 4311 
Q 3641 3956 3641 3272 
Q 3641 2581 3239 2228 
Q 2838 1875 2053 1875 
L 1259 1875 
L 1259 0 
L 628 0 
L 628 4666 
z
" transform="scale(0.015625)"/>
      </defs>
      <use xlink:href="#DejaVuSans-4d"/>
      <use xlink:href="#DejaVuSans-6f" x="86.279297"/>
      <use xlink:href="#DejaVuSans-62" x="147.460938"/>
      <use xlink:href="#DejaVuSans-69" x="210.9375"/>
      <use xlink:href="#DejaVuSans-6c" x="238.720703"/>
      <use xlink:href="#DejaVuSans-69" x="266.503906"/>
      <use xlink:href="#DejaVuSans-74" x="294.287109"/>
      <use xlink:href="#DejaVuSans-79" x="333.496094"/>
      <use xlink:href="#DejaVuSans-20" x="392.675781"/>
      <use xlink:href="#DejaVuSans-50" x="424.462891"/>
      <use xlink:href="#DejaVuSans-72" x="483.015625"/>
      <use xlink:href="#DejaVuSans-65" x="521.878906"/>
      <use xlink:href="#DejaVuSans-64" x="583.402344"/>
      <use xlink:href="#DejaVuSans-69" x="646.878906"/>
      <use xlink:href="#DejaVuSans-63" x="674.662109"/>
      <use xlink:href="#DejaVuSans-74" x="729.642578"/>
      <use xlink:href="#DejaVuSans-69" x="768.851562"/>
      <use xlink:href="#DejaVuSans-6f" x="796.634766"/>
      <use xlink:href="#DejaVuSans-6e" x="857.816406"/>
     </g>
    </g>
    <g id="line2d_8">
     <path d="M 341.007531 29.265422 
L 348.707531 29.265422 
L 356.407531 29.265422 
" style="fill: none; stroke: #4c72b0; stroke-width: 1.5; stroke-linecap: round"/>
     <defs>
      <path id="m54435cabd1" d="M 0 3 
C 0.795609 3 1.55874 2.683901 2.12132 2.12132 
C 2.683901 1.55874 3 0.795609 3 0 
C 3 -0.795609 2.683901 -1.55874 2.12132 -2.12132 
C 1.55874 -2.683901 0.795609 -3 0 -3 
C -0.795609 -3 -1.55874 -2.683901 -2.12132 -2.12132 
C -2.683901 -1.55874 -3 -0.795609 -3 0 
C -3 0.795609 -2.683901 1.55874 -2.12132 2.12132 
C -1.55874 2.683901 -0.795609 3 0 3 
z
" style="stroke: #4c72b0"/>
     </defs>
     <g>
      <use xlink:href="#m54435cabd1" x="348.707531" y="29.265422" style="fill: #4c72b0; stroke: #4c72b0"/>
     </g>
    </g>
    <g id="text_18">
     <!-- Immobile -->
     <g style="fill: #262626" transform="translate(362.567531 31.960422)scale(0.077 -0.077)">
      <defs>
       <path id="DejaVuSans-49" d="M 628 4666 
L 1259 4666 
L 1259 0 
L 628 0 
L 628 4666 
z
" transform="scale(0.015625)"/>
      </defs>
      <use xlink:href="#DejaVuSans-49"/>
      <use xlink:href="#DejaVuSans-6d" x="29.492188"/>
      <use xlink:href="#DejaVuSans-6d" x="126.904297"/>
      <use xlink:href="#DejaVuSans-6f" x="224.316406"/>
      <use xlink:href="#DejaVuSans-62" x="285.498047"/>
      <use xlink:href="#DejaVuSans-69" x="348.974609"/>
      <use xlink:href="#DejaVuSans-6c" x="376.757812"/>
      <use xlink:href="#DejaVuSans-65" x="404.541016"/>
     </g>
    </g>
    <g id="line2d_9">
     <path d="M 341.007531 40.567578 
L 348.707531 40.567578 
L 356.407531 40.567578 
" style="fill: none; stroke: #dd8452; stroke-width: 1.5; stroke-linecap: round"/>
     <defs>
      <path id="m3a23f8be81" d="M 0 3 
C 0.795609 3 1.55874 2.683901 2.12132 2.12132 
C 2.683901 1.55874 3 0.795609 3 0 
C 3 -0.795609 2.683901 -1.55874 2.12132 -2.12132 
C 1.55874 -2.683901 0.795609 -3 0 -3 
C -0.795609 -3 -1.55874 -2.683901 -2.12132 -2.12132 
C -2.683901 -1.55874 -3 -0.795609 -3 0 
C -3 0.795609 -2.683901 1.55874 -2.12132 2.12132 
C -1.55874 2.683901 -0.795609 3 0 3 
z
" style="stroke: #dd8452"/>
     </defs>
     <g>
      <use xlink:href="#m3a23f8be81" x="348.707531" y="40.567578" style="fill: #dd8452; stroke: #dd8452"/>
     </g>
    </g>
    <g id="text_19">
     <!-- TN/IS associated -->
     <g style="fill: #262626" transform="translate(362.567531 43.262578)scale(0.077 -0.077)">
      <defs>
       <path id="DejaVuSans-54" d="M -19 4666 
L 3928 4666 
L 3928 4134 
L 2272 4134 
L 2272 0 
L 1638 0 
L 1638 4134 
L -19 4134 
L -19 4666 
z
" transform="scale(0.015625)"/>
       <path id="DejaVuSans-4e" d="M 628 4666 
L 1478 4666 
L 3547 763 
L 3547 4666 
L 4159 4666 
L 4159 0 
L 3309 0 
L 1241 3903 
L 1241 0 
L 628 0 
L 628 4666 
z
" transform="scale(0.015625)"/>
       <path id="DejaVuSans-2f" d="M 1625 4666 
L 2156 4666 
L 531 -594 
L 0 -594 
L 1625 4666 
z
" transform="scale(0.015625)"/>
       <path id="DejaVuSans-53" d="M 3425 4513 
L 3425 3897 
Q 3066 4069 2747 4153 
Q 2428 4238 2131 4238 
Q 1616 4238 1336 4038 
Q 1056 3838 1056 3469 
Q 1056 3159 1242 3001 
Q 1428 2844 1947 2747 
L 2328 2669 
Q 3034 2534 3370 2195 
Q 3706 1856 3706 1288 
Q 3706 609 3251 259 
Q 2797 -91 1919 -91 
Q 1588 -91 1214 -16 
Q 841 59 441 206 
L 441 856 
Q 825 641 1194 531 
Q 1563 422 1919 422 
Q 2459 422 2753 634 
Q 3047 847 3047 1241 
Q 3047 1584 2836 1778 
Q 2625 1972 2144 2069 
L 1759 2144 
Q 1053 2284 737 2584 
Q 422 2884 422 3419 
Q 422 4038 858 4394 
Q 1294 4750 2059 4750 
Q 2388 4750 2728 4690 
Q 3069 4631 3425 4513 
z
" transform="scale(0.015625)"/>
      </defs>
      <use xlink:href="#DejaVuSans-54"/>
      <use xlink:href="#DejaVuSans-4e" x="61.083984"/>
      <use xlink:href="#DejaVuSans-2f" x="135.888672"/>
      <use xlink:href="#DejaVuSans-49" x="169.580078"/>
      <use xlink:href="#DejaVuSans-53" x="199.072266"/>
      <use xlink:href="#DejaVuSans-20" x="262.548828"/>
      <use xlink:href="#DejaVuSans-61" x="294.335938"/>
      <use xlink:href="#DejaVuSans-73" x="355.615234"/>
      <use xlink:href="#DejaVuSans-73" x="407.714844"/>
      <use xlink:href="#DejaVuSans-6f" x="459.814453"/>
      <use xlink:href="#DejaVuSans-63" x="520.996094"/>
      <use xlink:href="#DejaVuSans-69" x="575.976562"/>
      <use xlink:href="#DejaVuSans-61" x="603.759766"/>
      <use xlink:href="#DejaVuSans-74" x="665.039062"/>
      <use xlink:href="#DejaVuSans-65" x="704.248047"/>
      <use xlink:href="#DejaVuSans-64" x="765.771484"/>
     </g>
    </g>
    <g id="line2d_10">
     <path d="M 341.007531 51.869734 
L 348.707531 51.869734 
L 356.407531 51.869734 
" style="fill: none; stroke: #55a868; stroke-width: 1.5; stroke-linecap: round"/>
     <defs>
      <path id="m9312d6a7d1" d="M 0 3 
C 0.795609 3 1.55874 2.683901 2.12132 2.12132 
C 2.683901 1.55874 3 0.795609 3 0 
C 3 -0.795609 2.683901 -1.55874 2.12132 -2.12132 
C 1.55874 -2.683901 0.795609 -3 0 -3 
C -0.795609 -3 -1.55874 -2.683901 -2.12132 -2.12132 
C -2.683901 -1.55874 -3 -0.795609 -3 0 
C -3 0.795609 -2.683901 1.55874 -2.12132 2.12132 
C -1.55874 2.683901 -0.795609 3 0 3 
z
" style="stroke: #55a868"/>
     </defs>
     <g>
      <use xlink:href="#m9312d6a7d1" x="348.707531" y="51.869734" style="fill: #55a868; stroke: #55a868"/>
     </g>
    </g>
    <g id="text_20">
     <!-- Plasmid associated -->
     <g style="fill: #262626" transform="translate(362.567531 54.564734)scale(0.077 -0.077)">
      <use xlink:href="#DejaVuSans-50"/>
      <use xlink:href="#DejaVuSans-6c" x="60.302734"/>
      <use xlink:href="#DejaVuSans-61" x="88.085938"/>
      <use xlink:href="#DejaVuSans-73" x="149.365234"/>
      <use xlink:href="#DejaVuSans-6d" x="201.464844"/>
      <use xlink:href="#DejaVuSans-69" x="298.876953"/>
      <use xlink:href="#DejaVuSans-64" x="326.660156"/>
      <use xlink:href="#DejaVuSans-20" x="390.136719"/>
      <use xlink:href="#DejaVuSans-61" x="421.923828"/>
      <use xlink:href="#DejaVuSans-73" x="483.203125"/>
      <use xlink:href="#DejaVuSans-73" x="535.302734"/>
      <use xlink:href="#DejaVuSans-6f" x="587.402344"/>
      <use xlink:href="#DejaVuSans-63" x="648.583984"/>
      <use xlink:href="#DejaVuSans-69" x="703.564453"/>
      <use xlink:href="#DejaVuSans-61" x="731.347656"/>
      <use xlink:href="#DejaVuSans-74" x="792.626953"/>
      <use xlink:href="#DejaVuSans-65" x="831.835938"/>
      <use xlink:href="#DejaVuSans-64" x="893.359375"/>
     </g>
    </g>
    <g id="line2d_11">
     <path d="M 341.007531 63.171891 
L 348.707531 63.171891 
L 356.407531 63.171891 
" style="fill: none; stroke: #c44e52; stroke-width: 1.5; stroke-linecap: round"/>
     <defs>
      <path id="m59cf1d0c06" d="M 0 3 
C 0.795609 3 1.55874 2.683901 2.12132 2.12132 
C 2.683901 1.55874 3 0.795609 3 0 
C 3 -0.795609 2.683901 -1.55874 2.12132 -2.12132 
C 1.55874 -2.683901 0.795609 -3 0 -3 
C -0.795609 -3 -1.55874 -2.683901 -2.12132 -2.12132 
C -2.683901 -1.55874 -3 -0.795609 -3 0 
C -3 0.795609 -2.683901 1.55874 -2.12132 2.12132 
C -1.55874 2.683901 -0.795609 3 0 3 
z
" style="stroke: #c44e52"/>
     </defs>
     <g>
      <use xlink:href="#m59cf1d0c06" x="348.707531" y="63.171891" style="fill: #c44e52; stroke: #c44e52"/>
     </g>
    </g>
    <g id="text_21">
     <!-- TN/IS associated &amp; Plasmid associated -->
     <g style="fill: #262626" transform="translate(362.567531 65.866891)scale(0.077 -0.077)">
      <defs>
       <path id="DejaVuSans-26" d="M 1556 2509 
Q 1272 2256 1139 2004 
Q 1006 1753 1006 1478 
Q 1006 1022 1337 719 
Q 1669 416 2169 416 
Q 2466 416 2725 514 
Q 2984 613 3213 813 
L 1556 2509 
z
M 1997 2859 
L 3584 1234 
Q 3769 1513 3872 1830 
Q 3975 2147 3994 2503 
L 4575 2503 
Q 4538 2091 4375 1687 
Q 4213 1284 3922 891 
L 4794 0 
L 4006 0 
L 3559 459 
Q 3234 181 2878 45 
Q 2522 -91 2113 -91 
Q 1359 -91 881 339 
Q 403 769 403 1441 
Q 403 1841 612 2192 
Q 822 2544 1241 2853 
Q 1091 3050 1012 3245 
Q 934 3441 934 3628 
Q 934 4134 1281 4442 
Q 1628 4750 2203 4750 
Q 2463 4750 2720 4694 
Q 2978 4638 3244 4525 
L 3244 3956 
Q 2972 4103 2725 4179 
Q 2478 4256 2266 4256 
Q 1938 4256 1733 4082 
Q 1528 3909 1528 3634 
Q 1528 3475 1620 3314 
Q 1713 3153 1997 2859 
z
" transform="scale(0.015625)"/>
      </defs>
      <use xlink:href="#DejaVuSans-54"/>
      <use xlink:href="#DejaVuSans-4e" x="61.083984"/>
      <use xlink:href="#DejaVuSans-2f" x="135.888672"/>
      <use xlink:href="#DejaVuSans-49" x="169.580078"/>
      <use xlink:href="#DejaVuSans-53" x="199.072266"/>
      <use xlink:href="#DejaVuSans-20" x="262.548828"/>
      <use xlink:href="#DejaVuSans-61" x="294.335938"/>
      <use xlink:href="#DejaVuSans-73" x="355.615234"/>
      <use xlink:href="#DejaVuSans-73" x="407.714844"/>
      <use xlink:href="#DejaVuSans-6f" x="459.814453"/>
      <use xlink:href="#DejaVuSans-63" x="520.996094"/>
      <use xlink:href="#DejaVuSans-69" x="575.976562"/>
      <use xlink:href="#DejaVuSans-61" x="603.759766"/>
      <use xlink:href="#DejaVuSans-74" x="665.039062"/>
      <use xlink:href="#DejaVuSans-65" x="704.248047"/>
      <use xlink:href="#DejaVuSans-64" x="765.771484"/>
      <use xlink:href="#DejaVuSans-20" x="829.248047"/>
      <use xlink:href="#DejaVuSans-26" x="861.035156"/>
      <use xlink:href="#DejaVuSans-20" x="939.013672"/>
      <use xlink:href="#DejaVuSans-50" x="970.800781"/>
      <use xlink:href="#DejaVuSans-6c" x="1031.103516"/>
      <use xlink:href="#DejaVuSans-61" x="1058.886719"/>
      <use xlink:href="#DejaVuSans-73" x="1120.166016"/>
      <use xlink:href="#DejaVuSans-6d" x="1172.265625"/>
      <use xlink:href="#DejaVuSans-69" x="1269.677734"/>
      <use xlink:href="#DejaVuSans-64" x="1297.460938"/>
      <use xlink:href="#DejaVuSans-20" x="1360.9375"/>
      <use xlink:href="#DejaVuSans-61" x="1392.724609"/>
      <use xlink:href="#DejaVuSans-73" x="1454.003906"/>
      <use xlink:href="#DejaVuSans-73" x="1506.103516"/>
      <use xlink:href="#DejaVuSans-6f" x="1558.203125"/>
      <use xlink:href="#DejaVuSans-63" x="1619.384766"/>
      <use xlink:href="#DejaVuSans-69" x="1674.365234"/>
      <use xlink:href="#DejaVuSans-61" x="1702.148438"/>
      <use xlink:href="#DejaVuSans-74" x="1763.427734"/>
      <use xlink:href="#DejaVuSans-65" x="1802.636719"/>
      <use xlink:href="#DejaVuSans-64" x="1864.160156"/>
     </g>
    </g>
    <g id="line2d_12">
     <path d="M 341.007531 74.474047 
L 348.707531 74.474047 
L 356.407531 74.474047 
" style="fill: none; stroke: #8172b3; stroke-width: 1.5; stroke-linecap: round"/>
     <defs>
      <path id="m2fb85d50b2" d="M 0 3 
C 0.795609 3 1.55874 2.683901 2.12132 2.12132 
C 2.683901 1.55874 3 0.795609 3 0 
C 3 -0.795609 2.683901 -1.55874 2.12132 -2.12132 
C 1.55874 -2.683901 0.795609 -3 0 -3 
C -0.795609 -3 -1.55874 -2.683901 -2.12132 -2.12132 
C -2.683901 -1.55874 -3 -0.795609 -3 0 
C -3 0.795609 -2.683901 1.55874 -2.12132 2.12132 
C -1.55874 2.683901 -0.795609 3 0 3 
z
" style="stroke: #8172b3"/>
     </defs>
     <g>
      <use xlink:href="#m2fb85d50b2" x="348.707531" y="74.474047" style="fill: #8172b3; stroke: #8172b3"/>
     </g>
    </g>
    <g id="text_22">
     <!-- Integron associated &amp; Plasmid associated -->
     <g style="fill: #262626" transform="translate(362.567531 77.169047)scale(0.077 -0.077)">
      <defs>
       <path id="DejaVuSans-67" d="M 2906 1791 
Q 2906 2416 2648 2759 
Q 2391 3103 1925 3103 
Q 1463 3103 1205 2759 
Q 947 2416 947 1791 
Q 947 1169 1205 825 
Q 1463 481 1925 481 
Q 2391 481 2648 825 
Q 2906 1169 2906 1791 
z
M 3481 434 
Q 3481 -459 3084 -895 
Q 2688 -1331 1869 -1331 
Q 1566 -1331 1297 -1286 
Q 1028 -1241 775 -1147 
L 775 -588 
Q 1028 -725 1275 -790 
Q 1522 -856 1778 -856 
Q 2344 -856 2625 -561 
Q 2906 -266 2906 331 
L 2906 616 
Q 2728 306 2450 153 
Q 2172 0 1784 0 
Q 1141 0 747 490 
Q 353 981 353 1791 
Q 353 2603 747 3093 
Q 1141 3584 1784 3584 
Q 2172 3584 2450 3431 
Q 2728 3278 2906 2969 
L 2906 3500 
L 3481 3500 
L 3481 434 
z
" transform="scale(0.015625)"/>
      </defs>
      <use xlink:href="#DejaVuSans-49"/>
      <use xlink:href="#DejaVuSans-6e" x="29.492188"/>
      <use xlink:href="#DejaVuSans-74" x="92.871094"/>
      <use xlink:href="#DejaVuSans-65" x="132.080078"/>
      <use xlink:href="#DejaVuSans-67" x="193.603516"/>
      <use xlink:href="#DejaVuSans-72" x="257.080078"/>
      <use xlink:href="#DejaVuSans-6f" x="295.943359"/>
      <use xlink:href="#DejaVuSans-6e" x="357.125"/>
      <use xlink:href="#DejaVuSans-20" x="420.503906"/>
      <use xlink:href="#DejaVuSans-61" x="452.291016"/>
      <use xlink:href="#DejaVuSans-73" x="513.570312"/>
      <use xlink:href="#DejaVuSans-73" x="565.669922"/>
      <use xlink:href="#DejaVuSans-6f" x="617.769531"/>
      <use xlink:href="#DejaVuSans-63" x="678.951172"/>
      <use xlink:href="#DejaVuSans-69" x="733.931641"/>
      <use xlink:href="#DejaVuSans-61" x="761.714844"/>
      <use xlink:href="#DejaVuSans-74" x="822.994141"/>
      <use xlink:href="#DejaVuSans-65" x="862.203125"/>
      <use xlink:href="#DejaVuSans-64" x="923.726562"/>
      <use xlink:href="#DejaVuSans-20" x="987.203125"/>
      <use xlink:href="#DejaVuSans-26" x="1018.990234"/>
      <use xlink:href="#DejaVuSans-20" x="1096.96875"/>
      <use xlink:href="#DejaVuSans-50" x="1128.755859"/>
      <use xlink:href="#DejaVuSans-6c" x="1189.058594"/>
      <use xlink:href="#DejaVuSans-61" x="1216.841797"/>
      <use xlink:href="#DejaVuSans-73" x="1278.121094"/>
      <use xlink:href="#DejaVuSans-6d" x="1330.220703"/>
      <use xlink:href="#DejaVuSans-69" x="1427.632812"/>
      <use xlink:href="#DejaVuSans-64" x="1455.416016"/>
      <use xlink:href="#DejaVuSans-20" x="1518.892578"/>
      <use xlink:href="#DejaVuSans-61" x="1550.679688"/>
      <use xlink:href="#DejaVuSans-73" x="1611.958984"/>
      <use xlink:href="#DejaVuSans-73" x="1664.058594"/>
      <use xlink:href="#DejaVuSans-6f" x="1716.158203"/>
      <use xlink:href="#DejaVuSans-63" x="1777.339844"/>
      <use xlink:href="#DejaVuSans-69" x="1832.320312"/>
      <use xlink:href="#DejaVuSans-61" x="1860.103516"/>
      <use xlink:href="#DejaVuSans-74" x="1921.382812"/>
      <use xlink:href="#DejaVuSans-65" x="1960.591797"/>
      <use xlink:href="#DejaVuSans-64" x="2022.115234"/>
     </g>
    </g>
    <g id="line2d_13">
     <path d="M 341.007531 85.776203 
L 348.707531 85.776203 
L 356.407531 85.776203 
" style="fill: none; stroke: #937860; stroke-width: 1.5; stroke-linecap: round"/>
     <defs>
      <path id="m21f3e4d953" d="M 0 3 
C 0.795609 3 1.55874 2.683901 2.12132 2.12132 
C 2.683901 1.55874 3 0.795609 3 0 
C 3 -0.795609 2.683901 -1.55874 2.12132 -2.12132 
C 1.55874 -2.683901 0.795609 -3 0 -3 
C -0.795609 -3 -1.55874 -2.683901 -2.12132 -2.12132 
C -2.683901 -1.55874 -3 -0.795609 -3 0 
C -3 0.795609 -2.683901 1.55874 -2.12132 2.12132 
C -1.55874 2.683901 -0.795609 3 0 3 
z
" style="stroke: #937860"/>
     </defs>
     <g>
      <use xlink:href="#m21f3e4d953" x="348.707531" y="85.776203" style="fill: #937860; stroke: #937860"/>
     </g>
    </g>
    <g id="text_23">
     <!-- TN/IS associated &amp; Integron associated &amp; Plasmid associated -->
     <g style="fill: #262626" transform="translate(362.567531 88.471203)scale(0.077 -0.077)">
      <use xlink:href="#DejaVuSans-54"/>
      <use xlink:href="#DejaVuSans-4e" x="61.083984"/>
      <use xlink:href="#DejaVuSans-2f" x="135.888672"/>
      <use xlink:href="#DejaVuSans-49" x="169.580078"/>
      <use xlink:href="#DejaVuSans-53" x="199.072266"/>
      <use xlink:href="#DejaVuSans-20" x="262.548828"/>
      <use xlink:href="#DejaVuSans-61" x="294.335938"/>
      <use xlink:href="#DejaVuSans-73" x="355.615234"/>
      <use xlink:href="#DejaVuSans-73" x="407.714844"/>
      <use xlink:href="#DejaVuSans-6f" x="459.814453"/>
      <use xlink:href="#DejaVuSans-63" x="520.996094"/>
      <use xlink:href="#DejaVuSans-69" x="575.976562"/>
      <use xlink:href="#DejaVuSans-61" x="603.759766"/>
      <use xlink:href="#DejaVuSans-74" x="665.039062"/>
      <use xlink:href="#DejaVuSans-65" x="704.248047"/>
      <use xlink:href="#DejaVuSans-64" x="765.771484"/>
      <use xlink:href="#DejaVuSans-20" x="829.248047"/>
      <use xlink:href="#DejaVuSans-26" x="861.035156"/>
      <use xlink:href="#DejaVuSans-20" x="939.013672"/>
      <use xlink:href="#DejaVuSans-49" x="970.800781"/>
      <use xlink:href="#DejaVuSans-6e" x="1000.292969"/>
      <use xlink:href="#DejaVuSans-74" x="1063.671875"/>
      <use xlink:href="#DejaVuSans-65" x="1102.880859"/>
      <use xlink:href="#DejaVuSans-67" x="1164.404297"/>
      <use xlink:href="#DejaVuSans-72" x="1227.880859"/>
      <use xlink:href="#DejaVuSans-6f" x="1266.744141"/>
      <use xlink:href="#DejaVuSans-6e" x="1327.925781"/>
      <use xlink:href="#DejaVuSans-20" x="1391.304688"/>
      <use xlink:href="#DejaVuSans-61" x="1423.091797"/>
      <use xlink:href="#DejaVuSans-73" x="1484.371094"/>
      <use xlink:href="#DejaVuSans-73" x="1536.470703"/>
      <use xlink:href="#DejaVuSans-6f" x="1588.570312"/>
      <use xlink:href="#DejaVuSans-63" x="1649.751953"/>
      <use xlink:href="#DejaVuSans-69" x="1704.732422"/>
      <use xlink:href="#DejaVuSans-61" x="1732.515625"/>
      <use xlink:href="#DejaVuSans-74" x="1793.794922"/>
      <use xlink:href="#DejaVuSans-65" x="1833.003906"/>
      <use xlink:href="#DejaVuSans-64" x="1894.527344"/>
      <use xlink:href="#DejaVuSans-20" x="1958.003906"/>
      <use xlink:href="#DejaVuSans-26" x="1989.791016"/>
      <use xlink:href="#DejaVuSans-20" x="2067.769531"/>
      <use xlink:href="#DejaVuSans-50" x="2099.556641"/>
      <use xlink:href="#DejaVuSans-6c" x="2159.859375"/>
      <use xlink:href="#DejaVuSans-61" x="2187.642578"/>
      <use xlink:href="#DejaVuSans-73" x="2248.921875"/>
      <use xlink:href="#DejaVuSans-6d" x="2301.021484"/>
      <use xlink:href="#DejaVuSans-69" x="2398.433594"/>
      <use xlink:href="#DejaVuSans-64" x="2426.216797"/>
      <use xlink:href="#DejaVuSans-20" x="2489.693359"/>
      <use xlink:href="#DejaVuSans-61" x="2521.480469"/>
      <use xlink:href="#DejaVuSans-73" x="2582.759766"/>
      <use xlink:href="#DejaVuSans-73" x="2634.859375"/>
      <use xlink:href="#DejaVuSans-6f" x="2686.958984"/>
      <use xlink:href="#DejaVuSans-63" x="2748.140625"/>
      <use xlink:href="#DejaVuSans-69" x="2803.121094"/>
      <use xlink:href="#DejaVuSans-61" x="2830.904297"/>
      <use xlink:href="#DejaVuSans-74" x="2892.183594"/>
      <use xlink:href="#DejaVuSans-65" x="2931.392578"/>
      <use xlink:href="#DejaVuSans-64" x="2992.916016"/>
     </g>
    </g>
    <g id="line2d_14">
     <path d="M 341.007531 97.078359 
L 348.707531 97.078359 
L 356.407531 97.078359 
" style="fill: none; stroke: #da8bc3; stroke-width: 1.5; stroke-linecap: round"/>
     <defs>
      <path id="me889df56ab" d="M 0 3 
C 0.795609 3 1.55874 2.683901 2.12132 2.12132 
C 2.683901 1.55874 3 0.795609 3 0 
C 3 -0.795609 2.683901 -1.55874 2.12132 -2.12132 
C 1.55874 -2.683901 0.795609 -3 0 -3 
C -0.795609 -3 -1.55874 -2.683901 -2.12132 -2.12132 
C -2.683901 -1.55874 -3 -0.795609 -3 0 
C -3 0.795609 -2.683901 1.55874 -2.12132 2.12132 
C -1.55874 2.683901 -0.795609 3 0 3 
z
" style="stroke: #da8bc3"/>
     </defs>
     <g>
      <use xlink:href="#me889df56ab" x="348.707531" y="97.078359" style="fill: #da8bc3; stroke: #da8bc3"/>
     </g>
    </g>
    <g id="text_24">
     <!-- Integron associated -->
     <g style="fill: #262626" transform="translate(362.567531 99.773359)scale(0.077 -0.077)">
      <use xlink:href="#DejaVuSans-49"/>
      <use xlink:href="#DejaVuSans-6e" x="29.492188"/>
      <use xlink:href="#DejaVuSans-74" x="92.871094"/>
      <use xlink:href="#DejaVuSans-65" x="132.080078"/>
      <use xlink:href="#DejaVuSans-67" x="193.603516"/>
      <use xlink:href="#DejaVuSans-72" x="257.080078"/>
      <use xlink:href="#DejaVuSans-6f" x="295.943359"/>
      <use xlink:href="#DejaVuSans-6e" x="357.125"/>
      <use xlink:href="#DejaVuSans-20" x="420.503906"/>
      <use xlink:href="#DejaVuSans-61" x="452.291016"/>
      <use xlink:href="#DejaVuSans-73" x="513.570312"/>
      <use xlink:href="#DejaVuSans-73" x="565.669922"/>
      <use xlink:href="#DejaVuSans-6f" x="617.769531"/>
      <use xlink:href="#DejaVuSans-63" x="678.951172"/>
      <use xlink:href="#DejaVuSans-69" x="733.931641"/>
      <use xlink:href="#DejaVuSans-61" x="761.714844"/>
      <use xlink:href="#DejaVuSans-74" x="822.994141"/>
      <use xlink:href="#DejaVuSans-65" x="862.203125"/>
      <use xlink:href="#DejaVuSans-64" x="923.726562"/>
     </g>
    </g>
   </g>
  </g>
 </g>
 <defs>
  <clipPath id="p3475640d24">
   <rect x="41.127531" y="7.2" width="279" height="163.08"/>
  </clipPath>
 </defs>
</svg>
