<?xml version="1.0" encoding="utf-8" standalone="no"?>
<!DOCTYPE svg PUBLIC "-//W3C//DTD SVG 1.1//EN"
  "http://www.w3.org/Graphics/SVG/1.1/DTD/svg11.dtd">
<svg xmlns:xlink="http://www.w3.org/1999/xlink" width="462.706531pt" height="206.561781pt" viewBox="0 0 462.706531 206.561781" xmlns="http://www.w3.org/2000/svg" version="1.1">
 <metadata>
  <rdf:RDF xmlns:dc="http://purl.org/dc/elements/1.1/" xmlns:cc="http://creativecommons.org/ns#" xmlns:rdf="http://www.w3.org/1999/02/22-rdf-syntax-ns#">
   <cc:Work>
    <dc:type rdf:resource="http://purl.org/dc/dcmitype/StillImage"/>
    <dc:date>2024-03-25T10:29:23.899655</dc:date>
    <dc:format>image/svg+xml</dc:format>
    <dc:creator>
     <cc:Agent>
      <dc:title>Matplotlib v3.5.2, https://matplotlib.org/</dc:title>
     </cc:Agent>
    </dc:creator>
   </cc:Work>
  </rdf:RDF>
 </metadata>
 <defs>
  <style type="text/css">*{stroke-linejoin: round; stroke-linecap: butt}</style>
 </defs>
 <g id="figure_1">
  <g id="patch_1">
   <path d="M 0 206.561781 
L 462.706531 206.561781 
L 462.706531 0 
L 0 0 
L 0 206.561781 
z
" style="fill: none"/>
  </g>
  <g id="axes_1">
   <g id="patch_2">
    <path d="M 41.127531 170.28 
L 320.127531 170.28 
L 320.127531 7.2 
L 41.127531 7.2 
L 41.127531 170.28 
z
" style="fill: none"/>
   </g>
   <g id="matplotlib.axis_1">
    <g id="xtick_1">
     <g id="text_1">
      <!-- 1880 -->
      <g style="fill: #262626" transform="translate(32.304806 185.630797)scale(0.077 -0.077)">
       <defs>
        <path id="DejaVuSans-31" d="M 794 531 
L 1825 531 
L 1825 4091 
L 703 3866 
L 703 4441 
L 1819 4666 
L 2450 4666 
L 2450 531 
L 3481 531 
L 3481 0 
L 794 0 
L 794 531 
z
" transform="scale(0.015625)"/>
        <path id="DejaVuSans-38" d="M 2034 2216 
Q 1584 2216 1326 1975 
Q 1069 1734 1069 1313 
Q 1069 891 1326 650 
Q 1584 409 2034 409 
Q 2484 409 2743 651 
Q 3003 894 3003 1313 
Q 3003 1734 2745 1975 
Q 2488 2216 2034 2216 
z
M 1403 2484 
Q 997 2584 770 2862 
Q 544 3141 544 3541 
Q 544 4100 942 4425 
Q 1341 4750 2034 4750 
Q 2731 4750 3128 4425 
Q 3525 4100 3525 3541 
Q 3525 3141 3298 2862 
Q 3072 2584 2669 2484 
Q 3125 2378 3379 2068 
Q 3634 1759 3634 1313 
Q 3634 634 3220 271 
Q 2806 -91 2034 -91 
Q 1263 -91 848 271 
Q 434 634 434 1313 
Q 434 1759 690 2068 
Q 947 2378 1403 2484 
z
M 1172 3481 
Q 1172 3119 1398 2916 
Q 1625 2713 2034 2713 
Q 2441 2713 2670 2916 
Q 2900 3119 2900 3481 
Q 2900 3844 2670 4047 
Q 2441 4250 2034 4250 
Q 1625 4250 1398 4047 
Q 1172 3844 1172 3481 
z
" transform="scale(0.015625)"/>
        <path id="DejaVuSans-30" d="M 2034 4250 
Q 1547 4250 1301 3770 
Q 1056 3291 1056 2328 
Q 1056 1369 1301 889 
Q 1547 409 2034 409 
Q 2525 409 2770 889 
Q 3016 1369 3016 2328 
Q 3016 3291 2770 3770 
Q 2525 4250 2034 4250 
z
M 2034 4750 
Q 2819 4750 3233 4129 
Q 3647 3509 3647 2328 
Q 3647 1150 3233 529 
Q 2819 -91 2034 -91 
Q 1250 -91 836 529 
Q 422 1150 422 2328 
Q 422 3509 836 4129 
Q 1250 4750 2034 4750 
z
" transform="scale(0.015625)"/>
       </defs>
       <use xlink:href="#DejaVuSans-31"/>
       <use xlink:href="#DejaVuSans-38" x="63.623047"/>
       <use xlink:href="#DejaVuSans-38" x="127.246094"/>
       <use xlink:href="#DejaVuSans-30" x="190.869141"/>
      </g>
     </g>
    </g>
    <g id="xtick_2">
     <g id="text_2">
      <!-- 1900 -->
      <g style="fill: #262626" transform="translate(71.325785 185.630797)scale(0.077 -0.077)">
       <defs>
        <path id="DejaVuSans-39" d="M 703 97 
L 703 672 
Q 941 559 1184 500 
Q 1428 441 1663 441 
Q 2288 441 2617 861 
Q 2947 1281 2994 2138 
Q 2813 1869 2534 1725 
Q 2256 1581 1919 1581 
Q 1219 1581 811 2004 
Q 403 2428 403 3163 
Q 403 3881 828 4315 
Q 1253 4750 1959 4750 
Q 2769 4750 3195 4129 
Q 3622 3509 3622 2328 
Q 3622 1225 3098 567 
Q 2575 -91 1691 -91 
Q 1453 -91 1209 -44 
Q 966 3 703 97 
z
M 1959 2075 
Q 2384 2075 2632 2365 
Q 2881 2656 2881 3163 
Q 2881 3666 2632 3958 
Q 2384 4250 1959 4250 
Q 1534 4250 1286 3958 
Q 1038 3666 1038 3163 
Q 1038 2656 1286 2365 
Q 1534 2075 1959 2075 
z
" transform="scale(0.015625)"/>
       </defs>
       <use xlink:href="#DejaVuSans-31"/>
       <use xlink:href="#DejaVuSans-39" x="63.623047"/>
       <use xlink:href="#DejaVuSans-30" x="127.246094"/>
       <use xlink:href="#DejaVuSans-30" x="190.869141"/>
      </g>
     </g>
    </g>
    <g id="xtick_3">
     <g id="text_3">
      <!-- 1920 -->
      <g style="fill: #262626" transform="translate(110.346764 185.630797)scale(0.077 -0.077)">
       <defs>
        <path id="DejaVuSans-32" d="M 1228 531 
L 3431 531 
L 3431 0 
L 469 0 
L 469 531 
Q 828 903 1448 1529 
Q 2069 2156 2228 2338 
Q 2531 2678 2651 2914 
Q 2772 3150 2772 3378 
Q 2772 3750 2511 3984 
Q 2250 4219 1831 4219 
Q 1534 4219 1204 4116 
Q 875 4013 500 3803 
L 500 4441 
Q 881 4594 1212 4672 
Q 1544 4750 1819 4750 
Q 2544 4750 2975 4387 
Q 3406 4025 3406 3419 
Q 3406 3131 3298 2873 
Q 3191 2616 2906 2266 
Q 2828 2175 2409 1742 
Q 1991 1309 1228 531 
z
" transform="scale(0.015625)"/>
       </defs>
       <use xlink:href="#DejaVuSans-31"/>
       <use xlink:href="#DejaVuSans-39" x="63.623047"/>
       <use xlink:href="#DejaVuSans-32" x="127.246094"/>
       <use xlink:href="#DejaVuSans-30" x="190.869141"/>
      </g>
     </g>
    </g>
    <g id="xtick_4">
     <g id="text_4">
      <!-- 1940 -->
      <g style="fill: #262626" transform="translate(149.367743 185.630797)scale(0.077 -0.077)">
       <defs>
        <path id="DejaVuSans-34" d="M 2419 4116 
L 825 1625 
L 2419 1625 
L 2419 4116 
z
M 2253 4666 
L 3047 4666 
L 3047 1625 
L 3713 1625 
L 3713 1100 
L 3047 1100 
L 3047 0 
L 2419 0 
L 2419 1100 
L 313 1100 
L 313 1709 
L 2253 4666 
z
" transform="scale(0.015625)"/>
       </defs>
       <use xlink:href="#DejaVuSans-31"/>
       <use xlink:href="#DejaVuSans-39" x="63.623047"/>
       <use xlink:href="#DejaVuSans-34" x="127.246094"/>
       <use xlink:href="#DejaVuSans-30" x="190.869141"/>
      </g>
     </g>
    </g>
    <g id="xtick_5">
     <g id="text_5">
      <!-- 1960 -->
      <g style="fill: #262626" transform="translate(188.388722 185.630797)scale(0.077 -0.077)">
       <defs>
        <path id="DejaVuSans-36" d="M 2113 2584 
Q 1688 2584 1439 2293 
Q 1191 2003 1191 1497 
Q 1191 994 1439 701 
Q 1688 409 2113 409 
Q 2538 409 2786 701 
Q 3034 994 3034 1497 
Q 3034 2003 2786 2293 
Q 2538 2584 2113 2584 
z
M 3366 4563 
L 3366 3988 
Q 3128 4100 2886 4159 
Q 2644 4219 2406 4219 
Q 1781 4219 1451 3797 
Q 1122 3375 1075 2522 
Q 1259 2794 1537 2939 
Q 1816 3084 2150 3084 
Q 2853 3084 3261 2657 
Q 3669 2231 3669 1497 
Q 3669 778 3244 343 
Q 2819 -91 2113 -91 
Q 1303 -91 875 529 
Q 447 1150 447 2328 
Q 447 3434 972 4092 
Q 1497 4750 2381 4750 
Q 2619 4750 2861 4703 
Q 3103 4656 3366 4563 
z
" transform="scale(0.015625)"/>
       </defs>
       <use xlink:href="#DejaVuSans-31"/>
       <use xlink:href="#DejaVuSans-39" x="63.623047"/>
       <use xlink:href="#DejaVuSans-36" x="127.246094"/>
       <use xlink:href="#DejaVuSans-30" x="190.869141"/>
      </g>
     </g>
    </g>
    <g id="xtick_6">
     <g id="text_6">
      <!-- 1980 -->
      <g style="fill: #262626" transform="translate(227.409701 185.630797)scale(0.077 -0.077)">
       <use xlink:href="#DejaVuSans-31"/>
       <use xlink:href="#DejaVuSans-39" x="63.623047"/>
       <use xlink:href="#DejaVuSans-38" x="127.246094"/>
       <use xlink:href="#DejaVuSans-30" x="190.869141"/>
      </g>
     </g>
    </g>
    <g id="xtick_7">
     <g id="text_7">
      <!-- 2000 -->
      <g style="fill: #262626" transform="translate(266.43068 185.630797)scale(0.077 -0.077)">
       <use xlink:href="#DejaVuSans-32"/>
       <use xlink:href="#DejaVuSans-30" x="63.623047"/>
       <use xlink:href="#DejaVuSans-30" x="127.246094"/>
       <use xlink:href="#DejaVuSans-30" x="190.869141"/>
      </g>
     </g>
    </g>
    <g id="xtick_8">
     <g id="text_8">
      <!-- 2020 -->
      <g style="fill: #262626" transform="translate(305.451659 185.630797)scale(0.077 -0.077)">
       <use xlink:href="#DejaVuSans-32"/>
       <use xlink:href="#DejaVuSans-30" x="63.623047"/>
       <use xlink:href="#DejaVuSans-32" x="127.246094"/>
       <use xlink:href="#DejaVuSans-30" x="190.869141"/>
      </g>
     </g>
    </g>
    <g id="text_9">
     <!-- Year Cultured -->
     <g style="fill: #262626" transform="translate(152.446844 197.614844)scale(0.084 -0.084)">
      <defs>
       <path id="DejaVuSans-59" d="M -13 4666 
L 666 4666 
L 1959 2747 
L 3244 4666 
L 3922 4666 
L 2272 2222 
L 2272 0 
L 1638 0 
L 1638 2222 
L -13 4666 
z
" transform="scale(0.015625)"/>
       <path id="DejaVuSans-65" d="M 3597 1894 
L 3597 1613 
L 953 1613 
Q 991 1019 1311 708 
Q 1631 397 2203 397 
Q 2534 397 2845 478 
Q 3156 559 3463 722 
L 3463 178 
Q 3153 47 2828 -22 
Q 2503 -91 2169 -91 
Q 1331 -91 842 396 
Q 353 884 353 1716 
Q 353 2575 817 3079 
Q 1281 3584 2069 3584 
Q 2775 3584 3186 3129 
Q 3597 2675 3597 1894 
z
M 3022 2063 
Q 3016 2534 2758 2815 
Q 2500 3097 2075 3097 
Q 1594 3097 1305 2825 
Q 1016 2553 972 2059 
L 3022 2063 
z
" transform="scale(0.015625)"/>
       <path id="DejaVuSans-61" d="M 2194 1759 
Q 1497 1759 1228 1600 
Q 959 1441 959 1056 
Q 959 750 1161 570 
Q 1363 391 1709 391 
Q 2188 391 2477 730 
Q 2766 1069 2766 1631 
L 2766 1759 
L 2194 1759 
z
M 3341 1997 
L 3341 0 
L 2766 0 
L 2766 531 
Q 2569 213 2275 61 
Q 1981 -91 1556 -91 
Q 1019 -91 701 211 
Q 384 513 384 1019 
Q 384 1609 779 1909 
Q 1175 2209 1959 2209 
L 2766 2209 
L 2766 2266 
Q 2766 2663 2505 2880 
Q 2244 3097 1772 3097 
Q 1472 3097 1187 3025 
Q 903 2953 641 2809 
L 641 3341 
Q 956 3463 1253 3523 
Q 1550 3584 1831 3584 
Q 2591 3584 2966 3190 
Q 3341 2797 3341 1997 
z
" transform="scale(0.015625)"/>
       <path id="DejaVuSans-72" d="M 2631 2963 
Q 2534 3019 2420 3045 
Q 2306 3072 2169 3072 
Q 1681 3072 1420 2755 
Q 1159 2438 1159 1844 
L 1159 0 
L 581 0 
L 581 3500 
L 1159 3500 
L 1159 2956 
Q 1341 3275 1631 3429 
Q 1922 3584 2338 3584 
Q 2397 3584 2469 3576 
Q 2541 3569 2628 3553 
L 2631 2963 
z
" transform="scale(0.015625)"/>
       <path id="DejaVuSans-20" transform="scale(0.015625)"/>
       <path id="DejaVuSans-43" d="M 4122 4306 
L 4122 3641 
Q 3803 3938 3442 4084 
Q 3081 4231 2675 4231 
Q 1875 4231 1450 3742 
Q 1025 3253 1025 2328 
Q 1025 1406 1450 917 
Q 1875 428 2675 428 
Q 3081 428 3442 575 
Q 3803 722 4122 1019 
L 4122 359 
Q 3791 134 3420 21 
Q 3050 -91 2638 -91 
Q 1578 -91 968 557 
Q 359 1206 359 2328 
Q 359 3453 968 4101 
Q 1578 4750 2638 4750 
Q 3056 4750 3426 4639 
Q 3797 4528 4122 4306 
z
" transform="scale(0.015625)"/>
       <path id="DejaVuSans-75" d="M 544 1381 
L 544 3500 
L 1119 3500 
L 1119 1403 
Q 1119 906 1312 657 
Q 1506 409 1894 409 
Q 2359 409 2629 706 
Q 2900 1003 2900 1516 
L 2900 3500 
L 3475 3500 
L 3475 0 
L 2900 0 
L 2900 538 
Q 2691 219 2414 64 
Q 2138 -91 1772 -91 
Q 1169 -91 856 284 
Q 544 659 544 1381 
z
M 1991 3584 
L 1991 3584 
z
" transform="scale(0.015625)"/>
       <path id="DejaVuSans-6c" d="M 603 4863 
L 1178 4863 
L 1178 0 
L 603 0 
L 603 4863 
z
" transform="scale(0.015625)"/>
       <path id="DejaVuSans-74" d="M 1172 4494 
L 1172 3500 
L 2356 3500 
L 2356 3053 
L 1172 3053 
L 1172 1153 
Q 1172 725 1289 603 
Q 1406 481 1766 481 
L 2356 481 
L 2356 0 
L 1766 0 
Q 1100 0 847 248 
Q 594 497 594 1153 
L 594 3053 
L 172 3053 
L 172 3500 
L 594 3500 
L 594 4494 
L 1172 4494 
z
" transform="scale(0.015625)"/>
       <path id="DejaVuSans-64" d="M 2906 2969 
L 2906 4863 
L 3481 4863 
L 3481 0 
L 2906 0 
L 2906 525 
Q 2725 213 2448 61 
Q 2172 -91 1784 -91 
Q 1150 -91 751 415 
Q 353 922 353 1747 
Q 353 2572 751 3078 
Q 1150 3584 1784 3584 
Q 2172 3584 2448 3432 
Q 2725 3281 2906 2969 
z
M 947 1747 
Q 947 1113 1208 752 
Q 1469 391 1925 391 
Q 2381 391 2643 752 
Q 2906 1113 2906 1747 
Q 2906 2381 2643 2742 
Q 2381 3103 1925 3103 
Q 1469 3103 1208 2742 
Q 947 2381 947 1747 
z
" transform="scale(0.015625)"/>
      </defs>
      <use xlink:href="#DejaVuSans-59"/>
      <use xlink:href="#DejaVuSans-65" x="47.833984"/>
      <use xlink:href="#DejaVuSans-61" x="109.357422"/>
      <use xlink:href="#DejaVuSans-72" x="170.636719"/>
      <use xlink:href="#DejaVuSans-20" x="211.75"/>
      <use xlink:href="#DejaVuSans-43" x="243.537109"/>
      <use xlink:href="#DejaVuSans-75" x="313.361328"/>
      <use xlink:href="#DejaVuSans-6c" x="376.740234"/>
      <use xlink:href="#DejaVuSans-74" x="404.523438"/>
      <use xlink:href="#DejaVuSans-75" x="443.732422"/>
      <use xlink:href="#DejaVuSans-72" x="507.111328"/>
      <use xlink:href="#DejaVuSans-65" x="545.974609"/>
      <use xlink:href="#DejaVuSans-64" x="607.498047"/>
     </g>
    </g>
   </g>
   <g id="matplotlib.axis_2">
    <g id="ytick_1">
     <g id="text_10">
      <!-- 0.0 -->
      <g style="fill: #262626" transform="translate(19.382125 170.958347)scale(0.077 -0.077)">
       <defs>
        <path id="DejaVuSans-2e" d="M 684 794 
L 1344 794 
L 1344 0 
L 684 0 
L 684 794 
z
" transform="scale(0.015625)"/>
       </defs>
       <use xlink:href="#DejaVuSans-30"/>
       <use xlink:href="#DejaVuSans-2e" x="63.623047"/>
       <use xlink:href="#DejaVuSans-30" x="95.410156"/>
      </g>
     </g>
    </g>
    <g id="ytick_2">
     <g id="text_11">
      <!-- 0.2 -->
      <g style="fill: #262626" transform="translate(19.382125 140.274302)scale(0.077 -0.077)">
       <use xlink:href="#DejaVuSans-30"/>
       <use xlink:href="#DejaVuSans-2e" x="63.623047"/>
       <use xlink:href="#DejaVuSans-32" x="95.410156"/>
      </g>
     </g>
    </g>
    <g id="ytick_3">
     <g id="text_12">
      <!-- 0.4 -->
      <g style="fill: #262626" transform="translate(19.382125 109.590258)scale(0.077 -0.077)">
       <use xlink:href="#DejaVuSans-30"/>
       <use xlink:href="#DejaVuSans-2e" x="63.623047"/>
       <use xlink:href="#DejaVuSans-34" x="95.410156"/>
      </g>
     </g>
    </g>
    <g id="ytick_4">
     <g id="text_13">
      <!-- 0.6 -->
      <g style="fill: #262626" transform="translate(19.382125 78.906214)scale(0.077 -0.077)">
       <use xlink:href="#DejaVuSans-30"/>
       <use xlink:href="#DejaVuSans-2e" x="63.623047"/>
       <use xlink:href="#DejaVuSans-36" x="95.410156"/>
      </g>
     </g>
    </g>
    <g id="ytick_5">
     <g id="text_14">
      <!-- 0.8 -->
      <g style="fill: #262626" transform="translate(19.382125 48.22217)scale(0.077 -0.077)">
       <use xlink:href="#DejaVuSans-30"/>
       <use xlink:href="#DejaVuSans-2e" x="63.623047"/>
       <use xlink:href="#DejaVuSans-38" x="95.410156"/>
      </g>
     </g>
    </g>
    <g id="ytick_6">
     <g id="text_15">
      <!-- 1.0 -->
      <g style="fill: #262626" transform="translate(19.382125 17.538126)scale(0.077 -0.077)">
       <use xlink:href="#DejaVuSans-31"/>
       <use xlink:href="#DejaVuSans-2e" x="63.623047"/>
       <use xlink:href="#DejaVuSans-30" x="95.410156"/>
      </g>
     </g>
    </g>
    <g id="text_16">
     <!-- Fraction of β-Lactamases -->
     <g style="fill: #262626" transform="translate(13.635187 141.488062)rotate(-90)scale(0.084 -0.084)">
      <defs>
       <path id="DejaVuSans-46" d="M 628 4666 
L 3309 4666 
L 3309 4134 
L 1259 4134 
L 1259 2759 
L 3109 2759 
L 3109 2228 
L 1259 2228 
L 1259 0 
L 628 0 
L 628 4666 
z
" transform="scale(0.015625)"/>
       <path id="DejaVuSans-63" d="M 3122 3366 
L 3122 2828 
Q 2878 2963 2633 3030 
Q 2388 3097 2138 3097 
Q 1578 3097 1268 2742 
Q 959 2388 959 1747 
Q 959 1106 1268 751 
Q 1578 397 2138 397 
Q 2388 397 2633 464 
Q 2878 531 3122 666 
L 3122 134 
Q 2881 22 2623 -34 
Q 2366 -91 2075 -91 
Q 1284 -91 818 406 
Q 353 903 353 1747 
Q 353 2603 823 3093 
Q 1294 3584 2113 3584 
Q 2378 3584 2631 3529 
Q 2884 3475 3122 3366 
z
" transform="scale(0.015625)"/>
       <path id="DejaVuSans-69" d="M 603 3500 
L 1178 3500 
L 1178 0 
L 603 0 
L 603 3500 
z
M 603 4863 
L 1178 4863 
L 1178 4134 
L 603 4134 
L 603 4863 
z
" transform="scale(0.015625)"/>
       <path id="DejaVuSans-6f" d="M 1959 3097 
Q 1497 3097 1228 2736 
Q 959 2375 959 1747 
Q 959 1119 1226 758 
Q 1494 397 1959 397 
Q 2419 397 2687 759 
Q 2956 1122 2956 1747 
Q 2956 2369 2687 2733 
Q 2419 3097 1959 3097 
z
M 1959 3584 
Q 2709 3584 3137 3096 
Q 3566 2609 3566 1747 
Q 3566 888 3137 398 
Q 2709 -91 1959 -91 
Q 1206 -91 779 398 
Q 353 888 353 1747 
Q 353 2609 779 3096 
Q 1206 3584 1959 3584 
z
" transform="scale(0.015625)"/>
       <path id="DejaVuSans-6e" d="M 3513 2113 
L 3513 0 
L 2938 0 
L 2938 2094 
Q 2938 2591 2744 2837 
Q 2550 3084 2163 3084 
Q 1697 3084 1428 2787 
Q 1159 2491 1159 1978 
L 1159 0 
L 581 0 
L 581 3500 
L 1159 3500 
L 1159 2956 
Q 1366 3272 1645 3428 
Q 1925 3584 2291 3584 
Q 2894 3584 3203 3211 
Q 3513 2838 3513 2113 
z
" transform="scale(0.015625)"/>
       <path id="DejaVuSans-66" d="M 2375 4863 
L 2375 4384 
L 1825 4384 
Q 1516 4384 1395 4259 
Q 1275 4134 1275 3809 
L 1275 3500 
L 2222 3500 
L 2222 3053 
L 1275 3053 
L 1275 0 
L 697 0 
L 697 3053 
L 147 3053 
L 147 3500 
L 697 3500 
L 697 3744 
Q 697 4328 969 4595 
Q 1241 4863 1831 4863 
L 2375 4863 
z
" transform="scale(0.015625)"/>
       <path id="DejaVuSans-3b2" d="M 1178 216 
L 1178 -1331 
L 600 -1331 
L 600 3478 
Q 600 4903 1931 4903 
Q 3288 4903 3288 3700 
Q 3288 2844 2750 2531 
Q 3625 2250 3625 1416 
Q 3625 -66 2119 -66 
Q 1456 -66 1178 216 
z
M 1178 966 
Q 1525 425 2141 425 
Q 3041 425 3041 1406 
Q 3041 2288 1591 2219 
L 1591 2750 
Q 2725 2750 2725 3750 
Q 2725 4434 1994 4434 
Q 1178 4434 1178 3459 
L 1178 966 
z
" transform="scale(0.015625)"/>
       <path id="DejaVuSans-2d" d="M 313 2009 
L 1997 2009 
L 1997 1497 
L 313 1497 
L 313 2009 
z
" transform="scale(0.015625)"/>
       <path id="DejaVuSans-4c" d="M 628 4666 
L 1259 4666 
L 1259 531 
L 3531 531 
L 3531 0 
L 628 0 
L 628 4666 
z
" transform="scale(0.015625)"/>
       <path id="DejaVuSans-6d" d="M 3328 2828 
Q 3544 3216 3844 3400 
Q 4144 3584 4550 3584 
Q 5097 3584 5394 3201 
Q 5691 2819 5691 2113 
L 5691 0 
L 5113 0 
L 5113 2094 
Q 5113 2597 4934 2840 
Q 4756 3084 4391 3084 
Q 3944 3084 3684 2787 
Q 3425 2491 3425 1978 
L 3425 0 
L 2847 0 
L 2847 2094 
Q 2847 2600 2669 2842 
Q 2491 3084 2119 3084 
Q 1678 3084 1418 2786 
Q 1159 2488 1159 1978 
L 1159 0 
L 581 0 
L 581 3500 
L 1159 3500 
L 1159 2956 
Q 1356 3278 1631 3431 
Q 1906 3584 2284 3584 
Q 2666 3584 2933 3390 
Q 3200 3197 3328 2828 
z
" transform="scale(0.015625)"/>
       <path id="DejaVuSans-73" d="M 2834 3397 
L 2834 2853 
Q 2591 2978 2328 3040 
Q 2066 3103 1784 3103 
Q 1356 3103 1142 2972 
Q 928 2841 928 2578 
Q 928 2378 1081 2264 
Q 1234 2150 1697 2047 
L 1894 2003 
Q 2506 1872 2764 1633 
Q 3022 1394 3022 966 
Q 3022 478 2636 193 
Q 2250 -91 1575 -91 
Q 1294 -91 989 -36 
Q 684 19 347 128 
L 347 722 
Q 666 556 975 473 
Q 1284 391 1588 391 
Q 1994 391 2212 530 
Q 2431 669 2431 922 
Q 2431 1156 2273 1281 
Q 2116 1406 1581 1522 
L 1381 1569 
Q 847 1681 609 1914 
Q 372 2147 372 2553 
Q 372 3047 722 3315 
Q 1072 3584 1716 3584 
Q 2034 3584 2315 3537 
Q 2597 3491 2834 3397 
z
" transform="scale(0.015625)"/>
      </defs>
      <use xlink:href="#DejaVuSans-46"/>
      <use xlink:href="#DejaVuSans-72" x="50.269531"/>
      <use xlink:href="#DejaVuSans-61" x="91.382812"/>
      <use xlink:href="#DejaVuSans-63" x="152.662109"/>
      <use xlink:href="#DejaVuSans-74" x="207.642578"/>
      <use xlink:href="#DejaVuSans-69" x="246.851562"/>
      <use xlink:href="#DejaVuSans-6f" x="274.634766"/>
      <use xlink:href="#DejaVuSans-6e" x="335.816406"/>
      <use xlink:href="#DejaVuSans-20" x="399.195312"/>
      <use xlink:href="#DejaVuSans-6f" x="430.982422"/>
      <use xlink:href="#DejaVuSans-66" x="492.164062"/>
      <use xlink:href="#DejaVuSans-20" x="527.369141"/>
      <use xlink:href="#DejaVuSans-3b2" x="559.15625"/>
      <use xlink:href="#DejaVuSans-2d" x="622.974609"/>
      <use xlink:href="#DejaVuSans-4c" x="659.058594"/>
      <use xlink:href="#DejaVuSans-61" x="714.771484"/>
      <use xlink:href="#DejaVuSans-63" x="776.050781"/>
      <use xlink:href="#DejaVuSans-74" x="831.03125"/>
      <use xlink:href="#DejaVuSans-61" x="870.240234"/>
      <use xlink:href="#DejaVuSans-6d" x="931.519531"/>
      <use xlink:href="#DejaVuSans-61" x="1028.931641"/>
      <use xlink:href="#DejaVuSans-73" x="1090.210938"/>
      <use xlink:href="#DejaVuSans-65" x="1142.310547"/>
      <use xlink:href="#DejaVuSans-73" x="1203.833984"/>
     </g>
    </g>
   </g>
   <g id="PathCollection_1">
    <defs>
     <path id="C0_0_bb0c4af300" d="M 0 3 
C 0.795609 3 1.55874 2.683901 2.12132 2.12132 
C 2.683901 1.55874 3 0.795609 3 -0 
C 3 -0.795609 2.683901 -1.55874 2.12132 -2.12132 
C 1.55874 -2.683901 0.795609 -3 0 -3 
C -0.795609 -3 -1.55874 -2.683901 -2.12132 -2.12132 
C -2.683901 -1.55874 -3 -0.795609 -3 0 
C -3 0.795609 -2.683901 1.55874 -2.12132 2.12132 
C -1.55874 2.683901 -0.795609 3 0 3 
z
"/>
    </defs>
    <g clip-path="url(#p6590ca28b5)">
     <use xlink:href="#C0_0_bb0c4af300" x="53.809349" y="14.612727" style="fill: #4c72b0"/>
    </g>
    <g clip-path="url(#p6590ca28b5)">
     <use xlink:href="#C0_0_bb0c4af300" x="92.830328" y="14.612727" style="fill: #4c72b0"/>
    </g>
    <g clip-path="url(#p6590ca28b5)">
     <use xlink:href="#C0_0_bb0c4af300" x="102.585573" y="14.612727" style="fill: #4c72b0"/>
    </g>
    <g clip-path="url(#p6590ca28b5)">
     <use xlink:href="#C0_0_bb0c4af300" x="108.43872" y="14.612727" style="fill: #4c72b0"/>
    </g>
    <g clip-path="url(#p6590ca28b5)">
     <use xlink:href="#C0_0_bb0c4af300" x="112.340818" y="14.612727" style="fill: #4c72b0"/>
    </g>
    <g clip-path="url(#p6590ca28b5)">
     <use xlink:href="#C0_0_bb0c4af300" x="114.291867" y="14.612727" style="fill: #4c72b0"/>
    </g>
    <g clip-path="url(#p6590ca28b5)">
     <use xlink:href="#C0_0_bb0c4af300" x="118.193965" y="14.612727" style="fill: #4c72b0"/>
    </g>
    <g clip-path="url(#p6590ca28b5)">
     <use xlink:href="#C0_0_bb0c4af300" x="120.145014" y="14.612727" style="fill: #4c72b0"/>
    </g>
    <g clip-path="url(#p6590ca28b5)">
     <use xlink:href="#C0_0_bb0c4af300" x="122.096063" y="14.612727" style="fill: #4c72b0"/>
    </g>
    <g clip-path="url(#p6590ca28b5)">
     <use xlink:href="#C0_0_bb0c4af300" x="125.998161" y="14.612727" style="fill: #4c72b0"/>
    </g>
    <g clip-path="url(#p6590ca28b5)">
     <use xlink:href="#C0_0_bb0c4af300" x="129.900259" y="14.612727" style="fill: #4c72b0"/>
    </g>
    <g clip-path="url(#p6590ca28b5)">
     <use xlink:href="#C0_0_bb0c4af300" x="135.753405" y="14.612727" style="fill: #4c72b0"/>
    </g>
    <g clip-path="url(#p6590ca28b5)">
     <use xlink:href="#C0_0_bb0c4af300" x="137.704454" y="20.749536" style="fill: #4c72b0"/>
    </g>
    <g clip-path="url(#p6590ca28b5)">
     <use xlink:href="#C0_0_bb0c4af300" x="139.655503" y="30.977551" style="fill: #4c72b0"/>
    </g>
    <g clip-path="url(#p6590ca28b5)">
     <use xlink:href="#C0_0_bb0c4af300" x="141.606552" y="30.977551" style="fill: #4c72b0"/>
    </g>
    <g clip-path="url(#p6590ca28b5)">
     <use xlink:href="#C0_0_bb0c4af300" x="143.557601" y="30.977551" style="fill: #4c72b0"/>
    </g>
    <g clip-path="url(#p6590ca28b5)">
     <use xlink:href="#C0_0_bb0c4af300" x="145.50865" y="30.977551" style="fill: #4c72b0"/>
    </g>
    <g clip-path="url(#p6590ca28b5)">
     <use xlink:href="#C0_0_bb0c4af300" x="147.459699" y="24.840742" style="fill: #4c72b0"/>
    </g>
    <g clip-path="url(#p6590ca28b5)">
     <use xlink:href="#C0_0_bb0c4af300" x="149.410748" y="14.612727" style="fill: #4c72b0"/>
    </g>
    <g clip-path="url(#p6590ca28b5)">
     <use xlink:href="#C0_0_bb0c4af300" x="153.312846" y="14.612727" style="fill: #4c72b0"/>
    </g>
    <g clip-path="url(#p6590ca28b5)">
     <use xlink:href="#C0_0_bb0c4af300" x="155.263895" y="20.749536" style="fill: #4c72b0"/>
    </g>
    <g clip-path="url(#p6590ca28b5)">
     <use xlink:href="#C0_0_bb0c4af300" x="157.214944" y="20.749536" style="fill: #4c72b0"/>
    </g>
    <g clip-path="url(#p6590ca28b5)">
     <use xlink:href="#C0_0_bb0c4af300" x="159.165993" y="20.749536" style="fill: #4c72b0"/>
    </g>
    <g clip-path="url(#p6590ca28b5)">
     <use xlink:href="#C0_0_bb0c4af300" x="161.117042" y="20.749536" style="fill: #4c72b0"/>
    </g>
    <g clip-path="url(#p6590ca28b5)">
     <use xlink:href="#C0_0_bb0c4af300" x="163.068091" y="20.749536" style="fill: #4c72b0"/>
    </g>
    <g clip-path="url(#p6590ca28b5)">
     <use xlink:href="#C0_0_bb0c4af300" x="165.01914" y="14.612727" style="fill: #4c72b0"/>
    </g>
    <g clip-path="url(#p6590ca28b5)">
     <use xlink:href="#C0_0_bb0c4af300" x="166.970189" y="14.612727" style="fill: #4c72b0"/>
    </g>
    <g clip-path="url(#p6590ca28b5)">
     <use xlink:href="#C0_0_bb0c4af300" x="168.921238" y="14.612727" style="fill: #4c72b0"/>
    </g>
    <g clip-path="url(#p6590ca28b5)">
     <use xlink:href="#C0_0_bb0c4af300" x="170.872286" y="14.612727" style="fill: #4c72b0"/>
    </g>
    <g clip-path="url(#p6590ca28b5)">
     <use xlink:href="#C0_0_bb0c4af300" x="172.823335" y="18.614994" style="fill: #4c72b0"/>
    </g>
    <g clip-path="url(#p6590ca28b5)">
     <use xlink:href="#C0_0_bb0c4af300" x="174.774384" y="20.975305" style="fill: #4c72b0"/>
    </g>
    <g clip-path="url(#p6590ca28b5)">
     <use xlink:href="#C0_0_bb0c4af300" x="176.725433" y="28.646316" style="fill: #4c72b0"/>
    </g>
    <g clip-path="url(#p6590ca28b5)">
     <use xlink:href="#C0_0_bb0c4af300" x="178.676482" y="28.646316" style="fill: #4c72b0"/>
    </g>
    <g clip-path="url(#p6590ca28b5)">
     <use xlink:href="#C0_0_bb0c4af300" x="180.627531" y="28.646316" style="fill: #4c72b0"/>
    </g>
    <g clip-path="url(#p6590ca28b5)">
     <use xlink:href="#C0_0_bb0c4af300" x="182.57858" y="29.758057" style="fill: #4c72b0"/>
    </g>
    <g clip-path="url(#p6590ca28b5)">
     <use xlink:href="#C0_0_bb0c4af300" x="184.529629" y="28.184516" style="fill: #4c72b0"/>
    </g>
    <g clip-path="url(#p6590ca28b5)">
     <use xlink:href="#C0_0_bb0c4af300" x="186.480678" y="20.513505" style="fill: #4c72b0"/>
    </g>
    <g clip-path="url(#p6590ca28b5)">
     <use xlink:href="#C0_0_bb0c4af300" x="188.431727" y="20.513505" style="fill: #4c72b0"/>
    </g>
    <g clip-path="url(#p6590ca28b5)">
     <use xlink:href="#C0_0_bb0c4af300" x="190.382776" y="20.513505" style="fill: #4c72b0"/>
    </g>
    <g clip-path="url(#p6590ca28b5)">
     <use xlink:href="#C0_0_bb0c4af300" x="192.333825" y="15.399498" style="fill: #4c72b0"/>
    </g>
    <g clip-path="url(#p6590ca28b5)">
     <use xlink:href="#C0_0_bb0c4af300" x="194.284874" y="17.169731" style="fill: #4c72b0"/>
    </g>
    <g clip-path="url(#p6590ca28b5)">
     <use xlink:href="#C0_0_bb0c4af300" x="196.235923" y="17.169731" style="fill: #4c72b0"/>
    </g>
    <g clip-path="url(#p6590ca28b5)">
     <use xlink:href="#C0_0_bb0c4af300" x="198.186972" y="20.579069" style="fill: #4c72b0"/>
    </g>
    <g clip-path="url(#p6590ca28b5)">
     <use xlink:href="#C0_0_bb0c4af300" x="200.138021" y="20.579069" style="fill: #4c72b0"/>
    </g>
    <g clip-path="url(#p6590ca28b5)">
     <use xlink:href="#C0_0_bb0c4af300" x="202.08907" y="35.921091" style="fill: #4c72b0"/>
    </g>
    <g clip-path="url(#p6590ca28b5)">
     <use xlink:href="#C0_0_bb0c4af300" x="204.040119" y="33.364088" style="fill: #4c72b0"/>
    </g>
    <g clip-path="url(#p6590ca28b5)">
     <use xlink:href="#C0_0_bb0c4af300" x="205.991168" y="33.364088" style="fill: #4c72b0"/>
    </g>
    <g clip-path="url(#p6590ca28b5)">
     <use xlink:href="#C0_0_bb0c4af300" x="207.942217" y="29.954749" style="fill: #4c72b0"/>
    </g>
    <g clip-path="url(#p6590ca28b5)">
     <use xlink:href="#C0_0_bb0c4af300" x="209.893266" y="37.62576" style="fill: #4c72b0"/>
    </g>
    <g clip-path="url(#p6590ca28b5)">
     <use xlink:href="#C0_0_bb0c4af300" x="211.844314" y="22.283738" style="fill: #4c72b0"/>
    </g>
    <g clip-path="url(#p6590ca28b5)">
     <use xlink:href="#C0_0_bb0c4af300" x="213.795363" y="24.644049" style="fill: #4c72b0"/>
    </g>
    <g clip-path="url(#p6590ca28b5)">
     <use xlink:href="#C0_0_bb0c4af300" x="215.746412" y="27.433508" style="fill: #4c72b0"/>
    </g>
    <g clip-path="url(#p6590ca28b5)">
     <use xlink:href="#C0_0_bb0c4af300" x="217.697461" y="31.269013" style="fill: #4c72b0"/>
    </g>
    <g clip-path="url(#p6590ca28b5)">
     <use xlink:href="#C0_0_bb0c4af300" x="219.64851" y="23.598002" style="fill: #4c72b0"/>
    </g>
    <g clip-path="url(#p6590ca28b5)">
     <use xlink:href="#C0_0_bb0c4af300" x="221.599559" y="23.598002" style="fill: #4c72b0"/>
    </g>
    <g clip-path="url(#p6590ca28b5)">
     <use xlink:href="#C0_0_bb0c4af300" x="223.550608" y="28.908702" style="fill: #4c72b0"/>
    </g>
    <g clip-path="url(#p6590ca28b5)">
     <use xlink:href="#C0_0_bb0c4af300" x="225.501657" y="28.908702" style="fill: #4c72b0"/>
    </g>
    <g clip-path="url(#p6590ca28b5)">
     <use xlink:href="#C0_0_bb0c4af300" x="227.452706" y="25.073197" style="fill: #4c72b0"/>
    </g>
    <g clip-path="url(#p6590ca28b5)">
     <use xlink:href="#C0_0_bb0c4af300" x="229.403755" y="25.073197" style="fill: #4c72b0"/>
    </g>
    <g clip-path="url(#p6590ca28b5)">
     <use xlink:href="#C0_0_bb0c4af300" x="231.354804" y="27.630201" style="fill: #4c72b0"/>
    </g>
    <g clip-path="url(#p6590ca28b5)">
     <use xlink:href="#C0_0_bb0c4af300" x="233.305853" y="25.073197" style="fill: #4c72b0"/>
    </g>
    <g clip-path="url(#p6590ca28b5)">
     <use xlink:href="#C0_0_bb0c4af300" x="237.207951" y="22.283738" style="fill: #4c72b0"/>
    </g>
    <g clip-path="url(#p6590ca28b5)">
     <use xlink:href="#C0_0_bb0c4af300" x="239.159" y="30.46615" style="fill: #4c72b0"/>
    </g>
    <g clip-path="url(#p6590ca28b5)">
     <use xlink:href="#C0_0_bb0c4af300" x="241.110049" y="30.46615" style="fill: #4c72b0"/>
    </g>
    <g clip-path="url(#p6590ca28b5)">
     <use xlink:href="#C0_0_bb0c4af300" x="243.061098" y="27.909146" style="fill: #4c72b0"/>
    </g>
    <g clip-path="url(#p6590ca28b5)">
     <use xlink:href="#C0_0_bb0c4af300" x="245.012147" y="22.795139" style="fill: #4c72b0"/>
    </g>
    <g clip-path="url(#p6590ca28b5)">
     <use xlink:href="#C0_0_bb0c4af300" x="246.963196" y="38.137161" style="fill: #4c72b0"/>
    </g>
    <g clip-path="url(#p6590ca28b5)">
     <use xlink:href="#C0_0_bb0c4af300" x="248.914245" y="48.365176" style="fill: #4c72b0"/>
    </g>
    <g clip-path="url(#p6590ca28b5)">
     <use xlink:href="#C0_0_bb0c4af300" x="250.865293" y="56.036187" style="fill: #4c72b0"/>
    </g>
    <g clip-path="url(#p6590ca28b5)">
     <use xlink:href="#C0_0_bb0c4af300" x="252.816342" y="56.036187" style="fill: #4c72b0"/>
    </g>
    <g clip-path="url(#p6590ca28b5)">
     <use xlink:href="#C0_0_bb0c4af300" x="254.767391" y="56.036187" style="fill: #4c72b0"/>
    </g>
    <g clip-path="url(#p6590ca28b5)">
     <use xlink:href="#C0_0_bb0c4af300" x="256.71844" y="50.513059" style="fill: #4c72b0"/>
    </g>
    <g clip-path="url(#p6590ca28b5)">
     <use xlink:href="#C0_0_bb0c4af300" x="258.669489" y="32.102632" style="fill: #4c72b0"/>
    </g>
    <g clip-path="url(#p6590ca28b5)">
     <use xlink:href="#C0_0_bb0c4af300" x="260.620538" y="24.431621" style="fill: #4c72b0"/>
    </g>
    <g clip-path="url(#p6590ca28b5)">
     <use xlink:href="#C0_0_bb0c4af300" x="262.571587" y="24.431621" style="fill: #4c72b0"/>
    </g>
    <g clip-path="url(#p6590ca28b5)">
     <use xlink:href="#C0_0_bb0c4af300" x="264.522636" y="24.431621" style="fill: #4c72b0"/>
    </g>
    <g clip-path="url(#p6590ca28b5)">
     <use xlink:href="#C0_0_bb0c4af300" x="266.473685" y="14.612727" style="fill: #4c72b0"/>
    </g>
    <g clip-path="url(#p6590ca28b5)">
     <use xlink:href="#C0_0_bb0c4af300" x="268.424734" y="14.612727" style="fill: #4c72b0"/>
    </g>
    <g clip-path="url(#p6590ca28b5)">
     <use xlink:href="#C0_0_bb0c4af300" x="270.375783" y="29.954749" style="fill: #4c72b0"/>
    </g>
    <g clip-path="url(#p6590ca28b5)">
     <use xlink:href="#C0_0_bb0c4af300" x="274.277881" y="29.954749" style="fill: #4c72b0"/>
    </g>
    <g clip-path="url(#p6590ca28b5)">
     <use xlink:href="#C0_0_bb0c4af300" x="282.082077" y="29.954749" style="fill: #4c72b0"/>
    </g>
    <g clip-path="url(#p6590ca28b5)">
     <use xlink:href="#C0_0_bb0c4af300" x="284.033126" y="50.410779" style="fill: #4c72b0"/>
    </g>
    <g clip-path="url(#p6590ca28b5)">
     <use xlink:href="#C0_0_bb0c4af300" x="285.984175" y="50.410779" style="fill: #4c72b0"/>
    </g>
    <g clip-path="url(#p6590ca28b5)">
     <use xlink:href="#C0_0_bb0c4af300" x="287.935224" y="42.288532" style="fill: #4c72b0"/>
    </g>
    <g clip-path="url(#p6590ca28b5)">
     <use xlink:href="#C0_0_bb0c4af300" x="289.886273" y="61.466059" style="fill: #4c72b0"/>
    </g>
    <g clip-path="url(#p6590ca28b5)">
     <use xlink:href="#C0_0_bb0c4af300" x="291.837321" y="61.466059" style="fill: #4c72b0"/>
    </g>
    <g clip-path="url(#p6590ca28b5)">
     <use xlink:href="#C0_0_bb0c4af300" x="293.78837" y="41.01003" style="fill: #4c72b0"/>
    </g>
    <g clip-path="url(#p6590ca28b5)">
     <use xlink:href="#C0_0_bb0c4af300" x="295.739419" y="54.160335" style="fill: #4c72b0"/>
    </g>
    <g clip-path="url(#p6590ca28b5)">
     <use xlink:href="#C0_0_bb0c4af300" x="297.690468" y="50.776065" style="fill: #4c72b0"/>
    </g>
    <g clip-path="url(#p6590ca28b5)">
     <use xlink:href="#C0_0_bb0c4af300" x="299.641517" y="31.598537" style="fill: #4c72b0"/>
    </g>
    <g clip-path="url(#p6590ca28b5)">
     <use xlink:href="#C0_0_bb0c4af300" x="301.592566" y="31.598537" style="fill: #4c72b0"/>
    </g>
    <g clip-path="url(#p6590ca28b5)">
     <use xlink:href="#C0_0_bb0c4af300" x="303.543615" y="52.054567" style="fill: #4c72b0"/>
    </g>
    <g clip-path="url(#p6590ca28b5)">
     <use xlink:href="#C0_0_bb0c4af300" x="305.494664" y="44.977146" style="fill: #4c72b0"/>
    </g>
    <g clip-path="url(#p6590ca28b5)">
     <use xlink:href="#C0_0_bb0c4af300" x="307.445713" y="48.70611" style="fill: #4c72b0"/>
    </g>
   </g>
   <g id="PolyCollection_1">
    <defs>
     <path id="mcbd8692480" d="M 53.809349 -190.232691 
L 53.809349 -69.654193 
L 92.830328 -67.937319 
L 102.585573 -76.728003 
L 108.43872 -76.728003 
L 112.340818 -72.607508 
L 114.291867 -79.956996 
L 118.193965 -84.077491 
L 120.145014 -74.256683 
L 122.096063 -81.606171 
L 125.998161 -81.606171 
L 129.900259 -78.377179 
L 135.753405 -84.077491 
L 137.704454 -90.234292 
L 139.655503 -83.989631 
L 141.606552 -88.110127 
L 143.557601 -97.253414 
L 145.50865 -94.782094 
L 147.459699 -88.625294 
L 149.410748 -87.520466 
L 153.312846 -90.749459 
L 155.263895 -83.642476 
L 157.214944 -76.292988 
L 159.165993 -86.113796 
L 161.117042 -86.113796 
L 163.068091 -93.261583 
L 165.01914 -87.104782 
L 166.970189 -91.225277 
L 168.921238 -100.129418 
L 170.872286 -116.49595 
L 172.823335 -117.901442 
L 174.774384 -133.341703 
L 176.725433 -136.64038 
L 178.676482 -142.938552 
L 180.627531 -144.284006 
L 182.57858 -140.268701 
L 184.529629 -146.623325 
L 186.480678 -154.718587 
L 188.431727 -151.469218 
L 190.382776 -152.009129 
L 192.333825 -149.942476 
L 194.284874 -142.92468 
L 196.235923 -134.759732 
L 198.186972 -125.163557 
L 200.138021 -122.426096 
L 202.08907 -110.6472 
L 204.040119 -105.690919 
L 205.991168 -105.690919 
L 207.942217 -97.633838 
L 209.893266 -89.538575 
L 211.844314 -101.317472 
L 213.795363 -106.936925 
L 215.746412 -116.816736 
L 217.697461 -123.723767 
L 219.64851 -120.42509 
L 221.599559 -122.344856 
L 223.550608 -114.323768 
L 225.501657 -114.323768 
L 227.452706 -115.036816 
L 229.403755 -120.737128 
L 231.354804 -123.773642 
L 233.305853 -124.429372 
L 237.207951 -126.714478 
L 239.159 -124.734967 
L 241.110049 -132.626145 
L 243.061098 -136.100953 
L 245.012147 -139.766625 
L 246.963196 -119.899934 
L 248.914245 -108.911612 
L 250.865293 -98.618799 
L 252.816342 -84.487398 
L 254.767391 -72.746824 
L 256.71844 -85.659262 
L 258.669489 -91.007016 
L 260.620538 -83.587843 
L 262.571587 -83.587843 
L 264.522636 -83.587843 
L 266.473685 -71.027691 
L 268.424734 -71.027691 
L 270.375783 -73.888414 
L 274.277881 -77.117406 
L 282.082077 -77.117406 
L 284.033126 -77.26383 
L 285.984175 -82.964142 
L 287.935224 -91.318847 
L 289.886273 -83.321367 
L 291.837321 -101.573264 
L 293.78837 -117.793372 
L 295.739419 -110.634384 
L 297.690468 -110.446483 
L 299.641517 -111.094475 
L 301.592566 -106.106362 
L 303.543615 -86.962068 
L 305.494664 -89.678635 
L 307.445713 -80.263402 
L 307.445713 -181.193792 
L 307.445713 -181.193792 
L 305.494664 -182.803106 
L 303.543615 -179.814508 
L 301.592566 -185.693322 
L 299.641517 -185.744401 
L 297.690468 -176.946796 
L 295.739419 -174.835604 
L 293.78837 -179.498413 
L 291.837321 -166.243831 
L 289.886273 -165.917552 
L 287.935224 -174.907535 
L 285.984175 -170.170033 
L 284.033126 -170.06715 
L 282.082077 -183.013341 
L 274.277881 -183.013341 
L 270.375783 -182.949079 
L 268.424734 -190.275397 
L 266.473685 -190.275397 
L 264.522636 -183.744277 
L 262.571587 -183.744277 
L 260.620538 -183.744277 
L 258.669489 -181.833412 
L 256.71844 -175.255541 
L 254.767391 -177.673351 
L 252.816342 -177.930127 
L 250.865293 -178.128289 
L 248.914245 -180.360462 
L 246.963196 -183.815735 
L 245.012147 -188.266507 
L 243.061098 -187.269834 
L 241.110049 -186.740195 
L 239.159 -186.649887 
L 237.207951 -189.901144 
L 233.305853 -189.09813 
L 231.354804 -187.927164 
L 229.403755 -188.387299 
L 227.452706 -188.284416 
L 225.501657 -187.550017 
L 223.550608 -187.550017 
L 221.599559 -189.300852 
L 219.64851 -189.275077 
L 217.697461 -187.236096 
L 215.746412 -187.841836 
L 213.795363 -188.499764 
L 211.844314 -188.890794 
L 209.893266 -186.152288 
L 207.942217 -188.362935 
L 205.991168 -187.847229 
L 204.040119 -187.847229 
L 202.08907 -187.412868 
L 200.138021 -190.151375 
L 198.186972 -190.177871 
L 196.235923 -190.921574 
L 194.284874 -191.028978 
L 192.333825 -191.430725 
L 190.382776 -190.039808 
L 188.431727 -190.034838 
L 186.480678 -190.059073 
L 184.529629 -187.848426 
L 182.57858 -187.49001 
L 180.627531 -187.582904 
L 178.676482 -187.569987 
L 176.725433 -187.520176 
L 174.774384 -189.559158 
L 172.823335 -189.719187 
L 170.872286 -191.075235 
L 168.921238 -190.766844 
L 166.970189 -190.667305 
L 165.01914 -190.539188 
L 163.068091 -189.597411 
L 161.117042 -189.500764 
L 159.165993 -189.500764 
L 157.214944 -189.269764 
L 155.263895 -189.462142 
L 153.312846 -190.679119 
L 149.410748 -190.614858 
L 147.459699 -188.927025 
L 145.50865 -187.985247 
L 143.557601 -188.023869 
L 141.606552 -187.876786 
L 139.655503 -187.748669 
L 137.704454 -189.628881 
L 135.753405 -190.570659 
L 129.900259 -190.467775 
L 125.998161 -190.532037 
L 122.096063 -190.532037 
L 120.145014 -190.339658 
L 118.193965 -190.570659 
L 114.291867 -190.442542 
L 112.340818 -190.250163 
L 108.43872 -190.37828 
L 102.585573 -190.37828 
L 92.830328 -190.179309 
L 53.809349 -190.232691 
z
" style="stroke: #4c72b0; stroke-opacity: 0.3"/>
    </defs>
    <g clip-path="url(#p6590ca28b5)">
     <use xlink:href="#mcbd8692480" x="0" y="206.561781" style="fill: #4c72b0; fill-opacity: 0.3; stroke: #4c72b0; stroke-opacity: 0.3"/>
    </g>
   </g>
   <g id="PathCollection_2">
    <defs>
     <path id="C1_0_cd6db5ba21" d="M 0 3 
C 0.795609 3 1.55874 2.683901 2.12132 2.12132 
C 2.683901 1.55874 3 0.795609 3 -0 
C 3 -0.795609 2.683901 -1.55874 2.12132 -2.12132 
C 1.55874 -2.683901 0.795609 -3 0 -3 
C -0.795609 -3 -1.55874 -2.683901 -2.12132 -2.12132 
C -2.683901 -1.55874 -3 -0.795609 -3 0 
C -3 0.795609 -2.683901 1.55874 -2.12132 2.12132 
C -1.55874 2.683901 -0.795609 3 0 3 
z
"/>
    </defs>
    <g clip-path="url(#p6590ca28b5)">
     <use xlink:href="#C1_0_cd6db5ba21" x="141.606552" y="130.530227" style="fill: #dd8452"/>
    </g>
    <g clip-path="url(#p6590ca28b5)">
     <use xlink:href="#C1_0_cd6db5ba21" x="143.557601" y="134.903074" style="fill: #dd8452"/>
    </g>
    <g clip-path="url(#p6590ca28b5)">
     <use xlink:href="#C1_0_cd6db5ba21" x="159.165993" y="139.168738" style="fill: #dd8452"/>
    </g>
    <g clip-path="url(#p6590ca28b5)">
     <use xlink:href="#C1_0_cd6db5ba21" x="176.725433" y="137.634536" style="fill: #dd8452"/>
    </g>
    <g clip-path="url(#p6590ca28b5)">
     <use xlink:href="#C1_0_cd6db5ba21" x="178.676482" y="142.748543" style="fill: #dd8452"/>
    </g>
    <g clip-path="url(#p6590ca28b5)">
     <use xlink:href="#C1_0_cd6db5ba21" x="180.627531" y="148.098582" style="fill: #dd8452"/>
    </g>
    <g clip-path="url(#p6590ca28b5)">
     <use xlink:href="#C1_0_cd6db5ba21" x="186.480678" y="149.543845" style="fill: #dd8452"/>
    </g>
    <g clip-path="url(#p6590ca28b5)">
     <use xlink:href="#C1_0_cd6db5ba21" x="188.431727" y="148.494817" style="fill: #dd8452"/>
    </g>
    <g clip-path="url(#p6590ca28b5)">
     <use xlink:href="#C1_0_cd6db5ba21" x="198.186972" y="140.823806" style="fill: #dd8452"/>
    </g>
    <g clip-path="url(#p6590ca28b5)">
     <use xlink:href="#C1_0_cd6db5ba21" x="202.08907" y="138.266803" style="fill: #dd8452"/>
    </g>
    <g clip-path="url(#p6590ca28b5)">
     <use xlink:href="#C1_0_cd6db5ba21" x="205.991168" y="136.693262" style="fill: #dd8452"/>
    </g>
    <g clip-path="url(#p6590ca28b5)">
     <use xlink:href="#C1_0_cd6db5ba21" x="213.795363" y="136.460807" style="fill: #dd8452"/>
    </g>
    <g clip-path="url(#p6590ca28b5)">
     <use xlink:href="#C1_0_cd6db5ba21" x="217.697461" y="136.03464" style="fill: #dd8452"/>
    </g>
    <g clip-path="url(#p6590ca28b5)">
     <use xlink:href="#C1_0_cd6db5ba21" x="219.64851" y="143.705651" style="fill: #dd8452"/>
    </g>
    <g clip-path="url(#p6590ca28b5)">
     <use xlink:href="#C1_0_cd6db5ba21" x="221.599559" y="148.587203" style="fill: #dd8452"/>
    </g>
    <g clip-path="url(#p6590ca28b5)">
     <use xlink:href="#C1_0_cd6db5ba21" x="227.452706" y="148.390511" style="fill: #dd8452"/>
    </g>
    <g clip-path="url(#p6590ca28b5)">
     <use xlink:href="#C1_0_cd6db5ba21" x="229.403755" y="146.065962" style="fill: #dd8452"/>
    </g>
    <g clip-path="url(#p6590ca28b5)">
     <use xlink:href="#C1_0_cd6db5ba21" x="237.207951" y="141.719056" style="fill: #dd8452"/>
    </g>
    <g clip-path="url(#p6590ca28b5)">
     <use xlink:href="#C1_0_cd6db5ba21" x="239.159" y="134.048045" style="fill: #dd8452"/>
    </g>
    <g clip-path="url(#p6590ca28b5)">
     <use xlink:href="#C1_0_cd6db5ba21" x="243.061098" y="118.427077" style="fill: #dd8452"/>
    </g>
    <g clip-path="url(#p6590ca28b5)">
     <use xlink:href="#C1_0_cd6db5ba21" x="250.865293" y="113.313069" style="fill: #dd8452"/>
    </g>
    <g clip-path="url(#p6590ca28b5)">
     <use xlink:href="#C1_0_cd6db5ba21" x="252.816342" y="108.608183" style="fill: #dd8452"/>
    </g>
    <g clip-path="url(#p6590ca28b5)">
     <use xlink:href="#C1_0_cd6db5ba21" x="254.767391" y="101.448572" style="fill: #dd8452"/>
    </g>
    <g clip-path="url(#p6590ca28b5)">
     <use xlink:href="#C1_0_cd6db5ba21" x="260.620538" y="96.334565" style="fill: #dd8452"/>
    </g>
    <g clip-path="url(#p6590ca28b5)">
     <use xlink:href="#C1_0_cd6db5ba21" x="282.082077" y="107.525216" style="fill: #dd8452"/>
    </g>
    <g clip-path="url(#p6590ca28b5)">
     <use xlink:href="#C1_0_cd6db5ba21" x="287.935224" y="96.0187" style="fill: #dd8452"/>
    </g>
    <g clip-path="url(#p6590ca28b5)">
     <use xlink:href="#C1_0_cd6db5ba21" x="291.837321" y="92.687289" style="fill: #dd8452"/>
    </g>
    <g clip-path="url(#p6590ca28b5)">
     <use xlink:href="#C1_0_cd6db5ba21" x="293.78837" y="104.193806" style="fill: #dd8452"/>
    </g>
    <g clip-path="url(#p6590ca28b5)">
     <use xlink:href="#C1_0_cd6db5ba21" x="299.641517" y="104.193806" style="fill: #dd8452"/>
    </g>
    <g clip-path="url(#p6590ca28b5)">
     <use xlink:href="#C1_0_cd6db5ba21" x="301.592566" y="97.258739" style="fill: #dd8452"/>
    </g>
    <g clip-path="url(#p6590ca28b5)">
     <use xlink:href="#C1_0_cd6db5ba21" x="307.445713" y="105.629882" style="fill: #dd8452"/>
    </g>
   </g>
   <g id="PolyCollection_2">
    <defs>
     <path id="m1650fdb843" d="M 141.606552 -145.32714 
L 141.606552 -46.411039 
L 143.557601 -46.256738 
L 159.165993 -45.257165 
L 176.725433 -46.226252 
L 178.676482 -45.698335 
L 180.627531 -44.558171 
L 186.480678 -43.694509 
L 188.431727 -43.922068 
L 198.186972 -44.51871 
L 202.08907 -45.269657 
L 205.991168 -45.628074 
L 213.795363 -45.890264 
L 217.697461 -45.980298 
L 219.64851 -45.383657 
L 221.599559 -43.938342 
L 227.452706 -43.981673 
L 229.403755 -44.256021 
L 237.207951 -46.772879 
L 239.159 -48.975323 
L 243.061098 -54.959528 
L 250.865293 -56.667032 
L 252.816342 -62.458254 
L 254.767391 -66.79009 
L 260.620538 -75.622972 
L 282.082077 -71.762033 
L 287.935224 -78.648773 
L 291.837321 -76.549462 
L 293.78837 -69.700767 
L 299.641517 -62.324999 
L 301.592566 -64.555548 
L 307.445713 -57.925148 
L 307.445713 -149.505212 
L 307.445713 -149.505212 
L 301.592566 -154.861697 
L 299.641517 -146.212167 
L 293.78837 -143.287981 
L 291.837321 -151.454785 
L 287.935224 -141.556453 
L 282.082077 -133.489288 
L 260.620538 -145.931974 
L 254.767391 -146.430684 
L 252.816342 -139.530343 
L 250.865293 -144.015592 
L 243.061098 -136.657677 
L 239.159 -118.201119 
L 237.207951 -110.42966 
L 229.403755 -109.163198 
L 227.452706 -100.008802 
L 221.599559 -99.345629 
L 219.64851 -109.155755 
L 217.697461 -118.533017 
L 213.795363 -117.382966 
L 205.991168 -119.835177 
L 202.08907 -113.480553 
L 198.186972 -109.012266 
L 188.431727 -99.635004 
L 186.480678 -96.372319 
L 180.627531 -95.246642 
L 178.676482 -110.884726 
L 176.725433 -121.66736 
L 159.165993 -122.929732 
L 143.557601 -131.039695 
L 141.606552 -145.32714 
z
" style="stroke: #dd8452; stroke-opacity: 0.3"/>
    </defs>
    <g clip-path="url(#p6590ca28b5)">
     <use xlink:href="#m1650fdb843" x="0" y="206.561781" style="fill: #dd8452; fill-opacity: 0.3; stroke: #dd8452; stroke-opacity: 0.3"/>
    </g>
   </g>
   <g id="line2d_1">
    <path d="M 53.809349 14.612727 
L 92.830328 14.612727 
L 102.585573 14.612727 
L 108.43872 14.612727 
L 112.340818 14.612727 
L 114.291867 14.612727 
L 118.193965 14.612727 
L 120.145014 14.612727 
L 122.096063 14.612727 
L 125.998161 14.612727 
L 129.900259 14.612727 
L 135.753405 14.612727 
L 137.704454 20.749536 
L 139.655503 30.977551 
L 141.606552 30.977551 
L 143.557601 30.977551 
L 145.50865 30.977551 
L 147.459699 24.840742 
L 149.410748 14.612727 
L 153.312846 14.612727 
L 155.263895 20.749536 
L 157.214944 20.749536 
L 159.165993 20.749536 
L 161.117042 20.749536 
L 163.068091 20.749536 
L 165.01914 14.612727 
L 166.970189 14.612727 
L 168.921238 14.612727 
L 170.872286 14.612727 
L 172.823335 18.614994 
L 174.774384 20.975305 
L 176.725433 28.646316 
L 178.676482 28.646316 
L 180.627531 28.646316 
L 182.57858 29.758057 
L 184.529629 28.184516 
L 186.480678 20.513505 
L 188.431727 20.513505 
L 190.382776 20.513505 
L 192.333825 15.399498 
L 194.284874 17.169731 
L 196.235923 17.169731 
L 198.186972 20.579069 
L 200.138021 20.579069 
L 202.08907 35.921091 
L 204.040119 33.364088 
L 205.991168 33.364088 
L 207.942217 29.954749 
L 209.893266 37.62576 
L 211.844314 22.283738 
L 213.795363 24.644049 
L 215.746412 27.433508 
L 217.697461 31.269013 
L 219.64851 23.598002 
L 221.599559 23.598002 
L 223.550608 28.908702 
L 225.501657 28.908702 
L 227.452706 25.073197 
L 229.403755 25.073197 
L 231.354804 27.630201 
L 233.305853 25.073197 
L 237.207951 22.283738 
L 239.159 30.46615 
L 241.110049 30.46615 
L 243.061098 27.909146 
L 245.012147 22.795139 
L 246.963196 38.137161 
L 248.914245 48.365176 
L 250.865293 56.036187 
L 252.816342 56.036187 
L 254.767391 56.036187 
L 256.71844 50.513059 
L 258.669489 32.102632 
L 260.620538 24.431621 
L 262.571587 24.431621 
L 264.522636 24.431621 
L 266.473685 14.612727 
L 268.424734 14.612727 
L 270.375783 29.954749 
L 274.277881 29.954749 
L 282.082077 29.954749 
L 284.033126 50.410779 
L 285.984175 50.410779 
L 287.935224 42.288532 
L 289.886273 61.466059 
L 291.837321 61.466059 
L 293.78837 41.01003 
L 295.739419 54.160335 
L 297.690468 50.776065 
L 299.641517 31.598537 
L 301.592566 31.598537 
L 303.543615 52.054567 
L 305.494664 44.977146 
L 307.445713 48.70611 
" clip-path="url(#p6590ca28b5)" style="fill: none; stroke: #4c72b0; stroke-width: 1.5; stroke-linecap: round"/>
   </g>
   <g id="line2d_2">
    <path d="M 141.606552 130.530227 
L 143.557601 134.903074 
L 159.165993 139.168738 
L 176.725433 137.634536 
L 178.676482 142.748543 
L 180.627531 148.098582 
L 186.480678 149.543845 
L 188.431727 148.494817 
L 198.186972 140.823806 
L 202.08907 138.266803 
L 205.991168 136.693262 
L 213.795363 136.460807 
L 217.697461 136.03464 
L 219.64851 143.705651 
L 221.599559 148.587203 
L 227.452706 148.390511 
L 229.403755 146.065962 
L 237.207951 141.719056 
L 239.159 134.048045 
L 243.061098 118.427077 
L 250.865293 113.313069 
L 252.816342 108.608183 
L 254.767391 101.448572 
L 260.620538 96.334565 
L 282.082077 107.525216 
L 287.935224 96.0187 
L 291.837321 92.687289 
L 293.78837 104.193806 
L 299.641517 104.193806 
L 301.592566 97.258739 
L 307.445713 105.629882 
" clip-path="url(#p6590ca28b5)" style="fill: none; stroke: #dd8452; stroke-width: 1.5; stroke-linecap: round"/>
   </g>
   <g id="patch_3">
    <path d="M 41.127531 170.28 
L 41.127531 7.2 
" style="fill: none; stroke: #262626; stroke-width: 1.25; stroke-linejoin: miter; stroke-linecap: square"/>
   </g>
   <g id="patch_4">
    <path d="M 41.127531 170.28 
L 320.127531 170.28 
" style="fill: none; stroke: #262626; stroke-width: 1.25; stroke-linejoin: miter; stroke-linecap: square"/>
   </g>
   <g id="legend_1">
    <g id="patch_5">
     <path d="M 339.467531 47.943937 
L 453.966531 47.943937 
Q 455.506531 47.943937 455.506531 46.403937 
L 455.506531 12.59 
Q 455.506531 11.05 453.966531 11.05 
L 339.467531 11.05 
Q 337.927531 11.05 337.927531 12.59 
L 337.927531 46.403937 
Q 337.927531 47.943937 339.467531 47.943937 
z
" style="fill: #ffffff; opacity: 0.8; stroke: #cccccc; stroke-linejoin: miter"/>
    </g>
    <g id="text_17">
     <!-- Mobility Prediction -->
     <g style="fill: #262626" transform="translate(358.0265 20.512687)scale(0.084 -0.084)">
      <defs>
       <path id="DejaVuSans-4d" d="M 628 4666 
L 1569 4666 
L 2759 1491 
L 3956 4666 
L 4897 4666 
L 4897 0 
L 4281 0 
L 4281 4097 
L 3078 897 
L 2444 897 
L 1241 4097 
L 1241 0 
L 628 0 
L 628 4666 
z
" transform="scale(0.015625)"/>
       <path id="DejaVuSans-62" d="M 3116 1747 
Q 3116 2381 2855 2742 
Q 2594 3103 2138 3103 
Q 1681 3103 1420 2742 
Q 1159 2381 1159 1747 
Q 1159 1113 1420 752 
Q 1681 391 2138 391 
Q 2594 391 2855 752 
Q 3116 1113 3116 1747 
z
M 1159 2969 
Q 1341 3281 1617 3432 
Q 1894 3584 2278 3584 
Q 2916 3584 3314 3078 
Q 3713 2572 3713 1747 
Q 3713 922 3314 415 
Q 2916 -91 2278 -91 
Q 1894 -91 1617 61 
Q 1341 213 1159 525 
L 1159 0 
L 581 0 
L 581 4863 
L 1159 4863 
L 1159 2969 
z
" transform="scale(0.015625)"/>
       <path id="DejaVuSans-79" d="M 2059 -325 
Q 1816 -950 1584 -1140 
Q 1353 -1331 966 -1331 
L 506 -1331 
L 506 -850 
L 844 -850 
Q 1081 -850 1212 -737 
Q 1344 -625 1503 -206 
L 1606 56 
L 191 3500 
L 800 3500 
L 1894 763 
L 2988 3500 
L 3597 3500 
L 2059 -325 
z
" transform="scale(0.015625)"/>
       <path id="DejaVuSans-50" d="M 1259 4147 
L 1259 2394 
L 2053 2394 
Q 2494 2394 2734 2622 
Q 2975 2850 2975 3272 
Q 2975 3691 2734 3919 
Q 2494 4147 2053 4147 
L 1259 4147 
z
M 628 4666 
L 2053 4666 
Q 2838 4666 3239 4311 
Q 3641 3956 3641 3272 
Q 3641 2581 3239 2228 
Q 2838 1875 2053 1875 
L 1259 1875 
L 1259 0 
L 628 0 
L 628 4666 
z
" transform="scale(0.015625)"/>
      </defs>
      <use xlink:href="#DejaVuSans-4d"/>
      <use xlink:href="#DejaVuSans-6f" x="86.279297"/>
      <use xlink:href="#DejaVuSans-62" x="147.460938"/>
      <use xlink:href="#DejaVuSans-69" x="210.9375"/>
      <use xlink:href="#DejaVuSans-6c" x="238.720703"/>
      <use xlink:href="#DejaVuSans-69" x="266.503906"/>
      <use xlink:href="#DejaVuSans-74" x="294.287109"/>
      <use xlink:href="#DejaVuSans-79" x="333.496094"/>
      <use xlink:href="#DejaVuSans-20" x="392.675781"/>
      <use xlink:href="#DejaVuSans-50" x="424.462891"/>
      <use xlink:href="#DejaVuSans-72" x="483.015625"/>
      <use xlink:href="#DejaVuSans-65" x="521.878906"/>
      <use xlink:href="#DejaVuSans-64" x="583.402344"/>
      <use xlink:href="#DejaVuSans-69" x="646.878906"/>
      <use xlink:href="#DejaVuSans-63" x="674.662109"/>
      <use xlink:href="#DejaVuSans-74" x="729.642578"/>
      <use xlink:href="#DejaVuSans-69" x="768.851562"/>
      <use xlink:href="#DejaVuSans-6f" x="796.634766"/>
      <use xlink:href="#DejaVuSans-6e" x="857.816406"/>
     </g>
    </g>
    <g id="line2d_3">
     <path d="M 341.007531 29.265422 
L 348.707531 29.265422 
L 356.407531 29.265422 
" style="fill: none; stroke: #4c72b0; stroke-width: 1.5; stroke-linecap: round"/>
    </g>
    <g id="text_18">
     <!-- Not plasmid associated -->
     <g style="fill: #262626" transform="translate(362.567531 31.960422)scale(0.077 -0.077)">
      <defs>
       <path id="DejaVuSans-4e" d="M 628 4666 
L 1478 4666 
L 3547 763 
L 3547 4666 
L 4159 4666 
L 4159 0 
L 3309 0 
L 1241 3903 
L 1241 0 
L 628 0 
L 628 4666 
z
" transform="scale(0.015625)"/>
       <path id="DejaVuSans-70" d="M 1159 525 
L 1159 -1331 
L 581 -1331 
L 581 3500 
L 1159 3500 
L 1159 2969 
Q 1341 3281 1617 3432 
Q 1894 3584 2278 3584 
Q 2916 3584 3314 3078 
Q 3713 2572 3713 1747 
Q 3713 922 3314 415 
Q 2916 -91 2278 -91 
Q 1894 -91 1617 61 
Q 1341 213 1159 525 
z
M 3116 1747 
Q 3116 2381 2855 2742 
Q 2594 3103 2138 3103 
Q 1681 3103 1420 2742 
Q 1159 2381 1159 1747 
Q 1159 1113 1420 752 
Q 1681 391 2138 391 
Q 2594 391 2855 752 
Q 3116 1113 3116 1747 
z
" transform="scale(0.015625)"/>
      </defs>
      <use xlink:href="#DejaVuSans-4e"/>
      <use xlink:href="#DejaVuSans-6f" x="74.804688"/>
      <use xlink:href="#DejaVuSans-74" x="135.986328"/>
      <use xlink:href="#DejaVuSans-20" x="175.195312"/>
      <use xlink:href="#DejaVuSans-70" x="206.982422"/>
      <use xlink:href="#DejaVuSans-6c" x="270.458984"/>
      <use xlink:href="#DejaVuSans-61" x="298.242188"/>
      <use xlink:href="#DejaVuSans-73" x="359.521484"/>
      <use xlink:href="#DejaVuSans-6d" x="411.621094"/>
      <use xlink:href="#DejaVuSans-69" x="509.033203"/>
      <use xlink:href="#DejaVuSans-64" x="536.816406"/>
      <use xlink:href="#DejaVuSans-20" x="600.292969"/>
      <use xlink:href="#DejaVuSans-61" x="632.080078"/>
      <use xlink:href="#DejaVuSans-73" x="693.359375"/>
      <use xlink:href="#DejaVuSans-73" x="745.458984"/>
      <use xlink:href="#DejaVuSans-6f" x="797.558594"/>
      <use xlink:href="#DejaVuSans-63" x="858.740234"/>
      <use xlink:href="#DejaVuSans-69" x="913.720703"/>
      <use xlink:href="#DejaVuSans-61" x="941.503906"/>
      <use xlink:href="#DejaVuSans-74" x="1002.783203"/>
      <use xlink:href="#DejaVuSans-65" x="1041.992188"/>
      <use xlink:href="#DejaVuSans-64" x="1103.515625"/>
     </g>
    </g>
    <g id="line2d_4">
     <path d="M 341.007531 40.567578 
L 348.707531 40.567578 
L 356.407531 40.567578 
" style="fill: none; stroke: #dd8452; stroke-width: 1.5; stroke-linecap: round"/>
    </g>
    <g id="text_19">
     <!-- Plasmid associated -->
     <g style="fill: #262626" transform="translate(362.567531 43.262578)scale(0.077 -0.077)">
      <use xlink:href="#DejaVuSans-50"/>
      <use xlink:href="#DejaVuSans-6c" x="60.302734"/>
      <use xlink:href="#DejaVuSans-61" x="88.085938"/>
      <use xlink:href="#DejaVuSans-73" x="149.365234"/>
      <use xlink:href="#DejaVuSans-6d" x="201.464844"/>
      <use xlink:href="#DejaVuSans-69" x="298.876953"/>
      <use xlink:href="#DejaVuSans-64" x="326.660156"/>
      <use xlink:href="#DejaVuSans-20" x="390.136719"/>
      <use xlink:href="#DejaVuSans-61" x="421.923828"/>
      <use xlink:href="#DejaVuSans-73" x="483.203125"/>
      <use xlink:href="#DejaVuSans-73" x="535.302734"/>
      <use xlink:href="#DejaVuSans-6f" x="587.402344"/>
      <use xlink:href="#DejaVuSans-63" x="648.583984"/>
      <use xlink:href="#DejaVuSans-69" x="703.564453"/>
      <use xlink:href="#DejaVuSans-61" x="731.347656"/>
      <use xlink:href="#DejaVuSans-74" x="792.626953"/>
      <use xlink:href="#DejaVuSans-65" x="831.835938"/>
      <use xlink:href="#DejaVuSans-64" x="893.359375"/>
     </g>
    </g>
   </g>
  </g>
 </g>
 <defs>
  <clipPath id="p6590ca28b5">
   <rect x="41.127531" y="7.2" width="279" height="163.08"/>
  </clipPath>
 </defs>
</svg>
