<?xml version="1.0" encoding="utf-8" standalone="no"?>
<!DOCTYPE svg PUBLIC "-//W3C//DTD SVG 1.1//EN"
  "http://www.w3.org/Graphics/SVG/1.1/DTD/svg11.dtd">
<svg xmlns:xlink="http://www.w3.org/1999/xlink" width="449.400844pt" height="206.561781pt" viewBox="0 0 449.400844 206.561781" xmlns="http://www.w3.org/2000/svg" version="1.1">
 <metadata>
  <rdf:RDF xmlns:dc="http://purl.org/dc/elements/1.1/" xmlns:cc="http://creativecommons.org/ns#" xmlns:rdf="http://www.w3.org/1999/02/22-rdf-syntax-ns#">
   <cc:Work>
    <dc:type rdf:resource="http://purl.org/dc/dcmitype/StillImage"/>
    <dc:date>2024-12-12T15:40:08.281649</dc:date>
    <dc:format>image/svg+xml</dc:format>
    <dc:creator>
     <cc:Agent>
      <dc:title>Matplotlib v3.5.2, https://matplotlib.org/</dc:title>
     </cc:Agent>
    </dc:creator>
   </cc:Work>
  </rdf:RDF>
 </metadata>
 <defs>
  <style type="text/css">*{stroke-linejoin: round; stroke-linecap: butt}</style>
 </defs>
 <g id="figure_1">
  <g id="patch_1">
   <path d="M 0 206.561781 
L 449.400844 206.561781 
L 449.400844 0 
L 0 0 
z
" style="fill: #ffffff"/>
  </g>
  <g id="axes_1">
   <g id="patch_2">
    <path d="M 41.127531 170.28 
L 320.127531 170.28 
L 320.127531 7.2 
L 41.127531 7.2 
z
" style="fill: #ffffff"/>
   </g>
   <g id="matplotlib.axis_1">
    <g id="xtick_1">
     <g id="text_1">
      <!-- 1880 -->
      <g style="fill: #262626" transform="translate(32.304806 185.630797)scale(0.077 -0.077)">
       <defs>
        <path id="DejaVuSans-31" d="M 794 531 
L 1825 531 
L 1825 4091 
L 703 3866 
L 703 4441 
L 1819 4666 
L 2450 4666 
L 2450 531 
L 3481 531 
L 3481 0 
L 794 0 
L 794 531 
z
" transform="scale(0.015625)"/>
        <path id="DejaVuSans-38" d="M 2034 2216 
Q 1584 2216 1326 1975 
Q 1069 1734 1069 1313 
Q 1069 891 1326 650 
Q 1584 409 2034 409 
Q 2484 409 2743 651 
Q 3003 894 3003 1313 
Q 3003 1734 2745 1975 
Q 2488 2216 2034 2216 
z
M 1403 2484 
Q 997 2584 770 2862 
Q 544 3141 544 3541 
Q 544 4100 942 4425 
Q 1341 4750 2034 4750 
Q 2731 4750 3128 4425 
Q 3525 4100 3525 3541 
Q 3525 3141 3298 2862 
Q 3072 2584 2669 2484 
Q 3125 2378 3379 2068 
Q 3634 1759 3634 1313 
Q 3634 634 3220 271 
Q 2806 -91 2034 -91 
Q 1263 -91 848 271 
Q 434 634 434 1313 
Q 434 1759 690 2068 
Q 947 2378 1403 2484 
z
M 1172 3481 
Q 1172 3119 1398 2916 
Q 1625 2713 2034 2713 
Q 2441 2713 2670 2916 
Q 2900 3119 2900 3481 
Q 2900 3844 2670 4047 
Q 2441 4250 2034 4250 
Q 1625 4250 1398 4047 
Q 1172 3844 1172 3481 
z
" transform="scale(0.015625)"/>
        <path id="DejaVuSans-30" d="M 2034 4250 
Q 1547 4250 1301 3770 
Q 1056 3291 1056 2328 
Q 1056 1369 1301 889 
Q 1547 409 2034 409 
Q 2525 409 2770 889 
Q 3016 1369 3016 2328 
Q 3016 3291 2770 3770 
Q 2525 4250 2034 4250 
z
M 2034 4750 
Q 2819 4750 3233 4129 
Q 3647 3509 3647 2328 
Q 3647 1150 3233 529 
Q 2819 -91 2034 -91 
Q 1250 -91 836 529 
Q 422 1150 422 2328 
Q 422 3509 836 4129 
Q 1250 4750 2034 4750 
z
" transform="scale(0.015625)"/>
       </defs>
       <use xlink:href="#DejaVuSans-31"/>
       <use xlink:href="#DejaVuSans-38" x="63.623047"/>
       <use xlink:href="#DejaVuSans-38" x="127.246094"/>
       <use xlink:href="#DejaVuSans-30" x="190.869141"/>
      </g>
     </g>
    </g>
    <g id="xtick_2">
     <g id="text_2">
      <!-- 1900 -->
      <g style="fill: #262626" transform="translate(71.325785 185.630797)scale(0.077 -0.077)">
       <defs>
        <path id="DejaVuSans-39" d="M 703 97 
L 703 672 
Q 941 559 1184 500 
Q 1428 441 1663 441 
Q 2288 441 2617 861 
Q 2947 1281 2994 2138 
Q 2813 1869 2534 1725 
Q 2256 1581 1919 1581 
Q 1219 1581 811 2004 
Q 403 2428 403 3163 
Q 403 3881 828 4315 
Q 1253 4750 1959 4750 
Q 2769 4750 3195 4129 
Q 3622 3509 3622 2328 
Q 3622 1225 3098 567 
Q 2575 -91 1691 -91 
Q 1453 -91 1209 -44 
Q 966 3 703 97 
z
M 1959 2075 
Q 2384 2075 2632 2365 
Q 2881 2656 2881 3163 
Q 2881 3666 2632 3958 
Q 2384 4250 1959 4250 
Q 1534 4250 1286 3958 
Q 1038 3666 1038 3163 
Q 1038 2656 1286 2365 
Q 1534 2075 1959 2075 
z
" transform="scale(0.015625)"/>
       </defs>
       <use xlink:href="#DejaVuSans-31"/>
       <use xlink:href="#DejaVuSans-39" x="63.623047"/>
       <use xlink:href="#DejaVuSans-30" x="127.246094"/>
       <use xlink:href="#DejaVuSans-30" x="190.869141"/>
      </g>
     </g>
    </g>
    <g id="xtick_3">
     <g id="text_3">
      <!-- 1920 -->
      <g style="fill: #262626" transform="translate(110.346764 185.630797)scale(0.077 -0.077)">
       <defs>
        <path id="DejaVuSans-32" d="M 1228 531 
L 3431 531 
L 3431 0 
L 469 0 
L 469 531 
Q 828 903 1448 1529 
Q 2069 2156 2228 2338 
Q 2531 2678 2651 2914 
Q 2772 3150 2772 3378 
Q 2772 3750 2511 3984 
Q 2250 4219 1831 4219 
Q 1534 4219 1204 4116 
Q 875 4013 500 3803 
L 500 4441 
Q 881 4594 1212 4672 
Q 1544 4750 1819 4750 
Q 2544 4750 2975 4387 
Q 3406 4025 3406 3419 
Q 3406 3131 3298 2873 
Q 3191 2616 2906 2266 
Q 2828 2175 2409 1742 
Q 1991 1309 1228 531 
z
" transform="scale(0.015625)"/>
       </defs>
       <use xlink:href="#DejaVuSans-31"/>
       <use xlink:href="#DejaVuSans-39" x="63.623047"/>
       <use xlink:href="#DejaVuSans-32" x="127.246094"/>
       <use xlink:href="#DejaVuSans-30" x="190.869141"/>
      </g>
     </g>
    </g>
    <g id="xtick_4">
     <g id="text_4">
      <!-- 1940 -->
      <g style="fill: #262626" transform="translate(149.367743 185.630797)scale(0.077 -0.077)">
       <defs>
        <path id="DejaVuSans-34" d="M 2419 4116 
L 825 1625 
L 2419 1625 
L 2419 4116 
z
M 2253 4666 
L 3047 4666 
L 3047 1625 
L 3713 1625 
L 3713 1100 
L 3047 1100 
L 3047 0 
L 2419 0 
L 2419 1100 
L 313 1100 
L 313 1709 
L 2253 4666 
z
" transform="scale(0.015625)"/>
       </defs>
       <use xlink:href="#DejaVuSans-31"/>
       <use xlink:href="#DejaVuSans-39" x="63.623047"/>
       <use xlink:href="#DejaVuSans-34" x="127.246094"/>
       <use xlink:href="#DejaVuSans-30" x="190.869141"/>
      </g>
     </g>
    </g>
    <g id="xtick_5">
     <g id="text_5">
      <!-- 1960 -->
      <g style="fill: #262626" transform="translate(188.388722 185.630797)scale(0.077 -0.077)">
       <defs>
        <path id="DejaVuSans-36" d="M 2113 2584 
Q 1688 2584 1439 2293 
Q 1191 2003 1191 1497 
Q 1191 994 1439 701 
Q 1688 409 2113 409 
Q 2538 409 2786 701 
Q 3034 994 3034 1497 
Q 3034 2003 2786 2293 
Q 2538 2584 2113 2584 
z
M 3366 4563 
L 3366 3988 
Q 3128 4100 2886 4159 
Q 2644 4219 2406 4219 
Q 1781 4219 1451 3797 
Q 1122 3375 1075 2522 
Q 1259 2794 1537 2939 
Q 1816 3084 2150 3084 
Q 2853 3084 3261 2657 
Q 3669 2231 3669 1497 
Q 3669 778 3244 343 
Q 2819 -91 2113 -91 
Q 1303 -91 875 529 
Q 447 1150 447 2328 
Q 447 3434 972 4092 
Q 1497 4750 2381 4750 
Q 2619 4750 2861 4703 
Q 3103 4656 3366 4563 
z
" transform="scale(0.015625)"/>
       </defs>
       <use xlink:href="#DejaVuSans-31"/>
       <use xlink:href="#DejaVuSans-39" x="63.623047"/>
       <use xlink:href="#DejaVuSans-36" x="127.246094"/>
       <use xlink:href="#DejaVuSans-30" x="190.869141"/>
      </g>
     </g>
    </g>
    <g id="xtick_6">
     <g id="text_6">
      <!-- 1980 -->
      <g style="fill: #262626" transform="translate(227.409701 185.630797)scale(0.077 -0.077)">
       <use xlink:href="#DejaVuSans-31"/>
       <use xlink:href="#DejaVuSans-39" x="63.623047"/>
       <use xlink:href="#DejaVuSans-38" x="127.246094"/>
       <use xlink:href="#DejaVuSans-30" x="190.869141"/>
      </g>
     </g>
    </g>
    <g id="xtick_7">
     <g id="text_7">
      <!-- 2000 -->
      <g style="fill: #262626" transform="translate(266.43068 185.630797)scale(0.077 -0.077)">
       <use xlink:href="#DejaVuSans-32"/>
       <use xlink:href="#DejaVuSans-30" x="63.623047"/>
       <use xlink:href="#DejaVuSans-30" x="127.246094"/>
       <use xlink:href="#DejaVuSans-30" x="190.869141"/>
      </g>
     </g>
    </g>
    <g id="xtick_8">
     <g id="text_8">
      <!-- 2020 -->
      <g style="fill: #262626" transform="translate(305.451659 185.630797)scale(0.077 -0.077)">
       <use xlink:href="#DejaVuSans-32"/>
       <use xlink:href="#DejaVuSans-30" x="63.623047"/>
       <use xlink:href="#DejaVuSans-32" x="127.246094"/>
       <use xlink:href="#DejaVuSans-30" x="190.869141"/>
      </g>
     </g>
    </g>
    <g id="text_9">
     <!-- Year Cultured -->
     <g style="fill: #262626" transform="translate(152.446844 197.614844)scale(0.084 -0.084)">
      <defs>
       <path id="DejaVuSans-59" d="M -13 4666 
L 666 4666 
L 1959 2747 
L 3244 4666 
L 3922 4666 
L 2272 2222 
L 2272 0 
L 1638 0 
L 1638 2222 
L -13 4666 
z
" transform="scale(0.015625)"/>
       <path id="DejaVuSans-65" d="M 3597 1894 
L 3597 1613 
L 953 1613 
Q 991 1019 1311 708 
Q 1631 397 2203 397 
Q 2534 397 2845 478 
Q 3156 559 3463 722 
L 3463 178 
Q 3153 47 2828 -22 
Q 2503 -91 2169 -91 
Q 1331 -91 842 396 
Q 353 884 353 1716 
Q 353 2575 817 3079 
Q 1281 3584 2069 3584 
Q 2775 3584 3186 3129 
Q 3597 2675 3597 1894 
z
M 3022 2063 
Q 3016 2534 2758 2815 
Q 2500 3097 2075 3097 
Q 1594 3097 1305 2825 
Q 1016 2553 972 2059 
L 3022 2063 
z
" transform="scale(0.015625)"/>
       <path id="DejaVuSans-61" d="M 2194 1759 
Q 1497 1759 1228 1600 
Q 959 1441 959 1056 
Q 959 750 1161 570 
Q 1363 391 1709 391 
Q 2188 391 2477 730 
Q 2766 1069 2766 1631 
L 2766 1759 
L 2194 1759 
z
M 3341 1997 
L 3341 0 
L 2766 0 
L 2766 531 
Q 2569 213 2275 61 
Q 1981 -91 1556 -91 
Q 1019 -91 701 211 
Q 384 513 384 1019 
Q 384 1609 779 1909 
Q 1175 2209 1959 2209 
L 2766 2209 
L 2766 2266 
Q 2766 2663 2505 2880 
Q 2244 3097 1772 3097 
Q 1472 3097 1187 3025 
Q 903 2953 641 2809 
L 641 3341 
Q 956 3463 1253 3523 
Q 1550 3584 1831 3584 
Q 2591 3584 2966 3190 
Q 3341 2797 3341 1997 
z
" transform="scale(0.015625)"/>
       <path id="DejaVuSans-72" d="M 2631 2963 
Q 2534 3019 2420 3045 
Q 2306 3072 2169 3072 
Q 1681 3072 1420 2755 
Q 1159 2438 1159 1844 
L 1159 0 
L 581 0 
L 581 3500 
L 1159 3500 
L 1159 2956 
Q 1341 3275 1631 3429 
Q 1922 3584 2338 3584 
Q 2397 3584 2469 3576 
Q 2541 3569 2628 3553 
L 2631 2963 
z
" transform="scale(0.015625)"/>
       <path id="DejaVuSans-20" transform="scale(0.015625)"/>
       <path id="DejaVuSans-43" d="M 4122 4306 
L 4122 3641 
Q 3803 3938 3442 4084 
Q 3081 4231 2675 4231 
Q 1875 4231 1450 3742 
Q 1025 3253 1025 2328 
Q 1025 1406 1450 917 
Q 1875 428 2675 428 
Q 3081 428 3442 575 
Q 3803 722 4122 1019 
L 4122 359 
Q 3791 134 3420 21 
Q 3050 -91 2638 -91 
Q 1578 -91 968 557 
Q 359 1206 359 2328 
Q 359 3453 968 4101 
Q 1578 4750 2638 4750 
Q 3056 4750 3426 4639 
Q 3797 4528 4122 4306 
z
" transform="scale(0.015625)"/>
       <path id="DejaVuSans-75" d="M 544 1381 
L 544 3500 
L 1119 3500 
L 1119 1403 
Q 1119 906 1312 657 
Q 1506 409 1894 409 
Q 2359 409 2629 706 
Q 2900 1003 2900 1516 
L 2900 3500 
L 3475 3500 
L 3475 0 
L 2900 0 
L 2900 538 
Q 2691 219 2414 64 
Q 2138 -91 1772 -91 
Q 1169 -91 856 284 
Q 544 659 544 1381 
z
M 1991 3584 
L 1991 3584 
z
" transform="scale(0.015625)"/>
       <path id="DejaVuSans-6c" d="M 603 4863 
L 1178 4863 
L 1178 0 
L 603 0 
L 603 4863 
z
" transform="scale(0.015625)"/>
       <path id="DejaVuSans-74" d="M 1172 4494 
L 1172 3500 
L 2356 3500 
L 2356 3053 
L 1172 3053 
L 1172 1153 
Q 1172 725 1289 603 
Q 1406 481 1766 481 
L 2356 481 
L 2356 0 
L 1766 0 
Q 1100 0 847 248 
Q 594 497 594 1153 
L 594 3053 
L 172 3053 
L 172 3500 
L 594 3500 
L 594 4494 
L 1172 4494 
z
" transform="scale(0.015625)"/>
       <path id="DejaVuSans-64" d="M 2906 2969 
L 2906 4863 
L 3481 4863 
L 3481 0 
L 2906 0 
L 2906 525 
Q 2725 213 2448 61 
Q 2172 -91 1784 -91 
Q 1150 -91 751 415 
Q 353 922 353 1747 
Q 353 2572 751 3078 
Q 1150 3584 1784 3584 
Q 2172 3584 2448 3432 
Q 2725 3281 2906 2969 
z
M 947 1747 
Q 947 1113 1208 752 
Q 1469 391 1925 391 
Q 2381 391 2643 752 
Q 2906 1113 2906 1747 
Q 2906 2381 2643 2742 
Q 2381 3103 1925 3103 
Q 1469 3103 1208 2742 
Q 947 2381 947 1747 
z
" transform="scale(0.015625)"/>
      </defs>
      <use xlink:href="#DejaVuSans-59"/>
      <use xlink:href="#DejaVuSans-65" x="47.833984"/>
      <use xlink:href="#DejaVuSans-61" x="109.357422"/>
      <use xlink:href="#DejaVuSans-72" x="170.636719"/>
      <use xlink:href="#DejaVuSans-20" x="211.75"/>
      <use xlink:href="#DejaVuSans-43" x="243.537109"/>
      <use xlink:href="#DejaVuSans-75" x="313.361328"/>
      <use xlink:href="#DejaVuSans-6c" x="376.740234"/>
      <use xlink:href="#DejaVuSans-74" x="404.523438"/>
      <use xlink:href="#DejaVuSans-75" x="443.732422"/>
      <use xlink:href="#DejaVuSans-72" x="507.111328"/>
      <use xlink:href="#DejaVuSans-65" x="545.974609"/>
      <use xlink:href="#DejaVuSans-64" x="607.498047"/>
     </g>
    </g>
   </g>
   <g id="matplotlib.axis_2">
    <g id="ytick_1">
     <g id="text_10">
      <!-- 0.0 -->
      <g style="fill: #262626" transform="translate(19.382125 169.83614)scale(0.077 -0.077)">
       <defs>
        <path id="DejaVuSans-2e" d="M 684 794 
L 1344 794 
L 1344 0 
L 684 0 
L 684 794 
z
" transform="scale(0.015625)"/>
       </defs>
       <use xlink:href="#DejaVuSans-30"/>
       <use xlink:href="#DejaVuSans-2e" x="63.623047"/>
       <use xlink:href="#DejaVuSans-30" x="95.410156"/>
      </g>
     </g>
    </g>
    <g id="ytick_2">
     <g id="text_11">
      <!-- 0.2 -->
      <g style="fill: #262626" transform="translate(19.382125 139.376537)scale(0.077 -0.077)">
       <use xlink:href="#DejaVuSans-30"/>
       <use xlink:href="#DejaVuSans-2e" x="63.623047"/>
       <use xlink:href="#DejaVuSans-32" x="95.410156"/>
      </g>
     </g>
    </g>
    <g id="ytick_3">
     <g id="text_12">
      <!-- 0.4 -->
      <g style="fill: #262626" transform="translate(19.382125 108.916934)scale(0.077 -0.077)">
       <use xlink:href="#DejaVuSans-30"/>
       <use xlink:href="#DejaVuSans-2e" x="63.623047"/>
       <use xlink:href="#DejaVuSans-34" x="95.410156"/>
      </g>
     </g>
    </g>
    <g id="ytick_4">
     <g id="text_13">
      <!-- 0.6 -->
      <g style="fill: #262626" transform="translate(19.382125 78.457331)scale(0.077 -0.077)">
       <use xlink:href="#DejaVuSans-30"/>
       <use xlink:href="#DejaVuSans-2e" x="63.623047"/>
       <use xlink:href="#DejaVuSans-36" x="95.410156"/>
      </g>
     </g>
    </g>
    <g id="ytick_5">
     <g id="text_14">
      <!-- 0.8 -->
      <g style="fill: #262626" transform="translate(19.382125 47.997729)scale(0.077 -0.077)">
       <use xlink:href="#DejaVuSans-30"/>
       <use xlink:href="#DejaVuSans-2e" x="63.623047"/>
       <use xlink:href="#DejaVuSans-38" x="95.410156"/>
      </g>
     </g>
    </g>
    <g id="ytick_6">
     <g id="text_15">
      <!-- 1.0 -->
      <g style="fill: #262626" transform="translate(19.382125 17.538126)scale(0.077 -0.077)">
       <use xlink:href="#DejaVuSans-31"/>
       <use xlink:href="#DejaVuSans-2e" x="63.623047"/>
       <use xlink:href="#DejaVuSans-30" x="95.410156"/>
      </g>
     </g>
    </g>
    <g id="text_16">
     <!-- Fraction of β-lactamases -->
     <g style="fill: #262626" transform="translate(13.635187 140.314687)rotate(-90)scale(0.084 -0.084)">
      <defs>
       <path id="DejaVuSans-46" d="M 628 4666 
L 3309 4666 
L 3309 4134 
L 1259 4134 
L 1259 2759 
L 3109 2759 
L 3109 2228 
L 1259 2228 
L 1259 0 
L 628 0 
L 628 4666 
z
" transform="scale(0.015625)"/>
       <path id="DejaVuSans-63" d="M 3122 3366 
L 3122 2828 
Q 2878 2963 2633 3030 
Q 2388 3097 2138 3097 
Q 1578 3097 1268 2742 
Q 959 2388 959 1747 
Q 959 1106 1268 751 
Q 1578 397 2138 397 
Q 2388 397 2633 464 
Q 2878 531 3122 666 
L 3122 134 
Q 2881 22 2623 -34 
Q 2366 -91 2075 -91 
Q 1284 -91 818 406 
Q 353 903 353 1747 
Q 353 2603 823 3093 
Q 1294 3584 2113 3584 
Q 2378 3584 2631 3529 
Q 2884 3475 3122 3366 
z
" transform="scale(0.015625)"/>
       <path id="DejaVuSans-69" d="M 603 3500 
L 1178 3500 
L 1178 0 
L 603 0 
L 603 3500 
z
M 603 4863 
L 1178 4863 
L 1178 4134 
L 603 4134 
L 603 4863 
z
" transform="scale(0.015625)"/>
       <path id="DejaVuSans-6f" d="M 1959 3097 
Q 1497 3097 1228 2736 
Q 959 2375 959 1747 
Q 959 1119 1226 758 
Q 1494 397 1959 397 
Q 2419 397 2687 759 
Q 2956 1122 2956 1747 
Q 2956 2369 2687 2733 
Q 2419 3097 1959 3097 
z
M 1959 3584 
Q 2709 3584 3137 3096 
Q 3566 2609 3566 1747 
Q 3566 888 3137 398 
Q 2709 -91 1959 -91 
Q 1206 -91 779 398 
Q 353 888 353 1747 
Q 353 2609 779 3096 
Q 1206 3584 1959 3584 
z
" transform="scale(0.015625)"/>
       <path id="DejaVuSans-6e" d="M 3513 2113 
L 3513 0 
L 2938 0 
L 2938 2094 
Q 2938 2591 2744 2837 
Q 2550 3084 2163 3084 
Q 1697 3084 1428 2787 
Q 1159 2491 1159 1978 
L 1159 0 
L 581 0 
L 581 3500 
L 1159 3500 
L 1159 2956 
Q 1366 3272 1645 3428 
Q 1925 3584 2291 3584 
Q 2894 3584 3203 3211 
Q 3513 2838 3513 2113 
z
" transform="scale(0.015625)"/>
       <path id="DejaVuSans-66" d="M 2375 4863 
L 2375 4384 
L 1825 4384 
Q 1516 4384 1395 4259 
Q 1275 4134 1275 3809 
L 1275 3500 
L 2222 3500 
L 2222 3053 
L 1275 3053 
L 1275 0 
L 697 0 
L 697 3053 
L 147 3053 
L 147 3500 
L 697 3500 
L 697 3744 
Q 697 4328 969 4595 
Q 1241 4863 1831 4863 
L 2375 4863 
z
" transform="scale(0.015625)"/>
       <path id="DejaVuSans-3b2" d="M 1178 216 
L 1178 -1331 
L 600 -1331 
L 600 3478 
Q 600 4903 1931 4903 
Q 3288 4903 3288 3700 
Q 3288 2844 2750 2531 
Q 3625 2250 3625 1416 
Q 3625 -66 2119 -66 
Q 1456 -66 1178 216 
z
M 1178 966 
Q 1525 425 2141 425 
Q 3041 425 3041 1406 
Q 3041 2288 1591 2219 
L 1591 2750 
Q 2725 2750 2725 3750 
Q 2725 4434 1994 4434 
Q 1178 4434 1178 3459 
L 1178 966 
z
" transform="scale(0.015625)"/>
       <path id="DejaVuSans-2d" d="M 313 2009 
L 1997 2009 
L 1997 1497 
L 313 1497 
L 313 2009 
z
" transform="scale(0.015625)"/>
       <path id="DejaVuSans-6d" d="M 3328 2828 
Q 3544 3216 3844 3400 
Q 4144 3584 4550 3584 
Q 5097 3584 5394 3201 
Q 5691 2819 5691 2113 
L 5691 0 
L 5113 0 
L 5113 2094 
Q 5113 2597 4934 2840 
Q 4756 3084 4391 3084 
Q 3944 3084 3684 2787 
Q 3425 2491 3425 1978 
L 3425 0 
L 2847 0 
L 2847 2094 
Q 2847 2600 2669 2842 
Q 2491 3084 2119 3084 
Q 1678 3084 1418 2786 
Q 1159 2488 1159 1978 
L 1159 0 
L 581 0 
L 581 3500 
L 1159 3500 
L 1159 2956 
Q 1356 3278 1631 3431 
Q 1906 3584 2284 3584 
Q 2666 3584 2933 3390 
Q 3200 3197 3328 2828 
z
" transform="scale(0.015625)"/>
       <path id="DejaVuSans-73" d="M 2834 3397 
L 2834 2853 
Q 2591 2978 2328 3040 
Q 2066 3103 1784 3103 
Q 1356 3103 1142 2972 
Q 928 2841 928 2578 
Q 928 2378 1081 2264 
Q 1234 2150 1697 2047 
L 1894 2003 
Q 2506 1872 2764 1633 
Q 3022 1394 3022 966 
Q 3022 478 2636 193 
Q 2250 -91 1575 -91 
Q 1294 -91 989 -36 
Q 684 19 347 128 
L 347 722 
Q 666 556 975 473 
Q 1284 391 1588 391 
Q 1994 391 2212 530 
Q 2431 669 2431 922 
Q 2431 1156 2273 1281 
Q 2116 1406 1581 1522 
L 1381 1569 
Q 847 1681 609 1914 
Q 372 2147 372 2553 
Q 372 3047 722 3315 
Q 1072 3584 1716 3584 
Q 2034 3584 2315 3537 
Q 2597 3491 2834 3397 
z
" transform="scale(0.015625)"/>
      </defs>
      <use xlink:href="#DejaVuSans-46"/>
      <use xlink:href="#DejaVuSans-72" x="50.269531"/>
      <use xlink:href="#DejaVuSans-61" x="91.382812"/>
      <use xlink:href="#DejaVuSans-63" x="152.662109"/>
      <use xlink:href="#DejaVuSans-74" x="207.642578"/>
      <use xlink:href="#DejaVuSans-69" x="246.851562"/>
      <use xlink:href="#DejaVuSans-6f" x="274.634766"/>
      <use xlink:href="#DejaVuSans-6e" x="335.816406"/>
      <use xlink:href="#DejaVuSans-20" x="399.195312"/>
      <use xlink:href="#DejaVuSans-6f" x="430.982422"/>
      <use xlink:href="#DejaVuSans-66" x="492.164062"/>
      <use xlink:href="#DejaVuSans-20" x="527.369141"/>
      <use xlink:href="#DejaVuSans-3b2" x="559.15625"/>
      <use xlink:href="#DejaVuSans-2d" x="622.974609"/>
      <use xlink:href="#DejaVuSans-6c" x="659.058594"/>
      <use xlink:href="#DejaVuSans-61" x="686.841797"/>
      <use xlink:href="#DejaVuSans-63" x="748.121094"/>
      <use xlink:href="#DejaVuSans-74" x="803.101562"/>
      <use xlink:href="#DejaVuSans-61" x="842.310547"/>
      <use xlink:href="#DejaVuSans-6d" x="903.589844"/>
      <use xlink:href="#DejaVuSans-61" x="1001.001953"/>
      <use xlink:href="#DejaVuSans-73" x="1062.28125"/>
      <use xlink:href="#DejaVuSans-65" x="1114.380859"/>
      <use xlink:href="#DejaVuSans-73" x="1175.904297"/>
     </g>
    </g>
   </g>
   <g id="PolyCollection_1">
    <defs>
     <path id="m1a2eb70458" d="M 53.809349 -190.245246 
L 53.809349 -70.54873 
L 92.830328 -77.964076 
L 102.585573 -75.117555 
L 112.340818 -73.173789 
L 114.291867 -73.173789 
L 120.145014 -73.173789 
L 122.096063 -73.173789 
L 125.998161 -77.264145 
L 129.900259 -79.207911 
L 137.704454 -78.939266 
L 139.655503 -80.036012 
L 141.606552 -76.830638 
L 143.557601 -84.394979 
L 145.50865 -85.491725 
L 147.459699 -81.670014 
L 149.410748 -87.868997 
L 153.312846 -89.890408 
L 157.214944 -78.235711 
L 159.165993 -86.887938 
L 161.117042 -86.887938 
L 163.068091 -93.983441 
L 165.01914 -87.871675 
L 166.970189 -87.871675 
L 168.921238 -92.791702 
L 170.872286 -109.03852 
L 172.823335 -104.398472 
L 174.774384 -119.725794 
L 176.725433 -124.026117 
L 178.676482 -133.366173 
L 180.627531 -134.084501 
L 182.57858 -134.206195 
L 184.529629 -134.538033 
L 186.480678 -137.602615 
L 188.431727 -132.803956 
L 190.382776 -129.761589 
L 192.333825 -129.637683 
L 194.284874 -127.901302 
L 196.235923 -124.626753 
L 198.186972 -116.36322 
L 200.138021 -113.387306 
L 202.08907 -101.694567 
L 204.040119 -95.067518 
L 205.991168 -98.272891 
L 207.942217 -91.416383 
L 209.893266 -90.075759 
L 211.844314 -101.768498 
L 213.795363 -109.800091 
L 215.746412 -114.328246 
L 217.697461 -124.629123 
L 219.64851 -119.113237 
L 221.599559 -121.018961 
L 223.550608 -113.056544 
L 225.501657 -115.06358 
L 227.452706 -106.784114 
L 229.403755 -112.442731 
L 231.354804 -115.457034 
L 233.305853 -112.122148 
L 237.207951 -107.980893 
L 239.159 -107.846282 
L 241.110049 -115.062454 
L 243.061098 -102.002658 
L 245.012147 -104.084406 
L 246.963196 -94.045031 
L 248.914245 -86.849594 
L 250.865293 -69.241197 
L 252.816342 -71.722349 
L 254.767391 -65.610582 
L 256.71844 -78.01101 
L 258.669489 -83.319647 
L 260.620538 -83.9629 
L 262.571587 -83.9629 
L 264.522636 -83.9629 
L 266.473685 -71.912182 
L 268.424734 -67.821826 
L 270.375783 -67.226811 
L 274.277881 -64.233201 
L 282.082077 -64.233201 
L 284.033126 -62.558582 
L 285.984175 -62.558582 
L 287.935224 -69.225332 
L 289.886273 -67.485334 
L 291.837321 -74.418684 
L 293.78837 -81.863366 
L 295.739419 -84.505716 
L 297.690468 -85.798885 
L 299.641517 -86.442138 
L 301.592566 -86.804516 
L 303.543615 -78.277011 
L 305.494664 -78.610458 
L 307.445713 -71.295279 
L 307.445713 -181.135437 
L 307.445713 -181.135437 
L 305.494664 -180.988788 
L 303.543615 -178.398295 
L 301.592566 -180.608693 
L 299.641517 -176.579805 
L 297.690468 -167.846551 
L 295.739419 -163.568595 
L 293.78837 -167.967987 
L 291.837321 -156.409955 
L 289.886273 -160.247871 
L 287.935224 -167.305638 
L 285.984175 -162.114199 
L 284.033126 -162.114199 
L 282.082077 -176.99151 
L 274.277881 -176.99151 
L 270.375783 -178.794178 
L 268.424734 -190.160459 
L 266.473685 -190.287639 
L 264.522636 -183.450138 
L 262.571587 -183.450138 
L 260.620538 -183.450138 
L 258.669489 -174.716884 
L 256.71844 -168.187127 
L 254.767391 -170.941406 
L 252.816342 -170.006517 
L 250.865293 -161.835244 
L 248.914245 -170.881626 
L 246.963196 -171.650547 
L 245.012147 -172.761191 
L 243.061098 -171.064091 
L 241.110049 -178.906312 
L 239.159 -178.822494 
L 237.207951 -183.521261 
L 233.305853 -184.604604 
L 231.354804 -185.339706 
L 229.403755 -185.796476 
L 227.452706 -185.694345 
L 225.501657 -186.916145 
L 223.550608 -185.920547 
L 221.599559 -187.658576 
L 219.64851 -187.632989 
L 217.697461 -186.918703 
L 215.746412 -186.758972 
L 213.795363 -189.834776 
L 211.844314 -190.184606 
L 209.893266 -187.46613 
L 207.942217 -187.579107 
L 205.991168 -186.977797 
L 204.040119 -186.914006 
L 202.08907 -186.470725 
L 200.138021 -189.189201 
L 198.186972 -189.411021 
L 196.235923 -189.955902 
L 194.284874 -187.931835 
L 192.333825 -185.810022 
L 190.382776 -184.129658 
L 188.431727 -184.695097 
L 186.480678 -184.863986 
L 184.529629 -182.971195 
L 182.57858 -185.186457 
L 180.627531 -182.577312 
L 178.676482 -182.570318 
L 176.725433 -182.128806 
L 174.774384 -185.918484 
L 172.823335 -186.077343 
L 170.872286 -190.424453 
L 168.921238 -190.118318 
L 166.970189 -190.549501 
L 165.01914 -190.549501 
L 163.068091 -189.614612 
L 161.117042 -189.518672 
L 159.165993 -189.518672 
L 157.214944 -187.613874 
L 153.312846 -187.868771 
L 149.410748 -188.93084 
L 147.459699 -187.064382 
L 145.50865 -185.840946 
L 143.557601 -187.516434 
L 141.606552 -187.388716 
L 139.655503 -187.452508 
L 137.704454 -189.127995 
L 129.900259 -190.47861 
L 125.998161 -187.989445 
L 122.096063 -187.862265 
L 120.145014 -187.862265 
L 114.291867 -187.862265 
L 112.340818 -187.862265 
L 102.585573 -190.35143 
L 92.830328 -190.430968 
L 53.809349 -190.245246 
z
" style="stroke: #4c72b0; stroke-opacity: 0.3"/>
    </defs>
    <g clip-path="url(#pf6ad86c144)">
     <use xlink:href="#m1a2eb70458" x="0" y="206.561781" style="fill: #4c72b0; fill-opacity: 0.3; stroke: #4c72b0; stroke-opacity: 0.3"/>
    </g>
   </g>
   <g id="PathCollection_1">
    <defs>
     <path id="C0_0_d412c4b1a9" d="M 0 3 
C 0.795609 3 1.55874 2.683901 2.12132 2.12132 
C 2.683901 1.55874 3 0.795609 3 -0 
C 3 -0.795609 2.683901 -1.55874 2.12132 -2.12132 
C 1.55874 -2.683901 0.795609 -3 0 -3 
C -0.795609 -3 -1.55874 -2.683901 -2.12132 -2.12132 
C -2.683901 -1.55874 -3 -0.795609 -3 0 
C -3 0.795609 -2.683901 1.55874 -2.12132 2.12132 
C -1.55874 2.683901 -0.795609 3 0 3 
z
"/>
    </defs>
    <g clip-path="url(#pf6ad86c144)">
     <use xlink:href="#C0_0_d412c4b1a9" x="53.809349" y="14.612727" style="fill: #4c72b0"/>
    </g>
    <g clip-path="url(#pf6ad86c144)">
     <use xlink:href="#C0_0_d412c4b1a9" x="92.830328" y="14.612727" style="fill: #4c72b0"/>
    </g>
    <g clip-path="url(#pf6ad86c144)">
     <use xlink:href="#C0_0_d412c4b1a9" x="102.585573" y="14.612727" style="fill: #4c72b0"/>
    </g>
    <g clip-path="url(#pf6ad86c144)">
     <use xlink:href="#C0_0_d412c4b1a9" x="112.340818" y="29.842529" style="fill: #4c72b0"/>
    </g>
    <g clip-path="url(#pf6ad86c144)">
     <use xlink:href="#C0_0_d412c4b1a9" x="114.291867" y="29.842529" style="fill: #4c72b0"/>
    </g>
    <g clip-path="url(#pf6ad86c144)">
     <use xlink:href="#C0_0_d412c4b1a9" x="120.145014" y="29.842529" style="fill: #4c72b0"/>
    </g>
    <g clip-path="url(#pf6ad86c144)">
     <use xlink:href="#C0_0_d412c4b1a9" x="122.096063" y="29.842529" style="fill: #4c72b0"/>
    </g>
    <g clip-path="url(#pf6ad86c144)">
     <use xlink:href="#C0_0_d412c4b1a9" x="125.998161" y="29.842529" style="fill: #4c72b0"/>
    </g>
    <g clip-path="url(#pf6ad86c144)">
     <use xlink:href="#C0_0_d412c4b1a9" x="129.900259" y="14.612727" style="fill: #4c72b0"/>
    </g>
    <g clip-path="url(#pf6ad86c144)">
     <use xlink:href="#C0_0_d412c4b1a9" x="137.704454" y="22.227628" style="fill: #4c72b0"/>
    </g>
    <g clip-path="url(#pf6ad86c144)">
     <use xlink:href="#C0_0_d412c4b1a9" x="139.655503" y="32.380829" style="fill: #4c72b0"/>
    </g>
    <g clip-path="url(#pf6ad86c144)">
     <use xlink:href="#C0_0_d412c4b1a9" x="141.606552" y="32.380829" style="fill: #4c72b0"/>
    </g>
    <g clip-path="url(#pf6ad86c144)">
     <use xlink:href="#C0_0_d412c4b1a9" x="143.557601" y="32.380829" style="fill: #4c72b0"/>
    </g>
    <g clip-path="url(#pf6ad86c144)">
     <use xlink:href="#C0_0_d412c4b1a9" x="145.50865" y="42.53403" style="fill: #4c72b0"/>
    </g>
    <g clip-path="url(#pf6ad86c144)">
     <use xlink:href="#C0_0_d412c4b1a9" x="147.459699" y="34.919129" style="fill: #4c72b0"/>
    </g>
    <g clip-path="url(#pf6ad86c144)">
     <use xlink:href="#C0_0_d412c4b1a9" x="149.410748" y="24.765928" style="fill: #4c72b0"/>
    </g>
    <g clip-path="url(#pf6ad86c144)">
     <use xlink:href="#C0_0_d412c4b1a9" x="153.312846" y="30.857849" style="fill: #4c72b0"/>
    </g>
    <g clip-path="url(#pf6ad86c144)">
     <use xlink:href="#C0_0_d412c4b1a9" x="157.214944" y="30.857849" style="fill: #4c72b0"/>
    </g>
    <g clip-path="url(#pf6ad86c144)">
     <use xlink:href="#C0_0_d412c4b1a9" x="159.165993" y="20.704648" style="fill: #4c72b0"/>
    </g>
    <g clip-path="url(#pf6ad86c144)">
     <use xlink:href="#C0_0_d412c4b1a9" x="161.117042" y="20.704648" style="fill: #4c72b0"/>
    </g>
    <g clip-path="url(#pf6ad86c144)">
     <use xlink:href="#C0_0_d412c4b1a9" x="163.068091" y="20.704648" style="fill: #4c72b0"/>
    </g>
    <g clip-path="url(#pf6ad86c144)">
     <use xlink:href="#C0_0_d412c4b1a9" x="165.01914" y="14.612727" style="fill: #4c72b0"/>
    </g>
    <g clip-path="url(#pf6ad86c144)">
     <use xlink:href="#C0_0_d412c4b1a9" x="166.970189" y="14.612727" style="fill: #4c72b0"/>
    </g>
    <g clip-path="url(#pf6ad86c144)">
     <use xlink:href="#C0_0_d412c4b1a9" x="168.921238" y="17.151028" style="fill: #4c72b0"/>
    </g>
    <g clip-path="url(#pf6ad86c144)">
     <use xlink:href="#C0_0_d412c4b1a9" x="170.872286" y="17.151028" style="fill: #4c72b0"/>
    </g>
    <g clip-path="url(#pf6ad86c144)">
     <use xlink:href="#C0_0_d412c4b1a9" x="172.823335" y="26.288908" style="fill: #4c72b0"/>
    </g>
    <g clip-path="url(#pf6ad86c144)">
     <use xlink:href="#C0_0_d412c4b1a9" x="174.774384" y="28.631955" style="fill: #4c72b0"/>
    </g>
    <g clip-path="url(#pf6ad86c144)">
     <use xlink:href="#C0_0_d412c4b1a9" x="176.725433" y="40.054306" style="fill: #4c72b0"/>
    </g>
    <g clip-path="url(#pf6ad86c144)">
     <use xlink:href="#C0_0_d412c4b1a9" x="178.676482" y="37.981038" style="fill: #4c72b0"/>
    </g>
    <g clip-path="url(#pf6ad86c144)">
     <use xlink:href="#C0_0_d412c4b1a9" x="180.627531" y="37.981038" style="fill: #4c72b0"/>
    </g>
    <g clip-path="url(#pf6ad86c144)">
     <use xlink:href="#C0_0_d412c4b1a9" x="182.57858" y="34.935077" style="fill: #4c72b0"/>
    </g>
    <g clip-path="url(#pf6ad86c144)">
     <use xlink:href="#C0_0_d412c4b1a9" x="184.529629" y="38.059139" style="fill: #4c72b0"/>
    </g>
    <g clip-path="url(#pf6ad86c144)">
     <use xlink:href="#C0_0_d412c4b1a9" x="186.480678" y="34.251689" style="fill: #4c72b0"/>
    </g>
    <g clip-path="url(#pf6ad86c144)">
     <use xlink:href="#C0_0_d412c4b1a9" x="188.431727" y="35.110987" style="fill: #4c72b0"/>
    </g>
    <g clip-path="url(#pf6ad86c144)">
     <use xlink:href="#C0_0_d412c4b1a9" x="190.382776" y="37.880042" style="fill: #4c72b0"/>
    </g>
    <g clip-path="url(#pf6ad86c144)">
     <use xlink:href="#C0_0_d412c4b1a9" x="192.333825" y="31.788122" style="fill: #4c72b0"/>
    </g>
    <g clip-path="url(#pf6ad86c144)">
     <use xlink:href="#C0_0_d412c4b1a9" x="194.284874" y="29.090068" style="fill: #4c72b0"/>
    </g>
    <g clip-path="url(#pf6ad86c144)">
     <use xlink:href="#C0_0_d412c4b1a9" x="196.235923" y="21.475167" style="fill: #4c72b0"/>
    </g>
    <g clip-path="url(#pf6ad86c144)">
     <use xlink:href="#C0_0_d412c4b1a9" x="198.186972" y="23.958287" style="fill: #4c72b0"/>
    </g>
    <g clip-path="url(#pf6ad86c144)">
     <use xlink:href="#C0_0_d412c4b1a9" x="200.138021" y="24.996683" style="fill: #4c72b0"/>
    </g>
    <g clip-path="url(#pf6ad86c144)">
     <use xlink:href="#C0_0_d412c4b1a9" x="202.08907" y="40.226484" style="fill: #4c72b0"/>
    </g>
    <g clip-path="url(#pf6ad86c144)">
     <use xlink:href="#C0_0_d412c4b1a9" x="204.040119" y="37.457429" style="fill: #4c72b0"/>
    </g>
    <g clip-path="url(#pf6ad86c144)">
     <use xlink:href="#C0_0_d412c4b1a9" x="205.991168" y="37.457429" style="fill: #4c72b0"/>
    </g>
    <g clip-path="url(#pf6ad86c144)">
     <use xlink:href="#C0_0_d412c4b1a9" x="207.942217" y="33.649979" style="fill: #4c72b0"/>
    </g>
    <g clip-path="url(#pf6ad86c144)">
     <use xlink:href="#C0_0_d412c4b1a9" x="209.893266" y="34.193901" style="fill: #4c72b0"/>
    </g>
    <g clip-path="url(#pf6ad86c144)">
     <use xlink:href="#C0_0_d412c4b1a9" x="211.844314" y="18.964099" style="fill: #4c72b0"/>
    </g>
    <g clip-path="url(#pf6ad86c144)">
     <use xlink:href="#C0_0_d412c4b1a9" x="213.795363" y="21.307145" style="fill: #4c72b0"/>
    </g>
    <g clip-path="url(#pf6ad86c144)">
     <use xlink:href="#C0_0_d412c4b1a9" x="215.746412" y="28.559432" style="fill: #4c72b0"/>
    </g>
    <g clip-path="url(#pf6ad86c144)">
     <use xlink:href="#C0_0_d412c4b1a9" x="217.697461" y="28.559432" style="fill: #4c72b0"/>
    </g>
    <g clip-path="url(#pf6ad86c144)">
     <use xlink:href="#C0_0_d412c4b1a9" x="219.64851" y="24.20806" style="fill: #4c72b0"/>
    </g>
    <g clip-path="url(#pf6ad86c144)">
     <use xlink:href="#C0_0_d412c4b1a9" x="221.599559" y="24.20806" style="fill: #4c72b0"/>
    </g>
    <g clip-path="url(#pf6ad86c144)">
     <use xlink:href="#C0_0_d412c4b1a9" x="223.550608" y="29.479914" style="fill: #4c72b0"/>
    </g>
    <g clip-path="url(#pf6ad86c144)">
     <use xlink:href="#C0_0_d412c4b1a9" x="225.501657" y="27.765738" style="fill: #4c72b0"/>
    </g>
    <g clip-path="url(#pf6ad86c144)">
     <use xlink:href="#C0_0_d412c4b1a9" x="227.452706" y="33.857658" style="fill: #4c72b0"/>
    </g>
    <g clip-path="url(#pf6ad86c144)">
     <use xlink:href="#C0_0_d412c4b1a9" x="229.403755" y="33.857658" style="fill: #4c72b0"/>
    </g>
    <g clip-path="url(#pf6ad86c144)">
     <use xlink:href="#C0_0_d412c4b1a9" x="231.354804" y="36.395958" style="fill: #4c72b0"/>
    </g>
    <g clip-path="url(#pf6ad86c144)">
     <use xlink:href="#C0_0_d412c4b1a9" x="233.305853" y="38.934259" style="fill: #4c72b0"/>
    </g>
    <g clip-path="url(#pf6ad86c144)">
     <use xlink:href="#C0_0_d412c4b1a9" x="237.207951" y="41.51871" style="fill: #4c72b0"/>
    </g>
    <g clip-path="url(#pf6ad86c144)">
     <use xlink:href="#C0_0_d412c4b1a9" x="239.159" y="47.61063" style="fill: #4c72b0"/>
    </g>
    <g clip-path="url(#pf6ad86c144)">
     <use xlink:href="#C0_0_d412c4b1a9" x="241.110049" y="47.61063" style="fill: #4c72b0"/>
    </g>
    <g clip-path="url(#pf6ad86c144)">
     <use xlink:href="#C0_0_d412c4b1a9" x="243.061098" y="61.686659" style="fill: #4c72b0"/>
    </g>
    <g clip-path="url(#pf6ad86c144)">
     <use xlink:href="#C0_0_d412c4b1a9" x="245.012147" y="57.625379" style="fill: #4c72b0"/>
    </g>
    <g clip-path="url(#pf6ad86c144)">
     <use xlink:href="#C0_0_d412c4b1a9" x="246.963196" y="64.732619" style="fill: #4c72b0"/>
    </g>
    <g clip-path="url(#pf6ad86c144)">
     <use xlink:href="#C0_0_d412c4b1a9" x="248.914245" y="70.82454" style="fill: #4c72b0"/>
    </g>
    <g clip-path="url(#pf6ad86c144)">
     <use xlink:href="#C0_0_d412c4b1a9" x="250.865293" y="89.861792" style="fill: #4c72b0"/>
    </g>
    <g clip-path="url(#pf6ad86c144)">
     <use xlink:href="#C0_0_d412c4b1a9" x="252.816342" y="73.247463" style="fill: #4c72b0"/>
    </g>
    <g clip-path="url(#pf6ad86c144)">
     <use xlink:href="#C0_0_d412c4b1a9" x="254.767391" y="67.155542" style="fill: #4c72b0"/>
    </g>
    <g clip-path="url(#pf6ad86c144)">
     <use xlink:href="#C0_0_d412c4b1a9" x="256.71844" y="62.078942" style="fill: #4c72b0"/>
    </g>
    <g clip-path="url(#pf6ad86c144)">
     <use xlink:href="#C0_0_d412c4b1a9" x="258.669489" y="43.80318" style="fill: #4c72b0"/>
    </g>
    <g clip-path="url(#pf6ad86c144)">
     <use xlink:href="#C0_0_d412c4b1a9" x="260.620538" y="24.765928" style="fill: #4c72b0"/>
    </g>
    <g clip-path="url(#pf6ad86c144)">
     <use xlink:href="#C0_0_d412c4b1a9" x="262.571587" y="24.765928" style="fill: #4c72b0"/>
    </g>
    <g clip-path="url(#pf6ad86c144)">
     <use xlink:href="#C0_0_d412c4b1a9" x="264.522636" y="24.765928" style="fill: #4c72b0"/>
    </g>
    <g clip-path="url(#pf6ad86c144)">
     <use xlink:href="#C0_0_d412c4b1a9" x="266.473685" y="14.612727" style="fill: #4c72b0"/>
    </g>
    <g clip-path="url(#pf6ad86c144)">
     <use xlink:href="#C0_0_d412c4b1a9" x="268.424734" y="14.612727" style="fill: #4c72b0"/>
    </g>
    <g clip-path="url(#pf6ad86c144)">
     <use xlink:href="#C0_0_d412c4b1a9" x="270.375783" y="34.919129" style="fill: #4c72b0"/>
    </g>
    <g clip-path="url(#pf6ad86c144)">
     <use xlink:href="#C0_0_d412c4b1a9" x="274.277881" y="45.07233" style="fill: #4c72b0"/>
    </g>
    <g clip-path="url(#pf6ad86c144)">
     <use xlink:href="#C0_0_d412c4b1a9" x="282.082077" y="45.07233" style="fill: #4c72b0"/>
    </g>
    <g clip-path="url(#pf6ad86c144)">
     <use xlink:href="#C0_0_d412c4b1a9" x="284.033126" y="67.917032" style="fill: #4c72b0"/>
    </g>
    <g clip-path="url(#pf6ad86c144)">
     <use xlink:href="#C0_0_d412c4b1a9" x="285.984175" y="67.917032" style="fill: #4c72b0"/>
    </g>
    <g clip-path="url(#pf6ad86c144)">
     <use xlink:href="#C0_0_d412c4b1a9" x="287.935224" y="60.15282" style="fill: #4c72b0"/>
    </g>
    <g clip-path="url(#pf6ad86c144)">
     <use xlink:href="#C0_0_d412c4b1a9" x="289.886273" y="69.036871" style="fill: #4c72b0"/>
    </g>
    <g clip-path="url(#pf6ad86c144)">
     <use xlink:href="#C0_0_d412c4b1a9" x="291.837321" y="79.190072" style="fill: #4c72b0"/>
    </g>
    <g clip-path="url(#pf6ad86c144)">
     <use xlink:href="#C0_0_d412c4b1a9" x="293.78837" y="66.49857" style="fill: #4c72b0"/>
    </g>
    <g clip-path="url(#pf6ad86c144)">
     <use xlink:href="#C0_0_d412c4b1a9" x="295.739419" y="79.552686" style="fill: #4c72b0"/>
    </g>
    <g clip-path="url(#pf6ad86c144)">
     <use xlink:href="#C0_0_d412c4b1a9" x="297.690468" y="74.625397" style="fill: #4c72b0"/>
    </g>
    <g clip-path="url(#pf6ad86c144)">
     <use xlink:href="#C0_0_d412c4b1a9" x="299.641517" y="55.588145" style="fill: #4c72b0"/>
    </g>
    <g clip-path="url(#pf6ad86c144)">
     <use xlink:href="#C0_0_d412c4b1a9" x="301.592566" y="45.434944" style="fill: #4c72b0"/>
    </g>
    <g clip-path="url(#pf6ad86c144)">
     <use xlink:href="#C0_0_d412c4b1a9" x="303.543615" y="55.588145" style="fill: #4c72b0"/>
    </g>
    <g clip-path="url(#pf6ad86c144)">
     <use xlink:href="#C0_0_d412c4b1a9" x="305.494664" y="49.514356" style="fill: #4c72b0"/>
    </g>
    <g clip-path="url(#pf6ad86c144)">
     <use xlink:href="#C0_0_d412c4b1a9" x="307.445713" y="48.45673" style="fill: #4c72b0"/>
    </g>
   </g>
   <g id="PolyCollection_2">
    <defs>
     <path id="ma2f2c35de2" d="M 108.43872 -185.884671 
L 108.43872 -60.49186 
L 118.193965 -57.289893 
L 120.145014 -55.820764 
L 141.606552 -53.063321 
L 143.557601 -49.565278 
L 149.410748 -47.277986 
L 159.165993 -47.330334 
L 172.823335 -45.813706 
L 176.725433 -46.035106 
L 178.676482 -44.860577 
L 180.627531 -44.970979 
L 182.57858 -46.069317 
L 186.480678 -47.807345 
L 188.431727 -45.839707 
L 190.382776 -46.331656 
L 192.333825 -46.493512 
L 194.284874 -44.59352 
L 202.08907 -45.185797 
L 204.040119 -45.415407 
L 205.991168 -46.3598 
L 217.697461 -46.3598 
L 219.64851 -46.347815 
L 227.452706 -44.793539 
L 229.403755 -44.836553 
L 231.354804 -46.271839 
L 237.207951 -46.647369 
L 239.159 -47.034883 
L 241.110049 -54.144087 
L 243.061098 -54.877104 
L 246.963196 -53.46855 
L 248.914245 -53.55378 
L 250.865293 -56.4938 
L 252.816342 -55.287207 
L 254.767391 -56.738562 
L 260.620538 -57.190614 
L 282.082077 -57.029581 
L 284.033126 -53.946746 
L 287.935224 -47.583375 
L 291.837321 -49.035048 
L 293.78837 -50.678839 
L 295.739419 -52.118005 
L 297.690468 -51.88529 
L 299.641517 -53.086648 
L 301.592566 -51.16921 
L 307.445713 -48.837878 
L 307.445713 -138.098094 
L 307.445713 -138.098094 
L 301.592566 -138.328148 
L 299.641517 -137.302893 
L 297.690468 -127.452774 
L 295.739419 -123.329273 
L 293.78837 -114.604222 
L 291.837321 -119.277538 
L 287.935224 -116.958645 
L 284.033126 -115.854791 
L 282.082077 -126.624835 
L 260.620538 -135.056827 
L 254.767391 -132.331862 
L 252.816342 -135.47234 
L 250.865293 -145.913854 
L 248.914245 -136.251194 
L 246.963196 -128.399977 
L 243.061098 -128.19167 
L 241.110049 -119.634436 
L 239.159 -115.131874 
L 237.207951 -111.991583 
L 231.354804 -115.007701 
L 229.403755 -104.028323 
L 227.452706 -103.370001 
L 219.64851 -111.425534 
L 217.697461 -117.581943 
L 205.991168 -117.581943 
L 204.040119 -118.66856 
L 202.08907 -114.785485 
L 194.284874 -105.476814 
L 192.333825 -100.764519 
L 190.382776 -98.640979 
L 188.431727 -88.554701 
L 186.480678 -100.400193 
L 182.57858 -92.437776 
L 180.627531 -93.52317 
L 178.676482 -91.924574 
L 176.725433 -109.821864 
L 172.823335 -116.090024 
L 159.165993 -130.3206 
L 149.410748 -141.072655 
L 143.557601 -157.685421 
L 141.606552 -168.230118 
L 120.145014 -173.759795 
L 118.193965 -176.60352 
L 108.43872 -185.884671 
z
" style="stroke: #dd8452; stroke-opacity: 0.3"/>
    </defs>
    <g clip-path="url(#pf6ad86c144)">
     <use xlink:href="#ma2f2c35de2" x="0" y="206.561781" style="fill: #dd8452; fill-opacity: 0.3; stroke: #dd8452; stroke-opacity: 0.3"/>
    </g>
   </g>
   <g id="PathCollection_2">
    <defs>
     <path id="C1_0_a2c9588f3a" d="M 0 3 
C 0.795609 3 1.55874 2.683901 2.12132 2.12132 
C 2.683901 1.55874 3 0.795609 3 -0 
C 3 -0.795609 2.683901 -1.55874 2.12132 -2.12132 
C 1.55874 -2.683901 0.795609 -3 0 -3 
C -0.795609 -3 -1.55874 -2.683901 -2.12132 -2.12132 
C -2.683901 -1.55874 -3 -0.795609 -3 0 
C -3 0.795609 -2.683901 1.55874 -2.12132 2.12132 
C -1.55874 2.683901 -0.795609 3 0 3 
z
"/>
    </defs>
    <g clip-path="url(#pf6ad86c144)">
     <use xlink:href="#C1_0_a2c9588f3a" x="108.43872" y="39.99573" style="fill: #dd8452"/>
    </g>
    <g clip-path="url(#pf6ad86c144)">
     <use xlink:href="#C1_0_a2c9588f3a" x="118.193965" y="62.205857" style="fill: #dd8452"/>
    </g>
    <g clip-path="url(#pf6ad86c144)">
     <use xlink:href="#C1_0_a2c9588f3a" x="120.145014" y="72.993633" style="fill: #dd8452"/>
    </g>
    <g clip-path="url(#pf6ad86c144)">
     <use xlink:href="#C1_0_a2c9588f3a" x="141.606552" y="93.300035" style="fill: #dd8452"/>
    </g>
    <g clip-path="url(#pf6ad86c144)">
     <use xlink:href="#C1_0_a2c9588f3a" x="143.557601" y="117.667717" style="fill: #dd8452"/>
    </g>
    <g clip-path="url(#pf6ad86c144)">
     <use xlink:href="#C1_0_a2c9588f3a" x="149.410748" y="130.359218" style="fill: #dd8452"/>
    </g>
    <g clip-path="url(#pf6ad86c144)">
     <use xlink:href="#C1_0_a2c9588f3a" x="159.165993" y="133.405178" style="fill: #dd8452"/>
    </g>
    <g clip-path="url(#pf6ad86c144)">
     <use xlink:href="#C1_0_a2c9588f3a" x="172.823335" y="141.215333" style="fill: #dd8452"/>
    </g>
    <g clip-path="url(#pf6ad86c144)">
     <use xlink:href="#C1_0_a2c9588f3a" x="176.725433" y="143.753633" style="fill: #dd8452"/>
    </g>
    <g clip-path="url(#pf6ad86c144)">
     <use xlink:href="#C1_0_a2c9588f3a" x="178.676482" y="149.380522" style="fill: #dd8452"/>
    </g>
    <g clip-path="url(#pf6ad86c144)">
     <use xlink:href="#C1_0_a2c9588f3a" x="180.627531" y="148.872862" style="fill: #dd8452"/>
    </g>
    <g clip-path="url(#pf6ad86c144)">
     <use xlink:href="#C1_0_a2c9588f3a" x="182.57858" y="147.974694" style="fill: #dd8452"/>
    </g>
    <g clip-path="url(#pf6ad86c144)">
     <use xlink:href="#C1_0_a2c9588f3a" x="186.480678" y="142.70284" style="fill: #dd8452"/>
    </g>
    <g clip-path="url(#pf6ad86c144)">
     <use xlink:href="#C1_0_a2c9588f3a" x="188.431727" y="148.99341" style="fill: #dd8452"/>
    </g>
    <g clip-path="url(#pf6ad86c144)">
     <use xlink:href="#C1_0_a2c9588f3a" x="190.382776" y="146.689387" style="fill: #dd8452"/>
    </g>
    <g clip-path="url(#pf6ad86c144)">
     <use xlink:href="#C1_0_a2c9588f3a" x="192.333825" y="145.927897" style="fill: #dd8452"/>
    </g>
    <g clip-path="url(#pf6ad86c144)">
     <use xlink:href="#C1_0_a2c9588f3a" x="194.284874" y="147.587555" style="fill: #dd8452"/>
    </g>
    <g clip-path="url(#pf6ad86c144)">
     <use xlink:href="#C1_0_a2c9588f3a" x="202.08907" y="139.972654" style="fill: #dd8452"/>
    </g>
    <g clip-path="url(#pf6ad86c144)">
     <use xlink:href="#C1_0_a2c9588f3a" x="204.040119" y="138.953938" style="fill: #dd8452"/>
    </g>
    <g clip-path="url(#pf6ad86c144)">
     <use xlink:href="#C1_0_a2c9588f3a" x="205.991168" y="137.371621" style="fill: #dd8452"/>
    </g>
    <g clip-path="url(#pf6ad86c144)">
     <use xlink:href="#C1_0_a2c9588f3a" x="217.697461" y="137.371621" style="fill: #dd8452"/>
    </g>
    <g clip-path="url(#pf6ad86c144)">
     <use xlink:href="#C1_0_a2c9588f3a" x="219.64851" y="138.410017" style="fill: #dd8452"/>
    </g>
    <g clip-path="url(#pf6ad86c144)">
     <use xlink:href="#C1_0_a2c9588f3a" x="227.452706" y="147.547898" style="fill: #dd8452"/>
    </g>
    <g clip-path="url(#pf6ad86c144)">
     <use xlink:href="#C1_0_a2c9588f3a" x="229.403755" y="147.352644" style="fill: #dd8452"/>
    </g>
    <g clip-path="url(#pf6ad86c144)">
     <use xlink:href="#C1_0_a2c9588f3a" x="231.354804" y="141.550815" style="fill: #dd8452"/>
    </g>
    <g clip-path="url(#pf6ad86c144)">
     <use xlink:href="#C1_0_a2c9588f3a" x="237.207951" y="141.296985" style="fill: #dd8452"/>
    </g>
    <g clip-path="url(#pf6ad86c144)">
     <use xlink:href="#C1_0_a2c9588f3a" x="239.159" y="140.004759" style="fill: #dd8452"/>
    </g>
    <g clip-path="url(#pf6ad86c144)">
     <use xlink:href="#C1_0_a2c9588f3a" x="241.110049" y="129.482351" style="fill: #dd8452"/>
    </g>
    <g clip-path="url(#pf6ad86c144)">
     <use xlink:href="#C1_0_a2c9588f3a" x="243.061098" y="125.92873" style="fill: #dd8452"/>
    </g>
    <g clip-path="url(#pf6ad86c144)">
     <use xlink:href="#C1_0_a2c9588f3a" x="246.963196" y="128.467031" style="fill: #dd8452"/>
    </g>
    <g clip-path="url(#pf6ad86c144)">
     <use xlink:href="#C1_0_a2c9588f3a" x="248.914245" y="126.436391" style="fill: #dd8452"/>
    </g>
    <g clip-path="url(#pf6ad86c144)">
     <use xlink:href="#C1_0_a2c9588f3a" x="250.865293" y="119.07532" style="fill: #dd8452"/>
    </g>
    <g clip-path="url(#pf6ad86c144)">
     <use xlink:href="#C1_0_a2c9588f3a" x="252.816342" y="125.536448" style="fill: #dd8452"/>
    </g>
    <g clip-path="url(#pf6ad86c144)">
     <use xlink:href="#C1_0_a2c9588f3a" x="254.767391" y="124.013468" style="fill: #dd8452"/>
    </g>
    <g clip-path="url(#pf6ad86c144)">
     <use xlink:href="#C1_0_a2c9588f3a" x="260.620538" y="121.475167" style="fill: #dd8452"/>
    </g>
    <g clip-path="url(#pf6ad86c144)">
     <use xlink:href="#C1_0_a2c9588f3a" x="282.082077" y="123.759638" style="fill: #dd8452"/>
    </g>
    <g clip-path="url(#pf6ad86c144)">
     <use xlink:href="#C1_0_a2c9588f3a" x="284.033126" y="131.598506" style="fill: #dd8452"/>
    </g>
    <g clip-path="url(#pf6ad86c144)">
     <use xlink:href="#C1_0_a2c9588f3a" x="287.935224" y="137.944257" style="fill: #dd8452"/>
    </g>
    <g clip-path="url(#pf6ad86c144)">
     <use xlink:href="#C1_0_a2c9588f3a" x="291.837321" y="135.405956" style="fill: #dd8452"/>
    </g>
    <g clip-path="url(#pf6ad86c144)">
     <use xlink:href="#C1_0_a2c9588f3a" x="293.78837" y="135.405956" style="fill: #dd8452"/>
    </g>
    <g clip-path="url(#pf6ad86c144)">
     <use xlink:href="#C1_0_a2c9588f3a" x="295.739419" y="130.510663" style="fill: #dd8452"/>
    </g>
    <g clip-path="url(#pf6ad86c144)">
     <use xlink:href="#C1_0_a2c9588f3a" x="297.690468" y="130.286695" style="fill: #dd8452"/>
    </g>
    <g clip-path="url(#pf6ad86c144)">
     <use xlink:href="#C1_0_a2c9588f3a" x="299.641517" y="123.940945" style="fill: #dd8452"/>
    </g>
    <g clip-path="url(#pf6ad86c144)">
     <use xlink:href="#C1_0_a2c9588f3a" x="301.592566" y="125.889997" style="fill: #dd8452"/>
    </g>
    <g clip-path="url(#pf6ad86c144)">
     <use xlink:href="#C1_0_a2c9588f3a" x="307.445713" y="129.138417" style="fill: #dd8452"/>
    </g>
   </g>
   <g id="PolyCollection_3">
    <defs>
     <path id="m2a23060e88" d="M 176.725433 -103.550231 
L 176.725433 -45.003794 
L 180.627531 -44.459936 
L 186.480678 -44.468417 
L 198.186972 -43.694509 
L 213.795363 -43.694509 
L 219.64851 -43.844379 
L 227.452706 -44.441729 
L 229.403755 -46.827201 
L 241.110049 -47.548761 
L 243.061098 -50.289281 
L 250.865293 -51.724024 
L 252.816342 -56.346534 
L 254.767391 -64.665469 
L 282.082077 -65.011097 
L 287.935224 -67.870987 
L 291.837321 -66.561206 
L 293.78837 -61.563167 
L 299.641517 -51.947141 
L 301.592566 -52.580893 
L 307.445713 -46.12802 
L 307.445713 -131.785538 
L 307.445713 -131.785538 
L 301.592566 -138.754298 
L 299.641517 -131.549328 
L 293.78837 -131.844283 
L 291.837321 -137.988774 
L 287.935224 -140.23011 
L 282.082077 -139.902073 
L 254.767391 -149.108197 
L 252.816342 -140.220322 
L 250.865293 -131.059713 
L 243.061098 -121.321344 
L 241.110049 -112.344126 
L 229.403755 -99.404728 
L 227.452706 -99.488153 
L 219.64851 -99.528357 
L 213.795363 -103.561226 
L 198.186972 -103.561226 
L 186.480678 -105.748568 
L 180.627531 -102.226356 
L 176.725433 -103.550231 
z
" style="stroke: #55a868; stroke-opacity: 0.3"/>
    </defs>
    <g clip-path="url(#pf6ad86c144)">
     <use xlink:href="#m2a23060e88" x="0" y="206.561781" style="fill: #55a868; fill-opacity: 0.3; stroke: #55a868; stroke-opacity: 0.3"/>
    </g>
   </g>
   <g id="PathCollection_3">
    <defs>
     <path id="C2_0_792b9fdb67" d="M 0 3 
C 0.795609 3 1.55874 2.683901 2.12132 2.12132 
C 2.683901 1.55874 3 0.795609 3 -0 
C 3 -0.795609 2.683901 -1.55874 2.12132 -2.12132 
C 1.55874 -2.683901 0.795609 -3 0 -3 
C -0.795609 -3 -1.55874 -2.683901 -2.12132 -2.12132 
C -2.683901 -1.55874 -3 -0.795609 -3 0 
C -3 0.795609 -2.683901 1.55874 -2.12132 2.12132 
C -1.55874 2.683901 -0.795609 3 0 3 
z
"/>
    </defs>
    <g clip-path="url(#pf6ad86c144)">
     <use xlink:href="#C2_0_792b9fdb67" x="176.725433" y="147.87349" style="fill: #55a868"/>
    </g>
    <g clip-path="url(#pf6ad86c144)">
     <use xlink:href="#C2_0_792b9fdb67" x="180.627531" y="149.171484" style="fill: #55a868"/>
    </g>
    <g clip-path="url(#pf6ad86c144)">
     <use xlink:href="#C2_0_792b9fdb67" x="186.480678" y="148.367964" style="fill: #55a868"/>
    </g>
    <g clip-path="url(#pf6ad86c144)">
     <use xlink:href="#C2_0_792b9fdb67" x="198.186972" y="150.03599" style="fill: #55a868"/>
    </g>
    <g clip-path="url(#pf6ad86c144)">
     <use xlink:href="#C2_0_792b9fdb67" x="213.795363" y="150.03599" style="fill: #55a868"/>
    </g>
    <g clip-path="url(#pf6ad86c144)">
     <use xlink:href="#C2_0_792b9fdb67" x="219.64851" y="150.312895" style="fill: #55a868"/>
    </g>
    <g clip-path="url(#pf6ad86c144)">
     <use xlink:href="#C2_0_792b9fdb67" x="227.452706" y="149.02067" style="fill: #55a868"/>
    </g>
    <g clip-path="url(#pf6ad86c144)">
     <use xlink:href="#C2_0_792b9fdb67" x="229.403755" y="145.249481" style="fill: #55a868"/>
    </g>
    <g clip-path="url(#pf6ad86c144)">
     <use xlink:href="#C2_0_792b9fdb67" x="241.110049" y="140.535495" style="fill: #55a868"/>
    </g>
    <g clip-path="url(#pf6ad86c144)">
     <use xlink:href="#C2_0_792b9fdb67" x="243.061098" y="132.159104" style="fill: #55a868"/>
    </g>
    <g clip-path="url(#pf6ad86c144)">
     <use xlink:href="#C2_0_792b9fdb67" x="250.865293" y="127.313258" style="fill: #55a868"/>
    </g>
    <g clip-path="url(#pf6ad86c144)">
     <use xlink:href="#C2_0_792b9fdb67" x="252.816342" y="118.683037" style="fill: #55a868"/>
    </g>
    <g clip-path="url(#pf6ad86c144)">
     <use xlink:href="#C2_0_792b9fdb67" x="254.767391" y="107.768346" style="fill: #55a868"/>
    </g>
    <g clip-path="url(#pf6ad86c144)">
     <use xlink:href="#C2_0_792b9fdb67" x="282.082077" y="110.008023" style="fill: #55a868"/>
    </g>
    <g clip-path="url(#pf6ad86c144)">
     <use xlink:href="#C2_0_792b9fdb67" x="287.935224" y="106.962062" style="fill: #55a868"/>
    </g>
    <g clip-path="url(#pf6ad86c144)">
     <use xlink:href="#C2_0_792b9fdb67" x="291.837321" y="110.225591" style="fill: #55a868"/>
    </g>
    <g clip-path="url(#pf6ad86c144)">
     <use xlink:href="#C2_0_792b9fdb67" x="293.78837" y="119.109642" style="fill: #55a868"/>
    </g>
    <g clip-path="url(#pf6ad86c144)">
     <use xlink:href="#C2_0_792b9fdb67" x="299.641517" y="127.993693" style="fill: #55a868"/>
    </g>
    <g clip-path="url(#pf6ad86c144)">
     <use xlink:href="#C2_0_792b9fdb67" x="301.592566" y="124.983461" style="fill: #55a868"/>
    </g>
    <g clip-path="url(#pf6ad86c144)">
     <use xlink:href="#C2_0_792b9fdb67" x="307.445713" y="136.390703" style="fill: #55a868"/>
    </g>
   </g>
   <g id="PolyCollection_4">
    <defs>
     <path id="ma11c46e2e6" d="M 291.837321 -92.516793 
L 291.837321 -45.101037 
L 291.837321 -92.516793 
L 291.837321 -92.516793 
z
" style="stroke: #c44e52; stroke-opacity: 0.3"/>
    </defs>
    <g clip-path="url(#pf6ad86c144)">
     <use xlink:href="#ma11c46e2e6" x="0" y="206.561781" style="fill: #c44e52; fill-opacity: 0.3; stroke: #c44e52; stroke-opacity: 0.3"/>
    </g>
   </g>
   <g id="PathCollection_4">
    <path d="M 291.837321 151.993328 
C 292.632931 151.993328 293.396061 151.677229 293.958642 151.114648 
C 294.521223 150.552068 294.837321 149.788937 294.837321 148.993328 
C 294.837321 148.197719 294.521223 147.434589 293.958642 146.872008 
C 293.396061 146.309427 292.632931 145.993328 291.837321 145.993328 
C 291.041712 145.993328 290.278582 146.309427 289.716001 146.872008 
C 289.15342 147.434589 288.837321 148.197719 288.837321 148.993328 
C 288.837321 149.788937 289.15342 150.552068 289.716001 151.114648 
C 290.278582 151.677229 291.041712 151.993328 291.837321 151.993328 
z
" clip-path="url(#pf6ad86c144)" style="fill: #c44e52"/>
   </g>
   <g id="line2d_1">
    <path d="M 53.809349 14.612727 
L 92.830328 14.612727 
L 102.585573 14.612727 
L 112.340818 29.842529 
L 114.291867 29.842529 
L 120.145014 29.842529 
L 122.096063 29.842529 
L 125.998161 29.842529 
L 129.900259 14.612727 
L 137.704454 22.227628 
L 139.655503 32.380829 
L 141.606552 32.380829 
L 143.557601 32.380829 
L 145.50865 42.53403 
L 147.459699 34.919129 
L 149.410748 24.765928 
L 153.312846 30.857849 
L 157.214944 30.857849 
L 159.165993 20.704648 
L 161.117042 20.704648 
L 163.068091 20.704648 
L 165.01914 14.612727 
L 166.970189 14.612727 
L 168.921238 17.151028 
L 170.872286 17.151028 
L 172.823335 26.288908 
L 174.774384 28.631955 
L 176.725433 40.054306 
L 178.676482 37.981038 
L 180.627531 37.981038 
L 182.57858 34.935077 
L 184.529629 38.059139 
L 186.480678 34.251689 
L 188.431727 35.110987 
L 190.382776 37.880042 
L 192.333825 31.788122 
L 194.284874 29.090068 
L 196.235923 21.475167 
L 198.186972 23.958287 
L 200.138021 24.996683 
L 202.08907 40.226484 
L 204.040119 37.457429 
L 205.991168 37.457429 
L 207.942217 33.649979 
L 209.893266 34.193901 
L 211.844314 18.964099 
L 213.795363 21.307145 
L 215.746412 28.559432 
L 217.697461 28.559432 
L 219.64851 24.20806 
L 221.599559 24.20806 
L 223.550608 29.479914 
L 225.501657 27.765738 
L 227.452706 33.857658 
L 229.403755 33.857658 
L 231.354804 36.395958 
L 233.305853 38.934259 
L 237.207951 41.51871 
L 239.159 47.61063 
L 241.110049 47.61063 
L 243.061098 61.686659 
L 245.012147 57.625379 
L 246.963196 64.732619 
L 248.914245 70.82454 
L 250.865293 89.861792 
L 252.816342 73.247463 
L 254.767391 67.155542 
L 256.71844 62.078942 
L 258.669489 43.80318 
L 260.620538 24.765928 
L 262.571587 24.765928 
L 264.522636 24.765928 
L 266.473685 14.612727 
L 268.424734 14.612727 
L 270.375783 34.919129 
L 274.277881 45.07233 
L 282.082077 45.07233 
L 284.033126 67.917032 
L 285.984175 67.917032 
L 287.935224 60.15282 
L 289.886273 69.036871 
L 291.837321 79.190072 
L 293.78837 66.49857 
L 295.739419 79.552686 
L 297.690468 74.625397 
L 299.641517 55.588145 
L 301.592566 45.434944 
L 303.543615 55.588145 
L 305.494664 49.514356 
L 307.445713 48.45673 
" clip-path="url(#pf6ad86c144)" style="fill: none; stroke: #4c72b0; stroke-width: 1.5; stroke-linecap: round"/>
   </g>
   <g id="line2d_2">
    <path d="M 108.43872 39.99573 
L 118.193965 62.205857 
L 120.145014 72.993633 
L 141.606552 93.300035 
L 143.557601 117.667717 
L 149.410748 130.359218 
L 159.165993 133.405178 
L 172.823335 141.215333 
L 176.725433 143.753633 
L 178.676482 149.380522 
L 180.627531 148.872862 
L 182.57858 147.974694 
L 186.480678 142.70284 
L 188.431727 148.99341 
L 190.382776 146.689387 
L 192.333825 145.927897 
L 194.284874 147.587555 
L 202.08907 139.972654 
L 204.040119 138.953938 
L 205.991168 137.371621 
L 217.697461 137.371621 
L 219.64851 138.410017 
L 227.452706 147.547898 
L 229.403755 147.352644 
L 231.354804 141.550815 
L 237.207951 141.296985 
L 239.159 140.004759 
L 241.110049 129.482351 
L 243.061098 125.92873 
L 246.963196 128.467031 
L 248.914245 126.436391 
L 250.865293 119.07532 
L 252.816342 125.536448 
L 254.767391 124.013468 
L 260.620538 121.475167 
L 282.082077 123.759638 
L 284.033126 131.598506 
L 287.935224 137.944257 
L 291.837321 135.405956 
L 293.78837 135.405956 
L 295.739419 130.510663 
L 297.690468 130.286695 
L 299.641517 123.940945 
L 301.592566 125.889997 
L 307.445713 129.138417 
" clip-path="url(#pf6ad86c144)" style="fill: none; stroke: #dd8452; stroke-width: 1.5; stroke-linecap: round"/>
   </g>
   <g id="line2d_3">
    <path d="M 176.725433 147.87349 
L 180.627531 149.171484 
L 186.480678 148.367964 
L 198.186972 150.03599 
L 213.795363 150.03599 
L 219.64851 150.312895 
L 227.452706 149.02067 
L 229.403755 145.249481 
L 241.110049 140.535495 
L 243.061098 132.159104 
L 250.865293 127.313258 
L 252.816342 118.683037 
L 254.767391 107.768346 
L 282.082077 110.008023 
L 287.935224 106.962062 
L 291.837321 110.225591 
L 293.78837 119.109642 
L 299.641517 127.993693 
L 301.592566 124.983461 
L 307.445713 136.390703 
" clip-path="url(#pf6ad86c144)" style="fill: none; stroke: #55a868; stroke-width: 1.5; stroke-linecap: round"/>
   </g>
   <g id="line2d_4">
    <path d="M 291.837321 148.993328 
" clip-path="url(#pf6ad86c144)" style="fill: none; stroke: #c44e52; stroke-width: 1.5; stroke-linecap: round"/>
   </g>
   <g id="patch_3">
    <path d="M 41.127531 170.28 
L 41.127531 7.2 
" style="fill: none; stroke: #262626; stroke-width: 1.25; stroke-linejoin: miter; stroke-linecap: square"/>
   </g>
   <g id="patch_4">
    <path d="M 41.127531 170.28 
L 320.127531 170.28 
" style="fill: none; stroke: #262626; stroke-width: 1.25; stroke-linejoin: miter; stroke-linecap: square"/>
   </g>
   <g id="legend_1">
    <g id="patch_5">
     <path d="M 339.467531 79.954412 
L 440.660844 79.954412 
Q 442.200844 79.954412 442.200844 78.414412 
L 442.200844 12.59 
Q 442.200844 11.05 440.660844 11.05 
L 339.467531 11.05 
Q 337.927531 11.05 337.927531 12.59 
L 337.927531 78.414412 
Q 337.927531 79.954412 339.467531 79.954412 
z
" style="fill: #ffffff; opacity: 0.8; stroke: #cccccc; stroke-linejoin: miter"/>
    </g>
    <g id="text_17">
     <!-- Count of mobility types -->
     <g style="fill: #262626" transform="translate(341.007531 20.512687)scale(0.084 -0.084)">
      <defs>
       <path id="DejaVuSans-62" d="M 3116 1747 
Q 3116 2381 2855 2742 
Q 2594 3103 2138 3103 
Q 1681 3103 1420 2742 
Q 1159 2381 1159 1747 
Q 1159 1113 1420 752 
Q 1681 391 2138 391 
Q 2594 391 2855 752 
Q 3116 1113 3116 1747 
z
M 1159 2969 
Q 1341 3281 1617 3432 
Q 1894 3584 2278 3584 
Q 2916 3584 3314 3078 
Q 3713 2572 3713 1747 
Q 3713 922 3314 415 
Q 2916 -91 2278 -91 
Q 1894 -91 1617 61 
Q 1341 213 1159 525 
L 1159 0 
L 581 0 
L 581 4863 
L 1159 4863 
L 1159 2969 
z
" transform="scale(0.015625)"/>
       <path id="DejaVuSans-79" d="M 2059 -325 
Q 1816 -950 1584 -1140 
Q 1353 -1331 966 -1331 
L 506 -1331 
L 506 -850 
L 844 -850 
Q 1081 -850 1212 -737 
Q 1344 -625 1503 -206 
L 1606 56 
L 191 3500 
L 800 3500 
L 1894 763 
L 2988 3500 
L 3597 3500 
L 2059 -325 
z
" transform="scale(0.015625)"/>
       <path id="DejaVuSans-70" d="M 1159 525 
L 1159 -1331 
L 581 -1331 
L 581 3500 
L 1159 3500 
L 1159 2969 
Q 1341 3281 1617 3432 
Q 1894 3584 2278 3584 
Q 2916 3584 3314 3078 
Q 3713 2572 3713 1747 
Q 3713 922 3314 415 
Q 2916 -91 2278 -91 
Q 1894 -91 1617 61 
Q 1341 213 1159 525 
z
M 3116 1747 
Q 3116 2381 2855 2742 
Q 2594 3103 2138 3103 
Q 1681 3103 1420 2742 
Q 1159 2381 1159 1747 
Q 1159 1113 1420 752 
Q 1681 391 2138 391 
Q 2594 391 2855 752 
Q 3116 1113 3116 1747 
z
" transform="scale(0.015625)"/>
      </defs>
      <use xlink:href="#DejaVuSans-43"/>
      <use xlink:href="#DejaVuSans-6f" x="69.824219"/>
      <use xlink:href="#DejaVuSans-75" x="131.005859"/>
      <use xlink:href="#DejaVuSans-6e" x="194.384766"/>
      <use xlink:href="#DejaVuSans-74" x="257.763672"/>
      <use xlink:href="#DejaVuSans-20" x="296.972656"/>
      <use xlink:href="#DejaVuSans-6f" x="328.759766"/>
      <use xlink:href="#DejaVuSans-66" x="389.941406"/>
      <use xlink:href="#DejaVuSans-20" x="425.146484"/>
      <use xlink:href="#DejaVuSans-6d" x="456.933594"/>
      <use xlink:href="#DejaVuSans-6f" x="554.345703"/>
      <use xlink:href="#DejaVuSans-62" x="615.527344"/>
      <use xlink:href="#DejaVuSans-69" x="679.003906"/>
      <use xlink:href="#DejaVuSans-6c" x="706.787109"/>
      <use xlink:href="#DejaVuSans-69" x="734.570312"/>
      <use xlink:href="#DejaVuSans-74" x="762.353516"/>
      <use xlink:href="#DejaVuSans-79" x="801.5625"/>
      <use xlink:href="#DejaVuSans-20" x="860.742188"/>
      <use xlink:href="#DejaVuSans-74" x="892.529297"/>
      <use xlink:href="#DejaVuSans-79" x="931.738281"/>
      <use xlink:href="#DejaVuSans-70" x="990.917969"/>
      <use xlink:href="#DejaVuSans-65" x="1054.394531"/>
      <use xlink:href="#DejaVuSans-73" x="1115.917969"/>
     </g>
     <!--   associated with -->
     <g style="fill: #262626" transform="translate(341.007531 29.91885)scale(0.084 -0.084)">
      <defs>
       <path id="DejaVuSans-77" d="M 269 3500 
L 844 3500 
L 1563 769 
L 2278 3500 
L 2956 3500 
L 3675 769 
L 4391 3500 
L 4966 3500 
L 4050 0 
L 3372 0 
L 2619 2869 
L 1863 0 
L 1184 0 
L 269 3500 
z
" transform="scale(0.015625)"/>
       <path id="DejaVuSans-68" d="M 3513 2113 
L 3513 0 
L 2938 0 
L 2938 2094 
Q 2938 2591 2744 2837 
Q 2550 3084 2163 3084 
Q 1697 3084 1428 2787 
Q 1159 2491 1159 1978 
L 1159 0 
L 581 0 
L 581 4863 
L 1159 4863 
L 1159 2956 
Q 1366 3272 1645 3428 
Q 1925 3584 2291 3584 
Q 2894 3584 3203 3211 
Q 3513 2838 3513 2113 
z
" transform="scale(0.015625)"/>
      </defs>
      <use xlink:href="#DejaVuSans-20"/>
      <use xlink:href="#DejaVuSans-20" x="31.787109"/>
      <use xlink:href="#DejaVuSans-61" x="63.574219"/>
      <use xlink:href="#DejaVuSans-73" x="124.853516"/>
      <use xlink:href="#DejaVuSans-73" x="176.953125"/>
      <use xlink:href="#DejaVuSans-6f" x="229.052734"/>
      <use xlink:href="#DejaVuSans-63" x="290.234375"/>
      <use xlink:href="#DejaVuSans-69" x="345.214844"/>
      <use xlink:href="#DejaVuSans-61" x="372.998047"/>
      <use xlink:href="#DejaVuSans-74" x="434.277344"/>
      <use xlink:href="#DejaVuSans-65" x="473.486328"/>
      <use xlink:href="#DejaVuSans-64" x="535.009766"/>
      <use xlink:href="#DejaVuSans-20" x="598.486328"/>
      <use xlink:href="#DejaVuSans-77" x="630.273438"/>
      <use xlink:href="#DejaVuSans-69" x="712.060547"/>
      <use xlink:href="#DejaVuSans-74" x="739.84375"/>
      <use xlink:href="#DejaVuSans-68" x="779.052734"/>
     </g>
    </g>
    <g id="line2d_5">
     <path d="M 376.834625 38.671584 
L 384.534625 38.671584 
L 392.234625 38.671584 
" style="fill: none; stroke: #4c72b0; stroke-width: 1.5; stroke-linecap: round"/>
     <defs>
      <path id="m4e1b0d81e5" d="M 0 3 
C 0.795609 3 1.55874 2.683901 2.12132 2.12132 
C 2.683901 1.55874 3 0.795609 3 0 
C 3 -0.795609 2.683901 -1.55874 2.12132 -2.12132 
C 1.55874 -2.683901 0.795609 -3 0 -3 
C -0.795609 -3 -1.55874 -2.683901 -2.12132 -2.12132 
C -2.683901 -1.55874 -3 -0.795609 -3 0 
C -3 0.795609 -2.683901 1.55874 -2.12132 2.12132 
C -1.55874 2.683901 -0.795609 3 0 3 
z
" style="stroke: #4c72b0"/>
     </defs>
     <g>
      <use xlink:href="#m4e1b0d81e5" x="384.534625" y="38.671584" style="fill: #4c72b0; stroke: #4c72b0"/>
     </g>
    </g>
    <g id="text_18">
     <!-- 0 -->
     <g style="fill: #262626" transform="translate(398.394625 41.366584)scale(0.077 -0.077)">
      <use xlink:href="#DejaVuSans-30"/>
     </g>
    </g>
    <g id="line2d_6">
     <path d="M 376.834625 49.973741 
L 384.534625 49.973741 
L 392.234625 49.973741 
" style="fill: none; stroke: #dd8452; stroke-width: 1.5; stroke-linecap: round"/>
     <defs>
      <path id="m520c1aa6cd" d="M 0 3 
C 0.795609 3 1.55874 2.683901 2.12132 2.12132 
C 2.683901 1.55874 3 0.795609 3 0 
C 3 -0.795609 2.683901 -1.55874 2.12132 -2.12132 
C 1.55874 -2.683901 0.795609 -3 0 -3 
C -0.795609 -3 -1.55874 -2.683901 -2.12132 -2.12132 
C -2.683901 -1.55874 -3 -0.795609 -3 0 
C -3 0.795609 -2.683901 1.55874 -2.12132 2.12132 
C -1.55874 2.683901 -0.795609 3 0 3 
z
" style="stroke: #dd8452"/>
     </defs>
     <g>
      <use xlink:href="#m520c1aa6cd" x="384.534625" y="49.973741" style="fill: #dd8452; stroke: #dd8452"/>
     </g>
    </g>
    <g id="text_19">
     <!-- 1 -->
     <g style="fill: #262626" transform="translate(398.394625 52.668741)scale(0.077 -0.077)">
      <use xlink:href="#DejaVuSans-31"/>
     </g>
    </g>
    <g id="line2d_7">
     <path d="M 376.834625 61.275897 
L 384.534625 61.275897 
L 392.234625 61.275897 
" style="fill: none; stroke: #55a868; stroke-width: 1.5; stroke-linecap: round"/>
     <defs>
      <path id="m5c2269ac93" d="M 0 3 
C 0.795609 3 1.55874 2.683901 2.12132 2.12132 
C 2.683901 1.55874 3 0.795609 3 0 
C 3 -0.795609 2.683901 -1.55874 2.12132 -2.12132 
C 1.55874 -2.683901 0.795609 -3 0 -3 
C -0.795609 -3 -1.55874 -2.683901 -2.12132 -2.12132 
C -2.683901 -1.55874 -3 -0.795609 -3 0 
C -3 0.795609 -2.683901 1.55874 -2.12132 2.12132 
C -1.55874 2.683901 -0.795609 3 0 3 
z
" style="stroke: #55a868"/>
     </defs>
     <g>
      <use xlink:href="#m5c2269ac93" x="384.534625" y="61.275897" style="fill: #55a868; stroke: #55a868"/>
     </g>
    </g>
    <g id="text_20">
     <!-- 2 -->
     <g style="fill: #262626" transform="translate(398.394625 63.970897)scale(0.077 -0.077)">
      <use xlink:href="#DejaVuSans-32"/>
     </g>
    </g>
    <g id="line2d_8">
     <path d="M 376.834625 72.578053 
L 384.534625 72.578053 
L 392.234625 72.578053 
" style="fill: none; stroke: #c44e52; stroke-width: 1.5; stroke-linecap: round"/>
     <defs>
      <path id="m33f80ef9db" d="M 0 3 
C 0.795609 3 1.55874 2.683901 2.12132 2.12132 
C 2.683901 1.55874 3 0.795609 3 0 
C 3 -0.795609 2.683901 -1.55874 2.12132 -2.12132 
C 1.55874 -2.683901 0.795609 -3 0 -3 
C -0.795609 -3 -1.55874 -2.683901 -2.12132 -2.12132 
C -2.683901 -1.55874 -3 -0.795609 -3 0 
C -3 0.795609 -2.683901 1.55874 -2.12132 2.12132 
C -1.55874 2.683901 -0.795609 3 0 3 
z
" style="stroke: #c44e52"/>
     </defs>
     <g>
      <use xlink:href="#m33f80ef9db" x="384.534625" y="72.578053" style="fill: #c44e52; stroke: #c44e52"/>
     </g>
    </g>
    <g id="text_21">
     <!-- 3 -->
     <g style="fill: #262626" transform="translate(398.394625 75.273053)scale(0.077 -0.077)">
      <defs>
       <path id="DejaVuSans-33" d="M 2597 2516 
Q 3050 2419 3304 2112 
Q 3559 1806 3559 1356 
Q 3559 666 3084 287 
Q 2609 -91 1734 -91 
Q 1441 -91 1130 -33 
Q 819 25 488 141 
L 488 750 
Q 750 597 1062 519 
Q 1375 441 1716 441 
Q 2309 441 2620 675 
Q 2931 909 2931 1356 
Q 2931 1769 2642 2001 
Q 2353 2234 1838 2234 
L 1294 2234 
L 1294 2753 
L 1863 2753 
Q 2328 2753 2575 2939 
Q 2822 3125 2822 3475 
Q 2822 3834 2567 4026 
Q 2313 4219 1838 4219 
Q 1578 4219 1281 4162 
Q 984 4106 628 3988 
L 628 4550 
Q 988 4650 1302 4700 
Q 1616 4750 1894 4750 
Q 2613 4750 3031 4423 
Q 3450 4097 3450 3541 
Q 3450 3153 3228 2886 
Q 3006 2619 2597 2516 
z
" transform="scale(0.015625)"/>
      </defs>
      <use xlink:href="#DejaVuSans-33"/>
     </g>
    </g>
   </g>
  </g>
 </g>
 <defs>
  <clipPath id="pf6ad86c144">
   <rect x="41.127531" y="7.2" width="279" height="163.08"/>
  </clipPath>
 </defs>
</svg>
