<?xml version="1.0" encoding="utf-8" standalone="no"?>
<!DOCTYPE svg PUBLIC "-//W3C//DTD SVG 1.1//EN"
  "http://www.w3.org/Graphics/SVG/1.1/DTD/svg11.dtd">
<svg xmlns:xlink="http://www.w3.org/1999/xlink" width="249.958946pt" height="163.073781pt" viewBox="0 0 249.958946 163.073781" xmlns="http://www.w3.org/2000/svg" version="1.1">
 <metadata>
  <rdf:RDF xmlns:dc="http://purl.org/dc/elements/1.1/" xmlns:cc="http://creativecommons.org/ns#" xmlns:rdf="http://www.w3.org/1999/02/22-rdf-syntax-ns#">
   <cc:Work>
    <dc:type rdf:resource="http://purl.org/dc/dcmitype/StillImage"/>
    <dc:date>2024-12-11T11:16:56.085541</dc:date>
    <dc:format>image/svg+xml</dc:format>
    <dc:creator>
     <cc:Agent>
      <dc:title>Matplotlib v3.5.2, https://matplotlib.org/</dc:title>
     </cc:Agent>
    </dc:creator>
   </cc:Work>
  </rdf:RDF>
 </metadata>
 <defs>
  <style type="text/css">*{stroke-linejoin: round; stroke-linecap: butt}</style>
 </defs>
 <g id="figure_1">
  <g id="patch_1">
   <path d="M 0 163.073781 
L 249.958946 163.073781 
L 249.958946 -0 
L 0 -0 
z
" style="fill: #ffffff"/>
  </g>
  <g id="axes_1">
   <g id="patch_2">
    <path d="M 41.075031 126.792 
L 236.375031 126.792 
L 236.375031 7.2 
L 41.075031 7.2 
z
" style="fill: #ffffff"/>
   </g>
   <g id="matplotlib.axis_1">
    <g id="xtick_1">
     <g id="text_1">
      <!-- 1880 -->
      <g style="fill: #262626" transform="translate(31.959648 142.142797)scale(0.077 -0.077)">
       <defs>
        <path id="DejaVuSans-31" d="M 794 531 
L 1825 531 
L 1825 4091 
L 703 3866 
L 703 4441 
L 1819 4666 
L 2450 4666 
L 2450 531 
L 3481 531 
L 3481 0 
L 794 0 
L 794 531 
z
" transform="scale(0.015625)"/>
        <path id="DejaVuSans-38" d="M 2034 2216 
Q 1584 2216 1326 1975 
Q 1069 1734 1069 1313 
Q 1069 891 1326 650 
Q 1584 409 2034 409 
Q 2484 409 2743 651 
Q 3003 894 3003 1313 
Q 3003 1734 2745 1975 
Q 2488 2216 2034 2216 
z
M 1403 2484 
Q 997 2584 770 2862 
Q 544 3141 544 3541 
Q 544 4100 942 4425 
Q 1341 4750 2034 4750 
Q 2731 4750 3128 4425 
Q 3525 4100 3525 3541 
Q 3525 3141 3298 2862 
Q 3072 2584 2669 2484 
Q 3125 2378 3379 2068 
Q 3634 1759 3634 1313 
Q 3634 634 3220 271 
Q 2806 -91 2034 -91 
Q 1263 -91 848 271 
Q 434 634 434 1313 
Q 434 1759 690 2068 
Q 947 2378 1403 2484 
z
M 1172 3481 
Q 1172 3119 1398 2916 
Q 1625 2713 2034 2713 
Q 2441 2713 2670 2916 
Q 2900 3119 2900 3481 
Q 2900 3844 2670 4047 
Q 2441 4250 2034 4250 
Q 1625 4250 1398 4047 
Q 1172 3844 1172 3481 
z
" transform="scale(0.015625)"/>
        <path id="DejaVuSans-30" d="M 2034 4250 
Q 1547 4250 1301 3770 
Q 1056 3291 1056 2328 
Q 1056 1369 1301 889 
Q 1547 409 2034 409 
Q 2525 409 2770 889 
Q 3016 1369 3016 2328 
Q 3016 3291 2770 3770 
Q 2525 4250 2034 4250 
z
M 2034 4750 
Q 2819 4750 3233 4129 
Q 3647 3509 3647 2328 
Q 3647 1150 3233 529 
Q 2819 -91 2034 -91 
Q 1250 -91 836 529 
Q 422 1150 422 2328 
Q 422 3509 836 4129 
Q 1250 4750 2034 4750 
z
" transform="scale(0.015625)"/>
       </defs>
       <use xlink:href="#DejaVuSans-31"/>
       <use xlink:href="#DejaVuSans-38" x="63.623047"/>
       <use xlink:href="#DejaVuSans-38" x="127.246094"/>
       <use xlink:href="#DejaVuSans-30" x="190.869141"/>
      </g>
     </g>
    </g>
    <g id="xtick_2">
     <g id="text_2">
      <!-- 1900 -->
      <g style="fill: #262626" transform="translate(59.274334 142.142797)scale(0.077 -0.077)">
       <defs>
        <path id="DejaVuSans-39" d="M 703 97 
L 703 672 
Q 941 559 1184 500 
Q 1428 441 1663 441 
Q 2288 441 2617 861 
Q 2947 1281 2994 2138 
Q 2813 1869 2534 1725 
Q 2256 1581 1919 1581 
Q 1219 1581 811 2004 
Q 403 2428 403 3163 
Q 403 3881 828 4315 
Q 1253 4750 1959 4750 
Q 2769 4750 3195 4129 
Q 3622 3509 3622 2328 
Q 3622 1225 3098 567 
Q 2575 -91 1691 -91 
Q 1453 -91 1209 -44 
Q 966 3 703 97 
z
M 1959 2075 
Q 2384 2075 2632 2365 
Q 2881 2656 2881 3163 
Q 2881 3666 2632 3958 
Q 2384 4250 1959 4250 
Q 1534 4250 1286 3958 
Q 1038 3666 1038 3163 
Q 1038 2656 1286 2365 
Q 1534 2075 1959 2075 
z
" transform="scale(0.015625)"/>
       </defs>
       <use xlink:href="#DejaVuSans-31"/>
       <use xlink:href="#DejaVuSans-39" x="63.623047"/>
       <use xlink:href="#DejaVuSans-30" x="127.246094"/>
       <use xlink:href="#DejaVuSans-30" x="190.869141"/>
      </g>
     </g>
    </g>
    <g id="xtick_3">
     <g id="text_3">
      <!-- 1920 -->
      <g style="fill: #262626" transform="translate(86.589019 142.142797)scale(0.077 -0.077)">
       <defs>
        <path id="DejaVuSans-32" d="M 1228 531 
L 3431 531 
L 3431 0 
L 469 0 
L 469 531 
Q 828 903 1448 1529 
Q 2069 2156 2228 2338 
Q 2531 2678 2651 2914 
Q 2772 3150 2772 3378 
Q 2772 3750 2511 3984 
Q 2250 4219 1831 4219 
Q 1534 4219 1204 4116 
Q 875 4013 500 3803 
L 500 4441 
Q 881 4594 1212 4672 
Q 1544 4750 1819 4750 
Q 2544 4750 2975 4387 
Q 3406 4025 3406 3419 
Q 3406 3131 3298 2873 
Q 3191 2616 2906 2266 
Q 2828 2175 2409 1742 
Q 1991 1309 1228 531 
z
" transform="scale(0.015625)"/>
       </defs>
       <use xlink:href="#DejaVuSans-31"/>
       <use xlink:href="#DejaVuSans-39" x="63.623047"/>
       <use xlink:href="#DejaVuSans-32" x="127.246094"/>
       <use xlink:href="#DejaVuSans-30" x="190.869141"/>
      </g>
     </g>
    </g>
    <g id="xtick_4">
     <g id="text_4">
      <!-- 1940 -->
      <g style="fill: #262626" transform="translate(113.903704 142.142797)scale(0.077 -0.077)">
       <defs>
        <path id="DejaVuSans-34" d="M 2419 4116 
L 825 1625 
L 2419 1625 
L 2419 4116 
z
M 2253 4666 
L 3047 4666 
L 3047 1625 
L 3713 1625 
L 3713 1100 
L 3047 1100 
L 3047 0 
L 2419 0 
L 2419 1100 
L 313 1100 
L 313 1709 
L 2253 4666 
z
" transform="scale(0.015625)"/>
       </defs>
       <use xlink:href="#DejaVuSans-31"/>
       <use xlink:href="#DejaVuSans-39" x="63.623047"/>
       <use xlink:href="#DejaVuSans-34" x="127.246094"/>
       <use xlink:href="#DejaVuSans-30" x="190.869141"/>
      </g>
     </g>
    </g>
    <g id="xtick_5">
     <g id="text_5">
      <!-- 1960 -->
      <g style="fill: #262626" transform="translate(141.21839 142.142797)scale(0.077 -0.077)">
       <defs>
        <path id="DejaVuSans-36" d="M 2113 2584 
Q 1688 2584 1439 2293 
Q 1191 2003 1191 1497 
Q 1191 994 1439 701 
Q 1688 409 2113 409 
Q 2538 409 2786 701 
Q 3034 994 3034 1497 
Q 3034 2003 2786 2293 
Q 2538 2584 2113 2584 
z
M 3366 4563 
L 3366 3988 
Q 3128 4100 2886 4159 
Q 2644 4219 2406 4219 
Q 1781 4219 1451 3797 
Q 1122 3375 1075 2522 
Q 1259 2794 1537 2939 
Q 1816 3084 2150 3084 
Q 2853 3084 3261 2657 
Q 3669 2231 3669 1497 
Q 3669 778 3244 343 
Q 2819 -91 2113 -91 
Q 1303 -91 875 529 
Q 447 1150 447 2328 
Q 447 3434 972 4092 
Q 1497 4750 2381 4750 
Q 2619 4750 2861 4703 
Q 3103 4656 3366 4563 
z
" transform="scale(0.015625)"/>
       </defs>
       <use xlink:href="#DejaVuSans-31"/>
       <use xlink:href="#DejaVuSans-39" x="63.623047"/>
       <use xlink:href="#DejaVuSans-36" x="127.246094"/>
       <use xlink:href="#DejaVuSans-30" x="190.869141"/>
      </g>
     </g>
    </g>
    <g id="xtick_6">
     <g id="text_6">
      <!-- 1980 -->
      <g style="fill: #262626" transform="translate(168.533075 142.142797)scale(0.077 -0.077)">
       <use xlink:href="#DejaVuSans-31"/>
       <use xlink:href="#DejaVuSans-39" x="63.623047"/>
       <use xlink:href="#DejaVuSans-38" x="127.246094"/>
       <use xlink:href="#DejaVuSans-30" x="190.869141"/>
      </g>
     </g>
    </g>
    <g id="xtick_7">
     <g id="text_7">
      <!-- 2000 -->
      <g style="fill: #262626" transform="translate(195.84776 142.142797)scale(0.077 -0.077)">
       <use xlink:href="#DejaVuSans-32"/>
       <use xlink:href="#DejaVuSans-30" x="63.623047"/>
       <use xlink:href="#DejaVuSans-30" x="127.246094"/>
       <use xlink:href="#DejaVuSans-30" x="190.869141"/>
      </g>
     </g>
    </g>
    <g id="xtick_8">
     <g id="text_8">
      <!-- 2020 -->
      <g style="fill: #262626" transform="translate(223.162446 142.142797)scale(0.077 -0.077)">
       <use xlink:href="#DejaVuSans-32"/>
       <use xlink:href="#DejaVuSans-30" x="63.623047"/>
       <use xlink:href="#DejaVuSans-32" x="127.246094"/>
       <use xlink:href="#DejaVuSans-30" x="190.869141"/>
      </g>
     </g>
    </g>
    <g id="text_9">
     <!-- Year Cultured -->
     <g style="fill: #262626" transform="translate(110.544344 154.126844)scale(0.084 -0.084)">
      <defs>
       <path id="DejaVuSans-59" d="M -13 4666 
L 666 4666 
L 1959 2747 
L 3244 4666 
L 3922 4666 
L 2272 2222 
L 2272 0 
L 1638 0 
L 1638 2222 
L -13 4666 
z
" transform="scale(0.015625)"/>
       <path id="DejaVuSans-65" d="M 3597 1894 
L 3597 1613 
L 953 1613 
Q 991 1019 1311 708 
Q 1631 397 2203 397 
Q 2534 397 2845 478 
Q 3156 559 3463 722 
L 3463 178 
Q 3153 47 2828 -22 
Q 2503 -91 2169 -91 
Q 1331 -91 842 396 
Q 353 884 353 1716 
Q 353 2575 817 3079 
Q 1281 3584 2069 3584 
Q 2775 3584 3186 3129 
Q 3597 2675 3597 1894 
z
M 3022 2063 
Q 3016 2534 2758 2815 
Q 2500 3097 2075 3097 
Q 1594 3097 1305 2825 
Q 1016 2553 972 2059 
L 3022 2063 
z
" transform="scale(0.015625)"/>
       <path id="DejaVuSans-61" d="M 2194 1759 
Q 1497 1759 1228 1600 
Q 959 1441 959 1056 
Q 959 750 1161 570 
Q 1363 391 1709 391 
Q 2188 391 2477 730 
Q 2766 1069 2766 1631 
L 2766 1759 
L 2194 1759 
z
M 3341 1997 
L 3341 0 
L 2766 0 
L 2766 531 
Q 2569 213 2275 61 
Q 1981 -91 1556 -91 
Q 1019 -91 701 211 
Q 384 513 384 1019 
Q 384 1609 779 1909 
Q 1175 2209 1959 2209 
L 2766 2209 
L 2766 2266 
Q 2766 2663 2505 2880 
Q 2244 3097 1772 3097 
Q 1472 3097 1187 3025 
Q 903 2953 641 2809 
L 641 3341 
Q 956 3463 1253 3523 
Q 1550 3584 1831 3584 
Q 2591 3584 2966 3190 
Q 3341 2797 3341 1997 
z
" transform="scale(0.015625)"/>
       <path id="DejaVuSans-72" d="M 2631 2963 
Q 2534 3019 2420 3045 
Q 2306 3072 2169 3072 
Q 1681 3072 1420 2755 
Q 1159 2438 1159 1844 
L 1159 0 
L 581 0 
L 581 3500 
L 1159 3500 
L 1159 2956 
Q 1341 3275 1631 3429 
Q 1922 3584 2338 3584 
Q 2397 3584 2469 3576 
Q 2541 3569 2628 3553 
L 2631 2963 
z
" transform="scale(0.015625)"/>
       <path id="DejaVuSans-20" transform="scale(0.015625)"/>
       <path id="DejaVuSans-43" d="M 4122 4306 
L 4122 3641 
Q 3803 3938 3442 4084 
Q 3081 4231 2675 4231 
Q 1875 4231 1450 3742 
Q 1025 3253 1025 2328 
Q 1025 1406 1450 917 
Q 1875 428 2675 428 
Q 3081 428 3442 575 
Q 3803 722 4122 1019 
L 4122 359 
Q 3791 134 3420 21 
Q 3050 -91 2638 -91 
Q 1578 -91 968 557 
Q 359 1206 359 2328 
Q 359 3453 968 4101 
Q 1578 4750 2638 4750 
Q 3056 4750 3426 4639 
Q 3797 4528 4122 4306 
z
" transform="scale(0.015625)"/>
       <path id="DejaVuSans-75" d="M 544 1381 
L 544 3500 
L 1119 3500 
L 1119 1403 
Q 1119 906 1312 657 
Q 1506 409 1894 409 
Q 2359 409 2629 706 
Q 2900 1003 2900 1516 
L 2900 3500 
L 3475 3500 
L 3475 0 
L 2900 0 
L 2900 538 
Q 2691 219 2414 64 
Q 2138 -91 1772 -91 
Q 1169 -91 856 284 
Q 544 659 544 1381 
z
M 1991 3584 
L 1991 3584 
z
" transform="scale(0.015625)"/>
       <path id="DejaVuSans-6c" d="M 603 4863 
L 1178 4863 
L 1178 0 
L 603 0 
L 603 4863 
z
" transform="scale(0.015625)"/>
       <path id="DejaVuSans-74" d="M 1172 4494 
L 1172 3500 
L 2356 3500 
L 2356 3053 
L 1172 3053 
L 1172 1153 
Q 1172 725 1289 603 
Q 1406 481 1766 481 
L 2356 481 
L 2356 0 
L 1766 0 
Q 1100 0 847 248 
Q 594 497 594 1153 
L 594 3053 
L 172 3053 
L 172 3500 
L 594 3500 
L 594 4494 
L 1172 4494 
z
" transform="scale(0.015625)"/>
       <path id="DejaVuSans-64" d="M 2906 2969 
L 2906 4863 
L 3481 4863 
L 3481 0 
L 2906 0 
L 2906 525 
Q 2725 213 2448 61 
Q 2172 -91 1784 -91 
Q 1150 -91 751 415 
Q 353 922 353 1747 
Q 353 2572 751 3078 
Q 1150 3584 1784 3584 
Q 2172 3584 2448 3432 
Q 2725 3281 2906 2969 
z
M 947 1747 
Q 947 1113 1208 752 
Q 1469 391 1925 391 
Q 2381 391 2643 752 
Q 2906 1113 2906 1747 
Q 2906 2381 2643 2742 
Q 2381 3103 1925 3103 
Q 1469 3103 1208 2742 
Q 947 2381 947 1747 
z
" transform="scale(0.015625)"/>
      </defs>
      <use xlink:href="#DejaVuSans-59"/>
      <use xlink:href="#DejaVuSans-65" x="47.833984"/>
      <use xlink:href="#DejaVuSans-61" x="109.357422"/>
      <use xlink:href="#DejaVuSans-72" x="170.636719"/>
      <use xlink:href="#DejaVuSans-20" x="211.75"/>
      <use xlink:href="#DejaVuSans-43" x="243.537109"/>
      <use xlink:href="#DejaVuSans-75" x="313.361328"/>
      <use xlink:href="#DejaVuSans-6c" x="376.740234"/>
      <use xlink:href="#DejaVuSans-74" x="404.523438"/>
      <use xlink:href="#DejaVuSans-75" x="443.732422"/>
      <use xlink:href="#DejaVuSans-72" x="507.111328"/>
      <use xlink:href="#DejaVuSans-65" x="545.974609"/>
      <use xlink:href="#DejaVuSans-64" x="607.498047"/>
     </g>
    </g>
   </g>
   <g id="matplotlib.axis_2">
    <g id="ytick_1">
     <g id="text_10">
      <!-- 0.0 -->
      <g style="fill: #262626" transform="translate(19.329625 124.281398)scale(0.077 -0.077)">
       <defs>
        <path id="DejaVuSans-2e" d="M 684 794 
L 1344 794 
L 1344 0 
L 684 0 
L 684 794 
z
" transform="scale(0.015625)"/>
       </defs>
       <use xlink:href="#DejaVuSans-30"/>
       <use xlink:href="#DejaVuSans-2e" x="63.623047"/>
       <use xlink:href="#DejaVuSans-30" x="95.410156"/>
      </g>
     </g>
    </g>
    <g id="ytick_2">
     <g id="text_11">
      <!-- 0.2 -->
      <g style="fill: #262626" transform="translate(19.329625 102.537398)scale(0.077 -0.077)">
       <use xlink:href="#DejaVuSans-30"/>
       <use xlink:href="#DejaVuSans-2e" x="63.623047"/>
       <use xlink:href="#DejaVuSans-32" x="95.410156"/>
      </g>
     </g>
    </g>
    <g id="ytick_3">
     <g id="text_12">
      <!-- 0.4 -->
      <g style="fill: #262626" transform="translate(19.329625 80.793398)scale(0.077 -0.077)">
       <use xlink:href="#DejaVuSans-30"/>
       <use xlink:href="#DejaVuSans-2e" x="63.623047"/>
       <use xlink:href="#DejaVuSans-34" x="95.410156"/>
      </g>
     </g>
    </g>
    <g id="ytick_4">
     <g id="text_13">
      <!-- 0.6 -->
      <g style="fill: #262626" transform="translate(19.329625 59.049398)scale(0.077 -0.077)">
       <use xlink:href="#DejaVuSans-30"/>
       <use xlink:href="#DejaVuSans-2e" x="63.623047"/>
       <use xlink:href="#DejaVuSans-36" x="95.410156"/>
      </g>
     </g>
    </g>
    <g id="ytick_5">
     <g id="text_14">
      <!-- 0.8 -->
      <g style="fill: #262626" transform="translate(19.329625 37.305398)scale(0.077 -0.077)">
       <use xlink:href="#DejaVuSans-30"/>
       <use xlink:href="#DejaVuSans-2e" x="63.623047"/>
       <use xlink:href="#DejaVuSans-38" x="95.410156"/>
      </g>
     </g>
    </g>
    <g id="ytick_6">
     <g id="text_15">
      <!-- 1.0 -->
      <g style="fill: #262626" transform="translate(19.329625 15.561398)scale(0.077 -0.077)">
       <use xlink:href="#DejaVuSans-31"/>
       <use xlink:href="#DejaVuSans-2e" x="63.623047"/>
       <use xlink:href="#DejaVuSans-30" x="95.410156"/>
      </g>
     </g>
    </g>
    <g id="text_16">
     <!-- Fraction of isolates -->
     <g style="fill: #262626" transform="translate(13.582687 106.563937)rotate(-90)scale(0.084 -0.084)">
      <defs>
       <path id="DejaVuSans-46" d="M 628 4666 
L 3309 4666 
L 3309 4134 
L 1259 4134 
L 1259 2759 
L 3109 2759 
L 3109 2228 
L 1259 2228 
L 1259 0 
L 628 0 
L 628 4666 
z
" transform="scale(0.015625)"/>
       <path id="DejaVuSans-63" d="M 3122 3366 
L 3122 2828 
Q 2878 2963 2633 3030 
Q 2388 3097 2138 3097 
Q 1578 3097 1268 2742 
Q 959 2388 959 1747 
Q 959 1106 1268 751 
Q 1578 397 2138 397 
Q 2388 397 2633 464 
Q 2878 531 3122 666 
L 3122 134 
Q 2881 22 2623 -34 
Q 2366 -91 2075 -91 
Q 1284 -91 818 406 
Q 353 903 353 1747 
Q 353 2603 823 3093 
Q 1294 3584 2113 3584 
Q 2378 3584 2631 3529 
Q 2884 3475 3122 3366 
z
" transform="scale(0.015625)"/>
       <path id="DejaVuSans-69" d="M 603 3500 
L 1178 3500 
L 1178 0 
L 603 0 
L 603 3500 
z
M 603 4863 
L 1178 4863 
L 1178 4134 
L 603 4134 
L 603 4863 
z
" transform="scale(0.015625)"/>
       <path id="DejaVuSans-6f" d="M 1959 3097 
Q 1497 3097 1228 2736 
Q 959 2375 959 1747 
Q 959 1119 1226 758 
Q 1494 397 1959 397 
Q 2419 397 2687 759 
Q 2956 1122 2956 1747 
Q 2956 2369 2687 2733 
Q 2419 3097 1959 3097 
z
M 1959 3584 
Q 2709 3584 3137 3096 
Q 3566 2609 3566 1747 
Q 3566 888 3137 398 
Q 2709 -91 1959 -91 
Q 1206 -91 779 398 
Q 353 888 353 1747 
Q 353 2609 779 3096 
Q 1206 3584 1959 3584 
z
" transform="scale(0.015625)"/>
       <path id="DejaVuSans-6e" d="M 3513 2113 
L 3513 0 
L 2938 0 
L 2938 2094 
Q 2938 2591 2744 2837 
Q 2550 3084 2163 3084 
Q 1697 3084 1428 2787 
Q 1159 2491 1159 1978 
L 1159 0 
L 581 0 
L 581 3500 
L 1159 3500 
L 1159 2956 
Q 1366 3272 1645 3428 
Q 1925 3584 2291 3584 
Q 2894 3584 3203 3211 
Q 3513 2838 3513 2113 
z
" transform="scale(0.015625)"/>
       <path id="DejaVuSans-66" d="M 2375 4863 
L 2375 4384 
L 1825 4384 
Q 1516 4384 1395 4259 
Q 1275 4134 1275 3809 
L 1275 3500 
L 2222 3500 
L 2222 3053 
L 1275 3053 
L 1275 0 
L 697 0 
L 697 3053 
L 147 3053 
L 147 3500 
L 697 3500 
L 697 3744 
Q 697 4328 969 4595 
Q 1241 4863 1831 4863 
L 2375 4863 
z
" transform="scale(0.015625)"/>
       <path id="DejaVuSans-73" d="M 2834 3397 
L 2834 2853 
Q 2591 2978 2328 3040 
Q 2066 3103 1784 3103 
Q 1356 3103 1142 2972 
Q 928 2841 928 2578 
Q 928 2378 1081 2264 
Q 1234 2150 1697 2047 
L 1894 2003 
Q 2506 1872 2764 1633 
Q 3022 1394 3022 966 
Q 3022 478 2636 193 
Q 2250 -91 1575 -91 
Q 1294 -91 989 -36 
Q 684 19 347 128 
L 347 722 
Q 666 556 975 473 
Q 1284 391 1588 391 
Q 1994 391 2212 530 
Q 2431 669 2431 922 
Q 2431 1156 2273 1281 
Q 2116 1406 1581 1522 
L 1381 1569 
Q 847 1681 609 1914 
Q 372 2147 372 2553 
Q 372 3047 722 3315 
Q 1072 3584 1716 3584 
Q 2034 3584 2315 3537 
Q 2597 3491 2834 3397 
z
" transform="scale(0.015625)"/>
      </defs>
      <use xlink:href="#DejaVuSans-46"/>
      <use xlink:href="#DejaVuSans-72" x="50.269531"/>
      <use xlink:href="#DejaVuSans-61" x="91.382812"/>
      <use xlink:href="#DejaVuSans-63" x="152.662109"/>
      <use xlink:href="#DejaVuSans-74" x="207.642578"/>
      <use xlink:href="#DejaVuSans-69" x="246.851562"/>
      <use xlink:href="#DejaVuSans-6f" x="274.634766"/>
      <use xlink:href="#DejaVuSans-6e" x="335.816406"/>
      <use xlink:href="#DejaVuSans-20" x="399.195312"/>
      <use xlink:href="#DejaVuSans-6f" x="430.982422"/>
      <use xlink:href="#DejaVuSans-66" x="492.164062"/>
      <use xlink:href="#DejaVuSans-20" x="527.369141"/>
      <use xlink:href="#DejaVuSans-69" x="559.15625"/>
      <use xlink:href="#DejaVuSans-73" x="586.939453"/>
      <use xlink:href="#DejaVuSans-6f" x="639.039062"/>
      <use xlink:href="#DejaVuSans-6c" x="700.220703"/>
      <use xlink:href="#DejaVuSans-61" x="728.003906"/>
      <use xlink:href="#DejaVuSans-74" x="789.283203"/>
      <use xlink:href="#DejaVuSans-65" x="828.492188"/>
      <use xlink:href="#DejaVuSans-73" x="890.015625"/>
     </g>
    </g>
   </g>
   <g id="PathCollection_1">
    <defs>
     <path id="C0_0_cea5ebed22" d="M 0 3 
C 0.795609 3 1.55874 2.683901 2.12132 2.12132 
C 2.683901 1.55874 3 0.795609 3 -0 
C 3 -0.795609 2.683901 -1.55874 2.12132 -2.12132 
C 1.55874 -2.683901 0.795609 -3 0 -3 
C -0.795609 -3 -1.55874 -2.683901 -2.12132 -2.12132 
C -2.683901 -1.55874 -3 -0.795609 -3 0 
C -3 0.795609 -2.683901 1.55874 -2.12132 2.12132 
C -1.55874 2.683901 -0.795609 3 0 3 
z
"/>
    </defs>
    <g clip-path="url(#p5776455002)">
     <use xlink:href="#C0_0_cea5ebed22" x="49.952304" y="121.356" style="fill: #4c72b0"/>
    </g>
    <g clip-path="url(#p5776455002)">
     <use xlink:href="#C0_0_cea5ebed22" x="70.438318" y="121.356" style="fill: #4c72b0"/>
    </g>
    <g clip-path="url(#p5776455002)">
     <use xlink:href="#C0_0_cea5ebed22" x="74.535521" y="121.356" style="fill: #4c72b0"/>
    </g>
    <g clip-path="url(#p5776455002)">
     <use xlink:href="#C0_0_cea5ebed22" x="75.901255" y="121.356" style="fill: #4c72b0"/>
    </g>
    <g clip-path="url(#p5776455002)">
     <use xlink:href="#C0_0_cea5ebed22" x="77.266989" y="90.293143" style="fill: #4c72b0"/>
    </g>
    <g clip-path="url(#p5776455002)">
     <use xlink:href="#C0_0_cea5ebed22" x="84.095661" y="76.056" style="fill: #4c72b0"/>
    </g>
    <g clip-path="url(#p5776455002)">
     <use xlink:href="#C0_0_cea5ebed22" x="85.461395" y="70.62" style="fill: #4c72b0"/>
    </g>
    <g clip-path="url(#p5776455002)">
     <use xlink:href="#C0_0_cea5ebed22" x="88.192863" y="79.540615" style="fill: #4c72b0"/>
    </g>
    <g clip-path="url(#p5776455002)">
     <use xlink:href="#C0_0_cea5ebed22" x="90.924332" y="85.812923" style="fill: #4c72b0"/>
    </g>
    <g clip-path="url(#p5776455002)">
     <use xlink:href="#C0_0_cea5ebed22" x="92.290066" y="88.351714" style="fill: #4c72b0"/>
    </g>
    <g clip-path="url(#p5776455002)">
     <use xlink:href="#C0_0_cea5ebed22" x="93.6558" y="88.351714" style="fill: #4c72b0"/>
    </g>
    <g clip-path="url(#p5776455002)">
     <use xlink:href="#C0_0_cea5ebed22" x="95.021535" y="91.056984" style="fill: #4c72b0"/>
    </g>
    <g clip-path="url(#p5776455002)">
     <use xlink:href="#C0_0_cea5ebed22" x="96.387269" y="92.018857" style="fill: #4c72b0"/>
    </g>
    <g clip-path="url(#p5776455002)">
     <use xlink:href="#C0_0_cea5ebed22" x="97.753003" y="93.770328" style="fill: #4c72b0"/>
    </g>
    <g clip-path="url(#p5776455002)">
     <use xlink:href="#C0_0_cea5ebed22" x="99.118738" y="97.015701" style="fill: #4c72b0"/>
    </g>
    <g clip-path="url(#p5776455002)">
     <use xlink:href="#C0_0_cea5ebed22" x="100.484472" y="97.015701" style="fill: #4c72b0"/>
    </g>
    <g clip-path="url(#p5776455002)">
     <use xlink:href="#C0_0_cea5ebed22" x="101.850206" y="94.569913" style="fill: #4c72b0"/>
    </g>
    <g clip-path="url(#p5776455002)">
     <use xlink:href="#C0_0_cea5ebed22" x="103.21594" y="91.156" style="fill: #4c72b0"/>
    </g>
    <g clip-path="url(#p5776455002)">
     <use xlink:href="#C0_0_cea5ebed22" x="104.581675" y="89.576308" style="fill: #4c72b0"/>
    </g>
    <g clip-path="url(#p5776455002)">
     <use xlink:href="#C0_0_cea5ebed22" x="105.947409" y="92.613931" style="fill: #4c72b0"/>
    </g>
    <g clip-path="url(#p5776455002)">
     <use xlink:href="#C0_0_cea5ebed22" x="107.313143" y="93.597702" style="fill: #4c72b0"/>
    </g>
    <g clip-path="url(#p5776455002)">
     <use xlink:href="#C0_0_cea5ebed22" x="108.678877" y="89.560528" style="fill: #4c72b0"/>
    </g>
    <g clip-path="url(#p5776455002)">
     <use xlink:href="#C0_0_cea5ebed22" x="110.044612" y="88.383541" style="fill: #4c72b0"/>
    </g>
    <g clip-path="url(#p5776455002)">
     <use xlink:href="#C0_0_cea5ebed22" x="111.410346" y="87.161806" style="fill: #4c72b0"/>
    </g>
    <g clip-path="url(#p5776455002)">
     <use xlink:href="#C0_0_cea5ebed22" x="112.77608" y="87.532" style="fill: #4c72b0"/>
    </g>
    <g clip-path="url(#p5776455002)">
     <use xlink:href="#C0_0_cea5ebed22" x="114.141814" y="85.356" style="fill: #4c72b0"/>
    </g>
    <g clip-path="url(#p5776455002)">
     <use xlink:href="#C0_0_cea5ebed22" x="115.507549" y="84.432226" style="fill: #4c72b0"/>
    </g>
    <g clip-path="url(#p5776455002)">
     <use xlink:href="#C0_0_cea5ebed22" x="116.873283" y="81.705176" style="fill: #4c72b0"/>
    </g>
    <g clip-path="url(#p5776455002)">
     <use xlink:href="#C0_0_cea5ebed22" x="118.239017" y="82.798326" style="fill: #4c72b0"/>
    </g>
    <g clip-path="url(#p5776455002)">
     <use xlink:href="#C0_0_cea5ebed22" x="119.604752" y="85.730237" style="fill: #4c72b0"/>
    </g>
    <g clip-path="url(#p5776455002)">
     <use xlink:href="#C0_0_cea5ebed22" x="120.970486" y="82.822329" style="fill: #4c72b0"/>
    </g>
    <g clip-path="url(#p5776455002)">
     <use xlink:href="#C0_0_cea5ebed22" x="122.33622" y="83.304" style="fill: #4c72b0"/>
    </g>
    <g clip-path="url(#p5776455002)">
     <use xlink:href="#C0_0_cea5ebed22" x="123.701954" y="84.882194" style="fill: #4c72b0"/>
    </g>
    <g clip-path="url(#p5776455002)">
     <use xlink:href="#C0_0_cea5ebed22" x="125.067689" y="83.447053" style="fill: #4c72b0"/>
    </g>
    <g clip-path="url(#p5776455002)">
     <use xlink:href="#C0_0_cea5ebed22" x="126.433423" y="81.58039" style="fill: #4c72b0"/>
    </g>
    <g clip-path="url(#p5776455002)">
     <use xlink:href="#C0_0_cea5ebed22" x="127.799157" y="84.000923" style="fill: #4c72b0"/>
    </g>
    <g clip-path="url(#p5776455002)">
     <use xlink:href="#C0_0_cea5ebed22" x="129.164891" y="84.080571" style="fill: #4c72b0"/>
    </g>
    <g clip-path="url(#p5776455002)">
     <use xlink:href="#C0_0_cea5ebed22" x="130.530626" y="83.144787" style="fill: #4c72b0"/>
    </g>
    <g clip-path="url(#p5776455002)">
     <use xlink:href="#C0_0_cea5ebed22" x="131.89636" y="84.432226" style="fill: #4c72b0"/>
    </g>
    <g clip-path="url(#p5776455002)">
     <use xlink:href="#C0_0_cea5ebed22" x="133.262094" y="73.924235" style="fill: #4c72b0"/>
    </g>
    <g clip-path="url(#p5776455002)">
     <use xlink:href="#C0_0_cea5ebed22" x="134.627828" y="72.584411" style="fill: #4c72b0"/>
    </g>
    <g clip-path="url(#p5776455002)">
     <use xlink:href="#C0_0_cea5ebed22" x="135.993563" y="70.603965" style="fill: #4c72b0"/>
    </g>
    <g clip-path="url(#p5776455002)">
     <use xlink:href="#C0_0_cea5ebed22" x="137.359297" y="66.996" style="fill: #4c72b0"/>
    </g>
    <g clip-path="url(#p5776455002)">
     <use xlink:href="#C0_0_cea5ebed22" x="138.725031" y="67.86576" style="fill: #4c72b0"/>
    </g>
    <g clip-path="url(#p5776455002)">
     <use xlink:href="#C0_0_cea5ebed22" x="140.090766" y="68.922142" style="fill: #4c72b0"/>
    </g>
    <g clip-path="url(#p5776455002)">
     <use xlink:href="#C0_0_cea5ebed22" x="141.4565" y="69.462036" style="fill: #4c72b0"/>
    </g>
    <g clip-path="url(#p5776455002)">
     <use xlink:href="#C0_0_cea5ebed22" x="142.822234" y="66.996" style="fill: #4c72b0"/>
    </g>
    <g clip-path="url(#p5776455002)">
     <use xlink:href="#C0_0_cea5ebed22" x="144.187968" y="66.76169" style="fill: #4c72b0"/>
    </g>
    <g clip-path="url(#p5776455002)">
     <use xlink:href="#C0_0_cea5ebed22" x="145.553703" y="67.862788" style="fill: #4c72b0"/>
    </g>
    <g clip-path="url(#p5776455002)">
     <use xlink:href="#C0_0_cea5ebed22" x="146.919437" y="67.518692" style="fill: #4c72b0"/>
    </g>
    <g clip-path="url(#p5776455002)">
     <use xlink:href="#C0_0_cea5ebed22" x="148.285171" y="77.322452" style="fill: #4c72b0"/>
    </g>
    <g clip-path="url(#p5776455002)">
     <use xlink:href="#C0_0_cea5ebed22" x="149.650905" y="78.720706" style="fill: #4c72b0"/>
    </g>
    <g clip-path="url(#p5776455002)">
     <use xlink:href="#C0_0_cea5ebed22" x="151.01664" y="84.054577" style="fill: #4c72b0"/>
    </g>
    <g clip-path="url(#p5776455002)">
     <use xlink:href="#C0_0_cea5ebed22" x="152.382374" y="94.176" style="fill: #4c72b0"/>
    </g>
    <g clip-path="url(#p5776455002)">
     <use xlink:href="#C0_0_cea5ebed22" x="153.748108" y="93.15034" style="fill: #4c72b0"/>
    </g>
    <g clip-path="url(#p5776455002)">
     <use xlink:href="#C0_0_cea5ebed22" x="155.113842" y="93.38435" style="fill: #4c72b0"/>
    </g>
    <g clip-path="url(#p5776455002)">
     <use xlink:href="#C0_0_cea5ebed22" x="156.479577" y="95.495417" style="fill: #4c72b0"/>
    </g>
    <g clip-path="url(#p5776455002)">
     <use xlink:href="#C0_0_cea5ebed22" x="157.845311" y="94.679333" style="fill: #4c72b0"/>
    </g>
    <g clip-path="url(#p5776455002)">
     <use xlink:href="#C0_0_cea5ebed22" x="159.211045" y="92.011221" style="fill: #4c72b0"/>
    </g>
    <g clip-path="url(#p5776455002)">
     <use xlink:href="#C0_0_cea5ebed22" x="160.57678" y="92.17574" style="fill: #4c72b0"/>
    </g>
    <g clip-path="url(#p5776455002)">
     <use xlink:href="#C0_0_cea5ebed22" x="161.942514" y="92.103982" style="fill: #4c72b0"/>
    </g>
    <g clip-path="url(#p5776455002)">
     <use xlink:href="#C0_0_cea5ebed22" x="163.308248" y="89.807786" style="fill: #4c72b0"/>
    </g>
    <g clip-path="url(#p5776455002)">
     <use xlink:href="#C0_0_cea5ebed22" x="164.673982" y="89.762154" style="fill: #4c72b0"/>
    </g>
    <g clip-path="url(#p5776455002)">
     <use xlink:href="#C0_0_cea5ebed22" x="166.039717" y="87.11348" style="fill: #4c72b0"/>
    </g>
    <g clip-path="url(#p5776455002)">
     <use xlink:href="#C0_0_cea5ebed22" x="167.405451" y="88.136" style="fill: #4c72b0"/>
    </g>
    <g clip-path="url(#p5776455002)">
     <use xlink:href="#C0_0_cea5ebed22" x="168.771185" y="90.602534" style="fill: #4c72b0"/>
    </g>
    <g clip-path="url(#p5776455002)">
     <use xlink:href="#C0_0_cea5ebed22" x="170.136919" y="90.423113" style="fill: #4c72b0"/>
    </g>
    <g clip-path="url(#p5776455002)">
     <use xlink:href="#C0_0_cea5ebed22" x="171.502654" y="90.104502" style="fill: #4c72b0"/>
    </g>
    <g clip-path="url(#p5776455002)">
     <use xlink:href="#C0_0_cea5ebed22" x="172.868388" y="91.056984" style="fill: #4c72b0"/>
    </g>
    <g clip-path="url(#p5776455002)">
     <use xlink:href="#C0_0_cea5ebed22" x="174.234122" y="95.337538" style="fill: #4c72b0"/>
    </g>
    <g clip-path="url(#p5776455002)">
     <use xlink:href="#C0_0_cea5ebed22" x="175.599856" y="93.616741" style="fill: #4c72b0"/>
    </g>
    <g clip-path="url(#p5776455002)">
     <use xlink:href="#C0_0_cea5ebed22" x="176.965591" y="94.999636" style="fill: #4c72b0"/>
    </g>
    <g clip-path="url(#p5776455002)">
     <use xlink:href="#C0_0_cea5ebed22" x="178.331325" y="94.472509" style="fill: #4c72b0"/>
    </g>
    <g clip-path="url(#p5776455002)">
     <use xlink:href="#C0_0_cea5ebed22" x="179.697059" y="93.572" style="fill: #4c72b0"/>
    </g>
    <g clip-path="url(#p5776455002)">
     <use xlink:href="#C0_0_cea5ebed22" x="181.062793" y="95.367155" style="fill: #4c72b0"/>
    </g>
    <g clip-path="url(#p5776455002)">
     <use xlink:href="#C0_0_cea5ebed22" x="182.428528" y="94.910595" style="fill: #4c72b0"/>
    </g>
    <g clip-path="url(#p5776455002)">
     <use xlink:href="#C0_0_cea5ebed22" x="183.794262" y="92.393705" style="fill: #4c72b0"/>
    </g>
    <g clip-path="url(#p5776455002)">
     <use xlink:href="#C0_0_cea5ebed22" x="185.159996" y="92.068163" style="fill: #4c72b0"/>
    </g>
    <g clip-path="url(#p5776455002)">
     <use xlink:href="#C0_0_cea5ebed22" x="186.525731" y="91.920891" style="fill: #4c72b0"/>
    </g>
    <g clip-path="url(#p5776455002)">
     <use xlink:href="#C0_0_cea5ebed22" x="187.891465" y="91.530159" style="fill: #4c72b0"/>
    </g>
    <g clip-path="url(#p5776455002)">
     <use xlink:href="#C0_0_cea5ebed22" x="189.257199" y="90.745515" style="fill: #4c72b0"/>
    </g>
    <g clip-path="url(#p5776455002)">
     <use xlink:href="#C0_0_cea5ebed22" x="190.622933" y="89.851909" style="fill: #4c72b0"/>
    </g>
    <g clip-path="url(#p5776455002)">
     <use xlink:href="#C0_0_cea5ebed22" x="191.988668" y="86.595184" style="fill: #4c72b0"/>
    </g>
    <g clip-path="url(#p5776455002)">
     <use xlink:href="#C0_0_cea5ebed22" x="193.354402" y="86.045231" style="fill: #4c72b0"/>
    </g>
    <g clip-path="url(#p5776455002)">
     <use xlink:href="#C0_0_cea5ebed22" x="194.720136" y="87.578913" style="fill: #4c72b0"/>
    </g>
    <g clip-path="url(#p5776455002)">
     <use xlink:href="#C0_0_cea5ebed22" x="196.08587" y="88.609012" style="fill: #4c72b0"/>
    </g>
    <g clip-path="url(#p5776455002)">
     <use xlink:href="#C0_0_cea5ebed22" x="197.451605" y="88.567429" style="fill: #4c72b0"/>
    </g>
    <g clip-path="url(#p5776455002)">
     <use xlink:href="#C0_0_cea5ebed22" x="198.817339" y="89.994462" style="fill: #4c72b0"/>
    </g>
    <g clip-path="url(#p5776455002)">
     <use xlink:href="#C0_0_cea5ebed22" x="200.183073" y="88.487163" style="fill: #4c72b0"/>
    </g>
    <g clip-path="url(#p5776455002)">
     <use xlink:href="#C0_0_cea5ebed22" x="201.548807" y="89.033838" style="fill: #4c72b0"/>
    </g>
    <g clip-path="url(#p5776455002)">
     <use xlink:href="#C0_0_cea5ebed22" x="204.280276" y="76.056" style="fill: #4c72b0"/>
    </g>
    <g clip-path="url(#p5776455002)">
     <use xlink:href="#C0_0_cea5ebed22" x="205.64601" y="80.586" style="fill: #4c72b0"/>
    </g>
    <g clip-path="url(#p5776455002)">
     <use xlink:href="#C0_0_cea5ebed22" x="208.377479" y="66.996" style="fill: #4c72b0"/>
    </g>
    <g clip-path="url(#p5776455002)">
     <use xlink:href="#C0_0_cea5ebed22" x="209.743213" y="62.054182" style="fill: #4c72b0"/>
    </g>
    <g clip-path="url(#p5776455002)">
     <use xlink:href="#C0_0_cea5ebed22" x="211.108947" y="59.650054" style="fill: #4c72b0"/>
    </g>
    <g clip-path="url(#p5776455002)">
     <use xlink:href="#C0_0_cea5ebed22" x="212.474682" y="56.641714" style="fill: #4c72b0"/>
    </g>
    <g clip-path="url(#p5776455002)">
     <use xlink:href="#C0_0_cea5ebed22" x="213.840416" y="59.583273" style="fill: #4c72b0"/>
    </g>
    <g clip-path="url(#p5776455002)">
     <use xlink:href="#C0_0_cea5ebed22" x="215.20615" y="63.798353" style="fill: #4c72b0"/>
    </g>
    <g clip-path="url(#p5776455002)">
     <use xlink:href="#C0_0_cea5ebed22" x="216.571884" y="66.007636" style="fill: #4c72b0"/>
    </g>
    <g clip-path="url(#p5776455002)">
     <use xlink:href="#C0_0_cea5ebed22" x="217.937619" y="73.268308" style="fill: #4c72b0"/>
    </g>
    <g clip-path="url(#p5776455002)">
     <use xlink:href="#C0_0_cea5ebed22" x="219.303353" y="77.868" style="fill: #4c72b0"/>
    </g>
    <g clip-path="url(#p5776455002)">
     <use xlink:href="#C0_0_cea5ebed22" x="220.669087" y="76.949239" style="fill: #4c72b0"/>
    </g>
    <g clip-path="url(#p5776455002)">
     <use xlink:href="#C0_0_cea5ebed22" x="222.034821" y="83.390286" style="fill: #4c72b0"/>
    </g>
    <g clip-path="url(#p5776455002)">
     <use xlink:href="#C0_0_cea5ebed22" x="223.400556" y="84.531484" style="fill: #4c72b0"/>
    </g>
    <g clip-path="url(#p5776455002)">
     <use xlink:href="#C0_0_cea5ebed22" x="224.76629" y="88.351714" style="fill: #4c72b0"/>
    </g>
    <g clip-path="url(#p5776455002)">
     <use xlink:href="#C0_0_cea5ebed22" x="226.132024" y="92.085231" style="fill: #4c72b0"/>
    </g>
    <g clip-path="url(#p5776455002)">
     <use xlink:href="#C0_0_cea5ebed22" x="227.497759" y="97.196" style="fill: #4c72b0"/>
    </g>
   </g>
   <g id="PolyCollection_1">
    <defs>
     <path id="mf2a8031c7e" d="M 49.952304 -133.24764 
L 49.952304 -43.085383 
L 70.438318 -42.175573 
L 74.535521 -42.175573 
L 75.901255 -42.175573 
L 77.266989 -50.984358 
L 84.095661 -62.617292 
L 85.461395 -68.518361 
L 88.192863 -66.059895 
L 90.924332 -65.114286 
L 92.290066 -63.358506 
L 93.6558 -63.358506 
L 95.021535 -61.504173 
L 96.387269 -60.84884 
L 97.753003 -59.660764 
L 99.118738 -57.034009 
L 100.484472 -57.034009 
L 101.850206 -59.12058 
L 103.21594 -62.123718 
L 104.581675 -63.015991 
L 105.947409 -61.634824 
L 107.313143 -61.080348 
L 108.678877 -65.024267 
L 110.044612 -66.589527 
L 111.410346 -67.747457 
L 112.77608 -67.720208 
L 114.141814 -70.101218 
L 115.507549 -71.133431 
L 116.873283 -73.905371 
L 118.239017 -72.923753 
L 119.604752 -70.293766 
L 120.970486 -72.604331 
L 122.33622 -72.201207 
L 123.701954 -70.62902 
L 125.067689 -71.886162 
L 126.433423 -73.895328 
L 127.799157 -72.2169 
L 129.164891 -72.376334 
L 130.530626 -73.650645 
L 131.89636 -72.731179 
L 133.262094 -84.004992 
L 134.627828 -85.437336 
L 135.993563 -87.519112 
L 137.359297 -91.291049 
L 138.725031 -90.466813 
L 140.090766 -89.457999 
L 141.4565 -88.919528 
L 142.822234 -91.201649 
L 144.187968 -91.382168 
L 145.553703 -90.153936 
L 146.919437 -90.357822 
L 148.285171 -79.668237 
L 149.650905 -78.056411 
L 151.01664 -72.791704 
L 152.382374 -62.932388 
L 153.748108 -64.018849 
L 155.113842 -63.728823 
L 156.479577 -61.821242 
L 157.845311 -62.680354 
L 159.211045 -65.230846 
L 160.57678 -65.138102 
L 161.942514 -65.110027 
L 163.308248 -67.234648 
L 164.673982 -67.397498 
L 166.039717 -70.089843 
L 167.405451 -69.111863 
L 168.771185 -66.807265 
L 170.136919 -66.843277 
L 171.502654 -67.226331 
L 172.868388 -66.31254 
L 174.234122 -62.286176 
L 175.599856 -63.948361 
L 176.965591 -62.885953 
L 178.331325 -63.465464 
L 179.697059 -64.249424 
L 181.062793 -62.43008 
L 182.428528 -62.921797 
L 183.794262 -65.080694 
L 185.159996 -65.390748 
L 186.525731 -65.348918 
L 187.891465 -65.672378 
L 189.257199 -66.136014 
L 190.622933 -66.488133 
L 191.988668 -68.871602 
L 193.354402 -68.536329 
L 194.720136 -66.667776 
L 196.08587 -64.89037 
L 197.451605 -63.725044 
L 198.817339 -61.657248 
L 200.183073 -61.950447 
L 201.548807 -60.746536 
L 204.280276 -68.248034 
L 205.64601 -64.685404 
L 208.377479 -77.661263 
L 209.743213 -82.907184 
L 211.108947 -86.098857 
L 212.474682 -90.000282 
L 213.840416 -87.543618 
L 215.20615 -84.629373 
L 216.571884 -83.065715 
L 217.937619 -76.031475 
L 219.303353 -73.593162 
L 220.669087 -74.499163 
L 222.034821 -68.15743 
L 223.400556 -67.089831 
L 224.76629 -63.358506 
L 226.132024 -59.967279 
L 227.497759 -55.401432 
L 227.497759 -81.251022 
L 227.497759 -81.251022 
L 226.132024 -85.562299 
L 224.76629 -88.905133 
L 223.400556 -92.096537 
L 222.034821 -93.144846 
L 220.669087 -98.797968 
L 219.303353 -97.97886 
L 217.937619 -104.468157 
L 216.571884 -110.933779 
L 215.20615 -113.460027 
L 213.840416 -118.208398 
L 212.474682 -121.070974 
L 211.108947 -119.317605 
L 209.743213 -118.062415 
L 208.377479 -114.4943 
L 205.64601 -104.209347 
L 204.280276 -108.400813 
L 201.548807 -91.623748 
L 200.183073 -90.861597 
L 198.817339 -87.758248 
L 197.451605 -87.833631 
L 196.08587 -85.996866 
L 194.720136 -85.834619 
L 193.354402 -86.757419 
L 191.988668 -85.103438 
L 190.622933 -80.950214 
L 189.257199 -79.40564 
L 187.891465 -78.249359 
L 186.525731 -77.793677 
L 185.159996 -77.407936 
L 183.794262 -77.080357 
L 182.428528 -74.23441 
L 181.062793 -73.853134 
L 179.697059 -75.512364 
L 178.331325 -74.506887 
L 176.965591 -74.079227 
L 175.599856 -75.808582 
L 174.234122 -74.1177 
L 172.868388 -78.479816 
L 171.502654 -79.432216 
L 170.136919 -79.212103 
L 168.771185 -78.859148 
L 167.405451 -81.409456 
L 166.039717 -82.440504 
L 164.673982 -79.973993 
L 163.308248 -80.080109 
L 161.942514 -77.694911 
L 160.57678 -77.496122 
L 159.211045 -77.745123 
L 157.845311 -75.093088 
L 156.479577 -74.397529 
L 155.113842 -76.63346 
L 153.748108 -76.775537 
L 152.382374 -75.906018 
L 151.01664 -85.795802 
L 149.650905 -91.003749 
L 148.285171 -92.119676 
L 146.919437 -100.762073 
L 145.553703 -100.283326 
L 144.187968 -101.238107 
L 142.822234 -100.953913 
L 141.4565 -98.341628 
L 140.090766 -98.874641 
L 138.725031 -99.962698 
L 137.359297 -100.864513 
L 135.993563 -97.482289 
L 134.627828 -95.642404 
L 133.262094 -94.425409 
L 131.89636 -85.058728 
L 130.530626 -86.727161 
L 129.164891 -86.234904 
L 127.799157 -86.597843 
L 126.433423 -89.771796 
L 125.067689 -88.194121 
L 123.701954 -86.636023 
L 122.33622 -88.11776 
L 120.970486 -88.664359 
L 119.604752 -85.204086 
L 118.239017 -88.330603 
L 116.873283 -89.4942 
L 115.507549 -86.988137 
L 114.141814 -86.263083 
L 112.77608 -84.52258 
L 111.410346 -85.313435 
L 110.044612 -84.123793 
L 108.678877 -83.614801 
L 107.313143 -80.007749 
L 105.947409 -81.50188 
L 104.581675 -86.565516 
L 103.21594 -84.220926 
L 101.850206 -80.86951 
L 100.484472 -78.421173 
L 99.118738 -78.421173 
L 97.753003 -81.924867 
L 96.387269 -84.213834 
L 95.021535 -85.457594 
L 93.6558 -88.905133 
L 92.290066 -88.905133 
L 90.924332 -92.07267 
L 88.192863 -104.375338 
L 85.461395 -117.954757 
L 84.095661 -116.10644 
L 77.266989 -112.478823 
L 75.901255 -91.648325 
L 74.535521 -91.648325 
L 70.438318 -91.648325 
L 49.952304 -133.24764 
z
" style="stroke: #4c72b0; stroke-opacity: 0.3"/>
    </defs>
    <g clip-path="url(#p5776455002)">
     <use xlink:href="#mf2a8031c7e" x="0" y="163.073781" style="fill: #4c72b0; fill-opacity: 0.3; stroke: #4c72b0; stroke-opacity: 0.3"/>
    </g>
   </g>
   <g id="PathCollection_2">
    <defs>
     <path id="C1_0_945588c6e9" d="M 0 3 
C 0.795609 3 1.55874 2.683901 2.12132 2.12132 
C 2.683901 1.55874 3 0.795609 3 -0 
C 3 -0.795609 2.683901 -1.55874 2.12132 -2.12132 
C 1.55874 -2.683901 0.795609 -3 0 -3 
C -0.795609 -3 -1.55874 -2.683901 -2.12132 -2.12132 
C -2.683901 -1.55874 -3 -0.795609 -3 0 
C -3 0.795609 -2.683901 1.55874 -2.12132 2.12132 
C -1.55874 2.683901 -0.795609 3 0 3 
z
"/>
    </defs>
    <g clip-path="url(#p5776455002)">
     <use xlink:href="#C1_0_945588c6e9" x="49.952304" y="121.356" style="fill: #dd8452"/>
    </g>
    <g clip-path="url(#p5776455002)">
     <use xlink:href="#C1_0_945588c6e9" x="70.438318" y="121.356" style="fill: #dd8452"/>
    </g>
    <g clip-path="url(#p5776455002)">
     <use xlink:href="#C1_0_945588c6e9" x="74.535521" y="121.356" style="fill: #dd8452"/>
    </g>
    <g clip-path="url(#p5776455002)">
     <use xlink:href="#C1_0_945588c6e9" x="75.901255" y="121.356" style="fill: #dd8452"/>
    </g>
    <g clip-path="url(#p5776455002)">
     <use xlink:href="#C1_0_945588c6e9" x="77.266989" y="121.356" style="fill: #dd8452"/>
    </g>
    <g clip-path="url(#p5776455002)">
     <use xlink:href="#C1_0_945588c6e9" x="84.095661" y="112.296" style="fill: #dd8452"/>
    </g>
    <g clip-path="url(#p5776455002)">
     <use xlink:href="#C1_0_945588c6e9" x="85.461395" y="114.108" style="fill: #dd8452"/>
    </g>
    <g clip-path="url(#p5776455002)">
     <use xlink:href="#C1_0_945588c6e9" x="88.192863" y="117.174462" style="fill: #dd8452"/>
    </g>
    <g clip-path="url(#p5776455002)">
     <use xlink:href="#C1_0_945588c6e9" x="90.924332" y="119.265231" style="fill: #dd8452"/>
    </g>
    <g clip-path="url(#p5776455002)">
     <use xlink:href="#C1_0_945588c6e9" x="92.290066" y="119.414571" style="fill: #dd8452"/>
    </g>
    <g clip-path="url(#p5776455002)">
     <use xlink:href="#C1_0_945588c6e9" x="93.6558" y="119.414571" style="fill: #dd8452"/>
    </g>
    <g clip-path="url(#p5776455002)">
     <use xlink:href="#C1_0_945588c6e9" x="95.021535" y="119.573705" style="fill: #dd8452"/>
    </g>
    <g clip-path="url(#p5776455002)">
     <use xlink:href="#C1_0_945588c6e9" x="96.387269" y="119.630286" style="fill: #dd8452"/>
    </g>
    <g clip-path="url(#p5776455002)">
     <use xlink:href="#C1_0_945588c6e9" x="97.753003" y="119.733313" style="fill: #dd8452"/>
    </g>
    <g clip-path="url(#p5776455002)">
     <use xlink:href="#C1_0_945588c6e9" x="99.118738" y="121.356" style="fill: #dd8452"/>
    </g>
    <g clip-path="url(#p5776455002)">
     <use xlink:href="#C1_0_945588c6e9" x="100.484472" y="121.356" style="fill: #dd8452"/>
    </g>
    <g clip-path="url(#p5776455002)">
     <use xlink:href="#C1_0_945588c6e9" x="101.850206" y="121.356" style="fill: #dd8452"/>
    </g>
    <g clip-path="url(#p5776455002)">
     <use xlink:href="#C1_0_945588c6e9" x="103.21594" y="121.356" style="fill: #dd8452"/>
    </g>
    <g clip-path="url(#p5776455002)">
     <use xlink:href="#C1_0_945588c6e9" x="104.581675" y="119.683385" style="fill: #dd8452"/>
    </g>
    <g clip-path="url(#p5776455002)">
     <use xlink:href="#C1_0_945588c6e9" x="105.947409" y="118.85669" style="fill: #dd8452"/>
    </g>
    <g clip-path="url(#p5776455002)">
     <use xlink:href="#C1_0_945588c6e9" x="107.313143" y="119.042809" style="fill: #dd8452"/>
    </g>
    <g clip-path="url(#p5776455002)">
     <use xlink:href="#C1_0_945588c6e9" x="108.678877" y="119.304679" style="fill: #dd8452"/>
    </g>
    <g clip-path="url(#p5776455002)">
     <use xlink:href="#C1_0_945588c6e9" x="110.044612" y="119.573705" style="fill: #dd8452"/>
    </g>
    <g clip-path="url(#p5776455002)">
     <use xlink:href="#C1_0_945588c6e9" x="111.410346" y="119.602452" style="fill: #dd8452"/>
    </g>
    <g clip-path="url(#p5776455002)">
     <use xlink:href="#C1_0_945588c6e9" x="112.77608" y="119.745333" style="fill: #dd8452"/>
    </g>
    <g clip-path="url(#p5776455002)">
     <use xlink:href="#C1_0_945588c6e9" x="114.141814" y="119.916" style="fill: #dd8452"/>
    </g>
    <g clip-path="url(#p5776455002)">
     <use xlink:href="#C1_0_945588c6e9" x="115.507549" y="119.988453" style="fill: #dd8452"/>
    </g>
    <g clip-path="url(#p5776455002)">
     <use xlink:href="#C1_0_945588c6e9" x="116.873283" y="119.437412" style="fill: #dd8452"/>
    </g>
    <g clip-path="url(#p5776455002)">
     <use xlink:href="#C1_0_945588c6e9" x="118.239017" y="119.459721" style="fill: #dd8452"/>
    </g>
    <g clip-path="url(#p5776455002)">
     <use xlink:href="#C1_0_945588c6e9" x="119.604752" y="120.127525" style="fill: #dd8452"/>
    </g>
    <g clip-path="url(#p5776455002)">
     <use xlink:href="#C1_0_945588c6e9" x="120.970486" y="120.667899" style="fill: #dd8452"/>
    </g>
    <g clip-path="url(#p5776455002)">
     <use xlink:href="#C1_0_945588c6e9" x="122.33622" y="120.6765" style="fill: #dd8452"/>
    </g>
    <g clip-path="url(#p5776455002)">
     <use xlink:href="#C1_0_945588c6e9" x="123.701954" y="120.654581" style="fill: #dd8452"/>
    </g>
    <g clip-path="url(#p5776455002)">
     <use xlink:href="#C1_0_945588c6e9" x="125.067689" y="120.640737" style="fill: #dd8452"/>
    </g>
    <g clip-path="url(#p5776455002)">
     <use xlink:href="#C1_0_945588c6e9" x="126.433423" y="118.704293" style="fill: #dd8452"/>
    </g>
    <g clip-path="url(#p5776455002)">
     <use xlink:href="#C1_0_945588c6e9" x="127.799157" y="119.125846" style="fill: #dd8452"/>
    </g>
    <g clip-path="url(#p5776455002)">
     <use xlink:href="#C1_0_945588c6e9" x="129.164891" y="118.767429" style="fill: #dd8452"/>
    </g>
    <g clip-path="url(#p5776455002)">
     <use xlink:href="#C1_0_945588c6e9" x="130.530626" y="118.626628" style="fill: #dd8452"/>
    </g>
    <g clip-path="url(#p5776455002)">
     <use xlink:href="#C1_0_945588c6e9" x="131.89636" y="118.484151" style="fill: #dd8452"/>
    </g>
    <g clip-path="url(#p5776455002)">
     <use xlink:href="#C1_0_945588c6e9" x="133.262094" y="118.691294" style="fill: #dd8452"/>
    </g>
    <g clip-path="url(#p5776455002)">
     <use xlink:href="#C1_0_945588c6e9" x="134.627828" y="118.815813" style="fill: #dd8452"/>
    </g>
    <g clip-path="url(#p5776455002)">
     <use xlink:href="#C1_0_945588c6e9" x="135.993563" y="118.469628" style="fill: #dd8452"/>
    </g>
    <g clip-path="url(#p5776455002)">
     <use xlink:href="#C1_0_945588c6e9" x="137.359297" y="118.262341" style="fill: #dd8452"/>
    </g>
    <g clip-path="url(#p5776455002)">
     <use xlink:href="#C1_0_945588c6e9" x="138.725031" y="118.31184" style="fill: #dd8452"/>
    </g>
    <g clip-path="url(#p5776455002)">
     <use xlink:href="#C1_0_945588c6e9" x="140.090766" y="118.35978" style="fill: #dd8452"/>
    </g>
    <g clip-path="url(#p5776455002)">
     <use xlink:href="#C1_0_945588c6e9" x="141.4565" y="118.997183" style="fill: #dd8452"/>
    </g>
    <g clip-path="url(#p5776455002)">
     <use xlink:href="#C1_0_945588c6e9" x="142.822234" y="118.603595" style="fill: #dd8452"/>
    </g>
    <g clip-path="url(#p5776455002)">
     <use xlink:href="#C1_0_945588c6e9" x="144.187968" y="118.309966" style="fill: #dd8452"/>
    </g>
    <g clip-path="url(#p5776455002)">
     <use xlink:href="#C1_0_945588c6e9" x="145.553703" y="118.384155" style="fill: #dd8452"/>
    </g>
    <g clip-path="url(#p5776455002)">
     <use xlink:href="#C1_0_945588c6e9" x="146.919437" y="117.9585" style="fill: #dd8452"/>
    </g>
    <g clip-path="url(#p5776455002)">
     <use xlink:href="#C1_0_945588c6e9" x="148.285171" y="117.459226" style="fill: #dd8452"/>
    </g>
    <g clip-path="url(#p5776455002)">
     <use xlink:href="#C1_0_945588c6e9" x="149.650905" y="116.239765" style="fill: #dd8452"/>
    </g>
    <g clip-path="url(#p5776455002)">
     <use xlink:href="#C1_0_945588c6e9" x="151.01664" y="116.807046" style="fill: #dd8452"/>
    </g>
    <g clip-path="url(#p5776455002)">
     <use xlink:href="#C1_0_945588c6e9" x="152.382374" y="116.4636" style="fill: #dd8452"/>
    </g>
    <g clip-path="url(#p5776455002)">
     <use xlink:href="#C1_0_945588c6e9" x="153.748108" y="116.227698" style="fill: #dd8452"/>
    </g>
    <g clip-path="url(#p5776455002)">
     <use xlink:href="#C1_0_945588c6e9" x="155.113842" y="115.550563" style="fill: #dd8452"/>
    </g>
    <g clip-path="url(#p5776455002)">
     <use xlink:href="#C1_0_945588c6e9" x="156.479577" y="115.022796" style="fill: #dd8452"/>
    </g>
    <g clip-path="url(#p5776455002)">
     <use xlink:href="#C1_0_945588c6e9" x="157.845311" y="114.309333" style="fill: #dd8452"/>
    </g>
    <g clip-path="url(#p5776455002)">
     <use xlink:href="#C1_0_945588c6e9" x="159.211045" y="112.696885" style="fill: #dd8452"/>
    </g>
    <g clip-path="url(#p5776455002)">
     <use xlink:href="#C1_0_945588c6e9" x="160.57678" y="112.884312" style="fill: #dd8452"/>
    </g>
    <g clip-path="url(#p5776455002)">
     <use xlink:href="#C1_0_945588c6e9" x="161.942514" y="114.042996" style="fill: #dd8452"/>
    </g>
    <g clip-path="url(#p5776455002)">
     <use xlink:href="#C1_0_945588c6e9" x="163.308248" y="114.075643" style="fill: #dd8452"/>
    </g>
    <g clip-path="url(#p5776455002)">
     <use xlink:href="#C1_0_945588c6e9" x="164.673982" y="113.922154" style="fill: #dd8452"/>
    </g>
    <g clip-path="url(#p5776455002)">
     <use xlink:href="#C1_0_945588c6e9" x="166.039717" y="113.651433" style="fill: #dd8452"/>
    </g>
    <g clip-path="url(#p5776455002)">
     <use xlink:href="#C1_0_945588c6e9" x="167.405451" y="113.590286" style="fill: #dd8452"/>
    </g>
    <g clip-path="url(#p5776455002)">
     <use xlink:href="#C1_0_945588c6e9" x="168.771185" y="113.992494" style="fill: #dd8452"/>
    </g>
    <g clip-path="url(#p5776455002)">
     <use xlink:href="#C1_0_945588c6e9" x="170.136919" y="114.077674" style="fill: #dd8452"/>
    </g>
    <g clip-path="url(#p5776455002)">
     <use xlink:href="#C1_0_945588c6e9" x="171.502654" y="114.313409" style="fill: #dd8452"/>
    </g>
    <g clip-path="url(#p5776455002)">
     <use xlink:href="#C1_0_945588c6e9" x="172.868388" y="115.117967" style="fill: #dd8452"/>
    </g>
    <g clip-path="url(#p5776455002)">
     <use xlink:href="#C1_0_945588c6e9" x="174.234122" y="117.174462" style="fill: #dd8452"/>
    </g>
    <g clip-path="url(#p5776455002)">
     <use xlink:href="#C1_0_945588c6e9" x="175.599856" y="115.987111" style="fill: #dd8452"/>
    </g>
    <g clip-path="url(#p5776455002)">
     <use xlink:href="#C1_0_945588c6e9" x="176.965591" y="116.002364" style="fill: #dd8452"/>
    </g>
    <g clip-path="url(#p5776455002)">
     <use xlink:href="#C1_0_945588c6e9" x="178.331325" y="114.635127" style="fill: #dd8452"/>
    </g>
    <g clip-path="url(#p5776455002)">
     <use xlink:href="#C1_0_945588c6e9" x="179.697059" y="115.316" style="fill: #dd8452"/>
    </g>
    <g clip-path="url(#p5776455002)">
     <use xlink:href="#C1_0_945588c6e9" x="181.062793" y="113.992494" style="fill: #dd8452"/>
    </g>
    <g clip-path="url(#p5776455002)">
     <use xlink:href="#C1_0_945588c6e9" x="182.428528" y="113.80017" style="fill: #dd8452"/>
    </g>
    <g clip-path="url(#p5776455002)">
     <use xlink:href="#C1_0_945588c6e9" x="183.794262" y="111.998951" style="fill: #dd8452"/>
    </g>
    <g clip-path="url(#p5776455002)">
     <use xlink:href="#C1_0_945588c6e9" x="185.159996" y="112.037143" style="fill: #dd8452"/>
    </g>
    <g clip-path="url(#p5776455002)">
     <use xlink:href="#C1_0_945588c6e9" x="186.525731" y="111.860803" style="fill: #dd8452"/>
    </g>
    <g clip-path="url(#p5776455002)">
     <use xlink:href="#C1_0_945588c6e9" x="187.891465" y="111.253699" style="fill: #dd8452"/>
    </g>
    <g clip-path="url(#p5776455002)">
     <use xlink:href="#C1_0_945588c6e9" x="189.257199" y="110.80066" style="fill: #dd8452"/>
    </g>
    <g clip-path="url(#p5776455002)">
     <use xlink:href="#C1_0_945588c6e9" x="190.622933" y="110.854636" style="fill: #dd8452"/>
    </g>
    <g clip-path="url(#p5776455002)">
     <use xlink:href="#C1_0_945588c6e9" x="191.988668" y="109.522531" style="fill: #dd8452"/>
    </g>
    <g clip-path="url(#p5776455002)">
     <use xlink:href="#C1_0_945588c6e9" x="193.354402" y="110.205231" style="fill: #dd8452"/>
    </g>
    <g clip-path="url(#p5776455002)">
     <use xlink:href="#C1_0_945588c6e9" x="194.720136" y="108.689592" style="fill: #dd8452"/>
    </g>
    <g clip-path="url(#p5776455002)">
     <use xlink:href="#C1_0_945588c6e9" x="196.08587" y="110.876964" style="fill: #dd8452"/>
    </g>
    <g clip-path="url(#p5776455002)">
     <use xlink:href="#C1_0_945588c6e9" x="197.451605" y="111.001714" style="fill: #dd8452"/>
    </g>
    <g clip-path="url(#p5776455002)">
     <use xlink:href="#C1_0_945588c6e9" x="198.817339" y="115.083692" style="fill: #dd8452"/>
    </g>
    <g clip-path="url(#p5776455002)">
     <use xlink:href="#C1_0_945588c6e9" x="200.183073" y="113.770884" style="fill: #dd8452"/>
    </g>
    <g clip-path="url(#p5776455002)">
     <use xlink:href="#C1_0_945588c6e9" x="201.548807" y="112.540865" style="fill: #dd8452"/>
    </g>
    <g clip-path="url(#p5776455002)">
     <use xlink:href="#C1_0_945588c6e9" x="204.280276" y="103.236" style="fill: #dd8452"/>
    </g>
    <g clip-path="url(#p5776455002)">
     <use xlink:href="#C1_0_945588c6e9" x="205.64601" y="103.236" style="fill: #dd8452"/>
    </g>
    <g clip-path="url(#p5776455002)">
     <use xlink:href="#C1_0_945588c6e9" x="208.377479" y="81.492" style="fill: #dd8452"/>
    </g>
    <g clip-path="url(#p5776455002)">
     <use xlink:href="#C1_0_945588c6e9" x="209.743213" y="78.526909" style="fill: #dd8452"/>
    </g>
    <g clip-path="url(#p5776455002)">
     <use xlink:href="#C1_0_945588c6e9" x="211.108947" y="77.280324" style="fill: #dd8452"/>
    </g>
    <g clip-path="url(#p5776455002)">
     <use xlink:href="#C1_0_945588c6e9" x="212.474682" y="82.527429" style="fill: #dd8452"/>
    </g>
    <g clip-path="url(#p5776455002)">
     <use xlink:href="#C1_0_945588c6e9" x="213.840416" y="84.292364" style="fill: #dd8452"/>
    </g>
    <g clip-path="url(#p5776455002)">
     <use xlink:href="#C1_0_945588c6e9" x="215.20615" y="85.116" style="fill: #dd8452"/>
    </g>
    <g clip-path="url(#p5776455002)">
     <use xlink:href="#C1_0_945588c6e9" x="216.571884" y="85.774909" style="fill: #dd8452"/>
    </g>
    <g clip-path="url(#p5776455002)">
     <use xlink:href="#C1_0_945588c6e9" x="217.937619" y="89.994462" style="fill: #dd8452"/>
    </g>
    <g clip-path="url(#p5776455002)">
     <use xlink:href="#C1_0_945588c6e9" x="219.303353" y="98.058857" style="fill: #dd8452"/>
    </g>
    <g clip-path="url(#p5776455002)">
     <use xlink:href="#C1_0_945588c6e9" x="220.669087" y="96.855718" style="fill: #dd8452"/>
    </g>
    <g clip-path="url(#p5776455002)">
     <use xlink:href="#C1_0_945588c6e9" x="222.034821" y="104.098857" style="fill: #dd8452"/>
    </g>
    <g clip-path="url(#p5776455002)">
     <use xlink:href="#C1_0_945588c6e9" x="223.400556" y="105.574065" style="fill: #dd8452"/>
    </g>
    <g clip-path="url(#p5776455002)">
     <use xlink:href="#C1_0_945588c6e9" x="224.76629" y="109.707429" style="fill: #dd8452"/>
    </g>
    <g clip-path="url(#p5776455002)">
     <use xlink:href="#C1_0_945588c6e9" x="226.132024" y="112.992923" style="fill: #dd8452"/>
    </g>
    <g clip-path="url(#p5776455002)">
     <use xlink:href="#C1_0_945588c6e9" x="227.497759" y="111.692" style="fill: #dd8452"/>
    </g>
   </g>
   <g id="PolyCollection_2">
    <defs>
     <path id="meea8c27a6a" d="M 49.952304 -133.24764 
L 49.952304 -43.085383 
L 70.438318 -42.175573 
L 74.535521 -42.175573 
L 75.901255 -42.175573 
L 77.266989 -42.061306 
L 84.095661 -43.805931 
L 85.461395 -43.40442 
L 88.192863 -42.707141 
L 90.924332 -42.218231 
L 92.290066 -42.182874 
L 93.6558 -42.182874 
L 95.021535 -42.145133 
L 96.387269 -42.131698 
L 97.753003 -42.107212 
L 99.118738 -41.758252 
L 100.484472 -41.758252 
L 101.850206 -41.757096 
L 103.21594 -41.755481 
L 104.581675 -42.119082 
L 105.947409 -42.488205 
L 107.313143 -42.431016 
L 108.678877 -42.350502 
L 110.044612 -42.267728 
L 111.410346 -42.25888 
L 112.77608 -42.214889 
L 114.141814 -42.162321 
L 115.507549 -42.139997 
L 116.873283 -42.414614 
L 118.239017 -42.406513 
L 119.604752 -42.097134 
L 120.970486 -41.883794 
L 122.33622 -41.881727 
L 123.701954 -41.886994 
L 125.067689 -41.890321 
L 126.433423 -42.795313 
L 127.799157 -42.623837 
L 129.164891 -42.859943 
L 130.530626 -43.001252 
L 131.89636 -43.138965 
L 133.262094 -43.185569 
L 134.627828 -43.116776 
L 135.993563 -43.388467 
L 137.359297 -43.579843 
L 138.725031 -43.54994 
L 140.090766 -43.520983 
L 141.4565 -43.05113 
L 142.822234 -43.310668 
L 144.187968 -43.517729 
L 145.553703 -43.438118 
L 146.919437 -43.726271 
L 148.285171 -43.867361 
L 149.650905 -44.687199 
L 151.01664 -44.229079 
L 152.382374 -44.33927 
L 153.748108 -44.550885 
L 155.113842 -45.013075 
L 156.479577 -45.399037 
L 157.845311 -45.979807 
L 159.211045 -47.278303 
L 160.57678 -47.156683 
L 161.942514 -46.216215 
L 163.308248 -46.19595 
L 164.673982 -46.36048 
L 166.039717 -46.659506 
L 167.405451 -46.6991 
L 168.771185 -46.379682 
L 170.136919 -46.262475 
L 171.502654 -46.113993 
L 172.868388 -45.486928 
L 174.234122 -43.956505 
L 175.599856 -44.834804 
L 176.965591 -44.890257 
L 178.331325 -45.969458 
L 179.697059 -45.42729 
L 181.062793 -46.379682 
L 182.428528 -46.563219 
L 183.794262 -47.929157 
L 185.159996 -47.903517 
L 186.525731 -47.95936 
L 187.891465 -48.429971 
L 189.257199 -48.665309 
L 190.622933 -48.392401 
L 191.988668 -49.149381 
L 193.354402 -48.238873 
L 194.720136 -49.139798 
L 196.08587 -47.173067 
L 197.451605 -46.623339 
L 198.817339 -43.995034 
L 200.183073 -44.471487 
L 201.548807 -44.917902 
L 204.280276 -49.144604 
L 205.64601 -49.144604 
L 208.377479 -65.473058 
L 209.743213 -68.51408 
L 211.108947 -70.321822 
L 212.474682 -66.696386 
L 213.840416 -65.493107 
L 215.20615 -65.598988 
L 216.571884 -65.430623 
L 217.937619 -61.657248 
L 219.303353 -56.355873 
L 220.669087 -57.369772 
L 222.034821 -51.399188 
L 223.400556 -50.288593 
L 224.76629 -47.243904 
L 226.132024 -45.125806 
L 227.497759 -45.658704 
L 227.497759 -64.322553 
L 227.497759 -64.322553 
L 226.132024 -61.516545 
L 224.76629 -65.110368 
L 223.400556 -69.326296 
L 222.034821 -70.923696 
L 220.669087 -78.208195 
L 219.303353 -76.986839 
L 217.937619 -87.758248 
L 216.571884 -91.689433 
L 215.20615 -92.930689 
L 213.840416 -94.936617 
L 212.474682 -97.08522 
L 211.108947 -103.268355 
L 209.743213 -103.075032 
L 208.377479 -101.111995 
L 205.64601 -80.947051 
L 204.280276 -80.947051 
L 201.548807 -64.959213 
L 200.183073 -62.000803 
L 198.817339 -58.746536 
L 197.451605 -62.697382 
L 196.08587 -61.185147 
L 194.720136 -62.687809 
L 193.354402 -60.298383 
L 191.988668 -60.158808 
L 190.622933 -57.952071 
L 189.257199 -57.511773 
L 187.891465 -56.714023 
L 186.525731 -55.971212 
L 185.159996 -55.58289 
L 183.794262 -55.638155 
L 182.428528 -53.373578 
L 181.062793 -53.221996 
L 179.697059 -51.464523 
L 178.331325 -52.240628 
L 176.965591 -50.679294 
L 175.599856 -50.886322 
L 174.234122 -49.486256 
L 172.868388 -51.939439 
L 171.502654 -52.878703 
L 170.136919 -53.242805 
L 168.771185 -53.221996 
L 167.405451 -53.68923 
L 166.039717 -53.597313 
L 164.673982 -53.482677 
L 163.308248 -53.413152 
L 161.942514 -53.4642 
L 160.57678 -54.747761 
L 159.211045 -55.027957 
L 157.845311 -53.228912 
L 156.479577 -52.489057 
L 155.113842 -51.838684 
L 153.748108 -50.920162 
L 152.382374 -50.773587 
L 151.01664 -49.903278 
L 149.650905 -50.4642 
L 148.285171 -48.751688 
L 146.919437 -47.449537 
L 145.553703 -46.844476 
L 144.187968 -46.863809 
L 142.822234 -46.470317 
L 141.4565 -45.894077 
L 140.090766 -46.688273 
L 138.725031 -46.766883 
L 137.359297 -46.848019 
L 135.993563 -46.698822 
L 134.627828 -46.332862 
L 133.262094 -46.556206 
L 131.89636 -47.530665 
L 130.530626 -47.547073 
L 129.164891 -47.635501 
L 127.799157 -47.308818 
L 126.433423 -48.339332 
L 125.067689 -45.618279 
L 123.701954 -45.544367 
L 122.33622 -45.427213 
L 120.970486 -45.473203 
L 119.604752 -46.066234 
L 118.239017 -47.136306 
L 116.873283 -47.19861 
L 115.507549 -46.547454 
L 114.141814 -46.79728 
L 112.77608 -47.3834 
L 111.410346 -47.871564 
L 110.044612 -47.9695 
L 108.678877 -48.881548 
L 107.313143 -49.761599 
L 105.947409 -50.382473 
L 104.581675 -50.58415 
L 103.21594 -47.075183 
L 101.850206 -47.298792 
L 100.484472 -47.458528 
L 99.118738 -47.458528 
L 97.753003 -50.332101 
L 96.387269 -50.851384 
L 95.021535 -51.135218 
L 93.6558 -51.92842 
L 92.290066 -51.92842 
L 90.924332 -52.666051 
L 88.192863 -62.342576 
L 85.461395 -74.586092 
L 84.095661 -80.889318 
L 77.266989 -81.880759 
L 75.901255 -91.648325 
L 74.535521 -91.648325 
L 70.438318 -91.648325 
L 49.952304 -133.24764 
z
" style="stroke: #dd8452; stroke-opacity: 0.3"/>
    </defs>
    <g clip-path="url(#p5776455002)">
     <use xlink:href="#meea8c27a6a" x="0" y="163.073781" style="fill: #dd8452; fill-opacity: 0.3; stroke: #dd8452; stroke-opacity: 0.3"/>
    </g>
   </g>
   <g id="line2d_1">
    <path d="M 49.952304 121.356 
L 70.438318 121.356 
L 74.535521 121.356 
L 75.901255 121.356 
L 77.266989 90.293143 
L 84.095661 76.056 
L 85.461395 70.62 
L 88.192863 79.540615 
L 90.924332 85.812923 
L 92.290066 88.351714 
L 93.6558 88.351714 
L 95.021535 91.056984 
L 96.387269 92.018857 
L 97.753003 93.770328 
L 99.118738 97.015701 
L 100.484472 97.015701 
L 101.850206 94.569913 
L 103.21594 91.156 
L 104.581675 89.576308 
L 105.947409 92.613931 
L 107.313143 93.597702 
L 108.678877 89.560528 
L 110.044612 88.383541 
L 111.410346 87.161806 
L 112.77608 87.532 
L 114.141814 85.356 
L 115.507549 84.432226 
L 116.873283 81.705176 
L 118.239017 82.798326 
L 119.604752 85.730237 
L 120.970486 82.822329 
L 122.33622 83.304 
L 123.701954 84.882194 
L 125.067689 83.447053 
L 126.433423 81.58039 
L 127.799157 84.000923 
L 129.164891 84.080571 
L 130.530626 83.144787 
L 131.89636 84.432226 
L 133.262094 73.924235 
L 134.627828 72.584411 
L 135.993563 70.603965 
L 137.359297 66.996 
L 138.725031 67.86576 
L 140.090766 68.922142 
L 141.4565 69.462036 
L 142.822234 66.996 
L 144.187968 66.76169 
L 145.553703 67.862788 
L 146.919437 67.518692 
L 148.285171 77.322452 
L 149.650905 78.720706 
L 151.01664 84.054577 
L 152.382374 94.176 
L 153.748108 93.15034 
L 155.113842 93.38435 
L 156.479577 95.495417 
L 157.845311 94.679333 
L 159.211045 92.011221 
L 160.57678 92.17574 
L 161.942514 92.103982 
L 163.308248 89.807786 
L 164.673982 89.762154 
L 166.039717 87.11348 
L 167.405451 88.136 
L 168.771185 90.602534 
L 170.136919 90.423113 
L 171.502654 90.104502 
L 172.868388 91.056984 
L 174.234122 95.337538 
L 175.599856 93.616741 
L 176.965591 94.999636 
L 178.331325 94.472509 
L 179.697059 93.572 
L 181.062793 95.367155 
L 182.428528 94.910595 
L 183.794262 92.393705 
L 185.159996 92.068163 
L 186.525731 91.920891 
L 187.891465 91.530159 
L 189.257199 90.745515 
L 190.622933 89.851909 
L 191.988668 86.595184 
L 193.354402 86.045231 
L 194.720136 87.578913 
L 196.08587 88.609012 
L 197.451605 88.567429 
L 198.817339 89.994462 
L 200.183073 88.487163 
L 201.548807 89.033838 
L 204.280276 76.056 
L 205.64601 80.586 
L 208.377479 66.996 
L 209.743213 62.054182 
L 211.108947 59.650054 
L 212.474682 56.641714 
L 213.840416 59.583273 
L 215.20615 63.798353 
L 216.571884 66.007636 
L 217.937619 73.268308 
L 219.303353 77.868 
L 220.669087 76.949239 
L 222.034821 83.390286 
L 223.400556 84.531484 
L 224.76629 88.351714 
L 226.132024 92.085231 
L 227.497759 97.196 
" clip-path="url(#p5776455002)" style="fill: none; stroke: #4c72b0; stroke-width: 1.5; stroke-linecap: round"/>
   </g>
   <g id="line2d_2">
    <path d="M 49.952304 121.356 
L 70.438318 121.356 
L 74.535521 121.356 
L 75.901255 121.356 
L 77.266989 121.356 
L 84.095661 112.296 
L 85.461395 114.108 
L 88.192863 117.174462 
L 90.924332 119.265231 
L 92.290066 119.414571 
L 93.6558 119.414571 
L 95.021535 119.573705 
L 96.387269 119.630286 
L 97.753003 119.733313 
L 99.118738 121.356 
L 100.484472 121.356 
L 101.850206 121.356 
L 103.21594 121.356 
L 104.581675 119.683385 
L 105.947409 118.85669 
L 107.313143 119.042809 
L 108.678877 119.304679 
L 110.044612 119.573705 
L 111.410346 119.602452 
L 112.77608 119.745333 
L 114.141814 119.916 
L 115.507549 119.988453 
L 116.873283 119.437412 
L 118.239017 119.459721 
L 119.604752 120.127525 
L 120.970486 120.667899 
L 122.33622 120.6765 
L 123.701954 120.654581 
L 125.067689 120.640737 
L 126.433423 118.704293 
L 127.799157 119.125846 
L 129.164891 118.767429 
L 130.530626 118.626628 
L 131.89636 118.484151 
L 133.262094 118.691294 
L 134.627828 118.815813 
L 135.993563 118.469628 
L 137.359297 118.262341 
L 138.725031 118.31184 
L 140.090766 118.35978 
L 141.4565 118.997183 
L 142.822234 118.603595 
L 144.187968 118.309966 
L 145.553703 118.384155 
L 146.919437 117.9585 
L 148.285171 117.459226 
L 149.650905 116.239765 
L 151.01664 116.807046 
L 152.382374 116.4636 
L 153.748108 116.227698 
L 155.113842 115.550563 
L 156.479577 115.022796 
L 157.845311 114.309333 
L 159.211045 112.696885 
L 160.57678 112.884312 
L 161.942514 114.042996 
L 163.308248 114.075643 
L 164.673982 113.922154 
L 166.039717 113.651433 
L 167.405451 113.590286 
L 168.771185 113.992494 
L 170.136919 114.077674 
L 171.502654 114.313409 
L 172.868388 115.117967 
L 174.234122 117.174462 
L 175.599856 115.987111 
L 176.965591 116.002364 
L 178.331325 114.635127 
L 179.697059 115.316 
L 181.062793 113.992494 
L 182.428528 113.80017 
L 183.794262 111.998951 
L 185.159996 112.037143 
L 186.525731 111.860803 
L 187.891465 111.253699 
L 189.257199 110.80066 
L 190.622933 110.854636 
L 191.988668 109.522531 
L 193.354402 110.205231 
L 194.720136 108.689592 
L 196.08587 110.876964 
L 197.451605 111.001714 
L 198.817339 115.083692 
L 200.183073 113.770884 
L 201.548807 112.540865 
L 204.280276 103.236 
L 205.64601 103.236 
L 208.377479 81.492 
L 209.743213 78.526909 
L 211.108947 77.280324 
L 212.474682 82.527429 
L 213.840416 84.292364 
L 215.20615 85.116 
L 216.571884 85.774909 
L 217.937619 89.994462 
L 219.303353 98.058857 
L 220.669087 96.855718 
L 222.034821 104.098857 
L 223.400556 105.574065 
L 224.76629 109.707429 
L 226.132024 112.992923 
L 227.497759 111.692 
" clip-path="url(#p5776455002)" style="fill: none; stroke: #dd8452; stroke-width: 1.5; stroke-linecap: round"/>
   </g>
   <g id="patch_3">
    <path d="M 41.075031 126.792 
L 41.075031 7.2 
" style="fill: none; stroke: #262626; stroke-width: 1.25; stroke-linejoin: miter; stroke-linecap: square"/>
   </g>
   <g id="patch_4">
    <path d="M 41.075031 126.792 
L 236.375031 126.792 
" style="fill: none; stroke: #262626; stroke-width: 1.25; stroke-linejoin: miter; stroke-linecap: square"/>
   </g>
   <g id="legend_1">
    <g id="patch_5">
     <path d="M 48.659859 35.964312 
L 230.985031 35.964312 
Q 232.525031 35.964312 232.525031 34.424312 
L 232.525031 12.59 
Q 232.525031 11.05 230.985031 11.05 
L 48.659859 11.05 
Q 47.119859 11.05 47.119859 12.59 
L 47.119859 34.424312 
Q 47.119859 35.964312 48.659859 35.964312 
z
" style="fill: #ffffff; opacity: 0.8; stroke: #cccccc; stroke-linejoin: miter"/>
    </g>
    <g id="line2d_3">
     <path d="M 50.199859 17.285797 
L 57.899859 17.285797 
L 65.599859 17.285797 
" style="fill: none; stroke: #4c72b0; stroke-width: 1.5; stroke-linecap: round"/>
     <defs>
      <path id="m73fb4dbe6d" d="M 0 3 
C 0.795609 3 1.55874 2.683901 2.12132 2.12132 
C 2.683901 1.55874 3 0.795609 3 0 
C 3 -0.795609 2.683901 -1.55874 2.12132 -2.12132 
C 1.55874 -2.683901 0.795609 -3 0 -3 
C -0.795609 -3 -1.55874 -2.683901 -2.12132 -2.12132 
C -2.683901 -1.55874 -3 -0.795609 -3 0 
C -3 0.795609 -2.683901 1.55874 -2.12132 2.12132 
C -1.55874 2.683901 -0.795609 3 0 3 
z
" style="stroke: #4c72b0"/>
     </defs>
     <g>
      <use xlink:href="#m73fb4dbe6d" x="57.899859" y="17.285797" style="fill: #4c72b0; stroke: #4c72b0"/>
     </g>
    </g>
    <g id="text_17">
     <!--  1 plasmid -->
     <g style="fill: #262626" transform="translate(71.759859 19.980797)scale(0.077 -0.077)">
      <defs>
       <path id="DejaVuSans-2265" d="M 678 3175 
L 678 3725 
L 4684 2578 
L 4684 2047 
L 678 897 
L 678 1453 
L 3681 2309 
L 678 3175 
z
M 4684 531 
L 4684 0 
L 678 0 
L 678 531 
L 4684 531 
z
" transform="scale(0.015625)"/>
       <path id="DejaVuSans-70" d="M 1159 525 
L 1159 -1331 
L 581 -1331 
L 581 3500 
L 1159 3500 
L 1159 2969 
Q 1341 3281 1617 3432 
Q 1894 3584 2278 3584 
Q 2916 3584 3314 3078 
Q 3713 2572 3713 1747 
Q 3713 922 3314 415 
Q 2916 -91 2278 -91 
Q 1894 -91 1617 61 
Q 1341 213 1159 525 
z
M 3116 1747 
Q 3116 2381 2855 2742 
Q 2594 3103 2138 3103 
Q 1681 3103 1420 2742 
Q 1159 2381 1159 1747 
Q 1159 1113 1420 752 
Q 1681 391 2138 391 
Q 2594 391 2855 752 
Q 3116 1113 3116 1747 
z
" transform="scale(0.015625)"/>
       <path id="DejaVuSans-6d" d="M 3328 2828 
Q 3544 3216 3844 3400 
Q 4144 3584 4550 3584 
Q 5097 3584 5394 3201 
Q 5691 2819 5691 2113 
L 5691 0 
L 5113 0 
L 5113 2094 
Q 5113 2597 4934 2840 
Q 4756 3084 4391 3084 
Q 3944 3084 3684 2787 
Q 3425 2491 3425 1978 
L 3425 0 
L 2847 0 
L 2847 2094 
Q 2847 2600 2669 2842 
Q 2491 3084 2119 3084 
Q 1678 3084 1418 2786 
Q 1159 2488 1159 1978 
L 1159 0 
L 581 0 
L 581 3500 
L 1159 3500 
L 1159 2956 
Q 1356 3278 1631 3431 
Q 1906 3584 2284 3584 
Q 2666 3584 2933 3390 
Q 3200 3197 3328 2828 
z
" transform="scale(0.015625)"/>
      </defs>
      <use xlink:href="#DejaVuSans-2265"/>
      <use xlink:href="#DejaVuSans-20" x="83.789062"/>
      <use xlink:href="#DejaVuSans-31" x="115.576172"/>
      <use xlink:href="#DejaVuSans-20" x="179.199219"/>
      <use xlink:href="#DejaVuSans-70" x="210.986328"/>
      <use xlink:href="#DejaVuSans-6c" x="274.462891"/>
      <use xlink:href="#DejaVuSans-61" x="302.246094"/>
      <use xlink:href="#DejaVuSans-73" x="363.525391"/>
      <use xlink:href="#DejaVuSans-6d" x="415.625"/>
      <use xlink:href="#DejaVuSans-69" x="513.037109"/>
      <use xlink:href="#DejaVuSans-64" x="540.820312"/>
     </g>
    </g>
    <g id="line2d_4">
     <path d="M 50.199859 28.587953 
L 57.899859 28.587953 
L 65.599859 28.587953 
" style="fill: none; stroke: #dd8452; stroke-width: 1.5; stroke-linecap: round"/>
     <defs>
      <path id="m4ac1e9df0f" d="M 0 3 
C 0.795609 3 1.55874 2.683901 2.12132 2.12132 
C 2.683901 1.55874 3 0.795609 3 0 
C 3 -0.795609 2.683901 -1.55874 2.12132 -2.12132 
C 1.55874 -2.683901 0.795609 -3 0 -3 
C -0.795609 -3 -1.55874 -2.683901 -2.12132 -2.12132 
C -2.683901 -1.55874 -3 -0.795609 -3 0 
C -3 0.795609 -2.683901 1.55874 -2.12132 2.12132 
C -1.55874 2.683901 -0.795609 3 0 3 
z
" style="stroke: #dd8452"/>
     </defs>
     <g>
      <use xlink:href="#m4ac1e9df0f" x="57.899859" y="28.587953" style="fill: #dd8452; stroke: #dd8452"/>
     </g>
    </g>
    <g id="text_18">
     <!--  1 plasmid with  1 resistance element -->
     <g style="fill: #262626" transform="translate(71.759859 31.282953)scale(0.077 -0.077)">
      <defs>
       <path id="DejaVuSans-77" d="M 269 3500 
L 844 3500 
L 1563 769 
L 2278 3500 
L 2956 3500 
L 3675 769 
L 4391 3500 
L 4966 3500 
L 4050 0 
L 3372 0 
L 2619 2869 
L 1863 0 
L 1184 0 
L 269 3500 
z
" transform="scale(0.015625)"/>
       <path id="DejaVuSans-68" d="M 3513 2113 
L 3513 0 
L 2938 0 
L 2938 2094 
Q 2938 2591 2744 2837 
Q 2550 3084 2163 3084 
Q 1697 3084 1428 2787 
Q 1159 2491 1159 1978 
L 1159 0 
L 581 0 
L 581 4863 
L 1159 4863 
L 1159 2956 
Q 1366 3272 1645 3428 
Q 1925 3584 2291 3584 
Q 2894 3584 3203 3211 
Q 3513 2838 3513 2113 
z
" transform="scale(0.015625)"/>
      </defs>
      <use xlink:href="#DejaVuSans-2265"/>
      <use xlink:href="#DejaVuSans-20" x="83.789062"/>
      <use xlink:href="#DejaVuSans-31" x="115.576172"/>
      <use xlink:href="#DejaVuSans-20" x="179.199219"/>
      <use xlink:href="#DejaVuSans-70" x="210.986328"/>
      <use xlink:href="#DejaVuSans-6c" x="274.462891"/>
      <use xlink:href="#DejaVuSans-61" x="302.246094"/>
      <use xlink:href="#DejaVuSans-73" x="363.525391"/>
      <use xlink:href="#DejaVuSans-6d" x="415.625"/>
      <use xlink:href="#DejaVuSans-69" x="513.037109"/>
      <use xlink:href="#DejaVuSans-64" x="540.820312"/>
      <use xlink:href="#DejaVuSans-20" x="604.296875"/>
      <use xlink:href="#DejaVuSans-77" x="636.083984"/>
      <use xlink:href="#DejaVuSans-69" x="717.871094"/>
      <use xlink:href="#DejaVuSans-74" x="745.654297"/>
      <use xlink:href="#DejaVuSans-68" x="784.863281"/>
      <use xlink:href="#DejaVuSans-20" x="848.242188"/>
      <use xlink:href="#DejaVuSans-2265" x="880.029297"/>
      <use xlink:href="#DejaVuSans-20" x="963.818359"/>
      <use xlink:href="#DejaVuSans-31" x="995.605469"/>
      <use xlink:href="#DejaVuSans-20" x="1059.228516"/>
      <use xlink:href="#DejaVuSans-72" x="1091.015625"/>
      <use xlink:href="#DejaVuSans-65" x="1129.878906"/>
      <use xlink:href="#DejaVuSans-73" x="1191.402344"/>
      <use xlink:href="#DejaVuSans-69" x="1243.501953"/>
      <use xlink:href="#DejaVuSans-73" x="1271.285156"/>
      <use xlink:href="#DejaVuSans-74" x="1323.384766"/>
      <use xlink:href="#DejaVuSans-61" x="1362.59375"/>
      <use xlink:href="#DejaVuSans-6e" x="1423.873047"/>
      <use xlink:href="#DejaVuSans-63" x="1487.251953"/>
      <use xlink:href="#DejaVuSans-65" x="1542.232422"/>
      <use xlink:href="#DejaVuSans-20" x="1603.755859"/>
      <use xlink:href="#DejaVuSans-65" x="1635.542969"/>
      <use xlink:href="#DejaVuSans-6c" x="1697.066406"/>
      <use xlink:href="#DejaVuSans-65" x="1724.849609"/>
      <use xlink:href="#DejaVuSans-6d" x="1786.373047"/>
      <use xlink:href="#DejaVuSans-65" x="1883.785156"/>
      <use xlink:href="#DejaVuSans-6e" x="1945.308594"/>
      <use xlink:href="#DejaVuSans-74" x="2008.6875"/>
     </g>
    </g>
   </g>
  </g>
 </g>
 <defs>
  <clipPath id="p5776455002">
   <rect x="41.075031" y="7.2" width="195.3" height="119.592"/>
  </clipPath>
 </defs>
</svg>
