<?xml version="1.0" encoding="utf-8" standalone="no"?>
<!DOCTYPE svg PUBLIC "-//W3C//DTD SVG 1.1//EN"
  "http://www.w3.org/Graphics/SVG/1.1/DTD/svg11.dtd">
<svg xmlns:xlink="http://www.w3.org/1999/xlink" width="485.941281pt" height="206.561781pt" viewBox="0 0 485.941281 206.561781" xmlns="http://www.w3.org/2000/svg" version="1.1">
 <metadata>
  <rdf:RDF xmlns:dc="http://purl.org/dc/elements/1.1/" xmlns:cc="http://creativecommons.org/ns#" xmlns:rdf="http://www.w3.org/1999/02/22-rdf-syntax-ns#">
   <cc:Work>
    <dc:type rdf:resource="http://purl.org/dc/dcmitype/StillImage"/>
    <dc:date>2024-12-12T15:47:48.796335</dc:date>
    <dc:format>image/svg+xml</dc:format>
    <dc:creator>
     <cc:Agent>
      <dc:title>Matplotlib v3.5.2, https://matplotlib.org/</dc:title>
     </cc:Agent>
    </dc:creator>
   </cc:Work>
  </rdf:RDF>
 </metadata>
 <defs>
  <style type="text/css">*{stroke-linejoin: round; stroke-linecap: butt}</style>
 </defs>
 <g id="figure_1">
  <g id="patch_1">
   <path d="M 0 206.561781 
L 485.941281 206.561781 
L 485.941281 0 
L 0 0 
L 0 206.561781 
z
" style="fill: none"/>
  </g>
  <g id="axes_1">
   <g id="patch_2">
    <path d="M 41.127531 170.28 
L 320.127531 170.28 
L 320.127531 7.2 
L 41.127531 7.2 
L 41.127531 170.28 
z
" style="fill: none"/>
   </g>
   <g id="matplotlib.axis_1">
    <g id="xtick_1">
     <g id="text_1">
      <!-- 1880 -->
      <g style="fill: #262626" transform="translate(32.482174 185.630797)scale(0.077 -0.077)">
       <defs>
        <path id="DejaVuSans-31" d="M 794 531 
L 1825 531 
L 1825 4091 
L 703 3866 
L 703 4441 
L 1819 4666 
L 2450 4666 
L 2450 531 
L 3481 531 
L 3481 0 
L 794 0 
L 794 531 
z
" transform="scale(0.015625)"/>
        <path id="DejaVuSans-38" d="M 2034 2216 
Q 1584 2216 1326 1975 
Q 1069 1734 1069 1313 
Q 1069 891 1326 650 
Q 1584 409 2034 409 
Q 2484 409 2743 651 
Q 3003 894 3003 1313 
Q 3003 1734 2745 1975 
Q 2488 2216 2034 2216 
z
M 1403 2484 
Q 997 2584 770 2862 
Q 544 3141 544 3541 
Q 544 4100 942 4425 
Q 1341 4750 2034 4750 
Q 2731 4750 3128 4425 
Q 3525 4100 3525 3541 
Q 3525 3141 3298 2862 
Q 3072 2584 2669 2484 
Q 3125 2378 3379 2068 
Q 3634 1759 3634 1313 
Q 3634 634 3220 271 
Q 2806 -91 2034 -91 
Q 1263 -91 848 271 
Q 434 634 434 1313 
Q 434 1759 690 2068 
Q 947 2378 1403 2484 
z
M 1172 3481 
Q 1172 3119 1398 2916 
Q 1625 2713 2034 2713 
Q 2441 2713 2670 2916 
Q 2900 3119 2900 3481 
Q 2900 3844 2670 4047 
Q 2441 4250 2034 4250 
Q 1625 4250 1398 4047 
Q 1172 3844 1172 3481 
z
" transform="scale(0.015625)"/>
        <path id="DejaVuSans-30" d="M 2034 4250 
Q 1547 4250 1301 3770 
Q 1056 3291 1056 2328 
Q 1056 1369 1301 889 
Q 1547 409 2034 409 
Q 2525 409 2770 889 
Q 3016 1369 3016 2328 
Q 3016 3291 2770 3770 
Q 2525 4250 2034 4250 
z
M 2034 4750 
Q 2819 4750 3233 4129 
Q 3647 3509 3647 2328 
Q 3647 1150 3233 529 
Q 2819 -91 2034 -91 
Q 1250 -91 836 529 
Q 422 1150 422 2328 
Q 422 3509 836 4129 
Q 1250 4750 2034 4750 
z
" transform="scale(0.015625)"/>
       </defs>
       <use xlink:href="#DejaVuSans-31"/>
       <use xlink:href="#DejaVuSans-38" x="63.623047"/>
       <use xlink:href="#DejaVuSans-38" x="127.246094"/>
       <use xlink:href="#DejaVuSans-30" x="190.869141"/>
      </g>
     </g>
    </g>
    <g id="xtick_2">
     <g id="text_2">
      <!-- 1900 -->
      <g style="fill: #262626" transform="translate(70.911926 185.630797)scale(0.077 -0.077)">
       <defs>
        <path id="DejaVuSans-39" d="M 703 97 
L 703 672 
Q 941 559 1184 500 
Q 1428 441 1663 441 
Q 2288 441 2617 861 
Q 2947 1281 2994 2138 
Q 2813 1869 2534 1725 
Q 2256 1581 1919 1581 
Q 1219 1581 811 2004 
Q 403 2428 403 3163 
Q 403 3881 828 4315 
Q 1253 4750 1959 4750 
Q 2769 4750 3195 4129 
Q 3622 3509 3622 2328 
Q 3622 1225 3098 567 
Q 2575 -91 1691 -91 
Q 1453 -91 1209 -44 
Q 966 3 703 97 
z
M 1959 2075 
Q 2384 2075 2632 2365 
Q 2881 2656 2881 3163 
Q 2881 3666 2632 3958 
Q 2384 4250 1959 4250 
Q 1534 4250 1286 3958 
Q 1038 3666 1038 3163 
Q 1038 2656 1286 2365 
Q 1534 2075 1959 2075 
z
" transform="scale(0.015625)"/>
       </defs>
       <use xlink:href="#DejaVuSans-31"/>
       <use xlink:href="#DejaVuSans-39" x="63.623047"/>
       <use xlink:href="#DejaVuSans-30" x="127.246094"/>
       <use xlink:href="#DejaVuSans-30" x="190.869141"/>
      </g>
     </g>
    </g>
    <g id="xtick_3">
     <g id="text_3">
      <!-- 1920 -->
      <g style="fill: #262626" transform="translate(109.341678 185.630797)scale(0.077 -0.077)">
       <defs>
        <path id="DejaVuSans-32" d="M 1228 531 
L 3431 531 
L 3431 0 
L 469 0 
L 469 531 
Q 828 903 1448 1529 
Q 2069 2156 2228 2338 
Q 2531 2678 2651 2914 
Q 2772 3150 2772 3378 
Q 2772 3750 2511 3984 
Q 2250 4219 1831 4219 
Q 1534 4219 1204 4116 
Q 875 4013 500 3803 
L 500 4441 
Q 881 4594 1212 4672 
Q 1544 4750 1819 4750 
Q 2544 4750 2975 4387 
Q 3406 4025 3406 3419 
Q 3406 3131 3298 2873 
Q 3191 2616 2906 2266 
Q 2828 2175 2409 1742 
Q 1991 1309 1228 531 
z
" transform="scale(0.015625)"/>
       </defs>
       <use xlink:href="#DejaVuSans-31"/>
       <use xlink:href="#DejaVuSans-39" x="63.623047"/>
       <use xlink:href="#DejaVuSans-32" x="127.246094"/>
       <use xlink:href="#DejaVuSans-30" x="190.869141"/>
      </g>
     </g>
    </g>
    <g id="xtick_4">
     <g id="text_4">
      <!-- 1940 -->
      <g style="fill: #262626" transform="translate(147.77143 185.630797)scale(0.077 -0.077)">
       <defs>
        <path id="DejaVuSans-34" d="M 2419 4116 
L 825 1625 
L 2419 1625 
L 2419 4116 
z
M 2253 4666 
L 3047 4666 
L 3047 1625 
L 3713 1625 
L 3713 1100 
L 3047 1100 
L 3047 0 
L 2419 0 
L 2419 1100 
L 313 1100 
L 313 1709 
L 2253 4666 
z
" transform="scale(0.015625)"/>
       </defs>
       <use xlink:href="#DejaVuSans-31"/>
       <use xlink:href="#DejaVuSans-39" x="63.623047"/>
       <use xlink:href="#DejaVuSans-34" x="127.246094"/>
       <use xlink:href="#DejaVuSans-30" x="190.869141"/>
      </g>
     </g>
    </g>
    <g id="xtick_5">
     <g id="text_5">
      <!-- 1960 -->
      <g style="fill: #262626" transform="translate(186.201182 185.630797)scale(0.077 -0.077)">
       <defs>
        <path id="DejaVuSans-36" d="M 2113 2584 
Q 1688 2584 1439 2293 
Q 1191 2003 1191 1497 
Q 1191 994 1439 701 
Q 1688 409 2113 409 
Q 2538 409 2786 701 
Q 3034 994 3034 1497 
Q 3034 2003 2786 2293 
Q 2538 2584 2113 2584 
z
M 3366 4563 
L 3366 3988 
Q 3128 4100 2886 4159 
Q 2644 4219 2406 4219 
Q 1781 4219 1451 3797 
Q 1122 3375 1075 2522 
Q 1259 2794 1537 2939 
Q 1816 3084 2150 3084 
Q 2853 3084 3261 2657 
Q 3669 2231 3669 1497 
Q 3669 778 3244 343 
Q 2819 -91 2113 -91 
Q 1303 -91 875 529 
Q 447 1150 447 2328 
Q 447 3434 972 4092 
Q 1497 4750 2381 4750 
Q 2619 4750 2861 4703 
Q 3103 4656 3366 4563 
z
" transform="scale(0.015625)"/>
       </defs>
       <use xlink:href="#DejaVuSans-31"/>
       <use xlink:href="#DejaVuSans-39" x="63.623047"/>
       <use xlink:href="#DejaVuSans-36" x="127.246094"/>
       <use xlink:href="#DejaVuSans-30" x="190.869141"/>
      </g>
     </g>
    </g>
    <g id="xtick_6">
     <g id="text_6">
      <!-- 1980 -->
      <g style="fill: #262626" transform="translate(224.630934 185.630797)scale(0.077 -0.077)">
       <use xlink:href="#DejaVuSans-31"/>
       <use xlink:href="#DejaVuSans-39" x="63.623047"/>
       <use xlink:href="#DejaVuSans-38" x="127.246094"/>
       <use xlink:href="#DejaVuSans-30" x="190.869141"/>
      </g>
     </g>
    </g>
    <g id="xtick_7">
     <g id="text_7">
      <!-- 2000 -->
      <g style="fill: #262626" transform="translate(263.060686 185.630797)scale(0.077 -0.077)">
       <use xlink:href="#DejaVuSans-32"/>
       <use xlink:href="#DejaVuSans-30" x="63.623047"/>
       <use xlink:href="#DejaVuSans-30" x="127.246094"/>
       <use xlink:href="#DejaVuSans-30" x="190.869141"/>
      </g>
     </g>
    </g>
    <g id="xtick_8">
     <g id="text_8">
      <!-- 2020 -->
      <g style="fill: #262626" transform="translate(301.490438 185.630797)scale(0.077 -0.077)">
       <use xlink:href="#DejaVuSans-32"/>
       <use xlink:href="#DejaVuSans-30" x="63.623047"/>
       <use xlink:href="#DejaVuSans-32" x="127.246094"/>
       <use xlink:href="#DejaVuSans-30" x="190.869141"/>
      </g>
     </g>
    </g>
    <g id="text_9">
     <!-- Year Cultured -->
     <g style="fill: #262626" transform="translate(152.446844 197.614844)scale(0.084 -0.084)">
      <defs>
       <path id="DejaVuSans-59" d="M -13 4666 
L 666 4666 
L 1959 2747 
L 3244 4666 
L 3922 4666 
L 2272 2222 
L 2272 0 
L 1638 0 
L 1638 2222 
L -13 4666 
z
" transform="scale(0.015625)"/>
       <path id="DejaVuSans-65" d="M 3597 1894 
L 3597 1613 
L 953 1613 
Q 991 1019 1311 708 
Q 1631 397 2203 397 
Q 2534 397 2845 478 
Q 3156 559 3463 722 
L 3463 178 
Q 3153 47 2828 -22 
Q 2503 -91 2169 -91 
Q 1331 -91 842 396 
Q 353 884 353 1716 
Q 353 2575 817 3079 
Q 1281 3584 2069 3584 
Q 2775 3584 3186 3129 
Q 3597 2675 3597 1894 
z
M 3022 2063 
Q 3016 2534 2758 2815 
Q 2500 3097 2075 3097 
Q 1594 3097 1305 2825 
Q 1016 2553 972 2059 
L 3022 2063 
z
" transform="scale(0.015625)"/>
       <path id="DejaVuSans-61" d="M 2194 1759 
Q 1497 1759 1228 1600 
Q 959 1441 959 1056 
Q 959 750 1161 570 
Q 1363 391 1709 391 
Q 2188 391 2477 730 
Q 2766 1069 2766 1631 
L 2766 1759 
L 2194 1759 
z
M 3341 1997 
L 3341 0 
L 2766 0 
L 2766 531 
Q 2569 213 2275 61 
Q 1981 -91 1556 -91 
Q 1019 -91 701 211 
Q 384 513 384 1019 
Q 384 1609 779 1909 
Q 1175 2209 1959 2209 
L 2766 2209 
L 2766 2266 
Q 2766 2663 2505 2880 
Q 2244 3097 1772 3097 
Q 1472 3097 1187 3025 
Q 903 2953 641 2809 
L 641 3341 
Q 956 3463 1253 3523 
Q 1550 3584 1831 3584 
Q 2591 3584 2966 3190 
Q 3341 2797 3341 1997 
z
" transform="scale(0.015625)"/>
       <path id="DejaVuSans-72" d="M 2631 2963 
Q 2534 3019 2420 3045 
Q 2306 3072 2169 3072 
Q 1681 3072 1420 2755 
Q 1159 2438 1159 1844 
L 1159 0 
L 581 0 
L 581 3500 
L 1159 3500 
L 1159 2956 
Q 1341 3275 1631 3429 
Q 1922 3584 2338 3584 
Q 2397 3584 2469 3576 
Q 2541 3569 2628 3553 
L 2631 2963 
z
" transform="scale(0.015625)"/>
       <path id="DejaVuSans-20" transform="scale(0.015625)"/>
       <path id="DejaVuSans-43" d="M 4122 4306 
L 4122 3641 
Q 3803 3938 3442 4084 
Q 3081 4231 2675 4231 
Q 1875 4231 1450 3742 
Q 1025 3253 1025 2328 
Q 1025 1406 1450 917 
Q 1875 428 2675 428 
Q 3081 428 3442 575 
Q 3803 722 4122 1019 
L 4122 359 
Q 3791 134 3420 21 
Q 3050 -91 2638 -91 
Q 1578 -91 968 557 
Q 359 1206 359 2328 
Q 359 3453 968 4101 
Q 1578 4750 2638 4750 
Q 3056 4750 3426 4639 
Q 3797 4528 4122 4306 
z
" transform="scale(0.015625)"/>
       <path id="DejaVuSans-75" d="M 544 1381 
L 544 3500 
L 1119 3500 
L 1119 1403 
Q 1119 906 1312 657 
Q 1506 409 1894 409 
Q 2359 409 2629 706 
Q 2900 1003 2900 1516 
L 2900 3500 
L 3475 3500 
L 3475 0 
L 2900 0 
L 2900 538 
Q 2691 219 2414 64 
Q 2138 -91 1772 -91 
Q 1169 -91 856 284 
Q 544 659 544 1381 
z
M 1991 3584 
L 1991 3584 
z
" transform="scale(0.015625)"/>
       <path id="DejaVuSans-6c" d="M 603 4863 
L 1178 4863 
L 1178 0 
L 603 0 
L 603 4863 
z
" transform="scale(0.015625)"/>
       <path id="DejaVuSans-74" d="M 1172 4494 
L 1172 3500 
L 2356 3500 
L 2356 3053 
L 1172 3053 
L 1172 1153 
Q 1172 725 1289 603 
Q 1406 481 1766 481 
L 2356 481 
L 2356 0 
L 1766 0 
Q 1100 0 847 248 
Q 594 497 594 1153 
L 594 3053 
L 172 3053 
L 172 3500 
L 594 3500 
L 594 4494 
L 1172 4494 
z
" transform="scale(0.015625)"/>
       <path id="DejaVuSans-64" d="M 2906 2969 
L 2906 4863 
L 3481 4863 
L 3481 0 
L 2906 0 
L 2906 525 
Q 2725 213 2448 61 
Q 2172 -91 1784 -91 
Q 1150 -91 751 415 
Q 353 922 353 1747 
Q 353 2572 751 3078 
Q 1150 3584 1784 3584 
Q 2172 3584 2448 3432 
Q 2725 3281 2906 2969 
z
M 947 1747 
Q 947 1113 1208 752 
Q 1469 391 1925 391 
Q 2381 391 2643 752 
Q 2906 1113 2906 1747 
Q 2906 2381 2643 2742 
Q 2381 3103 1925 3103 
Q 1469 3103 1208 2742 
Q 947 2381 947 1747 
z
" transform="scale(0.015625)"/>
      </defs>
      <use xlink:href="#DejaVuSans-59"/>
      <use xlink:href="#DejaVuSans-65" x="47.833984"/>
      <use xlink:href="#DejaVuSans-61" x="109.357422"/>
      <use xlink:href="#DejaVuSans-72" x="170.636719"/>
      <use xlink:href="#DejaVuSans-20" x="211.75"/>
      <use xlink:href="#DejaVuSans-43" x="243.537109"/>
      <use xlink:href="#DejaVuSans-75" x="313.361328"/>
      <use xlink:href="#DejaVuSans-6c" x="376.740234"/>
      <use xlink:href="#DejaVuSans-74" x="404.523438"/>
      <use xlink:href="#DejaVuSans-75" x="443.732422"/>
      <use xlink:href="#DejaVuSans-72" x="507.111328"/>
      <use xlink:href="#DejaVuSans-65" x="545.974609"/>
      <use xlink:href="#DejaVuSans-64" x="607.498047"/>
     </g>
    </g>
   </g>
   <g id="matplotlib.axis_2">
    <g id="ytick_1">
     <g id="text_10">
      <!-- 0.0 -->
      <g style="fill: #262626" transform="translate(19.382125 165.860266)scale(0.077 -0.077)">
       <defs>
        <path id="DejaVuSans-2e" d="M 684 794 
L 1344 794 
L 1344 0 
L 684 0 
L 684 794 
z
" transform="scale(0.015625)"/>
       </defs>
       <use xlink:href="#DejaVuSans-30"/>
       <use xlink:href="#DejaVuSans-2e" x="63.623047"/>
       <use xlink:href="#DejaVuSans-30" x="95.410156"/>
      </g>
     </g>
    </g>
    <g id="ytick_2">
     <g id="text_11">
      <!-- 0.2 -->
      <g style="fill: #262626" transform="translate(19.382125 136.195838)scale(0.077 -0.077)">
       <use xlink:href="#DejaVuSans-30"/>
       <use xlink:href="#DejaVuSans-2e" x="63.623047"/>
       <use xlink:href="#DejaVuSans-32" x="95.410156"/>
      </g>
     </g>
    </g>
    <g id="ytick_3">
     <g id="text_12">
      <!-- 0.4 -->
      <g style="fill: #262626" transform="translate(19.382125 106.53141)scale(0.077 -0.077)">
       <use xlink:href="#DejaVuSans-30"/>
       <use xlink:href="#DejaVuSans-2e" x="63.623047"/>
       <use xlink:href="#DejaVuSans-34" x="95.410156"/>
      </g>
     </g>
    </g>
    <g id="ytick_4">
     <g id="text_13">
      <!-- 0.6 -->
      <g style="fill: #262626" transform="translate(19.382125 76.866982)scale(0.077 -0.077)">
       <use xlink:href="#DejaVuSans-30"/>
       <use xlink:href="#DejaVuSans-2e" x="63.623047"/>
       <use xlink:href="#DejaVuSans-36" x="95.410156"/>
      </g>
     </g>
    </g>
    <g id="ytick_5">
     <g id="text_14">
      <!-- 0.8 -->
      <g style="fill: #262626" transform="translate(19.382125 47.202554)scale(0.077 -0.077)">
       <use xlink:href="#DejaVuSans-30"/>
       <use xlink:href="#DejaVuSans-2e" x="63.623047"/>
       <use xlink:href="#DejaVuSans-38" x="95.410156"/>
      </g>
     </g>
    </g>
    <g id="ytick_6">
     <g id="text_15">
      <!-- 1.0 -->
      <g style="fill: #262626" transform="translate(19.382125 17.538126)scale(0.077 -0.077)">
       <use xlink:href="#DejaVuSans-31"/>
       <use xlink:href="#DejaVuSans-2e" x="63.623047"/>
       <use xlink:href="#DejaVuSans-30" x="95.410156"/>
      </g>
     </g>
    </g>
    <g id="text_16">
     <!-- Fraction of β-Lactamases -->
     <g style="fill: #262626" transform="translate(13.635187 141.488062)rotate(-90)scale(0.084 -0.084)">
      <defs>
       <path id="DejaVuSans-46" d="M 628 4666 
L 3309 4666 
L 3309 4134 
L 1259 4134 
L 1259 2759 
L 3109 2759 
L 3109 2228 
L 1259 2228 
L 1259 0 
L 628 0 
L 628 4666 
z
" transform="scale(0.015625)"/>
       <path id="DejaVuSans-63" d="M 3122 3366 
L 3122 2828 
Q 2878 2963 2633 3030 
Q 2388 3097 2138 3097 
Q 1578 3097 1268 2742 
Q 959 2388 959 1747 
Q 959 1106 1268 751 
Q 1578 397 2138 397 
Q 2388 397 2633 464 
Q 2878 531 3122 666 
L 3122 134 
Q 2881 22 2623 -34 
Q 2366 -91 2075 -91 
Q 1284 -91 818 406 
Q 353 903 353 1747 
Q 353 2603 823 3093 
Q 1294 3584 2113 3584 
Q 2378 3584 2631 3529 
Q 2884 3475 3122 3366 
z
" transform="scale(0.015625)"/>
       <path id="DejaVuSans-69" d="M 603 3500 
L 1178 3500 
L 1178 0 
L 603 0 
L 603 3500 
z
M 603 4863 
L 1178 4863 
L 1178 4134 
L 603 4134 
L 603 4863 
z
" transform="scale(0.015625)"/>
       <path id="DejaVuSans-6f" d="M 1959 3097 
Q 1497 3097 1228 2736 
Q 959 2375 959 1747 
Q 959 1119 1226 758 
Q 1494 397 1959 397 
Q 2419 397 2687 759 
Q 2956 1122 2956 1747 
Q 2956 2369 2687 2733 
Q 2419 3097 1959 3097 
z
M 1959 3584 
Q 2709 3584 3137 3096 
Q 3566 2609 3566 1747 
Q 3566 888 3137 398 
Q 2709 -91 1959 -91 
Q 1206 -91 779 398 
Q 353 888 353 1747 
Q 353 2609 779 3096 
Q 1206 3584 1959 3584 
z
" transform="scale(0.015625)"/>
       <path id="DejaVuSans-6e" d="M 3513 2113 
L 3513 0 
L 2938 0 
L 2938 2094 
Q 2938 2591 2744 2837 
Q 2550 3084 2163 3084 
Q 1697 3084 1428 2787 
Q 1159 2491 1159 1978 
L 1159 0 
L 581 0 
L 581 3500 
L 1159 3500 
L 1159 2956 
Q 1366 3272 1645 3428 
Q 1925 3584 2291 3584 
Q 2894 3584 3203 3211 
Q 3513 2838 3513 2113 
z
" transform="scale(0.015625)"/>
       <path id="DejaVuSans-66" d="M 2375 4863 
L 2375 4384 
L 1825 4384 
Q 1516 4384 1395 4259 
Q 1275 4134 1275 3809 
L 1275 3500 
L 2222 3500 
L 2222 3053 
L 1275 3053 
L 1275 0 
L 697 0 
L 697 3053 
L 147 3053 
L 147 3500 
L 697 3500 
L 697 3744 
Q 697 4328 969 4595 
Q 1241 4863 1831 4863 
L 2375 4863 
z
" transform="scale(0.015625)"/>
       <path id="DejaVuSans-3b2" d="M 1178 216 
L 1178 -1331 
L 600 -1331 
L 600 3478 
Q 600 4903 1931 4903 
Q 3288 4903 3288 3700 
Q 3288 2844 2750 2531 
Q 3625 2250 3625 1416 
Q 3625 -66 2119 -66 
Q 1456 -66 1178 216 
z
M 1178 966 
Q 1525 425 2141 425 
Q 3041 425 3041 1406 
Q 3041 2288 1591 2219 
L 1591 2750 
Q 2725 2750 2725 3750 
Q 2725 4434 1994 4434 
Q 1178 4434 1178 3459 
L 1178 966 
z
" transform="scale(0.015625)"/>
       <path id="DejaVuSans-2d" d="M 313 2009 
L 1997 2009 
L 1997 1497 
L 313 1497 
L 313 2009 
z
" transform="scale(0.015625)"/>
       <path id="DejaVuSans-4c" d="M 628 4666 
L 1259 4666 
L 1259 531 
L 3531 531 
L 3531 0 
L 628 0 
L 628 4666 
z
" transform="scale(0.015625)"/>
       <path id="DejaVuSans-6d" d="M 3328 2828 
Q 3544 3216 3844 3400 
Q 4144 3584 4550 3584 
Q 5097 3584 5394 3201 
Q 5691 2819 5691 2113 
L 5691 0 
L 5113 0 
L 5113 2094 
Q 5113 2597 4934 2840 
Q 4756 3084 4391 3084 
Q 3944 3084 3684 2787 
Q 3425 2491 3425 1978 
L 3425 0 
L 2847 0 
L 2847 2094 
Q 2847 2600 2669 2842 
Q 2491 3084 2119 3084 
Q 1678 3084 1418 2786 
Q 1159 2488 1159 1978 
L 1159 0 
L 581 0 
L 581 3500 
L 1159 3500 
L 1159 2956 
Q 1356 3278 1631 3431 
Q 1906 3584 2284 3584 
Q 2666 3584 2933 3390 
Q 3200 3197 3328 2828 
z
" transform="scale(0.015625)"/>
       <path id="DejaVuSans-73" d="M 2834 3397 
L 2834 2853 
Q 2591 2978 2328 3040 
Q 2066 3103 1784 3103 
Q 1356 3103 1142 2972 
Q 928 2841 928 2578 
Q 928 2378 1081 2264 
Q 1234 2150 1697 2047 
L 1894 2003 
Q 2506 1872 2764 1633 
Q 3022 1394 3022 966 
Q 3022 478 2636 193 
Q 2250 -91 1575 -91 
Q 1294 -91 989 -36 
Q 684 19 347 128 
L 347 722 
Q 666 556 975 473 
Q 1284 391 1588 391 
Q 1994 391 2212 530 
Q 2431 669 2431 922 
Q 2431 1156 2273 1281 
Q 2116 1406 1581 1522 
L 1381 1569 
Q 847 1681 609 1914 
Q 372 2147 372 2553 
Q 372 3047 722 3315 
Q 1072 3584 1716 3584 
Q 2034 3584 2315 3537 
Q 2597 3491 2834 3397 
z
" transform="scale(0.015625)"/>
      </defs>
      <use xlink:href="#DejaVuSans-46"/>
      <use xlink:href="#DejaVuSans-72" x="50.269531"/>
      <use xlink:href="#DejaVuSans-61" x="91.382812"/>
      <use xlink:href="#DejaVuSans-63" x="152.662109"/>
      <use xlink:href="#DejaVuSans-74" x="207.642578"/>
      <use xlink:href="#DejaVuSans-69" x="246.851562"/>
      <use xlink:href="#DejaVuSans-6f" x="274.634766"/>
      <use xlink:href="#DejaVuSans-6e" x="335.816406"/>
      <use xlink:href="#DejaVuSans-20" x="399.195312"/>
      <use xlink:href="#DejaVuSans-6f" x="430.982422"/>
      <use xlink:href="#DejaVuSans-66" x="492.164062"/>
      <use xlink:href="#DejaVuSans-20" x="527.369141"/>
      <use xlink:href="#DejaVuSans-3b2" x="559.15625"/>
      <use xlink:href="#DejaVuSans-2d" x="622.974609"/>
      <use xlink:href="#DejaVuSans-4c" x="659.058594"/>
      <use xlink:href="#DejaVuSans-61" x="714.771484"/>
      <use xlink:href="#DejaVuSans-63" x="776.050781"/>
      <use xlink:href="#DejaVuSans-74" x="831.03125"/>
      <use xlink:href="#DejaVuSans-61" x="870.240234"/>
      <use xlink:href="#DejaVuSans-6d" x="931.519531"/>
      <use xlink:href="#DejaVuSans-61" x="1028.931641"/>
      <use xlink:href="#DejaVuSans-73" x="1090.210938"/>
      <use xlink:href="#DejaVuSans-65" x="1142.310547"/>
      <use xlink:href="#DejaVuSans-73" x="1203.833984"/>
     </g>
    </g>
   </g>
   <g id="PathCollection_1">
    <defs>
     <path id="C0_0_5101089eee" d="M 0 3 
C 0.795609 3 1.55874 2.683901 2.12132 2.12132 
C 2.683901 1.55874 3 0.795609 3 -0 
C 3 -0.795609 2.683901 -1.55874 2.12132 -2.12132 
C 1.55874 -2.683901 0.795609 -3 0 -3 
C -0.795609 -3 -1.55874 -2.683901 -2.12132 -2.12132 
C -2.683901 -1.55874 -3 -0.795609 -3 0 
C -3 0.795609 -2.683901 1.55874 -2.12132 2.12132 
C -1.55874 2.683901 -0.795609 3 0 3 
z
"/>
    </defs>
    <g clip-path="url(#pad19e44bf6)">
     <use xlink:href="#C0_0_5101089eee" x="53.809349" y="15.545571" style="fill: #4c72b0"/>
    </g>
    <g clip-path="url(#pad19e44bf6)">
     <use xlink:href="#C0_0_5101089eee" x="82.631663" y="15.31236" style="fill: #4c72b0"/>
    </g>
    <g clip-path="url(#pad19e44bf6)">
     <use xlink:href="#C0_0_5101089eee" x="88.396126" y="15.172433" style="fill: #4c72b0"/>
    </g>
    <g clip-path="url(#pad19e44bf6)">
     <use xlink:href="#C0_0_5101089eee" x="90.317614" y="14.612727" style="fill: #4c72b0"/>
    </g>
    <g clip-path="url(#pad19e44bf6)">
     <use xlink:href="#C0_0_5101089eee" x="92.239101" y="14.612727" style="fill: #4c72b0"/>
    </g>
    <g clip-path="url(#pad19e44bf6)">
     <use xlink:href="#C0_0_5101089eee" x="101.84654" y="21.888908" style="fill: #4c72b0"/>
    </g>
    <g clip-path="url(#pad19e44bf6)">
     <use xlink:href="#C0_0_5101089eee" x="103.768027" y="22.548117" style="fill: #4c72b0"/>
    </g>
    <g clip-path="url(#pad19e44bf6)">
     <use xlink:href="#C0_0_5101089eee" x="107.611002" y="22.548117" style="fill: #4c72b0"/>
    </g>
    <g clip-path="url(#pad19e44bf6)">
     <use xlink:href="#C0_0_5101089eee" x="111.453978" y="22.548117" style="fill: #4c72b0"/>
    </g>
    <g clip-path="url(#pad19e44bf6)">
     <use xlink:href="#C0_0_5101089eee" x="113.375465" y="26.743087" style="fill: #4c72b0"/>
    </g>
    <g clip-path="url(#pad19e44bf6)">
     <use xlink:href="#C0_0_5101089eee" x="115.296953" y="21.865647" style="fill: #4c72b0"/>
    </g>
    <g clip-path="url(#pad19e44bf6)">
     <use xlink:href="#C0_0_5101089eee" x="117.21844" y="22.096371" style="fill: #4c72b0"/>
    </g>
    <g clip-path="url(#pad19e44bf6)">
     <use xlink:href="#C0_0_5101089eee" x="119.139928" y="23.332388" style="fill: #4c72b0"/>
    </g>
    <g clip-path="url(#pad19e44bf6)">
     <use xlink:href="#C0_0_5101089eee" x="121.061416" y="23.332388" style="fill: #4c72b0"/>
    </g>
    <g clip-path="url(#pad19e44bf6)">
     <use xlink:href="#C0_0_5101089eee" x="122.982903" y="20.064432" style="fill: #4c72b0"/>
    </g>
    <g clip-path="url(#pad19e44bf6)">
     <use xlink:href="#C0_0_5101089eee" x="124.904391" y="17.665691" style="fill: #4c72b0"/>
    </g>
    <g clip-path="url(#pad19e44bf6)">
     <use xlink:href="#C0_0_5101089eee" x="126.825878" y="16.775758" style="fill: #4c72b0"/>
    </g>
    <g clip-path="url(#pad19e44bf6)">
     <use xlink:href="#C0_0_5101089eee" x="128.747366" y="15.539741" style="fill: #4c72b0"/>
    </g>
    <g clip-path="url(#pad19e44bf6)">
     <use xlink:href="#C0_0_5101089eee" x="130.668854" y="16.263263" style="fill: #4c72b0"/>
    </g>
    <g clip-path="url(#pad19e44bf6)">
     <use xlink:href="#C0_0_5101089eee" x="132.590341" y="22.332577" style="fill: #4c72b0"/>
    </g>
    <g clip-path="url(#pad19e44bf6)">
     <use xlink:href="#C0_0_5101089eee" x="134.511829" y="22.512362" style="fill: #4c72b0"/>
    </g>
    <g clip-path="url(#pad19e44bf6)">
     <use xlink:href="#C0_0_5101089eee" x="136.433316" y="25.117043" style="fill: #4c72b0"/>
    </g>
    <g clip-path="url(#pad19e44bf6)">
     <use xlink:href="#C0_0_5101089eee" x="138.354804" y="27.502644" style="fill: #4c72b0"/>
    </g>
    <g clip-path="url(#pad19e44bf6)">
     <use xlink:href="#C0_0_5101089eee" x="140.276292" y="27.736038" style="fill: #4c72b0"/>
    </g>
    <g clip-path="url(#pad19e44bf6)">
     <use xlink:href="#C0_0_5101089eee" x="142.197779" y="21.091811" style="fill: #4c72b0"/>
    </g>
    <g clip-path="url(#pad19e44bf6)">
     <use xlink:href="#C0_0_5101089eee" x="144.119267" y="25.750002" style="fill: #4c72b0"/>
    </g>
    <g clip-path="url(#pad19e44bf6)">
     <use xlink:href="#C0_0_5101089eee" x="146.040754" y="25.354374" style="fill: #4c72b0"/>
    </g>
    <g clip-path="url(#pad19e44bf6)">
     <use xlink:href="#C0_0_5101089eee" x="147.962242" y="24.047479" style="fill: #4c72b0"/>
    </g>
    <g clip-path="url(#pad19e44bf6)">
     <use xlink:href="#C0_0_5101089eee" x="149.88373" y="23.278908" style="fill: #4c72b0"/>
    </g>
    <g clip-path="url(#pad19e44bf6)">
     <use xlink:href="#C0_0_5101089eee" x="151.805217" y="23.915622" style="fill: #4c72b0"/>
    </g>
    <g clip-path="url(#pad19e44bf6)">
     <use xlink:href="#C0_0_5101089eee" x="153.726705" y="20.330145" style="fill: #4c72b0"/>
    </g>
    <g clip-path="url(#pad19e44bf6)">
     <use xlink:href="#C0_0_5101089eee" x="155.648192" y="19.048105" style="fill: #4c72b0"/>
    </g>
    <g clip-path="url(#pad19e44bf6)">
     <use xlink:href="#C0_0_5101089eee" x="157.56968" y="19.27538" style="fill: #4c72b0"/>
    </g>
    <g clip-path="url(#pad19e44bf6)">
     <use xlink:href="#C0_0_5101089eee" x="159.491168" y="19.26051" style="fill: #4c72b0"/>
    </g>
    <g clip-path="url(#pad19e44bf6)">
     <use xlink:href="#C0_0_5101089eee" x="161.412655" y="18.40967" style="fill: #4c72b0"/>
    </g>
    <g clip-path="url(#pad19e44bf6)">
     <use xlink:href="#C0_0_5101089eee" x="163.334143" y="18.779445" style="fill: #4c72b0"/>
    </g>
    <g clip-path="url(#pad19e44bf6)">
     <use xlink:href="#C0_0_5101089eee" x="165.25563" y="18.399242" style="fill: #4c72b0"/>
    </g>
    <g clip-path="url(#pad19e44bf6)">
     <use xlink:href="#C0_0_5101089eee" x="167.177118" y="18.326424" style="fill: #4c72b0"/>
    </g>
    <g clip-path="url(#pad19e44bf6)">
     <use xlink:href="#C0_0_5101089eee" x="169.098606" y="18.535715" style="fill: #4c72b0"/>
    </g>
    <g clip-path="url(#pad19e44bf6)">
     <use xlink:href="#C0_0_5101089eee" x="171.020093" y="21.417702" style="fill: #4c72b0"/>
    </g>
    <g clip-path="url(#pad19e44bf6)">
     <use xlink:href="#C0_0_5101089eee" x="172.941581" y="20.255342" style="fill: #4c72b0"/>
    </g>
    <g clip-path="url(#pad19e44bf6)">
     <use xlink:href="#C0_0_5101089eee" x="174.863068" y="21.142982" style="fill: #4c72b0"/>
    </g>
    <g clip-path="url(#pad19e44bf6)">
     <use xlink:href="#C0_0_5101089eee" x="176.784556" y="20.485164" style="fill: #4c72b0"/>
    </g>
    <g clip-path="url(#pad19e44bf6)">
     <use xlink:href="#C0_0_5101089eee" x="178.706044" y="20.507966" style="fill: #4c72b0"/>
    </g>
    <g clip-path="url(#pad19e44bf6)">
     <use xlink:href="#C0_0_5101089eee" x="180.627531" y="18.986208" style="fill: #4c72b0"/>
    </g>
    <g clip-path="url(#pad19e44bf6)">
     <use xlink:href="#C0_0_5101089eee" x="182.549019" y="22.088121" style="fill: #4c72b0"/>
    </g>
    <g clip-path="url(#pad19e44bf6)">
     <use xlink:href="#C0_0_5101089eee" x="184.470506" y="23.543064" style="fill: #4c72b0"/>
    </g>
    <g clip-path="url(#pad19e44bf6)">
     <use xlink:href="#C0_0_5101089eee" x="186.391994" y="23.964842" style="fill: #4c72b0"/>
    </g>
    <g clip-path="url(#pad19e44bf6)">
     <use xlink:href="#C0_0_5101089eee" x="188.313482" y="26.427381" style="fill: #4c72b0"/>
    </g>
    <g clip-path="url(#pad19e44bf6)">
     <use xlink:href="#C0_0_5101089eee" x="190.234969" y="25.092169" style="fill: #4c72b0"/>
    </g>
    <g clip-path="url(#pad19e44bf6)">
     <use xlink:href="#C0_0_5101089eee" x="192.156457" y="23.548331" style="fill: #4c72b0"/>
    </g>
    <g clip-path="url(#pad19e44bf6)">
     <use xlink:href="#C0_0_5101089eee" x="194.077944" y="20.840929" style="fill: #4c72b0"/>
    </g>
    <g clip-path="url(#pad19e44bf6)">
     <use xlink:href="#C0_0_5101089eee" x="195.999432" y="20.684497" style="fill: #4c72b0"/>
    </g>
    <g clip-path="url(#pad19e44bf6)">
     <use xlink:href="#C0_0_5101089eee" x="197.92092" y="18.376096" style="fill: #4c72b0"/>
    </g>
    <g clip-path="url(#pad19e44bf6)">
     <use xlink:href="#C0_0_5101089eee" x="199.842407" y="19.47542" style="fill: #4c72b0"/>
    </g>
    <g clip-path="url(#pad19e44bf6)">
     <use xlink:href="#C0_0_5101089eee" x="201.763895" y="17.457432" style="fill: #4c72b0"/>
    </g>
    <g clip-path="url(#pad19e44bf6)">
     <use xlink:href="#C0_0_5101089eee" x="203.685382" y="18.380948" style="fill: #4c72b0"/>
    </g>
    <g clip-path="url(#pad19e44bf6)">
     <use xlink:href="#C0_0_5101089eee" x="205.60687" y="18.841328" style="fill: #4c72b0"/>
    </g>
    <g clip-path="url(#pad19e44bf6)">
     <use xlink:href="#C0_0_5101089eee" x="207.528358" y="19.351987" style="fill: #4c72b0"/>
    </g>
    <g clip-path="url(#pad19e44bf6)">
     <use xlink:href="#C0_0_5101089eee" x="209.449845" y="18.525913" style="fill: #4c72b0"/>
    </g>
    <g clip-path="url(#pad19e44bf6)">
     <use xlink:href="#C0_0_5101089eee" x="211.371333" y="19.27125" style="fill: #4c72b0"/>
    </g>
    <g clip-path="url(#pad19e44bf6)">
     <use xlink:href="#C0_0_5101089eee" x="213.292821" y="20.30295" style="fill: #4c72b0"/>
    </g>
    <g clip-path="url(#pad19e44bf6)">
     <use xlink:href="#C0_0_5101089eee" x="215.214308" y="19.202314" style="fill: #4c72b0"/>
    </g>
    <g clip-path="url(#pad19e44bf6)">
     <use xlink:href="#C0_0_5101089eee" x="217.135796" y="19.272888" style="fill: #4c72b0"/>
    </g>
    <g clip-path="url(#pad19e44bf6)">
     <use xlink:href="#C0_0_5101089eee" x="219.057283" y="18.947334" style="fill: #4c72b0"/>
    </g>
    <g clip-path="url(#pad19e44bf6)">
     <use xlink:href="#C0_0_5101089eee" x="220.978771" y="21.218718" style="fill: #4c72b0"/>
    </g>
    <g clip-path="url(#pad19e44bf6)">
     <use xlink:href="#C0_0_5101089eee" x="222.900259" y="19.980434" style="fill: #4c72b0"/>
    </g>
    <g clip-path="url(#pad19e44bf6)">
     <use xlink:href="#C0_0_5101089eee" x="224.821746" y="24.211199" style="fill: #4c72b0"/>
    </g>
    <g clip-path="url(#pad19e44bf6)">
     <use xlink:href="#C0_0_5101089eee" x="226.743234" y="23.522002" style="fill: #4c72b0"/>
    </g>
    <g clip-path="url(#pad19e44bf6)">
     <use xlink:href="#C0_0_5101089eee" x="228.664721" y="23.411314" style="fill: #4c72b0"/>
    </g>
    <g clip-path="url(#pad19e44bf6)">
     <use xlink:href="#C0_0_5101089eee" x="230.586209" y="20.945976" style="fill: #4c72b0"/>
    </g>
    <g clip-path="url(#pad19e44bf6)">
     <use xlink:href="#C0_0_5101089eee" x="232.507697" y="26.350745" style="fill: #4c72b0"/>
    </g>
    <g clip-path="url(#pad19e44bf6)">
     <use xlink:href="#C0_0_5101089eee" x="234.429184" y="23.070319" style="fill: #4c72b0"/>
    </g>
    <g clip-path="url(#pad19e44bf6)">
     <use xlink:href="#C0_0_5101089eee" x="236.350672" y="25.323275" style="fill: #4c72b0"/>
    </g>
    <g clip-path="url(#pad19e44bf6)">
     <use xlink:href="#C0_0_5101089eee" x="238.272159" y="26.212097" style="fill: #4c72b0"/>
    </g>
    <g clip-path="url(#pad19e44bf6)">
     <use xlink:href="#C0_0_5101089eee" x="240.193647" y="29.610368" style="fill: #4c72b0"/>
    </g>
    <g clip-path="url(#pad19e44bf6)">
     <use xlink:href="#C0_0_5101089eee" x="242.115135" y="28.062043" style="fill: #4c72b0"/>
    </g>
    <g clip-path="url(#pad19e44bf6)">
     <use xlink:href="#C0_0_5101089eee" x="244.036622" y="33.376592" style="fill: #4c72b0"/>
    </g>
    <g clip-path="url(#pad19e44bf6)">
     <use xlink:href="#C0_0_5101089eee" x="245.95811" y="32.998516" style="fill: #4c72b0"/>
    </g>
    <g clip-path="url(#pad19e44bf6)">
     <use xlink:href="#C0_0_5101089eee" x="247.879597" y="34.054903" style="fill: #4c72b0"/>
    </g>
    <g clip-path="url(#pad19e44bf6)">
     <use xlink:href="#C0_0_5101089eee" x="249.801085" y="30.105248" style="fill: #4c72b0"/>
    </g>
    <g clip-path="url(#pad19e44bf6)">
     <use xlink:href="#C0_0_5101089eee" x="251.722573" y="26.140933" style="fill: #4c72b0"/>
    </g>
    <g clip-path="url(#pad19e44bf6)">
     <use xlink:href="#C0_0_5101089eee" x="253.64406" y="23.095743" style="fill: #4c72b0"/>
    </g>
    <g clip-path="url(#pad19e44bf6)">
     <use xlink:href="#C0_0_5101089eee" x="255.565548" y="20.769121" style="fill: #4c72b0"/>
    </g>
    <g clip-path="url(#pad19e44bf6)">
     <use xlink:href="#C0_0_5101089eee" x="257.487035" y="18.823913" style="fill: #4c72b0"/>
    </g>
    <g clip-path="url(#pad19e44bf6)">
     <use xlink:href="#C0_0_5101089eee" x="259.408523" y="18.823913" style="fill: #4c72b0"/>
    </g>
    <g clip-path="url(#pad19e44bf6)">
     <use xlink:href="#C0_0_5101089eee" x="261.330011" y="18.032861" style="fill: #4c72b0"/>
    </g>
    <g clip-path="url(#pad19e44bf6)">
     <use xlink:href="#C0_0_5101089eee" x="263.251498" y="16.731615" style="fill: #4c72b0"/>
    </g>
    <g clip-path="url(#pad19e44bf6)">
     <use xlink:href="#C0_0_5101089eee" x="265.172986" y="16.731615" style="fill: #4c72b0"/>
    </g>
    <g clip-path="url(#pad19e44bf6)">
     <use xlink:href="#C0_0_5101089eee" x="267.094473" y="16.731615" style="fill: #4c72b0"/>
    </g>
    <g clip-path="url(#pad19e44bf6)">
     <use xlink:href="#C0_0_5101089eee" x="270.937449" y="23.088278" style="fill: #4c72b0"/>
    </g>
    <g clip-path="url(#pad19e44bf6)">
     <use xlink:href="#C0_0_5101089eee" x="272.858936" y="28.380524" style="fill: #4c72b0"/>
    </g>
    <g clip-path="url(#pad19e44bf6)">
     <use xlink:href="#C0_0_5101089eee" x="276.701911" y="27.32108" style="fill: #4c72b0"/>
    </g>
    <g clip-path="url(#pad19e44bf6)">
     <use xlink:href="#C0_0_5101089eee" x="278.623399" y="27.32108" style="fill: #4c72b0"/>
    </g>
    <g clip-path="url(#pad19e44bf6)">
     <use xlink:href="#C0_0_5101089eee" x="280.544887" y="34.711525" style="fill: #4c72b0"/>
    </g>
    <g clip-path="url(#pad19e44bf6)">
     <use xlink:href="#C0_0_5101089eee" x="282.466374" y="34.768793" style="fill: #4c72b0"/>
    </g>
    <g clip-path="url(#pad19e44bf6)">
     <use xlink:href="#C0_0_5101089eee" x="284.387862" y="32.008876" style="fill: #4c72b0"/>
    </g>
    <g clip-path="url(#pad19e44bf6)">
     <use xlink:href="#C0_0_5101089eee" x="286.309349" y="34.09566" style="fill: #4c72b0"/>
    </g>
    <g clip-path="url(#pad19e44bf6)">
     <use xlink:href="#C0_0_5101089eee" x="288.230837" y="36.836395" style="fill: #4c72b0"/>
    </g>
    <g clip-path="url(#pad19e44bf6)">
     <use xlink:href="#C0_0_5101089eee" x="290.152325" y="29.445949" style="fill: #4c72b0"/>
    </g>
    <g clip-path="url(#pad19e44bf6)">
     <use xlink:href="#C0_0_5101089eee" x="292.073812" y="26.131287" style="fill: #4c72b0"/>
    </g>
    <g clip-path="url(#pad19e44bf6)">
     <use xlink:href="#C0_0_5101089eee" x="293.9953" y="27.742035" style="fill: #4c72b0"/>
    </g>
    <g clip-path="url(#pad19e44bf6)">
     <use xlink:href="#C0_0_5101089eee" x="295.916787" y="24.595808" style="fill: #4c72b0"/>
    </g>
    <g clip-path="url(#pad19e44bf6)">
     <use xlink:href="#C0_0_5101089eee" x="297.838275" y="25.171592" style="fill: #4c72b0"/>
    </g>
    <g clip-path="url(#pad19e44bf6)">
     <use xlink:href="#C0_0_5101089eee" x="299.759763" y="30.495977" style="fill: #4c72b0"/>
    </g>
    <g clip-path="url(#pad19e44bf6)">
     <use xlink:href="#C0_0_5101089eee" x="301.68125" y="27.396708" style="fill: #4c72b0"/>
    </g>
    <g clip-path="url(#pad19e44bf6)">
     <use xlink:href="#C0_0_5101089eee" x="303.602738" y="25.413858" style="fill: #4c72b0"/>
    </g>
    <g clip-path="url(#pad19e44bf6)">
     <use xlink:href="#C0_0_5101089eee" x="307.445713" y="29.014235" style="fill: #4c72b0"/>
    </g>
   </g>
   <g id="PolyCollection_1">
    <defs>
     <path id="m7d6c91d041" d="M 53.809349 -191.391003 
L 53.809349 -148.542668 
L 82.631663 -150.233421 
L 88.396126 -153.580065 
L 90.317614 -154.970054 
L 92.239101 -149.252288 
L 101.84654 -149.044975 
L 103.768027 -152.954177 
L 107.611002 -156.746259 
L 111.453978 -155.95579 
L 113.375465 -167.187829 
L 115.296953 -174.997884 
L 117.21844 -175.914957 
L 119.139928 -171.082146 
L 121.061416 -164.265497 
L 122.982903 -166.227325 
L 124.904391 -168.337596 
L 126.825878 -168.881208 
L 128.747366 -170.692023 
L 130.668854 -176.115824 
L 132.590341 -171.141123 
L 134.511829 -171.404586 
L 136.433316 -169.371136 
L 138.354804 -170.102394 
L 140.276292 -171.797214 
L 142.197779 -180.556271 
L 144.119267 -175.130372 
L 146.040754 -174.793388 
L 147.962242 -176.341927 
L 149.88373 -177.702064 
L 151.805217 -176.750325 
L 153.726705 -181.229824 
L 155.648192 -183.588306 
L 157.56968 -182.922594 
L 159.491168 -182.646972 
L 161.412655 -183.732155 
L 163.334143 -182.438803 
L 165.25563 -183.035758 
L 167.177118 -183.727077 
L 169.098606 -183.927043 
L 171.020093 -180.973122 
L 172.941581 -183.355924 
L 174.863068 -182.640647 
L 176.784556 -183.874069 
L 178.706044 -183.794383 
L 180.627531 -185.445419 
L 182.549019 -182.23818 
L 184.470506 -180.30198 
L 186.391994 -179.56095 
L 188.313482 -176.486834 
L 190.234969 -177.654887 
L 192.156457 -178.868835 
L 194.077944 -181.90023 
L 195.999432 -181.629395 
L 197.92092 -184.246471 
L 199.842407 -182.477603 
L 201.763895 -184.831734 
L 203.685382 -183.486021 
L 205.60687 -182.846741 
L 207.528358 -181.979274 
L 209.449845 -183.389181 
L 211.371333 -182.514441 
L 213.292821 -182.07298 
L 215.214308 -183.319306 
L 217.135796 -182.663387 
L 219.057283 -183.305088 
L 220.978771 -180.056854 
L 222.900259 -181.556779 
L 224.821746 -176.717716 
L 226.743234 -178.231608 
L 228.664721 -176.288393 
L 230.586209 -179.623323 
L 232.507697 -172.527209 
L 234.429184 -176.664275 
L 236.350672 -174.204604 
L 238.272159 -175.037447 
L 240.193647 -171.183092 
L 242.115135 -172.652999 
L 244.036622 -165.866867 
L 245.95811 -165.952949 
L 247.879597 -163.990131 
L 249.801085 -167.836168 
L 251.722573 -172.018828 
L 253.64406 -176.173278 
L 255.565548 -177.402628 
L 257.487035 -179.09057 
L 259.408523 -179.19919 
L 261.330011 -171.948682 
L 263.251498 -166.897426 
L 265.172986 -155.712542 
L 267.094473 -144.083387 
L 270.937449 -130.983936 
L 272.858936 -133.973661 
L 276.701911 -139.859496 
L 278.623399 -148.248336 
L 280.544887 -152.908937 
L 282.466374 -156.10388 
L 284.387862 -159.321169 
L 286.309349 -157.86067 
L 288.230837 -158.851965 
L 290.152325 -167.181914 
L 292.073812 -173.272448 
L 293.9953 -171.162144 
L 295.916787 -174.790389 
L 297.838275 -173.993569 
L 299.759763 -166.337677 
L 301.68125 -164.850141 
L 303.602738 -165.423489 
L 307.445713 -158.954544 
L 307.445713 -182.844862 
L 307.445713 -182.844862 
L 303.602738 -185.108394 
L 301.68125 -183.611649 
L 299.759763 -181.776867 
L 297.838275 -185.045871 
L 295.916787 -185.443968 
L 293.9953 -183.540187 
L 292.073812 -184.724215 
L 290.152325 -183.214177 
L 288.230837 -177.202206 
L 286.309349 -178.9037 
L 284.387862 -180.491532 
L 282.466374 -178.229418 
L 280.544887 -179.314251 
L 278.623399 -185.205704 
L 276.701911 -185.120296 
L 272.858936 -184.954542 
L 270.937449 -188.814174 
L 267.094473 -191.116027 
L 265.172986 -191.226769 
L 263.251498 -191.334217 
L 261.330011 -189.204133 
L 259.408523 -189.043753 
L 257.487035 -189.042976 
L 255.565548 -188.048466 
L 253.64406 -186.610887 
L 251.722573 -184.472751 
L 249.801085 -181.527661 
L 247.879597 -178.519842 
L 245.95811 -179.069649 
L 244.036622 -178.59427 
L 242.115135 -182.619215 
L 240.193647 -181.170399 
L 238.272159 -183.943975 
L 236.350672 -184.384533 
L 234.429184 -186.150874 
L 232.507697 -183.623023 
L 230.586209 -187.630984 
L 228.664721 -185.931144 
L 226.743234 -185.922709 
L 224.821746 -185.622827 
L 222.900259 -188.837322 
L 220.978771 -187.831811 
L 219.057283 -189.364252 
L 217.135796 -189.232551 
L 215.214308 -189.166237 
L 213.292821 -188.496122 
L 211.371333 -189.61078 
L 209.449845 -190.018055 
L 207.528358 -189.58184 
L 205.60687 -189.865254 
L 203.685382 -190.167591 
L 201.763895 -190.644186 
L 199.842407 -189.219209 
L 197.92092 -189.77453 
L 195.999432 -187.932109 
L 194.077944 -187.653823 
L 192.156457 -185.645315 
L 190.234969 -183.944624 
L 188.313482 -182.898479 
L 186.391994 -184.787346 
L 184.470506 -185.000395 
L 182.549019 -186.072519 
L 180.627531 -188.948455 
L 178.706044 -187.587005 
L 176.784556 -187.590214 
L 174.863068 -187.283676 
L 172.941581 -188.041841 
L 171.020093 -187.489448 
L 169.098606 -189.903065 
L 167.177118 -190.058404 
L 165.25563 -190.198705 
L 163.334143 -189.984641 
L 161.412655 -189.98039 
L 159.491168 -189.484662 
L 157.56968 -189.468323 
L 155.648192 -189.52083 
L 153.726705 -188.857691 
L 151.805217 -186.069636 
L 149.88373 -186.455698 
L 147.962242 -186.063589 
L 146.040754 -185.047495 
L 144.119267 -184.472368 
L 142.197779 -188.026724 
L 140.276292 -183.266833 
L 138.354804 -183.544505 
L 136.433316 -185.12441 
L 134.511829 -186.784968 
L 132.590341 -186.819618 
L 130.668854 -191.502216 
L 128.747366 -191.599849 
L 126.825878 -191.33924 
L 124.904391 -191.029966 
L 122.982903 -189.338267 
L 121.061416 -186.993931 
L 119.139928 -187.052254 
L 117.21844 -187.335703 
L 115.296953 -187.501379 
L 113.375465 -184.764703 
L 111.453978 -187.142156 
L 107.611002 -187.147958 
L 103.768027 -187.118868 
L 101.84654 -187.218654 
L 92.239101 -191.562029 
L 90.317614 -191.642098 
L 88.396126 -191.518979 
L 82.631663 -191.458371 
L 53.809349 -191.391003 
z
" style="stroke: #4c72b0; stroke-opacity: 0.3"/>
    </defs>
    <g clip-path="url(#pad19e44bf6)">
     <use xlink:href="#m7d6c91d041" x="0" y="206.561781" style="fill: #4c72b0; fill-opacity: 0.3; stroke: #4c72b0; stroke-opacity: 0.3"/>
    </g>
   </g>
   <g id="PathCollection_2">
    <defs>
     <path id="C1_0_b6ebabeea9" d="M 0 3 
C 0.795609 3 1.55874 2.683901 2.12132 2.12132 
C 2.683901 1.55874 3 0.795609 3 -0 
C 3 -0.795609 2.683901 -1.55874 2.12132 -2.12132 
C 1.55874 -2.683901 0.795609 -3 0 -3 
C -0.795609 -3 -1.55874 -2.683901 -2.12132 -2.12132 
C -2.683901 -1.55874 -3 -0.795609 -3 0 
C -3 0.795609 -2.683901 1.55874 -2.12132 2.12132 
C -1.55874 2.683901 -0.795609 3 0 3 
z
"/>
    </defs>
    <g clip-path="url(#pad19e44bf6)">
     <use xlink:href="#C1_0_b6ebabeea9" x="53.809349" y="142.88344" style="fill: #dd8452"/>
    </g>
    <g clip-path="url(#pad19e44bf6)">
     <use xlink:href="#C1_0_b6ebabeea9" x="107.611002" y="144.897871" style="fill: #dd8452"/>
    </g>
    <g clip-path="url(#pad19e44bf6)">
     <use xlink:href="#C1_0_b6ebabeea9" x="117.21844" y="147.615337" style="fill: #dd8452"/>
    </g>
    <g clip-path="url(#pad19e44bf6)">
     <use xlink:href="#C1_0_b6ebabeea9" x="119.139928" y="146.939026" style="fill: #dd8452"/>
    </g>
    <g clip-path="url(#pad19e44bf6)">
     <use xlink:href="#C1_0_b6ebabeea9" x="121.061416" y="153.288193" style="fill: #dd8452"/>
    </g>
    <g clip-path="url(#pad19e44bf6)">
     <use xlink:href="#C1_0_b6ebabeea9" x="122.982903" y="156.75964" style="fill: #dd8452"/>
    </g>
    <g clip-path="url(#pad19e44bf6)">
     <use xlink:href="#C1_0_b6ebabeea9" x="126.825878" y="152.162053" style="fill: #dd8452"/>
    </g>
    <g clip-path="url(#pad19e44bf6)">
     <use xlink:href="#C1_0_b6ebabeea9" x="134.511829" y="152.872202" style="fill: #dd8452"/>
    </g>
    <g clip-path="url(#pad19e44bf6)">
     <use xlink:href="#C1_0_b6ebabeea9" x="136.433316" y="151.648243" style="fill: #dd8452"/>
    </g>
    <g clip-path="url(#pad19e44bf6)">
     <use xlink:href="#C1_0_b6ebabeea9" x="138.354804" y="150.293377" style="fill: #dd8452"/>
    </g>
    <g clip-path="url(#pad19e44bf6)">
     <use xlink:href="#C1_0_b6ebabeea9" x="140.276292" y="150.059982" style="fill: #dd8452"/>
    </g>
    <g clip-path="url(#pad19e44bf6)">
     <use xlink:href="#C1_0_b6ebabeea9" x="142.197779" y="156.70421" style="fill: #dd8452"/>
    </g>
    <g clip-path="url(#pad19e44bf6)">
     <use xlink:href="#C1_0_b6ebabeea9" x="144.119267" y="152.046019" style="fill: #dd8452"/>
    </g>
    <g clip-path="url(#pad19e44bf6)">
     <use xlink:href="#C1_0_b6ebabeea9" x="146.040754" y="152.296943" style="fill: #dd8452"/>
    </g>
    <g clip-path="url(#pad19e44bf6)">
     <use xlink:href="#C1_0_b6ebabeea9" x="147.962242" y="153.500115" style="fill: #dd8452"/>
    </g>
    <g clip-path="url(#pad19e44bf6)">
     <use xlink:href="#C1_0_b6ebabeea9" x="149.88373" y="154.268687" style="fill: #dd8452"/>
    </g>
    <g clip-path="url(#pad19e44bf6)">
     <use xlink:href="#C1_0_b6ebabeea9" x="151.805217" y="153.631972" style="fill: #dd8452"/>
    </g>
    <g clip-path="url(#pad19e44bf6)">
     <use xlink:href="#C1_0_b6ebabeea9" x="153.726705" y="157.283371" style="fill: #dd8452"/>
    </g>
    <g clip-path="url(#pad19e44bf6)">
     <use xlink:href="#C1_0_b6ebabeea9" x="155.648192" y="158.56541" style="fill: #dd8452"/>
    </g>
    <g clip-path="url(#pad19e44bf6)">
     <use xlink:href="#C1_0_b6ebabeea9" x="157.56968" y="158.338136" style="fill: #dd8452"/>
    </g>
    <g clip-path="url(#pad19e44bf6)">
     <use xlink:href="#C1_0_b6ebabeea9" x="159.491168" y="158.353005" style="fill: #dd8452"/>
    </g>
    <g clip-path="url(#pad19e44bf6)">
     <use xlink:href="#C1_0_b6ebabeea9" x="161.412655" y="159.203845" style="fill: #dd8452"/>
    </g>
    <g clip-path="url(#pad19e44bf6)">
     <use xlink:href="#C1_0_b6ebabeea9" x="163.334143" y="158.768149" style="fill: #dd8452"/>
    </g>
    <g clip-path="url(#pad19e44bf6)">
     <use xlink:href="#C1_0_b6ebabeea9" x="165.25563" y="159.148353" style="fill: #dd8452"/>
    </g>
    <g clip-path="url(#pad19e44bf6)">
     <use xlink:href="#C1_0_b6ebabeea9" x="167.177118" y="159.426698" style="fill: #dd8452"/>
    </g>
    <g clip-path="url(#pad19e44bf6)">
     <use xlink:href="#C1_0_b6ebabeea9" x="169.098606" y="159.217407" style="fill: #dd8452"/>
    </g>
    <g clip-path="url(#pad19e44bf6)">
     <use xlink:href="#C1_0_b6ebabeea9" x="171.020093" y="156.450102" style="fill: #dd8452"/>
    </g>
    <g clip-path="url(#pad19e44bf6)">
     <use xlink:href="#C1_0_b6ebabeea9" x="172.941581" y="157.658453" style="fill: #dd8452"/>
    </g>
    <g clip-path="url(#pad19e44bf6)">
     <use xlink:href="#C1_0_b6ebabeea9" x="174.863068" y="156.885569" style="fill: #dd8452"/>
    </g>
    <g clip-path="url(#pad19e44bf6)">
     <use xlink:href="#C1_0_b6ebabeea9" x="176.784556" y="157.362239" style="fill: #dd8452"/>
    </g>
    <g clip-path="url(#pad19e44bf6)">
     <use xlink:href="#C1_0_b6ebabeea9" x="178.706044" y="157.339437" style="fill: #dd8452"/>
    </g>
    <g clip-path="url(#pad19e44bf6)">
     <use xlink:href="#C1_0_b6ebabeea9" x="180.627531" y="158.917736" style="fill: #dd8452"/>
    </g>
    <g clip-path="url(#pad19e44bf6)">
     <use xlink:href="#C1_0_b6ebabeea9" x="182.549019" y="155.804751" style="fill: #dd8452"/>
    </g>
    <g clip-path="url(#pad19e44bf6)">
     <use xlink:href="#C1_0_b6ebabeea9" x="184.470506" y="154.235053" style="fill: #dd8452"/>
    </g>
    <g clip-path="url(#pad19e44bf6)">
     <use xlink:href="#C1_0_b6ebabeea9" x="186.391994" y="153.788896" style="fill: #dd8452"/>
    </g>
    <g clip-path="url(#pad19e44bf6)">
     <use xlink:href="#C1_0_b6ebabeea9" x="188.313482" y="151.326357" style="fill: #dd8452"/>
    </g>
    <g clip-path="url(#pad19e44bf6)">
     <use xlink:href="#C1_0_b6ebabeea9" x="190.234969" y="150.837147" style="fill: #dd8452"/>
    </g>
    <g clip-path="url(#pad19e44bf6)">
     <use xlink:href="#C1_0_b6ebabeea9" x="192.156457" y="154.182064" style="fill: #dd8452"/>
    </g>
    <g clip-path="url(#pad19e44bf6)">
     <use xlink:href="#C1_0_b6ebabeea9" x="195.999432" y="156.711159" style="fill: #dd8452"/>
    </g>
    <g clip-path="url(#pad19e44bf6)">
     <use xlink:href="#C1_0_b6ebabeea9" x="197.92092" y="157.148577" style="fill: #dd8452"/>
    </g>
    <g clip-path="url(#pad19e44bf6)">
     <use xlink:href="#C1_0_b6ebabeea9" x="199.842407" y="159.175141" style="fill: #dd8452"/>
    </g>
    <g clip-path="url(#pad19e44bf6)">
     <use xlink:href="#C1_0_b6ebabeea9" x="201.763895" y="160.070074" style="fill: #dd8452"/>
    </g>
    <g clip-path="url(#pad19e44bf6)">
     <use xlink:href="#C1_0_b6ebabeea9" x="203.685382" y="159.081101" style="fill: #dd8452"/>
    </g>
    <g clip-path="url(#pad19e44bf6)">
     <use xlink:href="#C1_0_b6ebabeea9" x="207.528358" y="158.523941" style="fill: #dd8452"/>
    </g>
    <g clip-path="url(#pad19e44bf6)">
     <use xlink:href="#C1_0_b6ebabeea9" x="209.449845" y="158.938233" style="fill: #dd8452"/>
    </g>
    <g clip-path="url(#pad19e44bf6)">
     <use xlink:href="#C1_0_b6ebabeea9" x="211.371333" y="159.63071" style="fill: #dd8452"/>
    </g>
    <g clip-path="url(#pad19e44bf6)">
     <use xlink:href="#C1_0_b6ebabeea9" x="213.292821" y="159.269641" style="fill: #dd8452"/>
    </g>
    <g clip-path="url(#pad19e44bf6)">
     <use xlink:href="#C1_0_b6ebabeea9" x="215.214308" y="160.24017" style="fill: #dd8452"/>
    </g>
    <g clip-path="url(#pad19e44bf6)">
     <use xlink:href="#C1_0_b6ebabeea9" x="217.135796" y="160.016687" style="fill: #dd8452"/>
    </g>
    <g clip-path="url(#pad19e44bf6)">
     <use xlink:href="#C1_0_b6ebabeea9" x="219.057283" y="160.051413" style="fill: #dd8452"/>
    </g>
    <g clip-path="url(#pad19e44bf6)">
     <use xlink:href="#C1_0_b6ebabeea9" x="220.978771" y="157.854141" style="fill: #dd8452"/>
    </g>
    <g clip-path="url(#pad19e44bf6)">
     <use xlink:href="#C1_0_b6ebabeea9" x="222.900259" y="158.330535" style="fill: #dd8452"/>
    </g>
    <g clip-path="url(#pad19e44bf6)">
     <use xlink:href="#C1_0_b6ebabeea9" x="224.821746" y="155.084481" style="fill: #dd8452"/>
    </g>
    <g clip-path="url(#pad19e44bf6)">
     <use xlink:href="#C1_0_b6ebabeea9" x="226.743234" y="155.773678" style="fill: #dd8452"/>
    </g>
    <g clip-path="url(#pad19e44bf6)">
     <use xlink:href="#C1_0_b6ebabeea9" x="228.664721" y="155.443259" style="fill: #dd8452"/>
    </g>
    <g clip-path="url(#pad19e44bf6)">
     <use xlink:href="#C1_0_b6ebabeea9" x="230.586209" y="151.67131" style="fill: #dd8452"/>
    </g>
    <g clip-path="url(#pad19e44bf6)">
     <use xlink:href="#C1_0_b6ebabeea9" x="234.429184" y="152.15758" style="fill: #dd8452"/>
    </g>
    <g clip-path="url(#pad19e44bf6)">
     <use xlink:href="#C1_0_b6ebabeea9" x="236.350672" y="154.818835" style="fill: #dd8452"/>
    </g>
    <g clip-path="url(#pad19e44bf6)">
     <use xlink:href="#C1_0_b6ebabeea9" x="238.272159" y="154.603961" style="fill: #dd8452"/>
    </g>
    <g clip-path="url(#pad19e44bf6)">
     <use xlink:href="#C1_0_b6ebabeea9" x="240.193647" y="153.616469" style="fill: #dd8452"/>
    </g>
    <g clip-path="url(#pad19e44bf6)">
     <use xlink:href="#C1_0_b6ebabeea9" x="242.115135" y="157.243852" style="fill: #dd8452"/>
    </g>
    <g clip-path="url(#pad19e44bf6)">
     <use xlink:href="#C1_0_b6ebabeea9" x="244.036622" y="153.570223" style="fill: #dd8452"/>
    </g>
    <g clip-path="url(#pad19e44bf6)">
     <use xlink:href="#C1_0_b6ebabeea9" x="245.95811" y="153.046733" style="fill: #dd8452"/>
    </g>
    <g clip-path="url(#pad19e44bf6)">
     <use xlink:href="#C1_0_b6ebabeea9" x="247.879597" y="152.740745" style="fill: #dd8452"/>
    </g>
    <g clip-path="url(#pad19e44bf6)">
     <use xlink:href="#C1_0_b6ebabeea9" x="249.801085" y="153.378292" style="fill: #dd8452"/>
    </g>
    <g clip-path="url(#pad19e44bf6)">
     <use xlink:href="#C1_0_b6ebabeea9" x="251.722573" y="154.124232" style="fill: #dd8452"/>
    </g>
    <g clip-path="url(#pad19e44bf6)">
     <use xlink:href="#C1_0_b6ebabeea9" x="255.565548" y="151.760857" style="fill: #dd8452"/>
    </g>
    <g clip-path="url(#pad19e44bf6)">
     <use xlink:href="#C1_0_b6ebabeea9" x="257.487035" y="150.980538" style="fill: #dd8452"/>
    </g>
    <g clip-path="url(#pad19e44bf6)">
     <use xlink:href="#C1_0_b6ebabeea9" x="276.701911" y="150.893698" style="fill: #dd8452"/>
    </g>
    <g clip-path="url(#pad19e44bf6)">
     <use xlink:href="#C1_0_b6ebabeea9" x="278.623399" y="150.350364" style="fill: #dd8452"/>
    </g>
    <g clip-path="url(#pad19e44bf6)">
     <use xlink:href="#C1_0_b6ebabeea9" x="280.544887" y="146.483141" style="fill: #dd8452"/>
    </g>
    <g clip-path="url(#pad19e44bf6)">
     <use xlink:href="#C1_0_b6ebabeea9" x="284.387862" y="152.357456" style="fill: #dd8452"/>
    </g>
    <g clip-path="url(#pad19e44bf6)">
     <use xlink:href="#C1_0_b6ebabeea9" x="286.309349" y="153.098117" style="fill: #dd8452"/>
    </g>
    <g clip-path="url(#pad19e44bf6)">
     <use xlink:href="#C1_0_b6ebabeea9" x="288.230837" y="151.416825" style="fill: #dd8452"/>
    </g>
    <g clip-path="url(#pad19e44bf6)">
     <use xlink:href="#C1_0_b6ebabeea9" x="290.152325" y="151.201577" style="fill: #dd8452"/>
    </g>
    <g clip-path="url(#pad19e44bf6)">
     <use xlink:href="#C1_0_b6ebabeea9" x="292.073812" y="154.990813" style="fill: #dd8452"/>
    </g>
    <g clip-path="url(#pad19e44bf6)">
     <use xlink:href="#C1_0_b6ebabeea9" x="295.916787" y="152.156641" style="fill: #dd8452"/>
    </g>
    <g clip-path="url(#pad19e44bf6)">
     <use xlink:href="#C1_0_b6ebabeea9" x="297.838275" y="152.744398" style="fill: #dd8452"/>
    </g>
    <g clip-path="url(#pad19e44bf6)">
     <use xlink:href="#C1_0_b6ebabeea9" x="301.68125" y="153.622699" style="fill: #dd8452"/>
    </g>
    <g clip-path="url(#pad19e44bf6)">
     <use xlink:href="#C1_0_b6ebabeea9" x="303.602738" y="153.101367" style="fill: #dd8452"/>
    </g>
   </g>
   <g id="PolyCollection_2">
    <defs>
     <path id="mec58f85e90" d="M 53.809349 -78.188365 
L 53.809349 -55.519794 
L 107.611002 -54.672112 
L 117.21844 -52.786251 
L 119.139928 -52.944135 
L 121.061416 -48.727312 
L 122.982903 -46.335334 
L 126.825878 -49.537784 
L 134.511829 -49.257988 
L 136.433316 -50.526735 
L 138.354804 -51.83353 
L 140.276292 -52.111202 
L 142.197779 -47.35131 
L 144.119267 -50.905667 
L 146.040754 -50.444369 
L 147.962242 -49.512379 
L 149.88373 -49.12027 
L 151.805217 -49.506331 
L 153.726705 -46.666568 
L 155.648192 -46.003429 
L 157.56968 -46.055936 
L 159.491168 -46.039596 
L 161.412655 -45.543868 
L 163.334143 -45.591327 
L 165.25563 -45.377263 
L 167.177118 -45.359043 
L 169.098606 -45.514383 
L 171.020093 -47.824549 
L 172.941581 -47.240041 
L 174.863068 -47.905114 
L 176.784556 -47.734884 
L 178.706044 -47.738093 
L 180.627531 -46.336431 
L 182.549019 -49.211581 
L 184.470506 -50.376797 
L 186.391994 -50.61206 
L 188.313482 -52.500927 
L 190.234969 -52.819948 
L 192.156457 -49.767784 
L 195.999432 -47.846233 
L 197.92092 -47.398685 
L 199.842407 -45.651438 
L 201.763895 -44.797323 
L 203.685382 -45.380405 
L 207.528358 -45.681221 
L 209.449845 -45.469475 
L 211.371333 -45.173518 
L 213.292821 -45.671682 
L 215.214308 -45.093032 
L 217.135796 -45.125307 
L 219.057283 -45.116941 
L 220.978771 -46.492767 
L 222.900259 -46.141217 
L 224.821746 -48.517728 
L 226.743234 -48.217846 
L 228.664721 -48.370259 
L 230.586209 -51.424783 
L 234.429184 -51.012327 
L 236.350672 -49.007237 
L 238.272159 -49.156547 
L 240.193647 -49.87949 
L 242.115135 -46.822809 
L 244.036622 -49.350149 
L 245.95811 -49.631557 
L 247.879597 -49.71356 
L 249.801085 -49.055167 
L 251.722573 -48.829486 
L 255.565548 -48.471268 
L 257.487035 -49.055675 
L 276.701911 -48.986244 
L 278.623399 -49.532818 
L 280.544887 -51.172927 
L 284.387862 -49.058837 
L 286.309349 -48.408659 
L 288.230837 -49.823694 
L 290.152325 -49.802559 
L 292.073812 -48.00425 
L 295.916787 -49.947418 
L 297.838275 -49.546389 
L 301.68125 -48.850013 
L 303.602738 -49.30913 
L 303.602738 -61.677737 
L 303.602738 -61.677737 
L 301.68125 -61.018304 
L 297.838275 -61.783521 
L 295.916787 -61.994962 
L 292.073812 -58.169185 
L 290.152325 -65.186296 
L 288.230837 -64.341464 
L 286.309349 -63.689461 
L 284.387862 -64.204703 
L 280.544887 -77.255526 
L 278.623399 -69.606644 
L 276.701911 -70.09352 
L 257.487035 -68.909964 
L 255.565548 -67.982305 
L 251.722573 -59.565867 
L 249.801085 -61.310109 
L 247.879597 -60.833331 
L 245.95811 -59.851956 
L 244.036622 -58.896975 
L 242.115135 -53.787103 
L 240.193647 -57.685536 
L 238.272159 -56.549926 
L 236.350672 -56.417872 
L 234.429184 -59.780553 
L 230.586209 -60.213681 
L 228.664721 -55.847421 
L 226.743234 -55.344371 
L 224.821746 -56.858263 
L 222.900259 -53.11931 
L 220.978771 -53.758157 
L 219.057283 -50.481582 
L 217.135796 -50.669665 
L 215.214308 -49.812162 
L 213.292821 -50.893957 
L 211.371333 -51.175885 
L 209.449845 -52.735139 
L 207.528358 -53.222843 
L 203.685382 -52.308509 
L 201.763895 -51.128191 
L 199.842407 -51.634886 
L 197.92092 -53.444094 
L 195.999432 -53.587682 
L 192.156457 -56.576383 
L 190.234969 -59.591983 
L 188.313482 -58.855466 
L 186.391994 -55.78135 
L 184.470506 -55.013805 
L 182.549019 -52.942879 
L 180.627531 -49.713044 
L 178.706044 -51.4362 
L 176.784556 -51.356514 
L 174.863068 -52.367494 
L 172.941581 -51.786942 
L 171.020093 -54.22912 
L 169.098606 -51.399968 
L 167.177118 -51.599935 
L 165.25563 -52.54021 
L 163.334143 -53.137165 
L 161.412655 -51.76479 
L 159.491168 -52.849973 
L 157.56968 -52.574351 
L 155.648192 -51.908639 
L 153.726705 -54.267121 
L 151.805217 -58.825643 
L 149.88373 -57.873904 
L 147.962242 -59.234041 
L 146.040754 -60.662012 
L 144.119267 -60.15481 
L 142.197779 -54.728911 
L 140.276292 -63.487968 
L 138.354804 -65.182789 
L 136.433316 -66.483152 
L 134.511829 -68.698344 
L 126.825878 -70.218686 
L 122.982903 -63.924842 
L 121.061416 -66.834015 
L 119.139928 -73.324927 
L 117.21844 -70.221975 
L 107.611002 -73.742742 
L 53.809349 -78.188365 
z
" style="stroke: #dd8452; stroke-opacity: 0.3"/>
    </defs>
    <g clip-path="url(#pad19e44bf6)">
     <use xlink:href="#mec58f85e90" x="0" y="206.561781" style="fill: #dd8452; fill-opacity: 0.3; stroke: #dd8452; stroke-opacity: 0.3"/>
    </g>
   </g>
   <g id="PathCollection_3">
    <defs>
     <path id="C2_0_2b8772c837" d="M 0 3 
C 0.795609 3 1.55874 2.683901 2.12132 2.12132 
C 2.683901 1.55874 3 0.795609 3 -0 
C 3 -0.795609 2.683901 -1.55874 2.12132 -2.12132 
C 1.55874 -2.683901 0.795609 -3 0 -3 
C -0.795609 -3 -1.55874 -2.683901 -2.12132 -2.12132 
C -2.683901 -1.55874 -3 -0.795609 -3 0 
C -3 0.795609 -2.683901 1.55874 -2.12132 2.12132 
C -1.55874 2.683901 -0.795609 3 0 3 
z
"/>
    </defs>
    <g clip-path="url(#pad19e44bf6)">
     <use xlink:href="#C2_0_2b8772c837" x="111.453978" y="161.422141" style="fill: #55a868"/>
    </g>
    <g clip-path="url(#pad19e44bf6)">
     <use xlink:href="#C2_0_2b8772c837" x="140.276292" y="161.717921" style="fill: #55a868"/>
    </g>
    <g clip-path="url(#pad19e44bf6)">
     <use xlink:href="#C2_0_2b8772c837" x="142.197779" y="161.824292" style="fill: #55a868"/>
    </g>
    <g clip-path="url(#pad19e44bf6)">
     <use xlink:href="#C2_0_2b8772c837" x="157.56968" y="162.437511" style="fill: #55a868"/>
    </g>
    <g clip-path="url(#pad19e44bf6)">
     <use xlink:href="#C2_0_2b8772c837" x="171.020093" y="162.524837" style="fill: #55a868"/>
    </g>
    <g clip-path="url(#pad19e44bf6)">
     <use xlink:href="#C2_0_2b8772c837" x="176.784556" y="162.613931" style="fill: #55a868"/>
    </g>
    <g clip-path="url(#pad19e44bf6)">
     <use xlink:href="#C2_0_2b8772c837" x="178.706044" y="162.594241" style="fill: #55a868"/>
    </g>
    <g clip-path="url(#pad19e44bf6)">
     <use xlink:href="#C2_0_2b8772c837" x="180.627531" y="162.696339" style="fill: #55a868"/>
    </g>
    <g clip-path="url(#pad19e44bf6)">
     <use xlink:href="#C2_0_2b8772c837" x="184.470506" y="162.579339" style="fill: #55a868"/>
    </g>
    <g clip-path="url(#pad19e44bf6)">
     <use xlink:href="#C2_0_2b8772c837" x="186.391994" y="162.502184" style="fill: #55a868"/>
    </g>
    <g clip-path="url(#pad19e44bf6)">
     <use xlink:href="#C2_0_2b8772c837" x="194.077944" y="162.156515" style="fill: #55a868"/>
    </g>
    <g clip-path="url(#pad19e44bf6)">
     <use xlink:href="#C2_0_2b8772c837" x="195.999432" y="161.821355" style="fill: #55a868"/>
    </g>
    <g clip-path="url(#pad19e44bf6)">
     <use xlink:href="#C2_0_2b8772c837" x="199.842407" y="161.672024" style="fill: #55a868"/>
    </g>
    <g clip-path="url(#pad19e44bf6)">
     <use xlink:href="#C2_0_2b8772c837" x="203.685382" y="161.704908" style="fill: #55a868"/>
    </g>
    <g clip-path="url(#pad19e44bf6)">
     <use xlink:href="#C2_0_2b8772c837" x="207.528358" y="161.694026" style="fill: #55a868"/>
    </g>
    <g clip-path="url(#pad19e44bf6)">
     <use xlink:href="#C2_0_2b8772c837" x="209.449845" y="161.756188" style="fill: #55a868"/>
    </g>
    <g clip-path="url(#pad19e44bf6)">
     <use xlink:href="#C2_0_2b8772c837" x="213.292821" y="162.091472" style="fill: #55a868"/>
    </g>
    <g clip-path="url(#pad19e44bf6)">
     <use xlink:href="#C2_0_2b8772c837" x="215.214308" y="161.772936" style="fill: #55a868"/>
    </g>
    <g clip-path="url(#pad19e44bf6)">
     <use xlink:href="#C2_0_2b8772c837" x="217.135796" y="161.872046" style="fill: #55a868"/>
    </g>
    <g clip-path="url(#pad19e44bf6)">
     <use xlink:href="#C2_0_2b8772c837" x="224.821746" y="161.907183" style="fill: #55a868"/>
    </g>
    <g clip-path="url(#pad19e44bf6)">
     <use xlink:href="#C2_0_2b8772c837" x="226.743234" y="162.019915" style="fill: #55a868"/>
    </g>
    <g clip-path="url(#pad19e44bf6)">
     <use xlink:href="#C2_0_2b8772c837" x="234.429184" y="161.402152" style="fill: #55a868"/>
    </g>
    <g clip-path="url(#pad19e44bf6)">
     <use xlink:href="#C2_0_2b8772c837" x="236.350672" y="160.508966" style="fill: #55a868"/>
    </g>
    <g clip-path="url(#pad19e44bf6)">
     <use xlink:href="#C2_0_2b8772c837" x="238.272159" y="160.317758" style="fill: #55a868"/>
    </g>
    <g clip-path="url(#pad19e44bf6)">
     <use xlink:href="#C2_0_2b8772c837" x="240.193647" y="159.335577" style="fill: #55a868"/>
    </g>
    <g clip-path="url(#pad19e44bf6)">
     <use xlink:href="#C2_0_2b8772c837" x="242.115135" y="159.294534" style="fill: #55a868"/>
    </g>
    <g clip-path="url(#pad19e44bf6)">
     <use xlink:href="#C2_0_2b8772c837" x="244.036622" y="159.427315" style="fill: #55a868"/>
    </g>
    <g clip-path="url(#pad19e44bf6)">
     <use xlink:href="#C2_0_2b8772c837" x="245.95811" y="160.096219" style="fill: #55a868"/>
    </g>
    <g clip-path="url(#pad19e44bf6)">
     <use xlink:href="#C2_0_2b8772c837" x="247.879597" y="159.832122" style="fill: #55a868"/>
    </g>
    <g clip-path="url(#pad19e44bf6)">
     <use xlink:href="#C2_0_2b8772c837" x="249.801085" y="159.249412" style="fill: #55a868"/>
    </g>
    <g clip-path="url(#pad19e44bf6)">
     <use xlink:href="#C2_0_2b8772c837" x="251.722573" y="157.356971" style="fill: #55a868"/>
    </g>
    <g clip-path="url(#pad19e44bf6)">
     <use xlink:href="#C2_0_2b8772c837" x="257.487035" y="157.231092" style="fill: #55a868"/>
    </g>
    <g clip-path="url(#pad19e44bf6)">
     <use xlink:href="#C2_0_2b8772c837" x="267.094473" y="155.597325" style="fill: #55a868"/>
    </g>
    <g clip-path="url(#pad19e44bf6)">
     <use xlink:href="#C2_0_2b8772c837" x="278.623399" y="155.842453" style="fill: #55a868"/>
    </g>
    <g clip-path="url(#pad19e44bf6)">
     <use xlink:href="#C2_0_2b8772c837" x="284.387862" y="157.29289" style="fill: #55a868"/>
    </g>
    <g clip-path="url(#pad19e44bf6)">
     <use xlink:href="#C2_0_2b8772c837" x="288.230837" y="157.862143" style="fill: #55a868"/>
    </g>
    <g clip-path="url(#pad19e44bf6)">
     <use xlink:href="#C2_0_2b8772c837" x="290.152325" y="157.564153" style="fill: #55a868"/>
    </g>
    <g clip-path="url(#pad19e44bf6)">
     <use xlink:href="#C2_0_2b8772c837" x="295.916787" y="155.361232" style="fill: #55a868"/>
    </g>
    <g clip-path="url(#pad19e44bf6)">
     <use xlink:href="#C2_0_2b8772c837" x="297.838275" y="153.769291" style="fill: #55a868"/>
    </g>
    <g clip-path="url(#pad19e44bf6)">
     <use xlink:href="#C2_0_2b8772c837" x="303.602738" y="151.088649" style="fill: #55a868"/>
    </g>
   </g>
   <g id="PolyCollection_3">
    <defs>
     <path id="m2e4b2ce9ac" d="M 111.453978 -51.600707 
L 111.453978 -43.989437 
L 140.276292 -43.918737 
L 142.197779 -43.902727 
L 157.56968 -43.756353 
L 171.020093 -43.735291 
L 176.784556 -43.715537 
L 178.706044 -43.726063 
L 180.627531 -43.694509 
L 184.470506 -43.722724 
L 186.391994 -43.750429 
L 194.077944 -43.875985 
L 195.999432 -43.979391 
L 199.842407 -44.013047 
L 203.685382 -44.005131 
L 207.528358 -43.998658 
L 209.449845 -43.988851 
L 213.292821 -43.885407 
L 215.214308 -44.023565 
L 217.135796 -43.99964 
L 224.821746 -43.991175 
L 226.743234 -43.914845 
L 234.429184 -44.286037 
L 236.350672 -44.972772 
L 238.272159 -45.033926 
L 240.193647 -45.653579 
L 242.115135 -45.663435 
L 244.036622 -45.473001 
L 245.95811 -44.924478 
L 247.879597 -45.005875 
L 249.801085 -45.496743 
L 251.722573 -45.933869 
L 257.487035 -46.033921 
L 267.094473 -47.30738 
L 278.623399 -47.231837 
L 284.387862 -46.148845 
L 288.230837 -46.426279 
L 290.152325 -46.587021 
L 295.916787 -47.681355 
L 297.838275 -48.601827 
L 303.602738 -50.169836 
L 303.602738 -64.657087 
L 303.602738 -64.657087 
L 297.838275 -60.926487 
L 295.916787 -58.325121 
L 290.152325 -54.359619 
L 288.230837 -53.841739 
L 284.387862 -60.236447 
L 278.623399 -61.467233 
L 267.094473 -62.314476 
L 257.487035 -60.515896 
L 251.722573 -60.54987 
L 249.801085 -52.303193 
L 247.879597 -51.689427 
L 245.95811 -50.775565 
L 244.036622 -51.341616 
L 242.115135 -50.959155 
L 240.193647 -50.74063 
L 238.272159 -49.509045 
L 236.350672 -48.889229 
L 234.429184 -48.099632 
L 226.743234 -47.162952 
L 224.821746 -46.906321 
L 217.135796 -47.096641 
L 215.214308 -47.639108 
L 213.292821 -47.207474 
L 209.449845 -48.38202 
L 207.528358 -48.663089 
L 203.685382 -48.3478 
L 199.842407 -48.525185 
L 195.999432 -47.645095 
L 194.077944 -46.470991 
L 186.391994 -45.477149 
L 184.470506 -45.312796 
L 180.627531 -44.675777 
L 178.706044 -45.040755 
L 176.784556 -45.097724 
L 171.020093 -45.626325 
L 157.56968 -46.102139 
L 142.197779 -49.266664 
L 140.276292 -50.063036 
L 111.453978 -51.600707 
z
" style="stroke: #55a868; stroke-opacity: 0.3"/>
    </defs>
    <g clip-path="url(#pad19e44bf6)">
     <use xlink:href="#m2e4b2ce9ac" x="0" y="206.561781" style="fill: #55a868; fill-opacity: 0.3; stroke: #55a868; stroke-opacity: 0.3"/>
    </g>
   </g>
   <g id="PathCollection_4">
    <defs>
     <path id="C3_0_5f441c1628" d="M 0 3 
C 0.795609 3 1.55874 2.683901 2.12132 2.12132 
C 2.683901 1.55874 3 0.795609 3 -0 
C 3 -0.795609 2.683901 -1.55874 2.12132 -2.12132 
C 1.55874 -2.683901 0.795609 -3 0 -3 
C -0.795609 -3 -1.55874 -2.683901 -2.12132 -2.12132 
C -2.683901 -1.55874 -3 -0.795609 -3 0 
C -3 0.795609 -2.683901 1.55874 -2.12132 2.12132 
C -1.55874 2.683901 -0.795609 3 0 3 
z
"/>
    </defs>
    <g clip-path="url(#pad19e44bf6)">
     <use xlink:href="#C3_0_5f441c1628" x="171.020093" y="162.533919" style="fill: #c44e52"/>
    </g>
    <g clip-path="url(#pad19e44bf6)">
     <use xlink:href="#C3_0_5f441c1628" x="174.863068" y="162.621966" style="fill: #c44e52"/>
    </g>
    <g clip-path="url(#pad19e44bf6)">
     <use xlink:href="#C3_0_5f441c1628" x="178.706044" y="162.598935" style="fill: #c44e52"/>
    </g>
    <g clip-path="url(#pad19e44bf6)">
     <use xlink:href="#C3_0_5f441c1628" x="180.627531" y="162.600178" style="fill: #c44e52"/>
    </g>
    <g clip-path="url(#pad19e44bf6)">
     <use xlink:href="#C3_0_5f441c1628" x="184.470506" y="162.594761" style="fill: #c44e52"/>
    </g>
    <g clip-path="url(#pad19e44bf6)">
     <use xlink:href="#C3_0_5f441c1628" x="195.999432" y="162.499229" style="fill: #c44e52"/>
    </g>
    <g clip-path="url(#pad19e44bf6)">
     <use xlink:href="#C3_0_5f441c1628" x="199.842407" y="162.363567" style="fill: #c44e52"/>
    </g>
    <g clip-path="url(#pad19e44bf6)">
     <use xlink:href="#C3_0_5f441c1628" x="211.371333" y="162.151044" style="fill: #c44e52"/>
    </g>
    <g clip-path="url(#pad19e44bf6)">
     <use xlink:href="#C3_0_5f441c1628" x="213.292821" y="161.448916" style="fill: #c44e52"/>
    </g>
    <g clip-path="url(#pad19e44bf6)">
     <use xlink:href="#C3_0_5f441c1628" x="215.214308" y="161.401419" style="fill: #c44e52"/>
    </g>
    <g clip-path="url(#pad19e44bf6)">
     <use xlink:href="#C3_0_5f441c1628" x="217.135796" y="161.492334" style="fill: #c44e52"/>
    </g>
    <g clip-path="url(#pad19e44bf6)">
     <use xlink:href="#C3_0_5f441c1628" x="224.821746" y="160.653036" style="fill: #c44e52"/>
    </g>
    <g clip-path="url(#pad19e44bf6)">
     <use xlink:href="#C3_0_5f441c1628" x="226.743234" y="160.823307" style="fill: #c44e52"/>
    </g>
    <g clip-path="url(#pad19e44bf6)">
     <use xlink:href="#C3_0_5f441c1628" x="228.664721" y="161.069212" style="fill: #c44e52"/>
    </g>
    <g clip-path="url(#pad19e44bf6)">
     <use xlink:href="#C3_0_5f441c1628" x="238.272159" y="159.808209" style="fill: #c44e52"/>
    </g>
    <g clip-path="url(#pad19e44bf6)">
     <use xlink:href="#C3_0_5f441c1628" x="240.193647" y="157.83219" style="fill: #c44e52"/>
    </g>
    <g clip-path="url(#pad19e44bf6)">
     <use xlink:href="#C3_0_5f441c1628" x="244.036622" y="156.915335" style="fill: #c44e52"/>
    </g>
    <g clip-path="url(#pad19e44bf6)">
     <use xlink:href="#C3_0_5f441c1628" x="245.95811" y="156.752371" style="fill: #c44e52"/>
    </g>
    <g clip-path="url(#pad19e44bf6)">
     <use xlink:href="#C3_0_5f441c1628" x="247.879597" y="156.789559" style="fill: #c44e52"/>
    </g>
    <g clip-path="url(#pad19e44bf6)">
     <use xlink:href="#C3_0_5f441c1628" x="249.801085" y="155.711304" style="fill: #c44e52"/>
    </g>
    <g clip-path="url(#pad19e44bf6)">
     <use xlink:href="#C3_0_5f441c1628" x="251.722573" y="154.054096" style="fill: #c44e52"/>
    </g>
    <g clip-path="url(#pad19e44bf6)">
     <use xlink:href="#C3_0_5f441c1628" x="278.623399" y="155.15392" style="fill: #c44e52"/>
    </g>
    <g clip-path="url(#pad19e44bf6)">
     <use xlink:href="#C3_0_5f441c1628" x="284.387862" y="153.635941" style="fill: #c44e52"/>
    </g>
    <g clip-path="url(#pad19e44bf6)">
     <use xlink:href="#C3_0_5f441c1628" x="286.309349" y="152.54913" style="fill: #c44e52"/>
    </g>
    <g clip-path="url(#pad19e44bf6)">
     <use xlink:href="#C3_0_5f441c1628" x="288.230837" y="153.730198" style="fill: #c44e52"/>
    </g>
    <g clip-path="url(#pad19e44bf6)">
     <use xlink:href="#C3_0_5f441c1628" x="290.152325" y="156.04806" style="fill: #c44e52"/>
    </g>
    <g clip-path="url(#pad19e44bf6)">
     <use xlink:href="#C3_0_5f441c1628" x="297.838275" y="155.088693" style="fill: #c44e52"/>
    </g>
   </g>
   <g id="PolyCollection_4">
    <defs>
     <path id="mbed4e23f91" d="M 171.020093 -45.343539 
L 171.020093 -43.747099 
L 174.863068 -43.720823 
L 178.706044 -43.728512 
L 180.627531 -43.728212 
L 184.470506 -43.715568 
L 195.999432 -43.738605 
L 199.842407 -43.770703 
L 211.371333 -43.865294 
L 213.292821 -44.33961 
L 215.214308 -44.351045 
L 217.135796 -44.333298 
L 224.821746 -44.806759 
L 226.743234 -44.725223 
L 228.664721 -44.480619 
L 238.272159 -45.342271 
L 240.193647 -46.418477 
L 244.036622 -46.962761 
L 245.95811 -47.013062 
L 247.879597 -46.917134 
L 249.801085 -47.625883 
L 251.722573 -49.243227 
L 278.623399 -48.381369 
L 284.387862 -49.403243 
L 286.309349 -50.034064 
L 288.230837 -49.108906 
L 290.152325 -47.088504 
L 297.838275 -47.924032 
L 297.838275 -57.930747 
L 297.838275 -57.930747 
L 290.152325 -59.475575 
L 288.230837 -61.280499 
L 286.309349 -62.585242 
L 284.387862 -61.163373 
L 278.623399 -59.282963 
L 251.722573 -58.568532 
L 249.801085 -57.316303 
L 247.879597 -55.717425 
L 245.95811 -55.135984 
L 244.036622 -54.562089 
L 240.193647 -53.081251 
L 238.272159 -49.581925 
L 228.664721 -48.25074 
L 226.743234 -48.331478 
L 224.821746 -48.628658 
L 217.135796 -47.524608 
L 215.214308 -48.139224 
L 213.292821 -47.882863 
L 211.371333 -47.049782 
L 199.842407 -46.601942 
L 195.999432 -45.839838 
L 184.470506 -45.319788 
L 180.627531 -44.992926 
L 178.706044 -44.999747 
L 174.863068 -44.95839 
L 171.020093 -45.343539 
z
" style="stroke: #c44e52; stroke-opacity: 0.3"/>
    </defs>
    <g clip-path="url(#pad19e44bf6)">
     <use xlink:href="#mbed4e23f91" x="0" y="206.561781" style="fill: #c44e52; fill-opacity: 0.3; stroke: #c44e52; stroke-opacity: 0.3"/>
    </g>
   </g>
   <g id="line2d_1">
    <path d="M 53.809349 15.545571 
L 82.631663 15.31236 
L 88.396126 15.172433 
L 90.317614 14.612727 
L 92.239101 14.612727 
L 101.84654 21.888908 
L 103.768027 22.548117 
L 107.611002 22.548117 
L 111.453978 22.548117 
L 113.375465 26.743087 
L 115.296953 21.865647 
L 117.21844 22.096371 
L 119.139928 23.332388 
L 121.061416 23.332388 
L 122.982903 20.064432 
L 124.904391 17.665691 
L 126.825878 16.775758 
L 128.747366 15.539741 
L 130.668854 16.263263 
L 132.590341 22.332577 
L 134.511829 22.512362 
L 136.433316 25.117043 
L 138.354804 27.502644 
L 140.276292 27.736038 
L 142.197779 21.091811 
L 144.119267 25.750002 
L 146.040754 25.354374 
L 147.962242 24.047479 
L 149.88373 23.278908 
L 151.805217 23.915622 
L 153.726705 20.330145 
L 155.648192 19.048105 
L 157.56968 19.27538 
L 159.491168 19.26051 
L 161.412655 18.40967 
L 163.334143 18.779445 
L 165.25563 18.399242 
L 167.177118 18.326424 
L 169.098606 18.535715 
L 171.020093 21.417702 
L 172.941581 20.255342 
L 174.863068 21.142982 
L 176.784556 20.485164 
L 178.706044 20.507966 
L 180.627531 18.986208 
L 182.549019 22.088121 
L 184.470506 23.543064 
L 186.391994 23.964842 
L 188.313482 26.427381 
L 190.234969 25.092169 
L 192.156457 23.548331 
L 194.077944 20.840929 
L 195.999432 20.684497 
L 197.92092 18.376096 
L 199.842407 19.47542 
L 201.763895 17.457432 
L 203.685382 18.380948 
L 205.60687 18.841328 
L 207.528358 19.351987 
L 209.449845 18.525913 
L 211.371333 19.27125 
L 213.292821 20.30295 
L 215.214308 19.202314 
L 217.135796 19.272888 
L 219.057283 18.947334 
L 220.978771 21.218718 
L 222.900259 19.980434 
L 224.821746 24.211199 
L 226.743234 23.522002 
L 228.664721 23.411314 
L 230.586209 20.945976 
L 232.507697 26.350745 
L 234.429184 23.070319 
L 236.350672 25.323275 
L 238.272159 26.212097 
L 240.193647 29.610368 
L 242.115135 28.062043 
L 244.036622 33.376592 
L 245.95811 32.998516 
L 247.879597 34.054903 
L 249.801085 30.105248 
L 251.722573 26.140933 
L 253.64406 23.095743 
L 255.565548 20.769121 
L 257.487035 18.823913 
L 259.408523 18.823913 
L 261.330011 18.032861 
L 263.251498 16.731615 
L 265.172986 16.731615 
L 267.094473 16.731615 
L 270.937449 23.088278 
L 272.858936 28.380524 
L 276.701911 27.32108 
L 278.623399 27.32108 
L 280.544887 34.711525 
L 282.466374 34.768793 
L 284.387862 32.008876 
L 286.309349 34.09566 
L 288.230837 36.836395 
L 290.152325 29.445949 
L 292.073812 26.131287 
L 293.9953 27.742035 
L 295.916787 24.595808 
L 297.838275 25.171592 
L 299.759763 30.495977 
L 301.68125 27.396708 
L 303.602738 25.413858 
L 307.445713 29.014235 
" clip-path="url(#pad19e44bf6)" style="fill: none; stroke: #4c72b0; stroke-width: 1.5; stroke-linecap: round"/>
   </g>
   <g id="line2d_2">
    <path d="M 53.809349 142.88344 
L 107.611002 144.897871 
L 117.21844 147.615337 
L 119.139928 146.939026 
L 121.061416 153.288193 
L 122.982903 156.75964 
L 126.825878 152.162053 
L 134.511829 152.872202 
L 136.433316 151.648243 
L 138.354804 150.293377 
L 140.276292 150.059982 
L 142.197779 156.70421 
L 144.119267 152.046019 
L 146.040754 152.296943 
L 147.962242 153.500115 
L 149.88373 154.268687 
L 151.805217 153.631972 
L 153.726705 157.283371 
L 155.648192 158.56541 
L 157.56968 158.338136 
L 159.491168 158.353005 
L 161.412655 159.203845 
L 163.334143 158.768149 
L 165.25563 159.148353 
L 167.177118 159.426698 
L 169.098606 159.217407 
L 171.020093 156.450102 
L 172.941581 157.658453 
L 174.863068 156.885569 
L 176.784556 157.362239 
L 178.706044 157.339437 
L 180.627531 158.917736 
L 182.549019 155.804751 
L 184.470506 154.235053 
L 186.391994 153.788896 
L 188.313482 151.326357 
L 190.234969 150.837147 
L 192.156457 154.182064 
L 195.999432 156.711159 
L 197.92092 157.148577 
L 199.842407 159.175141 
L 201.763895 160.070074 
L 203.685382 159.081101 
L 207.528358 158.523941 
L 209.449845 158.938233 
L 211.371333 159.63071 
L 213.292821 159.269641 
L 215.214308 160.24017 
L 217.135796 160.016687 
L 219.057283 160.051413 
L 220.978771 157.854141 
L 222.900259 158.330535 
L 224.821746 155.084481 
L 226.743234 155.773678 
L 228.664721 155.443259 
L 230.586209 151.67131 
L 234.429184 152.15758 
L 236.350672 154.818835 
L 238.272159 154.603961 
L 240.193647 153.616469 
L 242.115135 157.243852 
L 244.036622 153.570223 
L 245.95811 153.046733 
L 247.879597 152.740745 
L 249.801085 153.378292 
L 251.722573 154.124232 
L 255.565548 151.760857 
L 257.487035 150.980538 
L 276.701911 150.893698 
L 278.623399 150.350364 
L 280.544887 146.483141 
L 284.387862 152.357456 
L 286.309349 153.098117 
L 288.230837 151.416825 
L 290.152325 151.201577 
L 292.073812 154.990813 
L 295.916787 152.156641 
L 297.838275 152.744398 
L 301.68125 153.622699 
L 303.602738 153.101367 
" clip-path="url(#pad19e44bf6)" style="fill: none; stroke: #dd8452; stroke-width: 1.5; stroke-linecap: round"/>
   </g>
   <g id="line2d_3">
    <path d="M 111.453978 161.422141 
L 140.276292 161.717921 
L 142.197779 161.824292 
L 157.56968 162.437511 
L 171.020093 162.524837 
L 176.784556 162.613931 
L 178.706044 162.594241 
L 180.627531 162.696339 
L 184.470506 162.579339 
L 186.391994 162.502184 
L 194.077944 162.156515 
L 195.999432 161.821355 
L 199.842407 161.672024 
L 203.685382 161.704908 
L 207.528358 161.694026 
L 209.449845 161.756188 
L 213.292821 162.091472 
L 215.214308 161.772936 
L 217.135796 161.872046 
L 224.821746 161.907183 
L 226.743234 162.019915 
L 234.429184 161.402152 
L 236.350672 160.508966 
L 238.272159 160.317758 
L 240.193647 159.335577 
L 242.115135 159.294534 
L 244.036622 159.427315 
L 245.95811 160.096219 
L 247.879597 159.832122 
L 249.801085 159.249412 
L 251.722573 157.356971 
L 257.487035 157.231092 
L 267.094473 155.597325 
L 278.623399 155.842453 
L 284.387862 157.29289 
L 288.230837 157.862143 
L 290.152325 157.564153 
L 295.916787 155.361232 
L 297.838275 153.769291 
L 303.602738 151.088649 
" clip-path="url(#pad19e44bf6)" style="fill: none; stroke: #55a868; stroke-width: 1.5; stroke-linecap: round"/>
   </g>
   <g id="line2d_4">
    <path d="M 171.020093 162.533919 
L 174.863068 162.621966 
L 178.706044 162.598935 
L 180.627531 162.600178 
L 184.470506 162.594761 
L 195.999432 162.499229 
L 199.842407 162.363567 
L 211.371333 162.151044 
L 213.292821 161.448916 
L 215.214308 161.401419 
L 217.135796 161.492334 
L 224.821746 160.653036 
L 226.743234 160.823307 
L 228.664721 161.069212 
L 238.272159 159.808209 
L 240.193647 157.83219 
L 244.036622 156.915335 
L 245.95811 156.752371 
L 247.879597 156.789559 
L 249.801085 155.711304 
L 251.722573 154.054096 
L 278.623399 155.15392 
L 284.387862 153.635941 
L 286.309349 152.54913 
L 288.230837 153.730198 
L 290.152325 156.04806 
L 297.838275 155.088693 
" clip-path="url(#pad19e44bf6)" style="fill: none; stroke: #c44e52; stroke-width: 1.5; stroke-linecap: round"/>
   </g>
   <g id="patch_3">
    <path d="M 41.127531 170.28 
L 41.127531 7.2 
" style="fill: none; stroke: #262626; stroke-width: 1.25; stroke-linejoin: miter; stroke-linecap: square"/>
   </g>
   <g id="patch_4">
    <path d="M 41.127531 170.28 
L 320.127531 170.28 
" style="fill: none; stroke: #262626; stroke-width: 1.25; stroke-linejoin: miter; stroke-linecap: square"/>
   </g>
   <g id="legend_1">
    <g id="patch_5">
     <path d="M 339.467531 70.54825 
L 477.201281 70.54825 
Q 478.741281 70.54825 478.741281 69.00825 
L 478.741281 12.59 
Q 478.741281 11.05 477.201281 11.05 
L 339.467531 11.05 
Q 337.927531 11.05 337.927531 12.59 
L 337.927531 69.00825 
Q 337.927531 70.54825 339.467531 70.54825 
z
" style="fill: #ffffff; opacity: 0.8; stroke: #cccccc; stroke-linejoin: miter"/>
    </g>
    <g id="text_17">
     <!-- Mobility Prediction -->
     <g style="fill: #262626" transform="translate(369.643875 20.512687)scale(0.084 -0.084)">
      <defs>
       <path id="DejaVuSans-4d" d="M 628 4666 
L 1569 4666 
L 2759 1491 
L 3956 4666 
L 4897 4666 
L 4897 0 
L 4281 0 
L 4281 4097 
L 3078 897 
L 2444 897 
L 1241 4097 
L 1241 0 
L 628 0 
L 628 4666 
z
" transform="scale(0.015625)"/>
       <path id="DejaVuSans-62" d="M 3116 1747 
Q 3116 2381 2855 2742 
Q 2594 3103 2138 3103 
Q 1681 3103 1420 2742 
Q 1159 2381 1159 1747 
Q 1159 1113 1420 752 
Q 1681 391 2138 391 
Q 2594 391 2855 752 
Q 3116 1113 3116 1747 
z
M 1159 2969 
Q 1341 3281 1617 3432 
Q 1894 3584 2278 3584 
Q 2916 3584 3314 3078 
Q 3713 2572 3713 1747 
Q 3713 922 3314 415 
Q 2916 -91 2278 -91 
Q 1894 -91 1617 61 
Q 1341 213 1159 525 
L 1159 0 
L 581 0 
L 581 4863 
L 1159 4863 
L 1159 2969 
z
" transform="scale(0.015625)"/>
       <path id="DejaVuSans-79" d="M 2059 -325 
Q 1816 -950 1584 -1140 
Q 1353 -1331 966 -1331 
L 506 -1331 
L 506 -850 
L 844 -850 
Q 1081 -850 1212 -737 
Q 1344 -625 1503 -206 
L 1606 56 
L 191 3500 
L 800 3500 
L 1894 763 
L 2988 3500 
L 3597 3500 
L 2059 -325 
z
" transform="scale(0.015625)"/>
       <path id="DejaVuSans-50" d="M 1259 4147 
L 1259 2394 
L 2053 2394 
Q 2494 2394 2734 2622 
Q 2975 2850 2975 3272 
Q 2975 3691 2734 3919 
Q 2494 4147 2053 4147 
L 1259 4147 
z
M 628 4666 
L 2053 4666 
Q 2838 4666 3239 4311 
Q 3641 3956 3641 3272 
Q 3641 2581 3239 2228 
Q 2838 1875 2053 1875 
L 1259 1875 
L 1259 0 
L 628 0 
L 628 4666 
z
" transform="scale(0.015625)"/>
      </defs>
      <use xlink:href="#DejaVuSans-4d"/>
      <use xlink:href="#DejaVuSans-6f" x="86.279297"/>
      <use xlink:href="#DejaVuSans-62" x="147.460938"/>
      <use xlink:href="#DejaVuSans-69" x="210.9375"/>
      <use xlink:href="#DejaVuSans-6c" x="238.720703"/>
      <use xlink:href="#DejaVuSans-69" x="266.503906"/>
      <use xlink:href="#DejaVuSans-74" x="294.287109"/>
      <use xlink:href="#DejaVuSans-79" x="333.496094"/>
      <use xlink:href="#DejaVuSans-20" x="392.675781"/>
      <use xlink:href="#DejaVuSans-50" x="424.462891"/>
      <use xlink:href="#DejaVuSans-72" x="483.015625"/>
      <use xlink:href="#DejaVuSans-65" x="521.878906"/>
      <use xlink:href="#DejaVuSans-64" x="583.402344"/>
      <use xlink:href="#DejaVuSans-69" x="646.878906"/>
      <use xlink:href="#DejaVuSans-63" x="674.662109"/>
      <use xlink:href="#DejaVuSans-74" x="729.642578"/>
      <use xlink:href="#DejaVuSans-69" x="768.851562"/>
      <use xlink:href="#DejaVuSans-6f" x="796.634766"/>
      <use xlink:href="#DejaVuSans-6e" x="857.816406"/>
     </g>
    </g>
    <g id="line2d_5">
     <path d="M 341.007531 29.265422 
L 348.707531 29.265422 
L 356.407531 29.265422 
" style="fill: none; stroke: #4c72b0; stroke-width: 1.5; stroke-linecap: round"/>
     <defs>
      <path id="m7be4175f18" d="M 0 3 
C 0.795609 3 1.55874 2.683901 2.12132 2.12132 
C 2.683901 1.55874 3 0.795609 3 0 
C 3 -0.795609 2.683901 -1.55874 2.12132 -2.12132 
C 1.55874 -2.683901 0.795609 -3 0 -3 
C -0.795609 -3 -1.55874 -2.683901 -2.12132 -2.12132 
C -2.683901 -1.55874 -3 -0.795609 -3 0 
C -3 0.795609 -2.683901 1.55874 -2.12132 2.12132 
C -1.55874 2.683901 -0.795609 3 0 3 
z
" style="stroke: #4c72b0"/>
     </defs>
     <g>
      <use xlink:href="#m7be4175f18" x="348.707531" y="29.265422" style="fill: #4c72b0; stroke: #4c72b0"/>
     </g>
    </g>
    <g id="text_18">
     <!-- Not plasmid or TN associated -->
     <g style="fill: #262626" transform="translate(362.567531 31.960422)scale(0.077 -0.077)">
      <defs>
       <path id="DejaVuSans-4e" d="M 628 4666 
L 1478 4666 
L 3547 763 
L 3547 4666 
L 4159 4666 
L 4159 0 
L 3309 0 
L 1241 3903 
L 1241 0 
L 628 0 
L 628 4666 
z
" transform="scale(0.015625)"/>
       <path id="DejaVuSans-70" d="M 1159 525 
L 1159 -1331 
L 581 -1331 
L 581 3500 
L 1159 3500 
L 1159 2969 
Q 1341 3281 1617 3432 
Q 1894 3584 2278 3584 
Q 2916 3584 3314 3078 
Q 3713 2572 3713 1747 
Q 3713 922 3314 415 
Q 2916 -91 2278 -91 
Q 1894 -91 1617 61 
Q 1341 213 1159 525 
z
M 3116 1747 
Q 3116 2381 2855 2742 
Q 2594 3103 2138 3103 
Q 1681 3103 1420 2742 
Q 1159 2381 1159 1747 
Q 1159 1113 1420 752 
Q 1681 391 2138 391 
Q 2594 391 2855 752 
Q 3116 1113 3116 1747 
z
" transform="scale(0.015625)"/>
       <path id="DejaVuSans-54" d="M -19 4666 
L 3928 4666 
L 3928 4134 
L 2272 4134 
L 2272 0 
L 1638 0 
L 1638 4134 
L -19 4134 
L -19 4666 
z
" transform="scale(0.015625)"/>
      </defs>
      <use xlink:href="#DejaVuSans-4e"/>
      <use xlink:href="#DejaVuSans-6f" x="74.804688"/>
      <use xlink:href="#DejaVuSans-74" x="135.986328"/>
      <use xlink:href="#DejaVuSans-20" x="175.195312"/>
      <use xlink:href="#DejaVuSans-70" x="206.982422"/>
      <use xlink:href="#DejaVuSans-6c" x="270.458984"/>
      <use xlink:href="#DejaVuSans-61" x="298.242188"/>
      <use xlink:href="#DejaVuSans-73" x="359.521484"/>
      <use xlink:href="#DejaVuSans-6d" x="411.621094"/>
      <use xlink:href="#DejaVuSans-69" x="509.033203"/>
      <use xlink:href="#DejaVuSans-64" x="536.816406"/>
      <use xlink:href="#DejaVuSans-20" x="600.292969"/>
      <use xlink:href="#DejaVuSans-6f" x="632.080078"/>
      <use xlink:href="#DejaVuSans-72" x="693.261719"/>
      <use xlink:href="#DejaVuSans-20" x="734.375"/>
      <use xlink:href="#DejaVuSans-54" x="766.162109"/>
      <use xlink:href="#DejaVuSans-4e" x="827.246094"/>
      <use xlink:href="#DejaVuSans-20" x="902.050781"/>
      <use xlink:href="#DejaVuSans-61" x="933.837891"/>
      <use xlink:href="#DejaVuSans-73" x="995.117188"/>
      <use xlink:href="#DejaVuSans-73" x="1047.216797"/>
      <use xlink:href="#DejaVuSans-6f" x="1099.316406"/>
      <use xlink:href="#DejaVuSans-63" x="1160.498047"/>
      <use xlink:href="#DejaVuSans-69" x="1215.478516"/>
      <use xlink:href="#DejaVuSans-61" x="1243.261719"/>
      <use xlink:href="#DejaVuSans-74" x="1304.541016"/>
      <use xlink:href="#DejaVuSans-65" x="1343.75"/>
      <use xlink:href="#DejaVuSans-64" x="1405.273438"/>
     </g>
    </g>
    <g id="line2d_6">
     <path d="M 341.007531 40.567578 
L 348.707531 40.567578 
L 356.407531 40.567578 
" style="fill: none; stroke: #dd8452; stroke-width: 1.5; stroke-linecap: round"/>
     <defs>
      <path id="m1b1d634f62" d="M 0 3 
C 0.795609 3 1.55874 2.683901 2.12132 2.12132 
C 2.683901 1.55874 3 0.795609 3 0 
C 3 -0.795609 2.683901 -1.55874 2.12132 -2.12132 
C 1.55874 -2.683901 0.795609 -3 0 -3 
C -0.795609 -3 -1.55874 -2.683901 -2.12132 -2.12132 
C -2.683901 -1.55874 -3 -0.795609 -3 0 
C -3 0.795609 -2.683901 1.55874 -2.12132 2.12132 
C -1.55874 2.683901 -0.795609 3 0 3 
z
" style="stroke: #dd8452"/>
     </defs>
     <g>
      <use xlink:href="#m1b1d634f62" x="348.707531" y="40.567578" style="fill: #dd8452; stroke: #dd8452"/>
     </g>
    </g>
    <g id="text_19">
     <!-- TN associated -->
     <g style="fill: #262626" transform="translate(362.567531 43.262578)scale(0.077 -0.077)">
      <use xlink:href="#DejaVuSans-54"/>
      <use xlink:href="#DejaVuSans-4e" x="61.083984"/>
      <use xlink:href="#DejaVuSans-20" x="135.888672"/>
      <use xlink:href="#DejaVuSans-61" x="167.675781"/>
      <use xlink:href="#DejaVuSans-73" x="228.955078"/>
      <use xlink:href="#DejaVuSans-73" x="281.054688"/>
      <use xlink:href="#DejaVuSans-6f" x="333.154297"/>
      <use xlink:href="#DejaVuSans-63" x="394.335938"/>
      <use xlink:href="#DejaVuSans-69" x="449.316406"/>
      <use xlink:href="#DejaVuSans-61" x="477.099609"/>
      <use xlink:href="#DejaVuSans-74" x="538.378906"/>
      <use xlink:href="#DejaVuSans-65" x="577.587891"/>
      <use xlink:href="#DejaVuSans-64" x="639.111328"/>
     </g>
    </g>
    <g id="line2d_7">
     <path d="M 341.007531 51.869734 
L 348.707531 51.869734 
L 356.407531 51.869734 
" style="fill: none; stroke: #55a868; stroke-width: 1.5; stroke-linecap: round"/>
     <defs>
      <path id="m2283018077" d="M 0 3 
C 0.795609 3 1.55874 2.683901 2.12132 2.12132 
C 2.683901 1.55874 3 0.795609 3 0 
C 3 -0.795609 2.683901 -1.55874 2.12132 -2.12132 
C 1.55874 -2.683901 0.795609 -3 0 -3 
C -0.795609 -3 -1.55874 -2.683901 -2.12132 -2.12132 
C -2.683901 -1.55874 -3 -0.795609 -3 0 
C -3 0.795609 -2.683901 1.55874 -2.12132 2.12132 
C -1.55874 2.683901 -0.795609 3 0 3 
z
" style="stroke: #55a868"/>
     </defs>
     <g>
      <use xlink:href="#m2283018077" x="348.707531" y="51.869734" style="fill: #55a868; stroke: #55a868"/>
     </g>
    </g>
    <g id="text_20">
     <!-- Plasmid associated -->
     <g style="fill: #262626" transform="translate(362.567531 54.564734)scale(0.077 -0.077)">
      <use xlink:href="#DejaVuSans-50"/>
      <use xlink:href="#DejaVuSans-6c" x="60.302734"/>
      <use xlink:href="#DejaVuSans-61" x="88.085938"/>
      <use xlink:href="#DejaVuSans-73" x="149.365234"/>
      <use xlink:href="#DejaVuSans-6d" x="201.464844"/>
      <use xlink:href="#DejaVuSans-69" x="298.876953"/>
      <use xlink:href="#DejaVuSans-64" x="326.660156"/>
      <use xlink:href="#DejaVuSans-20" x="390.136719"/>
      <use xlink:href="#DejaVuSans-61" x="421.923828"/>
      <use xlink:href="#DejaVuSans-73" x="483.203125"/>
      <use xlink:href="#DejaVuSans-73" x="535.302734"/>
      <use xlink:href="#DejaVuSans-6f" x="587.402344"/>
      <use xlink:href="#DejaVuSans-63" x="648.583984"/>
      <use xlink:href="#DejaVuSans-69" x="703.564453"/>
      <use xlink:href="#DejaVuSans-61" x="731.347656"/>
      <use xlink:href="#DejaVuSans-74" x="792.626953"/>
      <use xlink:href="#DejaVuSans-65" x="831.835938"/>
      <use xlink:href="#DejaVuSans-64" x="893.359375"/>
     </g>
    </g>
    <g id="line2d_8">
     <path d="M 341.007531 63.171891 
L 348.707531 63.171891 
L 356.407531 63.171891 
" style="fill: none; stroke: #c44e52; stroke-width: 1.5; stroke-linecap: round"/>
     <defs>
      <path id="m77dc7f18d4" d="M 0 3 
C 0.795609 3 1.55874 2.683901 2.12132 2.12132 
C 2.683901 1.55874 3 0.795609 3 0 
C 3 -0.795609 2.683901 -1.55874 2.12132 -2.12132 
C 1.55874 -2.683901 0.795609 -3 0 -3 
C -0.795609 -3 -1.55874 -2.683901 -2.12132 -2.12132 
C -2.683901 -1.55874 -3 -0.795609 -3 0 
C -3 0.795609 -2.683901 1.55874 -2.12132 2.12132 
C -1.55874 2.683901 -0.795609 3 0 3 
z
" style="stroke: #c44e52"/>
     </defs>
     <g>
      <use xlink:href="#m77dc7f18d4" x="348.707531" y="63.171891" style="fill: #c44e52; stroke: #c44e52"/>
     </g>
    </g>
    <g id="text_21">
     <!-- Plasmid and TN associated -->
     <g style="fill: #262626" transform="translate(362.567531 65.866891)scale(0.077 -0.077)">
      <use xlink:href="#DejaVuSans-50"/>
      <use xlink:href="#DejaVuSans-6c" x="60.302734"/>
      <use xlink:href="#DejaVuSans-61" x="88.085938"/>
      <use xlink:href="#DejaVuSans-73" x="149.365234"/>
      <use xlink:href="#DejaVuSans-6d" x="201.464844"/>
      <use xlink:href="#DejaVuSans-69" x="298.876953"/>
      <use xlink:href="#DejaVuSans-64" x="326.660156"/>
      <use xlink:href="#DejaVuSans-20" x="390.136719"/>
      <use xlink:href="#DejaVuSans-61" x="421.923828"/>
      <use xlink:href="#DejaVuSans-6e" x="483.203125"/>
      <use xlink:href="#DejaVuSans-64" x="546.582031"/>
      <use xlink:href="#DejaVuSans-20" x="610.058594"/>
      <use xlink:href="#DejaVuSans-54" x="641.845703"/>
      <use xlink:href="#DejaVuSans-4e" x="702.929688"/>
      <use xlink:href="#DejaVuSans-20" x="777.734375"/>
      <use xlink:href="#DejaVuSans-61" x="809.521484"/>
      <use xlink:href="#DejaVuSans-73" x="870.800781"/>
      <use xlink:href="#DejaVuSans-73" x="922.900391"/>
      <use xlink:href="#DejaVuSans-6f" x="975"/>
      <use xlink:href="#DejaVuSans-63" x="1036.181641"/>
      <use xlink:href="#DejaVuSans-69" x="1091.162109"/>
      <use xlink:href="#DejaVuSans-61" x="1118.945312"/>
      <use xlink:href="#DejaVuSans-74" x="1180.224609"/>
      <use xlink:href="#DejaVuSans-65" x="1219.433594"/>
      <use xlink:href="#DejaVuSans-64" x="1280.957031"/>
     </g>
    </g>
   </g>
  </g>
 </g>
 <defs>
  <clipPath id="pad19e44bf6">
   <rect x="41.127531" y="7.2" width="279" height="163.08"/>
  </clipPath>
 </defs>
</svg>
