<?xml version="1.0" encoding="utf-8" standalone="no"?>
<!DOCTYPE svg PUBLIC "-//W3C//DTD SVG 1.1//EN"
  "http://www.w3.org/Graphics/SVG/1.1/DTD/svg11.dtd">
<svg xmlns:xlink="http://www.w3.org/1999/xlink" width="184.337031pt" height="222.184469pt" viewBox="0 0 184.337031 222.184469" xmlns="http://www.w3.org/2000/svg" version="1.1">
 <metadata>
  <rdf:RDF xmlns:dc="http://purl.org/dc/elements/1.1/" xmlns:cc="http://creativecommons.org/ns#" xmlns:rdf="http://www.w3.org/1999/02/22-rdf-syntax-ns#">
   <cc:Work>
    <dc:type rdf:resource="http://purl.org/dc/dcmitype/StillImage"/>
    <dc:date>2023-06-01T19:29:48.722452</dc:date>
    <dc:format>image/svg+xml</dc:format>
    <dc:creator>
     <cc:Agent>
      <dc:title>Matplotlib v3.5.2, https://matplotlib.org/</dc:title>
     </cc:Agent>
    </dc:creator>
   </cc:Work>
  </rdf:RDF>
 </metadata>
 <defs>
  <style type="text/css">*{stroke-linejoin: round; stroke-linecap: butt}</style>
 </defs>
 <g id="figure_1">
  <g id="patch_1">
   <path d="M 0 222.184469 
L 184.337031 222.184469 
L 184.337031 0 
L 0 0 
z
" style="fill: #ffffff"/>
  </g>
  <g id="axes_1">
   <g id="patch_2">
    <path d="M 41.075031 185.902688 
L 152.675031 185.902688 
L 152.675031 19.582687 
L 41.075031 19.582687 
z
" style="fill: #ffffff"/>
   </g>
   <g id="matplotlib.axis_1">
    <g id="xtick_1">
     <g id="text_1">
      <!-- −0.5 -->
      <g style="fill: #262626" transform="translate(37.985325 201.253484)scale(0.077 -0.077)">
       <defs>
        <path id="DejaVuSans-2212" d="M 678 2272 
L 4684 2272 
L 4684 1741 
L 678 1741 
L 678 2272 
z
" transform="scale(0.015625)"/>
        <path id="DejaVuSans-30" d="M 2034 4250 
Q 1547 4250 1301 3770 
Q 1056 3291 1056 2328 
Q 1056 1369 1301 889 
Q 1547 409 2034 409 
Q 2525 409 2770 889 
Q 3016 1369 3016 2328 
Q 3016 3291 2770 3770 
Q 2525 4250 2034 4250 
z
M 2034 4750 
Q 2819 4750 3233 4129 
Q 3647 3509 3647 2328 
Q 3647 1150 3233 529 
Q 2819 -91 2034 -91 
Q 1250 -91 836 529 
Q 422 1150 422 2328 
Q 422 3509 836 4129 
Q 1250 4750 2034 4750 
z
" transform="scale(0.015625)"/>
        <path id="DejaVuSans-2e" d="M 684 794 
L 1344 794 
L 1344 0 
L 684 0 
L 684 794 
z
" transform="scale(0.015625)"/>
        <path id="DejaVuSans-35" d="M 691 4666 
L 3169 4666 
L 3169 4134 
L 1269 4134 
L 1269 2991 
Q 1406 3038 1543 3061 
Q 1681 3084 1819 3084 
Q 2600 3084 3056 2656 
Q 3513 2228 3513 1497 
Q 3513 744 3044 326 
Q 2575 -91 1722 -91 
Q 1428 -91 1123 -41 
Q 819 9 494 109 
L 494 744 
Q 775 591 1075 516 
Q 1375 441 1709 441 
Q 2250 441 2565 725 
Q 2881 1009 2881 1497 
Q 2881 1984 2565 2268 
Q 2250 2553 1709 2553 
Q 1456 2553 1204 2497 
Q 953 2441 691 2322 
L 691 4666 
z
" transform="scale(0.015625)"/>
       </defs>
       <use xlink:href="#DejaVuSans-2212"/>
       <use xlink:href="#DejaVuSans-30" x="83.789062"/>
       <use xlink:href="#DejaVuSans-2e" x="147.412109"/>
       <use xlink:href="#DejaVuSans-35" x="179.199219"/>
      </g>
     </g>
    </g>
    <g id="xtick_2">
     <g id="text_2">
      <!-- 0.0 -->
      <g style="fill: #262626" transform="translate(87.867204 201.253484)scale(0.077 -0.077)">
       <use xlink:href="#DejaVuSans-30"/>
       <use xlink:href="#DejaVuSans-2e" x="63.623047"/>
       <use xlink:href="#DejaVuSans-30" x="95.410156"/>
      </g>
     </g>
    </g>
    <g id="xtick_3">
     <g id="text_3">
      <!-- 0.5 -->
      <g style="fill: #262626" transform="translate(134.522903 201.253484)scale(0.077 -0.077)">
       <use xlink:href="#DejaVuSans-30"/>
       <use xlink:href="#DejaVuSans-2e" x="63.623047"/>
       <use xlink:href="#DejaVuSans-35" x="95.410156"/>
      </g>
     </g>
    </g>
    <g id="text_4">
     <!-- Null $\Delta$ distribution in 5000 simulations -->
     <g style="fill: #262626" transform="translate(16.613031 213.237531)scale(0.084 -0.084)">
      <defs>
       <path id="DejaVuSans-4e" d="M 628 4666 
L 1478 4666 
L 3547 763 
L 3547 4666 
L 4159 4666 
L 4159 0 
L 3309 0 
L 1241 3903 
L 1241 0 
L 628 0 
L 628 4666 
z
" transform="scale(0.015625)"/>
       <path id="DejaVuSans-75" d="M 544 1381 
L 544 3500 
L 1119 3500 
L 1119 1403 
Q 1119 906 1312 657 
Q 1506 409 1894 409 
Q 2359 409 2629 706 
Q 2900 1003 2900 1516 
L 2900 3500 
L 3475 3500 
L 3475 0 
L 2900 0 
L 2900 538 
Q 2691 219 2414 64 
Q 2138 -91 1772 -91 
Q 1169 -91 856 284 
Q 544 659 544 1381 
z
M 1991 3584 
L 1991 3584 
z
" transform="scale(0.015625)"/>
       <path id="DejaVuSans-6c" d="M 603 4863 
L 1178 4863 
L 1178 0 
L 603 0 
L 603 4863 
z
" transform="scale(0.015625)"/>
       <path id="DejaVuSans-20" transform="scale(0.015625)"/>
       <path id="DejaVuSans-394" d="M 2188 4044 
L 906 525 
L 3472 525 
L 2188 4044 
z
M 50 0 
L 1831 4666 
L 2547 4666 
L 4325 0 
L 50 0 
z
" transform="scale(0.015625)"/>
       <path id="DejaVuSans-64" d="M 2906 2969 
L 2906 4863 
L 3481 4863 
L 3481 0 
L 2906 0 
L 2906 525 
Q 2725 213 2448 61 
Q 2172 -91 1784 -91 
Q 1150 -91 751 415 
Q 353 922 353 1747 
Q 353 2572 751 3078 
Q 1150 3584 1784 3584 
Q 2172 3584 2448 3432 
Q 2725 3281 2906 2969 
z
M 947 1747 
Q 947 1113 1208 752 
Q 1469 391 1925 391 
Q 2381 391 2643 752 
Q 2906 1113 2906 1747 
Q 2906 2381 2643 2742 
Q 2381 3103 1925 3103 
Q 1469 3103 1208 2742 
Q 947 2381 947 1747 
z
" transform="scale(0.015625)"/>
       <path id="DejaVuSans-69" d="M 603 3500 
L 1178 3500 
L 1178 0 
L 603 0 
L 603 3500 
z
M 603 4863 
L 1178 4863 
L 1178 4134 
L 603 4134 
L 603 4863 
z
" transform="scale(0.015625)"/>
       <path id="DejaVuSans-73" d="M 2834 3397 
L 2834 2853 
Q 2591 2978 2328 3040 
Q 2066 3103 1784 3103 
Q 1356 3103 1142 2972 
Q 928 2841 928 2578 
Q 928 2378 1081 2264 
Q 1234 2150 1697 2047 
L 1894 2003 
Q 2506 1872 2764 1633 
Q 3022 1394 3022 966 
Q 3022 478 2636 193 
Q 2250 -91 1575 -91 
Q 1294 -91 989 -36 
Q 684 19 347 128 
L 347 722 
Q 666 556 975 473 
Q 1284 391 1588 391 
Q 1994 391 2212 530 
Q 2431 669 2431 922 
Q 2431 1156 2273 1281 
Q 2116 1406 1581 1522 
L 1381 1569 
Q 847 1681 609 1914 
Q 372 2147 372 2553 
Q 372 3047 722 3315 
Q 1072 3584 1716 3584 
Q 2034 3584 2315 3537 
Q 2597 3491 2834 3397 
z
" transform="scale(0.015625)"/>
       <path id="DejaVuSans-74" d="M 1172 4494 
L 1172 3500 
L 2356 3500 
L 2356 3053 
L 1172 3053 
L 1172 1153 
Q 1172 725 1289 603 
Q 1406 481 1766 481 
L 2356 481 
L 2356 0 
L 1766 0 
Q 1100 0 847 248 
Q 594 497 594 1153 
L 594 3053 
L 172 3053 
L 172 3500 
L 594 3500 
L 594 4494 
L 1172 4494 
z
" transform="scale(0.015625)"/>
       <path id="DejaVuSans-72" d="M 2631 2963 
Q 2534 3019 2420 3045 
Q 2306 3072 2169 3072 
Q 1681 3072 1420 2755 
Q 1159 2438 1159 1844 
L 1159 0 
L 581 0 
L 581 3500 
L 1159 3500 
L 1159 2956 
Q 1341 3275 1631 3429 
Q 1922 3584 2338 3584 
Q 2397 3584 2469 3576 
Q 2541 3569 2628 3553 
L 2631 2963 
z
" transform="scale(0.015625)"/>
       <path id="DejaVuSans-62" d="M 3116 1747 
Q 3116 2381 2855 2742 
Q 2594 3103 2138 3103 
Q 1681 3103 1420 2742 
Q 1159 2381 1159 1747 
Q 1159 1113 1420 752 
Q 1681 391 2138 391 
Q 2594 391 2855 752 
Q 3116 1113 3116 1747 
z
M 1159 2969 
Q 1341 3281 1617 3432 
Q 1894 3584 2278 3584 
Q 2916 3584 3314 3078 
Q 3713 2572 3713 1747 
Q 3713 922 3314 415 
Q 2916 -91 2278 -91 
Q 1894 -91 1617 61 
Q 1341 213 1159 525 
L 1159 0 
L 581 0 
L 581 4863 
L 1159 4863 
L 1159 2969 
z
" transform="scale(0.015625)"/>
       <path id="DejaVuSans-6f" d="M 1959 3097 
Q 1497 3097 1228 2736 
Q 959 2375 959 1747 
Q 959 1119 1226 758 
Q 1494 397 1959 397 
Q 2419 397 2687 759 
Q 2956 1122 2956 1747 
Q 2956 2369 2687 2733 
Q 2419 3097 1959 3097 
z
M 1959 3584 
Q 2709 3584 3137 3096 
Q 3566 2609 3566 1747 
Q 3566 888 3137 398 
Q 2709 -91 1959 -91 
Q 1206 -91 779 398 
Q 353 888 353 1747 
Q 353 2609 779 3096 
Q 1206 3584 1959 3584 
z
" transform="scale(0.015625)"/>
       <path id="DejaVuSans-6e" d="M 3513 2113 
L 3513 0 
L 2938 0 
L 2938 2094 
Q 2938 2591 2744 2837 
Q 2550 3084 2163 3084 
Q 1697 3084 1428 2787 
Q 1159 2491 1159 1978 
L 1159 0 
L 581 0 
L 581 3500 
L 1159 3500 
L 1159 2956 
Q 1366 3272 1645 3428 
Q 1925 3584 2291 3584 
Q 2894 3584 3203 3211 
Q 3513 2838 3513 2113 
z
" transform="scale(0.015625)"/>
       <path id="DejaVuSans-6d" d="M 3328 2828 
Q 3544 3216 3844 3400 
Q 4144 3584 4550 3584 
Q 5097 3584 5394 3201 
Q 5691 2819 5691 2113 
L 5691 0 
L 5113 0 
L 5113 2094 
Q 5113 2597 4934 2840 
Q 4756 3084 4391 3084 
Q 3944 3084 3684 2787 
Q 3425 2491 3425 1978 
L 3425 0 
L 2847 0 
L 2847 2094 
Q 2847 2600 2669 2842 
Q 2491 3084 2119 3084 
Q 1678 3084 1418 2786 
Q 1159 2488 1159 1978 
L 1159 0 
L 581 0 
L 581 3500 
L 1159 3500 
L 1159 2956 
Q 1356 3278 1631 3431 
Q 1906 3584 2284 3584 
Q 2666 3584 2933 3390 
Q 3200 3197 3328 2828 
z
" transform="scale(0.015625)"/>
       <path id="DejaVuSans-61" d="M 2194 1759 
Q 1497 1759 1228 1600 
Q 959 1441 959 1056 
Q 959 750 1161 570 
Q 1363 391 1709 391 
Q 2188 391 2477 730 
Q 2766 1069 2766 1631 
L 2766 1759 
L 2194 1759 
z
M 3341 1997 
L 3341 0 
L 2766 0 
L 2766 531 
Q 2569 213 2275 61 
Q 1981 -91 1556 -91 
Q 1019 -91 701 211 
Q 384 513 384 1019 
Q 384 1609 779 1909 
Q 1175 2209 1959 2209 
L 2766 2209 
L 2766 2266 
Q 2766 2663 2505 2880 
Q 2244 3097 1772 3097 
Q 1472 3097 1187 3025 
Q 903 2953 641 2809 
L 641 3341 
Q 956 3463 1253 3523 
Q 1550 3584 1831 3584 
Q 2591 3584 2966 3190 
Q 3341 2797 3341 1997 
z
" transform="scale(0.015625)"/>
      </defs>
      <use xlink:href="#DejaVuSans-4e" transform="translate(0 0.015625)"/>
      <use xlink:href="#DejaVuSans-75" transform="translate(74.804688 0.015625)"/>
      <use xlink:href="#DejaVuSans-6c" transform="translate(138.183594 0.015625)"/>
      <use xlink:href="#DejaVuSans-6c" transform="translate(165.966797 0.015625)"/>
      <use xlink:href="#DejaVuSans-20" transform="translate(193.75 0.015625)"/>
      <use xlink:href="#DejaVuSans-394" transform="translate(225.537109 0.015625)"/>
      <use xlink:href="#DejaVuSans-20" transform="translate(293.945312 0.015625)"/>
      <use xlink:href="#DejaVuSans-64" transform="translate(325.732422 0.015625)"/>
      <use xlink:href="#DejaVuSans-69" transform="translate(389.208984 0.015625)"/>
      <use xlink:href="#DejaVuSans-73" transform="translate(416.992188 0.015625)"/>
      <use xlink:href="#DejaVuSans-74" transform="translate(469.091797 0.015625)"/>
      <use xlink:href="#DejaVuSans-72" transform="translate(508.300781 0.015625)"/>
      <use xlink:href="#DejaVuSans-69" transform="translate(549.414062 0.015625)"/>
      <use xlink:href="#DejaVuSans-62" transform="translate(577.197266 0.015625)"/>
      <use xlink:href="#DejaVuSans-75" transform="translate(640.673828 0.015625)"/>
      <use xlink:href="#DejaVuSans-74" transform="translate(704.052734 0.015625)"/>
      <use xlink:href="#DejaVuSans-69" transform="translate(743.261719 0.015625)"/>
      <use xlink:href="#DejaVuSans-6f" transform="translate(771.044922 0.015625)"/>
      <use xlink:href="#DejaVuSans-6e" transform="translate(832.226562 0.015625)"/>
      <use xlink:href="#DejaVuSans-20" transform="translate(895.605469 0.015625)"/>
      <use xlink:href="#DejaVuSans-69" transform="translate(927.392578 0.015625)"/>
      <use xlink:href="#DejaVuSans-6e" transform="translate(955.175781 0.015625)"/>
      <use xlink:href="#DejaVuSans-20" transform="translate(1018.554688 0.015625)"/>
      <use xlink:href="#DejaVuSans-35" transform="translate(1050.341797 0.015625)"/>
      <use xlink:href="#DejaVuSans-30" transform="translate(1113.964844 0.015625)"/>
      <use xlink:href="#DejaVuSans-30" transform="translate(1177.587891 0.015625)"/>
      <use xlink:href="#DejaVuSans-30" transform="translate(1241.210938 0.015625)"/>
      <use xlink:href="#DejaVuSans-20" transform="translate(1304.833984 0.015625)"/>
      <use xlink:href="#DejaVuSans-73" transform="translate(1336.621094 0.015625)"/>
      <use xlink:href="#DejaVuSans-69" transform="translate(1388.720703 0.015625)"/>
      <use xlink:href="#DejaVuSans-6d" transform="translate(1416.503906 0.015625)"/>
      <use xlink:href="#DejaVuSans-75" transform="translate(1513.916016 0.015625)"/>
      <use xlink:href="#DejaVuSans-6c" transform="translate(1577.294922 0.015625)"/>
      <use xlink:href="#DejaVuSans-61" transform="translate(1605.078125 0.015625)"/>
      <use xlink:href="#DejaVuSans-74" transform="translate(1666.357422 0.015625)"/>
      <use xlink:href="#DejaVuSans-69" transform="translate(1705.566406 0.015625)"/>
      <use xlink:href="#DejaVuSans-6f" transform="translate(1733.349609 0.015625)"/>
      <use xlink:href="#DejaVuSans-6e" transform="translate(1794.53125 0.015625)"/>
      <use xlink:href="#DejaVuSans-73" transform="translate(1857.910156 0.015625)"/>
     </g>
    </g>
   </g>
   <g id="matplotlib.axis_2">
    <g id="ytick_1">
     <g id="text_5">
      <!-- 0.0 -->
      <g style="fill: #262626" transform="translate(19.329625 188.828086)scale(0.077 -0.077)">
       <use xlink:href="#DejaVuSans-30"/>
       <use xlink:href="#DejaVuSans-2e" x="63.623047"/>
       <use xlink:href="#DejaVuSans-30" x="95.410156"/>
      </g>
     </g>
    </g>
    <g id="ytick_2">
     <g id="text_6">
      <!-- 0.5 -->
      <g style="fill: #262626" transform="translate(19.329625 165.911419)scale(0.077 -0.077)">
       <use xlink:href="#DejaVuSans-30"/>
       <use xlink:href="#DejaVuSans-2e" x="63.623047"/>
       <use xlink:href="#DejaVuSans-35" x="95.410156"/>
      </g>
     </g>
    </g>
    <g id="ytick_3">
     <g id="text_7">
      <!-- 1.0 -->
      <g style="fill: #262626" transform="translate(19.329625 142.994753)scale(0.077 -0.077)">
       <defs>
        <path id="DejaVuSans-31" d="M 794 531 
L 1825 531 
L 1825 4091 
L 703 3866 
L 703 4441 
L 1819 4666 
L 2450 4666 
L 2450 531 
L 3481 531 
L 3481 0 
L 794 0 
L 794 531 
z
" transform="scale(0.015625)"/>
       </defs>
       <use xlink:href="#DejaVuSans-31"/>
       <use xlink:href="#DejaVuSans-2e" x="63.623047"/>
       <use xlink:href="#DejaVuSans-30" x="95.410156"/>
      </g>
     </g>
    </g>
    <g id="ytick_4">
     <g id="text_8">
      <!-- 1.5 -->
      <g style="fill: #262626" transform="translate(19.329625 120.078086)scale(0.077 -0.077)">
       <use xlink:href="#DejaVuSans-31"/>
       <use xlink:href="#DejaVuSans-2e" x="63.623047"/>
       <use xlink:href="#DejaVuSans-35" x="95.410156"/>
      </g>
     </g>
    </g>
    <g id="ytick_5">
     <g id="text_9">
      <!-- 2.0 -->
      <g style="fill: #262626" transform="translate(19.329625 97.161419)scale(0.077 -0.077)">
       <defs>
        <path id="DejaVuSans-32" d="M 1228 531 
L 3431 531 
L 3431 0 
L 469 0 
L 469 531 
Q 828 903 1448 1529 
Q 2069 2156 2228 2338 
Q 2531 2678 2651 2914 
Q 2772 3150 2772 3378 
Q 2772 3750 2511 3984 
Q 2250 4219 1831 4219 
Q 1534 4219 1204 4116 
Q 875 4013 500 3803 
L 500 4441 
Q 881 4594 1212 4672 
Q 1544 4750 1819 4750 
Q 2544 4750 2975 4387 
Q 3406 4025 3406 3419 
Q 3406 3131 3298 2873 
Q 3191 2616 2906 2266 
Q 2828 2175 2409 1742 
Q 1991 1309 1228 531 
z
" transform="scale(0.015625)"/>
       </defs>
       <use xlink:href="#DejaVuSans-32"/>
       <use xlink:href="#DejaVuSans-2e" x="63.623047"/>
       <use xlink:href="#DejaVuSans-30" x="95.410156"/>
      </g>
     </g>
    </g>
    <g id="ytick_6">
     <g id="text_10">
      <!-- 2.5 -->
      <g style="fill: #262626" transform="translate(19.329625 74.244753)scale(0.077 -0.077)">
       <use xlink:href="#DejaVuSans-32"/>
       <use xlink:href="#DejaVuSans-2e" x="63.623047"/>
       <use xlink:href="#DejaVuSans-35" x="95.410156"/>
      </g>
     </g>
    </g>
    <g id="ytick_7">
     <g id="text_11">
      <!-- 3.0 -->
      <g style="fill: #262626" transform="translate(19.329625 51.328086)scale(0.077 -0.077)">
       <defs>
        <path id="DejaVuSans-33" d="M 2597 2516 
Q 3050 2419 3304 2112 
Q 3559 1806 3559 1356 
Q 3559 666 3084 287 
Q 2609 -91 1734 -91 
Q 1441 -91 1130 -33 
Q 819 25 488 141 
L 488 750 
Q 750 597 1062 519 
Q 1375 441 1716 441 
Q 2309 441 2620 675 
Q 2931 909 2931 1356 
Q 2931 1769 2642 2001 
Q 2353 2234 1838 2234 
L 1294 2234 
L 1294 2753 
L 1863 2753 
Q 2328 2753 2575 2939 
Q 2822 3125 2822 3475 
Q 2822 3834 2567 4026 
Q 2313 4219 1838 4219 
Q 1578 4219 1281 4162 
Q 984 4106 628 3988 
L 628 4550 
Q 988 4650 1302 4700 
Q 1616 4750 1894 4750 
Q 2613 4750 3031 4423 
Q 3450 4097 3450 3541 
Q 3450 3153 3228 2886 
Q 3006 2619 2597 2516 
z
" transform="scale(0.015625)"/>
       </defs>
       <use xlink:href="#DejaVuSans-33"/>
       <use xlink:href="#DejaVuSans-2e" x="63.623047"/>
       <use xlink:href="#DejaVuSans-30" x="95.410156"/>
      </g>
     </g>
    </g>
    <g id="ytick_8">
     <g id="text_12">
      <!-- 3.5 -->
      <g style="fill: #262626" transform="translate(19.329625 28.411419)scale(0.077 -0.077)">
       <use xlink:href="#DejaVuSans-33"/>
       <use xlink:href="#DejaVuSans-2e" x="63.623047"/>
       <use xlink:href="#DejaVuSans-35" x="95.410156"/>
      </g>
     </g>
    </g>
    <g id="text_13">
     <!-- Density -->
     <g style="fill: #262626" transform="translate(13.582687 118.709906)rotate(-90)scale(0.084 -0.084)">
      <defs>
       <path id="DejaVuSans-44" d="M 1259 4147 
L 1259 519 
L 2022 519 
Q 2988 519 3436 956 
Q 3884 1394 3884 2338 
Q 3884 3275 3436 3711 
Q 2988 4147 2022 4147 
L 1259 4147 
z
M 628 4666 
L 1925 4666 
Q 3281 4666 3915 4102 
Q 4550 3538 4550 2338 
Q 4550 1131 3912 565 
Q 3275 0 1925 0 
L 628 0 
L 628 4666 
z
" transform="scale(0.015625)"/>
       <path id="DejaVuSans-65" d="M 3597 1894 
L 3597 1613 
L 953 1613 
Q 991 1019 1311 708 
Q 1631 397 2203 397 
Q 2534 397 2845 478 
Q 3156 559 3463 722 
L 3463 178 
Q 3153 47 2828 -22 
Q 2503 -91 2169 -91 
Q 1331 -91 842 396 
Q 353 884 353 1716 
Q 353 2575 817 3079 
Q 1281 3584 2069 3584 
Q 2775 3584 3186 3129 
Q 3597 2675 3597 1894 
z
M 3022 2063 
Q 3016 2534 2758 2815 
Q 2500 3097 2075 3097 
Q 1594 3097 1305 2825 
Q 1016 2553 972 2059 
L 3022 2063 
z
" transform="scale(0.015625)"/>
       <path id="DejaVuSans-79" d="M 2059 -325 
Q 1816 -950 1584 -1140 
Q 1353 -1331 966 -1331 
L 506 -1331 
L 506 -850 
L 844 -850 
Q 1081 -850 1212 -737 
Q 1344 -625 1503 -206 
L 1606 56 
L 191 3500 
L 800 3500 
L 1894 763 
L 2988 3500 
L 3597 3500 
L 2059 -325 
z
" transform="scale(0.015625)"/>
      </defs>
      <use xlink:href="#DejaVuSans-44"/>
      <use xlink:href="#DejaVuSans-65" x="77.001953"/>
      <use xlink:href="#DejaVuSans-6e" x="138.525391"/>
      <use xlink:href="#DejaVuSans-73" x="201.904297"/>
      <use xlink:href="#DejaVuSans-69" x="254.003906"/>
      <use xlink:href="#DejaVuSans-74" x="281.787109"/>
      <use xlink:href="#DejaVuSans-79" x="320.996094"/>
     </g>
    </g>
   </g>
   <g id="patch_3">
    <path d="M 50.759329 185.902688 
L 53.394512 185.902688 
L 53.394512 180.709245 
L 50.759329 180.709245 
z
" clip-path="url(#pcd059ac9d2)" style="fill: #4c72b0; fill-opacity: 0.75"/>
   </g>
   <g id="patch_4">
    <path d="M 53.394512 185.902688 
L 56.029695 185.902688 
L 56.029695 178.761704 
L 53.394512 178.761704 
z
" clip-path="url(#pcd059ac9d2)" style="fill: #4c72b0; fill-opacity: 0.75"/>
   </g>
   <g id="patch_5">
    <path d="M 56.029695 185.902688 
L 58.664878 185.902688 
L 58.664878 171.29613 
L 56.029695 171.29613 
z
" clip-path="url(#pcd059ac9d2)" style="fill: #4c72b0; fill-opacity: 0.75"/>
   </g>
   <g id="patch_6">
    <path d="M 58.664878 185.902688 
L 61.300061 185.902688 
L 61.300061 178.112524 
L 58.664878 178.112524 
z
" clip-path="url(#pcd059ac9d2)" style="fill: #4c72b0; fill-opacity: 0.75"/>
   </g>
   <g id="patch_7">
    <path d="M 61.300061 185.902688 
L 63.935244 185.902688 
L 63.935244 167.401048 
L 61.300061 167.401048 
z
" clip-path="url(#pcd059ac9d2)" style="fill: #4c72b0; fill-opacity: 0.75"/>
   </g>
   <g id="patch_8">
    <path d="M 63.935244 185.902688 
L 66.570427 185.902688 
L 66.570427 165.128917 
L 63.935244 165.128917 
z
" clip-path="url(#pcd059ac9d2)" style="fill: #4c72b0; fill-opacity: 0.75"/>
   </g>
   <g id="patch_9">
    <path d="M 66.570427 185.902688 
L 69.20561 185.902688 
L 69.20561 152.794491 
L 66.570427 152.794491 
z
" clip-path="url(#pcd059ac9d2)" style="fill: #4c72b0; fill-opacity: 0.75"/>
   </g>
   <g id="patch_10">
    <path d="M 69.20561 185.902688 
L 71.840793 185.902688 
L 71.840793 155.066622 
L 69.20561 155.066622 
z
" clip-path="url(#pcd059ac9d2)" style="fill: #4c72b0; fill-opacity: 0.75"/>
   </g>
   <g id="patch_11">
    <path d="M 71.840793 185.902688 
L 74.475976 185.902688 
L 74.475976 145.653507 
L 71.840793 145.653507 
z
" clip-path="url(#pcd059ac9d2)" style="fill: #4c72b0; fill-opacity: 0.75"/>
   </g>
   <g id="patch_12">
    <path d="M 74.475976 185.902688 
L 77.111159 185.902688 
L 77.111159 107.676458 
L 74.475976 107.676458 
z
" clip-path="url(#pcd059ac9d2)" style="fill: #4c72b0; fill-opacity: 0.75"/>
   </g>
   <g id="patch_13">
    <path d="M 77.111159 185.902688 
L 79.746342 185.902688 
L 79.746342 75.866622 
L 77.111159 75.866622 
z
" clip-path="url(#pcd059ac9d2)" style="fill: #4c72b0; fill-opacity: 0.75"/>
   </g>
   <g id="patch_14">
    <path d="M 79.746342 185.902688 
L 82.381525 185.902688 
L 82.381525 125.204327 
L 79.746342 125.204327 
z
" clip-path="url(#pcd059ac9d2)" style="fill: #4c72b0; fill-opacity: 0.75"/>
   </g>
   <g id="patch_15">
    <path d="M 82.381525 185.902688 
L 85.016708 185.902688 
L 85.016708 128.450228 
L 82.381525 128.450228 
z
" clip-path="url(#pcd059ac9d2)" style="fill: #4c72b0; fill-opacity: 0.75"/>
   </g>
   <g id="patch_16">
    <path d="M 85.016708 185.902688 
L 87.651891 185.902688 
L 87.651891 101.509245 
L 85.016708 101.509245 
z
" clip-path="url(#pcd059ac9d2)" style="fill: #4c72b0; fill-opacity: 0.75"/>
   </g>
   <g id="patch_17">
    <path d="M 87.651891 185.902688 
L 90.287074 185.902688 
L 90.287074 113.843671 
L 87.651891 113.843671 
z
" clip-path="url(#pcd059ac9d2)" style="fill: #4c72b0; fill-opacity: 0.75"/>
   </g>
   <g id="patch_18">
    <path d="M 90.287074 185.902688 
L 92.922257 185.902688 
L 92.922257 105.079737 
L 90.287074 105.079737 
z
" clip-path="url(#pcd059ac9d2)" style="fill: #4c72b0; fill-opacity: 0.75"/>
   </g>
   <g id="patch_19">
    <path d="M 92.922257 185.902688 
L 95.55744 185.902688 
L 95.55744 67.751868 
L 92.922257 67.751868 
z
" clip-path="url(#pcd059ac9d2)" style="fill: #4c72b0; fill-opacity: 0.75"/>
   </g>
   <g id="patch_20">
    <path d="M 95.55744 185.902688 
L 98.192623 185.902688 
L 98.192623 27.502687 
L 95.55744 27.502687 
z
" clip-path="url(#pcd059ac9d2)" style="fill: #4c72b0; fill-opacity: 0.75"/>
   </g>
   <g id="patch_21">
    <path d="M 98.192623 185.902688 
L 100.827806 185.902688 
L 100.827806 75.217442 
L 98.192623 75.217442 
z
" clip-path="url(#pcd059ac9d2)" style="fill: #4c72b0; fill-opacity: 0.75"/>
   </g>
   <g id="patch_22">
    <path d="M 100.827806 185.902688 
L 103.462989 185.902688 
L 103.462989 127.151868 
L 100.827806 127.151868 
z
" clip-path="url(#pcd059ac9d2)" style="fill: #4c72b0; fill-opacity: 0.75"/>
   </g>
   <g id="patch_23">
    <path d="M 103.462989 185.902688 
L 106.098172 185.902688 
L 106.098172 117.414163 
L 103.462989 117.414163 
z
" clip-path="url(#pcd059ac9d2)" style="fill: #4c72b0; fill-opacity: 0.75"/>
   </g>
   <g id="patch_24">
    <path d="M 106.098172 185.902688 
L 108.733355 185.902688 
L 108.733355 115.142032 
L 106.098172 115.142032 
z
" clip-path="url(#pcd059ac9d2)" style="fill: #4c72b0; fill-opacity: 0.75"/>
   </g>
   <g id="patch_25">
    <path d="M 108.733355 185.902688 
L 111.368538 185.902688 
L 111.368538 91.77154 
L 108.733355 91.77154 
z
" clip-path="url(#pcd059ac9d2)" style="fill: #4c72b0; fill-opacity: 0.75"/>
   </g>
   <g id="patch_26">
    <path d="M 111.368538 185.902688 
L 114.003721 185.902688 
L 114.003721 143.056786 
L 111.368538 143.056786 
z
" clip-path="url(#pcd059ac9d2)" style="fill: #4c72b0; fill-opacity: 0.75"/>
   </g>
   <g id="patch_27">
    <path d="M 114.003721 185.902688 
L 116.638904 185.902688 
L 116.638904 132.34531 
L 114.003721 132.34531 
z
" clip-path="url(#pcd059ac9d2)" style="fill: #4c72b0; fill-opacity: 0.75"/>
   </g>
   <g id="patch_28">
    <path d="M 116.638904 185.902688 
L 119.274087 185.902688 
L 119.274087 145.978097 
L 116.638904 145.978097 
z
" clip-path="url(#pcd059ac9d2)" style="fill: #4c72b0; fill-opacity: 0.75"/>
   </g>
   <g id="patch_29">
    <path d="M 119.274087 185.902688 
L 121.90927 185.902688 
L 121.90927 158.961704 
L 119.274087 158.961704 
z
" clip-path="url(#pcd059ac9d2)" style="fill: #4c72b0; fill-opacity: 0.75"/>
   </g>
   <g id="patch_30">
    <path d="M 121.90927 185.902688 
L 124.544453 185.902688 
L 124.544453 173.892851 
L 121.90927 173.892851 
z
" clip-path="url(#pcd059ac9d2)" style="fill: #4c72b0; fill-opacity: 0.75"/>
   </g>
   <g id="patch_31">
    <path d="M 124.544453 185.902688 
L 127.179636 185.902688 
L 127.179636 169.997769 
L 124.544453 169.997769 
z
" clip-path="url(#pcd059ac9d2)" style="fill: #4c72b0; fill-opacity: 0.75"/>
   </g>
   <g id="patch_32">
    <path d="M 127.179636 185.902688 
L 129.814819 185.902688 
L 129.814819 172.594491 
L 127.179636 172.594491 
z
" clip-path="url(#pcd059ac9d2)" style="fill: #4c72b0; fill-opacity: 0.75"/>
   </g>
   <g id="patch_33">
    <path d="M 129.814819 185.902688 
L 132.450002 185.902688 
L 132.450002 178.437114 
L 129.814819 178.437114 
z
" clip-path="url(#pcd059ac9d2)" style="fill: #4c72b0; fill-opacity: 0.75"/>
   </g>
   <g id="patch_34">
    <path d="M 132.450002 185.902688 
L 135.085185 185.902688 
L 135.085185 182.656786 
L 132.450002 182.656786 
z
" clip-path="url(#pcd059ac9d2)" style="fill: #4c72b0; fill-opacity: 0.75"/>
   </g>
   <g id="patch_35">
    <path d="M 135.085185 185.902688 
L 137.720368 185.902688 
L 137.720368 183.955147 
L 135.085185 183.955147 
z
" clip-path="url(#pcd059ac9d2)" style="fill: #4c72b0; fill-opacity: 0.75"/>
   </g>
   <g id="patch_36">
    <path d="M 137.720368 185.902688 
L 140.355551 185.902688 
L 140.355551 182.332196 
L 137.720368 182.332196 
z
" clip-path="url(#pcd059ac9d2)" style="fill: #4c72b0; fill-opacity: 0.75"/>
   </g>
   <g id="patch_37">
    <path d="M 140.355551 185.902688 
L 142.990734 185.902688 
L 142.990734 184.928917 
L 140.355551 184.928917 
z
" clip-path="url(#pcd059ac9d2)" style="fill: #4c72b0; fill-opacity: 0.75"/>
   </g>
   <g id="line2d_1">
    <path d="M 46.147759 184.535834 
L 48.420795 183.855287 
L 50.429997 183.024054 
L 52.276839 182.018402 
L 54.001911 180.82401 
L 55.645804 179.414523 
L 57.249106 177.745266 
L 58.832114 175.774166 
L 60.435416 173.414155 
L 62.059014 170.616922 
L 63.723201 167.293653 
L 65.448273 163.33735 
L 67.254525 158.624564 
L 69.182547 152.9588 
L 71.313519 145.982202 
L 73.789505 137.074372 
L 77.19906 123.886733 
L 82.130737 104.880439 
L 84.342888 97.271131 
L 86.108551 91.955307 
L 87.610378 88.103531 
L 88.929551 85.306908 
L 90.086364 83.350685 
L 91.121408 82.018769 
L 92.034681 81.185283 
L 92.866775 80.711929 
L 93.637984 80.520194 
L 94.388898 80.563127 
L 95.139811 80.832352 
L 95.931315 81.359167 
L 96.783704 82.201154 
L 97.737567 83.472589 
L 98.792906 85.269054 
L 99.970014 87.729088 
L 101.309482 91.067234 
L 102.851899 95.540377 
L 104.678446 101.561463 
L 106.971778 109.938182 
L 110.909002 125.327952 
L 114.805636 140.226137 
L 117.342507 149.059799 
L 119.514068 155.843092 
L 121.502975 161.344892 
L 123.349817 165.821148 
L 125.115479 169.53599 
L 126.820257 172.619989 
L 128.484444 175.184408 
L 130.128336 177.320578 
L 131.772229 179.101499 
L 133.456711 180.600732 
L 135.181784 181.840051 
L 136.988036 182.865627 
L 138.936353 183.714422 
L 141.087619 184.404347 
L 143.523015 184.947386 
L 146.425196 185.360224 
L 147.602304 185.475411 
L 147.602304 185.475411 
" clip-path="url(#pcd059ac9d2)" style="fill: none; stroke: #1a1a1a; stroke-width: 2; stroke-linecap: round"/>
   </g>
   <g id="line2d_2">
    <path d="M 134.998785 185.902688 
L 134.998785 19.582687 
" clip-path="url(#pcd059ac9d2)" style="fill: none; stroke: #ff0000; stroke-width: 1.5; stroke-linecap: round"/>
   </g>
   <g id="patch_38">
    <path d="M 41.075031 185.902688 
L 41.075031 19.582687 
" style="fill: none; stroke: #262626; stroke-width: 1.25; stroke-linejoin: miter; stroke-linecap: square"/>
   </g>
   <g id="patch_39">
    <path d="M 41.075031 185.902688 
L 152.675031 185.902688 
" style="fill: none; stroke: #262626; stroke-width: 1.25; stroke-linejoin: miter; stroke-linecap: square"/>
   </g>
   <g id="text_14">
    <!-- Observed $\Delta$ = 0.439 -->
    <g style="fill: #262626" transform="translate(133.277039 103.955062)rotate(-90)scale(0.058296 -0.058296)">
     <defs>
      <path id="DejaVuSans-4f" d="M 2522 4238 
Q 1834 4238 1429 3725 
Q 1025 3213 1025 2328 
Q 1025 1447 1429 934 
Q 1834 422 2522 422 
Q 3209 422 3611 934 
Q 4013 1447 4013 2328 
Q 4013 3213 3611 3725 
Q 3209 4238 2522 4238 
z
M 2522 4750 
Q 3503 4750 4090 4092 
Q 4678 3434 4678 2328 
Q 4678 1225 4090 567 
Q 3503 -91 2522 -91 
Q 1538 -91 948 565 
Q 359 1222 359 2328 
Q 359 3434 948 4092 
Q 1538 4750 2522 4750 
z
" transform="scale(0.015625)"/>
      <path id="DejaVuSans-76" d="M 191 3500 
L 800 3500 
L 1894 563 
L 2988 3500 
L 3597 3500 
L 2284 0 
L 1503 0 
L 191 3500 
z
" transform="scale(0.015625)"/>
      <path id="DejaVuSans-3d" d="M 678 2906 
L 4684 2906 
L 4684 2381 
L 678 2381 
L 678 2906 
z
M 678 1631 
L 4684 1631 
L 4684 1100 
L 678 1100 
L 678 1631 
z
" transform="scale(0.015625)"/>
      <path id="DejaVuSans-34" d="M 2419 4116 
L 825 1625 
L 2419 1625 
L 2419 4116 
z
M 2253 4666 
L 3047 4666 
L 3047 1625 
L 3713 1625 
L 3713 1100 
L 3047 1100 
L 3047 0 
L 2419 0 
L 2419 1100 
L 313 1100 
L 313 1709 
L 2253 4666 
z
" transform="scale(0.015625)"/>
      <path id="DejaVuSans-39" d="M 703 97 
L 703 672 
Q 941 559 1184 500 
Q 1428 441 1663 441 
Q 2288 441 2617 861 
Q 2947 1281 2994 2138 
Q 2813 1869 2534 1725 
Q 2256 1581 1919 1581 
Q 1219 1581 811 2004 
Q 403 2428 403 3163 
Q 403 3881 828 4315 
Q 1253 4750 1959 4750 
Q 2769 4750 3195 4129 
Q 3622 3509 3622 2328 
Q 3622 1225 3098 567 
Q 2575 -91 1691 -91 
Q 1453 -91 1209 -44 
Q 966 3 703 97 
z
M 1959 2075 
Q 2384 2075 2632 2365 
Q 2881 2656 2881 3163 
Q 2881 3666 2632 3958 
Q 2384 4250 1959 4250 
Q 1534 4250 1286 3958 
Q 1038 3666 1038 3163 
Q 1038 2656 1286 2365 
Q 1534 2075 1959 2075 
z
" transform="scale(0.015625)"/>
     </defs>
     <use xlink:href="#DejaVuSans-4f" transform="translate(0 0.015625)"/>
     <use xlink:href="#DejaVuSans-62" transform="translate(78.710938 0.015625)"/>
     <use xlink:href="#DejaVuSans-73" transform="translate(142.1875 0.015625)"/>
     <use xlink:href="#DejaVuSans-65" transform="translate(194.287109 0.015625)"/>
     <use xlink:href="#DejaVuSans-72" transform="translate(255.810547 0.015625)"/>
     <use xlink:href="#DejaVuSans-76" transform="translate(296.923828 0.015625)"/>
     <use xlink:href="#DejaVuSans-65" transform="translate(356.103516 0.015625)"/>
     <use xlink:href="#DejaVuSans-64" transform="translate(417.626953 0.015625)"/>
     <use xlink:href="#DejaVuSans-20" transform="translate(481.103516 0.015625)"/>
     <use xlink:href="#DejaVuSans-394" transform="translate(512.890625 0.015625)"/>
     <use xlink:href="#DejaVuSans-20" transform="translate(581.298828 0.015625)"/>
     <use xlink:href="#DejaVuSans-3d" transform="translate(613.085938 0.015625)"/>
     <use xlink:href="#DejaVuSans-20" transform="translate(696.875 0.015625)"/>
     <use xlink:href="#DejaVuSans-30" transform="translate(728.662109 0.015625)"/>
     <use xlink:href="#DejaVuSans-2e" transform="translate(792.285156 0.015625)"/>
     <use xlink:href="#DejaVuSans-34" transform="translate(824.072266 0.015625)"/>
     <use xlink:href="#DejaVuSans-33" transform="translate(887.695312 0.015625)"/>
     <use xlink:href="#DejaVuSans-39" transform="translate(951.318359 0.015625)"/>
    </g>
   </g>
   <g id="text_15">
    <g id="patch_40">
     <path d="M 79.581344 38.548312 
L 147.095031 38.548312 
Q 149.615031 38.548312 149.615031 36.028312 
L 149.615031 27.898688 
Q 149.615031 25.378687 147.095031 25.378687 
L 79.581344 25.378687 
Q 77.061344 25.378687 77.061344 27.898688 
L 77.061344 36.028312 
Q 77.061344 38.548312 79.581344 38.548312 
z
" style="fill: #ffffff"/>
    </g>
    <!-- p-value = 0.006 -->
    <g style="fill: #262626" transform="translate(79.581344 34.281375)scale(0.084 -0.084)">
     <defs>
      <path id="DejaVuSans-70" d="M 1159 525 
L 1159 -1331 
L 581 -1331 
L 581 3500 
L 1159 3500 
L 1159 2969 
Q 1341 3281 1617 3432 
Q 1894 3584 2278 3584 
Q 2916 3584 3314 3078 
Q 3713 2572 3713 1747 
Q 3713 922 3314 415 
Q 2916 -91 2278 -91 
Q 1894 -91 1617 61 
Q 1341 213 1159 525 
z
M 3116 1747 
Q 3116 2381 2855 2742 
Q 2594 3103 2138 3103 
Q 1681 3103 1420 2742 
Q 1159 2381 1159 1747 
Q 1159 1113 1420 752 
Q 1681 391 2138 391 
Q 2594 391 2855 752 
Q 3116 1113 3116 1747 
z
" transform="scale(0.015625)"/>
      <path id="DejaVuSans-2d" d="M 313 2009 
L 1997 2009 
L 1997 1497 
L 313 1497 
L 313 2009 
z
" transform="scale(0.015625)"/>
      <path id="DejaVuSans-36" d="M 2113 2584 
Q 1688 2584 1439 2293 
Q 1191 2003 1191 1497 
Q 1191 994 1439 701 
Q 1688 409 2113 409 
Q 2538 409 2786 701 
Q 3034 994 3034 1497 
Q 3034 2003 2786 2293 
Q 2538 2584 2113 2584 
z
M 3366 4563 
L 3366 3988 
Q 3128 4100 2886 4159 
Q 2644 4219 2406 4219 
Q 1781 4219 1451 3797 
Q 1122 3375 1075 2522 
Q 1259 2794 1537 2939 
Q 1816 3084 2150 3084 
Q 2853 3084 3261 2657 
Q 3669 2231 3669 1497 
Q 3669 778 3244 343 
Q 2819 -91 2113 -91 
Q 1303 -91 875 529 
Q 447 1150 447 2328 
Q 447 3434 972 4092 
Q 1497 4750 2381 4750 
Q 2619 4750 2861 4703 
Q 3103 4656 3366 4563 
z
" transform="scale(0.015625)"/>
     </defs>
     <use xlink:href="#DejaVuSans-70"/>
     <use xlink:href="#DejaVuSans-2d" x="63.476562"/>
     <use xlink:href="#DejaVuSans-76" x="96.935547"/>
     <use xlink:href="#DejaVuSans-61" x="156.115234"/>
     <use xlink:href="#DejaVuSans-6c" x="217.394531"/>
     <use xlink:href="#DejaVuSans-75" x="245.177734"/>
     <use xlink:href="#DejaVuSans-65" x="308.556641"/>
     <use xlink:href="#DejaVuSans-20" x="370.080078"/>
     <use xlink:href="#DejaVuSans-3d" x="401.867188"/>
     <use xlink:href="#DejaVuSans-20" x="485.65625"/>
     <use xlink:href="#DejaVuSans-30" x="517.443359"/>
     <use xlink:href="#DejaVuSans-2e" x="581.066406"/>
     <use xlink:href="#DejaVuSans-30" x="612.853516"/>
     <use xlink:href="#DejaVuSans-30" x="676.476562"/>
     <use xlink:href="#DejaVuSans-36" x="740.099609"/>
    </g>
   </g>
   <g id="text_16">
    <!-- Structured Shuffling -->
    <g style="fill: #262626" transform="translate(54.73 13.582687)scale(0.084 -0.084)">
     <defs>
      <path id="DejaVuSans-53" d="M 3425 4513 
L 3425 3897 
Q 3066 4069 2747 4153 
Q 2428 4238 2131 4238 
Q 1616 4238 1336 4038 
Q 1056 3838 1056 3469 
Q 1056 3159 1242 3001 
Q 1428 2844 1947 2747 
L 2328 2669 
Q 3034 2534 3370 2195 
Q 3706 1856 3706 1288 
Q 3706 609 3251 259 
Q 2797 -91 1919 -91 
Q 1588 -91 1214 -16 
Q 841 59 441 206 
L 441 856 
Q 825 641 1194 531 
Q 1563 422 1919 422 
Q 2459 422 2753 634 
Q 3047 847 3047 1241 
Q 3047 1584 2836 1778 
Q 2625 1972 2144 2069 
L 1759 2144 
Q 1053 2284 737 2584 
Q 422 2884 422 3419 
Q 422 4038 858 4394 
Q 1294 4750 2059 4750 
Q 2388 4750 2728 4690 
Q 3069 4631 3425 4513 
z
" transform="scale(0.015625)"/>
      <path id="DejaVuSans-63" d="M 3122 3366 
L 3122 2828 
Q 2878 2963 2633 3030 
Q 2388 3097 2138 3097 
Q 1578 3097 1268 2742 
Q 959 2388 959 1747 
Q 959 1106 1268 751 
Q 1578 397 2138 397 
Q 2388 397 2633 464 
Q 2878 531 3122 666 
L 3122 134 
Q 2881 22 2623 -34 
Q 2366 -91 2075 -91 
Q 1284 -91 818 406 
Q 353 903 353 1747 
Q 353 2603 823 3093 
Q 1294 3584 2113 3584 
Q 2378 3584 2631 3529 
Q 2884 3475 3122 3366 
z
" transform="scale(0.015625)"/>
      <path id="DejaVuSans-68" d="M 3513 2113 
L 3513 0 
L 2938 0 
L 2938 2094 
Q 2938 2591 2744 2837 
Q 2550 3084 2163 3084 
Q 1697 3084 1428 2787 
Q 1159 2491 1159 1978 
L 1159 0 
L 581 0 
L 581 4863 
L 1159 4863 
L 1159 2956 
Q 1366 3272 1645 3428 
Q 1925 3584 2291 3584 
Q 2894 3584 3203 3211 
Q 3513 2838 3513 2113 
z
" transform="scale(0.015625)"/>
      <path id="DejaVuSans-66" d="M 2375 4863 
L 2375 4384 
L 1825 4384 
Q 1516 4384 1395 4259 
Q 1275 4134 1275 3809 
L 1275 3500 
L 2222 3500 
L 2222 3053 
L 1275 3053 
L 1275 0 
L 697 0 
L 697 3053 
L 147 3053 
L 147 3500 
L 697 3500 
L 697 3744 
Q 697 4328 969 4595 
Q 1241 4863 1831 4863 
L 2375 4863 
z
" transform="scale(0.015625)"/>
      <path id="DejaVuSans-67" d="M 2906 1791 
Q 2906 2416 2648 2759 
Q 2391 3103 1925 3103 
Q 1463 3103 1205 2759 
Q 947 2416 947 1791 
Q 947 1169 1205 825 
Q 1463 481 1925 481 
Q 2391 481 2648 825 
Q 2906 1169 2906 1791 
z
M 3481 434 
Q 3481 -459 3084 -895 
Q 2688 -1331 1869 -1331 
Q 1566 -1331 1297 -1286 
Q 1028 -1241 775 -1147 
L 775 -588 
Q 1028 -725 1275 -790 
Q 1522 -856 1778 -856 
Q 2344 -856 2625 -561 
Q 2906 -266 2906 331 
L 2906 616 
Q 2728 306 2450 153 
Q 2172 0 1784 0 
Q 1141 0 747 490 
Q 353 981 353 1791 
Q 353 2603 747 3093 
Q 1141 3584 1784 3584 
Q 2172 3584 2450 3431 
Q 2728 3278 2906 2969 
L 2906 3500 
L 3481 3500 
L 3481 434 
z
" transform="scale(0.015625)"/>
     </defs>
     <use xlink:href="#DejaVuSans-53"/>
     <use xlink:href="#DejaVuSans-74" x="63.476562"/>
     <use xlink:href="#DejaVuSans-72" x="102.685547"/>
     <use xlink:href="#DejaVuSans-75" x="143.798828"/>
     <use xlink:href="#DejaVuSans-63" x="207.177734"/>
     <use xlink:href="#DejaVuSans-74" x="262.158203"/>
     <use xlink:href="#DejaVuSans-75" x="301.367188"/>
     <use xlink:href="#DejaVuSans-72" x="364.746094"/>
     <use xlink:href="#DejaVuSans-65" x="403.609375"/>
     <use xlink:href="#DejaVuSans-64" x="465.132812"/>
     <use xlink:href="#DejaVuSans-20" x="528.609375"/>
     <use xlink:href="#DejaVuSans-53" x="560.396484"/>
     <use xlink:href="#DejaVuSans-68" x="623.873047"/>
     <use xlink:href="#DejaVuSans-75" x="687.251953"/>
     <use xlink:href="#DejaVuSans-66" x="750.630859"/>
     <use xlink:href="#DejaVuSans-66" x="785.835938"/>
     <use xlink:href="#DejaVuSans-6c" x="821.041016"/>
     <use xlink:href="#DejaVuSans-69" x="848.824219"/>
     <use xlink:href="#DejaVuSans-6e" x="876.607422"/>
     <use xlink:href="#DejaVuSans-67" x="939.986328"/>
    </g>
   </g>
  </g>
 </g>
 <defs>
  <clipPath id="pcd059ac9d2">
   <rect x="41.075031" y="19.582687" width="111.6" height="166.32"/>
  </clipPath>
 </defs>
</svg>
