<?xml version="1.0" encoding="utf-8" standalone="no"?>
<!DOCTYPE svg PUBLIC "-//W3C//DTD SVG 1.1//EN"
  "http://www.w3.org/Graphics/SVG/1.1/DTD/svg11.dtd">
<svg xmlns:xlink="http://www.w3.org/1999/xlink" width="333.266097pt" height="212.106812pt" viewBox="0 0 333.266097 212.106812" xmlns="http://www.w3.org/2000/svg" version="1.1">
 <metadata>
  <rdf:RDF xmlns:dc="http://purl.org/dc/elements/1.1/" xmlns:cc="http://creativecommons.org/ns#" xmlns:rdf="http://www.w3.org/1999/02/22-rdf-syntax-ns#">
   <cc:Work>
    <dc:type rdf:resource="http://purl.org/dc/dcmitype/StillImage"/>
    <dc:date>2023-06-22T15:07:39.075198</dc:date>
    <dc:format>image/svg+xml</dc:format>
    <dc:creator>
     <cc:Agent>
      <dc:title>Matplotlib v3.5.2, https://matplotlib.org/</dc:title>
     </cc:Agent>
    </dc:creator>
   </cc:Work>
  </rdf:RDF>
 </metadata>
 <defs>
  <style type="text/css">*{stroke-linejoin: round; stroke-linecap: butt}</style>
 </defs>
 <g id="figure_1">
  <g id="patch_1">
   <path d="M 0 212.106812 
L 333.266097 212.106812 
L 333.266097 0 
L 0 0 
z
" style="fill: #ffffff"/>
  </g>
  <g id="axes_1">
   <g id="patch_2">
    <path d="M 41.127531 175.825031 
L 320.127531 175.825031 
L 320.127531 12.745031 
L 41.127531 12.745031 
z
" style="fill: #ffffff"/>
   </g>
   <g id="matplotlib.axis_1">
    <g id="xtick_1">
     <g id="text_1">
      <!-- 1900 -->
      <g style="fill: #262626" transform="translate(41.805566 191.175828)scale(0.077 -0.077)">
       <defs>
        <path id="DejaVuSans-31" d="M 794 531 
L 1825 531 
L 1825 4091 
L 703 3866 
L 703 4441 
L 1819 4666 
L 2450 4666 
L 2450 531 
L 3481 531 
L 3481 0 
L 794 0 
L 794 531 
z
" transform="scale(0.015625)"/>
        <path id="DejaVuSans-39" d="M 703 97 
L 703 672 
Q 941 559 1184 500 
Q 1428 441 1663 441 
Q 2288 441 2617 861 
Q 2947 1281 2994 2138 
Q 2813 1869 2534 1725 
Q 2256 1581 1919 1581 
Q 1219 1581 811 2004 
Q 403 2428 403 3163 
Q 403 3881 828 4315 
Q 1253 4750 1959 4750 
Q 2769 4750 3195 4129 
Q 3622 3509 3622 2328 
Q 3622 1225 3098 567 
Q 2575 -91 1691 -91 
Q 1453 -91 1209 -44 
Q 966 3 703 97 
z
M 1959 2075 
Q 2384 2075 2632 2365 
Q 2881 2656 2881 3163 
Q 2881 3666 2632 3958 
Q 2384 4250 1959 4250 
Q 1534 4250 1286 3958 
Q 1038 3666 1038 3163 
Q 1038 2656 1286 2365 
Q 1534 2075 1959 2075 
z
" transform="scale(0.015625)"/>
        <path id="DejaVuSans-30" d="M 2034 4250 
Q 1547 4250 1301 3770 
Q 1056 3291 1056 2328 
Q 1056 1369 1301 889 
Q 1547 409 2034 409 
Q 2525 409 2770 889 
Q 3016 1369 3016 2328 
Q 3016 3291 2770 3770 
Q 2525 4250 2034 4250 
z
M 2034 4750 
Q 2819 4750 3233 4129 
Q 3647 3509 3647 2328 
Q 3647 1150 3233 529 
Q 2819 -91 2034 -91 
Q 1250 -91 836 529 
Q 422 1150 422 2328 
Q 422 3509 836 4129 
Q 1250 4750 2034 4750 
z
" transform="scale(0.015625)"/>
       </defs>
       <use xlink:href="#DejaVuSans-31"/>
       <use xlink:href="#DejaVuSans-39" x="63.623047"/>
       <use xlink:href="#DejaVuSans-30" x="127.246094"/>
       <use xlink:href="#DejaVuSans-30" x="190.869141"/>
      </g>
     </g>
    </g>
    <g id="xtick_2">
     <g id="text_2">
      <!-- 1920 -->
      <g style="fill: #262626" transform="translate(85.916238 191.175828)scale(0.077 -0.077)">
       <defs>
        <path id="DejaVuSans-32" d="M 1228 531 
L 3431 531 
L 3431 0 
L 469 0 
L 469 531 
Q 828 903 1448 1529 
Q 2069 2156 2228 2338 
Q 2531 2678 2651 2914 
Q 2772 3150 2772 3378 
Q 2772 3750 2511 3984 
Q 2250 4219 1831 4219 
Q 1534 4219 1204 4116 
Q 875 4013 500 3803 
L 500 4441 
Q 881 4594 1212 4672 
Q 1544 4750 1819 4750 
Q 2544 4750 2975 4387 
Q 3406 4025 3406 3419 
Q 3406 3131 3298 2873 
Q 3191 2616 2906 2266 
Q 2828 2175 2409 1742 
Q 1991 1309 1228 531 
z
" transform="scale(0.015625)"/>
       </defs>
       <use xlink:href="#DejaVuSans-31"/>
       <use xlink:href="#DejaVuSans-39" x="63.623047"/>
       <use xlink:href="#DejaVuSans-32" x="127.246094"/>
       <use xlink:href="#DejaVuSans-30" x="190.869141"/>
      </g>
     </g>
    </g>
    <g id="xtick_3">
     <g id="text_3">
      <!-- 1940 -->
      <g style="fill: #262626" transform="translate(130.02691 191.175828)scale(0.077 -0.077)">
       <defs>
        <path id="DejaVuSans-34" d="M 2419 4116 
L 825 1625 
L 2419 1625 
L 2419 4116 
z
M 2253 4666 
L 3047 4666 
L 3047 1625 
L 3713 1625 
L 3713 1100 
L 3047 1100 
L 3047 0 
L 2419 0 
L 2419 1100 
L 313 1100 
L 313 1709 
L 2253 4666 
z
" transform="scale(0.015625)"/>
       </defs>
       <use xlink:href="#DejaVuSans-31"/>
       <use xlink:href="#DejaVuSans-39" x="63.623047"/>
       <use xlink:href="#DejaVuSans-34" x="127.246094"/>
       <use xlink:href="#DejaVuSans-30" x="190.869141"/>
      </g>
     </g>
    </g>
    <g id="xtick_4">
     <g id="text_4">
      <!-- 1960 -->
      <g style="fill: #262626" transform="translate(174.137582 191.175828)scale(0.077 -0.077)">
       <defs>
        <path id="DejaVuSans-36" d="M 2113 2584 
Q 1688 2584 1439 2293 
Q 1191 2003 1191 1497 
Q 1191 994 1439 701 
Q 1688 409 2113 409 
Q 2538 409 2786 701 
Q 3034 994 3034 1497 
Q 3034 2003 2786 2293 
Q 2538 2584 2113 2584 
z
M 3366 4563 
L 3366 3988 
Q 3128 4100 2886 4159 
Q 2644 4219 2406 4219 
Q 1781 4219 1451 3797 
Q 1122 3375 1075 2522 
Q 1259 2794 1537 2939 
Q 1816 3084 2150 3084 
Q 2853 3084 3261 2657 
Q 3669 2231 3669 1497 
Q 3669 778 3244 343 
Q 2819 -91 2113 -91 
Q 1303 -91 875 529 
Q 447 1150 447 2328 
Q 447 3434 972 4092 
Q 1497 4750 2381 4750 
Q 2619 4750 2861 4703 
Q 3103 4656 3366 4563 
z
" transform="scale(0.015625)"/>
       </defs>
       <use xlink:href="#DejaVuSans-31"/>
       <use xlink:href="#DejaVuSans-39" x="63.623047"/>
       <use xlink:href="#DejaVuSans-36" x="127.246094"/>
       <use xlink:href="#DejaVuSans-30" x="190.869141"/>
      </g>
     </g>
    </g>
    <g id="xtick_5">
     <g id="text_5">
      <!-- 1980 -->
      <g style="fill: #262626" transform="translate(218.248254 191.175828)scale(0.077 -0.077)">
       <defs>
        <path id="DejaVuSans-38" d="M 2034 2216 
Q 1584 2216 1326 1975 
Q 1069 1734 1069 1313 
Q 1069 891 1326 650 
Q 1584 409 2034 409 
Q 2484 409 2743 651 
Q 3003 894 3003 1313 
Q 3003 1734 2745 1975 
Q 2488 2216 2034 2216 
z
M 1403 2484 
Q 997 2584 770 2862 
Q 544 3141 544 3541 
Q 544 4100 942 4425 
Q 1341 4750 2034 4750 
Q 2731 4750 3128 4425 
Q 3525 4100 3525 3541 
Q 3525 3141 3298 2862 
Q 3072 2584 2669 2484 
Q 3125 2378 3379 2068 
Q 3634 1759 3634 1313 
Q 3634 634 3220 271 
Q 2806 -91 2034 -91 
Q 1263 -91 848 271 
Q 434 634 434 1313 
Q 434 1759 690 2068 
Q 947 2378 1403 2484 
z
M 1172 3481 
Q 1172 3119 1398 2916 
Q 1625 2713 2034 2713 
Q 2441 2713 2670 2916 
Q 2900 3119 2900 3481 
Q 2900 3844 2670 4047 
Q 2441 4250 2034 4250 
Q 1625 4250 1398 4047 
Q 1172 3844 1172 3481 
z
" transform="scale(0.015625)"/>
       </defs>
       <use xlink:href="#DejaVuSans-31"/>
       <use xlink:href="#DejaVuSans-39" x="63.623047"/>
       <use xlink:href="#DejaVuSans-38" x="127.246094"/>
       <use xlink:href="#DejaVuSans-30" x="190.869141"/>
      </g>
     </g>
    </g>
    <g id="xtick_6">
     <g id="text_6">
      <!-- 2000 -->
      <g style="fill: #262626" transform="translate(262.358926 191.175828)scale(0.077 -0.077)">
       <use xlink:href="#DejaVuSans-32"/>
       <use xlink:href="#DejaVuSans-30" x="63.623047"/>
       <use xlink:href="#DejaVuSans-30" x="127.246094"/>
       <use xlink:href="#DejaVuSans-30" x="190.869141"/>
      </g>
     </g>
    </g>
    <g id="xtick_7">
     <g id="text_7">
      <!-- 2020 -->
      <g style="fill: #262626" transform="translate(306.469597 191.175828)scale(0.077 -0.077)">
       <use xlink:href="#DejaVuSans-32"/>
       <use xlink:href="#DejaVuSans-30" x="63.623047"/>
       <use xlink:href="#DejaVuSans-32" x="127.246094"/>
       <use xlink:href="#DejaVuSans-30" x="190.869141"/>
      </g>
     </g>
    </g>
    <g id="text_8">
     <!-- Year Cultured -->
     <g style="fill: #262626" transform="translate(152.446844 203.159875)scale(0.084 -0.084)">
      <defs>
       <path id="DejaVuSans-59" d="M -13 4666 
L 666 4666 
L 1959 2747 
L 3244 4666 
L 3922 4666 
L 2272 2222 
L 2272 0 
L 1638 0 
L 1638 2222 
L -13 4666 
z
" transform="scale(0.015625)"/>
       <path id="DejaVuSans-65" d="M 3597 1894 
L 3597 1613 
L 953 1613 
Q 991 1019 1311 708 
Q 1631 397 2203 397 
Q 2534 397 2845 478 
Q 3156 559 3463 722 
L 3463 178 
Q 3153 47 2828 -22 
Q 2503 -91 2169 -91 
Q 1331 -91 842 396 
Q 353 884 353 1716 
Q 353 2575 817 3079 
Q 1281 3584 2069 3584 
Q 2775 3584 3186 3129 
Q 3597 2675 3597 1894 
z
M 3022 2063 
Q 3016 2534 2758 2815 
Q 2500 3097 2075 3097 
Q 1594 3097 1305 2825 
Q 1016 2553 972 2059 
L 3022 2063 
z
" transform="scale(0.015625)"/>
       <path id="DejaVuSans-61" d="M 2194 1759 
Q 1497 1759 1228 1600 
Q 959 1441 959 1056 
Q 959 750 1161 570 
Q 1363 391 1709 391 
Q 2188 391 2477 730 
Q 2766 1069 2766 1631 
L 2766 1759 
L 2194 1759 
z
M 3341 1997 
L 3341 0 
L 2766 0 
L 2766 531 
Q 2569 213 2275 61 
Q 1981 -91 1556 -91 
Q 1019 -91 701 211 
Q 384 513 384 1019 
Q 384 1609 779 1909 
Q 1175 2209 1959 2209 
L 2766 2209 
L 2766 2266 
Q 2766 2663 2505 2880 
Q 2244 3097 1772 3097 
Q 1472 3097 1187 3025 
Q 903 2953 641 2809 
L 641 3341 
Q 956 3463 1253 3523 
Q 1550 3584 1831 3584 
Q 2591 3584 2966 3190 
Q 3341 2797 3341 1997 
z
" transform="scale(0.015625)"/>
       <path id="DejaVuSans-72" d="M 2631 2963 
Q 2534 3019 2420 3045 
Q 2306 3072 2169 3072 
Q 1681 3072 1420 2755 
Q 1159 2438 1159 1844 
L 1159 0 
L 581 0 
L 581 3500 
L 1159 3500 
L 1159 2956 
Q 1341 3275 1631 3429 
Q 1922 3584 2338 3584 
Q 2397 3584 2469 3576 
Q 2541 3569 2628 3553 
L 2631 2963 
z
" transform="scale(0.015625)"/>
       <path id="DejaVuSans-20" transform="scale(0.015625)"/>
       <path id="DejaVuSans-43" d="M 4122 4306 
L 4122 3641 
Q 3803 3938 3442 4084 
Q 3081 4231 2675 4231 
Q 1875 4231 1450 3742 
Q 1025 3253 1025 2328 
Q 1025 1406 1450 917 
Q 1875 428 2675 428 
Q 3081 428 3442 575 
Q 3803 722 4122 1019 
L 4122 359 
Q 3791 134 3420 21 
Q 3050 -91 2638 -91 
Q 1578 -91 968 557 
Q 359 1206 359 2328 
Q 359 3453 968 4101 
Q 1578 4750 2638 4750 
Q 3056 4750 3426 4639 
Q 3797 4528 4122 4306 
z
" transform="scale(0.015625)"/>
       <path id="DejaVuSans-75" d="M 544 1381 
L 544 3500 
L 1119 3500 
L 1119 1403 
Q 1119 906 1312 657 
Q 1506 409 1894 409 
Q 2359 409 2629 706 
Q 2900 1003 2900 1516 
L 2900 3500 
L 3475 3500 
L 3475 0 
L 2900 0 
L 2900 538 
Q 2691 219 2414 64 
Q 2138 -91 1772 -91 
Q 1169 -91 856 284 
Q 544 659 544 1381 
z
M 1991 3584 
L 1991 3584 
z
" transform="scale(0.015625)"/>
       <path id="DejaVuSans-6c" d="M 603 4863 
L 1178 4863 
L 1178 0 
L 603 0 
L 603 4863 
z
" transform="scale(0.015625)"/>
       <path id="DejaVuSans-74" d="M 1172 4494 
L 1172 3500 
L 2356 3500 
L 2356 3053 
L 1172 3053 
L 1172 1153 
Q 1172 725 1289 603 
Q 1406 481 1766 481 
L 2356 481 
L 2356 0 
L 1766 0 
Q 1100 0 847 248 
Q 594 497 594 1153 
L 594 3053 
L 172 3053 
L 172 3500 
L 594 3500 
L 594 4494 
L 1172 4494 
z
" transform="scale(0.015625)"/>
       <path id="DejaVuSans-64" d="M 2906 2969 
L 2906 4863 
L 3481 4863 
L 3481 0 
L 2906 0 
L 2906 525 
Q 2725 213 2448 61 
Q 2172 -91 1784 -91 
Q 1150 -91 751 415 
Q 353 922 353 1747 
Q 353 2572 751 3078 
Q 1150 3584 1784 3584 
Q 2172 3584 2448 3432 
Q 2725 3281 2906 2969 
z
M 947 1747 
Q 947 1113 1208 752 
Q 1469 391 1925 391 
Q 2381 391 2643 752 
Q 2906 1113 2906 1747 
Q 2906 2381 2643 2742 
Q 2381 3103 1925 3103 
Q 1469 3103 1208 2742 
Q 947 2381 947 1747 
z
" transform="scale(0.015625)"/>
      </defs>
      <use xlink:href="#DejaVuSans-59"/>
      <use xlink:href="#DejaVuSans-65" x="47.833984"/>
      <use xlink:href="#DejaVuSans-61" x="109.357422"/>
      <use xlink:href="#DejaVuSans-72" x="170.636719"/>
      <use xlink:href="#DejaVuSans-20" x="211.75"/>
      <use xlink:href="#DejaVuSans-43" x="243.537109"/>
      <use xlink:href="#DejaVuSans-75" x="313.361328"/>
      <use xlink:href="#DejaVuSans-6c" x="376.740234"/>
      <use xlink:href="#DejaVuSans-74" x="404.523438"/>
      <use xlink:href="#DejaVuSans-75" x="443.732422"/>
      <use xlink:href="#DejaVuSans-72" x="507.111328"/>
      <use xlink:href="#DejaVuSans-65" x="545.974609"/>
      <use xlink:href="#DejaVuSans-64" x="607.498047"/>
     </g>
    </g>
   </g>
   <g id="matplotlib.axis_2">
    <g id="ytick_1">
     <g id="text_9">
      <!-- 0.0 -->
      <g style="fill: #262626" transform="translate(19.382125 178.75043)scale(0.077 -0.077)">
       <defs>
        <path id="DejaVuSans-2e" d="M 684 794 
L 1344 794 
L 1344 0 
L 684 0 
L 684 794 
z
" transform="scale(0.015625)"/>
       </defs>
       <use xlink:href="#DejaVuSans-30"/>
       <use xlink:href="#DejaVuSans-2e" x="63.623047"/>
       <use xlink:href="#DejaVuSans-30" x="95.410156"/>
      </g>
     </g>
    </g>
    <g id="ytick_2">
     <g id="text_10">
      <!-- 0.2 -->
      <g style="fill: #262626" transform="translate(19.382125 146.13443)scale(0.077 -0.077)">
       <use xlink:href="#DejaVuSans-30"/>
       <use xlink:href="#DejaVuSans-2e" x="63.623047"/>
       <use xlink:href="#DejaVuSans-32" x="95.410156"/>
      </g>
     </g>
    </g>
    <g id="ytick_3">
     <g id="text_11">
      <!-- 0.4 -->
      <g style="fill: #262626" transform="translate(19.382125 113.51843)scale(0.077 -0.077)">
       <use xlink:href="#DejaVuSans-30"/>
       <use xlink:href="#DejaVuSans-2e" x="63.623047"/>
       <use xlink:href="#DejaVuSans-34" x="95.410156"/>
      </g>
     </g>
    </g>
    <g id="ytick_4">
     <g id="text_12">
      <!-- 0.6 -->
      <g style="fill: #262626" transform="translate(19.382125 80.90243)scale(0.077 -0.077)">
       <use xlink:href="#DejaVuSans-30"/>
       <use xlink:href="#DejaVuSans-2e" x="63.623047"/>
       <use xlink:href="#DejaVuSans-36" x="95.410156"/>
      </g>
     </g>
    </g>
    <g id="ytick_5">
     <g id="text_13">
      <!-- 0.8 -->
      <g style="fill: #262626" transform="translate(19.382125 48.28643)scale(0.077 -0.077)">
       <use xlink:href="#DejaVuSans-30"/>
       <use xlink:href="#DejaVuSans-2e" x="63.623047"/>
       <use xlink:href="#DejaVuSans-38" x="95.410156"/>
      </g>
     </g>
    </g>
    <g id="ytick_6">
     <g id="text_14">
      <!-- 1.0 -->
      <g style="fill: #262626" transform="translate(19.382125 15.67043)scale(0.077 -0.077)">
       <use xlink:href="#DejaVuSans-31"/>
       <use xlink:href="#DejaVuSans-2e" x="63.623047"/>
       <use xlink:href="#DejaVuSans-30" x="95.410156"/>
      </g>
     </g>
    </g>
    <g id="text_15">
     <!-- Fraction of isolates with ≥ 1 β-Lactamase -->
     <g style="fill: #262626" transform="translate(13.635187 181.370062)rotate(-90)scale(0.084 -0.084)">
      <defs>
       <path id="DejaVuSans-46" d="M 628 4666 
L 3309 4666 
L 3309 4134 
L 1259 4134 
L 1259 2759 
L 3109 2759 
L 3109 2228 
L 1259 2228 
L 1259 0 
L 628 0 
L 628 4666 
z
" transform="scale(0.015625)"/>
       <path id="DejaVuSans-63" d="M 3122 3366 
L 3122 2828 
Q 2878 2963 2633 3030 
Q 2388 3097 2138 3097 
Q 1578 3097 1268 2742 
Q 959 2388 959 1747 
Q 959 1106 1268 751 
Q 1578 397 2138 397 
Q 2388 397 2633 464 
Q 2878 531 3122 666 
L 3122 134 
Q 2881 22 2623 -34 
Q 2366 -91 2075 -91 
Q 1284 -91 818 406 
Q 353 903 353 1747 
Q 353 2603 823 3093 
Q 1294 3584 2113 3584 
Q 2378 3584 2631 3529 
Q 2884 3475 3122 3366 
z
" transform="scale(0.015625)"/>
       <path id="DejaVuSans-69" d="M 603 3500 
L 1178 3500 
L 1178 0 
L 603 0 
L 603 3500 
z
M 603 4863 
L 1178 4863 
L 1178 4134 
L 603 4134 
L 603 4863 
z
" transform="scale(0.015625)"/>
       <path id="DejaVuSans-6f" d="M 1959 3097 
Q 1497 3097 1228 2736 
Q 959 2375 959 1747 
Q 959 1119 1226 758 
Q 1494 397 1959 397 
Q 2419 397 2687 759 
Q 2956 1122 2956 1747 
Q 2956 2369 2687 2733 
Q 2419 3097 1959 3097 
z
M 1959 3584 
Q 2709 3584 3137 3096 
Q 3566 2609 3566 1747 
Q 3566 888 3137 398 
Q 2709 -91 1959 -91 
Q 1206 -91 779 398 
Q 353 888 353 1747 
Q 353 2609 779 3096 
Q 1206 3584 1959 3584 
z
" transform="scale(0.015625)"/>
       <path id="DejaVuSans-6e" d="M 3513 2113 
L 3513 0 
L 2938 0 
L 2938 2094 
Q 2938 2591 2744 2837 
Q 2550 3084 2163 3084 
Q 1697 3084 1428 2787 
Q 1159 2491 1159 1978 
L 1159 0 
L 581 0 
L 581 3500 
L 1159 3500 
L 1159 2956 
Q 1366 3272 1645 3428 
Q 1925 3584 2291 3584 
Q 2894 3584 3203 3211 
Q 3513 2838 3513 2113 
z
" transform="scale(0.015625)"/>
       <path id="DejaVuSans-66" d="M 2375 4863 
L 2375 4384 
L 1825 4384 
Q 1516 4384 1395 4259 
Q 1275 4134 1275 3809 
L 1275 3500 
L 2222 3500 
L 2222 3053 
L 1275 3053 
L 1275 0 
L 697 0 
L 697 3053 
L 147 3053 
L 147 3500 
L 697 3500 
L 697 3744 
Q 697 4328 969 4595 
Q 1241 4863 1831 4863 
L 2375 4863 
z
" transform="scale(0.015625)"/>
       <path id="DejaVuSans-73" d="M 2834 3397 
L 2834 2853 
Q 2591 2978 2328 3040 
Q 2066 3103 1784 3103 
Q 1356 3103 1142 2972 
Q 928 2841 928 2578 
Q 928 2378 1081 2264 
Q 1234 2150 1697 2047 
L 1894 2003 
Q 2506 1872 2764 1633 
Q 3022 1394 3022 966 
Q 3022 478 2636 193 
Q 2250 -91 1575 -91 
Q 1294 -91 989 -36 
Q 684 19 347 128 
L 347 722 
Q 666 556 975 473 
Q 1284 391 1588 391 
Q 1994 391 2212 530 
Q 2431 669 2431 922 
Q 2431 1156 2273 1281 
Q 2116 1406 1581 1522 
L 1381 1569 
Q 847 1681 609 1914 
Q 372 2147 372 2553 
Q 372 3047 722 3315 
Q 1072 3584 1716 3584 
Q 2034 3584 2315 3537 
Q 2597 3491 2834 3397 
z
" transform="scale(0.015625)"/>
       <path id="DejaVuSans-77" d="M 269 3500 
L 844 3500 
L 1563 769 
L 2278 3500 
L 2956 3500 
L 3675 769 
L 4391 3500 
L 4966 3500 
L 4050 0 
L 3372 0 
L 2619 2869 
L 1863 0 
L 1184 0 
L 269 3500 
z
" transform="scale(0.015625)"/>
       <path id="DejaVuSans-68" d="M 3513 2113 
L 3513 0 
L 2938 0 
L 2938 2094 
Q 2938 2591 2744 2837 
Q 2550 3084 2163 3084 
Q 1697 3084 1428 2787 
Q 1159 2491 1159 1978 
L 1159 0 
L 581 0 
L 581 4863 
L 1159 4863 
L 1159 2956 
Q 1366 3272 1645 3428 
Q 1925 3584 2291 3584 
Q 2894 3584 3203 3211 
Q 3513 2838 3513 2113 
z
" transform="scale(0.015625)"/>
       <path id="DejaVuSans-2265" d="M 678 3175 
L 678 3725 
L 4684 2578 
L 4684 2047 
L 678 897 
L 678 1453 
L 3681 2309 
L 678 3175 
z
M 4684 531 
L 4684 0 
L 678 0 
L 678 531 
L 4684 531 
z
" transform="scale(0.015625)"/>
       <path id="DejaVuSans-3b2" d="M 1178 216 
L 1178 -1331 
L 600 -1331 
L 600 3478 
Q 600 4903 1931 4903 
Q 3288 4903 3288 3700 
Q 3288 2844 2750 2531 
Q 3625 2250 3625 1416 
Q 3625 -66 2119 -66 
Q 1456 -66 1178 216 
z
M 1178 966 
Q 1525 425 2141 425 
Q 3041 425 3041 1406 
Q 3041 2288 1591 2219 
L 1591 2750 
Q 2725 2750 2725 3750 
Q 2725 4434 1994 4434 
Q 1178 4434 1178 3459 
L 1178 966 
z
" transform="scale(0.015625)"/>
       <path id="DejaVuSans-2d" d="M 313 2009 
L 1997 2009 
L 1997 1497 
L 313 1497 
L 313 2009 
z
" transform="scale(0.015625)"/>
       <path id="DejaVuSans-4c" d="M 628 4666 
L 1259 4666 
L 1259 531 
L 3531 531 
L 3531 0 
L 628 0 
L 628 4666 
z
" transform="scale(0.015625)"/>
       <path id="DejaVuSans-6d" d="M 3328 2828 
Q 3544 3216 3844 3400 
Q 4144 3584 4550 3584 
Q 5097 3584 5394 3201 
Q 5691 2819 5691 2113 
L 5691 0 
L 5113 0 
L 5113 2094 
Q 5113 2597 4934 2840 
Q 4756 3084 4391 3084 
Q 3944 3084 3684 2787 
Q 3425 2491 3425 1978 
L 3425 0 
L 2847 0 
L 2847 2094 
Q 2847 2600 2669 2842 
Q 2491 3084 2119 3084 
Q 1678 3084 1418 2786 
Q 1159 2488 1159 1978 
L 1159 0 
L 581 0 
L 581 3500 
L 1159 3500 
L 1159 2956 
Q 1356 3278 1631 3431 
Q 1906 3584 2284 3584 
Q 2666 3584 2933 3390 
Q 3200 3197 3328 2828 
z
" transform="scale(0.015625)"/>
      </defs>
      <use xlink:href="#DejaVuSans-46"/>
      <use xlink:href="#DejaVuSans-72" x="50.269531"/>
      <use xlink:href="#DejaVuSans-61" x="91.382812"/>
      <use xlink:href="#DejaVuSans-63" x="152.662109"/>
      <use xlink:href="#DejaVuSans-74" x="207.642578"/>
      <use xlink:href="#DejaVuSans-69" x="246.851562"/>
      <use xlink:href="#DejaVuSans-6f" x="274.634766"/>
      <use xlink:href="#DejaVuSans-6e" x="335.816406"/>
      <use xlink:href="#DejaVuSans-20" x="399.195312"/>
      <use xlink:href="#DejaVuSans-6f" x="430.982422"/>
      <use xlink:href="#DejaVuSans-66" x="492.164062"/>
      <use xlink:href="#DejaVuSans-20" x="527.369141"/>
      <use xlink:href="#DejaVuSans-69" x="559.15625"/>
      <use xlink:href="#DejaVuSans-73" x="586.939453"/>
      <use xlink:href="#DejaVuSans-6f" x="639.039062"/>
      <use xlink:href="#DejaVuSans-6c" x="700.220703"/>
      <use xlink:href="#DejaVuSans-61" x="728.003906"/>
      <use xlink:href="#DejaVuSans-74" x="789.283203"/>
      <use xlink:href="#DejaVuSans-65" x="828.492188"/>
      <use xlink:href="#DejaVuSans-73" x="890.015625"/>
      <use xlink:href="#DejaVuSans-20" x="942.115234"/>
      <use xlink:href="#DejaVuSans-77" x="973.902344"/>
      <use xlink:href="#DejaVuSans-69" x="1055.689453"/>
      <use xlink:href="#DejaVuSans-74" x="1083.472656"/>
      <use xlink:href="#DejaVuSans-68" x="1122.681641"/>
      <use xlink:href="#DejaVuSans-20" x="1186.060547"/>
      <use xlink:href="#DejaVuSans-2265" x="1217.847656"/>
      <use xlink:href="#DejaVuSans-20" x="1301.636719"/>
      <use xlink:href="#DejaVuSans-31" x="1333.423828"/>
      <use xlink:href="#DejaVuSans-20" x="1397.046875"/>
      <use xlink:href="#DejaVuSans-3b2" x="1428.833984"/>
      <use xlink:href="#DejaVuSans-2d" x="1492.652344"/>
      <use xlink:href="#DejaVuSans-4c" x="1528.736328"/>
      <use xlink:href="#DejaVuSans-61" x="1584.449219"/>
      <use xlink:href="#DejaVuSans-63" x="1645.728516"/>
      <use xlink:href="#DejaVuSans-74" x="1700.708984"/>
      <use xlink:href="#DejaVuSans-61" x="1739.917969"/>
      <use xlink:href="#DejaVuSans-6d" x="1801.197266"/>
      <use xlink:href="#DejaVuSans-61" x="1898.609375"/>
      <use xlink:href="#DejaVuSans-73" x="1959.888672"/>
      <use xlink:href="#DejaVuSans-65" x="2011.988281"/>
     </g>
    </g>
   </g>
   <g id="PathCollection_1">
    <defs>
     <path id="C0_0_e5f8d40668" d="M 0 3 
C 0.795609 3 1.55874 2.683901 2.12132 2.12132 
C 2.683901 1.55874 3 0.795609 3 -0 
C 3 -0.795609 2.683901 -1.55874 2.12132 -2.12132 
C 1.55874 -2.683901 0.795609 -3 0 -3 
C -0.795609 -3 -1.55874 -2.683901 -2.12132 -2.12132 
C -2.683901 -1.55874 -3 -0.795609 -3 0 
C -3 0.795609 -2.683901 1.55874 -2.12132 2.12132 
C -1.55874 2.683901 -0.795609 3 0 3 
z
"/>
    </defs>
    <g clip-path="url(#p242a5ac7a9)">
     <use xlink:href="#C0_0_e5f8d40668" x="53.809349" y="77.977031" style="fill: #4c72b0"/>
    </g>
    <g clip-path="url(#p242a5ac7a9)">
     <use xlink:href="#C0_0_e5f8d40668" x="60.42595" y="77.977031" style="fill: #4c72b0"/>
    </g>
    <g clip-path="url(#p242a5ac7a9)">
     <use xlink:href="#C0_0_e5f8d40668" x="62.631484" y="77.977031" style="fill: #4c72b0"/>
    </g>
    <g clip-path="url(#p242a5ac7a9)">
     <use xlink:href="#C0_0_e5f8d40668" x="64.837017" y="82.63646" style="fill: #4c72b0"/>
    </g>
    <g clip-path="url(#p242a5ac7a9)">
     <use xlink:href="#C0_0_e5f8d40668" x="75.864685" y="99.721031" style="fill: #4c72b0"/>
    </g>
    <g clip-path="url(#p242a5ac7a9)">
     <use xlink:href="#C0_0_e5f8d40668" x="78.070219" y="121.465031" style="fill: #4c72b0"/>
    </g>
    <g clip-path="url(#p242a5ac7a9)">
     <use xlink:href="#C0_0_e5f8d40668" x="82.481286" y="137.773031" style="fill: #4c72b0"/>
    </g>
    <g clip-path="url(#p242a5ac7a9)">
     <use xlink:href="#C0_0_e5f8d40668" x="84.68682" y="140.650914" style="fill: #4c72b0"/>
    </g>
    <g clip-path="url(#p242a5ac7a9)">
     <use xlink:href="#C0_0_e5f8d40668" x="86.892353" y="142.656218" style="fill: #4c72b0"/>
    </g>
    <g clip-path="url(#p242a5ac7a9)">
     <use xlink:href="#C0_0_e5f8d40668" x="89.097887" y="147.350746" style="fill: #4c72b0"/>
    </g>
    <g clip-path="url(#p242a5ac7a9)">
     <use xlink:href="#C0_0_e5f8d40668" x="91.303421" y="147.795656" style="fill: #4c72b0"/>
    </g>
    <g clip-path="url(#p242a5ac7a9)">
     <use xlink:href="#C0_0_e5f8d40668" x="93.508954" y="150.198174" style="fill: #4c72b0"/>
    </g>
    <g clip-path="url(#p242a5ac7a9)">
     <use xlink:href="#C0_0_e5f8d40668" x="95.714488" y="144.115031" style="fill: #4c72b0"/>
    </g>
    <g clip-path="url(#p242a5ac7a9)">
     <use xlink:href="#C0_0_e5f8d40668" x="97.920021" y="145.783979" style="fill: #4c72b0"/>
    </g>
    <g clip-path="url(#p242a5ac7a9)">
     <use xlink:href="#C0_0_e5f8d40668" x="100.125555" y="151.58341" style="fill: #4c72b0"/>
    </g>
    <g clip-path="url(#p242a5ac7a9)">
     <use xlink:href="#C0_0_e5f8d40668" x="102.331089" y="151.906631" style="fill: #4c72b0"/>
    </g>
    <g clip-path="url(#p242a5ac7a9)">
     <use xlink:href="#C0_0_e5f8d40668" x="104.536622" y="148.645031" style="fill: #4c72b0"/>
    </g>
    <g clip-path="url(#p242a5ac7a9)">
     <use xlink:href="#C0_0_e5f8d40668" x="106.742156" y="147.982104" style="fill: #4c72b0"/>
    </g>
    <g clip-path="url(#p242a5ac7a9)">
     <use xlink:href="#C0_0_e5f8d40668" x="108.947689" y="147.175842" style="fill: #4c72b0"/>
    </g>
    <g clip-path="url(#p242a5ac7a9)">
     <use xlink:href="#C0_0_e5f8d40668" x="111.153223" y="151.363031" style="fill: #4c72b0"/>
    </g>
    <g clip-path="url(#p242a5ac7a9)">
     <use xlink:href="#C0_0_e5f8d40668" x="113.358757" y="149.915125" style="fill: #4c72b0"/>
    </g>
    <g clip-path="url(#p242a5ac7a9)">
     <use xlink:href="#C0_0_e5f8d40668" x="115.56429" y="145.080441" style="fill: #4c72b0"/>
    </g>
    <g clip-path="url(#p242a5ac7a9)">
     <use xlink:href="#C0_0_e5f8d40668" x="117.769824" y="148.645031" style="fill: #4c72b0"/>
    </g>
    <g clip-path="url(#p242a5ac7a9)">
     <use xlink:href="#C0_0_e5f8d40668" x="119.975357" y="152.856017" style="fill: #4c72b0"/>
    </g>
    <g clip-path="url(#p242a5ac7a9)">
     <use xlink:href="#C0_0_e5f8d40668" x="122.180891" y="151.309737" style="fill: #4c72b0"/>
    </g>
    <g clip-path="url(#p242a5ac7a9)">
     <use xlink:href="#C0_0_e5f8d40668" x="124.386425" y="151.982926" style="fill: #4c72b0"/>
    </g>
    <g clip-path="url(#p242a5ac7a9)">
     <use xlink:href="#C0_0_e5f8d40668" x="126.591958" y="152.399175" style="fill: #4c72b0"/>
    </g>
    <g clip-path="url(#p242a5ac7a9)">
     <use xlink:href="#C0_0_e5f8d40668" x="128.797492" y="151.320783" style="fill: #4c72b0"/>
    </g>
    <g clip-path="url(#p242a5ac7a9)">
     <use xlink:href="#C0_0_e5f8d40668" x="131.003025" y="151.695848" style="fill: #4c72b0"/>
    </g>
    <g clip-path="url(#p242a5ac7a9)">
     <use xlink:href="#C0_0_e5f8d40668" x="133.208559" y="152.993831" style="fill: #4c72b0"/>
    </g>
    <g clip-path="url(#p242a5ac7a9)">
     <use xlink:href="#C0_0_e5f8d40668" x="135.414093" y="152.920537" style="fill: #4c72b0"/>
    </g>
    <g clip-path="url(#p242a5ac7a9)">
     <use xlink:href="#C0_0_e5f8d40668" x="137.619626" y="151.49818" style="fill: #4c72b0"/>
    </g>
    <g clip-path="url(#p242a5ac7a9)">
     <use xlink:href="#C0_0_e5f8d40668" x="139.82516" y="156.029193" style="fill: #4c72b0"/>
    </g>
    <g clip-path="url(#p242a5ac7a9)">
     <use xlink:href="#C0_0_e5f8d40668" x="142.030693" y="154.720561" style="fill: #4c72b0"/>
    </g>
    <g clip-path="url(#p242a5ac7a9)">
     <use xlink:href="#C0_0_e5f8d40668" x="144.236227" y="152.024166" style="fill: #4c72b0"/>
    </g>
    <g clip-path="url(#p242a5ac7a9)">
     <use xlink:href="#C0_0_e5f8d40668" x="146.44176" y="153.279409" style="fill: #dd8452"/>
    </g>
    <g clip-path="url(#p242a5ac7a9)">
     <use xlink:href="#C0_0_e5f8d40668" x="148.647294" y="153.805791" style="fill: #dd8452"/>
    </g>
    <g clip-path="url(#p242a5ac7a9)">
     <use xlink:href="#C0_0_e5f8d40668" x="150.852828" y="150.498213" style="fill: #dd8452"/>
    </g>
    <g clip-path="url(#p242a5ac7a9)">
     <use xlink:href="#C0_0_e5f8d40668" x="153.058361" y="150.046062" style="fill: #dd8452"/>
    </g>
    <g clip-path="url(#p242a5ac7a9)">
     <use xlink:href="#C0_0_e5f8d40668" x="155.263895" y="141.299085" style="fill: #dd8452"/>
    </g>
    <g clip-path="url(#p242a5ac7a9)">
     <use xlink:href="#C0_0_e5f8d40668" x="157.469428" y="140.281954" style="fill: #dd8452"/>
    </g>
    <g clip-path="url(#p242a5ac7a9)">
     <use xlink:href="#C0_0_e5f8d40668" x="159.674962" y="139.181549" style="fill: #dd8452"/>
    </g>
    <g clip-path="url(#p242a5ac7a9)">
     <use xlink:href="#C0_0_e5f8d40668" x="161.880496" y="137.256763" style="fill: #dd8452"/>
    </g>
    <g clip-path="url(#p242a5ac7a9)">
     <use xlink:href="#C0_0_e5f8d40668" x="164.086029" y="137.13817" style="fill: #dd8452"/>
    </g>
    <g clip-path="url(#p242a5ac7a9)">
     <use xlink:href="#C0_0_e5f8d40668" x="166.291563" y="134.982097" style="fill: #dd8452"/>
    </g>
    <g clip-path="url(#p242a5ac7a9)">
     <use xlink:href="#C0_0_e5f8d40668" x="168.497096" y="133.664313" style="fill: #dd8452"/>
    </g>
    <g clip-path="url(#p242a5ac7a9)">
     <use xlink:href="#C0_0_e5f8d40668" x="170.70263" y="132.10967" style="fill: #dd8452"/>
    </g>
    <g clip-path="url(#p242a5ac7a9)">
     <use xlink:href="#C0_0_e5f8d40668" x="172.908164" y="129.4124" style="fill: #dd8452"/>
    </g>
    <g clip-path="url(#p242a5ac7a9)">
     <use xlink:href="#C0_0_e5f8d40668" x="175.113697" y="128.993504" style="fill: #dd8452"/>
    </g>
    <g clip-path="url(#p242a5ac7a9)">
     <use xlink:href="#C0_0_e5f8d40668" x="177.319231" y="127.530954" style="fill: #dd8452"/>
    </g>
    <g clip-path="url(#p242a5ac7a9)">
     <use xlink:href="#C0_0_e5f8d40668" x="179.524764" y="128.644654" style="fill: #dd8452"/>
    </g>
    <g clip-path="url(#p242a5ac7a9)">
     <use xlink:href="#C0_0_e5f8d40668" x="181.730298" y="129.941506" style="fill: #dd8452"/>
    </g>
    <g clip-path="url(#p242a5ac7a9)">
     <use xlink:href="#C0_0_e5f8d40668" x="183.935832" y="131.24201" style="fill: #dd8452"/>
    </g>
    <g clip-path="url(#p242a5ac7a9)">
     <use xlink:href="#C0_0_e5f8d40668" x="186.141365" y="135.746048" style="fill: #dd8452"/>
    </g>
    <g clip-path="url(#p242a5ac7a9)">
     <use xlink:href="#C0_0_e5f8d40668" x="188.346899" y="137.218337" style="fill: #dd8452"/>
    </g>
    <g clip-path="url(#p242a5ac7a9)">
     <use xlink:href="#C0_0_e5f8d40668" x="190.552432" y="141.991006" style="fill: #dd8452"/>
    </g>
    <g clip-path="url(#p242a5ac7a9)">
     <use xlink:href="#C0_0_e5f8d40668" x="192.757966" y="146.606531" style="fill: #dd8452"/>
    </g>
    <g clip-path="url(#p242a5ac7a9)">
     <use xlink:href="#C0_0_e5f8d40668" x="194.9635" y="144.26116" style="fill: #dd8452"/>
    </g>
    <g clip-path="url(#p242a5ac7a9)">
     <use xlink:href="#C0_0_e5f8d40668" x="197.169033" y="143.712753" style="fill: #dd8452"/>
    </g>
    <g clip-path="url(#p242a5ac7a9)">
     <use xlink:href="#C0_0_e5f8d40668" x="199.374567" y="143.085486" style="fill: #dd8452"/>
    </g>
    <g clip-path="url(#p242a5ac7a9)">
     <use xlink:href="#C0_0_e5f8d40668" x="201.5801" y="145.601711" style="fill: #dd8452"/>
    </g>
    <g clip-path="url(#p242a5ac7a9)">
     <use xlink:href="#C0_0_e5f8d40668" x="203.785634" y="146.286012" style="fill: #dd8452"/>
    </g>
    <g clip-path="url(#p242a5ac7a9)">
     <use xlink:href="#C0_0_e5f8d40668" x="205.991168" y="144.532928" style="fill: #dd8452"/>
    </g>
    <g clip-path="url(#p242a5ac7a9)">
     <use xlink:href="#C0_0_e5f8d40668" x="208.196701" y="146.224894" style="fill: #dd8452"/>
    </g>
    <g clip-path="url(#p242a5ac7a9)">
     <use xlink:href="#C0_0_e5f8d40668" x="210.402235" y="146.98095" style="fill: #dd8452"/>
    </g>
    <g clip-path="url(#p242a5ac7a9)">
     <use xlink:href="#C0_0_e5f8d40668" x="212.607768" y="148.458867" style="fill: #dd8452"/>
    </g>
    <g clip-path="url(#p242a5ac7a9)">
     <use xlink:href="#C0_0_e5f8d40668" x="214.813302" y="148.253952" style="fill: #dd8452"/>
    </g>
    <g clip-path="url(#p242a5ac7a9)">
     <use xlink:href="#C0_0_e5f8d40668" x="217.018836" y="143.43632" style="fill: #dd8452"/>
    </g>
    <g clip-path="url(#p242a5ac7a9)">
     <use xlink:href="#C0_0_e5f8d40668" x="219.224369" y="147.145445" style="fill: #dd8452"/>
    </g>
    <g clip-path="url(#p242a5ac7a9)">
     <use xlink:href="#C0_0_e5f8d40668" x="221.429903" y="149.128661" style="fill: #dd8452"/>
    </g>
    <g clip-path="url(#p242a5ac7a9)">
     <use xlink:href="#C0_0_e5f8d40668" x="223.635436" y="149.930572" style="fill: #dd8452"/>
    </g>
    <g clip-path="url(#p242a5ac7a9)">
     <use xlink:href="#C0_0_e5f8d40668" x="225.84097" y="150.343781" style="fill: #dd8452"/>
    </g>
    <g clip-path="url(#p242a5ac7a9)">
     <use xlink:href="#C0_0_e5f8d40668" x="228.046504" y="147.811289" style="fill: #dd8452"/>
    </g>
    <g clip-path="url(#p242a5ac7a9)">
     <use xlink:href="#C0_0_e5f8d40668" x="230.252037" y="147.463292" style="fill: #dd8452"/>
    </g>
    <g clip-path="url(#p242a5ac7a9)">
     <use xlink:href="#C0_0_e5f8d40668" x="232.457571" y="145.585031" style="fill: #dd8452"/>
    </g>
    <g clip-path="url(#p242a5ac7a9)">
     <use xlink:href="#C0_0_e5f8d40668" x="234.663104" y="145.115161" style="fill: #dd8452"/>
    </g>
    <g clip-path="url(#p242a5ac7a9)">
     <use xlink:href="#C0_0_e5f8d40668" x="236.868638" y="141.781395" style="fill: #dd8452"/>
    </g>
    <g clip-path="url(#p242a5ac7a9)">
     <use xlink:href="#C0_0_e5f8d40668" x="239.074172" y="141.434011" style="fill: #dd8452"/>
    </g>
    <g clip-path="url(#p242a5ac7a9)">
     <use xlink:href="#C0_0_e5f8d40668" x="241.279705" y="145.099814" style="fill: #dd8452"/>
    </g>
    <g clip-path="url(#p242a5ac7a9)">
     <use xlink:href="#C0_0_e5f8d40668" x="243.485239" y="142.718565" style="fill: #dd8452"/>
    </g>
    <g clip-path="url(#p242a5ac7a9)">
     <use xlink:href="#C0_0_e5f8d40668" x="245.690772" y="142.667687" style="fill: #dd8452"/>
    </g>
    <g clip-path="url(#p242a5ac7a9)">
     <use xlink:href="#C0_0_e5f8d40668" x="247.896306" y="143.3713" style="fill: #dd8452"/>
    </g>
    <g clip-path="url(#p242a5ac7a9)">
     <use xlink:href="#C0_0_e5f8d40668" x="250.10184" y="141.232304" style="fill: #dd8452"/>
    </g>
    <g clip-path="url(#p242a5ac7a9)">
     <use xlink:href="#C0_0_e5f8d40668" x="252.307373" y="143.94473" style="fill: #dd8452"/>
    </g>
    <g clip-path="url(#p242a5ac7a9)">
     <use xlink:href="#C0_0_e5f8d40668" x="254.512907" y="144.896066" style="fill: #dd8452"/>
    </g>
    <g clip-path="url(#p242a5ac7a9)">
     <use xlink:href="#C0_0_e5f8d40668" x="256.71844" y="142.862053" style="fill: #dd8452"/>
    </g>
    <g clip-path="url(#p242a5ac7a9)">
     <use xlink:href="#C0_0_e5f8d40668" x="258.923974" y="135.613524" style="fill: #dd8452"/>
    </g>
    <g clip-path="url(#p242a5ac7a9)">
     <use xlink:href="#C0_0_e5f8d40668" x="261.129508" y="139.272617" style="fill: #dd8452"/>
    </g>
    <g clip-path="url(#p242a5ac7a9)">
     <use xlink:href="#C0_0_e5f8d40668" x="263.335041" y="135.887072" style="fill: #dd8452"/>
    </g>
    <g clip-path="url(#p242a5ac7a9)">
     <use xlink:href="#C0_0_e5f8d40668" x="265.540575" y="136.049421" style="fill: #dd8452"/>
    </g>
    <g clip-path="url(#p242a5ac7a9)">
     <use xlink:href="#C0_0_e5f8d40668" x="269.951642" y="102.720204" style="fill: #dd8452"/>
    </g>
    <g clip-path="url(#p242a5ac7a9)">
     <use xlink:href="#C0_0_e5f8d40668" x="272.157176" y="97.096755" style="fill: #dd8452"/>
    </g>
    <g clip-path="url(#p242a5ac7a9)">
     <use xlink:href="#C0_0_e5f8d40668" x="276.568243" y="78.858545" style="fill: #dd8452"/>
    </g>
    <g clip-path="url(#p242a5ac7a9)">
     <use xlink:href="#C0_0_e5f8d40668" x="278.773776" y="65.746031" style="fill: #dd8452"/>
    </g>
    <g clip-path="url(#p242a5ac7a9)">
     <use xlink:href="#C0_0_e5f8d40668" x="280.97931" y="64.634122" style="fill: #dd8452"/>
    </g>
    <g clip-path="url(#p242a5ac7a9)">
     <use xlink:href="#C0_0_e5f8d40668" x="283.184844" y="64.79184" style="fill: #dd8452"/>
    </g>
    <g clip-path="url(#p242a5ac7a9)">
     <use xlink:href="#C0_0_e5f8d40668" x="285.390377" y="59.339317" style="fill: #dd8452"/>
    </g>
    <g clip-path="url(#p242a5ac7a9)">
     <use xlink:href="#C0_0_e5f8d40668" x="287.595911" y="65.163603" style="fill: #dd8452"/>
    </g>
    <g clip-path="url(#p242a5ac7a9)">
     <use xlink:href="#C0_0_e5f8d40668" x="289.801444" y="63.540441" style="fill: #dd8452"/>
    </g>
    <g clip-path="url(#p242a5ac7a9)">
     <use xlink:href="#C0_0_e5f8d40668" x="292.006978" y="70.790455" style="fill: #dd8452"/>
    </g>
    <g clip-path="url(#p242a5ac7a9)">
     <use xlink:href="#C0_0_e5f8d40668" x="294.212511" y="92.139242" style="fill: #dd8452"/>
    </g>
    <g clip-path="url(#p242a5ac7a9)">
     <use xlink:href="#C0_0_e5f8d40668" x="296.418045" y="93.22607" style="fill: #dd8452"/>
    </g>
    <g clip-path="url(#p242a5ac7a9)">
     <use xlink:href="#C0_0_e5f8d40668" x="298.623579" y="99.081502" style="fill: #dd8452"/>
    </g>
    <g clip-path="url(#p242a5ac7a9)">
     <use xlink:href="#C0_0_e5f8d40668" x="300.829112" y="101.697759" style="fill: #dd8452"/>
    </g>
    <g clip-path="url(#p242a5ac7a9)">
     <use xlink:href="#C0_0_e5f8d40668" x="303.034646" y="110.593031" style="fill: #dd8452"/>
    </g>
    <g clip-path="url(#p242a5ac7a9)">
     <use xlink:href="#C0_0_e5f8d40668" x="305.240179" y="114.670031" style="fill: #dd8452"/>
    </g>
    <g clip-path="url(#p242a5ac7a9)">
     <use xlink:href="#C0_0_e5f8d40668" x="307.445713" y="119.246256" style="fill: #dd8452"/>
    </g>
   </g>
   <g id="PolyCollection_1">
    <defs>
     <path id="m11a90417f1" d="M 53.809349 -180.09922 
L 53.809349 -72.612433 
L 60.42595 -72.612433 
L 62.631484 -72.612433 
L 64.837017 -76.214075 
L 75.864685 -76.48265 
L 78.070219 -62.845209 
L 82.481286 -55.617198 
L 84.68682 -56.718332 
L 86.892353 -55.968151 
L 89.097887 -52.722717 
L 91.303421 -52.459262 
L 93.508954 -51.040513 
L 95.714488 -55.820901 
L 97.920021 -54.76392 
L 100.125555 -50.225452 
L 102.331089 -50.035578 
L 104.536622 -52.657062 
L 106.742156 -53.377082 
L 108.947689 -53.565402 
L 111.153223 -51.504748 
L 113.358757 -52.895259 
L 115.56429 -57.35192 
L 117.769824 -54.852087 
L 119.975357 -51.490838 
L 122.180891 -52.993787 
L 124.386425 -52.782669 
L 126.591958 -52.605631 
L 128.797492 -53.70386 
L 131.003025 -53.43207 
L 133.208559 -52.39458 
L 135.414093 -52.121565 
L 137.619626 -53.361041 
L 139.82516 -49.485042 
L 142.030693 -50.504278 
L 144.236227 -52.984648 
L 144.236227 -69.571563 
L 144.236227 -69.571563 
L 142.030693 -66.987213 
L 139.82516 -65.400482 
L 137.619626 -70.276901 
L 135.414093 -68.772752 
L 133.208559 -68.082795 
L 131.003025 -69.63587 
L 128.797492 -70.133714 
L 126.591958 -69.26833 
L 124.386425 -70.04645 
L 122.180891 -71.445895 
L 119.975357 -70.154709 
L 117.769824 -75.072874 
L 115.56429 -79.864754 
L 113.358757 -75.424333 
L 111.153223 -74.295224 
L 108.947689 -81.642274 
L 106.742156 -79.788906 
L 104.536622 -79.489032 
L 102.331089 -76.111456 
L 100.125555 -76.610114 
L 97.920021 -82.955692 
L 95.714488 -85.334393 
L 93.508954 -78.735579 
L 91.303421 -82.377348 
L 89.097887 -83.045568 
L 86.892353 -89.005614 
L 84.68682 -92.876674 
L 82.481286 -103.301769 
L 78.070219 -128.503777 
L 75.864685 -150.637245 
L 64.837017 -173.756139 
L 62.631484 -180.09922 
L 60.42595 -180.09922 
L 53.809349 -180.09922 
z
" style="stroke: #4c72b0; stroke-opacity: 0.3"/>
    </defs>
    <g clip-path="url(#p242a5ac7a9)">
     <use xlink:href="#m11a90417f1" x="0" y="212.106812" style="fill: #4c72b0; fill-opacity: 0.3; stroke: #4c72b0; stroke-opacity: 0.3"/>
    </g>
   </g>
   <g id="PolyCollection_2">
    <defs>
     <path id="m26ba6056f8" d="M 146.44176 -67.363305 
L 146.44176 -52.3791 
L 148.647294 -52.166444 
L 150.852828 -55.30935 
L 153.058361 -55.970014 
L 155.263895 -65.032833 
L 157.469428 -66.117533 
L 159.674962 -67.286774 
L 161.880496 -69.310544 
L 164.086029 -69.474803 
L 166.291563 -71.561522 
L 168.497096 -72.799631 
L 170.70263 -74.11713 
L 172.908164 -76.608352 
L 175.113697 -76.878412 
L 177.319231 -78.111901 
L 179.524764 -75.785977 
L 181.730298 -74.300532 
L 183.935832 -72.872197 
L 186.141365 -68.121344 
L 188.346899 -66.92037 
L 190.552432 -62.557814 
L 192.757966 -58.444874 
L 194.9635 -60.625457 
L 197.169033 -61.253653 
L 199.374567 -61.876697 
L 201.5801 -59.56935 
L 203.785634 -59.031067 
L 205.991168 -60.662055 
L 208.196701 -59.372386 
L 210.402235 -58.716833 
L 212.607768 -57.382876 
L 214.813302 -57.426627 
L 217.018836 -61.82356 
L 219.224369 -58.531071 
L 221.429903 -56.683859 
L 223.635436 -56.117429 
L 225.84097 -55.955939 
L 228.046504 -58.261294 
L 230.252037 -58.539498 
L 232.457571 -60.043427 
L 234.663104 -60.522985 
L 236.868638 -63.426036 
L 239.074172 -63.709327 
L 241.279705 -60.210982 
L 243.485239 -62.230404 
L 245.690772 -61.952727 
L 247.896306 -60.705933 
L 250.10184 -61.845006 
L 252.307373 -58.653558 
L 254.512907 -57.300585 
L 256.71844 -58.068169 
L 258.923974 -62.73407 
L 261.129508 -58.497476 
L 263.335041 -60.140481 
L 265.540575 -58.886322 
L 269.951642 -82.501602 
L 272.157176 -87.320975 
L 276.568243 -107.035921 
L 278.773776 -120.942091 
L 280.97931 -123.286424 
L 283.184844 -123.935067 
L 285.390377 -130.068216 
L 287.595911 -125.579523 
L 289.801444 -128.17694 
L 292.006978 -120.426493 
L 294.212511 -101.936941 
L 296.418045 -101.011634 
L 298.623579 -94.411949 
L 300.829112 -91.725153 
L 303.034646 -82.841836 
L 305.240179 -78.675191 
L 307.445713 -73.652716 
L 307.445713 -115.808149 
L 307.445713 -115.808149 
L 305.240179 -118.890439 
L 303.034646 -122.202751 
L 300.829112 -129.930108 
L 298.623579 -132.165103 
L 296.418045 -136.646703 
L 294.212511 -137.786545 
L 292.006978 -159.253786 
L 289.801444 -165.213631 
L 287.595911 -164.461796 
L 285.390377 -170.232783 
L 283.184844 -166.100028 
L 280.97931 -166.744854 
L 278.773776 -166.609754 
L 276.568243 -156.455721 
L 272.157176 -143.383717 
L 269.951642 -138.325267 
L 265.540575 -100.617237 
L 263.335041 -98.527908 
L 261.129508 -92.912517 
L 258.923974 -94.487365 
L 256.71844 -84.320478 
L 254.512907 -80.43226 
L 252.307373 -80.513833 
L 250.10184 -82.080251 
L 247.896306 -78.638906 
L 245.690772 -78.469765 
L 243.485239 -77.948302 
L 241.279705 -75.22138 
L 239.074172 -78.872646 
L 236.868638 -78.457819 
L 234.663104 -74.733144 
L 232.457571 -74.309984 
L 230.252037 -72.021756 
L 228.046504 -71.596705 
L 225.84097 -68.921583 
L 223.635436 -69.684218 
L 221.429903 -70.776176 
L 219.224369 -72.796577 
L 217.018836 -76.837366 
L 214.813302 -71.774671 
L 212.607768 -71.343033 
L 210.402235 -72.91658 
L 208.196701 -73.762567 
L 205.991168 -75.913862 
L 203.785634 -74.121535 
L 201.5801 -74.966135 
L 199.374567 -77.589363 
L 197.169033 -77.00366 
L 194.9635 -76.616418 
L 192.757966 -74.232369 
L 190.552432 -79.19646 
L 188.346899 -84.204913 
L 186.141365 -85.951338 
L 183.935832 -89.881817 
L 181.730298 -90.962066 
L 179.524764 -91.972083 
L 177.319231 -91.591955 
L 175.113697 -89.895458 
L 172.908164 -89.310715 
L 170.70263 -86.434073 
L 168.497096 -84.633074 
L 166.291563 -83.251925 
L 164.086029 -81.068229 
L 161.880496 -81.009351 
L 159.674962 -79.267326 
L 157.469428 -78.292784 
L 155.263895 -77.401772 
L 153.058361 -69.628346 
L 150.852828 -69.547175 
L 148.647294 -66.366337 
L 146.44176 -67.363305 
z
" style="stroke: #dd8452; stroke-opacity: 0.3"/>
    </defs>
    <g clip-path="url(#p242a5ac7a9)">
     <use xlink:href="#m26ba6056f8" x="0" y="212.106812" style="fill: #dd8452; fill-opacity: 0.3; stroke: #dd8452; stroke-opacity: 0.3"/>
    </g>
   </g>
   <g id="line2d_1">
    <path d="M 53.809349 77.977031 
L 60.42595 77.977031 
L 62.631484 77.977031 
L 64.837017 82.63646 
L 75.864685 99.721031 
L 78.070219 121.465031 
L 82.481286 137.773031 
L 84.68682 140.650914 
L 86.892353 142.656218 
L 89.097887 147.350746 
L 91.303421 147.795656 
L 93.508954 150.198174 
L 95.714488 144.115031 
L 97.920021 145.783979 
L 100.125555 151.58341 
L 102.331089 151.906631 
L 104.536622 148.645031 
L 106.742156 147.982104 
L 108.947689 147.175842 
L 111.153223 151.363031 
L 113.358757 149.915125 
L 115.56429 145.080441 
L 117.769824 148.645031 
L 119.975357 152.856017 
L 122.180891 151.309737 
L 124.386425 151.982926 
L 126.591958 152.399175 
L 128.797492 151.320783 
L 131.003025 151.695848 
L 133.208559 152.993831 
L 135.414093 152.920537 
L 137.619626 151.49818 
L 139.82516 156.029193 
L 142.030693 154.720561 
L 144.236227 152.024166 
" clip-path="url(#p242a5ac7a9)" style="fill: none; stroke: #4c72b0; stroke-width: 1.5; stroke-linecap: round"/>
   </g>
   <g id="line2d_2">
    <path d="M 146.44176 153.279409 
L 148.647294 153.805791 
L 150.852828 150.498213 
L 153.058361 150.046062 
L 155.263895 141.299085 
L 157.469428 140.281954 
L 159.674962 139.181549 
L 161.880496 137.256763 
L 164.086029 137.13817 
L 166.291563 134.982097 
L 168.497096 133.664313 
L 170.70263 132.10967 
L 172.908164 129.4124 
L 175.113697 128.993504 
L 177.319231 127.530954 
L 179.524764 128.644654 
L 181.730298 129.941506 
L 183.935832 131.24201 
L 186.141365 135.746048 
L 188.346899 137.218337 
L 190.552432 141.991006 
L 192.757966 146.606531 
L 194.9635 144.26116 
L 197.169033 143.712753 
L 199.374567 143.085486 
L 201.5801 145.601711 
L 203.785634 146.286012 
L 205.991168 144.532928 
L 208.196701 146.224894 
L 210.402235 146.98095 
L 212.607768 148.458867 
L 214.813302 148.253952 
L 217.018836 143.43632 
L 219.224369 147.145445 
L 221.429903 149.128661 
L 223.635436 149.930572 
L 225.84097 150.343781 
L 228.046504 147.811289 
L 230.252037 147.463292 
L 232.457571 145.585031 
L 234.663104 145.115161 
L 236.868638 141.781395 
L 239.074172 141.434011 
L 241.279705 145.099814 
L 243.485239 142.718565 
L 245.690772 142.667687 
L 247.896306 143.3713 
L 250.10184 141.232304 
L 252.307373 143.94473 
L 254.512907 144.896066 
L 256.71844 142.862053 
L 258.923974 135.613524 
L 261.129508 139.272617 
L 263.335041 135.887072 
L 265.540575 136.049421 
L 269.951642 102.720204 
L 272.157176 97.096755 
L 276.568243 78.858545 
L 278.773776 65.746031 
L 280.97931 64.634122 
L 283.184844 64.79184 
L 285.390377 59.339317 
L 287.595911 65.163603 
L 289.801444 63.540441 
L 292.006978 70.790455 
L 294.212511 92.139242 
L 296.418045 93.22607 
L 298.623579 99.081502 
L 300.829112 101.697759 
L 303.034646 110.593031 
L 305.240179 114.670031 
L 307.445713 119.246256 
" clip-path="url(#p242a5ac7a9)" style="fill: none; stroke: #dd8452; stroke-width: 1.5; stroke-linecap: round"/>
   </g>
   <g id="line2d_3"/>
   <g id="line2d_4"/>
   <g id="line2d_5">
    <path d="M 146.44176 175.825031 
L 146.44176 12.745031 
" clip-path="url(#p242a5ac7a9)" style="fill: none; stroke: #ff0000; stroke-width: 1.5; stroke-linecap: round"/>
   </g>
   <g id="line2d_6">
    <path d="M 146.44176 175.825031 
L 146.44176 12.745031 
" clip-path="url(#p242a5ac7a9)" style="fill: none; stroke: #ff0000; stroke-width: 1.5; stroke-linecap: round"/>
   </g>
   <g id="LineCollection_1">
    <path d="M 53.809349 139.089285 
L 144.236227 139.089285 
" clip-path="url(#p242a5ac7a9)" style="fill: none; stroke: #4c72b0; stroke-width: 1.5"/>
   </g>
   <g id="LineCollection_2">
    <path d="M 146.44176 128.67214 
L 307.445713 128.67214 
" clip-path="url(#p242a5ac7a9)" style="fill: none; stroke: #dd8452; stroke-width: 1.5"/>
   </g>
   <g id="patch_3">
    <path d="M 41.127531 175.825031 
L 41.127531 12.745031 
" style="fill: none; stroke: #262626; stroke-width: 1.25; stroke-linejoin: miter; stroke-linecap: square"/>
   </g>
   <g id="patch_4">
    <path d="M 41.127531 175.825031 
L 320.127531 175.825031 
" style="fill: none; stroke: #262626; stroke-width: 1.25; stroke-linejoin: miter; stroke-linecap: square"/>
   </g>
   <g id="text_16">
    <!-- Introduced clinically in 1943 -->
    <g style="fill: #262626" transform="translate(142.936405 128.35623)rotate(-90)scale(0.069972 -0.069972)">
     <defs>
      <path id="DejaVuSans-49" d="M 628 4666 
L 1259 4666 
L 1259 0 
L 628 0 
L 628 4666 
z
" transform="scale(0.015625)"/>
      <path id="DejaVuSans-79" d="M 2059 -325 
Q 1816 -950 1584 -1140 
Q 1353 -1331 966 -1331 
L 506 -1331 
L 506 -850 
L 844 -850 
Q 1081 -850 1212 -737 
Q 1344 -625 1503 -206 
L 1606 56 
L 191 3500 
L 800 3500 
L 1894 763 
L 2988 3500 
L 3597 3500 
L 2059 -325 
z
" transform="scale(0.015625)"/>
      <path id="DejaVuSans-33" d="M 2597 2516 
Q 3050 2419 3304 2112 
Q 3559 1806 3559 1356 
Q 3559 666 3084 287 
Q 2609 -91 1734 -91 
Q 1441 -91 1130 -33 
Q 819 25 488 141 
L 488 750 
Q 750 597 1062 519 
Q 1375 441 1716 441 
Q 2309 441 2620 675 
Q 2931 909 2931 1356 
Q 2931 1769 2642 2001 
Q 2353 2234 1838 2234 
L 1294 2234 
L 1294 2753 
L 1863 2753 
Q 2328 2753 2575 2939 
Q 2822 3125 2822 3475 
Q 2822 3834 2567 4026 
Q 2313 4219 1838 4219 
Q 1578 4219 1281 4162 
Q 984 4106 628 3988 
L 628 4550 
Q 988 4650 1302 4700 
Q 1616 4750 1894 4750 
Q 2613 4750 3031 4423 
Q 3450 4097 3450 3541 
Q 3450 3153 3228 2886 
Q 3006 2619 2597 2516 
z
" transform="scale(0.015625)"/>
     </defs>
     <use xlink:href="#DejaVuSans-49"/>
     <use xlink:href="#DejaVuSans-6e" x="29.492188"/>
     <use xlink:href="#DejaVuSans-74" x="92.871094"/>
     <use xlink:href="#DejaVuSans-72" x="132.080078"/>
     <use xlink:href="#DejaVuSans-6f" x="170.943359"/>
     <use xlink:href="#DejaVuSans-64" x="232.125"/>
     <use xlink:href="#DejaVuSans-75" x="295.601562"/>
     <use xlink:href="#DejaVuSans-63" x="358.980469"/>
     <use xlink:href="#DejaVuSans-65" x="413.960938"/>
     <use xlink:href="#DejaVuSans-64" x="475.484375"/>
     <use xlink:href="#DejaVuSans-20" x="538.960938"/>
     <use xlink:href="#DejaVuSans-63" x="570.748047"/>
     <use xlink:href="#DejaVuSans-6c" x="625.728516"/>
     <use xlink:href="#DejaVuSans-69" x="653.511719"/>
     <use xlink:href="#DejaVuSans-6e" x="681.294922"/>
     <use xlink:href="#DejaVuSans-69" x="744.673828"/>
     <use xlink:href="#DejaVuSans-63" x="772.457031"/>
     <use xlink:href="#DejaVuSans-61" x="827.4375"/>
     <use xlink:href="#DejaVuSans-6c" x="888.716797"/>
     <use xlink:href="#DejaVuSans-6c" x="916.5"/>
     <use xlink:href="#DejaVuSans-79" x="944.283203"/>
     <use xlink:href="#DejaVuSans-20" x="1003.462891"/>
     <use xlink:href="#DejaVuSans-69" x="1035.25"/>
     <use xlink:href="#DejaVuSans-6e" x="1063.033203"/>
     <use xlink:href="#DejaVuSans-20" x="1126.412109"/>
     <use xlink:href="#DejaVuSans-31" x="1158.199219"/>
     <use xlink:href="#DejaVuSans-39" x="1221.822266"/>
     <use xlink:href="#DejaVuSans-34" x="1285.445312"/>
     <use xlink:href="#DejaVuSans-33" x="1349.068359"/>
    </g>
   </g>
   <g id="legend_1">
    <g id="patch_5">
     <path d="M 244.591734 41.509344 
L 314.737531 41.509344 
Q 316.277531 41.509344 316.277531 39.969344 
L 316.277531 18.135031 
Q 316.277531 16.595031 314.737531 16.595031 
L 244.591734 16.595031 
Q 243.051734 16.595031 243.051734 18.135031 
L 243.051734 39.969344 
Q 243.051734 41.509344 244.591734 41.509344 
z
" style="fill: #ffffff; opacity: 0.8; stroke: #cccccc; stroke-linejoin: miter"/>
    </g>
    <g id="line2d_7">
     <path d="M 246.131734 22.830828 
L 253.831734 22.830828 
L 261.531734 22.830828 
" style="fill: none; stroke: #4c72b0; stroke-width: 1.5; stroke-linecap: round"/>
    </g>
    <g id="text_17">
     <!-- Pre-clinical -->
     <g style="fill: #262626" transform="translate(267.691734 25.525828)scale(0.077 -0.077)">
      <defs>
       <path id="DejaVuSans-50" d="M 1259 4147 
L 1259 2394 
L 2053 2394 
Q 2494 2394 2734 2622 
Q 2975 2850 2975 3272 
Q 2975 3691 2734 3919 
Q 2494 4147 2053 4147 
L 1259 4147 
z
M 628 4666 
L 2053 4666 
Q 2838 4666 3239 4311 
Q 3641 3956 3641 3272 
Q 3641 2581 3239 2228 
Q 2838 1875 2053 1875 
L 1259 1875 
L 1259 0 
L 628 0 
L 628 4666 
z
" transform="scale(0.015625)"/>
      </defs>
      <use xlink:href="#DejaVuSans-50"/>
      <use xlink:href="#DejaVuSans-72" x="58.552734"/>
      <use xlink:href="#DejaVuSans-65" x="97.416016"/>
      <use xlink:href="#DejaVuSans-2d" x="158.939453"/>
      <use xlink:href="#DejaVuSans-63" x="195.023438"/>
      <use xlink:href="#DejaVuSans-6c" x="250.003906"/>
      <use xlink:href="#DejaVuSans-69" x="277.787109"/>
      <use xlink:href="#DejaVuSans-6e" x="305.570312"/>
      <use xlink:href="#DejaVuSans-69" x="368.949219"/>
      <use xlink:href="#DejaVuSans-63" x="396.732422"/>
      <use xlink:href="#DejaVuSans-61" x="451.712891"/>
      <use xlink:href="#DejaVuSans-6c" x="512.992188"/>
     </g>
    </g>
    <g id="line2d_8">
     <path d="M 246.131734 34.132984 
L 253.831734 34.132984 
L 261.531734 34.132984 
" style="fill: none; stroke: #dd8452; stroke-width: 1.5; stroke-linecap: round"/>
    </g>
    <g id="text_18">
     <!-- Post-clinical -->
     <g style="fill: #262626" transform="translate(267.691734 36.827984)scale(0.077 -0.077)">
      <use xlink:href="#DejaVuSans-50"/>
      <use xlink:href="#DejaVuSans-6f" x="56.677734"/>
      <use xlink:href="#DejaVuSans-73" x="117.859375"/>
      <use xlink:href="#DejaVuSans-74" x="169.958984"/>
      <use xlink:href="#DejaVuSans-2d" x="209.167969"/>
      <use xlink:href="#DejaVuSans-63" x="245.251953"/>
      <use xlink:href="#DejaVuSans-6c" x="300.232422"/>
      <use xlink:href="#DejaVuSans-69" x="328.015625"/>
      <use xlink:href="#DejaVuSans-6e" x="355.798828"/>
      <use xlink:href="#DejaVuSans-69" x="419.177734"/>
      <use xlink:href="#DejaVuSans-63" x="446.960938"/>
      <use xlink:href="#DejaVuSans-61" x="501.941406"/>
      <use xlink:href="#DejaVuSans-6c" x="563.220703"/>
     </g>
    </g>
   </g>
  </g>
 </g>
 <defs>
  <clipPath id="p242a5ac7a9">
   <rect x="41.127531" y="12.745031" width="279" height="163.08"/>
  </clipPath>
 </defs>
</svg>
