<?xml version="1.0" encoding="utf-8" standalone="no"?>
<!DOCTYPE svg PUBLIC "-//W3C//DTD SVG 1.1//EN"
  "http://www.w3.org/Graphics/SVG/1.1/DTD/svg11.dtd">
<svg xmlns:xlink="http://www.w3.org/1999/xlink" width="191.882156pt" height="218.944469pt" viewBox="0 0 191.882156 218.944469" xmlns="http://www.w3.org/2000/svg" version="1.1">
 <metadata>
  <rdf:RDF xmlns:dc="http://purl.org/dc/elements/1.1/" xmlns:cc="http://creativecommons.org/ns#" xmlns:rdf="http://www.w3.org/1999/02/22-rdf-syntax-ns#">
   <cc:Work>
    <dc:type rdf:resource="http://purl.org/dc/dcmitype/StillImage"/>
    <dc:date>2023-06-22T15:12:49.941704</dc:date>
    <dc:format>image/svg+xml</dc:format>
    <dc:creator>
     <cc:Agent>
      <dc:title>Matplotlib v3.5.2, https://matplotlib.org/</dc:title>
     </cc:Agent>
    </dc:creator>
   </cc:Work>
  </rdf:RDF>
 </metadata>
 <defs>
  <style type="text/css">*{stroke-linejoin: round; stroke-linecap: butt}</style>
 </defs>
 <g id="figure_1">
  <g id="patch_1">
   <path d="M 0 218.944469 
L 191.882156 218.944469 
L 191.882156 0 
L 0 0 
z
" style="fill: #ffffff"/>
  </g>
  <g id="axes_1">
   <g id="patch_2">
    <path d="M 45.974156 182.662688 
L 157.574156 182.662688 
L 157.574156 19.582687 
L 45.974156 19.582687 
z
" style="fill: #ffffff"/>
   </g>
   <g id="matplotlib.axis_1">
    <g id="xtick_1">
     <g id="text_1">
      <!-- −0.10 -->
      <g style="fill: #262626" transform="translate(37.255983 198.013484)scale(0.077 -0.077)">
       <defs>
        <path id="DejaVuSans-2212" d="M 678 2272 
L 4684 2272 
L 4684 1741 
L 678 1741 
L 678 2272 
z
" transform="scale(0.015625)"/>
        <path id="DejaVuSans-30" d="M 2034 4250 
Q 1547 4250 1301 3770 
Q 1056 3291 1056 2328 
Q 1056 1369 1301 889 
Q 1547 409 2034 409 
Q 2525 409 2770 889 
Q 3016 1369 3016 2328 
Q 3016 3291 2770 3770 
Q 2525 4250 2034 4250 
z
M 2034 4750 
Q 2819 4750 3233 4129 
Q 3647 3509 3647 2328 
Q 3647 1150 3233 529 
Q 2819 -91 2034 -91 
Q 1250 -91 836 529 
Q 422 1150 422 2328 
Q 422 3509 836 4129 
Q 1250 4750 2034 4750 
z
" transform="scale(0.015625)"/>
        <path id="DejaVuSans-2e" d="M 684 794 
L 1344 794 
L 1344 0 
L 684 0 
L 684 794 
z
" transform="scale(0.015625)"/>
        <path id="DejaVuSans-31" d="M 794 531 
L 1825 531 
L 1825 4091 
L 703 3866 
L 703 4441 
L 1819 4666 
L 2450 4666 
L 2450 531 
L 3481 531 
L 3481 0 
L 794 0 
L 794 531 
z
" transform="scale(0.015625)"/>
       </defs>
       <use xlink:href="#DejaVuSans-2212"/>
       <use xlink:href="#DejaVuSans-30" x="83.789062"/>
       <use xlink:href="#DejaVuSans-2e" x="147.412109"/>
       <use xlink:href="#DejaVuSans-31" x="179.199219"/>
       <use xlink:href="#DejaVuSans-30" x="242.822266"/>
      </g>
     </g>
    </g>
    <g id="xtick_2">
     <g id="text_2">
      <!-- −0.05 -->
      <g style="fill: #262626" transform="translate(65.815526 198.013484)scale(0.077 -0.077)">
       <defs>
        <path id="DejaVuSans-35" d="M 691 4666 
L 3169 4666 
L 3169 4134 
L 1269 4134 
L 1269 2991 
Q 1406 3038 1543 3061 
Q 1681 3084 1819 3084 
Q 2600 3084 3056 2656 
Q 3513 2228 3513 1497 
Q 3513 744 3044 326 
Q 2575 -91 1722 -91 
Q 1428 -91 1123 -41 
Q 819 9 494 109 
L 494 744 
Q 775 591 1075 516 
Q 1375 441 1709 441 
Q 2250 441 2565 725 
Q 2881 1009 2881 1497 
Q 2881 1984 2565 2268 
Q 2250 2553 1709 2553 
Q 1456 2553 1204 2497 
Q 953 2441 691 2322 
L 691 4666 
z
" transform="scale(0.015625)"/>
       </defs>
       <use xlink:href="#DejaVuSans-2212"/>
       <use xlink:href="#DejaVuSans-30" x="83.789062"/>
       <use xlink:href="#DejaVuSans-2e" x="147.412109"/>
       <use xlink:href="#DejaVuSans-30" x="179.199219"/>
       <use xlink:href="#DejaVuSans-35" x="242.822266"/>
      </g>
     </g>
    </g>
    <g id="xtick_3">
     <g id="text_3">
      <!-- 0.00 -->
      <g style="fill: #262626" transform="translate(97.601249 198.013484)scale(0.077 -0.077)">
       <use xlink:href="#DejaVuSans-30"/>
       <use xlink:href="#DejaVuSans-2e" x="63.623047"/>
       <use xlink:href="#DejaVuSans-30" x="95.410156"/>
       <use xlink:href="#DejaVuSans-30" x="159.033203"/>
      </g>
     </g>
    </g>
    <g id="xtick_4">
     <g id="text_4">
      <!-- 0.05 -->
      <g style="fill: #262626" transform="translate(126.160793 198.013484)scale(0.077 -0.077)">
       <use xlink:href="#DejaVuSans-30"/>
       <use xlink:href="#DejaVuSans-2e" x="63.623047"/>
       <use xlink:href="#DejaVuSans-30" x="95.410156"/>
       <use xlink:href="#DejaVuSans-35" x="159.033203"/>
      </g>
     </g>
    </g>
    <g id="text_5">
     <!-- Null $\Delta$ distribution in 10000 simulations -->
     <g style="fill: #262626" transform="translate(18.866156 209.997531)scale(0.084 -0.084)">
      <defs>
       <path id="DejaVuSans-4e" d="M 628 4666 
L 1478 4666 
L 3547 763 
L 3547 4666 
L 4159 4666 
L 4159 0 
L 3309 0 
L 1241 3903 
L 1241 0 
L 628 0 
L 628 4666 
z
" transform="scale(0.015625)"/>
       <path id="DejaVuSans-75" d="M 544 1381 
L 544 3500 
L 1119 3500 
L 1119 1403 
Q 1119 906 1312 657 
Q 1506 409 1894 409 
Q 2359 409 2629 706 
Q 2900 1003 2900 1516 
L 2900 3500 
L 3475 3500 
L 3475 0 
L 2900 0 
L 2900 538 
Q 2691 219 2414 64 
Q 2138 -91 1772 -91 
Q 1169 -91 856 284 
Q 544 659 544 1381 
z
M 1991 3584 
L 1991 3584 
z
" transform="scale(0.015625)"/>
       <path id="DejaVuSans-6c" d="M 603 4863 
L 1178 4863 
L 1178 0 
L 603 0 
L 603 4863 
z
" transform="scale(0.015625)"/>
       <path id="DejaVuSans-20" transform="scale(0.015625)"/>
       <path id="DejaVuSans-394" d="M 2188 4044 
L 906 525 
L 3472 525 
L 2188 4044 
z
M 50 0 
L 1831 4666 
L 2547 4666 
L 4325 0 
L 50 0 
z
" transform="scale(0.015625)"/>
       <path id="DejaVuSans-64" d="M 2906 2969 
L 2906 4863 
L 3481 4863 
L 3481 0 
L 2906 0 
L 2906 525 
Q 2725 213 2448 61 
Q 2172 -91 1784 -91 
Q 1150 -91 751 415 
Q 353 922 353 1747 
Q 353 2572 751 3078 
Q 1150 3584 1784 3584 
Q 2172 3584 2448 3432 
Q 2725 3281 2906 2969 
z
M 947 1747 
Q 947 1113 1208 752 
Q 1469 391 1925 391 
Q 2381 391 2643 752 
Q 2906 1113 2906 1747 
Q 2906 2381 2643 2742 
Q 2381 3103 1925 3103 
Q 1469 3103 1208 2742 
Q 947 2381 947 1747 
z
" transform="scale(0.015625)"/>
       <path id="DejaVuSans-69" d="M 603 3500 
L 1178 3500 
L 1178 0 
L 603 0 
L 603 3500 
z
M 603 4863 
L 1178 4863 
L 1178 4134 
L 603 4134 
L 603 4863 
z
" transform="scale(0.015625)"/>
       <path id="DejaVuSans-73" d="M 2834 3397 
L 2834 2853 
Q 2591 2978 2328 3040 
Q 2066 3103 1784 3103 
Q 1356 3103 1142 2972 
Q 928 2841 928 2578 
Q 928 2378 1081 2264 
Q 1234 2150 1697 2047 
L 1894 2003 
Q 2506 1872 2764 1633 
Q 3022 1394 3022 966 
Q 3022 478 2636 193 
Q 2250 -91 1575 -91 
Q 1294 -91 989 -36 
Q 684 19 347 128 
L 347 722 
Q 666 556 975 473 
Q 1284 391 1588 391 
Q 1994 391 2212 530 
Q 2431 669 2431 922 
Q 2431 1156 2273 1281 
Q 2116 1406 1581 1522 
L 1381 1569 
Q 847 1681 609 1914 
Q 372 2147 372 2553 
Q 372 3047 722 3315 
Q 1072 3584 1716 3584 
Q 2034 3584 2315 3537 
Q 2597 3491 2834 3397 
z
" transform="scale(0.015625)"/>
       <path id="DejaVuSans-74" d="M 1172 4494 
L 1172 3500 
L 2356 3500 
L 2356 3053 
L 1172 3053 
L 1172 1153 
Q 1172 725 1289 603 
Q 1406 481 1766 481 
L 2356 481 
L 2356 0 
L 1766 0 
Q 1100 0 847 248 
Q 594 497 594 1153 
L 594 3053 
L 172 3053 
L 172 3500 
L 594 3500 
L 594 4494 
L 1172 4494 
z
" transform="scale(0.015625)"/>
       <path id="DejaVuSans-72" d="M 2631 2963 
Q 2534 3019 2420 3045 
Q 2306 3072 2169 3072 
Q 1681 3072 1420 2755 
Q 1159 2438 1159 1844 
L 1159 0 
L 581 0 
L 581 3500 
L 1159 3500 
L 1159 2956 
Q 1341 3275 1631 3429 
Q 1922 3584 2338 3584 
Q 2397 3584 2469 3576 
Q 2541 3569 2628 3553 
L 2631 2963 
z
" transform="scale(0.015625)"/>
       <path id="DejaVuSans-62" d="M 3116 1747 
Q 3116 2381 2855 2742 
Q 2594 3103 2138 3103 
Q 1681 3103 1420 2742 
Q 1159 2381 1159 1747 
Q 1159 1113 1420 752 
Q 1681 391 2138 391 
Q 2594 391 2855 752 
Q 3116 1113 3116 1747 
z
M 1159 2969 
Q 1341 3281 1617 3432 
Q 1894 3584 2278 3584 
Q 2916 3584 3314 3078 
Q 3713 2572 3713 1747 
Q 3713 922 3314 415 
Q 2916 -91 2278 -91 
Q 1894 -91 1617 61 
Q 1341 213 1159 525 
L 1159 0 
L 581 0 
L 581 4863 
L 1159 4863 
L 1159 2969 
z
" transform="scale(0.015625)"/>
       <path id="DejaVuSans-6f" d="M 1959 3097 
Q 1497 3097 1228 2736 
Q 959 2375 959 1747 
Q 959 1119 1226 758 
Q 1494 397 1959 397 
Q 2419 397 2687 759 
Q 2956 1122 2956 1747 
Q 2956 2369 2687 2733 
Q 2419 3097 1959 3097 
z
M 1959 3584 
Q 2709 3584 3137 3096 
Q 3566 2609 3566 1747 
Q 3566 888 3137 398 
Q 2709 -91 1959 -91 
Q 1206 -91 779 398 
Q 353 888 353 1747 
Q 353 2609 779 3096 
Q 1206 3584 1959 3584 
z
" transform="scale(0.015625)"/>
       <path id="DejaVuSans-6e" d="M 3513 2113 
L 3513 0 
L 2938 0 
L 2938 2094 
Q 2938 2591 2744 2837 
Q 2550 3084 2163 3084 
Q 1697 3084 1428 2787 
Q 1159 2491 1159 1978 
L 1159 0 
L 581 0 
L 581 3500 
L 1159 3500 
L 1159 2956 
Q 1366 3272 1645 3428 
Q 1925 3584 2291 3584 
Q 2894 3584 3203 3211 
Q 3513 2838 3513 2113 
z
" transform="scale(0.015625)"/>
       <path id="DejaVuSans-6d" d="M 3328 2828 
Q 3544 3216 3844 3400 
Q 4144 3584 4550 3584 
Q 5097 3584 5394 3201 
Q 5691 2819 5691 2113 
L 5691 0 
L 5113 0 
L 5113 2094 
Q 5113 2597 4934 2840 
Q 4756 3084 4391 3084 
Q 3944 3084 3684 2787 
Q 3425 2491 3425 1978 
L 3425 0 
L 2847 0 
L 2847 2094 
Q 2847 2600 2669 2842 
Q 2491 3084 2119 3084 
Q 1678 3084 1418 2786 
Q 1159 2488 1159 1978 
L 1159 0 
L 581 0 
L 581 3500 
L 1159 3500 
L 1159 2956 
Q 1356 3278 1631 3431 
Q 1906 3584 2284 3584 
Q 2666 3584 2933 3390 
Q 3200 3197 3328 2828 
z
" transform="scale(0.015625)"/>
       <path id="DejaVuSans-61" d="M 2194 1759 
Q 1497 1759 1228 1600 
Q 959 1441 959 1056 
Q 959 750 1161 570 
Q 1363 391 1709 391 
Q 2188 391 2477 730 
Q 2766 1069 2766 1631 
L 2766 1759 
L 2194 1759 
z
M 3341 1997 
L 3341 0 
L 2766 0 
L 2766 531 
Q 2569 213 2275 61 
Q 1981 -91 1556 -91 
Q 1019 -91 701 211 
Q 384 513 384 1019 
Q 384 1609 779 1909 
Q 1175 2209 1959 2209 
L 2766 2209 
L 2766 2266 
Q 2766 2663 2505 2880 
Q 2244 3097 1772 3097 
Q 1472 3097 1187 3025 
Q 903 2953 641 2809 
L 641 3341 
Q 956 3463 1253 3523 
Q 1550 3584 1831 3584 
Q 2591 3584 2966 3190 
Q 3341 2797 3341 1997 
z
" transform="scale(0.015625)"/>
      </defs>
      <use xlink:href="#DejaVuSans-4e" transform="translate(0 0.015625)"/>
      <use xlink:href="#DejaVuSans-75" transform="translate(74.804688 0.015625)"/>
      <use xlink:href="#DejaVuSans-6c" transform="translate(138.183594 0.015625)"/>
      <use xlink:href="#DejaVuSans-6c" transform="translate(165.966797 0.015625)"/>
      <use xlink:href="#DejaVuSans-20" transform="translate(193.75 0.015625)"/>
      <use xlink:href="#DejaVuSans-394" transform="translate(225.537109 0.015625)"/>
      <use xlink:href="#DejaVuSans-20" transform="translate(293.945312 0.015625)"/>
      <use xlink:href="#DejaVuSans-64" transform="translate(325.732422 0.015625)"/>
      <use xlink:href="#DejaVuSans-69" transform="translate(389.208984 0.015625)"/>
      <use xlink:href="#DejaVuSans-73" transform="translate(416.992188 0.015625)"/>
      <use xlink:href="#DejaVuSans-74" transform="translate(469.091797 0.015625)"/>
      <use xlink:href="#DejaVuSans-72" transform="translate(508.300781 0.015625)"/>
      <use xlink:href="#DejaVuSans-69" transform="translate(549.414062 0.015625)"/>
      <use xlink:href="#DejaVuSans-62" transform="translate(577.197266 0.015625)"/>
      <use xlink:href="#DejaVuSans-75" transform="translate(640.673828 0.015625)"/>
      <use xlink:href="#DejaVuSans-74" transform="translate(704.052734 0.015625)"/>
      <use xlink:href="#DejaVuSans-69" transform="translate(743.261719 0.015625)"/>
      <use xlink:href="#DejaVuSans-6f" transform="translate(771.044922 0.015625)"/>
      <use xlink:href="#DejaVuSans-6e" transform="translate(832.226562 0.015625)"/>
      <use xlink:href="#DejaVuSans-20" transform="translate(895.605469 0.015625)"/>
      <use xlink:href="#DejaVuSans-69" transform="translate(927.392578 0.015625)"/>
      <use xlink:href="#DejaVuSans-6e" transform="translate(955.175781 0.015625)"/>
      <use xlink:href="#DejaVuSans-20" transform="translate(1018.554688 0.015625)"/>
      <use xlink:href="#DejaVuSans-31" transform="translate(1050.341797 0.015625)"/>
      <use xlink:href="#DejaVuSans-30" transform="translate(1113.964844 0.015625)"/>
      <use xlink:href="#DejaVuSans-30" transform="translate(1177.587891 0.015625)"/>
      <use xlink:href="#DejaVuSans-30" transform="translate(1241.210938 0.015625)"/>
      <use xlink:href="#DejaVuSans-30" transform="translate(1304.833984 0.015625)"/>
      <use xlink:href="#DejaVuSans-20" transform="translate(1368.457031 0.015625)"/>
      <use xlink:href="#DejaVuSans-73" transform="translate(1400.244141 0.015625)"/>
      <use xlink:href="#DejaVuSans-69" transform="translate(1452.34375 0.015625)"/>
      <use xlink:href="#DejaVuSans-6d" transform="translate(1480.126953 0.015625)"/>
      <use xlink:href="#DejaVuSans-75" transform="translate(1577.539062 0.015625)"/>
      <use xlink:href="#DejaVuSans-6c" transform="translate(1640.917969 0.015625)"/>
      <use xlink:href="#DejaVuSans-61" transform="translate(1668.701172 0.015625)"/>
      <use xlink:href="#DejaVuSans-74" transform="translate(1729.980469 0.015625)"/>
      <use xlink:href="#DejaVuSans-69" transform="translate(1769.189453 0.015625)"/>
      <use xlink:href="#DejaVuSans-6f" transform="translate(1796.972656 0.015625)"/>
      <use xlink:href="#DejaVuSans-6e" transform="translate(1858.154297 0.015625)"/>
      <use xlink:href="#DejaVuSans-73" transform="translate(1921.533203 0.015625)"/>
     </g>
    </g>
   </g>
   <g id="matplotlib.axis_2">
    <g id="ytick_1">
     <g id="text_6">
      <!-- 0.0 -->
      <g style="fill: #262626" transform="translate(24.22875 185.588086)scale(0.077 -0.077)">
       <use xlink:href="#DejaVuSans-30"/>
       <use xlink:href="#DejaVuSans-2e" x="63.623047"/>
       <use xlink:href="#DejaVuSans-30" x="95.410156"/>
      </g>
     </g>
    </g>
    <g id="ytick_2">
     <g id="text_7">
      <!-- 2.5 -->
      <g style="fill: #262626" transform="translate(24.22875 166.074447)scale(0.077 -0.077)">
       <defs>
        <path id="DejaVuSans-32" d="M 1228 531 
L 3431 531 
L 3431 0 
L 469 0 
L 469 531 
Q 828 903 1448 1529 
Q 2069 2156 2228 2338 
Q 2531 2678 2651 2914 
Q 2772 3150 2772 3378 
Q 2772 3750 2511 3984 
Q 2250 4219 1831 4219 
Q 1534 4219 1204 4116 
Q 875 4013 500 3803 
L 500 4441 
Q 881 4594 1212 4672 
Q 1544 4750 1819 4750 
Q 2544 4750 2975 4387 
Q 3406 4025 3406 3419 
Q 3406 3131 3298 2873 
Q 3191 2616 2906 2266 
Q 2828 2175 2409 1742 
Q 1991 1309 1228 531 
z
" transform="scale(0.015625)"/>
       </defs>
       <use xlink:href="#DejaVuSans-32"/>
       <use xlink:href="#DejaVuSans-2e" x="63.623047"/>
       <use xlink:href="#DejaVuSans-35" x="95.410156"/>
      </g>
     </g>
    </g>
    <g id="ytick_3">
     <g id="text_8">
      <!-- 5.0 -->
      <g style="fill: #262626" transform="translate(24.22875 146.560809)scale(0.077 -0.077)">
       <use xlink:href="#DejaVuSans-35"/>
       <use xlink:href="#DejaVuSans-2e" x="63.623047"/>
       <use xlink:href="#DejaVuSans-30" x="95.410156"/>
      </g>
     </g>
    </g>
    <g id="ytick_4">
     <g id="text_9">
      <!-- 7.5 -->
      <g style="fill: #262626" transform="translate(24.22875 127.04717)scale(0.077 -0.077)">
       <defs>
        <path id="DejaVuSans-37" d="M 525 4666 
L 3525 4666 
L 3525 4397 
L 1831 0 
L 1172 0 
L 2766 4134 
L 525 4134 
L 525 4666 
z
" transform="scale(0.015625)"/>
       </defs>
       <use xlink:href="#DejaVuSans-37"/>
       <use xlink:href="#DejaVuSans-2e" x="63.623047"/>
       <use xlink:href="#DejaVuSans-35" x="95.410156"/>
      </g>
     </g>
    </g>
    <g id="ytick_5">
     <g id="text_10">
      <!-- 10.0 -->
      <g style="fill: #262626" transform="translate(19.329625 107.533532)scale(0.077 -0.077)">
       <use xlink:href="#DejaVuSans-31"/>
       <use xlink:href="#DejaVuSans-30" x="63.623047"/>
       <use xlink:href="#DejaVuSans-2e" x="127.246094"/>
       <use xlink:href="#DejaVuSans-30" x="159.033203"/>
      </g>
     </g>
    </g>
    <g id="ytick_6">
     <g id="text_11">
      <!-- 12.5 -->
      <g style="fill: #262626" transform="translate(19.329625 88.019893)scale(0.077 -0.077)">
       <use xlink:href="#DejaVuSans-31"/>
       <use xlink:href="#DejaVuSans-32" x="63.623047"/>
       <use xlink:href="#DejaVuSans-2e" x="127.246094"/>
       <use xlink:href="#DejaVuSans-35" x="159.033203"/>
      </g>
     </g>
    </g>
    <g id="ytick_7">
     <g id="text_12">
      <!-- 15.0 -->
      <g style="fill: #262626" transform="translate(19.329625 68.506254)scale(0.077 -0.077)">
       <use xlink:href="#DejaVuSans-31"/>
       <use xlink:href="#DejaVuSans-35" x="63.623047"/>
       <use xlink:href="#DejaVuSans-2e" x="127.246094"/>
       <use xlink:href="#DejaVuSans-30" x="159.033203"/>
      </g>
     </g>
    </g>
    <g id="ytick_8">
     <g id="text_13">
      <!-- 17.5 -->
      <g style="fill: #262626" transform="translate(19.329625 48.992616)scale(0.077 -0.077)">
       <use xlink:href="#DejaVuSans-31"/>
       <use xlink:href="#DejaVuSans-37" x="63.623047"/>
       <use xlink:href="#DejaVuSans-2e" x="127.246094"/>
       <use xlink:href="#DejaVuSans-35" x="159.033203"/>
      </g>
     </g>
    </g>
    <g id="ytick_9">
     <g id="text_14">
      <!-- 20.0 -->
      <g style="fill: #262626" transform="translate(19.329625 29.478977)scale(0.077 -0.077)">
       <use xlink:href="#DejaVuSans-32"/>
       <use xlink:href="#DejaVuSans-30" x="63.623047"/>
       <use xlink:href="#DejaVuSans-2e" x="127.246094"/>
       <use xlink:href="#DejaVuSans-30" x="159.033203"/>
      </g>
     </g>
    </g>
    <g id="text_15">
     <!-- Density -->
     <g style="fill: #262626" transform="translate(13.582687 117.089906)rotate(-90)scale(0.084 -0.084)">
      <defs>
       <path id="DejaVuSans-44" d="M 1259 4147 
L 1259 519 
L 2022 519 
Q 2988 519 3436 956 
Q 3884 1394 3884 2338 
Q 3884 3275 3436 3711 
Q 2988 4147 2022 4147 
L 1259 4147 
z
M 628 4666 
L 1925 4666 
Q 3281 4666 3915 4102 
Q 4550 3538 4550 2338 
Q 4550 1131 3912 565 
Q 3275 0 1925 0 
L 628 0 
L 628 4666 
z
" transform="scale(0.015625)"/>
       <path id="DejaVuSans-65" d="M 3597 1894 
L 3597 1613 
L 953 1613 
Q 991 1019 1311 708 
Q 1631 397 2203 397 
Q 2534 397 2845 478 
Q 3156 559 3463 722 
L 3463 178 
Q 3153 47 2828 -22 
Q 2503 -91 2169 -91 
Q 1331 -91 842 396 
Q 353 884 353 1716 
Q 353 2575 817 3079 
Q 1281 3584 2069 3584 
Q 2775 3584 3186 3129 
Q 3597 2675 3597 1894 
z
M 3022 2063 
Q 3016 2534 2758 2815 
Q 2500 3097 2075 3097 
Q 1594 3097 1305 2825 
Q 1016 2553 972 2059 
L 3022 2063 
z
" transform="scale(0.015625)"/>
       <path id="DejaVuSans-79" d="M 2059 -325 
Q 1816 -950 1584 -1140 
Q 1353 -1331 966 -1331 
L 506 -1331 
L 506 -850 
L 844 -850 
Q 1081 -850 1212 -737 
Q 1344 -625 1503 -206 
L 1606 56 
L 191 3500 
L 800 3500 
L 1894 763 
L 2988 3500 
L 3597 3500 
L 2059 -325 
z
" transform="scale(0.015625)"/>
      </defs>
      <use xlink:href="#DejaVuSans-44"/>
      <use xlink:href="#DejaVuSans-65" x="77.001953"/>
      <use xlink:href="#DejaVuSans-6e" x="138.525391"/>
      <use xlink:href="#DejaVuSans-73" x="201.904297"/>
      <use xlink:href="#DejaVuSans-69" x="254.003906"/>
      <use xlink:href="#DejaVuSans-74" x="281.787109"/>
      <use xlink:href="#DejaVuSans-79" x="320.996094"/>
     </g>
    </g>
   </g>
   <g id="patch_3">
    <path d="M 55.658454 182.662688 
L 57.122444 182.662688 
L 57.122444 182.35815 
L 55.658454 182.35815 
z
" clip-path="url(#p1650865158)" style="fill: #4c72b0; fill-opacity: 0.75"/>
   </g>
   <g id="patch_4">
    <path d="M 57.122444 182.662688 
L 58.586435 182.662688 
L 58.586435 182.662688 
L 57.122444 182.662688 
z
" clip-path="url(#p1650865158)" style="fill: #4c72b0; fill-opacity: 0.75"/>
   </g>
   <g id="patch_5">
    <path d="M 58.586435 182.662688 
L 60.050425 182.662688 
L 60.050425 182.35815 
L 58.586435 182.35815 
z
" clip-path="url(#p1650865158)" style="fill: #4c72b0; fill-opacity: 0.75"/>
   </g>
   <g id="patch_6">
    <path d="M 60.050425 182.662688 
L 61.514416 182.662688 
L 61.514416 182.662688 
L 60.050425 182.662688 
z
" clip-path="url(#p1650865158)" style="fill: #4c72b0; fill-opacity: 0.75"/>
   </g>
   <g id="patch_7">
    <path d="M 61.514416 182.662688 
L 62.978407 182.662688 
L 62.978407 182.662688 
L 61.514416 182.662688 
z
" clip-path="url(#p1650865158)" style="fill: #4c72b0; fill-opacity: 0.75"/>
   </g>
   <g id="patch_8">
    <path d="M 62.978407 182.662688 
L 64.442397 182.662688 
L 64.442397 182.053612 
L 62.978407 182.053612 
z
" clip-path="url(#p1650865158)" style="fill: #4c72b0; fill-opacity: 0.75"/>
   </g>
   <g id="patch_9">
    <path d="M 64.442397 182.662688 
L 65.906388 182.662688 
L 65.906388 182.053612 
L 64.442397 182.053612 
z
" clip-path="url(#p1650865158)" style="fill: #4c72b0; fill-opacity: 0.75"/>
   </g>
   <g id="patch_10">
    <path d="M 65.906388 182.662688 
L 67.370378 182.662688 
L 67.370378 180.835461 
L 65.906388 180.835461 
z
" clip-path="url(#p1650865158)" style="fill: #4c72b0; fill-opacity: 0.75"/>
   </g>
   <g id="patch_11">
    <path d="M 67.370378 182.662688 
L 68.834369 182.662688 
L 68.834369 181.749074 
L 67.370378 181.749074 
z
" clip-path="url(#p1650865158)" style="fill: #4c72b0; fill-opacity: 0.75"/>
   </g>
   <g id="patch_12">
    <path d="M 68.834369 182.662688 
L 70.298359 182.662688 
L 70.298359 181.139998 
L 68.834369 181.139998 
z
" clip-path="url(#p1650865158)" style="fill: #4c72b0; fill-opacity: 0.75"/>
   </g>
   <g id="patch_13">
    <path d="M 70.298359 182.662688 
L 71.76235 182.662688 
L 71.76235 179.921847 
L 70.298359 179.921847 
z
" clip-path="url(#p1650865158)" style="fill: #4c72b0; fill-opacity: 0.75"/>
   </g>
   <g id="patch_14">
    <path d="M 71.76235 182.662688 
L 73.22634 182.662688 
L 73.22634 178.399158 
L 71.76235 178.399158 
z
" clip-path="url(#p1650865158)" style="fill: #4c72b0; fill-opacity: 0.75"/>
   </g>
   <g id="patch_15">
    <path d="M 73.22634 182.662688 
L 74.690331 182.662688 
L 74.690331 176.876469 
L 73.22634 176.876469 
z
" clip-path="url(#p1650865158)" style="fill: #4c72b0; fill-opacity: 0.75"/>
   </g>
   <g id="patch_16">
    <path d="M 74.690331 182.662688 
L 76.154322 182.662688 
L 76.154322 176.876469 
L 74.690331 176.876469 
z
" clip-path="url(#p1650865158)" style="fill: #4c72b0; fill-opacity: 0.75"/>
   </g>
   <g id="patch_17">
    <path d="M 76.154322 182.662688 
L 77.618312 182.662688 
L 77.618312 177.485545 
L 76.154322 177.485545 
z
" clip-path="url(#p1650865158)" style="fill: #4c72b0; fill-opacity: 0.75"/>
   </g>
   <g id="patch_18">
    <path d="M 77.618312 182.662688 
L 79.082303 182.662688 
L 79.082303 171.394788 
L 77.618312 171.394788 
z
" clip-path="url(#p1650865158)" style="fill: #4c72b0; fill-opacity: 0.75"/>
   </g>
   <g id="patch_19">
    <path d="M 79.082303 182.662688 
L 80.546293 182.662688 
L 80.546293 174.135629 
L 79.082303 174.135629 
z
" clip-path="url(#p1650865158)" style="fill: #4c72b0; fill-opacity: 0.75"/>
   </g>
   <g id="patch_20">
    <path d="M 80.546293 182.662688 
L 82.010284 182.662688 
L 82.010284 167.435797 
L 80.546293 167.435797 
z
" clip-path="url(#p1650865158)" style="fill: #4c72b0; fill-opacity: 0.75"/>
   </g>
   <g id="patch_21">
    <path d="M 82.010284 182.662688 
L 83.474274 182.662688 
L 83.474274 162.86773 
L 82.010284 162.86773 
z
" clip-path="url(#p1650865158)" style="fill: #4c72b0; fill-opacity: 0.75"/>
   </g>
   <g id="patch_22">
    <path d="M 83.474274 182.662688 
L 84.938265 182.662688 
L 84.938265 155.254284 
L 83.474274 155.254284 
z
" clip-path="url(#p1650865158)" style="fill: #4c72b0; fill-opacity: 0.75"/>
   </g>
   <g id="patch_23">
    <path d="M 84.938265 182.662688 
L 86.402255 182.662688 
L 86.402255 147.640839 
L 84.938265 147.640839 
z
" clip-path="url(#p1650865158)" style="fill: #4c72b0; fill-opacity: 0.75"/>
   </g>
   <g id="patch_24">
    <path d="M 86.402255 182.662688 
L 87.866246 182.662688 
L 87.866246 138.504704 
L 86.402255 138.504704 
z
" clip-path="url(#p1650865158)" style="fill: #4c72b0; fill-opacity: 0.75"/>
   </g>
   <g id="patch_25">
    <path d="M 87.866246 182.662688 
L 89.330237 182.662688 
L 89.330237 125.409578 
L 87.866246 125.409578 
z
" clip-path="url(#p1650865158)" style="fill: #4c72b0; fill-opacity: 0.75"/>
   </g>
   <g id="patch_26">
    <path d="M 89.330237 182.662688 
L 90.794227 182.662688 
L 90.794227 124.191427 
L 89.330237 124.191427 
z
" clip-path="url(#p1650865158)" style="fill: #4c72b0; fill-opacity: 0.75"/>
   </g>
   <g id="patch_27">
    <path d="M 90.794227 182.662688 
L 92.258218 182.662688 
L 92.258218 118.405209 
L 90.794227 118.405209 
z
" clip-path="url(#p1650865158)" style="fill: #4c72b0; fill-opacity: 0.75"/>
   </g>
   <g id="patch_28">
    <path d="M 92.258218 182.662688 
L 93.722208 182.662688 
L 93.722208 107.746385 
L 92.258218 107.746385 
z
" clip-path="url(#p1650865158)" style="fill: #4c72b0; fill-opacity: 0.75"/>
   </g>
   <g id="patch_29">
    <path d="M 93.722208 182.662688 
L 95.186199 182.662688 
L 95.186199 90.692267 
L 93.722208 90.692267 
z
" clip-path="url(#p1650865158)" style="fill: #4c72b0; fill-opacity: 0.75"/>
   </g>
   <g id="patch_30">
    <path d="M 95.186199 182.662688 
L 96.650189 182.662688 
L 96.650189 87.342351 
L 95.186199 87.342351 
z
" clip-path="url(#p1650865158)" style="fill: #4c72b0; fill-opacity: 0.75"/>
   </g>
   <g id="patch_31">
    <path d="M 96.650189 182.662688 
L 98.11418 182.662688 
L 98.11418 73.63815 
L 96.650189 73.63815 
z
" clip-path="url(#p1650865158)" style="fill: #4c72b0; fill-opacity: 0.75"/>
   </g>
   <g id="patch_32">
    <path d="M 98.11418 182.662688 
L 99.57817 182.662688 
L 99.57817 62.979326 
L 98.11418 62.979326 
z
" clip-path="url(#p1650865158)" style="fill: #4c72b0; fill-opacity: 0.75"/>
   </g>
   <g id="patch_33">
    <path d="M 99.57817 182.662688 
L 101.042161 182.662688 
L 101.042161 54.14773 
L 99.57817 54.14773 
z
" clip-path="url(#p1650865158)" style="fill: #4c72b0; fill-opacity: 0.75"/>
   </g>
   <g id="patch_34">
    <path d="M 101.042161 182.662688 
L 102.506152 182.662688 
L 102.506152 38.311763 
L 101.042161 38.311763 
z
" clip-path="url(#p1650865158)" style="fill: #4c72b0; fill-opacity: 0.75"/>
   </g>
   <g id="patch_35">
    <path d="M 102.506152 182.662688 
L 103.970142 182.662688 
L 103.970142 35.875461 
L 102.506152 35.875461 
z
" clip-path="url(#p1650865158)" style="fill: #4c72b0; fill-opacity: 0.75"/>
   </g>
   <g id="patch_36">
    <path d="M 103.970142 182.662688 
L 105.434133 182.662688 
L 105.434133 33.743696 
L 103.970142 33.743696 
z
" clip-path="url(#p1650865158)" style="fill: #4c72b0; fill-opacity: 0.75"/>
   </g>
   <g id="patch_37">
    <path d="M 105.434133 182.662688 
L 106.898123 182.662688 
L 106.898123 27.348402 
L 105.434133 27.348402 
z
" clip-path="url(#p1650865158)" style="fill: #4c72b0; fill-opacity: 0.75"/>
   </g>
   <g id="patch_38">
    <path d="M 106.898123 182.662688 
L 108.362114 182.662688 
L 108.362114 27.65294 
L 106.898123 27.65294 
z
" clip-path="url(#p1650865158)" style="fill: #4c72b0; fill-opacity: 0.75"/>
   </g>
   <g id="patch_39">
    <path d="M 108.362114 182.662688 
L 109.826104 182.662688 
L 109.826104 33.13462 
L 108.362114 33.13462 
z
" clip-path="url(#p1650865158)" style="fill: #4c72b0; fill-opacity: 0.75"/>
   </g>
   <g id="patch_40">
    <path d="M 109.826104 182.662688 
L 111.290095 182.662688 
L 111.290095 52.015965 
L 109.826104 52.015965 
z
" clip-path="url(#p1650865158)" style="fill: #4c72b0; fill-opacity: 0.75"/>
   </g>
   <g id="patch_41">
    <path d="M 111.290095 182.662688 
L 112.754085 182.662688 
L 112.754085 41.357141 
L 111.290095 41.357141 
z
" clip-path="url(#p1650865158)" style="fill: #4c72b0; fill-opacity: 0.75"/>
   </g>
   <g id="patch_42">
    <path d="M 112.754085 182.662688 
L 114.218076 182.662688 
L 114.218076 53.538654 
L 112.754085 53.538654 
z
" clip-path="url(#p1650865158)" style="fill: #4c72b0; fill-opacity: 0.75"/>
   </g>
   <g id="patch_43">
    <path d="M 114.218076 182.662688 
L 115.682067 182.662688 
L 115.682067 68.461007 
L 114.218076 68.461007 
z
" clip-path="url(#p1650865158)" style="fill: #4c72b0; fill-opacity: 0.75"/>
   </g>
   <g id="patch_44">
    <path d="M 115.682067 182.662688 
L 117.146057 182.662688 
L 117.146057 85.819662 
L 115.682067 85.819662 
z
" clip-path="url(#p1650865158)" style="fill: #4c72b0; fill-opacity: 0.75"/>
   </g>
   <g id="patch_45">
    <path d="M 117.146057 182.662688 
L 118.610048 182.662688 
L 118.610048 85.210587 
L 117.146057 85.210587 
z
" clip-path="url(#p1650865158)" style="fill: #4c72b0; fill-opacity: 0.75"/>
   </g>
   <g id="patch_46">
    <path d="M 118.610048 182.662688 
L 120.074038 182.662688 
L 120.074038 101.046553 
L 118.610048 101.046553 
z
" clip-path="url(#p1650865158)" style="fill: #4c72b0; fill-opacity: 0.75"/>
   </g>
   <g id="patch_47">
    <path d="M 120.074038 182.662688 
L 121.538029 182.662688 
L 121.538029 101.046553 
L 120.074038 101.046553 
z
" clip-path="url(#p1650865158)" style="fill: #4c72b0; fill-opacity: 0.75"/>
   </g>
   <g id="patch_48">
    <path d="M 121.538029 182.662688 
L 123.002019 182.662688 
L 123.002019 132.10941 
L 121.538029 132.10941 
z
" clip-path="url(#p1650865158)" style="fill: #4c72b0; fill-opacity: 0.75"/>
   </g>
   <g id="patch_49">
    <path d="M 123.002019 182.662688 
L 124.46601 182.662688 
L 124.46601 133.327561 
L 123.002019 133.327561 
z
" clip-path="url(#p1650865158)" style="fill: #4c72b0; fill-opacity: 0.75"/>
   </g>
   <g id="patch_50">
    <path d="M 124.46601 182.662688 
L 125.93 182.662688 
L 125.93 146.422687 
L 124.46601 146.422687 
z
" clip-path="url(#p1650865158)" style="fill: #4c72b0; fill-opacity: 0.75"/>
   </g>
   <g id="patch_51">
    <path d="M 125.93 182.662688 
L 127.393991 182.662688 
L 127.393991 144.595461 
L 125.93 144.595461 
z
" clip-path="url(#p1650865158)" style="fill: #4c72b0; fill-opacity: 0.75"/>
   </g>
   <g id="patch_52">
    <path d="M 127.393991 182.662688 
L 128.857982 182.662688 
L 128.857982 157.690587 
L 127.393991 157.690587 
z
" clip-path="url(#p1650865158)" style="fill: #4c72b0; fill-opacity: 0.75"/>
   </g>
   <g id="patch_53">
    <path d="M 128.857982 182.662688 
L 130.321972 182.662688 
L 130.321972 156.776973 
L 128.857982 156.776973 
z
" clip-path="url(#p1650865158)" style="fill: #4c72b0; fill-opacity: 0.75"/>
   </g>
   <g id="patch_54">
    <path d="M 130.321972 182.662688 
L 131.785963 182.662688 
L 131.785963 168.044872 
L 130.321972 168.044872 
z
" clip-path="url(#p1650865158)" style="fill: #4c72b0; fill-opacity: 0.75"/>
   </g>
   <g id="patch_55">
    <path d="M 131.785963 182.662688 
L 133.249953 182.662688 
L 133.249953 170.176637 
L 131.785963 170.176637 
z
" clip-path="url(#p1650865158)" style="fill: #4c72b0; fill-opacity: 0.75"/>
   </g>
   <g id="patch_56">
    <path d="M 133.249953 182.662688 
L 134.713944 182.662688 
L 134.713944 174.135629 
L 133.249953 174.135629 
z
" clip-path="url(#p1650865158)" style="fill: #4c72b0; fill-opacity: 0.75"/>
   </g>
   <g id="patch_57">
    <path d="M 134.713944 182.662688 
L 136.177934 182.662688 
L 136.177934 176.876469 
L 134.713944 176.876469 
z
" clip-path="url(#p1650865158)" style="fill: #4c72b0; fill-opacity: 0.75"/>
   </g>
   <g id="patch_58">
    <path d="M 136.177934 182.662688 
L 137.641925 182.662688 
L 137.641925 177.790082 
L 136.177934 177.790082 
z
" clip-path="url(#p1650865158)" style="fill: #4c72b0; fill-opacity: 0.75"/>
   </g>
   <g id="patch_59">
    <path d="M 137.641925 182.662688 
L 139.105915 182.662688 
L 139.105915 178.703696 
L 137.641925 178.703696 
z
" clip-path="url(#p1650865158)" style="fill: #4c72b0; fill-opacity: 0.75"/>
   </g>
   <g id="patch_60">
    <path d="M 139.105915 182.662688 
L 140.569906 182.662688 
L 140.569906 181.139998 
L 139.105915 181.139998 
z
" clip-path="url(#p1650865158)" style="fill: #4c72b0; fill-opacity: 0.75"/>
   </g>
   <g id="patch_61">
    <path d="M 140.569906 182.662688 
L 142.033897 182.662688 
L 142.033897 181.749074 
L 140.569906 181.749074 
z
" clip-path="url(#p1650865158)" style="fill: #4c72b0; fill-opacity: 0.75"/>
   </g>
   <g id="patch_62">
    <path d="M 142.033897 182.662688 
L 143.497887 182.662688 
L 143.497887 181.749074 
L 142.033897 181.749074 
z
" clip-path="url(#p1650865158)" style="fill: #4c72b0; fill-opacity: 0.75"/>
   </g>
   <g id="patch_63">
    <path d="M 143.497887 182.662688 
L 144.961878 182.662688 
L 144.961878 181.749074 
L 143.497887 181.749074 
z
" clip-path="url(#p1650865158)" style="fill: #4c72b0; fill-opacity: 0.75"/>
   </g>
   <g id="patch_64">
    <path d="M 144.961878 182.662688 
L 146.425868 182.662688 
L 146.425868 181.444536 
L 144.961878 181.444536 
z
" clip-path="url(#p1650865158)" style="fill: #4c72b0; fill-opacity: 0.75"/>
   </g>
   <g id="patch_65">
    <path d="M 146.425868 182.662688 
L 147.889859 182.662688 
L 147.889859 181.444536 
L 146.425868 181.444536 
z
" clip-path="url(#p1650865158)" style="fill: #4c72b0; fill-opacity: 0.75"/>
   </g>
   <g id="line2d_1">
    <path d="M 51.046884 182.659616 
L 61.538333 182.536175 
L 65.191062 182.278411 
L 67.6668 181.889527 
L 69.604776 181.366266 
L 71.238357 180.699495 
L 72.689302 179.869335 
L 74.028636 178.845524 
L 75.296945 177.592065 
L 76.524668 176.060203 
L 77.732097 174.191936 
L 78.949674 171.885879 
L 80.177397 169.070237 
L 81.435559 165.610542 
L 82.734307 161.365932 
L 84.083787 156.171295 
L 85.504293 149.791597 
L 87.026263 141.895829 
L 88.690284 132.03984 
L 90.587674 119.399904 
L 93.01268 101.623405 
L 98.349723 62.027956 
L 100.003597 51.691987 
L 101.332785 44.703929 
L 102.459043 39.901237 
L 103.422957 36.706731 
L 104.244821 34.700114 
L 104.944928 33.534629 
L 105.533423 32.951731 
L 106.0306 32.745271 
L 106.487191 32.78747 
L 106.953929 33.059818 
L 107.481545 33.645102 
L 108.090333 34.681748 
L 108.79044 36.34211 
L 109.602157 38.872122 
L 110.545779 42.585054 
L 111.641598 47.851326 
L 112.940346 55.252567 
L 114.533341 65.707906 
L 116.714832 81.646678 
L 122.417148 123.953363 
L 124.375416 136.464634 
L 126.09017 146.038709 
L 127.662872 153.603376 
L 129.13411 159.628229 
L 130.534323 164.459872 
L 131.883804 168.344823 
L 133.192698 171.458381 
L 134.4813 173.965508 
L 135.759755 175.976564 
L 137.03821 177.58195 
L 138.347104 178.872901 
L 139.706731 179.90357 
L 141.157676 180.724591 
L 142.760819 181.373441 
L 144.607476 181.874599 
L 146.849846 182.243062 
L 149.802468 182.489393 
L 152.501429 182.589545 
L 152.501429 182.589545 
" clip-path="url(#p1650865158)" style="fill: none; stroke: #1a1a1a; stroke-width: 2; stroke-linecap: round"/>
   </g>
   <g id="line2d_2">
    <path d="M 140.211906 182.662688 
L 140.211906 19.582687 
" clip-path="url(#p1650865158)" style="fill: none; stroke: #ff0000; stroke-width: 1.5; stroke-linecap: round"/>
   </g>
   <g id="patch_66">
    <path d="M 45.974156 182.662688 
L 45.974156 19.582687 
" style="fill: none; stroke: #262626; stroke-width: 1.25; stroke-linejoin: miter; stroke-linecap: square"/>
   </g>
   <g id="patch_67">
    <path d="M 157.574156 182.662688 
L 157.574156 19.582687 
" style="fill: none; stroke: #262626; stroke-width: 1.25; stroke-linejoin: miter; stroke-linecap: square"/>
   </g>
   <g id="patch_68">
    <path d="M 45.974156 182.662688 
L 157.574156 182.662688 
" style="fill: none; stroke: #262626; stroke-width: 1.25; stroke-linejoin: miter; stroke-linecap: square"/>
   </g>
   <g id="patch_69">
    <path d="M 45.974156 19.582687 
L 157.574156 19.582687 
" style="fill: none; stroke: #262626; stroke-width: 1.25; stroke-linejoin: miter; stroke-linecap: square"/>
   </g>
   <g id="text_16">
    <!-- Observed $\Delta$ = 0.060 -->
    <g style="fill: #262626" transform="translate(139.535732 102.335062)rotate(-90)scale(0.058296 -0.058296)">
     <defs>
      <path id="DejaVuSans-4f" d="M 2522 4238 
Q 1834 4238 1429 3725 
Q 1025 3213 1025 2328 
Q 1025 1447 1429 934 
Q 1834 422 2522 422 
Q 3209 422 3611 934 
Q 4013 1447 4013 2328 
Q 4013 3213 3611 3725 
Q 3209 4238 2522 4238 
z
M 2522 4750 
Q 3503 4750 4090 4092 
Q 4678 3434 4678 2328 
Q 4678 1225 4090 567 
Q 3503 -91 2522 -91 
Q 1538 -91 948 565 
Q 359 1222 359 2328 
Q 359 3434 948 4092 
Q 1538 4750 2522 4750 
z
" transform="scale(0.015625)"/>
      <path id="DejaVuSans-76" d="M 191 3500 
L 800 3500 
L 1894 563 
L 2988 3500 
L 3597 3500 
L 2284 0 
L 1503 0 
L 191 3500 
z
" transform="scale(0.015625)"/>
      <path id="DejaVuSans-3d" d="M 678 2906 
L 4684 2906 
L 4684 2381 
L 678 2381 
L 678 2906 
z
M 678 1631 
L 4684 1631 
L 4684 1100 
L 678 1100 
L 678 1631 
z
" transform="scale(0.015625)"/>
      <path id="DejaVuSans-36" d="M 2113 2584 
Q 1688 2584 1439 2293 
Q 1191 2003 1191 1497 
Q 1191 994 1439 701 
Q 1688 409 2113 409 
Q 2538 409 2786 701 
Q 3034 994 3034 1497 
Q 3034 2003 2786 2293 
Q 2538 2584 2113 2584 
z
M 3366 4563 
L 3366 3988 
Q 3128 4100 2886 4159 
Q 2644 4219 2406 4219 
Q 1781 4219 1451 3797 
Q 1122 3375 1075 2522 
Q 1259 2794 1537 2939 
Q 1816 3084 2150 3084 
Q 2853 3084 3261 2657 
Q 3669 2231 3669 1497 
Q 3669 778 3244 343 
Q 2819 -91 2113 -91 
Q 1303 -91 875 529 
Q 447 1150 447 2328 
Q 447 3434 972 4092 
Q 1497 4750 2381 4750 
Q 2619 4750 2861 4703 
Q 3103 4656 3366 4563 
z
" transform="scale(0.015625)"/>
     </defs>
     <use xlink:href="#DejaVuSans-4f" transform="translate(0 0.015625)"/>
     <use xlink:href="#DejaVuSans-62" transform="translate(78.710938 0.015625)"/>
     <use xlink:href="#DejaVuSans-73" transform="translate(142.1875 0.015625)"/>
     <use xlink:href="#DejaVuSans-65" transform="translate(194.287109 0.015625)"/>
     <use xlink:href="#DejaVuSans-72" transform="translate(255.810547 0.015625)"/>
     <use xlink:href="#DejaVuSans-76" transform="translate(296.923828 0.015625)"/>
     <use xlink:href="#DejaVuSans-65" transform="translate(356.103516 0.015625)"/>
     <use xlink:href="#DejaVuSans-64" transform="translate(417.626953 0.015625)"/>
     <use xlink:href="#DejaVuSans-20" transform="translate(481.103516 0.015625)"/>
     <use xlink:href="#DejaVuSans-394" transform="translate(512.890625 0.015625)"/>
     <use xlink:href="#DejaVuSans-20" transform="translate(581.298828 0.015625)"/>
     <use xlink:href="#DejaVuSans-3d" transform="translate(613.085938 0.015625)"/>
     <use xlink:href="#DejaVuSans-20" transform="translate(696.875 0.015625)"/>
     <use xlink:href="#DejaVuSans-30" transform="translate(728.662109 0.015625)"/>
     <use xlink:href="#DejaVuSans-2e" transform="translate(792.285156 0.015625)"/>
     <use xlink:href="#DejaVuSans-30" transform="translate(824.072266 0.015625)"/>
     <use xlink:href="#DejaVuSans-36" transform="translate(887.695312 0.015625)"/>
     <use xlink:href="#DejaVuSans-30" transform="translate(951.318359 0.015625)"/>
    </g>
   </g>
   <g id="text_17">
    <!-- Unstructured Shuffling -->
    <g style="fill: #262626" transform="translate(54.371906 13.582687)scale(0.084 -0.084)">
     <defs>
      <path id="DejaVuSans-55" d="M 556 4666 
L 1191 4666 
L 1191 1831 
Q 1191 1081 1462 751 
Q 1734 422 2344 422 
Q 2950 422 3222 751 
Q 3494 1081 3494 1831 
L 3494 4666 
L 4128 4666 
L 4128 1753 
Q 4128 841 3676 375 
Q 3225 -91 2344 -91 
Q 1459 -91 1007 375 
Q 556 841 556 1753 
L 556 4666 
z
" transform="scale(0.015625)"/>
      <path id="DejaVuSans-63" d="M 3122 3366 
L 3122 2828 
Q 2878 2963 2633 3030 
Q 2388 3097 2138 3097 
Q 1578 3097 1268 2742 
Q 959 2388 959 1747 
Q 959 1106 1268 751 
Q 1578 397 2138 397 
Q 2388 397 2633 464 
Q 2878 531 3122 666 
L 3122 134 
Q 2881 22 2623 -34 
Q 2366 -91 2075 -91 
Q 1284 -91 818 406 
Q 353 903 353 1747 
Q 353 2603 823 3093 
Q 1294 3584 2113 3584 
Q 2378 3584 2631 3529 
Q 2884 3475 3122 3366 
z
" transform="scale(0.015625)"/>
      <path id="DejaVuSans-53" d="M 3425 4513 
L 3425 3897 
Q 3066 4069 2747 4153 
Q 2428 4238 2131 4238 
Q 1616 4238 1336 4038 
Q 1056 3838 1056 3469 
Q 1056 3159 1242 3001 
Q 1428 2844 1947 2747 
L 2328 2669 
Q 3034 2534 3370 2195 
Q 3706 1856 3706 1288 
Q 3706 609 3251 259 
Q 2797 -91 1919 -91 
Q 1588 -91 1214 -16 
Q 841 59 441 206 
L 441 856 
Q 825 641 1194 531 
Q 1563 422 1919 422 
Q 2459 422 2753 634 
Q 3047 847 3047 1241 
Q 3047 1584 2836 1778 
Q 2625 1972 2144 2069 
L 1759 2144 
Q 1053 2284 737 2584 
Q 422 2884 422 3419 
Q 422 4038 858 4394 
Q 1294 4750 2059 4750 
Q 2388 4750 2728 4690 
Q 3069 4631 3425 4513 
z
" transform="scale(0.015625)"/>
      <path id="DejaVuSans-68" d="M 3513 2113 
L 3513 0 
L 2938 0 
L 2938 2094 
Q 2938 2591 2744 2837 
Q 2550 3084 2163 3084 
Q 1697 3084 1428 2787 
Q 1159 2491 1159 1978 
L 1159 0 
L 581 0 
L 581 4863 
L 1159 4863 
L 1159 2956 
Q 1366 3272 1645 3428 
Q 1925 3584 2291 3584 
Q 2894 3584 3203 3211 
Q 3513 2838 3513 2113 
z
" transform="scale(0.015625)"/>
      <path id="DejaVuSans-66" d="M 2375 4863 
L 2375 4384 
L 1825 4384 
Q 1516 4384 1395 4259 
Q 1275 4134 1275 3809 
L 1275 3500 
L 2222 3500 
L 2222 3053 
L 1275 3053 
L 1275 0 
L 697 0 
L 697 3053 
L 147 3053 
L 147 3500 
L 697 3500 
L 697 3744 
Q 697 4328 969 4595 
Q 1241 4863 1831 4863 
L 2375 4863 
z
" transform="scale(0.015625)"/>
      <path id="DejaVuSans-67" d="M 2906 1791 
Q 2906 2416 2648 2759 
Q 2391 3103 1925 3103 
Q 1463 3103 1205 2759 
Q 947 2416 947 1791 
Q 947 1169 1205 825 
Q 1463 481 1925 481 
Q 2391 481 2648 825 
Q 2906 1169 2906 1791 
z
M 3481 434 
Q 3481 -459 3084 -895 
Q 2688 -1331 1869 -1331 
Q 1566 -1331 1297 -1286 
Q 1028 -1241 775 -1147 
L 775 -588 
Q 1028 -725 1275 -790 
Q 1522 -856 1778 -856 
Q 2344 -856 2625 -561 
Q 2906 -266 2906 331 
L 2906 616 
Q 2728 306 2450 153 
Q 2172 0 1784 0 
Q 1141 0 747 490 
Q 353 981 353 1791 
Q 353 2603 747 3093 
Q 1141 3584 1784 3584 
Q 2172 3584 2450 3431 
Q 2728 3278 2906 2969 
L 2906 3500 
L 3481 3500 
L 3481 434 
z
" transform="scale(0.015625)"/>
     </defs>
     <use xlink:href="#DejaVuSans-55"/>
     <use xlink:href="#DejaVuSans-6e" x="73.193359"/>
     <use xlink:href="#DejaVuSans-73" x="136.572266"/>
     <use xlink:href="#DejaVuSans-74" x="188.671875"/>
     <use xlink:href="#DejaVuSans-72" x="227.880859"/>
     <use xlink:href="#DejaVuSans-75" x="268.994141"/>
     <use xlink:href="#DejaVuSans-63" x="332.373047"/>
     <use xlink:href="#DejaVuSans-74" x="387.353516"/>
     <use xlink:href="#DejaVuSans-75" x="426.5625"/>
     <use xlink:href="#DejaVuSans-72" x="489.941406"/>
     <use xlink:href="#DejaVuSans-65" x="528.804688"/>
     <use xlink:href="#DejaVuSans-64" x="590.328125"/>
     <use xlink:href="#DejaVuSans-20" x="653.804688"/>
     <use xlink:href="#DejaVuSans-53" x="685.591797"/>
     <use xlink:href="#DejaVuSans-68" x="749.068359"/>
     <use xlink:href="#DejaVuSans-75" x="812.447266"/>
     <use xlink:href="#DejaVuSans-66" x="875.826172"/>
     <use xlink:href="#DejaVuSans-66" x="911.03125"/>
     <use xlink:href="#DejaVuSans-6c" x="946.236328"/>
     <use xlink:href="#DejaVuSans-69" x="974.019531"/>
     <use xlink:href="#DejaVuSans-6e" x="1001.802734"/>
     <use xlink:href="#DejaVuSans-67" x="1065.181641"/>
    </g>
   </g>
  </g>
 </g>
 <defs>
  <clipPath id="p1650865158">
   <rect x="45.974156" y="19.582687" width="111.6" height="163.08"/>
  </clipPath>
 </defs>
</svg>
