<?xml version="1.0" encoding="utf-8" standalone="no"?>
<!DOCTYPE svg PUBLIC "-//W3C//DTD SVG 1.1//EN"
  "http://www.w3.org/Graphics/SVG/1.1/DTD/svg11.dtd">
<svg xmlns:xlink="http://www.w3.org/1999/xlink" width="862.091477pt" height="285.38025pt" viewBox="0 0 862.091477 285.38025" xmlns="http://www.w3.org/2000/svg" version="1.1">
 <metadata>
  <rdf:RDF xmlns:dc="http://purl.org/dc/elements/1.1/" xmlns:cc="http://creativecommons.org/ns#" xmlns:rdf="http://www.w3.org/1999/02/22-rdf-syntax-ns#">
   <cc:Work>
    <dc:type rdf:resource="http://purl.org/dc/dcmitype/StillImage"/>
    <dc:date>2024-03-15T06:14:34.616516</dc:date>
    <dc:format>image/svg+xml</dc:format>
    <dc:creator>
     <cc:Agent>
      <dc:title>Matplotlib v3.5.2, https://matplotlib.org/</dc:title>
     </cc:Agent>
    </dc:creator>
   </cc:Work>
  </rdf:RDF>
 </metadata>
 <defs>
  <style type="text/css">*{stroke-linejoin: round; stroke-linecap: butt}</style>
 </defs>
 <g id="figure_1">
  <g id="patch_1">
   <path d="M 0 285.38025 
L 862.091477 285.38025 
L 862.091477 -0 
L 0 -0 
L 0 285.38025 
z
" style="fill: none"/>
  </g>
  <g id="axes_1">
   <g id="line2d_1">
    <path d="M 17.891477 247.958156 
L 854.891477 247.958156 
" clip-path="url(#p8e34d0d1dc)" style="fill: none; stroke: #000000; stroke-width: 1.5; stroke-linecap: square"/>
   </g>
   <g id="line2d_2">
    <path d="M 574.147788 48.864011 
L 574.147788 247.958156 
" clip-path="url(#p8e34d0d1dc)" style="fill: none; stroke: #000000; stroke-width: 0.5; stroke-linecap: square"/>
   </g>
   <g id="line2d_3">
    <path d="M 230.86795 168.320498 
L 230.86795 247.958156 
" clip-path="url(#p8e34d0d1dc)" style="fill: none; stroke: #000000; stroke-width: 0.5; stroke-linecap: square"/>
   </g>
   <g id="line2d_4">
    <path d="M 57.416719 155.047555 
L 57.416719 247.958156 
" clip-path="url(#p8e34d0d1dc)" style="fill: none; stroke: #000000; stroke-width: 0.5; stroke-linecap: square"/>
   </g>
   <g id="line2d_5">
    <path d="M 355.365457 208.139327 
L 355.365457 247.958156 
" clip-path="url(#p8e34d0d1dc)" style="fill: none; stroke: #000000; stroke-width: 0.5; stroke-linecap: square"/>
   </g>
   <g id="line2d_6">
    <path d="M 305.324946 101.955783 
L 305.324946 247.958156 
" clip-path="url(#p8e34d0d1dc)" style="fill: none; stroke: #000000; stroke-width: 0.5; stroke-linecap: square"/>
   </g>
   <g id="line2d_7">
    <path d="M 692.752493 155.047555 
L 692.752493 247.958156 
" clip-path="url(#p8e34d0d1dc)" style="fill: none; stroke: #000000; stroke-width: 0.5; stroke-linecap: square"/>
   </g>
   <g id="line2d_8">
    <path d="M 497.324011 101.955783 
L 497.324011 221.41227 
" clip-path="url(#p8e34d0d1dc)" style="fill: none; stroke: #000000; stroke-width: 0.5; stroke-linecap: square"/>
   </g>
   <g id="line2d_9">
    <path d="M 732.021736 115.228726 
L 732.021736 247.958156 
" clip-path="url(#p8e34d0d1dc)" style="fill: none; stroke: #000000; stroke-width: 0.5; stroke-linecap: square"/>
   </g>
   <g id="line2d_10">
    <path d="M 156.072842 141.774612 
L 156.072842 247.958156 
" clip-path="url(#p8e34d0d1dc)" style="fill: none; stroke: #000000; stroke-width: 0.5; stroke-linecap: square"/>
   </g>
   <g id="line2d_11">
    <path d="M 405.744079 141.774612 
L 405.744079 247.958156 
" clip-path="url(#p8e34d0d1dc)" style="fill: none; stroke: #000000; stroke-width: 0.5; stroke-linecap: square"/>
   </g>
   <g id="line2d_12">
    <path d="M 118.325101 208.139327 
L 118.325101 247.958156 
" clip-path="url(#p8e34d0d1dc)" style="fill: none; stroke: #000000; stroke-width: 0.5; stroke-linecap: square"/>
   </g>
   <g id="line2d_13">
    <path d="M 462.039654 168.320498 
L 462.039654 247.958156 
" clip-path="url(#p8e34d0d1dc)" style="fill: none; stroke: #000000; stroke-width: 0.5; stroke-linecap: square"/>
   </g>
   <g id="line2d_14">
    <path d="M 436.367326 62.136954 
L 436.367326 247.958156 
" clip-path="url(#p8e34d0d1dc)" style="fill: none; stroke: #000000; stroke-width: 0.5; stroke-linecap: square"/>
   </g>
   <g id="line2d_15">
    <path d="M 654.376831 194.866384 
L 654.376831 247.958156 
" clip-path="url(#p8e34d0d1dc)" style="fill: none; stroke: #000000; stroke-width: 0.5; stroke-linecap: square"/>
   </g>
   <g id="line2d_16">
    <path d="M 643.484808 221.41227 
L 643.484808 247.958156 
" clip-path="url(#p8e34d0d1dc)" style="fill: none; stroke: #000000; stroke-width: 0.5; stroke-linecap: square"/>
   </g>
   <g id="patch_2">
    <path d="M 514.157136 240.958156 
Q 569.946172 240.958156 625.735207 240.958156 
L 625.735207 240.958156 
Q 629.936823 244.458156 634.138439 247.958156 
Q 629.936823 251.458156 625.735207 254.958156 
L 625.735207 254.958156 
Q 569.946172 254.958156 514.157136 254.958156 
L 514.157136 240.958156 
z
" clip-path="url(#p8e34d0d1dc)" style="fill: #4c72b0; stroke: #000000; stroke-linecap: round"/>
   </g>
   <g id="patch_3">
    <path d="M 753.829932 240.958156 
Q 799.839534 240.958156 845.849137 240.958156 
L 845.849137 240.958156 
Q 850.049101 244.458156 854.249065 247.958156 
Q 850.049101 251.458156 845.849137 254.958156 
L 845.849137 254.958156 
Q 799.839534 254.958156 753.829932 254.958156 
L 753.829932 240.958156 
z
" clip-path="url(#p8e34d0d1dc)" style="fill: #4c72b0; stroke: #000000; stroke-linecap: round"/>
   </g>
   <g id="patch_4">
    <path d="M 182.32479 240.958156 
Q 226.668125 240.958156 271.01146 240.958156 
L 271.01146 240.958156 
Q 275.211285 244.458156 279.41111 247.958156 
Q 275.211285 251.458156 271.01146 254.958156 
L 271.01146 254.958156 
Q 226.668125 254.958156 182.32479 254.958156 
L 182.32479 240.958156 
z
" clip-path="url(#p8e34d0d1dc)" style="fill: #4c72b0; stroke: #000000; stroke-linecap: round"/>
   </g>
   <g id="patch_5">
    <path d="M 96.92747 254.958156 
Q 57.394981 254.958156 17.862492 254.958156 
L 17.862492 254.958156 
Q 17.860079 251.458156 17.857666 247.958156 
Q 17.860079 244.458156 17.862492 240.958156 
L 17.862492 240.958156 
Q 57.394981 240.958156 96.92747 240.958156 
L 96.92747 254.958156 
z
" clip-path="url(#p8e34d0d1dc)" style="fill: #4c72b0; stroke: #000000; stroke-linecap: round"/>
   </g>
   <g id="patch_6">
    <path d="M 379.926847 254.958156 
Q 359.564459 254.958156 339.202071 254.958156 
L 339.202071 254.958156 
Q 335.003069 251.458156 330.804067 247.958156 
Q 335.003069 244.458156 339.202071 240.958156 
L 339.202071 240.958156 
Q 359.564459 240.958156 379.926847 240.958156 
L 379.926847 254.958156 
z
" clip-path="url(#p8e34d0d1dc)" style="fill: #4c72b0; stroke: #000000; stroke-linecap: round"/>
   </g>
   <g id="patch_7">
    <path d="M 329.596526 254.958156 
Q 309.52477 254.958156 289.453015 254.958156 
L 289.453015 254.958156 
Q 285.25319 251.458156 281.053366 247.958156 
Q 285.25319 244.458156 289.453015 240.958156 
L 289.453015 240.958156 
Q 309.52477 240.958156 329.596526 240.958156 
L 329.596526 254.958156 
z
" clip-path="url(#p8e34d0d1dc)" style="fill: #4c72b0; stroke: #000000; stroke-linecap: round"/>
   </g>
   <g id="patch_8">
    <path d="M 712.24221 254.958156 
Q 696.951632 254.958156 681.661055 254.958156 
L 681.661055 254.958156 
Q 677.461916 251.458156 673.262777 247.958156 
Q 677.461916 244.458156 681.661055 240.958156 
L 681.661055 240.958156 
Q 696.951632 240.958156 712.24221 240.958156 
L 712.24221 254.958156 
z
" clip-path="url(#p8e34d0d1dc)" style="fill: #4c72b0; stroke: #000000; stroke-linecap: round"/>
   </g>
   <g id="patch_9">
    <path d="M 480.297679 214.41227 
Q 493.123545 214.41227 505.949411 214.41227 
L 505.949411 214.41227 
Q 510.149877 217.91227 514.350343 221.41227 
Q 510.149877 224.91227 505.949411 228.41227 
L 505.949411 228.41227 
Q 493.123545 228.41227 480.297679 228.41227 
L 480.297679 214.41227 
z
" clip-path="url(#p8e34d0d1dc)" style="fill: #4c72b0; stroke: #000000; stroke-linecap: round"/>
   </g>
   <g id="patch_10">
    <path d="M 715.719928 240.958156 
Q 727.820916 240.958156 739.921904 240.958156 
L 739.921904 240.958156 
Q 744.122724 244.458156 748.323543 247.958156 
Q 744.122724 251.458156 739.921904 254.958156 
L 739.921904 254.958156 
Q 727.820916 254.958156 715.719928 254.958156 
L 715.719928 240.958156 
z
" clip-path="url(#p8e34d0d1dc)" style="fill: #4c72b0; stroke: #000000; stroke-linecap: round"/>
   </g>
   <g id="patch_11">
    <path d="M 140.640464 240.958156 
Q 151.873774 240.958156 163.107083 240.958156 
L 163.107083 240.958156 
Q 167.306151 244.458156 171.50522 247.958156 
Q 167.306151 251.458156 163.107083 254.958156 
L 163.107083 254.958156 
Q 151.873774 254.958156 140.640464 254.958156 
L 140.640464 240.958156 
z
" clip-path="url(#p8e34d0d1dc)" style="fill: #4c72b0; stroke: #000000; stroke-linecap: round"/>
   </g>
   <g id="patch_12">
    <path d="M 390.601512 240.958156 
Q 401.542534 240.958156 412.483557 240.958156 
L 412.483557 240.958156 
Q 416.685102 244.458156 420.886647 247.958156 
Q 416.685102 251.458156 412.483557 254.958156 
L 412.483557 254.958156 
Q 401.542534 254.958156 390.601512 254.958156 
L 390.601512 240.958156 
z
" clip-path="url(#p8e34d0d1dc)" style="fill: #4c72b0; stroke: #000000; stroke-linecap: round"/>
   </g>
   <g id="patch_13">
    <path d="M 133.250312 254.958156 
Q 122.524639 254.958156 111.798966 254.958156 
L 111.798966 254.958156 
Q 107.599428 251.458156 103.399891 247.958156 
Q 107.599428 244.458156 111.798966 240.958156 
L 111.798966 240.958156 
Q 122.524639 240.958156 133.250312 240.958156 
L 133.250312 254.958156 
z
" clip-path="url(#p8e34d0d1dc)" style="fill: #4c72b0; stroke: #000000; stroke-linecap: round"/>
   </g>
   <g id="patch_14">
    <path d="M 475.95053 254.958156 
Q 466.239068 254.958156 456.527606 254.958156 
L 456.527606 254.958156 
Q 452.328192 251.458156 448.128779 247.958156 
Q 452.328192 244.458156 456.527606 240.958156 
L 456.527606 240.958156 
Q 466.239068 240.958156 475.95053 240.958156 
L 475.95053 254.958156 
z
" clip-path="url(#p8e34d0d1dc)" style="fill: #4c72b0; stroke: #000000; stroke-linecap: round"/>
   </g>
   <g id="patch_15">
    <path d="M 425.716812 240.958156 
Q 432.166666 240.958156 438.616519 240.958156 
L 438.616519 240.958156 
Q 442.81718 244.458156 447.017841 247.958156 
Q 442.81718 251.458156 438.616519 254.958156 
L 438.616519 254.958156 
Q 432.166666 254.958156 425.716812 254.958156 
L 425.716812 240.958156 
z
" clip-path="url(#p8e34d0d1dc)" style="fill: #dd8452; stroke: #000000; stroke-linecap: round"/>
   </g>
   <g id="patch_16">
    <path d="M 659.303599 254.958156 
Q 656.842621 254.958156 654.381642 254.958156 
L 654.381642 254.958156 
Q 651.915852 251.458156 649.450062 247.958156 
Q 651.915852 244.458156 654.381642 240.958156 
L 654.381642 240.958156 
Q 656.842621 240.958156 659.303599 240.958156 
L 659.303599 254.958156 
z
" clip-path="url(#p8e34d0d1dc)" style="fill: #4c72b0; stroke: #000000; stroke-linecap: round"/>
   </g>
   <g id="patch_17">
    <path d="M 648.19422 254.958156 
Q 645.841814 254.958156 643.489408 254.958156 
L 643.489408 254.958156 
Q 641.132402 251.458156 638.775397 247.958156 
Q 641.132402 244.458156 643.489408 240.958156 
L 643.489408 240.958156 
Q 645.841814 240.958156 648.19422 240.958156 
L 648.19422 254.958156 
z
" clip-path="url(#p8e34d0d1dc)" style="fill: #4c72b0; stroke: #000000; stroke-linecap: round"/>
   </g>
   <g id="matplotlib.axis_1">
    <g id="xtick_1">
     <g id="line2d_17">
      <defs>
       <path id="m3b28476e9c" d="M 0 0 
L 0 3.5 
" style="stroke: #808080; stroke-width: 0.8"/>
      </defs>
      <g>
       <use xlink:href="#m3b28476e9c" x="84.151683" y="261.502125" style="fill: #808080; stroke: #808080; stroke-width: 0.8"/>
      </g>
     </g>
     <g id="text_1">
      <!-- 34,000 -->
      <g style="fill: #808080" transform="translate(66.65637 276.100562)scale(0.1 -0.1)">
       <defs>
        <path id="DejaVuSans-33" d="M 2597 2516 
Q 3050 2419 3304 2112 
Q 3559 1806 3559 1356 
Q 3559 666 3084 287 
Q 2609 -91 1734 -91 
Q 1441 -91 1130 -33 
Q 819 25 488 141 
L 488 750 
Q 750 597 1062 519 
Q 1375 441 1716 441 
Q 2309 441 2620 675 
Q 2931 909 2931 1356 
Q 2931 1769 2642 2001 
Q 2353 2234 1838 2234 
L 1294 2234 
L 1294 2753 
L 1863 2753 
Q 2328 2753 2575 2939 
Q 2822 3125 2822 3475 
Q 2822 3834 2567 4026 
Q 2313 4219 1838 4219 
Q 1578 4219 1281 4162 
Q 984 4106 628 3988 
L 628 4550 
Q 988 4650 1302 4700 
Q 1616 4750 1894 4750 
Q 2613 4750 3031 4423 
Q 3450 4097 3450 3541 
Q 3450 3153 3228 2886 
Q 3006 2619 2597 2516 
z
" transform="scale(0.015625)"/>
        <path id="DejaVuSans-34" d="M 2419 4116 
L 825 1625 
L 2419 1625 
L 2419 4116 
z
M 2253 4666 
L 3047 4666 
L 3047 1625 
L 3713 1625 
L 3713 1100 
L 3047 1100 
L 3047 0 
L 2419 0 
L 2419 1100 
L 313 1100 
L 313 1709 
L 2253 4666 
z
" transform="scale(0.015625)"/>
        <path id="DejaVuSans-2c" d="M 750 794 
L 1409 794 
L 1409 256 
L 897 -744 
L 494 -744 
L 750 256 
L 750 794 
z
" transform="scale(0.015625)"/>
        <path id="DejaVuSans-30" d="M 2034 4250 
Q 1547 4250 1301 3770 
Q 1056 3291 1056 2328 
Q 1056 1369 1301 889 
Q 1547 409 2034 409 
Q 2525 409 2770 889 
Q 3016 1369 3016 2328 
Q 3016 3291 2770 3770 
Q 2525 4250 2034 4250 
z
M 2034 4750 
Q 2819 4750 3233 4129 
Q 3647 3509 3647 2328 
Q 3647 1150 3233 529 
Q 2819 -91 2034 -91 
Q 1250 -91 836 529 
Q 422 1150 422 2328 
Q 422 3509 836 4129 
Q 1250 4750 2034 4750 
z
" transform="scale(0.015625)"/>
       </defs>
       <use xlink:href="#DejaVuSans-33"/>
       <use xlink:href="#DejaVuSans-34" x="63.623047"/>
       <use xlink:href="#DejaVuSans-2c" x="127.246094"/>
       <use xlink:href="#DejaVuSans-30" x="159.033203"/>
       <use xlink:href="#DejaVuSans-30" x="222.65625"/>
       <use xlink:href="#DejaVuSans-30" x="286.279297"/>
      </g>
     </g>
    </g>
    <g id="xtick_2">
     <g id="line2d_18">
      <g>
       <use xlink:href="#m3b28476e9c" x="180.754986" y="261.502125" style="fill: #808080; stroke: #808080; stroke-width: 0.8"/>
      </g>
     </g>
     <g id="text_2">
      <!-- 36,000 -->
      <g style="fill: #808080" transform="translate(163.259674 276.100562)scale(0.1 -0.1)">
       <defs>
        <path id="DejaVuSans-36" d="M 2113 2584 
Q 1688 2584 1439 2293 
Q 1191 2003 1191 1497 
Q 1191 994 1439 701 
Q 1688 409 2113 409 
Q 2538 409 2786 701 
Q 3034 994 3034 1497 
Q 3034 2003 2786 2293 
Q 2538 2584 2113 2584 
z
M 3366 4563 
L 3366 3988 
Q 3128 4100 2886 4159 
Q 2644 4219 2406 4219 
Q 1781 4219 1451 3797 
Q 1122 3375 1075 2522 
Q 1259 2794 1537 2939 
Q 1816 3084 2150 3084 
Q 2853 3084 3261 2657 
Q 3669 2231 3669 1497 
Q 3669 778 3244 343 
Q 2819 -91 2113 -91 
Q 1303 -91 875 529 
Q 447 1150 447 2328 
Q 447 3434 972 4092 
Q 1497 4750 2381 4750 
Q 2619 4750 2861 4703 
Q 3103 4656 3366 4563 
z
" transform="scale(0.015625)"/>
       </defs>
       <use xlink:href="#DejaVuSans-33"/>
       <use xlink:href="#DejaVuSans-36" x="63.623047"/>
       <use xlink:href="#DejaVuSans-2c" x="127.246094"/>
       <use xlink:href="#DejaVuSans-30" x="159.033203"/>
       <use xlink:href="#DejaVuSans-30" x="222.65625"/>
       <use xlink:href="#DejaVuSans-30" x="286.279297"/>
      </g>
     </g>
    </g>
    <g id="xtick_3">
     <g id="line2d_19">
      <g>
       <use xlink:href="#m3b28476e9c" x="277.358289" y="261.502125" style="fill: #808080; stroke: #808080; stroke-width: 0.8"/>
      </g>
     </g>
     <g id="text_3">
      <!-- 38,000 -->
      <g style="fill: #808080" transform="translate(259.862977 276.100562)scale(0.1 -0.1)">
       <defs>
        <path id="DejaVuSans-38" d="M 2034 2216 
Q 1584 2216 1326 1975 
Q 1069 1734 1069 1313 
Q 1069 891 1326 650 
Q 1584 409 2034 409 
Q 2484 409 2743 651 
Q 3003 894 3003 1313 
Q 3003 1734 2745 1975 
Q 2488 2216 2034 2216 
z
M 1403 2484 
Q 997 2584 770 2862 
Q 544 3141 544 3541 
Q 544 4100 942 4425 
Q 1341 4750 2034 4750 
Q 2731 4750 3128 4425 
Q 3525 4100 3525 3541 
Q 3525 3141 3298 2862 
Q 3072 2584 2669 2484 
Q 3125 2378 3379 2068 
Q 3634 1759 3634 1313 
Q 3634 634 3220 271 
Q 2806 -91 2034 -91 
Q 1263 -91 848 271 
Q 434 634 434 1313 
Q 434 1759 690 2068 
Q 947 2378 1403 2484 
z
M 1172 3481 
Q 1172 3119 1398 2916 
Q 1625 2713 2034 2713 
Q 2441 2713 2670 2916 
Q 2900 3119 2900 3481 
Q 2900 3844 2670 4047 
Q 2441 4250 2034 4250 
Q 1625 4250 1398 4047 
Q 1172 3844 1172 3481 
z
" transform="scale(0.015625)"/>
       </defs>
       <use xlink:href="#DejaVuSans-33"/>
       <use xlink:href="#DejaVuSans-38" x="63.623047"/>
       <use xlink:href="#DejaVuSans-2c" x="127.246094"/>
       <use xlink:href="#DejaVuSans-30" x="159.033203"/>
       <use xlink:href="#DejaVuSans-30" x="222.65625"/>
       <use xlink:href="#DejaVuSans-30" x="286.279297"/>
      </g>
     </g>
    </g>
    <g id="xtick_4">
     <g id="line2d_20">
      <g>
       <use xlink:href="#m3b28476e9c" x="373.961593" y="261.502125" style="fill: #808080; stroke: #808080; stroke-width: 0.8"/>
      </g>
     </g>
     <g id="text_4">
      <!-- 40,000 -->
      <g style="fill: #808080" transform="translate(356.46628 276.100562)scale(0.1 -0.1)">
       <use xlink:href="#DejaVuSans-34"/>
       <use xlink:href="#DejaVuSans-30" x="63.623047"/>
       <use xlink:href="#DejaVuSans-2c" x="127.246094"/>
       <use xlink:href="#DejaVuSans-30" x="159.033203"/>
       <use xlink:href="#DejaVuSans-30" x="222.65625"/>
       <use xlink:href="#DejaVuSans-30" x="286.279297"/>
      </g>
     </g>
    </g>
    <g id="xtick_5">
     <g id="line2d_21">
      <g>
       <use xlink:href="#m3b28476e9c" x="470.564896" y="261.502125" style="fill: #808080; stroke: #808080; stroke-width: 0.8"/>
      </g>
     </g>
     <g id="text_5">
      <!-- 42,000 -->
      <g style="fill: #808080" transform="translate(453.069583 276.100562)scale(0.1 -0.1)">
       <defs>
        <path id="DejaVuSans-32" d="M 1228 531 
L 3431 531 
L 3431 0 
L 469 0 
L 469 531 
Q 828 903 1448 1529 
Q 2069 2156 2228 2338 
Q 2531 2678 2651 2914 
Q 2772 3150 2772 3378 
Q 2772 3750 2511 3984 
Q 2250 4219 1831 4219 
Q 1534 4219 1204 4116 
Q 875 4013 500 3803 
L 500 4441 
Q 881 4594 1212 4672 
Q 1544 4750 1819 4750 
Q 2544 4750 2975 4387 
Q 3406 4025 3406 3419 
Q 3406 3131 3298 2873 
Q 3191 2616 2906 2266 
Q 2828 2175 2409 1742 
Q 1991 1309 1228 531 
z
" transform="scale(0.015625)"/>
       </defs>
       <use xlink:href="#DejaVuSans-34"/>
       <use xlink:href="#DejaVuSans-32" x="63.623047"/>
       <use xlink:href="#DejaVuSans-2c" x="127.246094"/>
       <use xlink:href="#DejaVuSans-30" x="159.033203"/>
       <use xlink:href="#DejaVuSans-30" x="222.65625"/>
       <use xlink:href="#DejaVuSans-30" x="286.279297"/>
      </g>
     </g>
    </g>
    <g id="xtick_6">
     <g id="line2d_22">
      <g>
       <use xlink:href="#m3b28476e9c" x="567.168199" y="261.502125" style="fill: #808080; stroke: #808080; stroke-width: 0.8"/>
      </g>
     </g>
     <g id="text_6">
      <!-- 44,000 -->
      <g style="fill: #808080" transform="translate(549.672886 276.100562)scale(0.1 -0.1)">
       <use xlink:href="#DejaVuSans-34"/>
       <use xlink:href="#DejaVuSans-34" x="63.623047"/>
       <use xlink:href="#DejaVuSans-2c" x="127.246094"/>
       <use xlink:href="#DejaVuSans-30" x="159.033203"/>
       <use xlink:href="#DejaVuSans-30" x="222.65625"/>
       <use xlink:href="#DejaVuSans-30" x="286.279297"/>
      </g>
     </g>
    </g>
    <g id="xtick_7">
     <g id="line2d_23">
      <g>
       <use xlink:href="#m3b28476e9c" x="663.771502" y="261.502125" style="fill: #808080; stroke: #808080; stroke-width: 0.8"/>
      </g>
     </g>
     <g id="text_7">
      <!-- 46,000 -->
      <g style="fill: #808080" transform="translate(646.27619 276.100562)scale(0.1 -0.1)">
       <use xlink:href="#DejaVuSans-34"/>
       <use xlink:href="#DejaVuSans-36" x="63.623047"/>
       <use xlink:href="#DejaVuSans-2c" x="127.246094"/>
       <use xlink:href="#DejaVuSans-30" x="159.033203"/>
       <use xlink:href="#DejaVuSans-30" x="222.65625"/>
       <use xlink:href="#DejaVuSans-30" x="286.279297"/>
      </g>
     </g>
    </g>
    <g id="xtick_8">
     <g id="line2d_24">
      <g>
       <use xlink:href="#m3b28476e9c" x="760.374805" y="261.502125" style="fill: #808080; stroke: #808080; stroke-width: 0.8"/>
      </g>
     </g>
     <g id="text_8">
      <!-- 48,000 -->
      <g style="fill: #808080" transform="translate(742.879493 276.100562)scale(0.1 -0.1)">
       <use xlink:href="#DejaVuSans-34"/>
       <use xlink:href="#DejaVuSans-38" x="63.623047"/>
       <use xlink:href="#DejaVuSans-2c" x="127.246094"/>
       <use xlink:href="#DejaVuSans-30" x="159.033203"/>
       <use xlink:href="#DejaVuSans-30" x="222.65625"/>
       <use xlink:href="#DejaVuSans-30" x="286.279297"/>
      </g>
     </g>
    </g>
   </g>
   <g id="text_9">
    <g id="patch_18">
     <path d="M 521.910678 63.645777 
L 626.384897 63.645777 
Q 629.684897 63.645777 629.684897 60.345777 
L 629.684897 37.382245 
Q 629.684897 34.082245 626.384897 34.082245 
L 521.910678 34.082245 
Q 518.610678 34.082245 518.610678 37.382245 
L 518.610678 60.345777 
Q 518.610678 63.645777 521.910678 63.645777 
z
" style="fill: #edf1f7; stroke: #808080; stroke-width: 0.3; stroke-linejoin: miter"/>
    </g>
    <!-- FtsX-like permease -->
    <g transform="translate(521.910678 45.740527)scale(0.11 -0.11)">
     <defs>
      <path id="DejaVuSans-46" d="M 628 4666 
L 3309 4666 
L 3309 4134 
L 1259 4134 
L 1259 2759 
L 3109 2759 
L 3109 2228 
L 1259 2228 
L 1259 0 
L 628 0 
L 628 4666 
z
" transform="scale(0.015625)"/>
      <path id="DejaVuSans-74" d="M 1172 4494 
L 1172 3500 
L 2356 3500 
L 2356 3053 
L 1172 3053 
L 1172 1153 
Q 1172 725 1289 603 
Q 1406 481 1766 481 
L 2356 481 
L 2356 0 
L 1766 0 
Q 1100 0 847 248 
Q 594 497 594 1153 
L 594 3053 
L 172 3053 
L 172 3500 
L 594 3500 
L 594 4494 
L 1172 4494 
z
" transform="scale(0.015625)"/>
      <path id="DejaVuSans-73" d="M 2834 3397 
L 2834 2853 
Q 2591 2978 2328 3040 
Q 2066 3103 1784 3103 
Q 1356 3103 1142 2972 
Q 928 2841 928 2578 
Q 928 2378 1081 2264 
Q 1234 2150 1697 2047 
L 1894 2003 
Q 2506 1872 2764 1633 
Q 3022 1394 3022 966 
Q 3022 478 2636 193 
Q 2250 -91 1575 -91 
Q 1294 -91 989 -36 
Q 684 19 347 128 
L 347 722 
Q 666 556 975 473 
Q 1284 391 1588 391 
Q 1994 391 2212 530 
Q 2431 669 2431 922 
Q 2431 1156 2273 1281 
Q 2116 1406 1581 1522 
L 1381 1569 
Q 847 1681 609 1914 
Q 372 2147 372 2553 
Q 372 3047 722 3315 
Q 1072 3584 1716 3584 
Q 2034 3584 2315 3537 
Q 2597 3491 2834 3397 
z
" transform="scale(0.015625)"/>
      <path id="DejaVuSans-58" d="M 403 4666 
L 1081 4666 
L 2241 2931 
L 3406 4666 
L 4084 4666 
L 2584 2425 
L 4184 0 
L 3506 0 
L 2194 1984 
L 872 0 
L 191 0 
L 1856 2491 
L 403 4666 
z
" transform="scale(0.015625)"/>
      <path id="DejaVuSans-2d" d="M 313 2009 
L 1997 2009 
L 1997 1497 
L 313 1497 
L 313 2009 
z
" transform="scale(0.015625)"/>
      <path id="DejaVuSans-6c" d="M 603 4863 
L 1178 4863 
L 1178 0 
L 603 0 
L 603 4863 
z
" transform="scale(0.015625)"/>
      <path id="DejaVuSans-69" d="M 603 3500 
L 1178 3500 
L 1178 0 
L 603 0 
L 603 3500 
z
M 603 4863 
L 1178 4863 
L 1178 4134 
L 603 4134 
L 603 4863 
z
" transform="scale(0.015625)"/>
      <path id="DejaVuSans-6b" d="M 581 4863 
L 1159 4863 
L 1159 1991 
L 2875 3500 
L 3609 3500 
L 1753 1863 
L 3688 0 
L 2938 0 
L 1159 1709 
L 1159 0 
L 581 0 
L 581 4863 
z
" transform="scale(0.015625)"/>
      <path id="DejaVuSans-65" d="M 3597 1894 
L 3597 1613 
L 953 1613 
Q 991 1019 1311 708 
Q 1631 397 2203 397 
Q 2534 397 2845 478 
Q 3156 559 3463 722 
L 3463 178 
Q 3153 47 2828 -22 
Q 2503 -91 2169 -91 
Q 1331 -91 842 396 
Q 353 884 353 1716 
Q 353 2575 817 3079 
Q 1281 3584 2069 3584 
Q 2775 3584 3186 3129 
Q 3597 2675 3597 1894 
z
M 3022 2063 
Q 3016 2534 2758 2815 
Q 2500 3097 2075 3097 
Q 1594 3097 1305 2825 
Q 1016 2553 972 2059 
L 3022 2063 
z
" transform="scale(0.015625)"/>
      <path id="DejaVuSans-20" transform="scale(0.015625)"/>
      <path id="DejaVuSans-70" d="M 1159 525 
L 1159 -1331 
L 581 -1331 
L 581 3500 
L 1159 3500 
L 1159 2969 
Q 1341 3281 1617 3432 
Q 1894 3584 2278 3584 
Q 2916 3584 3314 3078 
Q 3713 2572 3713 1747 
Q 3713 922 3314 415 
Q 2916 -91 2278 -91 
Q 1894 -91 1617 61 
Q 1341 213 1159 525 
z
M 3116 1747 
Q 3116 2381 2855 2742 
Q 2594 3103 2138 3103 
Q 1681 3103 1420 2742 
Q 1159 2381 1159 1747 
Q 1159 1113 1420 752 
Q 1681 391 2138 391 
Q 2594 391 2855 752 
Q 3116 1113 3116 1747 
z
" transform="scale(0.015625)"/>
      <path id="DejaVuSans-72" d="M 2631 2963 
Q 2534 3019 2420 3045 
Q 2306 3072 2169 3072 
Q 1681 3072 1420 2755 
Q 1159 2438 1159 1844 
L 1159 0 
L 581 0 
L 581 3500 
L 1159 3500 
L 1159 2956 
Q 1341 3275 1631 3429 
Q 1922 3584 2338 3584 
Q 2397 3584 2469 3576 
Q 2541 3569 2628 3553 
L 2631 2963 
z
" transform="scale(0.015625)"/>
      <path id="DejaVuSans-6d" d="M 3328 2828 
Q 3544 3216 3844 3400 
Q 4144 3584 4550 3584 
Q 5097 3584 5394 3201 
Q 5691 2819 5691 2113 
L 5691 0 
L 5113 0 
L 5113 2094 
Q 5113 2597 4934 2840 
Q 4756 3084 4391 3084 
Q 3944 3084 3684 2787 
Q 3425 2491 3425 1978 
L 3425 0 
L 2847 0 
L 2847 2094 
Q 2847 2600 2669 2842 
Q 2491 3084 2119 3084 
Q 1678 3084 1418 2786 
Q 1159 2488 1159 1978 
L 1159 0 
L 581 0 
L 581 3500 
L 1159 3500 
L 1159 2956 
Q 1356 3278 1631 3431 
Q 1906 3584 2284 3584 
Q 2666 3584 2933 3390 
Q 3200 3197 3328 2828 
z
" transform="scale(0.015625)"/>
      <path id="DejaVuSans-61" d="M 2194 1759 
Q 1497 1759 1228 1600 
Q 959 1441 959 1056 
Q 959 750 1161 570 
Q 1363 391 1709 391 
Q 2188 391 2477 730 
Q 2766 1069 2766 1631 
L 2766 1759 
L 2194 1759 
z
M 3341 1997 
L 3341 0 
L 2766 0 
L 2766 531 
Q 2569 213 2275 61 
Q 1981 -91 1556 -91 
Q 1019 -91 701 211 
Q 384 513 384 1019 
Q 384 1609 779 1909 
Q 1175 2209 1959 2209 
L 2766 2209 
L 2766 2266 
Q 2766 2663 2505 2880 
Q 2244 3097 1772 3097 
Q 1472 3097 1187 3025 
Q 903 2953 641 2809 
L 641 3341 
Q 956 3463 1253 3523 
Q 1550 3584 1831 3584 
Q 2591 3584 2966 3190 
Q 3341 2797 3341 1997 
z
" transform="scale(0.015625)"/>
     </defs>
     <use xlink:href="#DejaVuSans-46"/>
     <use xlink:href="#DejaVuSans-74" x="57.519531"/>
     <use xlink:href="#DejaVuSans-73" x="96.728516"/>
     <use xlink:href="#DejaVuSans-58" x="148.828125"/>
     <use xlink:href="#DejaVuSans-2d" x="212.333984"/>
     <use xlink:href="#DejaVuSans-6c" x="248.417969"/>
     <use xlink:href="#DejaVuSans-69" x="276.201172"/>
     <use xlink:href="#DejaVuSans-6b" x="303.984375"/>
     <use xlink:href="#DejaVuSans-65" x="358.269531"/>
     <use xlink:href="#DejaVuSans-20" x="419.792969"/>
     <use xlink:href="#DejaVuSans-70" x="451.580078"/>
     <use xlink:href="#DejaVuSans-65" x="515.056641"/>
     <use xlink:href="#DejaVuSans-72" x="576.580078"/>
     <use xlink:href="#DejaVuSans-6d" x="615.943359"/>
     <use xlink:href="#DejaVuSans-65" x="713.355469"/>
     <use xlink:href="#DejaVuSans-61" x="774.878906"/>
     <use xlink:href="#DejaVuSans-73" x="836.158203"/>
     <use xlink:href="#DejaVuSans-65" x="888.257812"/>
    </g>
    <!-- family protein -->
    <g transform="translate(535.876381 58.05812)scale(0.11 -0.11)">
     <defs>
      <path id="DejaVuSans-66" d="M 2375 4863 
L 2375 4384 
L 1825 4384 
Q 1516 4384 1395 4259 
Q 1275 4134 1275 3809 
L 1275 3500 
L 2222 3500 
L 2222 3053 
L 1275 3053 
L 1275 0 
L 697 0 
L 697 3053 
L 147 3053 
L 147 3500 
L 697 3500 
L 697 3744 
Q 697 4328 969 4595 
Q 1241 4863 1831 4863 
L 2375 4863 
z
" transform="scale(0.015625)"/>
      <path id="DejaVuSans-79" d="M 2059 -325 
Q 1816 -950 1584 -1140 
Q 1353 -1331 966 -1331 
L 506 -1331 
L 506 -850 
L 844 -850 
Q 1081 -850 1212 -737 
Q 1344 -625 1503 -206 
L 1606 56 
L 191 3500 
L 800 3500 
L 1894 763 
L 2988 3500 
L 3597 3500 
L 2059 -325 
z
" transform="scale(0.015625)"/>
      <path id="DejaVuSans-6f" d="M 1959 3097 
Q 1497 3097 1228 2736 
Q 959 2375 959 1747 
Q 959 1119 1226 758 
Q 1494 397 1959 397 
Q 2419 397 2687 759 
Q 2956 1122 2956 1747 
Q 2956 2369 2687 2733 
Q 2419 3097 1959 3097 
z
M 1959 3584 
Q 2709 3584 3137 3096 
Q 3566 2609 3566 1747 
Q 3566 888 3137 398 
Q 2709 -91 1959 -91 
Q 1206 -91 779 398 
Q 353 888 353 1747 
Q 353 2609 779 3096 
Q 1206 3584 1959 3584 
z
" transform="scale(0.015625)"/>
      <path id="DejaVuSans-6e" d="M 3513 2113 
L 3513 0 
L 2938 0 
L 2938 2094 
Q 2938 2591 2744 2837 
Q 2550 3084 2163 3084 
Q 1697 3084 1428 2787 
Q 1159 2491 1159 1978 
L 1159 0 
L 581 0 
L 581 3500 
L 1159 3500 
L 1159 2956 
Q 1366 3272 1645 3428 
Q 1925 3584 2291 3584 
Q 2894 3584 3203 3211 
Q 3513 2838 3513 2113 
z
" transform="scale(0.015625)"/>
     </defs>
     <use xlink:href="#DejaVuSans-66"/>
     <use xlink:href="#DejaVuSans-61" x="35.205078"/>
     <use xlink:href="#DejaVuSans-6d" x="96.484375"/>
     <use xlink:href="#DejaVuSans-69" x="193.896484"/>
     <use xlink:href="#DejaVuSans-6c" x="221.679688"/>
     <use xlink:href="#DejaVuSans-79" x="249.462891"/>
     <use xlink:href="#DejaVuSans-20" x="308.642578"/>
     <use xlink:href="#DejaVuSans-70" x="340.429688"/>
     <use xlink:href="#DejaVuSans-72" x="403.90625"/>
     <use xlink:href="#DejaVuSans-6f" x="442.769531"/>
     <use xlink:href="#DejaVuSans-74" x="503.951172"/>
     <use xlink:href="#DejaVuSans-65" x="543.160156"/>
     <use xlink:href="#DejaVuSans-69" x="604.683594"/>
     <use xlink:href="#DejaVuSans-6e" x="632.466797"/>
    </g>
   </g>
   <g id="text_10">
    <!-- ppk1 -->
    <g style="fill: #ffffff" transform="translate(790.371998 250.993469)scale(0.11 -0.11)">
     <defs>
      <path id="DejaVuSans-31" d="M 794 531 
L 1825 531 
L 1825 4091 
L 703 3866 
L 703 4441 
L 1819 4666 
L 2450 4666 
L 2450 531 
L 3481 531 
L 3481 0 
L 794 0 
L 794 531 
z
" transform="scale(0.015625)"/>
     </defs>
     <use xlink:href="#DejaVuSans-70"/>
     <use xlink:href="#DejaVuSans-70" x="63.476562"/>
     <use xlink:href="#DejaVuSans-6b" x="126.953125"/>
     <use xlink:href="#DejaVuSans-31" x="184.863281"/>
    </g>
   </g>
   <g id="text_11">
    <g id="patch_19">
     <path d="M 151.286387 176.943467 
L 310.449512 176.943467 
Q 313.749512 176.943467 313.749512 173.643467 
L 313.749512 162.997529 
Q 313.749512 159.697529 310.449512 159.697529 
L 151.286387 159.697529 
Q 147.986387 159.697529 147.986387 162.997529 
L 147.986387 173.643467 
Q 147.986387 176.943467 151.286387 176.943467 
z
" style="fill: #edf1f7; stroke: #808080; stroke-width: 0.3; stroke-linejoin: miter"/>
    </g>
    <!-- ligand-gated channel protein -->
    <g transform="translate(151.286387 171.355811)scale(0.11 -0.11)">
     <defs>
      <path id="DejaVuSans-67" d="M 2906 1791 
Q 2906 2416 2648 2759 
Q 2391 3103 1925 3103 
Q 1463 3103 1205 2759 
Q 947 2416 947 1791 
Q 947 1169 1205 825 
Q 1463 481 1925 481 
Q 2391 481 2648 825 
Q 2906 1169 2906 1791 
z
M 3481 434 
Q 3481 -459 3084 -895 
Q 2688 -1331 1869 -1331 
Q 1566 -1331 1297 -1286 
Q 1028 -1241 775 -1147 
L 775 -588 
Q 1028 -725 1275 -790 
Q 1522 -856 1778 -856 
Q 2344 -856 2625 -561 
Q 2906 -266 2906 331 
L 2906 616 
Q 2728 306 2450 153 
Q 2172 0 1784 0 
Q 1141 0 747 490 
Q 353 981 353 1791 
Q 353 2603 747 3093 
Q 1141 3584 1784 3584 
Q 2172 3584 2450 3431 
Q 2728 3278 2906 2969 
L 2906 3500 
L 3481 3500 
L 3481 434 
z
" transform="scale(0.015625)"/>
      <path id="DejaVuSans-64" d="M 2906 2969 
L 2906 4863 
L 3481 4863 
L 3481 0 
L 2906 0 
L 2906 525 
Q 2725 213 2448 61 
Q 2172 -91 1784 -91 
Q 1150 -91 751 415 
Q 353 922 353 1747 
Q 353 2572 751 3078 
Q 1150 3584 1784 3584 
Q 2172 3584 2448 3432 
Q 2725 3281 2906 2969 
z
M 947 1747 
Q 947 1113 1208 752 
Q 1469 391 1925 391 
Q 2381 391 2643 752 
Q 2906 1113 2906 1747 
Q 2906 2381 2643 2742 
Q 2381 3103 1925 3103 
Q 1469 3103 1208 2742 
Q 947 2381 947 1747 
z
" transform="scale(0.015625)"/>
      <path id="DejaVuSans-63" d="M 3122 3366 
L 3122 2828 
Q 2878 2963 2633 3030 
Q 2388 3097 2138 3097 
Q 1578 3097 1268 2742 
Q 959 2388 959 1747 
Q 959 1106 1268 751 
Q 1578 397 2138 397 
Q 2388 397 2633 464 
Q 2878 531 3122 666 
L 3122 134 
Q 2881 22 2623 -34 
Q 2366 -91 2075 -91 
Q 1284 -91 818 406 
Q 353 903 353 1747 
Q 353 2603 823 3093 
Q 1294 3584 2113 3584 
Q 2378 3584 2631 3529 
Q 2884 3475 3122 3366 
z
" transform="scale(0.015625)"/>
      <path id="DejaVuSans-68" d="M 3513 2113 
L 3513 0 
L 2938 0 
L 2938 2094 
Q 2938 2591 2744 2837 
Q 2550 3084 2163 3084 
Q 1697 3084 1428 2787 
Q 1159 2491 1159 1978 
L 1159 0 
L 581 0 
L 581 4863 
L 1159 4863 
L 1159 2956 
Q 1366 3272 1645 3428 
Q 1925 3584 2291 3584 
Q 2894 3584 3203 3211 
Q 3513 2838 3513 2113 
z
" transform="scale(0.015625)"/>
     </defs>
     <use xlink:href="#DejaVuSans-6c"/>
     <use xlink:href="#DejaVuSans-69" x="27.783203"/>
     <use xlink:href="#DejaVuSans-67" x="55.566406"/>
     <use xlink:href="#DejaVuSans-61" x="119.042969"/>
     <use xlink:href="#DejaVuSans-6e" x="180.322266"/>
     <use xlink:href="#DejaVuSans-64" x="243.701172"/>
     <use xlink:href="#DejaVuSans-2d" x="307.177734"/>
     <use xlink:href="#DejaVuSans-67" x="343.261719"/>
     <use xlink:href="#DejaVuSans-61" x="406.738281"/>
     <use xlink:href="#DejaVuSans-74" x="468.017578"/>
     <use xlink:href="#DejaVuSans-65" x="507.226562"/>
     <use xlink:href="#DejaVuSans-64" x="568.75"/>
     <use xlink:href="#DejaVuSans-20" x="632.226562"/>
     <use xlink:href="#DejaVuSans-63" x="664.013672"/>
     <use xlink:href="#DejaVuSans-68" x="718.994141"/>
     <use xlink:href="#DejaVuSans-61" x="782.373047"/>
     <use xlink:href="#DejaVuSans-6e" x="843.652344"/>
     <use xlink:href="#DejaVuSans-6e" x="907.03125"/>
     <use xlink:href="#DejaVuSans-65" x="970.410156"/>
     <use xlink:href="#DejaVuSans-6c" x="1031.933594"/>
     <use xlink:href="#DejaVuSans-20" x="1059.716797"/>
     <use xlink:href="#DejaVuSans-70" x="1091.503906"/>
     <use xlink:href="#DejaVuSans-72" x="1154.980469"/>
     <use xlink:href="#DejaVuSans-6f" x="1193.84375"/>
     <use xlink:href="#DejaVuSans-74" x="1255.025391"/>
     <use xlink:href="#DejaVuSans-65" x="1294.234375"/>
     <use xlink:href="#DejaVuSans-69" x="1355.757812"/>
     <use xlink:href="#DejaVuSans-6e" x="1383.541016"/>
    </g>
   </g>
   <g id="text_12">
    <g id="patch_20">
     <path d="M 7.2 169.829321 
L 107.633437 169.829321 
Q 110.933437 169.829321 110.933437 166.529321 
L 110.933437 143.565789 
Q 110.933437 140.265789 107.633437 140.265789 
L 7.2 140.265789 
Q 3.9 140.265789 3.9 143.565789 
L 3.9 166.529321 
Q 3.9 169.829321 7.2 169.829321 
z
" style="fill: #edf1f7; stroke: #808080; stroke-width: 0.3; stroke-linejoin: miter"/>
    </g>
    <!-- Sulfatase domain- -->
    <g transform="translate(7.498203 151.924071)scale(0.11 -0.11)">
     <defs>
      <path id="DejaVuSans-53" d="M 3425 4513 
L 3425 3897 
Q 3066 4069 2747 4153 
Q 2428 4238 2131 4238 
Q 1616 4238 1336 4038 
Q 1056 3838 1056 3469 
Q 1056 3159 1242 3001 
Q 1428 2844 1947 2747 
L 2328 2669 
Q 3034 2534 3370 2195 
Q 3706 1856 3706 1288 
Q 3706 609 3251 259 
Q 2797 -91 1919 -91 
Q 1588 -91 1214 -16 
Q 841 59 441 206 
L 441 856 
Q 825 641 1194 531 
Q 1563 422 1919 422 
Q 2459 422 2753 634 
Q 3047 847 3047 1241 
Q 3047 1584 2836 1778 
Q 2625 1972 2144 2069 
L 1759 2144 
Q 1053 2284 737 2584 
Q 422 2884 422 3419 
Q 422 4038 858 4394 
Q 1294 4750 2059 4750 
Q 2388 4750 2728 4690 
Q 3069 4631 3425 4513 
z
" transform="scale(0.015625)"/>
      <path id="DejaVuSans-75" d="M 544 1381 
L 544 3500 
L 1119 3500 
L 1119 1403 
Q 1119 906 1312 657 
Q 1506 409 1894 409 
Q 2359 409 2629 706 
Q 2900 1003 2900 1516 
L 2900 3500 
L 3475 3500 
L 3475 0 
L 2900 0 
L 2900 538 
Q 2691 219 2414 64 
Q 2138 -91 1772 -91 
Q 1169 -91 856 284 
Q 544 659 544 1381 
z
M 1991 3584 
L 1991 3584 
z
" transform="scale(0.015625)"/>
     </defs>
     <use xlink:href="#DejaVuSans-53"/>
     <use xlink:href="#DejaVuSans-75" x="63.476562"/>
     <use xlink:href="#DejaVuSans-6c" x="126.855469"/>
     <use xlink:href="#DejaVuSans-66" x="154.638672"/>
     <use xlink:href="#DejaVuSans-61" x="189.84375"/>
     <use xlink:href="#DejaVuSans-74" x="251.123047"/>
     <use xlink:href="#DejaVuSans-61" x="290.332031"/>
     <use xlink:href="#DejaVuSans-73" x="351.611328"/>
     <use xlink:href="#DejaVuSans-65" x="403.710938"/>
     <use xlink:href="#DejaVuSans-20" x="465.234375"/>
     <use xlink:href="#DejaVuSans-64" x="497.021484"/>
     <use xlink:href="#DejaVuSans-6f" x="560.498047"/>
     <use xlink:href="#DejaVuSans-6d" x="621.679688"/>
     <use xlink:href="#DejaVuSans-61" x="719.091797"/>
     <use xlink:href="#DejaVuSans-69" x="780.371094"/>
     <use xlink:href="#DejaVuSans-6e" x="808.154297"/>
     <use xlink:href="#DejaVuSans-2d" x="871.533203"/>
    </g>
    <!-- containing protein -->
    <g transform="translate(7.2 164.241664)scale(0.11 -0.11)">
     <use xlink:href="#DejaVuSans-63"/>
     <use xlink:href="#DejaVuSans-6f" x="54.980469"/>
     <use xlink:href="#DejaVuSans-6e" x="116.162109"/>
     <use xlink:href="#DejaVuSans-74" x="179.541016"/>
     <use xlink:href="#DejaVuSans-61" x="218.75"/>
     <use xlink:href="#DejaVuSans-69" x="280.029297"/>
     <use xlink:href="#DejaVuSans-6e" x="307.8125"/>
     <use xlink:href="#DejaVuSans-69" x="371.191406"/>
     <use xlink:href="#DejaVuSans-6e" x="398.974609"/>
     <use xlink:href="#DejaVuSans-67" x="462.353516"/>
     <use xlink:href="#DejaVuSans-20" x="525.830078"/>
     <use xlink:href="#DejaVuSans-70" x="557.617188"/>
     <use xlink:href="#DejaVuSans-72" x="621.09375"/>
     <use xlink:href="#DejaVuSans-6f" x="659.957031"/>
     <use xlink:href="#DejaVuSans-74" x="721.138672"/>
     <use xlink:href="#DejaVuSans-65" x="760.347656"/>
     <use xlink:href="#DejaVuSans-69" x="821.871094"/>
     <use xlink:href="#DejaVuSans-6e" x="849.654297"/>
    </g>
   </g>
   <g id="text_13">
    <g id="patch_21">
     <path d="M 289.384363 222.921093 
L 421.34655 222.921093 
Q 424.64655 222.921093 424.64655 219.621093 
L 424.64655 196.657561 
Q 424.64655 193.357561 421.34655 193.357561 
L 289.384363 193.357561 
Q 286.084363 193.357561 286.084363 196.657561 
L 286.084363 219.621093 
Q 286.084363 222.921093 289.384363 222.921093 
z
" style="fill: #edf1f7; stroke: #808080; stroke-width: 0.3; stroke-linejoin: miter"/>
    </g>
    <!-- AB hydrolase-1 domain- -->
    <g transform="translate(289.384363 205.015843)scale(0.11 -0.11)">
     <defs>
      <path id="DejaVuSans-41" d="M 2188 4044 
L 1331 1722 
L 3047 1722 
L 2188 4044 
z
M 1831 4666 
L 2547 4666 
L 4325 0 
L 3669 0 
L 3244 1197 
L 1141 1197 
L 716 0 
L 50 0 
L 1831 4666 
z
" transform="scale(0.015625)"/>
      <path id="DejaVuSans-42" d="M 1259 2228 
L 1259 519 
L 2272 519 
Q 2781 519 3026 730 
Q 3272 941 3272 1375 
Q 3272 1813 3026 2020 
Q 2781 2228 2272 2228 
L 1259 2228 
z
M 1259 4147 
L 1259 2741 
L 2194 2741 
Q 2656 2741 2882 2914 
Q 3109 3088 3109 3444 
Q 3109 3797 2882 3972 
Q 2656 4147 2194 4147 
L 1259 4147 
z
M 628 4666 
L 2241 4666 
Q 2963 4666 3353 4366 
Q 3744 4066 3744 3513 
Q 3744 3084 3544 2831 
Q 3344 2578 2956 2516 
Q 3422 2416 3680 2098 
Q 3938 1781 3938 1306 
Q 3938 681 3513 340 
Q 3088 0 2303 0 
L 628 0 
L 628 4666 
z
" transform="scale(0.015625)"/>
     </defs>
     <use xlink:href="#DejaVuSans-41"/>
     <use xlink:href="#DejaVuSans-42" x="68.408203"/>
     <use xlink:href="#DejaVuSans-20" x="137.011719"/>
     <use xlink:href="#DejaVuSans-68" x="168.798828"/>
     <use xlink:href="#DejaVuSans-79" x="232.177734"/>
     <use xlink:href="#DejaVuSans-64" x="291.357422"/>
     <use xlink:href="#DejaVuSans-72" x="354.833984"/>
     <use xlink:href="#DejaVuSans-6f" x="393.697266"/>
     <use xlink:href="#DejaVuSans-6c" x="454.878906"/>
     <use xlink:href="#DejaVuSans-61" x="482.662109"/>
     <use xlink:href="#DejaVuSans-73" x="543.941406"/>
     <use xlink:href="#DejaVuSans-65" x="596.041016"/>
     <use xlink:href="#DejaVuSans-2d" x="657.564453"/>
     <use xlink:href="#DejaVuSans-31" x="693.648438"/>
     <use xlink:href="#DejaVuSans-20" x="757.271484"/>
     <use xlink:href="#DejaVuSans-64" x="789.058594"/>
     <use xlink:href="#DejaVuSans-6f" x="852.535156"/>
     <use xlink:href="#DejaVuSans-6d" x="913.716797"/>
     <use xlink:href="#DejaVuSans-61" x="1011.128906"/>
     <use xlink:href="#DejaVuSans-69" x="1072.408203"/>
     <use xlink:href="#DejaVuSans-6e" x="1100.191406"/>
     <use xlink:href="#DejaVuSans-2d" x="1163.570312"/>
    </g>
    <!-- containing protein -->
    <g transform="translate(305.148738 217.333436)scale(0.11 -0.11)">
     <use xlink:href="#DejaVuSans-63"/>
     <use xlink:href="#DejaVuSans-6f" x="54.980469"/>
     <use xlink:href="#DejaVuSans-6e" x="116.162109"/>
     <use xlink:href="#DejaVuSans-74" x="179.541016"/>
     <use xlink:href="#DejaVuSans-61" x="218.75"/>
     <use xlink:href="#DejaVuSans-69" x="280.029297"/>
     <use xlink:href="#DejaVuSans-6e" x="307.8125"/>
     <use xlink:href="#DejaVuSans-69" x="371.191406"/>
     <use xlink:href="#DejaVuSans-6e" x="398.974609"/>
     <use xlink:href="#DejaVuSans-67" x="462.353516"/>
     <use xlink:href="#DejaVuSans-20" x="525.830078"/>
     <use xlink:href="#DejaVuSans-70" x="557.617188"/>
     <use xlink:href="#DejaVuSans-72" x="621.09375"/>
     <use xlink:href="#DejaVuSans-6f" x="659.957031"/>
     <use xlink:href="#DejaVuSans-74" x="721.138672"/>
     <use xlink:href="#DejaVuSans-65" x="760.347656"/>
     <use xlink:href="#DejaVuSans-69" x="821.871094"/>
     <use xlink:href="#DejaVuSans-6e" x="849.654297"/>
    </g>
   </g>
   <g id="text_14">
    <g id="patch_22">
     <path d="M 255.108227 116.737549 
L 355.541664 116.737549 
Q 358.841664 116.737549 358.841664 113.437549 
L 358.841664 90.474017 
Q 358.841664 87.174017 355.541664 87.174017 
L 255.108227 87.174017 
Q 251.808227 87.174017 251.808227 90.474017 
L 251.808227 113.437549 
Q 251.808227 116.737549 255.108227 116.737549 
z
" style="fill: #edf1f7; stroke: #808080; stroke-width: 0.3; stroke-linejoin: miter"/>
    </g>
    <!-- HTH-40 domain- -->
    <g transform="translate(260.379633 98.832299)scale(0.11 -0.11)">
     <defs>
      <path id="DejaVuSans-48" d="M 628 4666 
L 1259 4666 
L 1259 2753 
L 3553 2753 
L 3553 4666 
L 4184 4666 
L 4184 0 
L 3553 0 
L 3553 2222 
L 1259 2222 
L 1259 0 
L 628 0 
L 628 4666 
z
" transform="scale(0.015625)"/>
      <path id="DejaVuSans-54" d="M -19 4666 
L 3928 4666 
L 3928 4134 
L 2272 4134 
L 2272 0 
L 1638 0 
L 1638 4134 
L -19 4134 
L -19 4666 
z
" transform="scale(0.015625)"/>
     </defs>
     <use xlink:href="#DejaVuSans-48"/>
     <use xlink:href="#DejaVuSans-54" x="75.195312"/>
     <use xlink:href="#DejaVuSans-48" x="136.279297"/>
     <use xlink:href="#DejaVuSans-2d" x="211.474609"/>
     <use xlink:href="#DejaVuSans-34" x="247.558594"/>
     <use xlink:href="#DejaVuSans-30" x="311.181641"/>
     <use xlink:href="#DejaVuSans-20" x="374.804688"/>
     <use xlink:href="#DejaVuSans-64" x="406.591797"/>
     <use xlink:href="#DejaVuSans-6f" x="470.068359"/>
     <use xlink:href="#DejaVuSans-6d" x="531.25"/>
     <use xlink:href="#DejaVuSans-61" x="628.662109"/>
     <use xlink:href="#DejaVuSans-69" x="689.941406"/>
     <use xlink:href="#DejaVuSans-6e" x="717.724609"/>
     <use xlink:href="#DejaVuSans-2d" x="781.103516"/>
    </g>
    <!-- containing protein -->
    <g transform="translate(255.108227 111.149892)scale(0.11 -0.11)">
     <use xlink:href="#DejaVuSans-63"/>
     <use xlink:href="#DejaVuSans-6f" x="54.980469"/>
     <use xlink:href="#DejaVuSans-6e" x="116.162109"/>
     <use xlink:href="#DejaVuSans-74" x="179.541016"/>
     <use xlink:href="#DejaVuSans-61" x="218.75"/>
     <use xlink:href="#DejaVuSans-69" x="280.029297"/>
     <use xlink:href="#DejaVuSans-6e" x="307.8125"/>
     <use xlink:href="#DejaVuSans-69" x="371.191406"/>
     <use xlink:href="#DejaVuSans-6e" x="398.974609"/>
     <use xlink:href="#DejaVuSans-67" x="462.353516"/>
     <use xlink:href="#DejaVuSans-20" x="525.830078"/>
     <use xlink:href="#DejaVuSans-70" x="557.617188"/>
     <use xlink:href="#DejaVuSans-72" x="621.09375"/>
     <use xlink:href="#DejaVuSans-6f" x="659.957031"/>
     <use xlink:href="#DejaVuSans-74" x="721.138672"/>
     <use xlink:href="#DejaVuSans-65" x="760.347656"/>
     <use xlink:href="#DejaVuSans-69" x="821.871094"/>
     <use xlink:href="#DejaVuSans-6e" x="849.654297"/>
    </g>
   </g>
   <g id="text_15">
    <g id="patch_23">
     <path d="M 640.515384 169.829321 
L 744.989603 169.829321 
Q 748.289603 169.829321 748.289603 166.529321 
L 748.289603 143.565789 
Q 748.289603 140.265789 744.989603 140.265789 
L 640.515384 140.265789 
Q 637.215384 140.265789 637.215384 143.565789 
L 637.215384 166.529321 
Q 637.215384 169.829321 640.515384 169.829321 
z
" style="fill: #edf1f7; stroke: #808080; stroke-width: 0.3; stroke-linejoin: miter"/>
    </g>
    <!-- Rhomboid domain- -->
    <g transform="translate(640.515384 151.924071)scale(0.11 -0.11)">
     <defs>
      <path id="DejaVuSans-52" d="M 2841 2188 
Q 3044 2119 3236 1894 
Q 3428 1669 3622 1275 
L 4263 0 
L 3584 0 
L 2988 1197 
Q 2756 1666 2539 1819 
Q 2322 1972 1947 1972 
L 1259 1972 
L 1259 0 
L 628 0 
L 628 4666 
L 2053 4666 
Q 2853 4666 3247 4331 
Q 3641 3997 3641 3322 
Q 3641 2881 3436 2590 
Q 3231 2300 2841 2188 
z
M 1259 4147 
L 1259 2491 
L 2053 2491 
Q 2509 2491 2742 2702 
Q 2975 2913 2975 3322 
Q 2975 3731 2742 3939 
Q 2509 4147 2053 4147 
L 1259 4147 
z
" transform="scale(0.015625)"/>
      <path id="DejaVuSans-62" d="M 3116 1747 
Q 3116 2381 2855 2742 
Q 2594 3103 2138 3103 
Q 1681 3103 1420 2742 
Q 1159 2381 1159 1747 
Q 1159 1113 1420 752 
Q 1681 391 2138 391 
Q 2594 391 2855 752 
Q 3116 1113 3116 1747 
z
M 1159 2969 
Q 1341 3281 1617 3432 
Q 1894 3584 2278 3584 
Q 2916 3584 3314 3078 
Q 3713 2572 3713 1747 
Q 3713 922 3314 415 
Q 2916 -91 2278 -91 
Q 1894 -91 1617 61 
Q 1341 213 1159 525 
L 1159 0 
L 581 0 
L 581 4863 
L 1159 4863 
L 1159 2969 
z
" transform="scale(0.015625)"/>
     </defs>
     <use xlink:href="#DejaVuSans-52"/>
     <use xlink:href="#DejaVuSans-68" x="69.482422"/>
     <use xlink:href="#DejaVuSans-6f" x="132.861328"/>
     <use xlink:href="#DejaVuSans-6d" x="194.042969"/>
     <use xlink:href="#DejaVuSans-62" x="291.455078"/>
     <use xlink:href="#DejaVuSans-6f" x="354.931641"/>
     <use xlink:href="#DejaVuSans-69" x="416.113281"/>
     <use xlink:href="#DejaVuSans-64" x="443.896484"/>
     <use xlink:href="#DejaVuSans-20" x="507.373047"/>
     <use xlink:href="#DejaVuSans-64" x="539.160156"/>
     <use xlink:href="#DejaVuSans-6f" x="602.636719"/>
     <use xlink:href="#DejaVuSans-6d" x="663.818359"/>
     <use xlink:href="#DejaVuSans-61" x="761.230469"/>
     <use xlink:href="#DejaVuSans-69" x="822.509766"/>
     <use xlink:href="#DejaVuSans-6e" x="850.292969"/>
     <use xlink:href="#DejaVuSans-2d" x="913.671875"/>
    </g>
    <!-- containing protein -->
    <g transform="translate(642.535774 164.241664)scale(0.11 -0.11)">
     <use xlink:href="#DejaVuSans-63"/>
     <use xlink:href="#DejaVuSans-6f" x="54.980469"/>
     <use xlink:href="#DejaVuSans-6e" x="116.162109"/>
     <use xlink:href="#DejaVuSans-74" x="179.541016"/>
     <use xlink:href="#DejaVuSans-61" x="218.75"/>
     <use xlink:href="#DejaVuSans-69" x="280.029297"/>
     <use xlink:href="#DejaVuSans-6e" x="307.8125"/>
     <use xlink:href="#DejaVuSans-69" x="371.191406"/>
     <use xlink:href="#DejaVuSans-6e" x="398.974609"/>
     <use xlink:href="#DejaVuSans-67" x="462.353516"/>
     <use xlink:href="#DejaVuSans-20" x="525.830078"/>
     <use xlink:href="#DejaVuSans-70" x="557.617188"/>
     <use xlink:href="#DejaVuSans-72" x="621.09375"/>
     <use xlink:href="#DejaVuSans-6f" x="659.957031"/>
     <use xlink:href="#DejaVuSans-74" x="721.138672"/>
     <use xlink:href="#DejaVuSans-65" x="760.347656"/>
     <use xlink:href="#DejaVuSans-69" x="821.871094"/>
     <use xlink:href="#DejaVuSans-6e" x="849.654297"/>
    </g>
   </g>
   <g id="text_16">
    <g id="patch_24">
     <path d="M 443.653464 116.737549 
L 550.994558 116.737549 
Q 554.294558 116.737549 554.294558 113.437549 
L 554.294558 90.474017 
Q 554.294558 87.174017 550.994558 87.174017 
L 443.653464 87.174017 
Q 440.353464 87.174017 440.353464 90.474017 
L 440.353464 113.437549 
Q 440.353464 116.737549 443.653464 116.737549 
z
" style="fill: #edf1f7; stroke: #808080; stroke-width: 0.3; stroke-linejoin: miter"/>
    </g>
    <!-- ABC transporter -->
    <g transform="translate(453.238073 98.832299)scale(0.11 -0.11)">
     <defs>
      <path id="DejaVuSans-43" d="M 4122 4306 
L 4122 3641 
Q 3803 3938 3442 4084 
Q 3081 4231 2675 4231 
Q 1875 4231 1450 3742 
Q 1025 3253 1025 2328 
Q 1025 1406 1450 917 
Q 1875 428 2675 428 
Q 3081 428 3442 575 
Q 3803 722 4122 1019 
L 4122 359 
Q 3791 134 3420 21 
Q 3050 -91 2638 -91 
Q 1578 -91 968 557 
Q 359 1206 359 2328 
Q 359 3453 968 4101 
Q 1578 4750 2638 4750 
Q 3056 4750 3426 4639 
Q 3797 4528 4122 4306 
z
" transform="scale(0.015625)"/>
     </defs>
     <use xlink:href="#DejaVuSans-41"/>
     <use xlink:href="#DejaVuSans-42" x="68.408203"/>
     <use xlink:href="#DejaVuSans-43" x="135.261719"/>
     <use xlink:href="#DejaVuSans-20" x="205.085938"/>
     <use xlink:href="#DejaVuSans-74" x="236.873047"/>
     <use xlink:href="#DejaVuSans-72" x="276.082031"/>
     <use xlink:href="#DejaVuSans-61" x="317.195312"/>
     <use xlink:href="#DejaVuSans-6e" x="378.474609"/>
     <use xlink:href="#DejaVuSans-73" x="441.853516"/>
     <use xlink:href="#DejaVuSans-70" x="493.953125"/>
     <use xlink:href="#DejaVuSans-6f" x="557.429688"/>
     <use xlink:href="#DejaVuSans-72" x="618.611328"/>
     <use xlink:href="#DejaVuSans-74" x="659.724609"/>
     <use xlink:href="#DejaVuSans-65" x="698.933594"/>
     <use xlink:href="#DejaVuSans-72" x="760.457031"/>
    </g>
    <!-- ATP-binding protein -->
    <g transform="translate(443.653464 111.149892)scale(0.11 -0.11)">
     <defs>
      <path id="DejaVuSans-50" d="M 1259 4147 
L 1259 2394 
L 2053 2394 
Q 2494 2394 2734 2622 
Q 2975 2850 2975 3272 
Q 2975 3691 2734 3919 
Q 2494 4147 2053 4147 
L 1259 4147 
z
M 628 4666 
L 2053 4666 
Q 2838 4666 3239 4311 
Q 3641 3956 3641 3272 
Q 3641 2581 3239 2228 
Q 2838 1875 2053 1875 
L 1259 1875 
L 1259 0 
L 628 0 
L 628 4666 
z
" transform="scale(0.015625)"/>
     </defs>
     <use xlink:href="#DejaVuSans-41"/>
     <use xlink:href="#DejaVuSans-54" x="60.658203"/>
     <use xlink:href="#DejaVuSans-50" x="121.742188"/>
     <use xlink:href="#DejaVuSans-2d" x="179.794922"/>
     <use xlink:href="#DejaVuSans-62" x="215.878906"/>
     <use xlink:href="#DejaVuSans-69" x="279.355469"/>
     <use xlink:href="#DejaVuSans-6e" x="307.138672"/>
     <use xlink:href="#DejaVuSans-64" x="370.517578"/>
     <use xlink:href="#DejaVuSans-69" x="433.994141"/>
     <use xlink:href="#DejaVuSans-6e" x="461.777344"/>
     <use xlink:href="#DejaVuSans-67" x="525.15625"/>
     <use xlink:href="#DejaVuSans-20" x="588.632812"/>
     <use xlink:href="#DejaVuSans-70" x="620.419922"/>
     <use xlink:href="#DejaVuSans-72" x="683.896484"/>
     <use xlink:href="#DejaVuSans-6f" x="722.759766"/>
     <use xlink:href="#DejaVuSans-74" x="783.941406"/>
     <use xlink:href="#DejaVuSans-65" x="823.150391"/>
     <use xlink:href="#DejaVuSans-69" x="884.673828"/>
     <use xlink:href="#DejaVuSans-6e" x="912.457031"/>
    </g>
   </g>
   <g id="text_17">
    <g id="patch_25">
     <path d="M 717.254236 123.851695 
L 746.789236 123.851695 
Q 750.089236 123.851695 750.089236 120.551695 
L 750.089236 109.905757 
Q 750.089236 106.605757 746.789236 106.605757 
L 717.254236 106.605757 
Q 713.954236 106.605757 713.954236 109.905757 
L 713.954236 120.551695 
Q 713.954236 123.851695 717.254236 123.851695 
z
" style="fill: #edf1f7; stroke: #808080; stroke-width: 0.3; stroke-linejoin: miter"/>
    </g>
    <!-- mtgA -->
    <g transform="translate(717.254236 118.264039)scale(0.11 -0.11)">
     <use xlink:href="#DejaVuSans-6d"/>
     <use xlink:href="#DejaVuSans-74" x="97.412109"/>
     <use xlink:href="#DejaVuSans-67" x="136.621094"/>
     <use xlink:href="#DejaVuSans-41" x="200.097656"/>
    </g>
   </g>
   <g id="text_18">
    <g id="patch_26">
     <path d="M 143.403077 150.397581 
L 168.742608 150.397581 
Q 172.042608 150.397581 172.042608 147.097581 
L 172.042608 136.451643 
Q 172.042608 133.151643 168.742608 133.151643 
L 143.403077 133.151643 
Q 140.103077 133.151643 140.103077 136.451643 
L 140.103077 147.097581 
Q 140.103077 150.397581 143.403077 150.397581 
z
" style="fill: #edf1f7; stroke: #808080; stroke-width: 0.3; stroke-linejoin: miter"/>
    </g>
    <!-- nfuA -->
    <g transform="translate(143.403077 144.809925)scale(0.11 -0.11)">
     <use xlink:href="#DejaVuSans-6e"/>
     <use xlink:href="#DejaVuSans-66" x="63.378906"/>
     <use xlink:href="#DejaVuSans-75" x="98.583984"/>
     <use xlink:href="#DejaVuSans-41" x="161.962891"/>
    </g>
   </g>
   <g id="text_19">
    <g id="patch_27">
     <path d="M 351.476267 150.397581 
L 460.011892 150.397581 
Q 463.311892 150.397581 463.311892 147.097581 
L 463.311892 136.451643 
Q 463.311892 133.151643 460.011892 133.151643 
L 351.476267 133.151643 
Q 348.176267 133.151643 348.176267 136.451643 
L 348.176267 147.097581 
Q 348.176267 150.397581 351.476267 150.397581 
z
" style="fill: #edf1f7; stroke: #808080; stroke-width: 0.3; stroke-linejoin: miter"/>
    </g>
    <!-- carbonic anhydrase -->
    <g transform="translate(351.476267 144.809925)scale(0.11 -0.11)">
     <use xlink:href="#DejaVuSans-63"/>
     <use xlink:href="#DejaVuSans-61" x="54.980469"/>
     <use xlink:href="#DejaVuSans-72" x="116.259766"/>
     <use xlink:href="#DejaVuSans-62" x="157.373047"/>
     <use xlink:href="#DejaVuSans-6f" x="220.849609"/>
     <use xlink:href="#DejaVuSans-6e" x="282.03125"/>
     <use xlink:href="#DejaVuSans-69" x="345.410156"/>
     <use xlink:href="#DejaVuSans-63" x="373.193359"/>
     <use xlink:href="#DejaVuSans-20" x="428.173828"/>
     <use xlink:href="#DejaVuSans-61" x="459.960938"/>
     <use xlink:href="#DejaVuSans-6e" x="521.240234"/>
     <use xlink:href="#DejaVuSans-68" x="584.619141"/>
     <use xlink:href="#DejaVuSans-79" x="647.998047"/>
     <use xlink:href="#DejaVuSans-64" x="707.177734"/>
     <use xlink:href="#DejaVuSans-72" x="770.654297"/>
     <use xlink:href="#DejaVuSans-61" x="811.767578"/>
     <use xlink:href="#DejaVuSans-73" x="873.046875"/>
     <use xlink:href="#DejaVuSans-65" x="925.146484"/>
    </g>
   </g>
   <g id="text_20">
    <g id="patch_28">
     <path d="M 27.05432 222.921093 
L 209.595883 222.921093 
Q 212.895883 222.921093 212.895883 219.621093 
L 212.895883 196.657561 
Q 212.895883 193.357561 209.595883 193.357561 
L 27.05432 193.357561 
Q 23.75432 193.357561 23.75432 196.657561 
L 23.75432 219.621093 
Q 23.75432 222.921093 27.05432 222.921093 
z
" style="fill: #edf1f7; stroke: #808080; stroke-width: 0.3; stroke-linejoin: miter"/>
    </g>
    <!-- Rhomboid family intramembrane -->
    <g transform="translate(27.05432 205.015843)scale(0.11 -0.11)">
     <use xlink:href="#DejaVuSans-52"/>
     <use xlink:href="#DejaVuSans-68" x="69.482422"/>
     <use xlink:href="#DejaVuSans-6f" x="132.861328"/>
     <use xlink:href="#DejaVuSans-6d" x="194.042969"/>
     <use xlink:href="#DejaVuSans-62" x="291.455078"/>
     <use xlink:href="#DejaVuSans-6f" x="354.931641"/>
     <use xlink:href="#DejaVuSans-69" x="416.113281"/>
     <use xlink:href="#DejaVuSans-64" x="443.896484"/>
     <use xlink:href="#DejaVuSans-20" x="507.373047"/>
     <use xlink:href="#DejaVuSans-66" x="539.160156"/>
     <use xlink:href="#DejaVuSans-61" x="574.365234"/>
     <use xlink:href="#DejaVuSans-6d" x="635.644531"/>
     <use xlink:href="#DejaVuSans-69" x="733.056641"/>
     <use xlink:href="#DejaVuSans-6c" x="760.839844"/>
     <use xlink:href="#DejaVuSans-79" x="788.623047"/>
     <use xlink:href="#DejaVuSans-20" x="847.802734"/>
     <use xlink:href="#DejaVuSans-69" x="879.589844"/>
     <use xlink:href="#DejaVuSans-6e" x="907.373047"/>
     <use xlink:href="#DejaVuSans-74" x="970.751953"/>
     <use xlink:href="#DejaVuSans-72" x="1009.960938"/>
     <use xlink:href="#DejaVuSans-61" x="1051.074219"/>
     <use xlink:href="#DejaVuSans-6d" x="1112.353516"/>
     <use xlink:href="#DejaVuSans-65" x="1209.765625"/>
     <use xlink:href="#DejaVuSans-6d" x="1271.289062"/>
     <use xlink:href="#DejaVuSans-62" x="1368.701172"/>
     <use xlink:href="#DejaVuSans-72" x="1432.177734"/>
     <use xlink:href="#DejaVuSans-61" x="1473.291016"/>
     <use xlink:href="#DejaVuSans-6e" x="1534.570312"/>
     <use xlink:href="#DejaVuSans-65" x="1597.949219"/>
    </g>
    <!-- serine protease -->
    <g transform="translate(75.514476 217.333436)scale(0.11 -0.11)">
     <use xlink:href="#DejaVuSans-73"/>
     <use xlink:href="#DejaVuSans-65" x="52.099609"/>
     <use xlink:href="#DejaVuSans-72" x="113.623047"/>
     <use xlink:href="#DejaVuSans-69" x="154.736328"/>
     <use xlink:href="#DejaVuSans-6e" x="182.519531"/>
     <use xlink:href="#DejaVuSans-65" x="245.898438"/>
     <use xlink:href="#DejaVuSans-20" x="307.421875"/>
     <use xlink:href="#DejaVuSans-70" x="339.208984"/>
     <use xlink:href="#DejaVuSans-72" x="402.685547"/>
     <use xlink:href="#DejaVuSans-6f" x="441.548828"/>
     <use xlink:href="#DejaVuSans-74" x="502.730469"/>
     <use xlink:href="#DejaVuSans-65" x="541.939453"/>
     <use xlink:href="#DejaVuSans-61" x="603.462891"/>
     <use xlink:href="#DejaVuSans-73" x="664.742188"/>
     <use xlink:href="#DejaVuSans-65" x="716.841797"/>
    </g>
   </g>
   <g id="text_21">
    <g id="patch_29">
     <path d="M 399.935201 176.943467 
L 524.144107 176.943467 
Q 527.444107 176.943467 527.444107 173.643467 
L 527.444107 162.997529 
Q 527.444107 159.697529 524.144107 159.697529 
L 399.935201 159.697529 
Q 396.635201 159.697529 396.635201 162.997529 
L 396.635201 173.643467 
Q 396.635201 176.943467 399.935201 176.943467 
z
" style="fill: #edf1f7; stroke: #808080; stroke-width: 0.3; stroke-linejoin: miter"/>
    </g>
    <!-- Multifunctional protein -->
    <g transform="translate(399.935201 171.355811)scale(0.11 -0.11)">
     <defs>
      <path id="DejaVuSans-4d" d="M 628 4666 
L 1569 4666 
L 2759 1491 
L 3956 4666 
L 4897 4666 
L 4897 0 
L 4281 0 
L 4281 4097 
L 3078 897 
L 2444 897 
L 1241 4097 
L 1241 0 
L 628 0 
L 628 4666 
z
" transform="scale(0.015625)"/>
     </defs>
     <use xlink:href="#DejaVuSans-4d"/>
     <use xlink:href="#DejaVuSans-75" x="86.279297"/>
     <use xlink:href="#DejaVuSans-6c" x="149.658203"/>
     <use xlink:href="#DejaVuSans-74" x="177.441406"/>
     <use xlink:href="#DejaVuSans-69" x="216.650391"/>
     <use xlink:href="#DejaVuSans-66" x="244.433594"/>
     <use xlink:href="#DejaVuSans-75" x="279.638672"/>
     <use xlink:href="#DejaVuSans-6e" x="343.017578"/>
     <use xlink:href="#DejaVuSans-63" x="406.396484"/>
     <use xlink:href="#DejaVuSans-74" x="461.376953"/>
     <use xlink:href="#DejaVuSans-69" x="500.585938"/>
     <use xlink:href="#DejaVuSans-6f" x="528.369141"/>
     <use xlink:href="#DejaVuSans-6e" x="589.550781"/>
     <use xlink:href="#DejaVuSans-61" x="652.929688"/>
     <use xlink:href="#DejaVuSans-6c" x="714.208984"/>
     <use xlink:href="#DejaVuSans-20" x="741.992188"/>
     <use xlink:href="#DejaVuSans-70" x="773.779297"/>
     <use xlink:href="#DejaVuSans-72" x="837.255859"/>
     <use xlink:href="#DejaVuSans-6f" x="876.119141"/>
     <use xlink:href="#DejaVuSans-74" x="937.300781"/>
     <use xlink:href="#DejaVuSans-65" x="976.509766"/>
     <use xlink:href="#DejaVuSans-69" x="1038.033203"/>
     <use xlink:href="#DejaVuSans-6e" x="1065.816406"/>
    </g>
   </g>
   <g id="text_22">
    <g id="patch_30">
     <path d="M 410.509592 70.759923 
L 462.225061 70.759923 
Q 465.525061 70.759923 465.525061 67.459923 
L 465.525061 56.813985 
Q 465.525061 53.513985 462.225061 53.513985 
L 410.509592 53.513985 
Q 407.209592 53.513985 407.209592 56.813985 
L 407.209592 67.459923 
Q 407.209592 70.759923 410.509592 70.759923 
z
" style="fill: #fbf0ea; stroke: #808080; stroke-width: 0.3; stroke-linejoin: miter"/>
    </g>
    <!-- AAC(6')-Ij -->
    <g transform="translate(410.509592 65.172267)scale(0.11 -0.11)">
     <defs>
      <path id="DejaVuSans-28" d="M 1984 4856 
Q 1566 4138 1362 3434 
Q 1159 2731 1159 2009 
Q 1159 1288 1364 580 
Q 1569 -128 1984 -844 
L 1484 -844 
Q 1016 -109 783 600 
Q 550 1309 550 2009 
Q 550 2706 781 3412 
Q 1013 4119 1484 4856 
L 1984 4856 
z
" transform="scale(0.015625)"/>
      <path id="DejaVuSans-27" d="M 1147 4666 
L 1147 2931 
L 616 2931 
L 616 4666 
L 1147 4666 
z
" transform="scale(0.015625)"/>
      <path id="DejaVuSans-29" d="M 513 4856 
L 1013 4856 
Q 1481 4119 1714 3412 
Q 1947 2706 1947 2009 
Q 1947 1309 1714 600 
Q 1481 -109 1013 -844 
L 513 -844 
Q 928 -128 1133 580 
Q 1338 1288 1338 2009 
Q 1338 2731 1133 3434 
Q 928 4138 513 4856 
z
" transform="scale(0.015625)"/>
      <path id="DejaVuSans-49" d="M 628 4666 
L 1259 4666 
L 1259 0 
L 628 0 
L 628 4666 
z
" transform="scale(0.015625)"/>
      <path id="DejaVuSans-6a" d="M 603 3500 
L 1178 3500 
L 1178 -63 
Q 1178 -731 923 -1031 
Q 669 -1331 103 -1331 
L -116 -1331 
L -116 -844 
L 38 -844 
Q 366 -844 484 -692 
Q 603 -541 603 -63 
L 603 3500 
z
M 603 4863 
L 1178 4863 
L 1178 4134 
L 603 4134 
L 603 4863 
z
" transform="scale(0.015625)"/>
     </defs>
     <use xlink:href="#DejaVuSans-41"/>
     <use xlink:href="#DejaVuSans-41" x="71.158203"/>
     <use xlink:href="#DejaVuSans-43" x="137.816406"/>
     <use xlink:href="#DejaVuSans-28" x="207.640625"/>
     <use xlink:href="#DejaVuSans-36" x="246.654297"/>
     <use xlink:href="#DejaVuSans-27" x="310.277344"/>
     <use xlink:href="#DejaVuSans-29" x="337.767578"/>
     <use xlink:href="#DejaVuSans-2d" x="376.78125"/>
     <use xlink:href="#DejaVuSans-49" x="412.865234"/>
     <use xlink:href="#DejaVuSans-6a" x="442.357422"/>
    </g>
   </g>
   <g id="text_23">
    <g id="patch_31">
     <path d="M 598.850034 203.489353 
L 709.903628 203.489353 
Q 713.203628 203.489353 713.203628 200.189353 
L 713.203628 189.543415 
Q 713.203628 186.243415 709.903628 186.243415 
L 598.850034 186.243415 
Q 595.550034 186.243415 595.550034 189.543415 
L 595.550034 200.189353 
Q 595.550034 203.489353 598.850034 203.489353 
z
" style="fill: #edf1f7; stroke: #808080; stroke-width: 0.3; stroke-linejoin: miter"/>
    </g>
    <!-- hypothetical protein -->
    <g transform="translate(598.850034 197.901697)scale(0.11 -0.11)">
     <use xlink:href="#DejaVuSans-68"/>
     <use xlink:href="#DejaVuSans-79" x="63.378906"/>
     <use xlink:href="#DejaVuSans-70" x="122.558594"/>
     <use xlink:href="#DejaVuSans-6f" x="186.035156"/>
     <use xlink:href="#DejaVuSans-74" x="247.216797"/>
     <use xlink:href="#DejaVuSans-68" x="286.425781"/>
     <use xlink:href="#DejaVuSans-65" x="349.804688"/>
     <use xlink:href="#DejaVuSans-74" x="411.328125"/>
     <use xlink:href="#DejaVuSans-69" x="450.537109"/>
     <use xlink:href="#DejaVuSans-63" x="478.320312"/>
     <use xlink:href="#DejaVuSans-61" x="533.300781"/>
     <use xlink:href="#DejaVuSans-6c" x="594.580078"/>
     <use xlink:href="#DejaVuSans-20" x="622.363281"/>
     <use xlink:href="#DejaVuSans-70" x="654.150391"/>
     <use xlink:href="#DejaVuSans-72" x="717.626953"/>
     <use xlink:href="#DejaVuSans-6f" x="756.490234"/>
     <use xlink:href="#DejaVuSans-74" x="817.671875"/>
     <use xlink:href="#DejaVuSans-65" x="856.880859"/>
     <use xlink:href="#DejaVuSans-69" x="918.404297"/>
     <use xlink:href="#DejaVuSans-6e" x="946.1875"/>
    </g>
   </g>
   <g id="text_24">
    <g id="patch_32">
     <path d="M 557.101293 230.035239 
L 729.868324 230.035239 
Q 733.168324 230.035239 733.168324 226.735239 
L 733.168324 216.089301 
Q 733.168324 212.789301 729.868324 212.789301 
L 557.101293 212.789301 
Q 553.801293 212.789301 553.801293 216.089301 
L 553.801293 226.735239 
Q 553.801293 230.035239 557.101293 230.035239 
z
" style="fill: #edf1f7; stroke: #808080; stroke-width: 0.3; stroke-linejoin: miter"/>
    </g>
    <!-- VOC domain-containing protein -->
    <g transform="translate(557.101293 224.447583)scale(0.11 -0.11)">
     <defs>
      <path id="DejaVuSans-56" d="M 1831 0 
L 50 4666 
L 709 4666 
L 2188 738 
L 3669 4666 
L 4325 4666 
L 2547 0 
L 1831 0 
z
" transform="scale(0.015625)"/>
      <path id="DejaVuSans-4f" d="M 2522 4238 
Q 1834 4238 1429 3725 
Q 1025 3213 1025 2328 
Q 1025 1447 1429 934 
Q 1834 422 2522 422 
Q 3209 422 3611 934 
Q 4013 1447 4013 2328 
Q 4013 3213 3611 3725 
Q 3209 4238 2522 4238 
z
M 2522 4750 
Q 3503 4750 4090 4092 
Q 4678 3434 4678 2328 
Q 4678 1225 4090 567 
Q 3503 -91 2522 -91 
Q 1538 -91 948 565 
Q 359 1222 359 2328 
Q 359 3434 948 4092 
Q 1538 4750 2522 4750 
z
" transform="scale(0.015625)"/>
     </defs>
     <use xlink:href="#DejaVuSans-56"/>
     <use xlink:href="#DejaVuSans-4f" x="66.658203"/>
     <use xlink:href="#DejaVuSans-43" x="145.369141"/>
     <use xlink:href="#DejaVuSans-20" x="215.193359"/>
     <use xlink:href="#DejaVuSans-64" x="246.980469"/>
     <use xlink:href="#DejaVuSans-6f" x="310.457031"/>
     <use xlink:href="#DejaVuSans-6d" x="371.638672"/>
     <use xlink:href="#DejaVuSans-61" x="469.050781"/>
     <use xlink:href="#DejaVuSans-69" x="530.330078"/>
     <use xlink:href="#DejaVuSans-6e" x="558.113281"/>
     <use xlink:href="#DejaVuSans-2d" x="621.492188"/>
     <use xlink:href="#DejaVuSans-63" x="657.576172"/>
     <use xlink:href="#DejaVuSans-6f" x="712.556641"/>
     <use xlink:href="#DejaVuSans-6e" x="773.738281"/>
     <use xlink:href="#DejaVuSans-74" x="837.117188"/>
     <use xlink:href="#DejaVuSans-61" x="876.326172"/>
     <use xlink:href="#DejaVuSans-69" x="937.605469"/>
     <use xlink:href="#DejaVuSans-6e" x="965.388672"/>
     <use xlink:href="#DejaVuSans-69" x="1028.767578"/>
     <use xlink:href="#DejaVuSans-6e" x="1056.550781"/>
     <use xlink:href="#DejaVuSans-67" x="1119.929688"/>
     <use xlink:href="#DejaVuSans-20" x="1183.40625"/>
     <use xlink:href="#DejaVuSans-70" x="1215.193359"/>
     <use xlink:href="#DejaVuSans-72" x="1278.669922"/>
     <use xlink:href="#DejaVuSans-6f" x="1317.533203"/>
     <use xlink:href="#DejaVuSans-74" x="1378.714844"/>
     <use xlink:href="#DejaVuSans-65" x="1417.923828"/>
     <use xlink:href="#DejaVuSans-69" x="1479.447266"/>
     <use xlink:href="#DejaVuSans-6e" x="1507.230469"/>
    </g>
   </g>
   <g id="text_25">
    <!-- NCTC 7422 isolated in 1948 -->
    <g transform="translate(352.913665 16.318125)scale(0.12 -0.12)">
     <defs>
      <path id="DejaVuSans-4e" d="M 628 4666 
L 1478 4666 
L 3547 763 
L 3547 4666 
L 4159 4666 
L 4159 0 
L 3309 0 
L 1241 3903 
L 1241 0 
L 628 0 
L 628 4666 
z
" transform="scale(0.015625)"/>
      <path id="DejaVuSans-37" d="M 525 4666 
L 3525 4666 
L 3525 4397 
L 1831 0 
L 1172 0 
L 2766 4134 
L 525 4134 
L 525 4666 
z
" transform="scale(0.015625)"/>
      <path id="DejaVuSans-39" d="M 703 97 
L 703 672 
Q 941 559 1184 500 
Q 1428 441 1663 441 
Q 2288 441 2617 861 
Q 2947 1281 2994 2138 
Q 2813 1869 2534 1725 
Q 2256 1581 1919 1581 
Q 1219 1581 811 2004 
Q 403 2428 403 3163 
Q 403 3881 828 4315 
Q 1253 4750 1959 4750 
Q 2769 4750 3195 4129 
Q 3622 3509 3622 2328 
Q 3622 1225 3098 567 
Q 2575 -91 1691 -91 
Q 1453 -91 1209 -44 
Q 966 3 703 97 
z
M 1959 2075 
Q 2384 2075 2632 2365 
Q 2881 2656 2881 3163 
Q 2881 3666 2632 3958 
Q 2384 4250 1959 4250 
Q 1534 4250 1286 3958 
Q 1038 3666 1038 3163 
Q 1038 2656 1286 2365 
Q 1534 2075 1959 2075 
z
" transform="scale(0.015625)"/>
     </defs>
     <use xlink:href="#DejaVuSans-4e"/>
     <use xlink:href="#DejaVuSans-43" x="74.804688"/>
     <use xlink:href="#DejaVuSans-54" x="144.628906"/>
     <use xlink:href="#DejaVuSans-43" x="199.837891"/>
     <use xlink:href="#DejaVuSans-20" x="269.662109"/>
     <use xlink:href="#DejaVuSans-37" x="301.449219"/>
     <use xlink:href="#DejaVuSans-34" x="365.072266"/>
     <use xlink:href="#DejaVuSans-32" x="428.695312"/>
     <use xlink:href="#DejaVuSans-32" x="492.318359"/>
     <use xlink:href="#DejaVuSans-20" x="555.941406"/>
     <use xlink:href="#DejaVuSans-69" x="587.728516"/>
     <use xlink:href="#DejaVuSans-73" x="615.511719"/>
     <use xlink:href="#DejaVuSans-6f" x="667.611328"/>
     <use xlink:href="#DejaVuSans-6c" x="728.792969"/>
     <use xlink:href="#DejaVuSans-61" x="756.576172"/>
     <use xlink:href="#DejaVuSans-74" x="817.855469"/>
     <use xlink:href="#DejaVuSans-65" x="857.064453"/>
     <use xlink:href="#DejaVuSans-64" x="918.587891"/>
     <use xlink:href="#DejaVuSans-20" x="982.064453"/>
     <use xlink:href="#DejaVuSans-69" x="1013.851562"/>
     <use xlink:href="#DejaVuSans-6e" x="1041.634766"/>
     <use xlink:href="#DejaVuSans-20" x="1105.013672"/>
     <use xlink:href="#DejaVuSans-31" x="1136.800781"/>
     <use xlink:href="#DejaVuSans-39" x="1200.423828"/>
     <use xlink:href="#DejaVuSans-34" x="1264.046875"/>
     <use xlink:href="#DejaVuSans-38" x="1327.669922"/>
    </g>
   </g>
  </g>
 </g>
 <defs>
  <clipPath id="p8e34d0d1dc">
   <rect x="17.891477" y="22.318125" width="837" height="239.184"/>
  </clipPath>
 </defs>
</svg>
