<?xml version="1.0" encoding="utf-8" standalone="no"?>
<!DOCTYPE svg PUBLIC "-//W3C//DTD SVG 1.1//EN"
  "http://www.w3.org/Graphics/SVG/1.1/DTD/svg11.dtd">
<svg xmlns:xlink="http://www.w3.org/1999/xlink" width="336.638019pt" height="212.106812pt" viewBox="0 0 336.638019 212.106812" xmlns="http://www.w3.org/2000/svg" version="1.1">
 <metadata>
  <rdf:RDF xmlns:dc="http://purl.org/dc/elements/1.1/" xmlns:cc="http://creativecommons.org/ns#" xmlns:rdf="http://www.w3.org/1999/02/22-rdf-syntax-ns#">
   <cc:Work>
    <dc:type rdf:resource="http://purl.org/dc/dcmitype/StillImage"/>
    <dc:date>2023-06-22T15:12:55.975979</dc:date>
    <dc:format>image/svg+xml</dc:format>
    <dc:creator>
     <cc:Agent>
      <dc:title>Matplotlib v3.5.2, https://matplotlib.org/</dc:title>
     </cc:Agent>
    </dc:creator>
   </cc:Work>
  </rdf:RDF>
 </metadata>
 <defs>
  <style type="text/css">*{stroke-linejoin: round; stroke-linecap: butt}</style>
 </defs>
 <g id="figure_1">
  <g id="patch_1">
   <path d="M 0 212.106812 
L 336.638019 212.106812 
L 336.638019 0 
L 0 0 
z
" style="fill: #ffffff"/>
  </g>
  <g id="axes_1">
   <g id="patch_2">
    <path d="M 41.127531 175.825031 
L 320.127531 175.825031 
L 320.127531 12.745031 
L 41.127531 12.745031 
z
" style="fill: #ffffff"/>
   </g>
   <g id="matplotlib.axis_1">
    <g id="xtick_1">
     <g id="text_1">
      <!-- 1920 -->
      <g style="fill: #262626" transform="translate(65.9604 191.175828)scale(0.077 -0.077)">
       <defs>
        <path id="DejaVuSans-31" d="M 794 531 
L 1825 531 
L 1825 4091 
L 703 3866 
L 703 4441 
L 1819 4666 
L 2450 4666 
L 2450 531 
L 3481 531 
L 3481 0 
L 794 0 
L 794 531 
z
" transform="scale(0.015625)"/>
        <path id="DejaVuSans-39" d="M 703 97 
L 703 672 
Q 941 559 1184 500 
Q 1428 441 1663 441 
Q 2288 441 2617 861 
Q 2947 1281 2994 2138 
Q 2813 1869 2534 1725 
Q 2256 1581 1919 1581 
Q 1219 1581 811 2004 
Q 403 2428 403 3163 
Q 403 3881 828 4315 
Q 1253 4750 1959 4750 
Q 2769 4750 3195 4129 
Q 3622 3509 3622 2328 
Q 3622 1225 3098 567 
Q 2575 -91 1691 -91 
Q 1453 -91 1209 -44 
Q 966 3 703 97 
z
M 1959 2075 
Q 2384 2075 2632 2365 
Q 2881 2656 2881 3163 
Q 2881 3666 2632 3958 
Q 2384 4250 1959 4250 
Q 1534 4250 1286 3958 
Q 1038 3666 1038 3163 
Q 1038 2656 1286 2365 
Q 1534 2075 1959 2075 
z
" transform="scale(0.015625)"/>
        <path id="DejaVuSans-32" d="M 1228 531 
L 3431 531 
L 3431 0 
L 469 0 
L 469 531 
Q 828 903 1448 1529 
Q 2069 2156 2228 2338 
Q 2531 2678 2651 2914 
Q 2772 3150 2772 3378 
Q 2772 3750 2511 3984 
Q 2250 4219 1831 4219 
Q 1534 4219 1204 4116 
Q 875 4013 500 3803 
L 500 4441 
Q 881 4594 1212 4672 
Q 1544 4750 1819 4750 
Q 2544 4750 2975 4387 
Q 3406 4025 3406 3419 
Q 3406 3131 3298 2873 
Q 3191 2616 2906 2266 
Q 2828 2175 2409 1742 
Q 1991 1309 1228 531 
z
" transform="scale(0.015625)"/>
        <path id="DejaVuSans-30" d="M 2034 4250 
Q 1547 4250 1301 3770 
Q 1056 3291 1056 2328 
Q 1056 1369 1301 889 
Q 1547 409 2034 409 
Q 2525 409 2770 889 
Q 3016 1369 3016 2328 
Q 3016 3291 2770 3770 
Q 2525 4250 2034 4250 
z
M 2034 4750 
Q 2819 4750 3233 4129 
Q 3647 3509 3647 2328 
Q 3647 1150 3233 529 
Q 2819 -91 2034 -91 
Q 1250 -91 836 529 
Q 422 1150 422 2328 
Q 422 3509 836 4129 
Q 1250 4750 2034 4750 
z
" transform="scale(0.015625)"/>
       </defs>
       <use xlink:href="#DejaVuSans-31"/>
       <use xlink:href="#DejaVuSans-39" x="63.623047"/>
       <use xlink:href="#DejaVuSans-32" x="127.246094"/>
       <use xlink:href="#DejaVuSans-30" x="190.869141"/>
      </g>
     </g>
    </g>
    <g id="xtick_2">
     <g id="text_2">
      <!-- 1940 -->
      <g style="fill: #262626" transform="translate(114.736624 191.175828)scale(0.077 -0.077)">
       <defs>
        <path id="DejaVuSans-34" d="M 2419 4116 
L 825 1625 
L 2419 1625 
L 2419 4116 
z
M 2253 4666 
L 3047 4666 
L 3047 1625 
L 3713 1625 
L 3713 1100 
L 3047 1100 
L 3047 0 
L 2419 0 
L 2419 1100 
L 313 1100 
L 313 1709 
L 2253 4666 
z
" transform="scale(0.015625)"/>
       </defs>
       <use xlink:href="#DejaVuSans-31"/>
       <use xlink:href="#DejaVuSans-39" x="63.623047"/>
       <use xlink:href="#DejaVuSans-34" x="127.246094"/>
       <use xlink:href="#DejaVuSans-30" x="190.869141"/>
      </g>
     </g>
    </g>
    <g id="xtick_3">
     <g id="text_3">
      <!-- 1960 -->
      <g style="fill: #262626" transform="translate(163.512848 191.175828)scale(0.077 -0.077)">
       <defs>
        <path id="DejaVuSans-36" d="M 2113 2584 
Q 1688 2584 1439 2293 
Q 1191 2003 1191 1497 
Q 1191 994 1439 701 
Q 1688 409 2113 409 
Q 2538 409 2786 701 
Q 3034 994 3034 1497 
Q 3034 2003 2786 2293 
Q 2538 2584 2113 2584 
z
M 3366 4563 
L 3366 3988 
Q 3128 4100 2886 4159 
Q 2644 4219 2406 4219 
Q 1781 4219 1451 3797 
Q 1122 3375 1075 2522 
Q 1259 2794 1537 2939 
Q 1816 3084 2150 3084 
Q 2853 3084 3261 2657 
Q 3669 2231 3669 1497 
Q 3669 778 3244 343 
Q 2819 -91 2113 -91 
Q 1303 -91 875 529 
Q 447 1150 447 2328 
Q 447 3434 972 4092 
Q 1497 4750 2381 4750 
Q 2619 4750 2861 4703 
Q 3103 4656 3366 4563 
z
" transform="scale(0.015625)"/>
       </defs>
       <use xlink:href="#DejaVuSans-31"/>
       <use xlink:href="#DejaVuSans-39" x="63.623047"/>
       <use xlink:href="#DejaVuSans-36" x="127.246094"/>
       <use xlink:href="#DejaVuSans-30" x="190.869141"/>
      </g>
     </g>
    </g>
    <g id="xtick_4">
     <g id="text_4">
      <!-- 1980 -->
      <g style="fill: #262626" transform="translate(212.289071 191.175828)scale(0.077 -0.077)">
       <defs>
        <path id="DejaVuSans-38" d="M 2034 2216 
Q 1584 2216 1326 1975 
Q 1069 1734 1069 1313 
Q 1069 891 1326 650 
Q 1584 409 2034 409 
Q 2484 409 2743 651 
Q 3003 894 3003 1313 
Q 3003 1734 2745 1975 
Q 2488 2216 2034 2216 
z
M 1403 2484 
Q 997 2584 770 2862 
Q 544 3141 544 3541 
Q 544 4100 942 4425 
Q 1341 4750 2034 4750 
Q 2731 4750 3128 4425 
Q 3525 4100 3525 3541 
Q 3525 3141 3298 2862 
Q 3072 2584 2669 2484 
Q 3125 2378 3379 2068 
Q 3634 1759 3634 1313 
Q 3634 634 3220 271 
Q 2806 -91 2034 -91 
Q 1263 -91 848 271 
Q 434 634 434 1313 
Q 434 1759 690 2068 
Q 947 2378 1403 2484 
z
M 1172 3481 
Q 1172 3119 1398 2916 
Q 1625 2713 2034 2713 
Q 2441 2713 2670 2916 
Q 2900 3119 2900 3481 
Q 2900 3844 2670 4047 
Q 2441 4250 2034 4250 
Q 1625 4250 1398 4047 
Q 1172 3844 1172 3481 
z
" transform="scale(0.015625)"/>
       </defs>
       <use xlink:href="#DejaVuSans-31"/>
       <use xlink:href="#DejaVuSans-39" x="63.623047"/>
       <use xlink:href="#DejaVuSans-38" x="127.246094"/>
       <use xlink:href="#DejaVuSans-30" x="190.869141"/>
      </g>
     </g>
    </g>
    <g id="xtick_5">
     <g id="text_5">
      <!-- 2000 -->
      <g style="fill: #262626" transform="translate(261.065295 191.175828)scale(0.077 -0.077)">
       <use xlink:href="#DejaVuSans-32"/>
       <use xlink:href="#DejaVuSans-30" x="63.623047"/>
       <use xlink:href="#DejaVuSans-30" x="127.246094"/>
       <use xlink:href="#DejaVuSans-30" x="190.869141"/>
      </g>
     </g>
    </g>
    <g id="xtick_6">
     <g id="text_6">
      <!-- 2020 -->
      <g style="fill: #262626" transform="translate(309.841519 191.175828)scale(0.077 -0.077)">
       <use xlink:href="#DejaVuSans-32"/>
       <use xlink:href="#DejaVuSans-30" x="63.623047"/>
       <use xlink:href="#DejaVuSans-32" x="127.246094"/>
       <use xlink:href="#DejaVuSans-30" x="190.869141"/>
      </g>
     </g>
    </g>
    <g id="text_7">
     <!-- Year Cultured -->
     <g style="fill: #262626" transform="translate(152.446844 203.159875)scale(0.084 -0.084)">
      <defs>
       <path id="DejaVuSans-59" d="M -13 4666 
L 666 4666 
L 1959 2747 
L 3244 4666 
L 3922 4666 
L 2272 2222 
L 2272 0 
L 1638 0 
L 1638 2222 
L -13 4666 
z
" transform="scale(0.015625)"/>
       <path id="DejaVuSans-65" d="M 3597 1894 
L 3597 1613 
L 953 1613 
Q 991 1019 1311 708 
Q 1631 397 2203 397 
Q 2534 397 2845 478 
Q 3156 559 3463 722 
L 3463 178 
Q 3153 47 2828 -22 
Q 2503 -91 2169 -91 
Q 1331 -91 842 396 
Q 353 884 353 1716 
Q 353 2575 817 3079 
Q 1281 3584 2069 3584 
Q 2775 3584 3186 3129 
Q 3597 2675 3597 1894 
z
M 3022 2063 
Q 3016 2534 2758 2815 
Q 2500 3097 2075 3097 
Q 1594 3097 1305 2825 
Q 1016 2553 972 2059 
L 3022 2063 
z
" transform="scale(0.015625)"/>
       <path id="DejaVuSans-61" d="M 2194 1759 
Q 1497 1759 1228 1600 
Q 959 1441 959 1056 
Q 959 750 1161 570 
Q 1363 391 1709 391 
Q 2188 391 2477 730 
Q 2766 1069 2766 1631 
L 2766 1759 
L 2194 1759 
z
M 3341 1997 
L 3341 0 
L 2766 0 
L 2766 531 
Q 2569 213 2275 61 
Q 1981 -91 1556 -91 
Q 1019 -91 701 211 
Q 384 513 384 1019 
Q 384 1609 779 1909 
Q 1175 2209 1959 2209 
L 2766 2209 
L 2766 2266 
Q 2766 2663 2505 2880 
Q 2244 3097 1772 3097 
Q 1472 3097 1187 3025 
Q 903 2953 641 2809 
L 641 3341 
Q 956 3463 1253 3523 
Q 1550 3584 1831 3584 
Q 2591 3584 2966 3190 
Q 3341 2797 3341 1997 
z
" transform="scale(0.015625)"/>
       <path id="DejaVuSans-72" d="M 2631 2963 
Q 2534 3019 2420 3045 
Q 2306 3072 2169 3072 
Q 1681 3072 1420 2755 
Q 1159 2438 1159 1844 
L 1159 0 
L 581 0 
L 581 3500 
L 1159 3500 
L 1159 2956 
Q 1341 3275 1631 3429 
Q 1922 3584 2338 3584 
Q 2397 3584 2469 3576 
Q 2541 3569 2628 3553 
L 2631 2963 
z
" transform="scale(0.015625)"/>
       <path id="DejaVuSans-20" transform="scale(0.015625)"/>
       <path id="DejaVuSans-43" d="M 4122 4306 
L 4122 3641 
Q 3803 3938 3442 4084 
Q 3081 4231 2675 4231 
Q 1875 4231 1450 3742 
Q 1025 3253 1025 2328 
Q 1025 1406 1450 917 
Q 1875 428 2675 428 
Q 3081 428 3442 575 
Q 3803 722 4122 1019 
L 4122 359 
Q 3791 134 3420 21 
Q 3050 -91 2638 -91 
Q 1578 -91 968 557 
Q 359 1206 359 2328 
Q 359 3453 968 4101 
Q 1578 4750 2638 4750 
Q 3056 4750 3426 4639 
Q 3797 4528 4122 4306 
z
" transform="scale(0.015625)"/>
       <path id="DejaVuSans-75" d="M 544 1381 
L 544 3500 
L 1119 3500 
L 1119 1403 
Q 1119 906 1312 657 
Q 1506 409 1894 409 
Q 2359 409 2629 706 
Q 2900 1003 2900 1516 
L 2900 3500 
L 3475 3500 
L 3475 0 
L 2900 0 
L 2900 538 
Q 2691 219 2414 64 
Q 2138 -91 1772 -91 
Q 1169 -91 856 284 
Q 544 659 544 1381 
z
M 1991 3584 
L 1991 3584 
z
" transform="scale(0.015625)"/>
       <path id="DejaVuSans-6c" d="M 603 4863 
L 1178 4863 
L 1178 0 
L 603 0 
L 603 4863 
z
" transform="scale(0.015625)"/>
       <path id="DejaVuSans-74" d="M 1172 4494 
L 1172 3500 
L 2356 3500 
L 2356 3053 
L 1172 3053 
L 1172 1153 
Q 1172 725 1289 603 
Q 1406 481 1766 481 
L 2356 481 
L 2356 0 
L 1766 0 
Q 1100 0 847 248 
Q 594 497 594 1153 
L 594 3053 
L 172 3053 
L 172 3500 
L 594 3500 
L 594 4494 
L 1172 4494 
z
" transform="scale(0.015625)"/>
       <path id="DejaVuSans-64" d="M 2906 2969 
L 2906 4863 
L 3481 4863 
L 3481 0 
L 2906 0 
L 2906 525 
Q 2725 213 2448 61 
Q 2172 -91 1784 -91 
Q 1150 -91 751 415 
Q 353 922 353 1747 
Q 353 2572 751 3078 
Q 1150 3584 1784 3584 
Q 2172 3584 2448 3432 
Q 2725 3281 2906 2969 
z
M 947 1747 
Q 947 1113 1208 752 
Q 1469 391 1925 391 
Q 2381 391 2643 752 
Q 2906 1113 2906 1747 
Q 2906 2381 2643 2742 
Q 2381 3103 1925 3103 
Q 1469 3103 1208 2742 
Q 947 2381 947 1747 
z
" transform="scale(0.015625)"/>
      </defs>
      <use xlink:href="#DejaVuSans-59"/>
      <use xlink:href="#DejaVuSans-65" x="47.833984"/>
      <use xlink:href="#DejaVuSans-61" x="109.357422"/>
      <use xlink:href="#DejaVuSans-72" x="170.636719"/>
      <use xlink:href="#DejaVuSans-20" x="211.75"/>
      <use xlink:href="#DejaVuSans-43" x="243.537109"/>
      <use xlink:href="#DejaVuSans-75" x="313.361328"/>
      <use xlink:href="#DejaVuSans-6c" x="376.740234"/>
      <use xlink:href="#DejaVuSans-74" x="404.523438"/>
      <use xlink:href="#DejaVuSans-75" x="443.732422"/>
      <use xlink:href="#DejaVuSans-72" x="507.111328"/>
      <use xlink:href="#DejaVuSans-65" x="545.974609"/>
      <use xlink:href="#DejaVuSans-64" x="607.498047"/>
     </g>
    </g>
   </g>
   <g id="matplotlib.axis_2">
    <g id="ytick_1">
     <g id="text_8">
      <!-- 0.0 -->
      <g style="fill: #262626" transform="translate(19.382125 178.75043)scale(0.077 -0.077)">
       <defs>
        <path id="DejaVuSans-2e" d="M 684 794 
L 1344 794 
L 1344 0 
L 684 0 
L 684 794 
z
" transform="scale(0.015625)"/>
       </defs>
       <use xlink:href="#DejaVuSans-30"/>
       <use xlink:href="#DejaVuSans-2e" x="63.623047"/>
       <use xlink:href="#DejaVuSans-30" x="95.410156"/>
      </g>
     </g>
    </g>
    <g id="ytick_2">
     <g id="text_9">
      <!-- 0.2 -->
      <g style="fill: #262626" transform="translate(19.382125 146.13443)scale(0.077 -0.077)">
       <use xlink:href="#DejaVuSans-30"/>
       <use xlink:href="#DejaVuSans-2e" x="63.623047"/>
       <use xlink:href="#DejaVuSans-32" x="95.410156"/>
      </g>
     </g>
    </g>
    <g id="ytick_3">
     <g id="text_10">
      <!-- 0.4 -->
      <g style="fill: #262626" transform="translate(19.382125 113.51843)scale(0.077 -0.077)">
       <use xlink:href="#DejaVuSans-30"/>
       <use xlink:href="#DejaVuSans-2e" x="63.623047"/>
       <use xlink:href="#DejaVuSans-34" x="95.410156"/>
      </g>
     </g>
    </g>
    <g id="ytick_4">
     <g id="text_11">
      <!-- 0.6 -->
      <g style="fill: #262626" transform="translate(19.382125 80.90243)scale(0.077 -0.077)">
       <use xlink:href="#DejaVuSans-30"/>
       <use xlink:href="#DejaVuSans-2e" x="63.623047"/>
       <use xlink:href="#DejaVuSans-36" x="95.410156"/>
      </g>
     </g>
    </g>
    <g id="ytick_5">
     <g id="text_12">
      <!-- 0.8 -->
      <g style="fill: #262626" transform="translate(19.382125 48.28643)scale(0.077 -0.077)">
       <use xlink:href="#DejaVuSans-30"/>
       <use xlink:href="#DejaVuSans-2e" x="63.623047"/>
       <use xlink:href="#DejaVuSans-38" x="95.410156"/>
      </g>
     </g>
    </g>
    <g id="ytick_6">
     <g id="text_13">
      <!-- 1.0 -->
      <g style="fill: #262626" transform="translate(19.382125 15.67043)scale(0.077 -0.077)">
       <use xlink:href="#DejaVuSans-31"/>
       <use xlink:href="#DejaVuSans-2e" x="63.623047"/>
       <use xlink:href="#DejaVuSans-30" x="95.410156"/>
      </g>
     </g>
    </g>
    <g id="text_14">
     <!-- Fraction of isolates with ≥ 1 β-Lactamase -->
     <g style="fill: #262626" transform="translate(13.635187 181.370062)rotate(-90)scale(0.084 -0.084)">
      <defs>
       <path id="DejaVuSans-46" d="M 628 4666 
L 3309 4666 
L 3309 4134 
L 1259 4134 
L 1259 2759 
L 3109 2759 
L 3109 2228 
L 1259 2228 
L 1259 0 
L 628 0 
L 628 4666 
z
" transform="scale(0.015625)"/>
       <path id="DejaVuSans-63" d="M 3122 3366 
L 3122 2828 
Q 2878 2963 2633 3030 
Q 2388 3097 2138 3097 
Q 1578 3097 1268 2742 
Q 959 2388 959 1747 
Q 959 1106 1268 751 
Q 1578 397 2138 397 
Q 2388 397 2633 464 
Q 2878 531 3122 666 
L 3122 134 
Q 2881 22 2623 -34 
Q 2366 -91 2075 -91 
Q 1284 -91 818 406 
Q 353 903 353 1747 
Q 353 2603 823 3093 
Q 1294 3584 2113 3584 
Q 2378 3584 2631 3529 
Q 2884 3475 3122 3366 
z
" transform="scale(0.015625)"/>
       <path id="DejaVuSans-69" d="M 603 3500 
L 1178 3500 
L 1178 0 
L 603 0 
L 603 3500 
z
M 603 4863 
L 1178 4863 
L 1178 4134 
L 603 4134 
L 603 4863 
z
" transform="scale(0.015625)"/>
       <path id="DejaVuSans-6f" d="M 1959 3097 
Q 1497 3097 1228 2736 
Q 959 2375 959 1747 
Q 959 1119 1226 758 
Q 1494 397 1959 397 
Q 2419 397 2687 759 
Q 2956 1122 2956 1747 
Q 2956 2369 2687 2733 
Q 2419 3097 1959 3097 
z
M 1959 3584 
Q 2709 3584 3137 3096 
Q 3566 2609 3566 1747 
Q 3566 888 3137 398 
Q 2709 -91 1959 -91 
Q 1206 -91 779 398 
Q 353 888 353 1747 
Q 353 2609 779 3096 
Q 1206 3584 1959 3584 
z
" transform="scale(0.015625)"/>
       <path id="DejaVuSans-6e" d="M 3513 2113 
L 3513 0 
L 2938 0 
L 2938 2094 
Q 2938 2591 2744 2837 
Q 2550 3084 2163 3084 
Q 1697 3084 1428 2787 
Q 1159 2491 1159 1978 
L 1159 0 
L 581 0 
L 581 3500 
L 1159 3500 
L 1159 2956 
Q 1366 3272 1645 3428 
Q 1925 3584 2291 3584 
Q 2894 3584 3203 3211 
Q 3513 2838 3513 2113 
z
" transform="scale(0.015625)"/>
       <path id="DejaVuSans-66" d="M 2375 4863 
L 2375 4384 
L 1825 4384 
Q 1516 4384 1395 4259 
Q 1275 4134 1275 3809 
L 1275 3500 
L 2222 3500 
L 2222 3053 
L 1275 3053 
L 1275 0 
L 697 0 
L 697 3053 
L 147 3053 
L 147 3500 
L 697 3500 
L 697 3744 
Q 697 4328 969 4595 
Q 1241 4863 1831 4863 
L 2375 4863 
z
" transform="scale(0.015625)"/>
       <path id="DejaVuSans-73" d="M 2834 3397 
L 2834 2853 
Q 2591 2978 2328 3040 
Q 2066 3103 1784 3103 
Q 1356 3103 1142 2972 
Q 928 2841 928 2578 
Q 928 2378 1081 2264 
Q 1234 2150 1697 2047 
L 1894 2003 
Q 2506 1872 2764 1633 
Q 3022 1394 3022 966 
Q 3022 478 2636 193 
Q 2250 -91 1575 -91 
Q 1294 -91 989 -36 
Q 684 19 347 128 
L 347 722 
Q 666 556 975 473 
Q 1284 391 1588 391 
Q 1994 391 2212 530 
Q 2431 669 2431 922 
Q 2431 1156 2273 1281 
Q 2116 1406 1581 1522 
L 1381 1569 
Q 847 1681 609 1914 
Q 372 2147 372 2553 
Q 372 3047 722 3315 
Q 1072 3584 1716 3584 
Q 2034 3584 2315 3537 
Q 2597 3491 2834 3397 
z
" transform="scale(0.015625)"/>
       <path id="DejaVuSans-77" d="M 269 3500 
L 844 3500 
L 1563 769 
L 2278 3500 
L 2956 3500 
L 3675 769 
L 4391 3500 
L 4966 3500 
L 4050 0 
L 3372 0 
L 2619 2869 
L 1863 0 
L 1184 0 
L 269 3500 
z
" transform="scale(0.015625)"/>
       <path id="DejaVuSans-68" d="M 3513 2113 
L 3513 0 
L 2938 0 
L 2938 2094 
Q 2938 2591 2744 2837 
Q 2550 3084 2163 3084 
Q 1697 3084 1428 2787 
Q 1159 2491 1159 1978 
L 1159 0 
L 581 0 
L 581 4863 
L 1159 4863 
L 1159 2956 
Q 1366 3272 1645 3428 
Q 1925 3584 2291 3584 
Q 2894 3584 3203 3211 
Q 3513 2838 3513 2113 
z
" transform="scale(0.015625)"/>
       <path id="DejaVuSans-2265" d="M 678 3175 
L 678 3725 
L 4684 2578 
L 4684 2047 
L 678 897 
L 678 1453 
L 3681 2309 
L 678 3175 
z
M 4684 531 
L 4684 0 
L 678 0 
L 678 531 
L 4684 531 
z
" transform="scale(0.015625)"/>
       <path id="DejaVuSans-3b2" d="M 1178 216 
L 1178 -1331 
L 600 -1331 
L 600 3478 
Q 600 4903 1931 4903 
Q 3288 4903 3288 3700 
Q 3288 2844 2750 2531 
Q 3625 2250 3625 1416 
Q 3625 -66 2119 -66 
Q 1456 -66 1178 216 
z
M 1178 966 
Q 1525 425 2141 425 
Q 3041 425 3041 1406 
Q 3041 2288 1591 2219 
L 1591 2750 
Q 2725 2750 2725 3750 
Q 2725 4434 1994 4434 
Q 1178 4434 1178 3459 
L 1178 966 
z
" transform="scale(0.015625)"/>
       <path id="DejaVuSans-2d" d="M 313 2009 
L 1997 2009 
L 1997 1497 
L 313 1497 
L 313 2009 
z
" transform="scale(0.015625)"/>
       <path id="DejaVuSans-4c" d="M 628 4666 
L 1259 4666 
L 1259 531 
L 3531 531 
L 3531 0 
L 628 0 
L 628 4666 
z
" transform="scale(0.015625)"/>
       <path id="DejaVuSans-6d" d="M 3328 2828 
Q 3544 3216 3844 3400 
Q 4144 3584 4550 3584 
Q 5097 3584 5394 3201 
Q 5691 2819 5691 2113 
L 5691 0 
L 5113 0 
L 5113 2094 
Q 5113 2597 4934 2840 
Q 4756 3084 4391 3084 
Q 3944 3084 3684 2787 
Q 3425 2491 3425 1978 
L 3425 0 
L 2847 0 
L 2847 2094 
Q 2847 2600 2669 2842 
Q 2491 3084 2119 3084 
Q 1678 3084 1418 2786 
Q 1159 2488 1159 1978 
L 1159 0 
L 581 0 
L 581 3500 
L 1159 3500 
L 1159 2956 
Q 1356 3278 1631 3431 
Q 1906 3584 2284 3584 
Q 2666 3584 2933 3390 
Q 3200 3197 3328 2828 
z
" transform="scale(0.015625)"/>
      </defs>
      <use xlink:href="#DejaVuSans-46"/>
      <use xlink:href="#DejaVuSans-72" x="50.269531"/>
      <use xlink:href="#DejaVuSans-61" x="91.382812"/>
      <use xlink:href="#DejaVuSans-63" x="152.662109"/>
      <use xlink:href="#DejaVuSans-74" x="207.642578"/>
      <use xlink:href="#DejaVuSans-69" x="246.851562"/>
      <use xlink:href="#DejaVuSans-6f" x="274.634766"/>
      <use xlink:href="#DejaVuSans-6e" x="335.816406"/>
      <use xlink:href="#DejaVuSans-20" x="399.195312"/>
      <use xlink:href="#DejaVuSans-6f" x="430.982422"/>
      <use xlink:href="#DejaVuSans-66" x="492.164062"/>
      <use xlink:href="#DejaVuSans-20" x="527.369141"/>
      <use xlink:href="#DejaVuSans-69" x="559.15625"/>
      <use xlink:href="#DejaVuSans-73" x="586.939453"/>
      <use xlink:href="#DejaVuSans-6f" x="639.039062"/>
      <use xlink:href="#DejaVuSans-6c" x="700.220703"/>
      <use xlink:href="#DejaVuSans-61" x="728.003906"/>
      <use xlink:href="#DejaVuSans-74" x="789.283203"/>
      <use xlink:href="#DejaVuSans-65" x="828.492188"/>
      <use xlink:href="#DejaVuSans-73" x="890.015625"/>
      <use xlink:href="#DejaVuSans-20" x="942.115234"/>
      <use xlink:href="#DejaVuSans-77" x="973.902344"/>
      <use xlink:href="#DejaVuSans-69" x="1055.689453"/>
      <use xlink:href="#DejaVuSans-74" x="1083.472656"/>
      <use xlink:href="#DejaVuSans-68" x="1122.681641"/>
      <use xlink:href="#DejaVuSans-20" x="1186.060547"/>
      <use xlink:href="#DejaVuSans-2265" x="1217.847656"/>
      <use xlink:href="#DejaVuSans-20" x="1301.636719"/>
      <use xlink:href="#DejaVuSans-31" x="1333.423828"/>
      <use xlink:href="#DejaVuSans-20" x="1397.046875"/>
      <use xlink:href="#DejaVuSans-3b2" x="1428.833984"/>
      <use xlink:href="#DejaVuSans-2d" x="1492.652344"/>
      <use xlink:href="#DejaVuSans-4c" x="1528.736328"/>
      <use xlink:href="#DejaVuSans-61" x="1584.449219"/>
      <use xlink:href="#DejaVuSans-63" x="1645.728516"/>
      <use xlink:href="#DejaVuSans-74" x="1700.708984"/>
      <use xlink:href="#DejaVuSans-61" x="1739.917969"/>
      <use xlink:href="#DejaVuSans-6d" x="1801.197266"/>
      <use xlink:href="#DejaVuSans-61" x="1898.609375"/>
      <use xlink:href="#DejaVuSans-73" x="1959.888672"/>
      <use xlink:href="#DejaVuSans-65" x="2011.988281"/>
     </g>
    </g>
   </g>
   <g id="PathCollection_1">
    <defs>
     <path id="C0_0_7948881b02" d="M 0 3 
C 0.795609 3 1.55874 2.683901 2.12132 2.12132 
C 2.683901 1.55874 3 0.795609 3 -0 
C 3 -0.795609 2.683901 -1.55874 2.12132 -2.12132 
C 1.55874 -2.683901 0.795609 -3 0 -3 
C -0.795609 -3 -1.55874 -2.683901 -2.12132 -2.12132 
C -2.683901 -1.55874 -3 -0.795609 -3 0 
C -3 0.795609 -2.683901 1.55874 -2.12132 2.12132 
C -1.55874 2.683901 -0.795609 3 0 3 
z
"/>
    </defs>
    <g clip-path="url(#pac06de3547)">
     <use xlink:href="#C0_0_7948881b02" x="53.809349" y="121.465031" style="fill: #4c72b0"/>
    </g>
    <g clip-path="url(#pac06de3547)">
     <use xlink:href="#C0_0_7948881b02" x="63.564594" y="154.081031" style="fill: #4c72b0"/>
    </g>
    <g clip-path="url(#pac06de3547)">
     <use xlink:href="#C0_0_7948881b02" x="68.442217" y="164.953031" style="fill: #4c72b0"/>
    </g>
    <g clip-path="url(#pac06de3547)">
     <use xlink:href="#C0_0_7948881b02" x="70.881028" y="164.953031" style="fill: #4c72b0"/>
    </g>
    <g clip-path="url(#pac06de3547)">
     <use xlink:href="#C0_0_7948881b02" x="75.75865" y="156.639149" style="fill: #4c72b0"/>
    </g>
    <g clip-path="url(#pac06de3547)">
     <use xlink:href="#C0_0_7948881b02" x="78.197461" y="158.658715" style="fill: #4c72b0"/>
    </g>
    <g clip-path="url(#pac06de3547)">
     <use xlink:href="#C0_0_7948881b02" x="85.513895" y="158.658715" style="fill: #4c72b0"/>
    </g>
    <g clip-path="url(#pac06de3547)">
     <use xlink:href="#C0_0_7948881b02" x="87.952706" y="160.999577" style="fill: #4c72b0"/>
    </g>
    <g clip-path="url(#pac06de3547)">
     <use xlink:href="#C0_0_7948881b02" x="90.391517" y="159.517031" style="fill: #4c72b0"/>
    </g>
    <g clip-path="url(#pac06de3547)">
     <use xlink:href="#C0_0_7948881b02" x="92.830328" y="155.440031" style="fill: #4c72b0"/>
    </g>
    <g clip-path="url(#pac06de3547)">
     <use xlink:href="#C0_0_7948881b02" x="95.26914" y="149.521805" style="fill: #4c72b0"/>
    </g>
    <g clip-path="url(#pac06de3547)">
     <use xlink:href="#C0_0_7948881b02" x="100.146762" y="140.24394" style="fill: #4c72b0"/>
    </g>
    <g clip-path="url(#pac06de3547)">
     <use xlink:href="#C0_0_7948881b02" x="102.585573" y="145.420285" style="fill: #4c72b0"/>
    </g>
    <g clip-path="url(#pac06de3547)">
     <use xlink:href="#C0_0_7948881b02" x="105.024384" y="146.174122" style="fill: #4c72b0"/>
    </g>
    <g clip-path="url(#pac06de3547)">
     <use xlink:href="#C0_0_7948881b02" x="107.463196" y="149.732231" style="fill: #4c72b0"/>
    </g>
    <g clip-path="url(#pac06de3547)">
     <use xlink:href="#C0_0_7948881b02" x="109.902007" y="151.959665" style="fill: #4c72b0"/>
    </g>
    <g clip-path="url(#pac06de3547)">
     <use xlink:href="#C0_0_7948881b02" x="112.340818" y="147.535643" style="fill: #4c72b0"/>
    </g>
    <g clip-path="url(#pac06de3547)">
     <use xlink:href="#C0_0_7948881b02" x="114.779629" y="147.325614" style="fill: #4c72b0"/>
    </g>
    <g clip-path="url(#pac06de3547)">
     <use xlink:href="#C0_0_7948881b02" x="117.21844" y="148.645031" style="fill: #4c72b0"/>
    </g>
    <g clip-path="url(#pac06de3547)">
     <use xlink:href="#C0_0_7948881b02" x="119.657252" y="150.7358" style="fill: #4c72b0"/>
    </g>
    <g clip-path="url(#pac06de3547)">
     <use xlink:href="#C0_0_7948881b02" x="122.096063" y="152.747673" style="fill: #4c72b0"/>
    </g>
    <g clip-path="url(#pac06de3547)">
     <use xlink:href="#C0_0_7948881b02" x="124.534874" y="161.796644" style="fill: #4c72b0"/>
    </g>
    <g clip-path="url(#pac06de3547)">
     <use xlink:href="#C0_0_7948881b02" x="126.973685" y="159.517031" style="fill: #4c72b0"/>
    </g>
    <g clip-path="url(#pac06de3547)">
     <use xlink:href="#C0_0_7948881b02" x="129.412496" y="155.856052" style="fill: #4c72b0"/>
    </g>
    <g clip-path="url(#pac06de3547)">
     <use xlink:href="#C0_0_7948881b02" x="131.851307" y="151.886683" style="fill: #dd8452"/>
    </g>
    <g clip-path="url(#pac06de3547)">
     <use xlink:href="#C0_0_7948881b02" x="134.290119" y="150.948421" style="fill: #dd8452"/>
    </g>
    <g clip-path="url(#pac06de3547)">
     <use xlink:href="#C0_0_7948881b02" x="136.72893" y="145.330397" style="fill: #dd8452"/>
    </g>
    <g clip-path="url(#pac06de3547)">
     <use xlink:href="#C0_0_7948881b02" x="139.167741" y="145.927031" style="fill: #dd8452"/>
    </g>
    <g clip-path="url(#pac06de3547)">
     <use xlink:href="#C0_0_7948881b02" x="141.606552" y="138.141207" style="fill: #dd8452"/>
    </g>
    <g clip-path="url(#pac06de3547)">
     <use xlink:href="#C0_0_7948881b02" x="144.045363" y="137.117327" style="fill: #dd8452"/>
    </g>
    <g clip-path="url(#pac06de3547)">
     <use xlink:href="#C0_0_7948881b02" x="146.484175" y="136.399097" style="fill: #dd8452"/>
    </g>
    <g clip-path="url(#pac06de3547)">
     <use xlink:href="#C0_0_7948881b02" x="148.922986" y="130.856128" style="fill: #dd8452"/>
    </g>
    <g clip-path="url(#pac06de3547)">
     <use xlink:href="#C0_0_7948881b02" x="151.361797" y="130.763452" style="fill: #dd8452"/>
    </g>
    <g clip-path="url(#pac06de3547)">
     <use xlink:href="#C0_0_7948881b02" x="153.800608" y="129.082356" style="fill: #dd8452"/>
    </g>
    <g clip-path="url(#pac06de3547)">
     <use xlink:href="#C0_0_7948881b02" x="156.239419" y="128.479225" style="fill: #dd8452"/>
    </g>
    <g clip-path="url(#pac06de3547)">
     <use xlink:href="#C0_0_7948881b02" x="158.678231" y="127.958547" style="fill: #dd8452"/>
    </g>
    <g clip-path="url(#pac06de3547)">
     <use xlink:href="#C0_0_7948881b02" x="161.117042" y="125.153746" style="fill: #dd8452"/>
    </g>
    <g clip-path="url(#pac06de3547)">
     <use xlink:href="#C0_0_7948881b02" x="163.555853" y="125.089031" style="fill: #dd8452"/>
    </g>
    <g clip-path="url(#pac06de3547)">
     <use xlink:href="#C0_0_7948881b02" x="165.994664" y="124.162283" style="fill: #dd8452"/>
    </g>
    <g clip-path="url(#pac06de3547)">
     <use xlink:href="#C0_0_7948881b02" x="168.433475" y="115.144101" style="fill: #dd8452"/>
    </g>
    <g clip-path="url(#pac06de3547)">
     <use xlink:href="#C0_0_7948881b02" x="170.872286" y="114.835763" style="fill: #dd8452"/>
    </g>
    <g clip-path="url(#pac06de3547)">
     <use xlink:href="#C0_0_7948881b02" x="173.311098" y="112.146174" style="fill: #dd8452"/>
    </g>
    <g clip-path="url(#pac06de3547)">
     <use xlink:href="#C0_0_7948881b02" x="175.749909" y="122.996299" style="fill: #dd8452"/>
    </g>
    <g clip-path="url(#pac06de3547)">
     <use xlink:href="#C0_0_7948881b02" x="178.18872" y="127.988231" style="fill: #dd8452"/>
    </g>
    <g clip-path="url(#pac06de3547)">
     <use xlink:href="#C0_0_7948881b02" x="180.627531" y="129.230746" style="fill: #dd8452"/>
    </g>
    <g clip-path="url(#pac06de3547)">
     <use xlink:href="#C0_0_7948881b02" x="183.066342" y="132.337031" style="fill: #dd8452"/>
    </g>
    <g clip-path="url(#pac06de3547)">
     <use xlink:href="#C0_0_7948881b02" x="185.505154" y="122.314406" style="fill: #dd8452"/>
    </g>
    <g clip-path="url(#pac06de3547)">
     <use xlink:href="#C0_0_7948881b02" x="187.943965" y="128.877759" style="fill: #dd8452"/>
    </g>
    <g clip-path="url(#pac06de3547)">
     <use xlink:href="#C0_0_7948881b02" x="190.382776" y="133.819577" style="fill: #dd8452"/>
    </g>
    <g clip-path="url(#pac06de3547)">
     <use xlink:href="#C0_0_7948881b02" x="192.821587" y="140.151281" style="fill: #dd8452"/>
    </g>
    <g clip-path="url(#pac06de3547)">
     <use xlink:href="#C0_0_7948881b02" x="195.260398" y="144.647972" style="fill: #dd8452"/>
    </g>
    <g clip-path="url(#pac06de3547)">
     <use xlink:href="#C0_0_7948881b02" x="197.69921" y="145.538746" style="fill: #dd8452"/>
    </g>
    <g clip-path="url(#pac06de3547)">
     <use xlink:href="#C0_0_7948881b02" x="200.138021" y="149.651698" style="fill: #dd8452"/>
    </g>
    <g clip-path="url(#pac06de3547)">
     <use xlink:href="#C0_0_7948881b02" x="202.576832" y="149.970885" style="fill: #dd8452"/>
    </g>
    <g clip-path="url(#pac06de3547)">
     <use xlink:href="#C0_0_7948881b02" x="205.015643" y="152.781118" style="fill: #dd8452"/>
    </g>
    <g clip-path="url(#pac06de3547)">
     <use xlink:href="#C0_0_7948881b02" x="207.454454" y="157.501436" style="fill: #dd8452"/>
    </g>
    <g clip-path="url(#pac06de3547)">
     <use xlink:href="#C0_0_7948881b02" x="209.893266" y="153.586849" style="fill: #dd8452"/>
    </g>
    <g clip-path="url(#pac06de3547)">
     <use xlink:href="#C0_0_7948881b02" x="212.332077" y="162.071296" style="fill: #dd8452"/>
    </g>
    <g clip-path="url(#pac06de3547)">
     <use xlink:href="#C0_0_7948881b02" x="214.770888" y="160.106477" style="fill: #dd8452"/>
    </g>
    <g clip-path="url(#pac06de3547)">
     <use xlink:href="#C0_0_7948881b02" x="217.209699" y="149.277124" style="fill: #dd8452"/>
    </g>
    <g clip-path="url(#pac06de3547)">
     <use xlink:href="#C0_0_7948881b02" x="219.64851" y="146.703603" style="fill: #dd8452"/>
    </g>
    <g clip-path="url(#pac06de3547)">
     <use xlink:href="#C0_0_7948881b02" x="222.087321" y="135.558365" style="fill: #dd8452"/>
    </g>
    <g clip-path="url(#pac06de3547)">
     <use xlink:href="#C0_0_7948881b02" x="224.526133" y="128.346044" style="fill: #dd8452"/>
    </g>
    <g clip-path="url(#pac06de3547)">
     <use xlink:href="#C0_0_7948881b02" x="226.964944" y="115.610877" style="fill: #dd8452"/>
    </g>
    <g clip-path="url(#pac06de3547)">
     <use xlink:href="#C0_0_7948881b02" x="229.403755" y="111.581395" style="fill: #dd8452"/>
    </g>
    <g clip-path="url(#pac06de3547)">
     <use xlink:href="#C0_0_7948881b02" x="231.842566" y="85.610563" style="fill: #dd8452"/>
    </g>
    <g clip-path="url(#pac06de3547)">
     <use xlink:href="#C0_0_7948881b02" x="234.281377" y="85.610563" style="fill: #dd8452"/>
    </g>
    <g clip-path="url(#pac06de3547)">
     <use xlink:href="#C0_0_7948881b02" x="236.720189" y="88.596194" style="fill: #dd8452"/>
    </g>
    <g clip-path="url(#pac06de3547)">
     <use xlink:href="#C0_0_7948881b02" x="239.159" y="85.610563" style="fill: #dd8452"/>
    </g>
    <g clip-path="url(#pac06de3547)">
     <use xlink:href="#C0_0_7948881b02" x="241.597811" y="70.04341" style="fill: #dd8452"/>
    </g>
    <g clip-path="url(#pac06de3547)">
     <use xlink:href="#C0_0_7948881b02" x="244.036622" y="84.092531" style="fill: #dd8452"/>
    </g>
    <g clip-path="url(#pac06de3547)">
     <use xlink:href="#C0_0_7948881b02" x="246.475433" y="91.814122" style="fill: #dd8452"/>
    </g>
    <g clip-path="url(#pac06de3547)">
     <use xlink:href="#C0_0_7948881b02" x="248.914245" y="106.829647" style="fill: #dd8452"/>
    </g>
    <g clip-path="url(#pac06de3547)">
     <use xlink:href="#C0_0_7948881b02" x="251.353056" y="121.465031" style="fill: #dd8452"/>
    </g>
    <g clip-path="url(#pac06de3547)">
     <use xlink:href="#C0_0_7948881b02" x="256.230678" y="125.64657" style="fill: #dd8452"/>
    </g>
    <g clip-path="url(#pac06de3547)">
     <use xlink:href="#C0_0_7948881b02" x="258.669489" y="121.465031" style="fill: #dd8452"/>
    </g>
    <g clip-path="url(#pac06de3547)">
     <use xlink:href="#C0_0_7948881b02" x="278.179979" y="19.835466" style="fill: #dd8452"/>
    </g>
    <g clip-path="url(#pac06de3547)">
     <use xlink:href="#C0_0_7948881b02" x="280.61879" y="19.268231" style="fill: #dd8452"/>
    </g>
    <g clip-path="url(#pac06de3547)">
     <use xlink:href="#C0_0_7948881b02" x="283.057601" y="24.393603" style="fill: #dd8452"/>
    </g>
    <g clip-path="url(#pac06de3547)">
     <use xlink:href="#C0_0_7948881b02" x="285.496412" y="23.266322" style="fill: #dd8452"/>
    </g>
    <g clip-path="url(#pac06de3547)">
     <use xlink:href="#C0_0_7948881b02" x="287.935224" y="31.382746" style="fill: #dd8452"/>
    </g>
    <g clip-path="url(#pac06de3547)">
     <use xlink:href="#C0_0_7948881b02" x="290.374035" y="41.284031" style="fill: #dd8452"/>
    </g>
    <g clip-path="url(#pac06de3547)">
     <use xlink:href="#C0_0_7948881b02" x="292.812846" y="45.361031" style="fill: #dd8452"/>
    </g>
    <g clip-path="url(#pac06de3547)">
     <use xlink:href="#C0_0_7948881b02" x="295.251657" y="78.753603" style="fill: #dd8452"/>
    </g>
    <g clip-path="url(#pac06de3547)">
     <use xlink:href="#C0_0_7948881b02" x="297.690468" y="78.753603" style="fill: #dd8452"/>
    </g>
    <g clip-path="url(#pac06de3547)">
     <use xlink:href="#C0_0_7948881b02" x="300.12928" y="87.67368" style="fill: #dd8452"/>
    </g>
    <g clip-path="url(#pac06de3547)">
     <use xlink:href="#C0_0_7948881b02" x="302.568091" y="91.955317" style="fill: #dd8452"/>
    </g>
    <g clip-path="url(#pac06de3547)">
     <use xlink:href="#C0_0_7948881b02" x="305.006902" y="108.343652" style="fill: #dd8452"/>
    </g>
    <g clip-path="url(#pac06de3547)">
     <use xlink:href="#C0_0_7948881b02" x="307.445713" y="115.425031" style="fill: #dd8452"/>
    </g>
   </g>
   <g id="PolyCollection_1">
    <defs>
     <path id="maac41f9210" d="M 53.809349 -167.704618 
L 53.809349 -47.303704 
L 63.564594 -42.882238 
L 68.442217 -38.81174 
L 70.881028 -38.81174 
L 75.75865 -42.117613 
L 78.197461 -41.51191 
L 85.513895 -41.51191 
L 87.952706 -40.807497 
L 90.391517 -41.253922 
L 92.830328 -43.682262 
L 95.26914 -48.035962 
L 100.146762 -57.448266 
L 102.585573 -53.868512 
L 105.024384 -53.822578 
L 107.463196 -51.66759 
L 109.902007 -50.326027 
L 112.340818 -54.459566 
L 114.779629 -54.828235 
L 117.21844 -53.729363 
L 119.657252 -52.139409 
L 122.096063 -50.625428 
L 124.534874 -43.575057 
L 126.973685 -45.083359 
L 129.412496 -47.992708 
L 129.412496 -69.250459 
L 129.412496 -69.250459 
L 126.973685 -65.547878 
L 124.534874 -62.508649 
L 122.096063 -72.26646 
L 119.657252 -74.708546 
L 117.21844 -77.223921 
L 114.779629 -78.629336 
L 112.340818 -78.786776 
L 109.902007 -75.247106 
L 107.463196 -78.612659 
L 105.024384 -83.895177 
L 102.585573 -85.92269 
L 100.146762 -92.445785 
L 95.26914 -89.75225 
L 92.830328 -87.193777 
L 90.391517 -85.821312 
L 87.952706 -82.006043 
L 85.513895 -87.975322 
L 78.197461 -87.975322 
L 75.75865 -92.890182 
L 70.881028 -85.584247 
L 68.442217 -85.584247 
L 63.564594 -98.819086 
L 53.809349 -167.704618 
z
" style="stroke: #4c72b0; stroke-opacity: 0.3"/>
    </defs>
    <g clip-path="url(#pac06de3547)">
     <use xlink:href="#maac41f9210" x="0" y="212.106812" style="fill: #4c72b0; fill-opacity: 0.3; stroke: #4c72b0; stroke-opacity: 0.3"/>
    </g>
   </g>
   <g id="PolyCollection_2">
    <defs>
     <path id="m4cb666115e" d="M 131.851307 -73.046089 
L 131.851307 -51.396566 
L 134.290119 -52.418838 
L 136.72893 -57.176096 
L 139.167741 -56.58169 
L 141.606552 -66.168916 
L 144.045363 -67.183734 
L 146.484175 -68.052975 
L 148.922986 -73.521279 
L 151.361797 -73.64328 
L 153.800608 -75.330252 
L 156.239419 -75.848752 
L 158.678231 -76.127703 
L 161.117042 -78.582932 
L 163.555853 -78.49949 
L 165.994664 -79.247529 
L 168.433475 -84.141102 
L 170.872286 -84.139808 
L 173.311098 -85.618616 
L 175.749909 -73.229745 
L 178.18872 -69.298016 
L 180.627531 -67.123042 
L 183.066342 -64.245449 
L 185.505154 -73.086561 
L 187.943965 -67.722721 
L 190.382776 -63.620626 
L 192.821587 -58.34548 
L 195.260398 -55.13442 
L 197.69921 -54.580633 
L 200.138021 -52.03617 
L 202.576832 -51.839553 
L 205.015643 -50.113601 
L 207.454454 -46.49395 
L 209.893266 -49.349547 
L 212.332077 -43.134472 
L 214.770888 -44.46471 
L 217.209699 -52.562796 
L 219.64851 -54.48071 
L 222.087321 -63.360022 
L 224.526133 -69.317538 
L 226.964944 -79.038842 
L 229.403755 -82.739016 
L 231.842566 -103.439488 
L 234.281377 -103.439488 
L 236.720189 -99.633815 
L 239.159 -103.439488 
L 241.597811 -115.615838 
L 244.036622 -100.234095 
L 246.475433 -93.570617 
L 248.914245 -77.834371 
L 251.353056 -64.328188 
L 256.230678 -57.090533 
L 258.669489 -58.8813 
L 278.179979 -164.919011 
L 280.61879 -167.337819 
L 283.057601 -162.23468 
L 285.496412 -165.429819 
L 287.935224 -156.861352 
L 290.374035 -147.084713 
L 292.812846 -140.612535 
L 295.251657 -108.705532 
L 297.690468 -108.705532 
L 300.12928 -98.739913 
L 302.568091 -94.15297 
L 305.006902 -77.80318 
L 307.445713 -71.350966 
L 307.445713 -127.500528 
L 307.445713 -127.500528 
L 305.006902 -133.145605 
L 302.568091 -145.67229 
L 300.12928 -148.838407 
L 297.690468 -155.31157 
L 295.251657 -155.31157 
L 292.812846 -182.866153 
L 290.374035 -184.97713 
L 287.935224 -191.749588 
L 285.496412 -196.13815 
L 283.057601 -195.796243 
L 280.61879 -197.819796 
L 278.179979 -197.689177 
L 258.669489 -136.455573 
L 256.230678 -131.037011 
L 251.353056 -125.767761 
L 248.914245 -136.089362 
L 246.475433 -146.479949 
L 244.036622 -153.525506 
L 241.597811 -163.789951 
L 239.159 -148.20107 
L 236.720189 -146.423695 
L 234.281377 -148.20107 
L 231.842566 -148.20107 
L 229.403755 -120.265024 
L 226.964944 -116.396555 
L 224.526133 -101.439598 
L 222.087321 -93.563431 
L 219.64851 -81.015425 
L 217.209699 -77.905132 
L 214.770888 -65.48283 
L 212.332077 -63.057736 
L 209.893266 -72.759805 
L 207.454454 -68.059328 
L 205.015643 -73.328464 
L 202.576832 -77.530112 
L 200.138021 -78.003071 
L 197.69921 -84.020049 
L 195.260398 -85.304319 
L 192.821587 -90.895205 
L 190.382776 -97.416016 
L 187.943965 -102.64046 
L 185.505154 -109.757405 
L 183.066342 -99.998092 
L 180.627531 -102.753238 
L 178.18872 -102.304954 
L 175.749909 -108.013895 
L 173.311098 -115.591177 
L 170.872286 -111.672978 
L 168.433475 -111.015434 
L 165.994664 -97.519747 
L 163.555853 -96.41499 
L 161.117042 -96.172841 
L 158.678231 -93.054943 
L 156.239419 -92.257362 
L 153.800608 -91.573677 
L 151.361797 -89.96895 
L 148.922986 -89.917108 
L 146.484175 -84.550898 
L 144.045363 -84.078317 
L 141.606552 -83.107061 
L 139.167741 -79.046689 
L 136.72893 -79.530977 
L 134.290119 -73.542789 
L 131.851307 -73.046089 
z
" style="stroke: #dd8452; stroke-opacity: 0.3"/>
    </defs>
    <g clip-path="url(#pac06de3547)">
     <use xlink:href="#m4cb666115e" x="0" y="212.106812" style="fill: #dd8452; fill-opacity: 0.3; stroke: #dd8452; stroke-opacity: 0.3"/>
    </g>
   </g>
   <g id="line2d_1">
    <path d="M 53.809349 121.465031 
L 63.564594 154.081031 
L 68.442217 164.953031 
L 70.881028 164.953031 
L 75.75865 156.639149 
L 78.197461 158.658715 
L 85.513895 158.658715 
L 87.952706 160.999577 
L 90.391517 159.517031 
L 92.830328 155.440031 
L 95.26914 149.521805 
L 100.146762 140.24394 
L 102.585573 145.420285 
L 105.024384 146.174122 
L 107.463196 149.732231 
L 109.902007 151.959665 
L 112.340818 147.535643 
L 114.779629 147.325614 
L 117.21844 148.645031 
L 119.657252 150.7358 
L 122.096063 152.747673 
L 124.534874 161.796644 
L 126.973685 159.517031 
L 129.412496 155.856052 
" clip-path="url(#pac06de3547)" style="fill: none; stroke: #4c72b0; stroke-width: 1.5; stroke-linecap: round"/>
   </g>
   <g id="line2d_2">
    <path d="M 131.851307 151.886683 
L 134.290119 150.948421 
L 136.72893 145.330397 
L 139.167741 145.927031 
L 141.606552 138.141207 
L 144.045363 137.117327 
L 146.484175 136.399097 
L 148.922986 130.856128 
L 151.361797 130.763452 
L 153.800608 129.082356 
L 156.239419 128.479225 
L 158.678231 127.958547 
L 161.117042 125.153746 
L 163.555853 125.089031 
L 165.994664 124.162283 
L 168.433475 115.144101 
L 170.872286 114.835763 
L 173.311098 112.146174 
L 175.749909 122.996299 
L 178.18872 127.988231 
L 180.627531 129.230746 
L 183.066342 132.337031 
L 185.505154 122.314406 
L 187.943965 128.877759 
L 190.382776 133.819577 
L 192.821587 140.151281 
L 195.260398 144.647972 
L 197.69921 145.538746 
L 200.138021 149.651698 
L 202.576832 149.970885 
L 205.015643 152.781118 
L 207.454454 157.501436 
L 209.893266 153.586849 
L 212.332077 162.071296 
L 214.770888 160.106477 
L 217.209699 149.277124 
L 219.64851 146.703603 
L 222.087321 135.558365 
L 224.526133 128.346044 
L 226.964944 115.610877 
L 229.403755 111.581395 
L 231.842566 85.610563 
L 234.281377 85.610563 
L 236.720189 88.596194 
L 239.159 85.610563 
L 241.597811 70.04341 
L 244.036622 84.092531 
L 246.475433 91.814122 
L 248.914245 106.829647 
L 251.353056 121.465031 
L 256.230678 125.64657 
L 258.669489 121.465031 
L 278.179979 19.835466 
L 280.61879 19.268231 
L 283.057601 24.393603 
L 285.496412 23.266322 
L 287.935224 31.382746 
L 290.374035 41.284031 
L 292.812846 45.361031 
L 295.251657 78.753603 
L 297.690468 78.753603 
L 300.12928 87.67368 
L 302.568091 91.955317 
L 305.006902 108.343652 
L 307.445713 115.425031 
" clip-path="url(#pac06de3547)" style="fill: none; stroke: #dd8452; stroke-width: 1.5; stroke-linecap: round"/>
   </g>
   <g id="line2d_3"/>
   <g id="line2d_4"/>
   <g id="line2d_5">
    <path d="M 131.851307 175.825031 
L 131.851307 12.745031 
" clip-path="url(#pac06de3547)" style="fill: none; stroke: #ff0000; stroke-width: 1.5; stroke-linecap: round"/>
   </g>
   <g id="line2d_6">
    <path d="M 131.851307 175.825031 
L 131.851307 12.745031 
" clip-path="url(#pac06de3547)" style="fill: none; stroke: #ff0000; stroke-width: 1.5; stroke-linecap: round"/>
   </g>
   <g id="LineCollection_1">
    <path d="M 53.809349 152.60737 
L 129.412496 152.60737 
" clip-path="url(#pac06de3547)" style="fill: none; stroke: #4c72b0; stroke-width: 1.5"/>
   </g>
   <g id="LineCollection_2">
    <path d="M 131.851307 113.885396 
L 307.445713 113.885396 
" clip-path="url(#pac06de3547)" style="fill: none; stroke: #dd8452; stroke-width: 1.5"/>
   </g>
   <g id="patch_3">
    <path d="M 41.127531 175.825031 
L 41.127531 12.745031 
" style="fill: none; stroke: #262626; stroke-width: 1.25; stroke-linejoin: miter; stroke-linecap: square"/>
   </g>
   <g id="patch_4">
    <path d="M 41.127531 175.825031 
L 320.127531 175.825031 
" style="fill: none; stroke: #262626; stroke-width: 1.25; stroke-linejoin: miter; stroke-linecap: square"/>
   </g>
   <g id="text_15">
    <!-- Introduced clinically in 1943 -->
    <g style="fill: #262626" transform="translate(127.412841 128.35623)rotate(-90)scale(0.069972 -0.069972)">
     <defs>
      <path id="DejaVuSans-49" d="M 628 4666 
L 1259 4666 
L 1259 0 
L 628 0 
L 628 4666 
z
" transform="scale(0.015625)"/>
      <path id="DejaVuSans-79" d="M 2059 -325 
Q 1816 -950 1584 -1140 
Q 1353 -1331 966 -1331 
L 506 -1331 
L 506 -850 
L 844 -850 
Q 1081 -850 1212 -737 
Q 1344 -625 1503 -206 
L 1606 56 
L 191 3500 
L 800 3500 
L 1894 763 
L 2988 3500 
L 3597 3500 
L 2059 -325 
z
" transform="scale(0.015625)"/>
      <path id="DejaVuSans-33" d="M 2597 2516 
Q 3050 2419 3304 2112 
Q 3559 1806 3559 1356 
Q 3559 666 3084 287 
Q 2609 -91 1734 -91 
Q 1441 -91 1130 -33 
Q 819 25 488 141 
L 488 750 
Q 750 597 1062 519 
Q 1375 441 1716 441 
Q 2309 441 2620 675 
Q 2931 909 2931 1356 
Q 2931 1769 2642 2001 
Q 2353 2234 1838 2234 
L 1294 2234 
L 1294 2753 
L 1863 2753 
Q 2328 2753 2575 2939 
Q 2822 3125 2822 3475 
Q 2822 3834 2567 4026 
Q 2313 4219 1838 4219 
Q 1578 4219 1281 4162 
Q 984 4106 628 3988 
L 628 4550 
Q 988 4650 1302 4700 
Q 1616 4750 1894 4750 
Q 2613 4750 3031 4423 
Q 3450 4097 3450 3541 
Q 3450 3153 3228 2886 
Q 3006 2619 2597 2516 
z
" transform="scale(0.015625)"/>
     </defs>
     <use xlink:href="#DejaVuSans-49"/>
     <use xlink:href="#DejaVuSans-6e" x="29.492188"/>
     <use xlink:href="#DejaVuSans-74" x="92.871094"/>
     <use xlink:href="#DejaVuSans-72" x="132.080078"/>
     <use xlink:href="#DejaVuSans-6f" x="170.943359"/>
     <use xlink:href="#DejaVuSans-64" x="232.125"/>
     <use xlink:href="#DejaVuSans-75" x="295.601562"/>
     <use xlink:href="#DejaVuSans-63" x="358.980469"/>
     <use xlink:href="#DejaVuSans-65" x="413.960938"/>
     <use xlink:href="#DejaVuSans-64" x="475.484375"/>
     <use xlink:href="#DejaVuSans-20" x="538.960938"/>
     <use xlink:href="#DejaVuSans-63" x="570.748047"/>
     <use xlink:href="#DejaVuSans-6c" x="625.728516"/>
     <use xlink:href="#DejaVuSans-69" x="653.511719"/>
     <use xlink:href="#DejaVuSans-6e" x="681.294922"/>
     <use xlink:href="#DejaVuSans-69" x="744.673828"/>
     <use xlink:href="#DejaVuSans-63" x="772.457031"/>
     <use xlink:href="#DejaVuSans-61" x="827.4375"/>
     <use xlink:href="#DejaVuSans-6c" x="888.716797"/>
     <use xlink:href="#DejaVuSans-6c" x="916.5"/>
     <use xlink:href="#DejaVuSans-79" x="944.283203"/>
     <use xlink:href="#DejaVuSans-20" x="1003.462891"/>
     <use xlink:href="#DejaVuSans-69" x="1035.25"/>
     <use xlink:href="#DejaVuSans-6e" x="1063.033203"/>
     <use xlink:href="#DejaVuSans-20" x="1126.412109"/>
     <use xlink:href="#DejaVuSans-31" x="1158.199219"/>
     <use xlink:href="#DejaVuSans-39" x="1221.822266"/>
     <use xlink:href="#DejaVuSans-34" x="1285.445312"/>
     <use xlink:href="#DejaVuSans-33" x="1349.068359"/>
    </g>
   </g>
   <g id="legend_1">
    <g id="patch_5">
     <path d="M 46.517531 41.509344 
L 116.663328 41.509344 
Q 118.203328 41.509344 118.203328 39.969344 
L 118.203328 18.135031 
Q 118.203328 16.595031 116.663328 16.595031 
L 46.517531 16.595031 
Q 44.977531 16.595031 44.977531 18.135031 
L 44.977531 39.969344 
Q 44.977531 41.509344 46.517531 41.509344 
z
" style="fill: #ffffff; opacity: 0.8; stroke: #cccccc; stroke-linejoin: miter"/>
    </g>
    <g id="line2d_7">
     <path d="M 48.057531 22.830828 
L 55.757531 22.830828 
L 63.457531 22.830828 
" style="fill: none; stroke: #4c72b0; stroke-width: 1.5; stroke-linecap: round"/>
    </g>
    <g id="text_16">
     <!-- Pre-clinical -->
     <g style="fill: #262626" transform="translate(69.617531 25.525828)scale(0.077 -0.077)">
      <defs>
       <path id="DejaVuSans-50" d="M 1259 4147 
L 1259 2394 
L 2053 2394 
Q 2494 2394 2734 2622 
Q 2975 2850 2975 3272 
Q 2975 3691 2734 3919 
Q 2494 4147 2053 4147 
L 1259 4147 
z
M 628 4666 
L 2053 4666 
Q 2838 4666 3239 4311 
Q 3641 3956 3641 3272 
Q 3641 2581 3239 2228 
Q 2838 1875 2053 1875 
L 1259 1875 
L 1259 0 
L 628 0 
L 628 4666 
z
" transform="scale(0.015625)"/>
      </defs>
      <use xlink:href="#DejaVuSans-50"/>
      <use xlink:href="#DejaVuSans-72" x="58.552734"/>
      <use xlink:href="#DejaVuSans-65" x="97.416016"/>
      <use xlink:href="#DejaVuSans-2d" x="158.939453"/>
      <use xlink:href="#DejaVuSans-63" x="195.023438"/>
      <use xlink:href="#DejaVuSans-6c" x="250.003906"/>
      <use xlink:href="#DejaVuSans-69" x="277.787109"/>
      <use xlink:href="#DejaVuSans-6e" x="305.570312"/>
      <use xlink:href="#DejaVuSans-69" x="368.949219"/>
      <use xlink:href="#DejaVuSans-63" x="396.732422"/>
      <use xlink:href="#DejaVuSans-61" x="451.712891"/>
      <use xlink:href="#DejaVuSans-6c" x="512.992188"/>
     </g>
    </g>
    <g id="line2d_8">
     <path d="M 48.057531 34.132984 
L 55.757531 34.132984 
L 63.457531 34.132984 
" style="fill: none; stroke: #dd8452; stroke-width: 1.5; stroke-linecap: round"/>
    </g>
    <g id="text_17">
     <!-- Post-clinical -->
     <g style="fill: #262626" transform="translate(69.617531 36.827984)scale(0.077 -0.077)">
      <use xlink:href="#DejaVuSans-50"/>
      <use xlink:href="#DejaVuSans-6f" x="56.677734"/>
      <use xlink:href="#DejaVuSans-73" x="117.859375"/>
      <use xlink:href="#DejaVuSans-74" x="169.958984"/>
      <use xlink:href="#DejaVuSans-2d" x="209.167969"/>
      <use xlink:href="#DejaVuSans-63" x="245.251953"/>
      <use xlink:href="#DejaVuSans-6c" x="300.232422"/>
      <use xlink:href="#DejaVuSans-69" x="328.015625"/>
      <use xlink:href="#DejaVuSans-6e" x="355.798828"/>
      <use xlink:href="#DejaVuSans-69" x="419.177734"/>
      <use xlink:href="#DejaVuSans-63" x="446.960938"/>
      <use xlink:href="#DejaVuSans-61" x="501.941406"/>
      <use xlink:href="#DejaVuSans-6c" x="563.220703"/>
     </g>
    </g>
   </g>
  </g>
 </g>
 <defs>
  <clipPath id="pac06de3547">
   <rect x="41.127531" y="12.745031" width="279" height="163.08"/>
  </clipPath>
 </defs>
</svg>
