<?xml version="1.0" encoding="utf-8" standalone="no"?>
<!DOCTYPE svg PUBLIC "-//W3C//DTD SVG 1.1//EN"
  "http://www.w3.org/Graphics/SVG/1.1/DTD/svg11.dtd">
<svg xmlns:xlink="http://www.w3.org/1999/xlink" width="184.535875pt" height="218.944469pt" viewBox="0 0 184.535875 218.944469" xmlns="http://www.w3.org/2000/svg" version="1.1">
 <metadata>
  <rdf:RDF xmlns:dc="http://purl.org/dc/elements/1.1/" xmlns:cc="http://creativecommons.org/ns#" xmlns:rdf="http://www.w3.org/1999/02/22-rdf-syntax-ns#">
   <cc:Work>
    <dc:type rdf:resource="http://purl.org/dc/dcmitype/StillImage"/>
    <dc:date>2023-06-22T15:17:29.337139</dc:date>
    <dc:format>image/svg+xml</dc:format>
    <dc:creator>
     <cc:Agent>
      <dc:title>Matplotlib v3.5.2, https://matplotlib.org/</dc:title>
     </cc:Agent>
    </dc:creator>
   </cc:Work>
  </rdf:RDF>
 </metadata>
 <defs>
  <style type="text/css">*{stroke-linejoin: round; stroke-linecap: butt}</style>
 </defs>
 <g id="figure_1">
  <g id="patch_1">
   <path d="M 0 218.944469 
L 184.535875 218.944469 
L 184.535875 0 
L 0 0 
z
" style="fill: #ffffff"/>
  </g>
  <g id="axes_1">
   <g id="patch_2">
    <path d="M 38.627875 182.662688 
L 150.227875 182.662688 
L 150.227875 19.582687 
L 38.627875 19.582687 
z
" style="fill: #ffffff"/>
   </g>
   <g id="matplotlib.axis_1">
    <g id="xtick_1">
     <g id="text_1">
      <!-- −0.2 -->
      <g style="fill: #262626" transform="translate(34.24035 198.013484)scale(0.077 -0.077)">
       <defs>
        <path id="DejaVuSans-2212" d="M 678 2272 
L 4684 2272 
L 4684 1741 
L 678 1741 
L 678 2272 
z
" transform="scale(0.015625)"/>
        <path id="DejaVuSans-30" d="M 2034 4250 
Q 1547 4250 1301 3770 
Q 1056 3291 1056 2328 
Q 1056 1369 1301 889 
Q 1547 409 2034 409 
Q 2525 409 2770 889 
Q 3016 1369 3016 2328 
Q 3016 3291 2770 3770 
Q 2525 4250 2034 4250 
z
M 2034 4750 
Q 2819 4750 3233 4129 
Q 3647 3509 3647 2328 
Q 3647 1150 3233 529 
Q 2819 -91 2034 -91 
Q 1250 -91 836 529 
Q 422 1150 422 2328 
Q 422 3509 836 4129 
Q 1250 4750 2034 4750 
z
" transform="scale(0.015625)"/>
        <path id="DejaVuSans-2e" d="M 684 794 
L 1344 794 
L 1344 0 
L 684 0 
L 684 794 
z
" transform="scale(0.015625)"/>
        <path id="DejaVuSans-32" d="M 1228 531 
L 3431 531 
L 3431 0 
L 469 0 
L 469 531 
Q 828 903 1448 1529 
Q 2069 2156 2228 2338 
Q 2531 2678 2651 2914 
Q 2772 3150 2772 3378 
Q 2772 3750 2511 3984 
Q 2250 4219 1831 4219 
Q 1534 4219 1204 4116 
Q 875 4013 500 3803 
L 500 4441 
Q 881 4594 1212 4672 
Q 1544 4750 1819 4750 
Q 2544 4750 2975 4387 
Q 3406 4025 3406 3419 
Q 3406 3131 3298 2873 
Q 3191 2616 2906 2266 
Q 2828 2175 2409 1742 
Q 1991 1309 1228 531 
z
" transform="scale(0.015625)"/>
       </defs>
       <use xlink:href="#DejaVuSans-2212"/>
       <use xlink:href="#DejaVuSans-30" x="83.789062"/>
       <use xlink:href="#DejaVuSans-2e" x="147.412109"/>
       <use xlink:href="#DejaVuSans-32" x="179.199219"/>
      </g>
     </g>
    </g>
    <g id="xtick_2">
     <g id="text_2">
      <!-- 0.0 -->
      <g style="fill: #262626" transform="translate(82.582781 198.013484)scale(0.077 -0.077)">
       <use xlink:href="#DejaVuSans-30"/>
       <use xlink:href="#DejaVuSans-2e" x="63.623047"/>
       <use xlink:href="#DejaVuSans-30" x="95.410156"/>
      </g>
     </g>
    </g>
    <g id="xtick_3">
     <g id="text_3">
      <!-- 0.2 -->
      <g style="fill: #262626" transform="translate(127.699033 198.013484)scale(0.077 -0.077)">
       <use xlink:href="#DejaVuSans-30"/>
       <use xlink:href="#DejaVuSans-2e" x="63.623047"/>
       <use xlink:href="#DejaVuSans-32" x="95.410156"/>
      </g>
     </g>
    </g>
    <g id="text_4">
     <!-- Null $\Delta$ distribution in 10000 simulations -->
     <g style="fill: #262626" transform="translate(11.519875 209.997531)scale(0.084 -0.084)">
      <defs>
       <path id="DejaVuSans-4e" d="M 628 4666 
L 1478 4666 
L 3547 763 
L 3547 4666 
L 4159 4666 
L 4159 0 
L 3309 0 
L 1241 3903 
L 1241 0 
L 628 0 
L 628 4666 
z
" transform="scale(0.015625)"/>
       <path id="DejaVuSans-75" d="M 544 1381 
L 544 3500 
L 1119 3500 
L 1119 1403 
Q 1119 906 1312 657 
Q 1506 409 1894 409 
Q 2359 409 2629 706 
Q 2900 1003 2900 1516 
L 2900 3500 
L 3475 3500 
L 3475 0 
L 2900 0 
L 2900 538 
Q 2691 219 2414 64 
Q 2138 -91 1772 -91 
Q 1169 -91 856 284 
Q 544 659 544 1381 
z
M 1991 3584 
L 1991 3584 
z
" transform="scale(0.015625)"/>
       <path id="DejaVuSans-6c" d="M 603 4863 
L 1178 4863 
L 1178 0 
L 603 0 
L 603 4863 
z
" transform="scale(0.015625)"/>
       <path id="DejaVuSans-20" transform="scale(0.015625)"/>
       <path id="DejaVuSans-394" d="M 2188 4044 
L 906 525 
L 3472 525 
L 2188 4044 
z
M 50 0 
L 1831 4666 
L 2547 4666 
L 4325 0 
L 50 0 
z
" transform="scale(0.015625)"/>
       <path id="DejaVuSans-64" d="M 2906 2969 
L 2906 4863 
L 3481 4863 
L 3481 0 
L 2906 0 
L 2906 525 
Q 2725 213 2448 61 
Q 2172 -91 1784 -91 
Q 1150 -91 751 415 
Q 353 922 353 1747 
Q 353 2572 751 3078 
Q 1150 3584 1784 3584 
Q 2172 3584 2448 3432 
Q 2725 3281 2906 2969 
z
M 947 1747 
Q 947 1113 1208 752 
Q 1469 391 1925 391 
Q 2381 391 2643 752 
Q 2906 1113 2906 1747 
Q 2906 2381 2643 2742 
Q 2381 3103 1925 3103 
Q 1469 3103 1208 2742 
Q 947 2381 947 1747 
z
" transform="scale(0.015625)"/>
       <path id="DejaVuSans-69" d="M 603 3500 
L 1178 3500 
L 1178 0 
L 603 0 
L 603 3500 
z
M 603 4863 
L 1178 4863 
L 1178 4134 
L 603 4134 
L 603 4863 
z
" transform="scale(0.015625)"/>
       <path id="DejaVuSans-73" d="M 2834 3397 
L 2834 2853 
Q 2591 2978 2328 3040 
Q 2066 3103 1784 3103 
Q 1356 3103 1142 2972 
Q 928 2841 928 2578 
Q 928 2378 1081 2264 
Q 1234 2150 1697 2047 
L 1894 2003 
Q 2506 1872 2764 1633 
Q 3022 1394 3022 966 
Q 3022 478 2636 193 
Q 2250 -91 1575 -91 
Q 1294 -91 989 -36 
Q 684 19 347 128 
L 347 722 
Q 666 556 975 473 
Q 1284 391 1588 391 
Q 1994 391 2212 530 
Q 2431 669 2431 922 
Q 2431 1156 2273 1281 
Q 2116 1406 1581 1522 
L 1381 1569 
Q 847 1681 609 1914 
Q 372 2147 372 2553 
Q 372 3047 722 3315 
Q 1072 3584 1716 3584 
Q 2034 3584 2315 3537 
Q 2597 3491 2834 3397 
z
" transform="scale(0.015625)"/>
       <path id="DejaVuSans-74" d="M 1172 4494 
L 1172 3500 
L 2356 3500 
L 2356 3053 
L 1172 3053 
L 1172 1153 
Q 1172 725 1289 603 
Q 1406 481 1766 481 
L 2356 481 
L 2356 0 
L 1766 0 
Q 1100 0 847 248 
Q 594 497 594 1153 
L 594 3053 
L 172 3053 
L 172 3500 
L 594 3500 
L 594 4494 
L 1172 4494 
z
" transform="scale(0.015625)"/>
       <path id="DejaVuSans-72" d="M 2631 2963 
Q 2534 3019 2420 3045 
Q 2306 3072 2169 3072 
Q 1681 3072 1420 2755 
Q 1159 2438 1159 1844 
L 1159 0 
L 581 0 
L 581 3500 
L 1159 3500 
L 1159 2956 
Q 1341 3275 1631 3429 
Q 1922 3584 2338 3584 
Q 2397 3584 2469 3576 
Q 2541 3569 2628 3553 
L 2631 2963 
z
" transform="scale(0.015625)"/>
       <path id="DejaVuSans-62" d="M 3116 1747 
Q 3116 2381 2855 2742 
Q 2594 3103 2138 3103 
Q 1681 3103 1420 2742 
Q 1159 2381 1159 1747 
Q 1159 1113 1420 752 
Q 1681 391 2138 391 
Q 2594 391 2855 752 
Q 3116 1113 3116 1747 
z
M 1159 2969 
Q 1341 3281 1617 3432 
Q 1894 3584 2278 3584 
Q 2916 3584 3314 3078 
Q 3713 2572 3713 1747 
Q 3713 922 3314 415 
Q 2916 -91 2278 -91 
Q 1894 -91 1617 61 
Q 1341 213 1159 525 
L 1159 0 
L 581 0 
L 581 4863 
L 1159 4863 
L 1159 2969 
z
" transform="scale(0.015625)"/>
       <path id="DejaVuSans-6f" d="M 1959 3097 
Q 1497 3097 1228 2736 
Q 959 2375 959 1747 
Q 959 1119 1226 758 
Q 1494 397 1959 397 
Q 2419 397 2687 759 
Q 2956 1122 2956 1747 
Q 2956 2369 2687 2733 
Q 2419 3097 1959 3097 
z
M 1959 3584 
Q 2709 3584 3137 3096 
Q 3566 2609 3566 1747 
Q 3566 888 3137 398 
Q 2709 -91 1959 -91 
Q 1206 -91 779 398 
Q 353 888 353 1747 
Q 353 2609 779 3096 
Q 1206 3584 1959 3584 
z
" transform="scale(0.015625)"/>
       <path id="DejaVuSans-6e" d="M 3513 2113 
L 3513 0 
L 2938 0 
L 2938 2094 
Q 2938 2591 2744 2837 
Q 2550 3084 2163 3084 
Q 1697 3084 1428 2787 
Q 1159 2491 1159 1978 
L 1159 0 
L 581 0 
L 581 3500 
L 1159 3500 
L 1159 2956 
Q 1366 3272 1645 3428 
Q 1925 3584 2291 3584 
Q 2894 3584 3203 3211 
Q 3513 2838 3513 2113 
z
" transform="scale(0.015625)"/>
       <path id="DejaVuSans-31" d="M 794 531 
L 1825 531 
L 1825 4091 
L 703 3866 
L 703 4441 
L 1819 4666 
L 2450 4666 
L 2450 531 
L 3481 531 
L 3481 0 
L 794 0 
L 794 531 
z
" transform="scale(0.015625)"/>
       <path id="DejaVuSans-6d" d="M 3328 2828 
Q 3544 3216 3844 3400 
Q 4144 3584 4550 3584 
Q 5097 3584 5394 3201 
Q 5691 2819 5691 2113 
L 5691 0 
L 5113 0 
L 5113 2094 
Q 5113 2597 4934 2840 
Q 4756 3084 4391 3084 
Q 3944 3084 3684 2787 
Q 3425 2491 3425 1978 
L 3425 0 
L 2847 0 
L 2847 2094 
Q 2847 2600 2669 2842 
Q 2491 3084 2119 3084 
Q 1678 3084 1418 2786 
Q 1159 2488 1159 1978 
L 1159 0 
L 581 0 
L 581 3500 
L 1159 3500 
L 1159 2956 
Q 1356 3278 1631 3431 
Q 1906 3584 2284 3584 
Q 2666 3584 2933 3390 
Q 3200 3197 3328 2828 
z
" transform="scale(0.015625)"/>
       <path id="DejaVuSans-61" d="M 2194 1759 
Q 1497 1759 1228 1600 
Q 959 1441 959 1056 
Q 959 750 1161 570 
Q 1363 391 1709 391 
Q 2188 391 2477 730 
Q 2766 1069 2766 1631 
L 2766 1759 
L 2194 1759 
z
M 3341 1997 
L 3341 0 
L 2766 0 
L 2766 531 
Q 2569 213 2275 61 
Q 1981 -91 1556 -91 
Q 1019 -91 701 211 
Q 384 513 384 1019 
Q 384 1609 779 1909 
Q 1175 2209 1959 2209 
L 2766 2209 
L 2766 2266 
Q 2766 2663 2505 2880 
Q 2244 3097 1772 3097 
Q 1472 3097 1187 3025 
Q 903 2953 641 2809 
L 641 3341 
Q 956 3463 1253 3523 
Q 1550 3584 1831 3584 
Q 2591 3584 2966 3190 
Q 3341 2797 3341 1997 
z
" transform="scale(0.015625)"/>
      </defs>
      <use xlink:href="#DejaVuSans-4e" transform="translate(0 0.015625)"/>
      <use xlink:href="#DejaVuSans-75" transform="translate(74.804688 0.015625)"/>
      <use xlink:href="#DejaVuSans-6c" transform="translate(138.183594 0.015625)"/>
      <use xlink:href="#DejaVuSans-6c" transform="translate(165.966797 0.015625)"/>
      <use xlink:href="#DejaVuSans-20" transform="translate(193.75 0.015625)"/>
      <use xlink:href="#DejaVuSans-394" transform="translate(225.537109 0.015625)"/>
      <use xlink:href="#DejaVuSans-20" transform="translate(293.945312 0.015625)"/>
      <use xlink:href="#DejaVuSans-64" transform="translate(325.732422 0.015625)"/>
      <use xlink:href="#DejaVuSans-69" transform="translate(389.208984 0.015625)"/>
      <use xlink:href="#DejaVuSans-73" transform="translate(416.992188 0.015625)"/>
      <use xlink:href="#DejaVuSans-74" transform="translate(469.091797 0.015625)"/>
      <use xlink:href="#DejaVuSans-72" transform="translate(508.300781 0.015625)"/>
      <use xlink:href="#DejaVuSans-69" transform="translate(549.414062 0.015625)"/>
      <use xlink:href="#DejaVuSans-62" transform="translate(577.197266 0.015625)"/>
      <use xlink:href="#DejaVuSans-75" transform="translate(640.673828 0.015625)"/>
      <use xlink:href="#DejaVuSans-74" transform="translate(704.052734 0.015625)"/>
      <use xlink:href="#DejaVuSans-69" transform="translate(743.261719 0.015625)"/>
      <use xlink:href="#DejaVuSans-6f" transform="translate(771.044922 0.015625)"/>
      <use xlink:href="#DejaVuSans-6e" transform="translate(832.226562 0.015625)"/>
      <use xlink:href="#DejaVuSans-20" transform="translate(895.605469 0.015625)"/>
      <use xlink:href="#DejaVuSans-69" transform="translate(927.392578 0.015625)"/>
      <use xlink:href="#DejaVuSans-6e" transform="translate(955.175781 0.015625)"/>
      <use xlink:href="#DejaVuSans-20" transform="translate(1018.554688 0.015625)"/>
      <use xlink:href="#DejaVuSans-31" transform="translate(1050.341797 0.015625)"/>
      <use xlink:href="#DejaVuSans-30" transform="translate(1113.964844 0.015625)"/>
      <use xlink:href="#DejaVuSans-30" transform="translate(1177.587891 0.015625)"/>
      <use xlink:href="#DejaVuSans-30" transform="translate(1241.210938 0.015625)"/>
      <use xlink:href="#DejaVuSans-30" transform="translate(1304.833984 0.015625)"/>
      <use xlink:href="#DejaVuSans-20" transform="translate(1368.457031 0.015625)"/>
      <use xlink:href="#DejaVuSans-73" transform="translate(1400.244141 0.015625)"/>
      <use xlink:href="#DejaVuSans-69" transform="translate(1452.34375 0.015625)"/>
      <use xlink:href="#DejaVuSans-6d" transform="translate(1480.126953 0.015625)"/>
      <use xlink:href="#DejaVuSans-75" transform="translate(1577.539062 0.015625)"/>
      <use xlink:href="#DejaVuSans-6c" transform="translate(1640.917969 0.015625)"/>
      <use xlink:href="#DejaVuSans-61" transform="translate(1668.701172 0.015625)"/>
      <use xlink:href="#DejaVuSans-74" transform="translate(1729.980469 0.015625)"/>
      <use xlink:href="#DejaVuSans-69" transform="translate(1769.189453 0.015625)"/>
      <use xlink:href="#DejaVuSans-6f" transform="translate(1796.972656 0.015625)"/>
      <use xlink:href="#DejaVuSans-6e" transform="translate(1858.154297 0.015625)"/>
      <use xlink:href="#DejaVuSans-73" transform="translate(1921.533203 0.015625)"/>
     </g>
    </g>
   </g>
   <g id="matplotlib.axis_2">
    <g id="ytick_1">
     <g id="text_5">
      <!-- 0 -->
      <g style="fill: #262626" transform="translate(24.22875 185.588086)scale(0.077 -0.077)">
       <use xlink:href="#DejaVuSans-30"/>
      </g>
     </g>
    </g>
    <g id="ytick_2">
     <g id="text_6">
      <!-- 2 -->
      <g style="fill: #262626" transform="translate(24.22875 157.289871)scale(0.077 -0.077)">
       <use xlink:href="#DejaVuSans-32"/>
      </g>
     </g>
    </g>
    <g id="ytick_3">
     <g id="text_7">
      <!-- 4 -->
      <g style="fill: #262626" transform="translate(24.22875 128.991655)scale(0.077 -0.077)">
       <defs>
        <path id="DejaVuSans-34" d="M 2419 4116 
L 825 1625 
L 2419 1625 
L 2419 4116 
z
M 2253 4666 
L 3047 4666 
L 3047 1625 
L 3713 1625 
L 3713 1100 
L 3047 1100 
L 3047 0 
L 2419 0 
L 2419 1100 
L 313 1100 
L 313 1709 
L 2253 4666 
z
" transform="scale(0.015625)"/>
       </defs>
       <use xlink:href="#DejaVuSans-34"/>
      </g>
     </g>
    </g>
    <g id="ytick_4">
     <g id="text_8">
      <!-- 6 -->
      <g style="fill: #262626" transform="translate(24.22875 100.69344)scale(0.077 -0.077)">
       <defs>
        <path id="DejaVuSans-36" d="M 2113 2584 
Q 1688 2584 1439 2293 
Q 1191 2003 1191 1497 
Q 1191 994 1439 701 
Q 1688 409 2113 409 
Q 2538 409 2786 701 
Q 3034 994 3034 1497 
Q 3034 2003 2786 2293 
Q 2538 2584 2113 2584 
z
M 3366 4563 
L 3366 3988 
Q 3128 4100 2886 4159 
Q 2644 4219 2406 4219 
Q 1781 4219 1451 3797 
Q 1122 3375 1075 2522 
Q 1259 2794 1537 2939 
Q 1816 3084 2150 3084 
Q 2853 3084 3261 2657 
Q 3669 2231 3669 1497 
Q 3669 778 3244 343 
Q 2819 -91 2113 -91 
Q 1303 -91 875 529 
Q 447 1150 447 2328 
Q 447 3434 972 4092 
Q 1497 4750 2381 4750 
Q 2619 4750 2861 4703 
Q 3103 4656 3366 4563 
z
" transform="scale(0.015625)"/>
       </defs>
       <use xlink:href="#DejaVuSans-36"/>
      </g>
     </g>
    </g>
    <g id="ytick_5">
     <g id="text_9">
      <!-- 8 -->
      <g style="fill: #262626" transform="translate(24.22875 72.395225)scale(0.077 -0.077)">
       <defs>
        <path id="DejaVuSans-38" d="M 2034 2216 
Q 1584 2216 1326 1975 
Q 1069 1734 1069 1313 
Q 1069 891 1326 650 
Q 1584 409 2034 409 
Q 2484 409 2743 651 
Q 3003 894 3003 1313 
Q 3003 1734 2745 1975 
Q 2488 2216 2034 2216 
z
M 1403 2484 
Q 997 2584 770 2862 
Q 544 3141 544 3541 
Q 544 4100 942 4425 
Q 1341 4750 2034 4750 
Q 2731 4750 3128 4425 
Q 3525 4100 3525 3541 
Q 3525 3141 3298 2862 
Q 3072 2584 2669 2484 
Q 3125 2378 3379 2068 
Q 3634 1759 3634 1313 
Q 3634 634 3220 271 
Q 2806 -91 2034 -91 
Q 1263 -91 848 271 
Q 434 634 434 1313 
Q 434 1759 690 2068 
Q 947 2378 1403 2484 
z
M 1172 3481 
Q 1172 3119 1398 2916 
Q 1625 2713 2034 2713 
Q 2441 2713 2670 2916 
Q 2900 3119 2900 3481 
Q 2900 3844 2670 4047 
Q 2441 4250 2034 4250 
Q 1625 4250 1398 4047 
Q 1172 3844 1172 3481 
z
" transform="scale(0.015625)"/>
       </defs>
       <use xlink:href="#DejaVuSans-38"/>
      </g>
     </g>
    </g>
    <g id="ytick_6">
     <g id="text_10">
      <!-- 10 -->
      <g style="fill: #262626" transform="translate(19.329625 44.097009)scale(0.077 -0.077)">
       <use xlink:href="#DejaVuSans-31"/>
       <use xlink:href="#DejaVuSans-30" x="63.623047"/>
      </g>
     </g>
    </g>
    <g id="text_11">
     <!-- Density -->
     <g style="fill: #262626" transform="translate(13.582688 117.089906)rotate(-90)scale(0.084 -0.084)">
      <defs>
       <path id="DejaVuSans-44" d="M 1259 4147 
L 1259 519 
L 2022 519 
Q 2988 519 3436 956 
Q 3884 1394 3884 2338 
Q 3884 3275 3436 3711 
Q 2988 4147 2022 4147 
L 1259 4147 
z
M 628 4666 
L 1925 4666 
Q 3281 4666 3915 4102 
Q 4550 3538 4550 2338 
Q 4550 1131 3912 565 
Q 3275 0 1925 0 
L 628 0 
L 628 4666 
z
" transform="scale(0.015625)"/>
       <path id="DejaVuSans-65" d="M 3597 1894 
L 3597 1613 
L 953 1613 
Q 991 1019 1311 708 
Q 1631 397 2203 397 
Q 2534 397 2845 478 
Q 3156 559 3463 722 
L 3463 178 
Q 3153 47 2828 -22 
Q 2503 -91 2169 -91 
Q 1331 -91 842 396 
Q 353 884 353 1716 
Q 353 2575 817 3079 
Q 1281 3584 2069 3584 
Q 2775 3584 3186 3129 
Q 3597 2675 3597 1894 
z
M 3022 2063 
Q 3016 2534 2758 2815 
Q 2500 3097 2075 3097 
Q 1594 3097 1305 2825 
Q 1016 2553 972 2059 
L 3022 2063 
z
" transform="scale(0.015625)"/>
       <path id="DejaVuSans-79" d="M 2059 -325 
Q 1816 -950 1584 -1140 
Q 1353 -1331 966 -1331 
L 506 -1331 
L 506 -850 
L 844 -850 
Q 1081 -850 1212 -737 
Q 1344 -625 1503 -206 
L 1606 56 
L 191 3500 
L 800 3500 
L 1894 763 
L 2988 3500 
L 3597 3500 
L 2059 -325 
z
" transform="scale(0.015625)"/>
      </defs>
      <use xlink:href="#DejaVuSans-44"/>
      <use xlink:href="#DejaVuSans-65" x="77.001953"/>
      <use xlink:href="#DejaVuSans-6e" x="138.525391"/>
      <use xlink:href="#DejaVuSans-73" x="201.904297"/>
      <use xlink:href="#DejaVuSans-69" x="254.003906"/>
      <use xlink:href="#DejaVuSans-74" x="281.787109"/>
      <use xlink:href="#DejaVuSans-79" x="320.996094"/>
     </g>
    </g>
   </g>
   <g id="patch_3">
    <path d="M 47.7104 182.662688 
L 48.824233 182.662688 
L 48.824233 182.37613 
L 47.7104 182.37613 
z
" clip-path="url(#pfe68826638)" style="fill: #4c72b0; fill-opacity: 0.75"/>
   </g>
   <g id="patch_4">
    <path d="M 48.824233 182.662688 
L 49.938065 182.662688 
L 49.938065 182.662688 
L 48.824233 182.662688 
z
" clip-path="url(#pfe68826638)" style="fill: #4c72b0; fill-opacity: 0.75"/>
   </g>
   <g id="patch_5">
    <path d="M 49.938065 182.662688 
L 51.051898 182.662688 
L 51.051898 182.662688 
L 49.938065 182.662688 
z
" clip-path="url(#pfe68826638)" style="fill: #4c72b0; fill-opacity: 0.75"/>
   </g>
   <g id="patch_6">
    <path d="M 51.051898 182.662688 
L 52.165731 182.662688 
L 52.165731 182.662688 
L 51.051898 182.662688 
z
" clip-path="url(#pfe68826638)" style="fill: #4c72b0; fill-opacity: 0.75"/>
   </g>
   <g id="patch_7">
    <path d="M 52.165731 182.662688 
L 53.279563 182.662688 
L 53.279563 182.662688 
L 52.165731 182.662688 
z
" clip-path="url(#pfe68826638)" style="fill: #4c72b0; fill-opacity: 0.75"/>
   </g>
   <g id="patch_8">
    <path d="M 53.279563 182.662688 
L 54.393396 182.662688 
L 54.393396 182.662688 
L 53.279563 182.662688 
z
" clip-path="url(#pfe68826638)" style="fill: #4c72b0; fill-opacity: 0.75"/>
   </g>
   <g id="patch_9">
    <path d="M 54.393396 182.662688 
L 55.507229 182.662688 
L 55.507229 182.662688 
L 54.393396 182.662688 
z
" clip-path="url(#pfe68826638)" style="fill: #4c72b0; fill-opacity: 0.75"/>
   </g>
   <g id="patch_10">
    <path d="M 55.507229 182.662688 
L 56.621061 182.662688 
L 56.621061 182.37613 
L 55.507229 182.37613 
z
" clip-path="url(#pfe68826638)" style="fill: #4c72b0; fill-opacity: 0.75"/>
   </g>
   <g id="patch_11">
    <path d="M 56.621061 182.662688 
L 57.734894 182.662688 
L 57.734894 182.089572 
L 56.621061 182.089572 
z
" clip-path="url(#pfe68826638)" style="fill: #4c72b0; fill-opacity: 0.75"/>
   </g>
   <g id="patch_12">
    <path d="M 57.734894 182.662688 
L 58.848727 182.662688 
L 58.848727 182.089572 
L 57.734894 182.089572 
z
" clip-path="url(#pfe68826638)" style="fill: #4c72b0; fill-opacity: 0.75"/>
   </g>
   <g id="patch_13">
    <path d="M 58.848727 182.662688 
L 59.962559 182.662688 
L 59.962559 182.37613 
L 58.848727 182.37613 
z
" clip-path="url(#pfe68826638)" style="fill: #4c72b0; fill-opacity: 0.75"/>
   </g>
   <g id="patch_14">
    <path d="M 59.962559 182.662688 
L 61.076392 182.662688 
L 61.076392 181.516457 
L 59.962559 181.516457 
z
" clip-path="url(#pfe68826638)" style="fill: #4c72b0; fill-opacity: 0.75"/>
   </g>
   <g id="patch_15">
    <path d="M 61.076392 182.662688 
L 62.190225 182.662688 
L 62.190225 181.229899 
L 61.076392 181.229899 
z
" clip-path="url(#pfe68826638)" style="fill: #4c72b0; fill-opacity: 0.75"/>
   </g>
   <g id="patch_16">
    <path d="M 62.190225 182.662688 
L 63.304057 182.662688 
L 63.304057 179.510553 
L 62.190225 179.510553 
z
" clip-path="url(#pfe68826638)" style="fill: #4c72b0; fill-opacity: 0.75"/>
   </g>
   <g id="patch_17">
    <path d="M 63.304057 182.662688 
L 64.41789 182.662688 
L 64.41789 178.077764 
L 63.304057 178.077764 
z
" clip-path="url(#pfe68826638)" style="fill: #4c72b0; fill-opacity: 0.75"/>
   </g>
   <g id="patch_18">
    <path d="M 64.41789 182.662688 
L 65.531722 182.662688 
L 65.531722 178.364322 
L 64.41789 178.364322 
z
" clip-path="url(#pfe68826638)" style="fill: #4c72b0; fill-opacity: 0.75"/>
   </g>
   <g id="patch_19">
    <path d="M 65.531722 182.662688 
L 66.645555 182.662688 
L 66.645555 179.223995 
L 65.531722 179.223995 
z
" clip-path="url(#pfe68826638)" style="fill: #4c72b0; fill-opacity: 0.75"/>
   </g>
   <g id="patch_20">
    <path d="M 66.645555 182.662688 
L 67.759388 182.662688 
L 67.759388 171.200379 
L 66.645555 171.200379 
z
" clip-path="url(#pfe68826638)" style="fill: #4c72b0; fill-opacity: 0.75"/>
   </g>
   <g id="patch_21">
    <path d="M 67.759388 182.662688 
L 68.87322 182.662688 
L 68.87322 171.773494 
L 67.759388 171.773494 
z
" clip-path="url(#pfe68826638)" style="fill: #4c72b0; fill-opacity: 0.75"/>
   </g>
   <g id="patch_22">
    <path d="M 68.87322 182.662688 
L 69.987053 182.662688 
L 69.987053 168.334801 
L 68.87322 168.334801 
z
" clip-path="url(#pfe68826638)" style="fill: #4c72b0; fill-opacity: 0.75"/>
   </g>
   <g id="patch_23">
    <path d="M 69.987053 182.662688 
L 71.100886 182.662688 
L 71.100886 164.322993 
L 69.987053 164.322993 
z
" clip-path="url(#pfe68826638)" style="fill: #4c72b0; fill-opacity: 0.75"/>
   </g>
   <g id="patch_24">
    <path d="M 71.100886 182.662688 
L 72.214718 182.662688 
L 72.214718 160.597743 
L 71.100886 160.597743 
z
" clip-path="url(#pfe68826638)" style="fill: #4c72b0; fill-opacity: 0.75"/>
   </g>
   <g id="patch_25">
    <path d="M 72.214718 182.662688 
L 73.328551 182.662688 
L 73.328551 152.574127 
L 72.214718 152.574127 
z
" clip-path="url(#pfe68826638)" style="fill: #4c72b0; fill-opacity: 0.75"/>
   </g>
   <g id="patch_26">
    <path d="M 73.328551 182.662688 
L 74.442384 182.662688 
L 74.442384 154.293473 
L 73.328551 154.293473 
z
" clip-path="url(#pfe68826638)" style="fill: #4c72b0; fill-opacity: 0.75"/>
   </g>
   <g id="patch_27">
    <path d="M 74.442384 182.662688 
L 75.556216 182.662688 
L 75.556216 139.105914 
L 74.442384 139.105914 
z
" clip-path="url(#pfe68826638)" style="fill: #4c72b0; fill-opacity: 0.75"/>
   </g>
   <g id="patch_28">
    <path d="M 75.556216 182.662688 
L 76.670049 182.662688 
L 76.670049 139.965587 
L 75.556216 139.965587 
z
" clip-path="url(#pfe68826638)" style="fill: #4c72b0; fill-opacity: 0.75"/>
   </g>
   <g id="patch_29">
    <path d="M 76.670049 182.662688 
L 77.783882 182.662688 
L 77.783882 125.637701 
L 76.670049 125.637701 
z
" clip-path="url(#pfe68826638)" style="fill: #4c72b0; fill-opacity: 0.75"/>
   </g>
   <g id="patch_30">
    <path d="M 77.783882 182.662688 
L 78.897714 182.662688 
L 78.897714 112.742603 
L 77.783882 112.742603 
z
" clip-path="url(#pfe68826638)" style="fill: #4c72b0; fill-opacity: 0.75"/>
   </g>
   <g id="patch_31">
    <path d="M 78.897714 182.662688 
L 80.011547 182.662688 
L 80.011547 94.402909 
L 78.897714 94.402909 
z
" clip-path="url(#pfe68826638)" style="fill: #4c72b0; fill-opacity: 0.75"/>
   </g>
   <g id="patch_32">
    <path d="M 80.011547 182.662688 
L 81.12538 182.662688 
L 81.12538 93.829793 
L 80.011547 93.829793 
z
" clip-path="url(#pfe68826638)" style="fill: #4c72b0; fill-opacity: 0.75"/>
   </g>
   <g id="patch_33">
    <path d="M 81.12538 182.662688 
L 82.239212 182.662688 
L 82.239212 80.36158 
L 81.12538 80.36158 
z
" clip-path="url(#pfe68826638)" style="fill: #4c72b0; fill-opacity: 0.75"/>
   </g>
   <g id="patch_34">
    <path d="M 82.239212 182.662688 
L 83.353045 182.662688 
L 83.353045 72.624522 
L 82.239212 72.624522 
z
" clip-path="url(#pfe68826638)" style="fill: #4c72b0; fill-opacity: 0.75"/>
   </g>
   <g id="patch_35">
    <path d="M 83.353045 182.662688 
L 84.466878 182.662688 
L 84.466878 56.57729 
L 83.353045 56.57729 
z
" clip-path="url(#pfe68826638)" style="fill: #4c72b0; fill-opacity: 0.75"/>
   </g>
   <g id="patch_36">
    <path d="M 84.466878 182.662688 
L 85.58071 182.662688 
L 85.58071 55.144501 
L 84.466878 55.144501 
z
" clip-path="url(#pfe68826638)" style="fill: #4c72b0; fill-opacity: 0.75"/>
   </g>
   <g id="patch_37">
    <path d="M 85.58071 182.662688 
L 86.694543 182.662688 
L 86.694543 48.840231 
L 85.58071 48.840231 
z
" clip-path="url(#pfe68826638)" style="fill: #4c72b0; fill-opacity: 0.75"/>
   </g>
   <g id="patch_38">
    <path d="M 86.694543 182.662688 
L 87.808376 182.662688 
L 87.808376 46.834327 
L 86.694543 46.834327 
z
" clip-path="url(#pfe68826638)" style="fill: #4c72b0; fill-opacity: 0.75"/>
   </g>
   <g id="patch_39">
    <path d="M 87.808376 182.662688 
L 88.922208 182.662688 
L 88.922208 45.114981 
L 87.808376 45.114981 
z
" clip-path="url(#pfe68826638)" style="fill: #4c72b0; fill-opacity: 0.75"/>
   </g>
   <g id="patch_40">
    <path d="M 88.922208 182.662688 
L 90.036041 182.662688 
L 90.036041 27.348402 
L 88.922208 27.348402 
z
" clip-path="url(#pfe68826638)" style="fill: #4c72b0; fill-opacity: 0.75"/>
   </g>
   <g id="patch_41">
    <path d="M 90.036041 182.662688 
L 91.149874 182.662688 
L 91.149874 46.834327 
L 90.036041 46.834327 
z
" clip-path="url(#pfe68826638)" style="fill: #4c72b0; fill-opacity: 0.75"/>
   </g>
   <g id="patch_42">
    <path d="M 91.149874 182.662688 
L 92.263706 182.662688 
L 92.263706 49.699904 
L 91.149874 49.699904 
z
" clip-path="url(#pfe68826638)" style="fill: #4c72b0; fill-opacity: 0.75"/>
   </g>
   <g id="patch_43">
    <path d="M 92.263706 182.662688 
L 93.377539 182.662688 
L 93.377539 51.992366 
L 92.263706 51.992366 
z
" clip-path="url(#pfe68826638)" style="fill: #4c72b0; fill-opacity: 0.75"/>
   </g>
   <g id="patch_44">
    <path d="M 93.377539 182.662688 
L 94.491372 182.662688 
L 94.491372 62.595002 
L 93.377539 62.595002 
z
" clip-path="url(#pfe68826638)" style="fill: #4c72b0; fill-opacity: 0.75"/>
   </g>
   <g id="patch_45">
    <path d="M 94.491372 182.662688 
L 95.605204 182.662688 
L 95.605204 70.905176 
L 94.491372 70.905176 
z
" clip-path="url(#pfe68826638)" style="fill: #4c72b0; fill-opacity: 0.75"/>
   </g>
   <g id="patch_46">
    <path d="M 95.605204 182.662688 
L 96.719037 182.662688 
L 96.719037 74.630426 
L 95.605204 74.630426 
z
" clip-path="url(#pfe68826638)" style="fill: #4c72b0; fill-opacity: 0.75"/>
   </g>
   <g id="patch_47">
    <path d="M 96.719037 182.662688 
L 97.83287 182.662688 
L 97.83287 88.671754 
L 96.719037 88.671754 
z
" clip-path="url(#pfe68826638)" style="fill: #4c72b0; fill-opacity: 0.75"/>
   </g>
   <g id="patch_48">
    <path d="M 97.83287 182.662688 
L 98.946702 182.662688 
L 98.946702 98.414717 
L 97.83287 98.414717 
z
" clip-path="url(#pfe68826638)" style="fill: #4c72b0; fill-opacity: 0.75"/>
   </g>
   <g id="patch_49">
    <path d="M 98.946702 182.662688 
L 100.060535 182.662688 
L 100.060535 106.724891 
L 98.946702 106.724891 
z
" clip-path="url(#pfe68826638)" style="fill: #4c72b0; fill-opacity: 0.75"/>
   </g>
   <g id="patch_50">
    <path d="M 100.060535 182.662688 
L 101.174368 182.662688 
L 101.174368 122.485566 
L 100.060535 122.485566 
z
" clip-path="url(#pfe68826638)" style="fill: #4c72b0; fill-opacity: 0.75"/>
   </g>
   <g id="patch_51">
    <path d="M 101.174368 182.662688 
L 102.2882 182.662688 
L 102.2882 131.082297 
L 101.174368 131.082297 
z
" clip-path="url(#pfe68826638)" style="fill: #4c72b0; fill-opacity: 0.75"/>
   </g>
   <g id="patch_52">
    <path d="M 102.2882 182.662688 
L 103.402033 182.662688 
L 103.402033 143.117722 
L 102.2882 143.117722 
z
" clip-path="url(#pfe68826638)" style="fill: #4c72b0; fill-opacity: 0.75"/>
   </g>
   <g id="patch_53">
    <path d="M 103.402033 182.662688 
L 104.515866 182.662688 
L 104.515866 146.842972 
L 103.402033 146.842972 
z
" clip-path="url(#pfe68826638)" style="fill: #4c72b0; fill-opacity: 0.75"/>
   </g>
   <g id="patch_54">
    <path d="M 104.515866 182.662688 
L 105.629698 182.662688 
L 105.629698 157.445608 
L 104.515866 157.445608 
z
" clip-path="url(#pfe68826638)" style="fill: #4c72b0; fill-opacity: 0.75"/>
   </g>
   <g id="patch_55">
    <path d="M 105.629698 182.662688 
L 106.743531 182.662688 
L 106.743531 157.445608 
L 105.629698 157.445608 
z
" clip-path="url(#pfe68826638)" style="fill: #4c72b0; fill-opacity: 0.75"/>
   </g>
   <g id="patch_56">
    <path d="M 106.743531 182.662688 
L 107.857364 182.662688 
L 107.857364 163.176762 
L 106.743531 163.176762 
z
" clip-path="url(#pfe68826638)" style="fill: #4c72b0; fill-opacity: 0.75"/>
   </g>
   <g id="patch_57">
    <path d="M 107.857364 182.662688 
L 108.971196 182.662688 
L 108.971196 173.206283 
L 107.857364 173.206283 
z
" clip-path="url(#pfe68826638)" style="fill: #4c72b0; fill-opacity: 0.75"/>
   </g>
   <g id="patch_58">
    <path d="M 108.971196 182.662688 
L 110.085029 182.662688 
L 110.085029 174.065956 
L 108.971196 174.065956 
z
" clip-path="url(#pfe68826638)" style="fill: #4c72b0; fill-opacity: 0.75"/>
   </g>
   <g id="patch_59">
    <path d="M 110.085029 182.662688 
L 111.198862 182.662688 
L 111.198862 175.785302 
L 110.085029 175.785302 
z
" clip-path="url(#pfe68826638)" style="fill: #4c72b0; fill-opacity: 0.75"/>
   </g>
   <g id="patch_60">
    <path d="M 111.198862 182.662688 
L 112.312694 182.662688 
L 112.312694 178.077764 
L 111.198862 178.077764 
z
" clip-path="url(#pfe68826638)" style="fill: #4c72b0; fill-opacity: 0.75"/>
   </g>
   <g id="patch_61">
    <path d="M 112.312694 182.662688 
L 113.426527 182.662688 
L 113.426527 178.937437 
L 112.312694 178.937437 
z
" clip-path="url(#pfe68826638)" style="fill: #4c72b0; fill-opacity: 0.75"/>
   </g>
   <g id="patch_62">
    <path d="M 113.426527 182.662688 
L 114.54036 182.662688 
L 114.54036 180.083668 
L 113.426527 180.083668 
z
" clip-path="url(#pfe68826638)" style="fill: #4c72b0; fill-opacity: 0.75"/>
   </g>
   <g id="patch_63">
    <path d="M 114.54036 182.662688 
L 115.654192 182.662688 
L 115.654192 180.656783 
L 114.54036 180.656783 
z
" clip-path="url(#pfe68826638)" style="fill: #4c72b0; fill-opacity: 0.75"/>
   </g>
   <g id="patch_64">
    <path d="M 115.654192 182.662688 
L 116.768025 182.662688 
L 116.768025 182.37613 
L 115.654192 182.37613 
z
" clip-path="url(#pfe68826638)" style="fill: #4c72b0; fill-opacity: 0.75"/>
   </g>
   <g id="patch_65">
    <path d="M 116.768025 182.662688 
L 117.881858 182.662688 
L 117.881858 181.803014 
L 116.768025 181.803014 
z
" clip-path="url(#pfe68826638)" style="fill: #4c72b0; fill-opacity: 0.75"/>
   </g>
   <g id="patch_66">
    <path d="M 117.881858 182.662688 
L 118.99569 182.662688 
L 118.99569 182.37613 
L 117.881858 182.37613 
z
" clip-path="url(#pfe68826638)" style="fill: #4c72b0; fill-opacity: 0.75"/>
   </g>
   <g id="patch_67">
    <path d="M 118.99569 182.662688 
L 120.109523 182.662688 
L 120.109523 182.089572 
L 118.99569 182.089572 
z
" clip-path="url(#pfe68826638)" style="fill: #4c72b0; fill-opacity: 0.75"/>
   </g>
   <g id="patch_68">
    <path d="M 120.109523 182.662688 
L 121.223356 182.662688 
L 121.223356 182.37613 
L 120.109523 182.37613 
z
" clip-path="url(#pfe68826638)" style="fill: #4c72b0; fill-opacity: 0.75"/>
   </g>
   <g id="patch_69">
    <path d="M 121.223356 182.662688 
L 122.337188 182.662688 
L 122.337188 182.37613 
L 121.223356 182.37613 
z
" clip-path="url(#pfe68826638)" style="fill: #4c72b0; fill-opacity: 0.75"/>
   </g>
   <g id="patch_70">
    <path d="M 122.337188 182.662688 
L 123.451021 182.662688 
L 123.451021 182.662688 
L 122.337188 182.662688 
z
" clip-path="url(#pfe68826638)" style="fill: #4c72b0; fill-opacity: 0.75"/>
   </g>
   <g id="patch_71">
    <path d="M 123.451021 182.662688 
L 124.564854 182.662688 
L 124.564854 182.662688 
L 123.451021 182.662688 
z
" clip-path="url(#pfe68826638)" style="fill: #4c72b0; fill-opacity: 0.75"/>
   </g>
   <g id="patch_72">
    <path d="M 124.564854 182.662688 
L 125.678686 182.662688 
L 125.678686 182.662688 
L 124.564854 182.662688 
z
" clip-path="url(#pfe68826638)" style="fill: #4c72b0; fill-opacity: 0.75"/>
   </g>
   <g id="patch_73">
    <path d="M 125.678686 182.662688 
L 126.792519 182.662688 
L 126.792519 182.662688 
L 125.678686 182.662688 
z
" clip-path="url(#pfe68826638)" style="fill: #4c72b0; fill-opacity: 0.75"/>
   </g>
   <g id="patch_74">
    <path d="M 126.792519 182.662688 
L 127.906352 182.662688 
L 127.906352 182.37613 
L 126.792519 182.37613 
z
" clip-path="url(#pfe68826638)" style="fill: #4c72b0; fill-opacity: 0.75"/>
   </g>
   <g id="line2d_1">
    <path d="M 43.700602 182.662268 
L 55.081546 182.548675 
L 57.948838 182.299913 
L 59.872129 181.918158 
L 61.371943 181.399463 
L 62.651197 180.723177 
L 63.798114 179.863004 
L 64.865629 178.780372 
L 65.897854 177.408413 
L 66.912434 175.67928 
L 67.927014 173.499433 
L 68.959239 170.740239 
L 70.026754 167.227124 
L 71.129559 162.805899 
L 72.29412 157.178292 
L 73.529262 150.065146 
L 74.870272 140.984516 
L 76.370086 129.238417 
L 78.196331 113.064686 
L 83.957382 60.590196 
L 85.166056 52.342231 
L 86.154169 47.034294 
L 86.974655 43.753522 
L 87.653983 41.874041 
L 88.209797 40.925108 
L 88.650919 40.557447 
L 89.021461 40.514566 
L 89.383181 40.707222 
L 89.789013 41.197958 
L 90.274247 42.161598 
L 90.856528 43.848107 
L 91.5535 46.598385 
L 92.382809 50.843936 
L 93.370922 57.142574 
L 94.579596 66.379644 
L 96.176457 80.443647 
L 102.325696 136.422406 
L 103.851977 147.360452 
L 105.219455 155.618777 
L 106.489886 161.986077 
L 107.689737 166.910385 
L 108.836654 170.719079 
L 109.948281 173.671225 
L 111.033441 175.948265 
L 112.109778 177.709085 
L 113.194938 179.070142 
L 114.315388 180.123719 
L 115.497594 180.931932 
L 116.794492 181.548479 
L 118.294307 182.010433 
L 120.147018 182.338841 
L 122.68788 182.547049 
L 127.010874 182.64602 
L 131.916149 182.661292 
L 131.916149 182.661292 
" clip-path="url(#pfe68826638)" style="fill: none; stroke: #1a1a1a; stroke-width: 2; stroke-linecap: round"/>
   </g>
   <g id="line2d_2">
    <path d="M 145.155148 182.662688 
L 145.155148 19.582687 
" clip-path="url(#pfe68826638)" style="fill: none; stroke: #ff0000; stroke-width: 1.5; stroke-linecap: round"/>
   </g>
   <g id="patch_75">
    <path d="M 38.627875 182.662688 
L 38.627875 19.582687 
" style="fill: none; stroke: #262626; stroke-width: 1.25; stroke-linejoin: miter; stroke-linecap: square"/>
   </g>
   <g id="patch_76">
    <path d="M 150.227875 182.662688 
L 150.227875 19.582687 
" style="fill: none; stroke: #262626; stroke-width: 1.25; stroke-linejoin: miter; stroke-linecap: square"/>
   </g>
   <g id="patch_77">
    <path d="M 38.627875 182.662688 
L 150.227875 182.662688 
" style="fill: none; stroke: #262626; stroke-width: 1.25; stroke-linejoin: miter; stroke-linecap: square"/>
   </g>
   <g id="patch_78">
    <path d="M 38.627875 19.582687 
L 150.227875 19.582687 
" style="fill: none; stroke: #262626; stroke-width: 1.25; stroke-linejoin: miter; stroke-linecap: square"/>
   </g>
   <g id="text_12">
    <!-- Observed $\Delta$ = 0.250 -->
    <g style="fill: #262626" transform="translate(141.117283 102.335062)rotate(-90)scale(0.058296 -0.058296)">
     <defs>
      <path id="DejaVuSans-4f" d="M 2522 4238 
Q 1834 4238 1429 3725 
Q 1025 3213 1025 2328 
Q 1025 1447 1429 934 
Q 1834 422 2522 422 
Q 3209 422 3611 934 
Q 4013 1447 4013 2328 
Q 4013 3213 3611 3725 
Q 3209 4238 2522 4238 
z
M 2522 4750 
Q 3503 4750 4090 4092 
Q 4678 3434 4678 2328 
Q 4678 1225 4090 567 
Q 3503 -91 2522 -91 
Q 1538 -91 948 565 
Q 359 1222 359 2328 
Q 359 3434 948 4092 
Q 1538 4750 2522 4750 
z
" transform="scale(0.015625)"/>
      <path id="DejaVuSans-76" d="M 191 3500 
L 800 3500 
L 1894 563 
L 2988 3500 
L 3597 3500 
L 2284 0 
L 1503 0 
L 191 3500 
z
" transform="scale(0.015625)"/>
      <path id="DejaVuSans-3d" d="M 678 2906 
L 4684 2906 
L 4684 2381 
L 678 2381 
L 678 2906 
z
M 678 1631 
L 4684 1631 
L 4684 1100 
L 678 1100 
L 678 1631 
z
" transform="scale(0.015625)"/>
      <path id="DejaVuSans-35" d="M 691 4666 
L 3169 4666 
L 3169 4134 
L 1269 4134 
L 1269 2991 
Q 1406 3038 1543 3061 
Q 1681 3084 1819 3084 
Q 2600 3084 3056 2656 
Q 3513 2228 3513 1497 
Q 3513 744 3044 326 
Q 2575 -91 1722 -91 
Q 1428 -91 1123 -41 
Q 819 9 494 109 
L 494 744 
Q 775 591 1075 516 
Q 1375 441 1709 441 
Q 2250 441 2565 725 
Q 2881 1009 2881 1497 
Q 2881 1984 2565 2268 
Q 2250 2553 1709 2553 
Q 1456 2553 1204 2497 
Q 953 2441 691 2322 
L 691 4666 
z
" transform="scale(0.015625)"/>
     </defs>
     <use xlink:href="#DejaVuSans-4f" transform="translate(0 0.015625)"/>
     <use xlink:href="#DejaVuSans-62" transform="translate(78.710938 0.015625)"/>
     <use xlink:href="#DejaVuSans-73" transform="translate(142.1875 0.015625)"/>
     <use xlink:href="#DejaVuSans-65" transform="translate(194.287109 0.015625)"/>
     <use xlink:href="#DejaVuSans-72" transform="translate(255.810547 0.015625)"/>
     <use xlink:href="#DejaVuSans-76" transform="translate(296.923828 0.015625)"/>
     <use xlink:href="#DejaVuSans-65" transform="translate(356.103516 0.015625)"/>
     <use xlink:href="#DejaVuSans-64" transform="translate(417.626953 0.015625)"/>
     <use xlink:href="#DejaVuSans-20" transform="translate(481.103516 0.015625)"/>
     <use xlink:href="#DejaVuSans-394" transform="translate(512.890625 0.015625)"/>
     <use xlink:href="#DejaVuSans-20" transform="translate(581.298828 0.015625)"/>
     <use xlink:href="#DejaVuSans-3d" transform="translate(613.085938 0.015625)"/>
     <use xlink:href="#DejaVuSans-20" transform="translate(696.875 0.015625)"/>
     <use xlink:href="#DejaVuSans-30" transform="translate(728.662109 0.015625)"/>
     <use xlink:href="#DejaVuSans-2e" transform="translate(792.285156 0.015625)"/>
     <use xlink:href="#DejaVuSans-32" transform="translate(818.572266 0.015625)"/>
     <use xlink:href="#DejaVuSans-35" transform="translate(882.195312 0.015625)"/>
     <use xlink:href="#DejaVuSans-30" transform="translate(945.818359 0.015625)"/>
    </g>
   </g>
   <g id="text_13">
    <!-- Unstructured Shuffling -->
    <g style="fill: #262626" transform="translate(47.025625 13.582687)scale(0.084 -0.084)">
     <defs>
      <path id="DejaVuSans-55" d="M 556 4666 
L 1191 4666 
L 1191 1831 
Q 1191 1081 1462 751 
Q 1734 422 2344 422 
Q 2950 422 3222 751 
Q 3494 1081 3494 1831 
L 3494 4666 
L 4128 4666 
L 4128 1753 
Q 4128 841 3676 375 
Q 3225 -91 2344 -91 
Q 1459 -91 1007 375 
Q 556 841 556 1753 
L 556 4666 
z
" transform="scale(0.015625)"/>
      <path id="DejaVuSans-63" d="M 3122 3366 
L 3122 2828 
Q 2878 2963 2633 3030 
Q 2388 3097 2138 3097 
Q 1578 3097 1268 2742 
Q 959 2388 959 1747 
Q 959 1106 1268 751 
Q 1578 397 2138 397 
Q 2388 397 2633 464 
Q 2878 531 3122 666 
L 3122 134 
Q 2881 22 2623 -34 
Q 2366 -91 2075 -91 
Q 1284 -91 818 406 
Q 353 903 353 1747 
Q 353 2603 823 3093 
Q 1294 3584 2113 3584 
Q 2378 3584 2631 3529 
Q 2884 3475 3122 3366 
z
" transform="scale(0.015625)"/>
      <path id="DejaVuSans-53" d="M 3425 4513 
L 3425 3897 
Q 3066 4069 2747 4153 
Q 2428 4238 2131 4238 
Q 1616 4238 1336 4038 
Q 1056 3838 1056 3469 
Q 1056 3159 1242 3001 
Q 1428 2844 1947 2747 
L 2328 2669 
Q 3034 2534 3370 2195 
Q 3706 1856 3706 1288 
Q 3706 609 3251 259 
Q 2797 -91 1919 -91 
Q 1588 -91 1214 -16 
Q 841 59 441 206 
L 441 856 
Q 825 641 1194 531 
Q 1563 422 1919 422 
Q 2459 422 2753 634 
Q 3047 847 3047 1241 
Q 3047 1584 2836 1778 
Q 2625 1972 2144 2069 
L 1759 2144 
Q 1053 2284 737 2584 
Q 422 2884 422 3419 
Q 422 4038 858 4394 
Q 1294 4750 2059 4750 
Q 2388 4750 2728 4690 
Q 3069 4631 3425 4513 
z
" transform="scale(0.015625)"/>
      <path id="DejaVuSans-68" d="M 3513 2113 
L 3513 0 
L 2938 0 
L 2938 2094 
Q 2938 2591 2744 2837 
Q 2550 3084 2163 3084 
Q 1697 3084 1428 2787 
Q 1159 2491 1159 1978 
L 1159 0 
L 581 0 
L 581 4863 
L 1159 4863 
L 1159 2956 
Q 1366 3272 1645 3428 
Q 1925 3584 2291 3584 
Q 2894 3584 3203 3211 
Q 3513 2838 3513 2113 
z
" transform="scale(0.015625)"/>
      <path id="DejaVuSans-66" d="M 2375 4863 
L 2375 4384 
L 1825 4384 
Q 1516 4384 1395 4259 
Q 1275 4134 1275 3809 
L 1275 3500 
L 2222 3500 
L 2222 3053 
L 1275 3053 
L 1275 0 
L 697 0 
L 697 3053 
L 147 3053 
L 147 3500 
L 697 3500 
L 697 3744 
Q 697 4328 969 4595 
Q 1241 4863 1831 4863 
L 2375 4863 
z
" transform="scale(0.015625)"/>
      <path id="DejaVuSans-67" d="M 2906 1791 
Q 2906 2416 2648 2759 
Q 2391 3103 1925 3103 
Q 1463 3103 1205 2759 
Q 947 2416 947 1791 
Q 947 1169 1205 825 
Q 1463 481 1925 481 
Q 2391 481 2648 825 
Q 2906 1169 2906 1791 
z
M 3481 434 
Q 3481 -459 3084 -895 
Q 2688 -1331 1869 -1331 
Q 1566 -1331 1297 -1286 
Q 1028 -1241 775 -1147 
L 775 -588 
Q 1028 -725 1275 -790 
Q 1522 -856 1778 -856 
Q 2344 -856 2625 -561 
Q 2906 -266 2906 331 
L 2906 616 
Q 2728 306 2450 153 
Q 2172 0 1784 0 
Q 1141 0 747 490 
Q 353 981 353 1791 
Q 353 2603 747 3093 
Q 1141 3584 1784 3584 
Q 2172 3584 2450 3431 
Q 2728 3278 2906 2969 
L 2906 3500 
L 3481 3500 
L 3481 434 
z
" transform="scale(0.015625)"/>
     </defs>
     <use xlink:href="#DejaVuSans-55"/>
     <use xlink:href="#DejaVuSans-6e" x="73.193359"/>
     <use xlink:href="#DejaVuSans-73" x="136.572266"/>
     <use xlink:href="#DejaVuSans-74" x="188.671875"/>
     <use xlink:href="#DejaVuSans-72" x="227.880859"/>
     <use xlink:href="#DejaVuSans-75" x="268.994141"/>
     <use xlink:href="#DejaVuSans-63" x="332.373047"/>
     <use xlink:href="#DejaVuSans-74" x="387.353516"/>
     <use xlink:href="#DejaVuSans-75" x="426.5625"/>
     <use xlink:href="#DejaVuSans-72" x="489.941406"/>
     <use xlink:href="#DejaVuSans-65" x="528.804688"/>
     <use xlink:href="#DejaVuSans-64" x="590.328125"/>
     <use xlink:href="#DejaVuSans-20" x="653.804688"/>
     <use xlink:href="#DejaVuSans-53" x="685.591797"/>
     <use xlink:href="#DejaVuSans-68" x="749.068359"/>
     <use xlink:href="#DejaVuSans-75" x="812.447266"/>
     <use xlink:href="#DejaVuSans-66" x="875.826172"/>
     <use xlink:href="#DejaVuSans-66" x="911.03125"/>
     <use xlink:href="#DejaVuSans-6c" x="946.236328"/>
     <use xlink:href="#DejaVuSans-69" x="974.019531"/>
     <use xlink:href="#DejaVuSans-6e" x="1001.802734"/>
     <use xlink:href="#DejaVuSans-67" x="1065.181641"/>
    </g>
   </g>
  </g>
 </g>
 <defs>
  <clipPath id="pfe68826638">
   <rect x="38.627875" y="19.582687" width="111.6" height="163.08"/>
  </clipPath>
 </defs>
</svg>
