<?xml version="1.0" encoding="utf-8" standalone="no"?>
<!DOCTYPE svg PUBLIC "-//W3C//DTD SVG 1.1//EN"
  "http://www.w3.org/Graphics/SVG/1.1/DTD/svg11.dtd">
<svg xmlns:xlink="http://www.w3.org/1999/xlink" width="189.435pt" height="222.184469pt" viewBox="0 0 189.435 222.184469" xmlns="http://www.w3.org/2000/svg" version="1.1">
 <metadata>
  <rdf:RDF xmlns:dc="http://purl.org/dc/elements/1.1/" xmlns:cc="http://creativecommons.org/ns#" xmlns:rdf="http://www.w3.org/1999/02/22-rdf-syntax-ns#">
   <cc:Work>
    <dc:type rdf:resource="http://purl.org/dc/dcmitype/StillImage"/>
    <dc:date>2023-06-03T01:37:19.738028</dc:date>
    <dc:format>image/svg+xml</dc:format>
    <dc:creator>
     <cc:Agent>
      <dc:title>Matplotlib v3.5.2, https://matplotlib.org/</dc:title>
     </cc:Agent>
    </dc:creator>
   </cc:Work>
  </rdf:RDF>
 </metadata>
 <defs>
  <style type="text/css">*{stroke-linejoin: round; stroke-linecap: butt}</style>
 </defs>
 <g id="figure_1">
  <g id="patch_1">
   <path d="M 0 222.184469 
L 189.435 222.184469 
L 189.435 0 
L 0 0 
z
" style="fill: #ffffff"/>
  </g>
  <g id="axes_1">
   <g id="patch_2">
    <path d="M 43.527 185.902688 
L 155.127 185.902688 
L 155.127 19.582687 
L 43.527 19.582687 
z
" style="fill: #ffffff"/>
   </g>
   <g id="matplotlib.axis_1">
    <g id="xtick_1">
     <g id="text_1">
      <!-- 0.0 -->
      <g style="fill: #262626" transform="translate(51.480566 201.253484)scale(0.077 -0.077)">
       <defs>
        <path id="DejaVuSans-30" d="M 2034 4250 
Q 1547 4250 1301 3770 
Q 1056 3291 1056 2328 
Q 1056 1369 1301 889 
Q 1547 409 2034 409 
Q 2525 409 2770 889 
Q 3016 1369 3016 2328 
Q 3016 3291 2770 3770 
Q 2525 4250 2034 4250 
z
M 2034 4750 
Q 2819 4750 3233 4129 
Q 3647 3509 3647 2328 
Q 3647 1150 3233 529 
Q 2819 -91 2034 -91 
Q 1250 -91 836 529 
Q 422 1150 422 2328 
Q 422 3509 836 4129 
Q 1250 4750 2034 4750 
z
" transform="scale(0.015625)"/>
        <path id="DejaVuSans-2e" d="M 684 794 
L 1344 794 
L 1344 0 
L 684 0 
L 684 794 
z
" transform="scale(0.015625)"/>
       </defs>
       <use xlink:href="#DejaVuSans-30"/>
       <use xlink:href="#DejaVuSans-2e" x="63.623047"/>
       <use xlink:href="#DejaVuSans-30" x="95.410156"/>
      </g>
     </g>
    </g>
    <g id="xtick_2">
     <g id="text_2">
      <!-- 0.2 -->
      <g style="fill: #262626" transform="translate(104.184226 201.253484)scale(0.077 -0.077)">
       <defs>
        <path id="DejaVuSans-32" d="M 1228 531 
L 3431 531 
L 3431 0 
L 469 0 
L 469 531 
Q 828 903 1448 1529 
Q 2069 2156 2228 2338 
Q 2531 2678 2651 2914 
Q 2772 3150 2772 3378 
Q 2772 3750 2511 3984 
Q 2250 4219 1831 4219 
Q 1534 4219 1204 4116 
Q 875 4013 500 3803 
L 500 4441 
Q 881 4594 1212 4672 
Q 1544 4750 1819 4750 
Q 2544 4750 2975 4387 
Q 3406 4025 3406 3419 
Q 3406 3131 3298 2873 
Q 3191 2616 2906 2266 
Q 2828 2175 2409 1742 
Q 1991 1309 1228 531 
z
" transform="scale(0.015625)"/>
       </defs>
       <use xlink:href="#DejaVuSans-30"/>
       <use xlink:href="#DejaVuSans-2e" x="63.623047"/>
       <use xlink:href="#DejaVuSans-32" x="95.410156"/>
      </g>
     </g>
    </g>
    <g id="text_3">
     <!-- Null $\Delta$ distribution in 10000 simulations -->
     <g style="fill: #262626" transform="translate(16.419 213.237531)scale(0.084 -0.084)">
      <defs>
       <path id="DejaVuSans-4e" d="M 628 4666 
L 1478 4666 
L 3547 763 
L 3547 4666 
L 4159 4666 
L 4159 0 
L 3309 0 
L 1241 3903 
L 1241 0 
L 628 0 
L 628 4666 
z
" transform="scale(0.015625)"/>
       <path id="DejaVuSans-75" d="M 544 1381 
L 544 3500 
L 1119 3500 
L 1119 1403 
Q 1119 906 1312 657 
Q 1506 409 1894 409 
Q 2359 409 2629 706 
Q 2900 1003 2900 1516 
L 2900 3500 
L 3475 3500 
L 3475 0 
L 2900 0 
L 2900 538 
Q 2691 219 2414 64 
Q 2138 -91 1772 -91 
Q 1169 -91 856 284 
Q 544 659 544 1381 
z
M 1991 3584 
L 1991 3584 
z
" transform="scale(0.015625)"/>
       <path id="DejaVuSans-6c" d="M 603 4863 
L 1178 4863 
L 1178 0 
L 603 0 
L 603 4863 
z
" transform="scale(0.015625)"/>
       <path id="DejaVuSans-20" transform="scale(0.015625)"/>
       <path id="DejaVuSans-394" d="M 2188 4044 
L 906 525 
L 3472 525 
L 2188 4044 
z
M 50 0 
L 1831 4666 
L 2547 4666 
L 4325 0 
L 50 0 
z
" transform="scale(0.015625)"/>
       <path id="DejaVuSans-64" d="M 2906 2969 
L 2906 4863 
L 3481 4863 
L 3481 0 
L 2906 0 
L 2906 525 
Q 2725 213 2448 61 
Q 2172 -91 1784 -91 
Q 1150 -91 751 415 
Q 353 922 353 1747 
Q 353 2572 751 3078 
Q 1150 3584 1784 3584 
Q 2172 3584 2448 3432 
Q 2725 3281 2906 2969 
z
M 947 1747 
Q 947 1113 1208 752 
Q 1469 391 1925 391 
Q 2381 391 2643 752 
Q 2906 1113 2906 1747 
Q 2906 2381 2643 2742 
Q 2381 3103 1925 3103 
Q 1469 3103 1208 2742 
Q 947 2381 947 1747 
z
" transform="scale(0.015625)"/>
       <path id="DejaVuSans-69" d="M 603 3500 
L 1178 3500 
L 1178 0 
L 603 0 
L 603 3500 
z
M 603 4863 
L 1178 4863 
L 1178 4134 
L 603 4134 
L 603 4863 
z
" transform="scale(0.015625)"/>
       <path id="DejaVuSans-73" d="M 2834 3397 
L 2834 2853 
Q 2591 2978 2328 3040 
Q 2066 3103 1784 3103 
Q 1356 3103 1142 2972 
Q 928 2841 928 2578 
Q 928 2378 1081 2264 
Q 1234 2150 1697 2047 
L 1894 2003 
Q 2506 1872 2764 1633 
Q 3022 1394 3022 966 
Q 3022 478 2636 193 
Q 2250 -91 1575 -91 
Q 1294 -91 989 -36 
Q 684 19 347 128 
L 347 722 
Q 666 556 975 473 
Q 1284 391 1588 391 
Q 1994 391 2212 530 
Q 2431 669 2431 922 
Q 2431 1156 2273 1281 
Q 2116 1406 1581 1522 
L 1381 1569 
Q 847 1681 609 1914 
Q 372 2147 372 2553 
Q 372 3047 722 3315 
Q 1072 3584 1716 3584 
Q 2034 3584 2315 3537 
Q 2597 3491 2834 3397 
z
" transform="scale(0.015625)"/>
       <path id="DejaVuSans-74" d="M 1172 4494 
L 1172 3500 
L 2356 3500 
L 2356 3053 
L 1172 3053 
L 1172 1153 
Q 1172 725 1289 603 
Q 1406 481 1766 481 
L 2356 481 
L 2356 0 
L 1766 0 
Q 1100 0 847 248 
Q 594 497 594 1153 
L 594 3053 
L 172 3053 
L 172 3500 
L 594 3500 
L 594 4494 
L 1172 4494 
z
" transform="scale(0.015625)"/>
       <path id="DejaVuSans-72" d="M 2631 2963 
Q 2534 3019 2420 3045 
Q 2306 3072 2169 3072 
Q 1681 3072 1420 2755 
Q 1159 2438 1159 1844 
L 1159 0 
L 581 0 
L 581 3500 
L 1159 3500 
L 1159 2956 
Q 1341 3275 1631 3429 
Q 1922 3584 2338 3584 
Q 2397 3584 2469 3576 
Q 2541 3569 2628 3553 
L 2631 2963 
z
" transform="scale(0.015625)"/>
       <path id="DejaVuSans-62" d="M 3116 1747 
Q 3116 2381 2855 2742 
Q 2594 3103 2138 3103 
Q 1681 3103 1420 2742 
Q 1159 2381 1159 1747 
Q 1159 1113 1420 752 
Q 1681 391 2138 391 
Q 2594 391 2855 752 
Q 3116 1113 3116 1747 
z
M 1159 2969 
Q 1341 3281 1617 3432 
Q 1894 3584 2278 3584 
Q 2916 3584 3314 3078 
Q 3713 2572 3713 1747 
Q 3713 922 3314 415 
Q 2916 -91 2278 -91 
Q 1894 -91 1617 61 
Q 1341 213 1159 525 
L 1159 0 
L 581 0 
L 581 4863 
L 1159 4863 
L 1159 2969 
z
" transform="scale(0.015625)"/>
       <path id="DejaVuSans-6f" d="M 1959 3097 
Q 1497 3097 1228 2736 
Q 959 2375 959 1747 
Q 959 1119 1226 758 
Q 1494 397 1959 397 
Q 2419 397 2687 759 
Q 2956 1122 2956 1747 
Q 2956 2369 2687 2733 
Q 2419 3097 1959 3097 
z
M 1959 3584 
Q 2709 3584 3137 3096 
Q 3566 2609 3566 1747 
Q 3566 888 3137 398 
Q 2709 -91 1959 -91 
Q 1206 -91 779 398 
Q 353 888 353 1747 
Q 353 2609 779 3096 
Q 1206 3584 1959 3584 
z
" transform="scale(0.015625)"/>
       <path id="DejaVuSans-6e" d="M 3513 2113 
L 3513 0 
L 2938 0 
L 2938 2094 
Q 2938 2591 2744 2837 
Q 2550 3084 2163 3084 
Q 1697 3084 1428 2787 
Q 1159 2491 1159 1978 
L 1159 0 
L 581 0 
L 581 3500 
L 1159 3500 
L 1159 2956 
Q 1366 3272 1645 3428 
Q 1925 3584 2291 3584 
Q 2894 3584 3203 3211 
Q 3513 2838 3513 2113 
z
" transform="scale(0.015625)"/>
       <path id="DejaVuSans-31" d="M 794 531 
L 1825 531 
L 1825 4091 
L 703 3866 
L 703 4441 
L 1819 4666 
L 2450 4666 
L 2450 531 
L 3481 531 
L 3481 0 
L 794 0 
L 794 531 
z
" transform="scale(0.015625)"/>
       <path id="DejaVuSans-6d" d="M 3328 2828 
Q 3544 3216 3844 3400 
Q 4144 3584 4550 3584 
Q 5097 3584 5394 3201 
Q 5691 2819 5691 2113 
L 5691 0 
L 5113 0 
L 5113 2094 
Q 5113 2597 4934 2840 
Q 4756 3084 4391 3084 
Q 3944 3084 3684 2787 
Q 3425 2491 3425 1978 
L 3425 0 
L 2847 0 
L 2847 2094 
Q 2847 2600 2669 2842 
Q 2491 3084 2119 3084 
Q 1678 3084 1418 2786 
Q 1159 2488 1159 1978 
L 1159 0 
L 581 0 
L 581 3500 
L 1159 3500 
L 1159 2956 
Q 1356 3278 1631 3431 
Q 1906 3584 2284 3584 
Q 2666 3584 2933 3390 
Q 3200 3197 3328 2828 
z
" transform="scale(0.015625)"/>
       <path id="DejaVuSans-61" d="M 2194 1759 
Q 1497 1759 1228 1600 
Q 959 1441 959 1056 
Q 959 750 1161 570 
Q 1363 391 1709 391 
Q 2188 391 2477 730 
Q 2766 1069 2766 1631 
L 2766 1759 
L 2194 1759 
z
M 3341 1997 
L 3341 0 
L 2766 0 
L 2766 531 
Q 2569 213 2275 61 
Q 1981 -91 1556 -91 
Q 1019 -91 701 211 
Q 384 513 384 1019 
Q 384 1609 779 1909 
Q 1175 2209 1959 2209 
L 2766 2209 
L 2766 2266 
Q 2766 2663 2505 2880 
Q 2244 3097 1772 3097 
Q 1472 3097 1187 3025 
Q 903 2953 641 2809 
L 641 3341 
Q 956 3463 1253 3523 
Q 1550 3584 1831 3584 
Q 2591 3584 2966 3190 
Q 3341 2797 3341 1997 
z
" transform="scale(0.015625)"/>
      </defs>
      <use xlink:href="#DejaVuSans-4e" transform="translate(0 0.015625)"/>
      <use xlink:href="#DejaVuSans-75" transform="translate(74.804688 0.015625)"/>
      <use xlink:href="#DejaVuSans-6c" transform="translate(138.183594 0.015625)"/>
      <use xlink:href="#DejaVuSans-6c" transform="translate(165.966797 0.015625)"/>
      <use xlink:href="#DejaVuSans-20" transform="translate(193.75 0.015625)"/>
      <use xlink:href="#DejaVuSans-394" transform="translate(225.537109 0.015625)"/>
      <use xlink:href="#DejaVuSans-20" transform="translate(293.945312 0.015625)"/>
      <use xlink:href="#DejaVuSans-64" transform="translate(325.732422 0.015625)"/>
      <use xlink:href="#DejaVuSans-69" transform="translate(389.208984 0.015625)"/>
      <use xlink:href="#DejaVuSans-73" transform="translate(416.992188 0.015625)"/>
      <use xlink:href="#DejaVuSans-74" transform="translate(469.091797 0.015625)"/>
      <use xlink:href="#DejaVuSans-72" transform="translate(508.300781 0.015625)"/>
      <use xlink:href="#DejaVuSans-69" transform="translate(549.414062 0.015625)"/>
      <use xlink:href="#DejaVuSans-62" transform="translate(577.197266 0.015625)"/>
      <use xlink:href="#DejaVuSans-75" transform="translate(640.673828 0.015625)"/>
      <use xlink:href="#DejaVuSans-74" transform="translate(704.052734 0.015625)"/>
      <use xlink:href="#DejaVuSans-69" transform="translate(743.261719 0.015625)"/>
      <use xlink:href="#DejaVuSans-6f" transform="translate(771.044922 0.015625)"/>
      <use xlink:href="#DejaVuSans-6e" transform="translate(832.226562 0.015625)"/>
      <use xlink:href="#DejaVuSans-20" transform="translate(895.605469 0.015625)"/>
      <use xlink:href="#DejaVuSans-69" transform="translate(927.392578 0.015625)"/>
      <use xlink:href="#DejaVuSans-6e" transform="translate(955.175781 0.015625)"/>
      <use xlink:href="#DejaVuSans-20" transform="translate(1018.554688 0.015625)"/>
      <use xlink:href="#DejaVuSans-31" transform="translate(1050.341797 0.015625)"/>
      <use xlink:href="#DejaVuSans-30" transform="translate(1113.964844 0.015625)"/>
      <use xlink:href="#DejaVuSans-30" transform="translate(1177.587891 0.015625)"/>
      <use xlink:href="#DejaVuSans-30" transform="translate(1241.210938 0.015625)"/>
      <use xlink:href="#DejaVuSans-30" transform="translate(1304.833984 0.015625)"/>
      <use xlink:href="#DejaVuSans-20" transform="translate(1368.457031 0.015625)"/>
      <use xlink:href="#DejaVuSans-73" transform="translate(1400.244141 0.015625)"/>
      <use xlink:href="#DejaVuSans-69" transform="translate(1452.34375 0.015625)"/>
      <use xlink:href="#DejaVuSans-6d" transform="translate(1480.126953 0.015625)"/>
      <use xlink:href="#DejaVuSans-75" transform="translate(1577.539062 0.015625)"/>
      <use xlink:href="#DejaVuSans-6c" transform="translate(1640.917969 0.015625)"/>
      <use xlink:href="#DejaVuSans-61" transform="translate(1668.701172 0.015625)"/>
      <use xlink:href="#DejaVuSans-74" transform="translate(1729.980469 0.015625)"/>
      <use xlink:href="#DejaVuSans-69" transform="translate(1769.189453 0.015625)"/>
      <use xlink:href="#DejaVuSans-6f" transform="translate(1796.972656 0.015625)"/>
      <use xlink:href="#DejaVuSans-6e" transform="translate(1858.154297 0.015625)"/>
      <use xlink:href="#DejaVuSans-73" transform="translate(1921.533203 0.015625)"/>
     </g>
    </g>
   </g>
   <g id="matplotlib.axis_2">
    <g id="ytick_1">
     <g id="text_4">
      <!-- 0 -->
      <g style="fill: #262626" transform="translate(29.127875 188.828086)scale(0.077 -0.077)">
       <use xlink:href="#DejaVuSans-30"/>
      </g>
     </g>
    </g>
    <g id="ytick_2">
     <g id="text_5">
      <!-- 100 -->
      <g style="fill: #262626" transform="translate(19.329625 159.9591)scale(0.077 -0.077)">
       <use xlink:href="#DejaVuSans-31"/>
       <use xlink:href="#DejaVuSans-30" x="63.623047"/>
       <use xlink:href="#DejaVuSans-30" x="127.246094"/>
      </g>
     </g>
    </g>
    <g id="ytick_3">
     <g id="text_6">
      <!-- 200 -->
      <g style="fill: #262626" transform="translate(19.329625 131.090115)scale(0.077 -0.077)">
       <use xlink:href="#DejaVuSans-32"/>
       <use xlink:href="#DejaVuSans-30" x="63.623047"/>
       <use xlink:href="#DejaVuSans-30" x="127.246094"/>
      </g>
     </g>
    </g>
    <g id="ytick_4">
     <g id="text_7">
      <!-- 300 -->
      <g style="fill: #262626" transform="translate(19.329625 102.221129)scale(0.077 -0.077)">
       <defs>
        <path id="DejaVuSans-33" d="M 2597 2516 
Q 3050 2419 3304 2112 
Q 3559 1806 3559 1356 
Q 3559 666 3084 287 
Q 2609 -91 1734 -91 
Q 1441 -91 1130 -33 
Q 819 25 488 141 
L 488 750 
Q 750 597 1062 519 
Q 1375 441 1716 441 
Q 2309 441 2620 675 
Q 2931 909 2931 1356 
Q 2931 1769 2642 2001 
Q 2353 2234 1838 2234 
L 1294 2234 
L 1294 2753 
L 1863 2753 
Q 2328 2753 2575 2939 
Q 2822 3125 2822 3475 
Q 2822 3834 2567 4026 
Q 2313 4219 1838 4219 
Q 1578 4219 1281 4162 
Q 984 4106 628 3988 
L 628 4550 
Q 988 4650 1302 4700 
Q 1616 4750 1894 4750 
Q 2613 4750 3031 4423 
Q 3450 4097 3450 3541 
Q 3450 3153 3228 2886 
Q 3006 2619 2597 2516 
z
" transform="scale(0.015625)"/>
       </defs>
       <use xlink:href="#DejaVuSans-33"/>
       <use xlink:href="#DejaVuSans-30" x="63.623047"/>
       <use xlink:href="#DejaVuSans-30" x="127.246094"/>
      </g>
     </g>
    </g>
    <g id="ytick_5">
     <g id="text_8">
      <!-- 400 -->
      <g style="fill: #262626" transform="translate(19.329625 73.352143)scale(0.077 -0.077)">
       <defs>
        <path id="DejaVuSans-34" d="M 2419 4116 
L 825 1625 
L 2419 1625 
L 2419 4116 
z
M 2253 4666 
L 3047 4666 
L 3047 1625 
L 3713 1625 
L 3713 1100 
L 3047 1100 
L 3047 0 
L 2419 0 
L 2419 1100 
L 313 1100 
L 313 1709 
L 2253 4666 
z
" transform="scale(0.015625)"/>
       </defs>
       <use xlink:href="#DejaVuSans-34"/>
       <use xlink:href="#DejaVuSans-30" x="63.623047"/>
       <use xlink:href="#DejaVuSans-30" x="127.246094"/>
      </g>
     </g>
    </g>
    <g id="ytick_6">
     <g id="text_9">
      <!-- 500 -->
      <g style="fill: #262626" transform="translate(19.329625 44.483158)scale(0.077 -0.077)">
       <defs>
        <path id="DejaVuSans-35" d="M 691 4666 
L 3169 4666 
L 3169 4134 
L 1269 4134 
L 1269 2991 
Q 1406 3038 1543 3061 
Q 1681 3084 1819 3084 
Q 2600 3084 3056 2656 
Q 3513 2228 3513 1497 
Q 3513 744 3044 326 
Q 2575 -91 1722 -91 
Q 1428 -91 1123 -41 
Q 819 9 494 109 
L 494 744 
Q 775 591 1075 516 
Q 1375 441 1709 441 
Q 2250 441 2565 725 
Q 2881 1009 2881 1497 
Q 2881 1984 2565 2268 
Q 2250 2553 1709 2553 
Q 1456 2553 1204 2497 
Q 953 2441 691 2322 
L 691 4666 
z
" transform="scale(0.015625)"/>
       </defs>
       <use xlink:href="#DejaVuSans-35"/>
       <use xlink:href="#DejaVuSans-30" x="63.623047"/>
       <use xlink:href="#DejaVuSans-30" x="127.246094"/>
      </g>
     </g>
    </g>
    <g id="text_10">
     <!-- Density -->
     <g style="fill: #262626" transform="translate(13.582687 118.709906)rotate(-90)scale(0.084 -0.084)">
      <defs>
       <path id="DejaVuSans-44" d="M 1259 4147 
L 1259 519 
L 2022 519 
Q 2988 519 3436 956 
Q 3884 1394 3884 2338 
Q 3884 3275 3436 3711 
Q 2988 4147 2022 4147 
L 1259 4147 
z
M 628 4666 
L 1925 4666 
Q 3281 4666 3915 4102 
Q 4550 3538 4550 2338 
Q 4550 1131 3912 565 
Q 3275 0 1925 0 
L 628 0 
L 628 4666 
z
" transform="scale(0.015625)"/>
       <path id="DejaVuSans-65" d="M 3597 1894 
L 3597 1613 
L 953 1613 
Q 991 1019 1311 708 
Q 1631 397 2203 397 
Q 2534 397 2845 478 
Q 3156 559 3463 722 
L 3463 178 
Q 3153 47 2828 -22 
Q 2503 -91 2169 -91 
Q 1331 -91 842 396 
Q 353 884 353 1716 
Q 353 2575 817 3079 
Q 1281 3584 2069 3584 
Q 2775 3584 3186 3129 
Q 3597 2675 3597 1894 
z
M 3022 2063 
Q 3016 2534 2758 2815 
Q 2500 3097 2075 3097 
Q 1594 3097 1305 2825 
Q 1016 2553 972 2059 
L 3022 2063 
z
" transform="scale(0.015625)"/>
       <path id="DejaVuSans-79" d="M 2059 -325 
Q 1816 -950 1584 -1140 
Q 1353 -1331 966 -1331 
L 506 -1331 
L 506 -850 
L 844 -850 
Q 1081 -850 1212 -737 
Q 1344 -625 1503 -206 
L 1606 56 
L 191 3500 
L 800 3500 
L 1894 763 
L 2988 3500 
L 3597 3500 
L 2059 -325 
z
" transform="scale(0.015625)"/>
      </defs>
      <use xlink:href="#DejaVuSans-44"/>
      <use xlink:href="#DejaVuSans-65" x="77.001953"/>
      <use xlink:href="#DejaVuSans-6e" x="138.525391"/>
      <use xlink:href="#DejaVuSans-73" x="201.904297"/>
      <use xlink:href="#DejaVuSans-69" x="254.003906"/>
      <use xlink:href="#DejaVuSans-74" x="281.787109"/>
      <use xlink:href="#DejaVuSans-79" x="320.996094"/>
     </g>
    </g>
   </g>
   <g id="patch_3">
    <path d="M 53.211298 185.902688 
L 53.672455 185.902688 
L 53.672455 27.502688 
L 53.211298 27.502688 
z
" clip-path="url(#p0c2ca1fd73)" style="fill: #4c72b0; fill-opacity: 0.75"/>
   </g>
   <g id="patch_4">
    <path d="M 53.672455 185.902688 
L 54.133612 185.902688 
L 54.133612 185.902688 
L 53.672455 185.902688 
z
" clip-path="url(#p0c2ca1fd73)" style="fill: #4c72b0; fill-opacity: 0.75"/>
   </g>
   <g id="patch_5">
    <path d="M 54.133612 185.902688 
L 54.594769 185.902688 
L 54.594769 185.902688 
L 54.133612 185.902688 
z
" clip-path="url(#p0c2ca1fd73)" style="fill: #4c72b0; fill-opacity: 0.75"/>
   </g>
   <g id="patch_6">
    <path d="M 54.594769 185.902688 
L 55.055926 185.902688 
L 55.055926 185.902688 
L 54.594769 185.902688 
z
" clip-path="url(#p0c2ca1fd73)" style="fill: #4c72b0; fill-opacity: 0.75"/>
   </g>
   <g id="patch_7">
    <path d="M 55.055926 185.902688 
L 55.517083 185.902688 
L 55.517083 185.902688 
L 55.055926 185.902688 
z
" clip-path="url(#p0c2ca1fd73)" style="fill: #4c72b0; fill-opacity: 0.75"/>
   </g>
   <g id="patch_8">
    <path d="M 55.517083 185.902688 
L 55.97824 185.902688 
L 55.97824 185.902688 
L 55.517083 185.902688 
z
" clip-path="url(#p0c2ca1fd73)" style="fill: #4c72b0; fill-opacity: 0.75"/>
   </g>
   <g id="patch_9">
    <path d="M 55.97824 185.902688 
L 56.439397 185.902688 
L 56.439397 185.902688 
L 55.97824 185.902688 
z
" clip-path="url(#p0c2ca1fd73)" style="fill: #4c72b0; fill-opacity: 0.75"/>
   </g>
   <g id="patch_10">
    <path d="M 56.439397 185.902688 
L 56.900554 185.902688 
L 56.900554 185.902688 
L 56.439397 185.902688 
z
" clip-path="url(#p0c2ca1fd73)" style="fill: #4c72b0; fill-opacity: 0.75"/>
   </g>
   <g id="patch_11">
    <path d="M 56.900554 185.902688 
L 57.361711 185.902688 
L 57.361711 185.902688 
L 56.900554 185.902688 
z
" clip-path="url(#p0c2ca1fd73)" style="fill: #4c72b0; fill-opacity: 0.75"/>
   </g>
   <g id="patch_12">
    <path d="M 57.361711 185.902688 
L 57.822868 185.902688 
L 57.822868 185.902688 
L 57.361711 185.902688 
z
" clip-path="url(#p0c2ca1fd73)" style="fill: #4c72b0; fill-opacity: 0.75"/>
   </g>
   <g id="patch_13">
    <path d="M 57.822868 185.902688 
L 58.284025 185.902688 
L 58.284025 185.902688 
L 57.822868 185.902688 
z
" clip-path="url(#p0c2ca1fd73)" style="fill: #4c72b0; fill-opacity: 0.75"/>
   </g>
   <g id="patch_14">
    <path d="M 58.284025 185.902688 
L 58.745182 185.902688 
L 58.745182 185.902688 
L 58.284025 185.902688 
z
" clip-path="url(#p0c2ca1fd73)" style="fill: #4c72b0; fill-opacity: 0.75"/>
   </g>
   <g id="patch_15">
    <path d="M 58.745182 185.902688 
L 59.206339 185.902688 
L 59.206339 185.902688 
L 58.745182 185.902688 
z
" clip-path="url(#p0c2ca1fd73)" style="fill: #4c72b0; fill-opacity: 0.75"/>
   </g>
   <g id="patch_16">
    <path d="M 59.206339 185.902688 
L 59.667496 185.902688 
L 59.667496 185.902688 
L 59.206339 185.902688 
z
" clip-path="url(#p0c2ca1fd73)" style="fill: #4c72b0; fill-opacity: 0.75"/>
   </g>
   <g id="patch_17">
    <path d="M 59.667496 185.902688 
L 60.128653 185.902688 
L 60.128653 185.902688 
L 59.667496 185.902688 
z
" clip-path="url(#p0c2ca1fd73)" style="fill: #4c72b0; fill-opacity: 0.75"/>
   </g>
   <g id="patch_18">
    <path d="M 60.128653 185.902688 
L 60.58981 185.902688 
L 60.58981 185.902688 
L 60.128653 185.902688 
z
" clip-path="url(#p0c2ca1fd73)" style="fill: #4c72b0; fill-opacity: 0.75"/>
   </g>
   <g id="patch_19">
    <path d="M 60.58981 185.902688 
L 61.050967 185.902688 
L 61.050967 185.902688 
L 60.58981 185.902688 
z
" clip-path="url(#p0c2ca1fd73)" style="fill: #4c72b0; fill-opacity: 0.75"/>
   </g>
   <g id="patch_20">
    <path d="M 61.050967 185.902688 
L 61.512124 185.902688 
L 61.512124 185.902688 
L 61.050967 185.902688 
z
" clip-path="url(#p0c2ca1fd73)" style="fill: #4c72b0; fill-opacity: 0.75"/>
   </g>
   <g id="patch_21">
    <path d="M 61.512124 185.902688 
L 61.973281 185.902688 
L 61.973281 185.902688 
L 61.512124 185.902688 
z
" clip-path="url(#p0c2ca1fd73)" style="fill: #4c72b0; fill-opacity: 0.75"/>
   </g>
   <g id="patch_22">
    <path d="M 61.973281 185.902688 
L 62.434438 185.902688 
L 62.434438 185.902688 
L 61.973281 185.902688 
z
" clip-path="url(#p0c2ca1fd73)" style="fill: #4c72b0; fill-opacity: 0.75"/>
   </g>
   <g id="patch_23">
    <path d="M 62.434438 185.902688 
L 62.895595 185.902688 
L 62.895595 185.902688 
L 62.434438 185.902688 
z
" clip-path="url(#p0c2ca1fd73)" style="fill: #4c72b0; fill-opacity: 0.75"/>
   </g>
   <g id="patch_24">
    <path d="M 62.895595 185.902688 
L 63.356752 185.902688 
L 63.356752 185.902688 
L 62.895595 185.902688 
z
" clip-path="url(#p0c2ca1fd73)" style="fill: #4c72b0; fill-opacity: 0.75"/>
   </g>
   <g id="patch_25">
    <path d="M 63.356752 185.902688 
L 63.817909 185.902688 
L 63.817909 185.902688 
L 63.356752 185.902688 
z
" clip-path="url(#p0c2ca1fd73)" style="fill: #4c72b0; fill-opacity: 0.75"/>
   </g>
   <g id="patch_26">
    <path d="M 63.817909 185.902688 
L 64.279066 185.902688 
L 64.279066 185.902688 
L 63.817909 185.902688 
z
" clip-path="url(#p0c2ca1fd73)" style="fill: #4c72b0; fill-opacity: 0.75"/>
   </g>
   <g id="patch_27">
    <path d="M 64.279066 185.902688 
L 64.740223 185.902688 
L 64.740223 185.902688 
L 64.279066 185.902688 
z
" clip-path="url(#p0c2ca1fd73)" style="fill: #4c72b0; fill-opacity: 0.75"/>
   </g>
   <g id="patch_28">
    <path d="M 64.740223 185.902688 
L 65.20138 185.902688 
L 65.20138 185.902688 
L 64.740223 185.902688 
z
" clip-path="url(#p0c2ca1fd73)" style="fill: #4c72b0; fill-opacity: 0.75"/>
   </g>
   <g id="patch_29">
    <path d="M 65.20138 185.902688 
L 65.662537 185.902688 
L 65.662537 185.902688 
L 65.20138 185.902688 
z
" clip-path="url(#p0c2ca1fd73)" style="fill: #4c72b0; fill-opacity: 0.75"/>
   </g>
   <g id="patch_30">
    <path d="M 65.662537 185.902688 
L 66.123694 185.902688 
L 66.123694 185.902688 
L 65.662537 185.902688 
z
" clip-path="url(#p0c2ca1fd73)" style="fill: #4c72b0; fill-opacity: 0.75"/>
   </g>
   <g id="patch_31">
    <path d="M 66.123694 185.902688 
L 66.584851 185.902688 
L 66.584851 185.902688 
L 66.123694 185.902688 
z
" clip-path="url(#p0c2ca1fd73)" style="fill: #4c72b0; fill-opacity: 0.75"/>
   </g>
   <g id="patch_32">
    <path d="M 66.584851 185.902688 
L 67.046008 185.902688 
L 67.046008 185.902688 
L 66.584851 185.902688 
z
" clip-path="url(#p0c2ca1fd73)" style="fill: #4c72b0; fill-opacity: 0.75"/>
   </g>
   <g id="patch_33">
    <path d="M 67.046008 185.902688 
L 67.507165 185.902688 
L 67.507165 185.902688 
L 67.046008 185.902688 
z
" clip-path="url(#p0c2ca1fd73)" style="fill: #4c72b0; fill-opacity: 0.75"/>
   </g>
   <g id="patch_34">
    <path d="M 67.507165 185.902688 
L 67.968322 185.902688 
L 67.968322 185.902688 
L 67.507165 185.902688 
z
" clip-path="url(#p0c2ca1fd73)" style="fill: #4c72b0; fill-opacity: 0.75"/>
   </g>
   <g id="patch_35">
    <path d="M 67.968322 185.902688 
L 68.429479 185.902688 
L 68.429479 185.902688 
L 67.968322 185.902688 
z
" clip-path="url(#p0c2ca1fd73)" style="fill: #4c72b0; fill-opacity: 0.75"/>
   </g>
   <g id="patch_36">
    <path d="M 68.429479 185.902688 
L 68.890636 185.902688 
L 68.890636 185.902688 
L 68.429479 185.902688 
z
" clip-path="url(#p0c2ca1fd73)" style="fill: #4c72b0; fill-opacity: 0.75"/>
   </g>
   <g id="patch_37">
    <path d="M 68.890636 185.902688 
L 69.351793 185.902688 
L 69.351793 185.902688 
L 68.890636 185.902688 
z
" clip-path="url(#p0c2ca1fd73)" style="fill: #4c72b0; fill-opacity: 0.75"/>
   </g>
   <g id="patch_38">
    <path d="M 69.351793 185.902688 
L 69.81295 185.902688 
L 69.81295 185.902688 
L 69.351793 185.902688 
z
" clip-path="url(#p0c2ca1fd73)" style="fill: #4c72b0; fill-opacity: 0.75"/>
   </g>
   <g id="patch_39">
    <path d="M 69.81295 185.902688 
L 70.274107 185.902688 
L 70.274107 185.902688 
L 69.81295 185.902688 
z
" clip-path="url(#p0c2ca1fd73)" style="fill: #4c72b0; fill-opacity: 0.75"/>
   </g>
   <g id="patch_40">
    <path d="M 70.274107 185.902688 
L 70.735264 185.902688 
L 70.735264 185.902688 
L 70.274107 185.902688 
z
" clip-path="url(#p0c2ca1fd73)" style="fill: #4c72b0; fill-opacity: 0.75"/>
   </g>
   <g id="patch_41">
    <path d="M 70.735264 185.902688 
L 71.196421 185.902688 
L 71.196421 185.902688 
L 70.735264 185.902688 
z
" clip-path="url(#p0c2ca1fd73)" style="fill: #4c72b0; fill-opacity: 0.75"/>
   </g>
   <g id="patch_42">
    <path d="M 71.196421 185.902688 
L 71.657579 185.902688 
L 71.657579 185.902688 
L 71.196421 185.902688 
z
" clip-path="url(#p0c2ca1fd73)" style="fill: #4c72b0; fill-opacity: 0.75"/>
   </g>
   <g id="patch_43">
    <path d="M 71.657579 185.902688 
L 72.118736 185.902688 
L 72.118736 185.902688 
L 71.657579 185.902688 
z
" clip-path="url(#p0c2ca1fd73)" style="fill: #4c72b0; fill-opacity: 0.75"/>
   </g>
   <g id="patch_44">
    <path d="M 72.118736 185.902688 
L 72.579893 185.902688 
L 72.579893 185.902688 
L 72.118736 185.902688 
z
" clip-path="url(#p0c2ca1fd73)" style="fill: #4c72b0; fill-opacity: 0.75"/>
   </g>
   <g id="patch_45">
    <path d="M 72.579893 185.902688 
L 73.04105 185.902688 
L 73.04105 185.902688 
L 72.579893 185.902688 
z
" clip-path="url(#p0c2ca1fd73)" style="fill: #4c72b0; fill-opacity: 0.75"/>
   </g>
   <g id="patch_46">
    <path d="M 73.04105 185.902688 
L 73.502207 185.902688 
L 73.502207 185.902688 
L 73.04105 185.902688 
z
" clip-path="url(#p0c2ca1fd73)" style="fill: #4c72b0; fill-opacity: 0.75"/>
   </g>
   <g id="patch_47">
    <path d="M 73.502207 185.902688 
L 73.963364 185.902688 
L 73.963364 185.902688 
L 73.502207 185.902688 
z
" clip-path="url(#p0c2ca1fd73)" style="fill: #4c72b0; fill-opacity: 0.75"/>
   </g>
   <g id="patch_48">
    <path d="M 73.963364 185.902688 
L 74.424521 185.902688 
L 74.424521 185.902688 
L 73.963364 185.902688 
z
" clip-path="url(#p0c2ca1fd73)" style="fill: #4c72b0; fill-opacity: 0.75"/>
   </g>
   <g id="patch_49">
    <path d="M 74.424521 185.902688 
L 74.885678 185.902688 
L 74.885678 185.902688 
L 74.424521 185.902688 
z
" clip-path="url(#p0c2ca1fd73)" style="fill: #4c72b0; fill-opacity: 0.75"/>
   </g>
   <g id="patch_50">
    <path d="M 74.885678 185.902688 
L 75.346835 185.902688 
L 75.346835 185.902688 
L 74.885678 185.902688 
z
" clip-path="url(#p0c2ca1fd73)" style="fill: #4c72b0; fill-opacity: 0.75"/>
   </g>
   <g id="patch_51">
    <path d="M 75.346835 185.902688 
L 75.807992 185.902688 
L 75.807992 185.902688 
L 75.346835 185.902688 
z
" clip-path="url(#p0c2ca1fd73)" style="fill: #4c72b0; fill-opacity: 0.75"/>
   </g>
   <g id="patch_52">
    <path d="M 75.807992 185.902688 
L 76.269149 185.902688 
L 76.269149 185.902688 
L 75.807992 185.902688 
z
" clip-path="url(#p0c2ca1fd73)" style="fill: #4c72b0; fill-opacity: 0.75"/>
   </g>
   <g id="patch_53">
    <path d="M 76.269149 185.902688 
L 76.730306 185.902688 
L 76.730306 185.902688 
L 76.269149 185.902688 
z
" clip-path="url(#p0c2ca1fd73)" style="fill: #4c72b0; fill-opacity: 0.75"/>
   </g>
   <g id="patch_54">
    <path d="M 76.730306 185.902688 
L 77.191463 185.902688 
L 77.191463 185.902688 
L 76.730306 185.902688 
z
" clip-path="url(#p0c2ca1fd73)" style="fill: #4c72b0; fill-opacity: 0.75"/>
   </g>
   <g id="patch_55">
    <path d="M 77.191463 185.902688 
L 77.65262 185.902688 
L 77.65262 185.902688 
L 77.191463 185.902688 
z
" clip-path="url(#p0c2ca1fd73)" style="fill: #4c72b0; fill-opacity: 0.75"/>
   </g>
   <g id="patch_56">
    <path d="M 77.65262 185.902688 
L 78.113777 185.902688 
L 78.113777 185.902688 
L 77.65262 185.902688 
z
" clip-path="url(#p0c2ca1fd73)" style="fill: #4c72b0; fill-opacity: 0.75"/>
   </g>
   <g id="patch_57">
    <path d="M 78.113777 185.902688 
L 78.574934 185.902688 
L 78.574934 185.902688 
L 78.113777 185.902688 
z
" clip-path="url(#p0c2ca1fd73)" style="fill: #4c72b0; fill-opacity: 0.75"/>
   </g>
   <g id="patch_58">
    <path d="M 78.574934 185.902688 
L 79.036091 185.902688 
L 79.036091 185.902688 
L 78.574934 185.902688 
z
" clip-path="url(#p0c2ca1fd73)" style="fill: #4c72b0; fill-opacity: 0.75"/>
   </g>
   <g id="patch_59">
    <path d="M 79.036091 185.902688 
L 79.497248 185.902688 
L 79.497248 185.902688 
L 79.036091 185.902688 
z
" clip-path="url(#p0c2ca1fd73)" style="fill: #4c72b0; fill-opacity: 0.75"/>
   </g>
   <g id="patch_60">
    <path d="M 79.497248 185.902688 
L 79.958405 185.902688 
L 79.958405 185.902688 
L 79.497248 185.902688 
z
" clip-path="url(#p0c2ca1fd73)" style="fill: #4c72b0; fill-opacity: 0.75"/>
   </g>
   <g id="patch_61">
    <path d="M 79.958405 185.902688 
L 80.419562 185.902688 
L 80.419562 185.902688 
L 79.958405 185.902688 
z
" clip-path="url(#p0c2ca1fd73)" style="fill: #4c72b0; fill-opacity: 0.75"/>
   </g>
   <g id="patch_62">
    <path d="M 80.419562 185.902688 
L 80.880719 185.902688 
L 80.880719 185.902688 
L 80.419562 185.902688 
z
" clip-path="url(#p0c2ca1fd73)" style="fill: #4c72b0; fill-opacity: 0.75"/>
   </g>
   <g id="patch_63">
    <path d="M 80.880719 185.902688 
L 81.341876 185.902688 
L 81.341876 185.902688 
L 80.880719 185.902688 
z
" clip-path="url(#p0c2ca1fd73)" style="fill: #4c72b0; fill-opacity: 0.75"/>
   </g>
   <g id="patch_64">
    <path d="M 81.341876 185.902688 
L 81.803033 185.902688 
L 81.803033 185.902688 
L 81.341876 185.902688 
z
" clip-path="url(#p0c2ca1fd73)" style="fill: #4c72b0; fill-opacity: 0.75"/>
   </g>
   <g id="patch_65">
    <path d="M 81.803033 185.902688 
L 82.26419 185.902688 
L 82.26419 185.902688 
L 81.803033 185.902688 
z
" clip-path="url(#p0c2ca1fd73)" style="fill: #4c72b0; fill-opacity: 0.75"/>
   </g>
   <g id="patch_66">
    <path d="M 82.26419 185.902688 
L 82.725347 185.902688 
L 82.725347 185.902688 
L 82.26419 185.902688 
z
" clip-path="url(#p0c2ca1fd73)" style="fill: #4c72b0; fill-opacity: 0.75"/>
   </g>
   <g id="patch_67">
    <path d="M 82.725347 185.902688 
L 83.186504 185.902688 
L 83.186504 185.902688 
L 82.725347 185.902688 
z
" clip-path="url(#p0c2ca1fd73)" style="fill: #4c72b0; fill-opacity: 0.75"/>
   </g>
   <g id="patch_68">
    <path d="M 83.186504 185.902688 
L 83.647661 185.902688 
L 83.647661 185.902688 
L 83.186504 185.902688 
z
" clip-path="url(#p0c2ca1fd73)" style="fill: #4c72b0; fill-opacity: 0.75"/>
   </g>
   <g id="patch_69">
    <path d="M 83.647661 185.902688 
L 84.108818 185.902688 
L 84.108818 185.902688 
L 83.647661 185.902688 
z
" clip-path="url(#p0c2ca1fd73)" style="fill: #4c72b0; fill-opacity: 0.75"/>
   </g>
   <g id="patch_70">
    <path d="M 84.108818 185.902688 
L 84.569975 185.902688 
L 84.569975 185.902688 
L 84.108818 185.902688 
z
" clip-path="url(#p0c2ca1fd73)" style="fill: #4c72b0; fill-opacity: 0.75"/>
   </g>
   <g id="patch_71">
    <path d="M 84.569975 185.902688 
L 85.031132 185.902688 
L 85.031132 185.902688 
L 84.569975 185.902688 
z
" clip-path="url(#p0c2ca1fd73)" style="fill: #4c72b0; fill-opacity: 0.75"/>
   </g>
   <g id="patch_72">
    <path d="M 85.031132 185.902688 
L 85.492289 185.902688 
L 85.492289 185.902688 
L 85.031132 185.902688 
z
" clip-path="url(#p0c2ca1fd73)" style="fill: #4c72b0; fill-opacity: 0.75"/>
   </g>
   <g id="patch_73">
    <path d="M 85.492289 185.902688 
L 85.953446 185.902688 
L 85.953446 185.902688 
L 85.492289 185.902688 
z
" clip-path="url(#p0c2ca1fd73)" style="fill: #4c72b0; fill-opacity: 0.75"/>
   </g>
   <g id="patch_74">
    <path d="M 85.953446 185.902688 
L 86.414603 185.902688 
L 86.414603 185.902688 
L 85.953446 185.902688 
z
" clip-path="url(#p0c2ca1fd73)" style="fill: #4c72b0; fill-opacity: 0.75"/>
   </g>
   <g id="patch_75">
    <path d="M 86.414603 185.902688 
L 86.87576 185.902688 
L 86.87576 185.902688 
L 86.414603 185.902688 
z
" clip-path="url(#p0c2ca1fd73)" style="fill: #4c72b0; fill-opacity: 0.75"/>
   </g>
   <g id="patch_76">
    <path d="M 86.87576 185.902688 
L 87.336917 185.902688 
L 87.336917 185.902688 
L 86.87576 185.902688 
z
" clip-path="url(#p0c2ca1fd73)" style="fill: #4c72b0; fill-opacity: 0.75"/>
   </g>
   <g id="patch_77">
    <path d="M 87.336917 185.902688 
L 87.798074 185.902688 
L 87.798074 185.902688 
L 87.336917 185.902688 
z
" clip-path="url(#p0c2ca1fd73)" style="fill: #4c72b0; fill-opacity: 0.75"/>
   </g>
   <g id="patch_78">
    <path d="M 87.798074 185.902688 
L 88.259231 185.902688 
L 88.259231 185.902688 
L 87.798074 185.902688 
z
" clip-path="url(#p0c2ca1fd73)" style="fill: #4c72b0; fill-opacity: 0.75"/>
   </g>
   <g id="patch_79">
    <path d="M 88.259231 185.902688 
L 88.720388 185.902688 
L 88.720388 185.902688 
L 88.259231 185.902688 
z
" clip-path="url(#p0c2ca1fd73)" style="fill: #4c72b0; fill-opacity: 0.75"/>
   </g>
   <g id="patch_80">
    <path d="M 88.720388 185.902688 
L 89.181545 185.902688 
L 89.181545 185.902688 
L 88.720388 185.902688 
z
" clip-path="url(#p0c2ca1fd73)" style="fill: #4c72b0; fill-opacity: 0.75"/>
   </g>
   <g id="patch_81">
    <path d="M 89.181545 185.902688 
L 89.642702 185.902688 
L 89.642702 185.902688 
L 89.181545 185.902688 
z
" clip-path="url(#p0c2ca1fd73)" style="fill: #4c72b0; fill-opacity: 0.75"/>
   </g>
   <g id="patch_82">
    <path d="M 89.642702 185.902688 
L 90.10386 185.902688 
L 90.10386 185.902688 
L 89.642702 185.902688 
z
" clip-path="url(#p0c2ca1fd73)" style="fill: #4c72b0; fill-opacity: 0.75"/>
   </g>
   <g id="patch_83">
    <path d="M 90.10386 185.902688 
L 90.565017 185.902688 
L 90.565017 185.902688 
L 90.10386 185.902688 
z
" clip-path="url(#p0c2ca1fd73)" style="fill: #4c72b0; fill-opacity: 0.75"/>
   </g>
   <g id="patch_84">
    <path d="M 90.565017 185.902688 
L 91.026174 185.902688 
L 91.026174 185.902688 
L 90.565017 185.902688 
z
" clip-path="url(#p0c2ca1fd73)" style="fill: #4c72b0; fill-opacity: 0.75"/>
   </g>
   <g id="patch_85">
    <path d="M 91.026174 185.902688 
L 91.487331 185.902688 
L 91.487331 185.902688 
L 91.026174 185.902688 
z
" clip-path="url(#p0c2ca1fd73)" style="fill: #4c72b0; fill-opacity: 0.75"/>
   </g>
   <g id="patch_86">
    <path d="M 91.487331 185.902688 
L 91.948488 185.902688 
L 91.948488 185.902688 
L 91.487331 185.902688 
z
" clip-path="url(#p0c2ca1fd73)" style="fill: #4c72b0; fill-opacity: 0.75"/>
   </g>
   <g id="patch_87">
    <path d="M 91.948488 185.902688 
L 92.409645 185.902688 
L 92.409645 185.902688 
L 91.948488 185.902688 
z
" clip-path="url(#p0c2ca1fd73)" style="fill: #4c72b0; fill-opacity: 0.75"/>
   </g>
   <g id="patch_88">
    <path d="M 92.409645 185.902688 
L 92.870802 185.902688 
L 92.870802 185.902688 
L 92.409645 185.902688 
z
" clip-path="url(#p0c2ca1fd73)" style="fill: #4c72b0; fill-opacity: 0.75"/>
   </g>
   <g id="patch_89">
    <path d="M 92.870802 185.902688 
L 93.331959 185.902688 
L 93.331959 185.902688 
L 92.870802 185.902688 
z
" clip-path="url(#p0c2ca1fd73)" style="fill: #4c72b0; fill-opacity: 0.75"/>
   </g>
   <g id="patch_90">
    <path d="M 93.331959 185.902688 
L 93.793116 185.902688 
L 93.793116 185.902688 
L 93.331959 185.902688 
z
" clip-path="url(#p0c2ca1fd73)" style="fill: #4c72b0; fill-opacity: 0.75"/>
   </g>
   <g id="patch_91">
    <path d="M 93.793116 185.902688 
L 94.254273 185.902688 
L 94.254273 185.902688 
L 93.793116 185.902688 
z
" clip-path="url(#p0c2ca1fd73)" style="fill: #4c72b0; fill-opacity: 0.75"/>
   </g>
   <g id="patch_92">
    <path d="M 94.254273 185.902688 
L 94.71543 185.902688 
L 94.71543 185.902688 
L 94.254273 185.902688 
z
" clip-path="url(#p0c2ca1fd73)" style="fill: #4c72b0; fill-opacity: 0.75"/>
   </g>
   <g id="patch_93">
    <path d="M 94.71543 185.902688 
L 95.176587 185.902688 
L 95.176587 185.902688 
L 94.71543 185.902688 
z
" clip-path="url(#p0c2ca1fd73)" style="fill: #4c72b0; fill-opacity: 0.75"/>
   </g>
   <g id="patch_94">
    <path d="M 95.176587 185.902688 
L 95.637744 185.902688 
L 95.637744 185.902688 
L 95.176587 185.902688 
z
" clip-path="url(#p0c2ca1fd73)" style="fill: #4c72b0; fill-opacity: 0.75"/>
   </g>
   <g id="patch_95">
    <path d="M 95.637744 185.902688 
L 96.098901 185.902688 
L 96.098901 185.902688 
L 95.637744 185.902688 
z
" clip-path="url(#p0c2ca1fd73)" style="fill: #4c72b0; fill-opacity: 0.75"/>
   </g>
   <g id="patch_96">
    <path d="M 96.098901 185.902688 
L 96.560058 185.902688 
L 96.560058 185.902688 
L 96.098901 185.902688 
z
" clip-path="url(#p0c2ca1fd73)" style="fill: #4c72b0; fill-opacity: 0.75"/>
   </g>
   <g id="patch_97">
    <path d="M 96.560058 185.902688 
L 97.021215 185.902688 
L 97.021215 185.902688 
L 96.560058 185.902688 
z
" clip-path="url(#p0c2ca1fd73)" style="fill: #4c72b0; fill-opacity: 0.75"/>
   </g>
   <g id="patch_98">
    <path d="M 97.021215 185.902688 
L 97.482372 185.902688 
L 97.482372 185.902688 
L 97.021215 185.902688 
z
" clip-path="url(#p0c2ca1fd73)" style="fill: #4c72b0; fill-opacity: 0.75"/>
   </g>
   <g id="patch_99">
    <path d="M 97.482372 185.902688 
L 97.943529 185.902688 
L 97.943529 185.902688 
L 97.482372 185.902688 
z
" clip-path="url(#p0c2ca1fd73)" style="fill: #4c72b0; fill-opacity: 0.75"/>
   </g>
   <g id="patch_100">
    <path d="M 97.943529 185.902688 
L 98.404686 185.902688 
L 98.404686 185.902688 
L 97.943529 185.902688 
z
" clip-path="url(#p0c2ca1fd73)" style="fill: #4c72b0; fill-opacity: 0.75"/>
   </g>
   <g id="patch_101">
    <path d="M 98.404686 185.902688 
L 98.865843 185.902688 
L 98.865843 185.902688 
L 98.404686 185.902688 
z
" clip-path="url(#p0c2ca1fd73)" style="fill: #4c72b0; fill-opacity: 0.75"/>
   </g>
   <g id="patch_102">
    <path d="M 98.865843 185.902688 
L 99.327 185.902688 
L 99.327 185.902688 
L 98.865843 185.902688 
z
" clip-path="url(#p0c2ca1fd73)" style="fill: #4c72b0; fill-opacity: 0.75"/>
   </g>
   <g id="patch_103">
    <path d="M 99.327 185.902688 
L 99.788157 185.902688 
L 99.788157 185.902688 
L 99.327 185.902688 
z
" clip-path="url(#p0c2ca1fd73)" style="fill: #4c72b0; fill-opacity: 0.75"/>
   </g>
   <g id="patch_104">
    <path d="M 99.788157 185.902688 
L 100.249314 185.902688 
L 100.249314 185.902688 
L 99.788157 185.902688 
z
" clip-path="url(#p0c2ca1fd73)" style="fill: #4c72b0; fill-opacity: 0.75"/>
   </g>
   <g id="patch_105">
    <path d="M 100.249314 185.902688 
L 100.710471 185.902688 
L 100.710471 185.902688 
L 100.249314 185.902688 
z
" clip-path="url(#p0c2ca1fd73)" style="fill: #4c72b0; fill-opacity: 0.75"/>
   </g>
   <g id="patch_106">
    <path d="M 100.710471 185.902688 
L 101.171628 185.902688 
L 101.171628 185.902688 
L 100.710471 185.902688 
z
" clip-path="url(#p0c2ca1fd73)" style="fill: #4c72b0; fill-opacity: 0.75"/>
   </g>
   <g id="patch_107">
    <path d="M 101.171628 185.902688 
L 101.632785 185.902688 
L 101.632785 185.902688 
L 101.171628 185.902688 
z
" clip-path="url(#p0c2ca1fd73)" style="fill: #4c72b0; fill-opacity: 0.75"/>
   </g>
   <g id="patch_108">
    <path d="M 101.632785 185.902688 
L 102.093942 185.902688 
L 102.093942 185.902688 
L 101.632785 185.902688 
z
" clip-path="url(#p0c2ca1fd73)" style="fill: #4c72b0; fill-opacity: 0.75"/>
   </g>
   <g id="patch_109">
    <path d="M 102.093942 185.902688 
L 102.555099 185.902688 
L 102.555099 185.902688 
L 102.093942 185.902688 
z
" clip-path="url(#p0c2ca1fd73)" style="fill: #4c72b0; fill-opacity: 0.75"/>
   </g>
   <g id="patch_110">
    <path d="M 102.555099 185.902688 
L 103.016256 185.902688 
L 103.016256 185.902688 
L 102.555099 185.902688 
z
" clip-path="url(#p0c2ca1fd73)" style="fill: #4c72b0; fill-opacity: 0.75"/>
   </g>
   <g id="patch_111">
    <path d="M 103.016256 185.902688 
L 103.477413 185.902688 
L 103.477413 185.902688 
L 103.016256 185.902688 
z
" clip-path="url(#p0c2ca1fd73)" style="fill: #4c72b0; fill-opacity: 0.75"/>
   </g>
   <g id="patch_112">
    <path d="M 103.477413 185.902688 
L 103.93857 185.902688 
L 103.93857 185.902688 
L 103.477413 185.902688 
z
" clip-path="url(#p0c2ca1fd73)" style="fill: #4c72b0; fill-opacity: 0.75"/>
   </g>
   <g id="patch_113">
    <path d="M 103.93857 185.902688 
L 104.399727 185.902688 
L 104.399727 185.902688 
L 103.93857 185.902688 
z
" clip-path="url(#p0c2ca1fd73)" style="fill: #4c72b0; fill-opacity: 0.75"/>
   </g>
   <g id="patch_114">
    <path d="M 104.399727 185.902688 
L 104.860884 185.902688 
L 104.860884 185.902688 
L 104.399727 185.902688 
z
" clip-path="url(#p0c2ca1fd73)" style="fill: #4c72b0; fill-opacity: 0.75"/>
   </g>
   <g id="patch_115">
    <path d="M 104.860884 185.902688 
L 105.322041 185.902688 
L 105.322041 185.902688 
L 104.860884 185.902688 
z
" clip-path="url(#p0c2ca1fd73)" style="fill: #4c72b0; fill-opacity: 0.75"/>
   </g>
   <g id="patch_116">
    <path d="M 105.322041 185.902688 
L 105.783198 185.902688 
L 105.783198 185.902688 
L 105.322041 185.902688 
z
" clip-path="url(#p0c2ca1fd73)" style="fill: #4c72b0; fill-opacity: 0.75"/>
   </g>
   <g id="patch_117">
    <path d="M 105.783198 185.902688 
L 106.244355 185.902688 
L 106.244355 185.902688 
L 105.783198 185.902688 
z
" clip-path="url(#p0c2ca1fd73)" style="fill: #4c72b0; fill-opacity: 0.75"/>
   </g>
   <g id="patch_118">
    <path d="M 106.244355 185.902688 
L 106.705512 185.902688 
L 106.705512 185.902688 
L 106.244355 185.902688 
z
" clip-path="url(#p0c2ca1fd73)" style="fill: #4c72b0; fill-opacity: 0.75"/>
   </g>
   <g id="patch_119">
    <path d="M 106.705512 185.902688 
L 107.166669 185.902688 
L 107.166669 185.902688 
L 106.705512 185.902688 
z
" clip-path="url(#p0c2ca1fd73)" style="fill: #4c72b0; fill-opacity: 0.75"/>
   </g>
   <g id="patch_120">
    <path d="M 107.166669 185.902688 
L 107.627826 185.902688 
L 107.627826 185.902688 
L 107.166669 185.902688 
z
" clip-path="url(#p0c2ca1fd73)" style="fill: #4c72b0; fill-opacity: 0.75"/>
   </g>
   <g id="patch_121">
    <path d="M 107.627826 185.902688 
L 108.088983 185.902688 
L 108.088983 185.902688 
L 107.627826 185.902688 
z
" clip-path="url(#p0c2ca1fd73)" style="fill: #4c72b0; fill-opacity: 0.75"/>
   </g>
   <g id="patch_122">
    <path d="M 108.088983 185.902688 
L 108.55014 185.902688 
L 108.55014 185.902688 
L 108.088983 185.902688 
z
" clip-path="url(#p0c2ca1fd73)" style="fill: #4c72b0; fill-opacity: 0.75"/>
   </g>
   <g id="patch_123">
    <path d="M 108.55014 185.902688 
L 109.011298 185.902688 
L 109.011298 185.902688 
L 108.55014 185.902688 
z
" clip-path="url(#p0c2ca1fd73)" style="fill: #4c72b0; fill-opacity: 0.75"/>
   </g>
   <g id="patch_124">
    <path d="M 109.011298 185.902688 
L 109.472455 185.902688 
L 109.472455 185.902688 
L 109.011298 185.902688 
z
" clip-path="url(#p0c2ca1fd73)" style="fill: #4c72b0; fill-opacity: 0.75"/>
   </g>
   <g id="patch_125">
    <path d="M 109.472455 185.902688 
L 109.933612 185.902688 
L 109.933612 185.902688 
L 109.472455 185.902688 
z
" clip-path="url(#p0c2ca1fd73)" style="fill: #4c72b0; fill-opacity: 0.75"/>
   </g>
   <g id="patch_126">
    <path d="M 109.933612 185.902688 
L 110.394769 185.902688 
L 110.394769 185.902688 
L 109.933612 185.902688 
z
" clip-path="url(#p0c2ca1fd73)" style="fill: #4c72b0; fill-opacity: 0.75"/>
   </g>
   <g id="patch_127">
    <path d="M 110.394769 185.902688 
L 110.855926 185.902688 
L 110.855926 185.902688 
L 110.394769 185.902688 
z
" clip-path="url(#p0c2ca1fd73)" style="fill: #4c72b0; fill-opacity: 0.75"/>
   </g>
   <g id="patch_128">
    <path d="M 110.855926 185.902688 
L 111.317083 185.902688 
L 111.317083 185.902688 
L 110.855926 185.902688 
z
" clip-path="url(#p0c2ca1fd73)" style="fill: #4c72b0; fill-opacity: 0.75"/>
   </g>
   <g id="patch_129">
    <path d="M 111.317083 185.902688 
L 111.77824 185.902688 
L 111.77824 185.902688 
L 111.317083 185.902688 
z
" clip-path="url(#p0c2ca1fd73)" style="fill: #4c72b0; fill-opacity: 0.75"/>
   </g>
   <g id="patch_130">
    <path d="M 111.77824 185.902688 
L 112.239397 185.902688 
L 112.239397 185.902688 
L 111.77824 185.902688 
z
" clip-path="url(#p0c2ca1fd73)" style="fill: #4c72b0; fill-opacity: 0.75"/>
   </g>
   <g id="patch_131">
    <path d="M 112.239397 185.902688 
L 112.700554 185.902688 
L 112.700554 185.902688 
L 112.239397 185.902688 
z
" clip-path="url(#p0c2ca1fd73)" style="fill: #4c72b0; fill-opacity: 0.75"/>
   </g>
   <g id="patch_132">
    <path d="M 112.700554 185.902688 
L 113.161711 185.902688 
L 113.161711 185.902688 
L 112.700554 185.902688 
z
" clip-path="url(#p0c2ca1fd73)" style="fill: #4c72b0; fill-opacity: 0.75"/>
   </g>
   <g id="patch_133">
    <path d="M 113.161711 185.902688 
L 113.622868 185.902688 
L 113.622868 185.902688 
L 113.161711 185.902688 
z
" clip-path="url(#p0c2ca1fd73)" style="fill: #4c72b0; fill-opacity: 0.75"/>
   </g>
   <g id="patch_134">
    <path d="M 113.622868 185.902688 
L 114.084025 185.902688 
L 114.084025 185.902688 
L 113.622868 185.902688 
z
" clip-path="url(#p0c2ca1fd73)" style="fill: #4c72b0; fill-opacity: 0.75"/>
   </g>
   <g id="patch_135">
    <path d="M 114.084025 185.902688 
L 114.545182 185.902688 
L 114.545182 185.902688 
L 114.084025 185.902688 
z
" clip-path="url(#p0c2ca1fd73)" style="fill: #4c72b0; fill-opacity: 0.75"/>
   </g>
   <g id="patch_136">
    <path d="M 114.545182 185.902688 
L 115.006339 185.902688 
L 115.006339 185.902688 
L 114.545182 185.902688 
z
" clip-path="url(#p0c2ca1fd73)" style="fill: #4c72b0; fill-opacity: 0.75"/>
   </g>
   <g id="patch_137">
    <path d="M 115.006339 185.902688 
L 115.467496 185.902688 
L 115.467496 185.902688 
L 115.006339 185.902688 
z
" clip-path="url(#p0c2ca1fd73)" style="fill: #4c72b0; fill-opacity: 0.75"/>
   </g>
   <g id="patch_138">
    <path d="M 115.467496 185.902688 
L 115.928653 185.902688 
L 115.928653 185.902688 
L 115.467496 185.902688 
z
" clip-path="url(#p0c2ca1fd73)" style="fill: #4c72b0; fill-opacity: 0.75"/>
   </g>
   <g id="patch_139">
    <path d="M 115.928653 185.902688 
L 116.38981 185.902688 
L 116.38981 185.902688 
L 115.928653 185.902688 
z
" clip-path="url(#p0c2ca1fd73)" style="fill: #4c72b0; fill-opacity: 0.75"/>
   </g>
   <g id="patch_140">
    <path d="M 116.38981 185.902688 
L 116.850967 185.902688 
L 116.850967 185.902688 
L 116.38981 185.902688 
z
" clip-path="url(#p0c2ca1fd73)" style="fill: #4c72b0; fill-opacity: 0.75"/>
   </g>
   <g id="patch_141">
    <path d="M 116.850967 185.902688 
L 117.312124 185.902688 
L 117.312124 185.902688 
L 116.850967 185.902688 
z
" clip-path="url(#p0c2ca1fd73)" style="fill: #4c72b0; fill-opacity: 0.75"/>
   </g>
   <g id="patch_142">
    <path d="M 117.312124 185.902688 
L 117.773281 185.902688 
L 117.773281 185.902688 
L 117.312124 185.902688 
z
" clip-path="url(#p0c2ca1fd73)" style="fill: #4c72b0; fill-opacity: 0.75"/>
   </g>
   <g id="patch_143">
    <path d="M 117.773281 185.902688 
L 118.234438 185.902688 
L 118.234438 185.902688 
L 117.773281 185.902688 
z
" clip-path="url(#p0c2ca1fd73)" style="fill: #4c72b0; fill-opacity: 0.75"/>
   </g>
   <g id="patch_144">
    <path d="M 118.234438 185.902688 
L 118.695595 185.902688 
L 118.695595 185.902688 
L 118.234438 185.902688 
z
" clip-path="url(#p0c2ca1fd73)" style="fill: #4c72b0; fill-opacity: 0.75"/>
   </g>
   <g id="patch_145">
    <path d="M 118.695595 185.902688 
L 119.156752 185.902688 
L 119.156752 185.902688 
L 118.695595 185.902688 
z
" clip-path="url(#p0c2ca1fd73)" style="fill: #4c72b0; fill-opacity: 0.75"/>
   </g>
   <g id="patch_146">
    <path d="M 119.156752 185.902688 
L 119.617909 185.902688 
L 119.617909 185.902688 
L 119.156752 185.902688 
z
" clip-path="url(#p0c2ca1fd73)" style="fill: #4c72b0; fill-opacity: 0.75"/>
   </g>
   <g id="patch_147">
    <path d="M 119.617909 185.902688 
L 120.079066 185.902688 
L 120.079066 185.902688 
L 119.617909 185.902688 
z
" clip-path="url(#p0c2ca1fd73)" style="fill: #4c72b0; fill-opacity: 0.75"/>
   </g>
   <g id="patch_148">
    <path d="M 120.079066 185.902688 
L 120.540223 185.902688 
L 120.540223 185.902688 
L 120.079066 185.902688 
z
" clip-path="url(#p0c2ca1fd73)" style="fill: #4c72b0; fill-opacity: 0.75"/>
   </g>
   <g id="patch_149">
    <path d="M 120.540223 185.902688 
L 121.00138 185.902688 
L 121.00138 185.902688 
L 120.540223 185.902688 
z
" clip-path="url(#p0c2ca1fd73)" style="fill: #4c72b0; fill-opacity: 0.75"/>
   </g>
   <g id="patch_150">
    <path d="M 121.00138 185.902688 
L 121.462537 185.902688 
L 121.462537 185.902688 
L 121.00138 185.902688 
z
" clip-path="url(#p0c2ca1fd73)" style="fill: #4c72b0; fill-opacity: 0.75"/>
   </g>
   <g id="patch_151">
    <path d="M 121.462537 185.902688 
L 121.923694 185.902688 
L 121.923694 185.902688 
L 121.462537 185.902688 
z
" clip-path="url(#p0c2ca1fd73)" style="fill: #4c72b0; fill-opacity: 0.75"/>
   </g>
   <g id="patch_152">
    <path d="M 121.923694 185.902688 
L 122.384851 185.902688 
L 122.384851 185.902688 
L 121.923694 185.902688 
z
" clip-path="url(#p0c2ca1fd73)" style="fill: #4c72b0; fill-opacity: 0.75"/>
   </g>
   <g id="patch_153">
    <path d="M 122.384851 185.902688 
L 122.846008 185.902688 
L 122.846008 185.902688 
L 122.384851 185.902688 
z
" clip-path="url(#p0c2ca1fd73)" style="fill: #4c72b0; fill-opacity: 0.75"/>
   </g>
   <g id="patch_154">
    <path d="M 122.846008 185.902688 
L 123.307165 185.902688 
L 123.307165 185.902688 
L 122.846008 185.902688 
z
" clip-path="url(#p0c2ca1fd73)" style="fill: #4c72b0; fill-opacity: 0.75"/>
   </g>
   <g id="patch_155">
    <path d="M 123.307165 185.902688 
L 123.768322 185.902688 
L 123.768322 185.902688 
L 123.307165 185.902688 
z
" clip-path="url(#p0c2ca1fd73)" style="fill: #4c72b0; fill-opacity: 0.75"/>
   </g>
   <g id="patch_156">
    <path d="M 123.768322 185.902688 
L 124.229479 185.902688 
L 124.229479 185.902688 
L 123.768322 185.902688 
z
" clip-path="url(#p0c2ca1fd73)" style="fill: #4c72b0; fill-opacity: 0.75"/>
   </g>
   <g id="patch_157">
    <path d="M 124.229479 185.902688 
L 124.690636 185.902688 
L 124.690636 185.902688 
L 124.229479 185.902688 
z
" clip-path="url(#p0c2ca1fd73)" style="fill: #4c72b0; fill-opacity: 0.75"/>
   </g>
   <g id="patch_158">
    <path d="M 124.690636 185.902688 
L 125.151793 185.902688 
L 125.151793 185.902688 
L 124.690636 185.902688 
z
" clip-path="url(#p0c2ca1fd73)" style="fill: #4c72b0; fill-opacity: 0.75"/>
   </g>
   <g id="patch_159">
    <path d="M 125.151793 185.902688 
L 125.61295 185.902688 
L 125.61295 185.902688 
L 125.151793 185.902688 
z
" clip-path="url(#p0c2ca1fd73)" style="fill: #4c72b0; fill-opacity: 0.75"/>
   </g>
   <g id="patch_160">
    <path d="M 125.61295 185.902688 
L 126.074107 185.902688 
L 126.074107 185.902688 
L 125.61295 185.902688 
z
" clip-path="url(#p0c2ca1fd73)" style="fill: #4c72b0; fill-opacity: 0.75"/>
   </g>
   <g id="patch_161">
    <path d="M 126.074107 185.902688 
L 126.535264 185.902688 
L 126.535264 185.902688 
L 126.074107 185.902688 
z
" clip-path="url(#p0c2ca1fd73)" style="fill: #4c72b0; fill-opacity: 0.75"/>
   </g>
   <g id="patch_162">
    <path d="M 126.535264 185.902688 
L 126.996421 185.902688 
L 126.996421 185.902688 
L 126.535264 185.902688 
z
" clip-path="url(#p0c2ca1fd73)" style="fill: #4c72b0; fill-opacity: 0.75"/>
   </g>
   <g id="patch_163">
    <path d="M 126.996421 185.902688 
L 127.457579 185.902688 
L 127.457579 185.902688 
L 126.996421 185.902688 
z
" clip-path="url(#p0c2ca1fd73)" style="fill: #4c72b0; fill-opacity: 0.75"/>
   </g>
   <g id="patch_164">
    <path d="M 127.457579 185.902688 
L 127.918736 185.902688 
L 127.918736 185.902688 
L 127.457579 185.902688 
z
" clip-path="url(#p0c2ca1fd73)" style="fill: #4c72b0; fill-opacity: 0.75"/>
   </g>
   <g id="patch_165">
    <path d="M 127.918736 185.902688 
L 128.379893 185.902688 
L 128.379893 185.902688 
L 127.918736 185.902688 
z
" clip-path="url(#p0c2ca1fd73)" style="fill: #4c72b0; fill-opacity: 0.75"/>
   </g>
   <g id="patch_166">
    <path d="M 128.379893 185.902688 
L 128.84105 185.902688 
L 128.84105 185.902688 
L 128.379893 185.902688 
z
" clip-path="url(#p0c2ca1fd73)" style="fill: #4c72b0; fill-opacity: 0.75"/>
   </g>
   <g id="patch_167">
    <path d="M 128.84105 185.902688 
L 129.302207 185.902688 
L 129.302207 185.902688 
L 128.84105 185.902688 
z
" clip-path="url(#p0c2ca1fd73)" style="fill: #4c72b0; fill-opacity: 0.75"/>
   </g>
   <g id="patch_168">
    <path d="M 129.302207 185.902688 
L 129.763364 185.902688 
L 129.763364 185.902688 
L 129.302207 185.902688 
z
" clip-path="url(#p0c2ca1fd73)" style="fill: #4c72b0; fill-opacity: 0.75"/>
   </g>
   <g id="patch_169">
    <path d="M 129.763364 185.902688 
L 130.224521 185.902688 
L 130.224521 185.902688 
L 129.763364 185.902688 
z
" clip-path="url(#p0c2ca1fd73)" style="fill: #4c72b0; fill-opacity: 0.75"/>
   </g>
   <g id="patch_170">
    <path d="M 130.224521 185.902688 
L 130.685678 185.902688 
L 130.685678 185.902688 
L 130.224521 185.902688 
z
" clip-path="url(#p0c2ca1fd73)" style="fill: #4c72b0; fill-opacity: 0.75"/>
   </g>
   <g id="patch_171">
    <path d="M 130.685678 185.902688 
L 131.146835 185.902688 
L 131.146835 185.902688 
L 130.685678 185.902688 
z
" clip-path="url(#p0c2ca1fd73)" style="fill: #4c72b0; fill-opacity: 0.75"/>
   </g>
   <g id="patch_172">
    <path d="M 131.146835 185.902688 
L 131.607992 185.902688 
L 131.607992 185.902688 
L 131.146835 185.902688 
z
" clip-path="url(#p0c2ca1fd73)" style="fill: #4c72b0; fill-opacity: 0.75"/>
   </g>
   <g id="patch_173">
    <path d="M 131.607992 185.902688 
L 132.069149 185.902688 
L 132.069149 185.902688 
L 131.607992 185.902688 
z
" clip-path="url(#p0c2ca1fd73)" style="fill: #4c72b0; fill-opacity: 0.75"/>
   </g>
   <g id="patch_174">
    <path d="M 132.069149 185.902688 
L 132.530306 185.902688 
L 132.530306 185.902688 
L 132.069149 185.902688 
z
" clip-path="url(#p0c2ca1fd73)" style="fill: #4c72b0; fill-opacity: 0.75"/>
   </g>
   <g id="patch_175">
    <path d="M 132.530306 185.902688 
L 132.991463 185.902688 
L 132.991463 185.902688 
L 132.530306 185.902688 
z
" clip-path="url(#p0c2ca1fd73)" style="fill: #4c72b0; fill-opacity: 0.75"/>
   </g>
   <g id="patch_176">
    <path d="M 132.991463 185.902688 
L 133.45262 185.902688 
L 133.45262 185.902688 
L 132.991463 185.902688 
z
" clip-path="url(#p0c2ca1fd73)" style="fill: #4c72b0; fill-opacity: 0.75"/>
   </g>
   <g id="patch_177">
    <path d="M 133.45262 185.902688 
L 133.913777 185.902688 
L 133.913777 185.902688 
L 133.45262 185.902688 
z
" clip-path="url(#p0c2ca1fd73)" style="fill: #4c72b0; fill-opacity: 0.75"/>
   </g>
   <g id="patch_178">
    <path d="M 133.913777 185.902688 
L 134.374934 185.902688 
L 134.374934 185.902688 
L 133.913777 185.902688 
z
" clip-path="url(#p0c2ca1fd73)" style="fill: #4c72b0; fill-opacity: 0.75"/>
   </g>
   <g id="patch_179">
    <path d="M 134.374934 185.902688 
L 134.836091 185.902688 
L 134.836091 185.902688 
L 134.374934 185.902688 
z
" clip-path="url(#p0c2ca1fd73)" style="fill: #4c72b0; fill-opacity: 0.75"/>
   </g>
   <g id="patch_180">
    <path d="M 134.836091 185.902688 
L 135.297248 185.902688 
L 135.297248 185.902688 
L 134.836091 185.902688 
z
" clip-path="url(#p0c2ca1fd73)" style="fill: #4c72b0; fill-opacity: 0.75"/>
   </g>
   <g id="patch_181">
    <path d="M 135.297248 185.902688 
L 135.758405 185.902688 
L 135.758405 185.902688 
L 135.297248 185.902688 
z
" clip-path="url(#p0c2ca1fd73)" style="fill: #4c72b0; fill-opacity: 0.75"/>
   </g>
   <g id="patch_182">
    <path d="M 135.758405 185.902688 
L 136.219562 185.902688 
L 136.219562 185.902688 
L 135.758405 185.902688 
z
" clip-path="url(#p0c2ca1fd73)" style="fill: #4c72b0; fill-opacity: 0.75"/>
   </g>
   <g id="patch_183">
    <path d="M 136.219562 185.902688 
L 136.680719 185.902688 
L 136.680719 185.902688 
L 136.219562 185.902688 
z
" clip-path="url(#p0c2ca1fd73)" style="fill: #4c72b0; fill-opacity: 0.75"/>
   </g>
   <g id="patch_184">
    <path d="M 136.680719 185.902688 
L 137.141876 185.902688 
L 137.141876 185.902688 
L 136.680719 185.902688 
z
" clip-path="url(#p0c2ca1fd73)" style="fill: #4c72b0; fill-opacity: 0.75"/>
   </g>
   <g id="patch_185">
    <path d="M 137.141876 185.902688 
L 137.603033 185.902688 
L 137.603033 185.902688 
L 137.141876 185.902688 
z
" clip-path="url(#p0c2ca1fd73)" style="fill: #4c72b0; fill-opacity: 0.75"/>
   </g>
   <g id="patch_186">
    <path d="M 137.603033 185.902688 
L 138.06419 185.902688 
L 138.06419 185.902688 
L 137.603033 185.902688 
z
" clip-path="url(#p0c2ca1fd73)" style="fill: #4c72b0; fill-opacity: 0.75"/>
   </g>
   <g id="patch_187">
    <path d="M 138.06419 185.902688 
L 138.525347 185.902688 
L 138.525347 185.902688 
L 138.06419 185.902688 
z
" clip-path="url(#p0c2ca1fd73)" style="fill: #4c72b0; fill-opacity: 0.75"/>
   </g>
   <g id="patch_188">
    <path d="M 138.525347 185.902688 
L 138.986504 185.902688 
L 138.986504 185.902688 
L 138.525347 185.902688 
z
" clip-path="url(#p0c2ca1fd73)" style="fill: #4c72b0; fill-opacity: 0.75"/>
   </g>
   <g id="patch_189">
    <path d="M 138.986504 185.902688 
L 139.447661 185.902688 
L 139.447661 185.902688 
L 138.986504 185.902688 
z
" clip-path="url(#p0c2ca1fd73)" style="fill: #4c72b0; fill-opacity: 0.75"/>
   </g>
   <g id="patch_190">
    <path d="M 139.447661 185.902688 
L 139.908818 185.902688 
L 139.908818 185.902688 
L 139.447661 185.902688 
z
" clip-path="url(#p0c2ca1fd73)" style="fill: #4c72b0; fill-opacity: 0.75"/>
   </g>
   <g id="patch_191">
    <path d="M 139.908818 185.902688 
L 140.369975 185.902688 
L 140.369975 185.902688 
L 139.908818 185.902688 
z
" clip-path="url(#p0c2ca1fd73)" style="fill: #4c72b0; fill-opacity: 0.75"/>
   </g>
   <g id="patch_192">
    <path d="M 140.369975 185.902688 
L 140.831132 185.902688 
L 140.831132 185.902688 
L 140.369975 185.902688 
z
" clip-path="url(#p0c2ca1fd73)" style="fill: #4c72b0; fill-opacity: 0.75"/>
   </g>
   <g id="patch_193">
    <path d="M 140.831132 185.902688 
L 141.292289 185.902688 
L 141.292289 185.902688 
L 140.831132 185.902688 
z
" clip-path="url(#p0c2ca1fd73)" style="fill: #4c72b0; fill-opacity: 0.75"/>
   </g>
   <g id="patch_194">
    <path d="M 141.292289 185.902688 
L 141.753446 185.902688 
L 141.753446 185.902688 
L 141.292289 185.902688 
z
" clip-path="url(#p0c2ca1fd73)" style="fill: #4c72b0; fill-opacity: 0.75"/>
   </g>
   <g id="patch_195">
    <path d="M 141.753446 185.902688 
L 142.214603 185.902688 
L 142.214603 185.902688 
L 141.753446 185.902688 
z
" clip-path="url(#p0c2ca1fd73)" style="fill: #4c72b0; fill-opacity: 0.75"/>
   </g>
   <g id="patch_196">
    <path d="M 142.214603 185.902688 
L 142.67576 185.902688 
L 142.67576 185.902688 
L 142.214603 185.902688 
z
" clip-path="url(#p0c2ca1fd73)" style="fill: #4c72b0; fill-opacity: 0.75"/>
   </g>
   <g id="patch_197">
    <path d="M 142.67576 185.902688 
L 143.136917 185.902688 
L 143.136917 185.902688 
L 142.67576 185.902688 
z
" clip-path="url(#p0c2ca1fd73)" style="fill: #4c72b0; fill-opacity: 0.75"/>
   </g>
   <g id="patch_198">
    <path d="M 143.136917 185.902688 
L 143.598074 185.902688 
L 143.598074 185.902688 
L 143.136917 185.902688 
z
" clip-path="url(#p0c2ca1fd73)" style="fill: #4c72b0; fill-opacity: 0.75"/>
   </g>
   <g id="patch_199">
    <path d="M 143.598074 185.902688 
L 144.059231 185.902688 
L 144.059231 185.902688 
L 143.598074 185.902688 
z
" clip-path="url(#p0c2ca1fd73)" style="fill: #4c72b0; fill-opacity: 0.75"/>
   </g>
   <g id="patch_200">
    <path d="M 144.059231 185.902688 
L 144.520388 185.902688 
L 144.520388 185.902688 
L 144.059231 185.902688 
z
" clip-path="url(#p0c2ca1fd73)" style="fill: #4c72b0; fill-opacity: 0.75"/>
   </g>
   <g id="patch_201">
    <path d="M 144.520388 185.902688 
L 144.981545 185.902688 
L 144.981545 185.902688 
L 144.520388 185.902688 
z
" clip-path="url(#p0c2ca1fd73)" style="fill: #4c72b0; fill-opacity: 0.75"/>
   </g>
   <g id="patch_202">
    <path d="M 144.981545 185.902688 
L 145.442702 185.902688 
L 145.442702 179.337055 
L 144.981545 179.337055 
z
" clip-path="url(#p0c2ca1fd73)" style="fill: #4c72b0; fill-opacity: 0.75"/>
   </g>
   <g id="line2d_1">
    <path d="M 48.599727 184.387974 
L 55.763135 184.222666 
L 62.368486 184.295579 
L 70.120388 184.617136 
L 91.945444 185.648629 
L 102.913777 185.838004 
L 121.836942 185.900129 
L 150.054273 185.902685 
L 150.054273 185.902685 
" clip-path="url(#p0c2ca1fd73)" style="fill: none; stroke: #1a1a1a; stroke-width: 2; stroke-linecap: round"/>
   </g>
   <g id="line2d_2">
    <path d="M 53.211298 185.902688 
L 53.211298 19.582687 
" clip-path="url(#p0c2ca1fd73)" style="fill: none; stroke: #ff0000; stroke-width: 1.5; stroke-linecap: round"/>
   </g>
   <g id="patch_203">
    <path d="M 43.527 185.902688 
L 43.527 19.582687 
" style="fill: none; stroke: #262626; stroke-width: 1.25; stroke-linejoin: miter; stroke-linecap: square"/>
   </g>
   <g id="patch_204">
    <path d="M 43.527 185.902688 
L 155.127 185.902688 
" style="fill: none; stroke: #262626; stroke-width: 1.25; stroke-linejoin: miter; stroke-linecap: square"/>
   </g>
   <g id="text_11">
    <!-- Observed $\Delta$ = -0.017 -->
    <g style="fill: #262626" transform="translate(58.299678 103.955062)rotate(-90)scale(0.058296 -0.058296)">
     <defs>
      <path id="DejaVuSans-4f" d="M 2522 4238 
Q 1834 4238 1429 3725 
Q 1025 3213 1025 2328 
Q 1025 1447 1429 934 
Q 1834 422 2522 422 
Q 3209 422 3611 934 
Q 4013 1447 4013 2328 
Q 4013 3213 3611 3725 
Q 3209 4238 2522 4238 
z
M 2522 4750 
Q 3503 4750 4090 4092 
Q 4678 3434 4678 2328 
Q 4678 1225 4090 567 
Q 3503 -91 2522 -91 
Q 1538 -91 948 565 
Q 359 1222 359 2328 
Q 359 3434 948 4092 
Q 1538 4750 2522 4750 
z
" transform="scale(0.015625)"/>
      <path id="DejaVuSans-76" d="M 191 3500 
L 800 3500 
L 1894 563 
L 2988 3500 
L 3597 3500 
L 2284 0 
L 1503 0 
L 191 3500 
z
" transform="scale(0.015625)"/>
      <path id="DejaVuSans-3d" d="M 678 2906 
L 4684 2906 
L 4684 2381 
L 678 2381 
L 678 2906 
z
M 678 1631 
L 4684 1631 
L 4684 1100 
L 678 1100 
L 678 1631 
z
" transform="scale(0.015625)"/>
      <path id="DejaVuSans-2d" d="M 313 2009 
L 1997 2009 
L 1997 1497 
L 313 1497 
L 313 2009 
z
" transform="scale(0.015625)"/>
      <path id="DejaVuSans-37" d="M 525 4666 
L 3525 4666 
L 3525 4397 
L 1831 0 
L 1172 0 
L 2766 4134 
L 525 4134 
L 525 4666 
z
" transform="scale(0.015625)"/>
     </defs>
     <use xlink:href="#DejaVuSans-4f" transform="translate(0 0.015625)"/>
     <use xlink:href="#DejaVuSans-62" transform="translate(78.710938 0.015625)"/>
     <use xlink:href="#DejaVuSans-73" transform="translate(142.1875 0.015625)"/>
     <use xlink:href="#DejaVuSans-65" transform="translate(194.287109 0.015625)"/>
     <use xlink:href="#DejaVuSans-72" transform="translate(255.810547 0.015625)"/>
     <use xlink:href="#DejaVuSans-76" transform="translate(296.923828 0.015625)"/>
     <use xlink:href="#DejaVuSans-65" transform="translate(356.103516 0.015625)"/>
     <use xlink:href="#DejaVuSans-64" transform="translate(417.626953 0.015625)"/>
     <use xlink:href="#DejaVuSans-20" transform="translate(481.103516 0.015625)"/>
     <use xlink:href="#DejaVuSans-394" transform="translate(512.890625 0.015625)"/>
     <use xlink:href="#DejaVuSans-20" transform="translate(581.298828 0.015625)"/>
     <use xlink:href="#DejaVuSans-3d" transform="translate(613.085938 0.015625)"/>
     <use xlink:href="#DejaVuSans-20" transform="translate(696.875 0.015625)"/>
     <use xlink:href="#DejaVuSans-2d" transform="translate(728.662109 0.015625)"/>
     <use xlink:href="#DejaVuSans-30" transform="translate(764.746094 0.015625)"/>
     <use xlink:href="#DejaVuSans-2e" transform="translate(828.369141 0.015625)"/>
     <use xlink:href="#DejaVuSans-30" transform="translate(860.15625 0.015625)"/>
     <use xlink:href="#DejaVuSans-31" transform="translate(923.779297 0.015625)"/>
     <use xlink:href="#DejaVuSans-37" transform="translate(987.402344 0.015625)"/>
    </g>
   </g>
   <g id="text_12">
    <g id="patch_205">
     <path d="M 82.033312 38.548312 
L 149.547 38.548312 
Q 152.067 38.548312 152.067 36.028312 
L 152.067 27.898688 
Q 152.067 25.378687 149.547 25.378687 
L 82.033312 25.378687 
Q 79.513312 25.378687 79.513312 27.898688 
L 79.513312 36.028312 
Q 79.513312 38.548312 82.033312 38.548312 
z
" style="fill: #ffffff"/>
    </g>
    <!-- p-value = 0.419 -->
    <g style="fill: #262626" transform="translate(82.033312 34.281375)scale(0.084 -0.084)">
     <defs>
      <path id="DejaVuSans-70" d="M 1159 525 
L 1159 -1331 
L 581 -1331 
L 581 3500 
L 1159 3500 
L 1159 2969 
Q 1341 3281 1617 3432 
Q 1894 3584 2278 3584 
Q 2916 3584 3314 3078 
Q 3713 2572 3713 1747 
Q 3713 922 3314 415 
Q 2916 -91 2278 -91 
Q 1894 -91 1617 61 
Q 1341 213 1159 525 
z
M 3116 1747 
Q 3116 2381 2855 2742 
Q 2594 3103 2138 3103 
Q 1681 3103 1420 2742 
Q 1159 2381 1159 1747 
Q 1159 1113 1420 752 
Q 1681 391 2138 391 
Q 2594 391 2855 752 
Q 3116 1113 3116 1747 
z
" transform="scale(0.015625)"/>
      <path id="DejaVuSans-39" d="M 703 97 
L 703 672 
Q 941 559 1184 500 
Q 1428 441 1663 441 
Q 2288 441 2617 861 
Q 2947 1281 2994 2138 
Q 2813 1869 2534 1725 
Q 2256 1581 1919 1581 
Q 1219 1581 811 2004 
Q 403 2428 403 3163 
Q 403 3881 828 4315 
Q 1253 4750 1959 4750 
Q 2769 4750 3195 4129 
Q 3622 3509 3622 2328 
Q 3622 1225 3098 567 
Q 2575 -91 1691 -91 
Q 1453 -91 1209 -44 
Q 966 3 703 97 
z
M 1959 2075 
Q 2384 2075 2632 2365 
Q 2881 2656 2881 3163 
Q 2881 3666 2632 3958 
Q 2384 4250 1959 4250 
Q 1534 4250 1286 3958 
Q 1038 3666 1038 3163 
Q 1038 2656 1286 2365 
Q 1534 2075 1959 2075 
z
" transform="scale(0.015625)"/>
     </defs>
     <use xlink:href="#DejaVuSans-70"/>
     <use xlink:href="#DejaVuSans-2d" x="63.476562"/>
     <use xlink:href="#DejaVuSans-76" x="96.935547"/>
     <use xlink:href="#DejaVuSans-61" x="156.115234"/>
     <use xlink:href="#DejaVuSans-6c" x="217.394531"/>
     <use xlink:href="#DejaVuSans-75" x="245.177734"/>
     <use xlink:href="#DejaVuSans-65" x="308.556641"/>
     <use xlink:href="#DejaVuSans-20" x="370.080078"/>
     <use xlink:href="#DejaVuSans-3d" x="401.867188"/>
     <use xlink:href="#DejaVuSans-20" x="485.65625"/>
     <use xlink:href="#DejaVuSans-30" x="517.443359"/>
     <use xlink:href="#DejaVuSans-2e" x="581.066406"/>
     <use xlink:href="#DejaVuSans-34" x="612.853516"/>
     <use xlink:href="#DejaVuSans-31" x="676.476562"/>
     <use xlink:href="#DejaVuSans-39" x="740.099609"/>
    </g>
   </g>
   <g id="text_13">
    <!-- Structured Shuffling -->
    <g style="fill: #262626" transform="translate(57.181969 13.582687)scale(0.084 -0.084)">
     <defs>
      <path id="DejaVuSans-53" d="M 3425 4513 
L 3425 3897 
Q 3066 4069 2747 4153 
Q 2428 4238 2131 4238 
Q 1616 4238 1336 4038 
Q 1056 3838 1056 3469 
Q 1056 3159 1242 3001 
Q 1428 2844 1947 2747 
L 2328 2669 
Q 3034 2534 3370 2195 
Q 3706 1856 3706 1288 
Q 3706 609 3251 259 
Q 2797 -91 1919 -91 
Q 1588 -91 1214 -16 
Q 841 59 441 206 
L 441 856 
Q 825 641 1194 531 
Q 1563 422 1919 422 
Q 2459 422 2753 634 
Q 3047 847 3047 1241 
Q 3047 1584 2836 1778 
Q 2625 1972 2144 2069 
L 1759 2144 
Q 1053 2284 737 2584 
Q 422 2884 422 3419 
Q 422 4038 858 4394 
Q 1294 4750 2059 4750 
Q 2388 4750 2728 4690 
Q 3069 4631 3425 4513 
z
" transform="scale(0.015625)"/>
      <path id="DejaVuSans-63" d="M 3122 3366 
L 3122 2828 
Q 2878 2963 2633 3030 
Q 2388 3097 2138 3097 
Q 1578 3097 1268 2742 
Q 959 2388 959 1747 
Q 959 1106 1268 751 
Q 1578 397 2138 397 
Q 2388 397 2633 464 
Q 2878 531 3122 666 
L 3122 134 
Q 2881 22 2623 -34 
Q 2366 -91 2075 -91 
Q 1284 -91 818 406 
Q 353 903 353 1747 
Q 353 2603 823 3093 
Q 1294 3584 2113 3584 
Q 2378 3584 2631 3529 
Q 2884 3475 3122 3366 
z
" transform="scale(0.015625)"/>
      <path id="DejaVuSans-68" d="M 3513 2113 
L 3513 0 
L 2938 0 
L 2938 2094 
Q 2938 2591 2744 2837 
Q 2550 3084 2163 3084 
Q 1697 3084 1428 2787 
Q 1159 2491 1159 1978 
L 1159 0 
L 581 0 
L 581 4863 
L 1159 4863 
L 1159 2956 
Q 1366 3272 1645 3428 
Q 1925 3584 2291 3584 
Q 2894 3584 3203 3211 
Q 3513 2838 3513 2113 
z
" transform="scale(0.015625)"/>
      <path id="DejaVuSans-66" d="M 2375 4863 
L 2375 4384 
L 1825 4384 
Q 1516 4384 1395 4259 
Q 1275 4134 1275 3809 
L 1275 3500 
L 2222 3500 
L 2222 3053 
L 1275 3053 
L 1275 0 
L 697 0 
L 697 3053 
L 147 3053 
L 147 3500 
L 697 3500 
L 697 3744 
Q 697 4328 969 4595 
Q 1241 4863 1831 4863 
L 2375 4863 
z
" transform="scale(0.015625)"/>
      <path id="DejaVuSans-67" d="M 2906 1791 
Q 2906 2416 2648 2759 
Q 2391 3103 1925 3103 
Q 1463 3103 1205 2759 
Q 947 2416 947 1791 
Q 947 1169 1205 825 
Q 1463 481 1925 481 
Q 2391 481 2648 825 
Q 2906 1169 2906 1791 
z
M 3481 434 
Q 3481 -459 3084 -895 
Q 2688 -1331 1869 -1331 
Q 1566 -1331 1297 -1286 
Q 1028 -1241 775 -1147 
L 775 -588 
Q 1028 -725 1275 -790 
Q 1522 -856 1778 -856 
Q 2344 -856 2625 -561 
Q 2906 -266 2906 331 
L 2906 616 
Q 2728 306 2450 153 
Q 2172 0 1784 0 
Q 1141 0 747 490 
Q 353 981 353 1791 
Q 353 2603 747 3093 
Q 1141 3584 1784 3584 
Q 2172 3584 2450 3431 
Q 2728 3278 2906 2969 
L 2906 3500 
L 3481 3500 
L 3481 434 
z
" transform="scale(0.015625)"/>
     </defs>
     <use xlink:href="#DejaVuSans-53"/>
     <use xlink:href="#DejaVuSans-74" x="63.476562"/>
     <use xlink:href="#DejaVuSans-72" x="102.685547"/>
     <use xlink:href="#DejaVuSans-75" x="143.798828"/>
     <use xlink:href="#DejaVuSans-63" x="207.177734"/>
     <use xlink:href="#DejaVuSans-74" x="262.158203"/>
     <use xlink:href="#DejaVuSans-75" x="301.367188"/>
     <use xlink:href="#DejaVuSans-72" x="364.746094"/>
     <use xlink:href="#DejaVuSans-65" x="403.609375"/>
     <use xlink:href="#DejaVuSans-64" x="465.132812"/>
     <use xlink:href="#DejaVuSans-20" x="528.609375"/>
     <use xlink:href="#DejaVuSans-53" x="560.396484"/>
     <use xlink:href="#DejaVuSans-68" x="623.873047"/>
     <use xlink:href="#DejaVuSans-75" x="687.251953"/>
     <use xlink:href="#DejaVuSans-66" x="750.630859"/>
     <use xlink:href="#DejaVuSans-66" x="785.835938"/>
     <use xlink:href="#DejaVuSans-6c" x="821.041016"/>
     <use xlink:href="#DejaVuSans-69" x="848.824219"/>
     <use xlink:href="#DejaVuSans-6e" x="876.607422"/>
     <use xlink:href="#DejaVuSans-67" x="939.986328"/>
    </g>
   </g>
  </g>
 </g>
 <defs>
  <clipPath id="p0c2ca1fd73">
   <rect x="43.527" y="19.582687" width="111.6" height="166.32"/>
  </clipPath>
 </defs>
</svg>
