<?xml version="1.0" encoding="utf-8" standalone="no"?>
<!DOCTYPE svg PUBLIC "-//W3C//DTD SVG 1.1//EN"
  "http://www.w3.org/Graphics/SVG/1.1/DTD/svg11.dtd">
<svg xmlns:xlink="http://www.w3.org/1999/xlink" width="851.4pt" height="252.76425pt" viewBox="0 0 851.4 252.76425" xmlns="http://www.w3.org/2000/svg" version="1.1">
 <metadata>
  <rdf:RDF xmlns:dc="http://purl.org/dc/elements/1.1/" xmlns:cc="http://creativecommons.org/ns#" xmlns:rdf="http://www.w3.org/1999/02/22-rdf-syntax-ns#">
   <cc:Work>
    <dc:type rdf:resource="http://purl.org/dc/dcmitype/StillImage"/>
    <dc:date>2024-03-15T05:48:56.432216</dc:date>
    <dc:format>image/svg+xml</dc:format>
    <dc:creator>
     <cc:Agent>
      <dc:title>Matplotlib v3.5.2, https://matplotlib.org/</dc:title>
     </cc:Agent>
    </dc:creator>
   </cc:Work>
  </rdf:RDF>
 </metadata>
 <defs>
  <style type="text/css">*{stroke-linejoin: round; stroke-linecap: butt}</style>
 </defs>
 <g id="figure_1">
  <g id="patch_1">
   <path d="M 0 252.76425 
L 851.4 252.76425 
L 851.4 0 
L 0 0 
L 0 252.76425 
z
" style="fill: none"/>
  </g>
  <g id="axes_1">
   <g id="line2d_1">
    <path d="M 7.2 215.114925 
L 844.2 215.114925 
" clip-path="url(#p2f070e9d72)" style="fill: none; stroke: #000000; stroke-width: 1.5; stroke-linecap: square"/>
   </g>
   <g id="line2d_2">
    <path d="M 707.161425 187.572525 
L 707.161425 215.114925 
" clip-path="url(#p2f070e9d72)" style="fill: none; stroke: #000000; stroke-width: 0.5; stroke-linecap: square"/>
   </g>
   <g id="line2d_3">
    <path d="M 606.6226 49.860525 
L 606.6226 215.114925 
" clip-path="url(#p2f070e9d72)" style="fill: none; stroke: #000000; stroke-width: 0.5; stroke-linecap: square"/>
   </g>
   <g id="line2d_4">
    <path d="M 270.72481 132.487725 
L 270.72481 215.114925 
" clip-path="url(#p2f070e9d72)" style="fill: none; stroke: #000000; stroke-width: 0.5; stroke-linecap: square"/>
   </g>
   <g id="line2d_5">
    <path d="M 832.30793 160.030125 
L 832.30793 215.114925 
" clip-path="url(#p2f070e9d72)" style="fill: none; stroke: #000000; stroke-width: 0.5; stroke-linecap: square"/>
   </g>
   <g id="line2d_6">
    <path d="M 548.029132 91.174125 
L 548.029132 215.114925 
" clip-path="url(#p2f070e9d72)" style="fill: none; stroke: #000000; stroke-width: 0.5; stroke-linecap: square"/>
   </g>
   <g id="line2d_7">
    <path d="M 372.209326 132.487725 
L 372.209326 215.114925 
" clip-path="url(#p2f070e9d72)" style="fill: none; stroke: #000000; stroke-width: 0.5; stroke-linecap: square"/>
   </g>
   <g id="line2d_8">
    <path d="M 628.806946 146.258925 
L 628.806946 187.572525 
" clip-path="url(#p2f070e9d72)" style="fill: none; stroke: #000000; stroke-width: 0.5; stroke-linecap: square"/>
   </g>
   <g id="line2d_9">
    <path d="M 772.45354 160.030125 
L 772.45354 215.114925 
" clip-path="url(#p2f070e9d72)" style="fill: none; stroke: #000000; stroke-width: 0.5; stroke-linecap: square"/>
   </g>
   <g id="line2d_10">
    <path d="M 246.294447 104.945325 
L 246.294447 215.114925 
" clip-path="url(#p2f070e9d72)" style="fill: none; stroke: #000000; stroke-width: 0.5; stroke-linecap: square"/>
   </g>
   <g id="line2d_11">
    <path d="M 289.599235 187.572525 
L 289.599235 215.114925 
" clip-path="url(#p2f070e9d72)" style="fill: none; stroke: #000000; stroke-width: 0.5; stroke-linecap: square"/>
   </g>
   <g id="line2d_12">
    <path d="M 803.444638 187.572525 
L 803.444638 215.114925 
" clip-path="url(#p2f070e9d72)" style="fill: none; stroke: #000000; stroke-width: 0.5; stroke-linecap: square"/>
   </g>
   <g id="line2d_13">
    <path d="M 352.999968 160.030125 
L 352.999968 187.572525 
" clip-path="url(#p2f070e9d72)" style="fill: none; stroke: #000000; stroke-width: 0.5; stroke-linecap: square"/>
   </g>
   <g id="line2d_14">
    <path d="M 238.47279 160.030125 
L 238.47279 187.572525 
" clip-path="url(#p2f070e9d72)" style="fill: none; stroke: #000000; stroke-width: 0.5; stroke-linecap: square"/>
   </g>
   <g id="patch_2">
    <path d="M 7.172417 208.114925 
Q 52.679849 208.114925 98.187281 208.114925 
L 98.187281 208.114925 
Q 102.387757 211.614925 106.588233 215.114925 
Q 102.387757 218.614925 98.187281 222.114925 
L 98.187281 222.114925 
Q 52.679849 222.114925 7.172417 222.114925 
L 7.172417 208.114925 
z
" clip-path="url(#p2f070e9d72)" style="fill: #4c72b0; stroke: #000000; stroke-linecap: round"/>
   </g>
   <g id="patch_3">
    <path d="M 112.774632 208.114925 
Q 139.900022 208.114925 167.025412 208.114925 
L 167.025412 208.114925 
Q 171.226052 211.614925 175.426692 215.114925 
Q 171.226052 218.614925 167.025412 222.114925 
L 167.025412 222.114925 
Q 139.900022 222.114925 112.774632 222.114925 
L 112.774632 208.114925 
z
" clip-path="url(#p2f070e9d72)" style="fill: #4c72b0; stroke: #000000; stroke-linecap: round"/>
   </g>
   <g id="patch_4">
    <path d="M 175.269077 180.572525 
Q 198.848917 180.572525 222.428758 180.572525 
L 222.428758 180.572525 
Q 226.628604 184.072525 230.828451 187.572525 
Q 226.628604 191.072525 222.428758 194.572525 
L 222.428758 194.572525 
Q 198.848917 194.572525 175.269077 194.572525 
L 175.269077 180.572525 
z
" clip-path="url(#p2f070e9d72)" style="fill: #4c72b0; stroke: #000000; stroke-linecap: round"/>
   </g>
   <g id="patch_5">
    <path d="M 352.073978 222.114925 
Q 330.68158 222.114925 309.289181 222.114925 
L 309.289181 222.114925 
Q 305.088804 218.614925 300.888427 215.114925 
Q 305.088804 211.614925 309.289181 208.114925 
L 309.289181 208.114925 
Q 330.68158 208.114925 352.073978 208.114925 
L 352.073978 222.114925 
z
" clip-path="url(#p2f070e9d72)" style="fill: #4c72b0; stroke: #000000; stroke-linecap: round"/>
   </g>
   <g id="patch_6">
    <path d="M 453.538793 208.114925 
Q 474.400889 208.114925 495.262985 208.114925 
L 495.262985 208.114925 
Q 499.461713 211.614925 503.660441 215.114925 
Q 499.461713 218.614925 495.262985 222.114925 
L 495.262985 222.114925 
Q 474.400889 222.114925 453.538793 222.114925 
L 453.538793 208.114925 
z
" clip-path="url(#p2f070e9d72)" style="fill: #4c72b0; stroke: #000000; stroke-linecap: round"/>
   </g>
   <g id="patch_7">
    <path d="M 401.210531 208.114925 
Q 421.479037 208.114925 441.747544 208.114925 
L 441.747544 208.114925 
Q 445.948804 211.614925 450.150065 215.114925 
Q 445.948804 218.614925 441.747544 222.114925 
L 441.747544 222.114925 
Q 421.479037 222.114925 401.210531 222.114925 
L 401.210531 208.114925 
z
" clip-path="url(#p2f070e9d72)" style="fill: #dd8452; stroke: #000000; stroke-linecap: round"/>
   </g>
   <g id="patch_8">
    <path d="M 638.382072 208.114925 
Q 657.293221 208.114925 676.20437 208.114925 
L 676.20437 208.114925 
Q 680.403556 211.614925 684.602743 215.114925 
Q 680.403556 218.614925 676.20437 222.114925 
L 676.20437 222.114925 
Q 657.293221 222.114925 638.382072 222.114925 
L 638.382072 208.114925 
z
" clip-path="url(#p2f070e9d72)" style="fill: #4c72b0; stroke: #000000; stroke-linecap: round"/>
   </g>
   <g id="patch_9">
    <path d="M 689.252392 208.114925 
Q 702.961809 208.114925 716.671226 208.114925 
L 716.671226 208.114925 
Q 720.870841 211.614925 725.070457 215.114925 
Q 720.870841 218.614925 716.671226 222.114925 
L 716.671226 222.114925 
Q 702.961809 222.114925 689.252392 222.114925 
L 689.252392 208.114925 
z
" clip-path="url(#p2f070e9d72)" style="fill: #4c72b0; stroke: #000000; stroke-linecap: round"/>
   </g>
   <g id="patch_10">
    <path d="M 593.382919 208.114925 
Q 602.422169 208.114925 611.461419 208.114925 
L 611.461419 208.114925 
Q 615.66185 211.614925 619.862281 215.114925 
Q 615.66185 218.614925 611.461419 222.114925 
L 611.461419 222.114925 
Q 602.422169 222.114925 593.382919 222.114925 
L 593.382919 208.114925 
z
" clip-path="url(#p2f070e9d72)" style="fill: #4c72b0; stroke: #000000; stroke-linecap: round"/>
   </g>
   <g id="patch_11">
    <path d="M 258.017081 208.114925 
Q 266.525613 208.114925 275.034145 208.114925 
L 275.034145 208.114925 
Q 279.233342 211.614925 283.432539 215.114925 
Q 279.233342 218.614925 275.034145 222.114925 
L 275.034145 222.114925 
Q 266.525613 222.114925 258.017081 222.114925 
L 258.017081 208.114925 
z
" clip-path="url(#p2f070e9d72)" style="fill: #4c72b0; stroke: #000000; stroke-linecap: round"/>
   </g>
   <g id="patch_12">
    <path d="M 820.427681 208.114925 
Q 832.326179 208.114925 844.224677 208.114925 
L 844.224677 208.114925 
Q 844.22613 211.614925 844.227583 215.114925 
Q 844.22613 218.614925 844.224677 222.114925 
L 844.224677 222.114925 
Q 832.326179 222.114925 820.427681 222.114925 
L 820.427681 208.114925 
z
" clip-path="url(#p2f070e9d72)" style="fill: #4c72b0; stroke: #000000; stroke-linecap: round"/>
   </g>
   <g id="patch_13">
    <path d="M 537.035469 208.114925 
Q 543.830015 208.114925 550.62456 208.114925 
L 550.62456 208.114925 
Q 554.823678 211.614925 559.022796 215.114925 
Q 554.823678 218.614925 550.62456 222.114925 
L 550.62456 222.114925 
Q 543.830015 222.114925 537.035469 222.114925 
L 537.035469 208.114925 
z
" clip-path="url(#p2f070e9d72)" style="fill: #4c72b0; stroke: #000000; stroke-linecap: round"/>
   </g>
   <g id="patch_14">
    <path d="M 382.375509 222.114925 
Q 376.411315 222.114925 370.447121 222.114925 
L 370.447121 222.114925 
Q 366.245132 218.614925 362.043143 215.114925 
Q 366.245132 211.614925 370.447121 208.114925 
L 370.447121 208.114925 
Q 376.411315 208.114925 382.375509 208.114925 
L 382.375509 222.114925 
z
" clip-path="url(#p2f070e9d72)" style="fill: #4c72b0; stroke: #000000; stroke-linecap: round"/>
   </g>
   <g id="patch_15">
    <path d="M 619.704665 180.572525 
Q 624.609141 180.572525 629.513617 180.572525 
L 629.513617 180.572525 
Q 633.711422 184.072525 637.909226 187.572525 
Q 633.711422 191.072525 629.513617 194.572525 
L 629.513617 194.572525 
Q 624.609141 194.572525 619.704665 194.572525 
L 619.704665 180.572525 
z
" clip-path="url(#p2f070e9d72)" style="fill: #4c72b0; stroke: #000000; stroke-linecap: round"/>
   </g>
   <g id="patch_16">
    <path d="M 781.260292 222.114925 
Q 776.652658 222.114925 772.045024 222.114925 
L 772.045024 222.114925 
Q 767.845906 218.614925 763.646788 215.114925 
Q 767.845906 211.614925 772.045024 208.114925 
L 772.045024 208.114925 
Q 776.652658 208.114925 781.260292 208.114925 
L 781.260292 222.114925 
z
" clip-path="url(#p2f070e9d72)" style="fill: #4c72b0; stroke: #000000; stroke-linecap: round"/>
   </g>
   <g id="patch_17">
    <path d="M 239.733712 208.114925 
Q 243.012478 208.114925 246.291243 208.114925 
L 246.291243 208.114925 
Q 249.573212 211.614925 252.855181 215.114925 
Q 249.573212 218.614925 246.291243 222.114925 
L 246.291243 222.114925 
Q 243.012478 222.114925 239.733712 222.114925 
L 239.733712 208.114925 
z
" clip-path="url(#p2f070e9d72)" style="fill: #4c72b0; stroke: #000000; stroke-linecap: round"/>
   </g>
   <g id="patch_18">
    <path d="M 292.85005 222.114925 
Q 291.22623 222.114925 289.60241 222.114925 
L 289.60241 222.114925 
Q 287.975416 218.614925 286.348421 215.114925 
Q 287.975416 211.614925 289.60241 208.114925 
L 289.60241 208.114925 
Q 291.22623 208.114925 292.85005 208.114925 
L 292.85005 222.114925 
z
" clip-path="url(#p2f070e9d72)" style="fill: #4c72b0; stroke: #000000; stroke-linecap: round"/>
   </g>
   <g id="patch_19">
    <path d="M 806.636347 222.114925 
Q 805.042051 222.114925 803.447755 222.114925 
L 803.447755 222.114925 
Q 801.850342 218.614925 800.252929 215.114925 
Q 801.850342 211.614925 803.447755 208.114925 
L 803.447755 208.114925 
Q 805.042051 208.114925 806.636347 208.114925 
L 806.636347 222.114925 
z
" clip-path="url(#p2f070e9d72)" style="fill: #55a868; stroke: #000000; stroke-linecap: round"/>
   </g>
   <g id="patch_20">
    <path d="M 354.950457 194.572525 
Q 353.977117 194.572525 353.003778 194.572525 
L 353.003778 194.572525 
Q 352.026628 191.072525 351.049479 187.572525 
Q 352.026628 184.072525 353.003778 180.572525 
L 353.003778 180.572525 
Q 353.977117 180.572525 354.950457 180.572525 
L 354.950457 194.572525 
z
" clip-path="url(#p2f070e9d72)" style="fill: #4c72b0; stroke: #000000; stroke-linecap: round"/>
   </g>
   <g id="patch_21">
    <path d="M 239.970135 194.572525 
Q 239.222925 194.572525 238.475715 194.572525 
L 238.475715 194.572525 
Q 237.72558 191.072525 236.975445 187.572525 
Q 237.72558 184.072525 238.475715 180.572525 
L 238.475715 180.572525 
Q 239.222925 180.572525 239.970135 180.572525 
L 239.970135 194.572525 
z
" clip-path="url(#p2f070e9d72)" style="fill: #55a868; stroke: #000000; stroke-linecap: round"/>
   </g>
   <g id="matplotlib.axis_1">
    <g id="xtick_1">
     <g id="line2d_15">
      <defs>
       <path id="m0c9c7621b2" d="M 0 0 
L 0 3.5 
" style="stroke: #808080; stroke-width: 0.8"/>
      </defs>
      <g>
       <use xlink:href="#m0c9c7621b2" x="89.467277" y="228.886125" style="fill: #808080; stroke: #808080; stroke-width: 0.8"/>
      </g>
     </g>
     <g id="text_1">
      <!-- 4,057,500 -->
      <g style="fill: #808080" transform="translate(64.020402 243.484563)scale(0.1 -0.1)">
       <defs>
        <path id="DejaVuSans-34" d="M 2419 4116 
L 825 1625 
L 2419 1625 
L 2419 4116 
z
M 2253 4666 
L 3047 4666 
L 3047 1625 
L 3713 1625 
L 3713 1100 
L 3047 1100 
L 3047 0 
L 2419 0 
L 2419 1100 
L 313 1100 
L 313 1709 
L 2253 4666 
z
" transform="scale(0.015625)"/>
        <path id="DejaVuSans-2c" d="M 750 794 
L 1409 794 
L 1409 256 
L 897 -744 
L 494 -744 
L 750 256 
L 750 794 
z
" transform="scale(0.015625)"/>
        <path id="DejaVuSans-30" d="M 2034 4250 
Q 1547 4250 1301 3770 
Q 1056 3291 1056 2328 
Q 1056 1369 1301 889 
Q 1547 409 2034 409 
Q 2525 409 2770 889 
Q 3016 1369 3016 2328 
Q 3016 3291 2770 3770 
Q 2525 4250 2034 4250 
z
M 2034 4750 
Q 2819 4750 3233 4129 
Q 3647 3509 3647 2328 
Q 3647 1150 3233 529 
Q 2819 -91 2034 -91 
Q 1250 -91 836 529 
Q 422 1150 422 2328 
Q 422 3509 836 4129 
Q 1250 4750 2034 4750 
z
" transform="scale(0.015625)"/>
        <path id="DejaVuSans-35" d="M 691 4666 
L 3169 4666 
L 3169 4134 
L 1269 4134 
L 1269 2991 
Q 1406 3038 1543 3061 
Q 1681 3084 1819 3084 
Q 2600 3084 3056 2656 
Q 3513 2228 3513 1497 
Q 3513 744 3044 326 
Q 2575 -91 1722 -91 
Q 1428 -91 1123 -41 
Q 819 9 494 109 
L 494 744 
Q 775 591 1075 516 
Q 1375 441 1709 441 
Q 2250 441 2565 725 
Q 2881 1009 2881 1497 
Q 2881 1984 2565 2268 
Q 2250 2553 1709 2553 
Q 1456 2553 1204 2497 
Q 953 2441 691 2322 
L 691 4666 
z
" transform="scale(0.015625)"/>
        <path id="DejaVuSans-37" d="M 525 4666 
L 3525 4666 
L 3525 4397 
L 1831 0 
L 1172 0 
L 2766 4134 
L 525 4134 
L 525 4666 
z
" transform="scale(0.015625)"/>
       </defs>
       <use xlink:href="#DejaVuSans-34"/>
       <use xlink:href="#DejaVuSans-2c" x="63.623047"/>
       <use xlink:href="#DejaVuSans-30" x="95.410156"/>
       <use xlink:href="#DejaVuSans-35" x="159.033203"/>
       <use xlink:href="#DejaVuSans-37" x="222.65625"/>
       <use xlink:href="#DejaVuSans-2c" x="286.279297"/>
       <use xlink:href="#DejaVuSans-35" x="318.066406"/>
       <use xlink:href="#DejaVuSans-30" x="381.689453"/>
       <use xlink:href="#DejaVuSans-30" x="445.3125"/>
      </g>
     </g>
    </g>
    <g id="xtick_2">
     <g id="line2d_16">
      <g>
       <use xlink:href="#m0c9c7621b2" x="187.976806" y="228.886125" style="fill: #808080; stroke: #808080; stroke-width: 0.8"/>
      </g>
     </g>
     <g id="text_2">
      <!-- 4,060,000 -->
      <g style="fill: #808080" transform="translate(162.529931 243.484563)scale(0.1 -0.1)">
       <defs>
        <path id="DejaVuSans-36" d="M 2113 2584 
Q 1688 2584 1439 2293 
Q 1191 2003 1191 1497 
Q 1191 994 1439 701 
Q 1688 409 2113 409 
Q 2538 409 2786 701 
Q 3034 994 3034 1497 
Q 3034 2003 2786 2293 
Q 2538 2584 2113 2584 
z
M 3366 4563 
L 3366 3988 
Q 3128 4100 2886 4159 
Q 2644 4219 2406 4219 
Q 1781 4219 1451 3797 
Q 1122 3375 1075 2522 
Q 1259 2794 1537 2939 
Q 1816 3084 2150 3084 
Q 2853 3084 3261 2657 
Q 3669 2231 3669 1497 
Q 3669 778 3244 343 
Q 2819 -91 2113 -91 
Q 1303 -91 875 529 
Q 447 1150 447 2328 
Q 447 3434 972 4092 
Q 1497 4750 2381 4750 
Q 2619 4750 2861 4703 
Q 3103 4656 3366 4563 
z
" transform="scale(0.015625)"/>
       </defs>
       <use xlink:href="#DejaVuSans-34"/>
       <use xlink:href="#DejaVuSans-2c" x="63.623047"/>
       <use xlink:href="#DejaVuSans-30" x="95.410156"/>
       <use xlink:href="#DejaVuSans-36" x="159.033203"/>
       <use xlink:href="#DejaVuSans-30" x="222.65625"/>
       <use xlink:href="#DejaVuSans-2c" x="286.279297"/>
       <use xlink:href="#DejaVuSans-30" x="318.066406"/>
       <use xlink:href="#DejaVuSans-30" x="381.689453"/>
       <use xlink:href="#DejaVuSans-30" x="445.3125"/>
      </g>
     </g>
    </g>
    <g id="xtick_3">
     <g id="line2d_17">
      <g>
       <use xlink:href="#m0c9c7621b2" x="286.486334" y="228.886125" style="fill: #808080; stroke: #808080; stroke-width: 0.8"/>
      </g>
     </g>
     <g id="text_3">
      <!-- 4,062,500 -->
      <g style="fill: #808080" transform="translate(261.039459 243.484563)scale(0.1 -0.1)">
       <defs>
        <path id="DejaVuSans-32" d="M 1228 531 
L 3431 531 
L 3431 0 
L 469 0 
L 469 531 
Q 828 903 1448 1529 
Q 2069 2156 2228 2338 
Q 2531 2678 2651 2914 
Q 2772 3150 2772 3378 
Q 2772 3750 2511 3984 
Q 2250 4219 1831 4219 
Q 1534 4219 1204 4116 
Q 875 4013 500 3803 
L 500 4441 
Q 881 4594 1212 4672 
Q 1544 4750 1819 4750 
Q 2544 4750 2975 4387 
Q 3406 4025 3406 3419 
Q 3406 3131 3298 2873 
Q 3191 2616 2906 2266 
Q 2828 2175 2409 1742 
Q 1991 1309 1228 531 
z
" transform="scale(0.015625)"/>
       </defs>
       <use xlink:href="#DejaVuSans-34"/>
       <use xlink:href="#DejaVuSans-2c" x="63.623047"/>
       <use xlink:href="#DejaVuSans-30" x="95.410156"/>
       <use xlink:href="#DejaVuSans-36" x="159.033203"/>
       <use xlink:href="#DejaVuSans-32" x="222.65625"/>
       <use xlink:href="#DejaVuSans-2c" x="286.279297"/>
       <use xlink:href="#DejaVuSans-35" x="318.066406"/>
       <use xlink:href="#DejaVuSans-30" x="381.689453"/>
       <use xlink:href="#DejaVuSans-30" x="445.3125"/>
      </g>
     </g>
    </g>
    <g id="xtick_4">
     <g id="line2d_18">
      <g>
       <use xlink:href="#m0c9c7621b2" x="384.995863" y="228.886125" style="fill: #808080; stroke: #808080; stroke-width: 0.8"/>
      </g>
     </g>
     <g id="text_4">
      <!-- 4,065,000 -->
      <g style="fill: #808080" transform="translate(359.548988 243.484563)scale(0.1 -0.1)">
       <use xlink:href="#DejaVuSans-34"/>
       <use xlink:href="#DejaVuSans-2c" x="63.623047"/>
       <use xlink:href="#DejaVuSans-30" x="95.410156"/>
       <use xlink:href="#DejaVuSans-36" x="159.033203"/>
       <use xlink:href="#DejaVuSans-35" x="222.65625"/>
       <use xlink:href="#DejaVuSans-2c" x="286.279297"/>
       <use xlink:href="#DejaVuSans-30" x="318.066406"/>
       <use xlink:href="#DejaVuSans-30" x="381.689453"/>
       <use xlink:href="#DejaVuSans-30" x="445.3125"/>
      </g>
     </g>
    </g>
    <g id="xtick_5">
     <g id="line2d_19">
      <g>
       <use xlink:href="#m0c9c7621b2" x="483.505391" y="228.886125" style="fill: #808080; stroke: #808080; stroke-width: 0.8"/>
      </g>
     </g>
     <g id="text_5">
      <!-- 4,067,500 -->
      <g style="fill: #808080" transform="translate(458.058516 243.484563)scale(0.1 -0.1)">
       <use xlink:href="#DejaVuSans-34"/>
       <use xlink:href="#DejaVuSans-2c" x="63.623047"/>
       <use xlink:href="#DejaVuSans-30" x="95.410156"/>
       <use xlink:href="#DejaVuSans-36" x="159.033203"/>
       <use xlink:href="#DejaVuSans-37" x="222.65625"/>
       <use xlink:href="#DejaVuSans-2c" x="286.279297"/>
       <use xlink:href="#DejaVuSans-35" x="318.066406"/>
       <use xlink:href="#DejaVuSans-30" x="381.689453"/>
       <use xlink:href="#DejaVuSans-30" x="445.3125"/>
      </g>
     </g>
    </g>
    <g id="xtick_6">
     <g id="line2d_20">
      <g>
       <use xlink:href="#m0c9c7621b2" x="582.01492" y="228.886125" style="fill: #808080; stroke: #808080; stroke-width: 0.8"/>
      </g>
     </g>
     <g id="text_6">
      <!-- 4,070,000 -->
      <g style="fill: #808080" transform="translate(556.568045 243.484563)scale(0.1 -0.1)">
       <use xlink:href="#DejaVuSans-34"/>
       <use xlink:href="#DejaVuSans-2c" x="63.623047"/>
       <use xlink:href="#DejaVuSans-30" x="95.410156"/>
       <use xlink:href="#DejaVuSans-37" x="159.033203"/>
       <use xlink:href="#DejaVuSans-30" x="222.65625"/>
       <use xlink:href="#DejaVuSans-2c" x="286.279297"/>
       <use xlink:href="#DejaVuSans-30" x="318.066406"/>
       <use xlink:href="#DejaVuSans-30" x="381.689453"/>
       <use xlink:href="#DejaVuSans-30" x="445.3125"/>
      </g>
     </g>
    </g>
    <g id="xtick_7">
     <g id="line2d_21">
      <g>
       <use xlink:href="#m0c9c7621b2" x="680.524448" y="228.886125" style="fill: #808080; stroke: #808080; stroke-width: 0.8"/>
      </g>
     </g>
     <g id="text_7">
      <!-- 4,072,500 -->
      <g style="fill: #808080" transform="translate(655.077573 243.484563)scale(0.1 -0.1)">
       <use xlink:href="#DejaVuSans-34"/>
       <use xlink:href="#DejaVuSans-2c" x="63.623047"/>
       <use xlink:href="#DejaVuSans-30" x="95.410156"/>
       <use xlink:href="#DejaVuSans-37" x="159.033203"/>
       <use xlink:href="#DejaVuSans-32" x="222.65625"/>
       <use xlink:href="#DejaVuSans-2c" x="286.279297"/>
       <use xlink:href="#DejaVuSans-35" x="318.066406"/>
       <use xlink:href="#DejaVuSans-30" x="381.689453"/>
       <use xlink:href="#DejaVuSans-30" x="445.3125"/>
      </g>
     </g>
    </g>
    <g id="xtick_8">
     <g id="line2d_22">
      <g>
       <use xlink:href="#m0c9c7621b2" x="779.033977" y="228.886125" style="fill: #808080; stroke: #808080; stroke-width: 0.8"/>
      </g>
     </g>
     <g id="text_8">
      <!-- 4,075,000 -->
      <g style="fill: #808080" transform="translate(753.587102 243.484563)scale(0.1 -0.1)">
       <use xlink:href="#DejaVuSans-34"/>
       <use xlink:href="#DejaVuSans-2c" x="63.623047"/>
       <use xlink:href="#DejaVuSans-30" x="95.410156"/>
       <use xlink:href="#DejaVuSans-37" x="159.033203"/>
       <use xlink:href="#DejaVuSans-35" x="222.65625"/>
       <use xlink:href="#DejaVuSans-2c" x="286.279297"/>
       <use xlink:href="#DejaVuSans-30" x="318.066406"/>
       <use xlink:href="#DejaVuSans-30" x="381.689453"/>
       <use xlink:href="#DejaVuSans-30" x="445.3125"/>
      </g>
     </g>
    </g>
   </g>
   <g id="text_9">
    <!-- hsdR -->
    <g style="fill: #ffffff" transform="translate(43.235965 218.150238)scale(0.11 -0.11)">
     <defs>
      <path id="DejaVuSans-68" d="M 3513 2113 
L 3513 0 
L 2938 0 
L 2938 2094 
Q 2938 2591 2744 2837 
Q 2550 3084 2163 3084 
Q 1697 3084 1428 2787 
Q 1159 2491 1159 1978 
L 1159 0 
L 581 0 
L 581 4863 
L 1159 4863 
L 1159 2956 
Q 1366 3272 1645 3428 
Q 1925 3584 2291 3584 
Q 2894 3584 3203 3211 
Q 3513 2838 3513 2113 
z
" transform="scale(0.015625)"/>
      <path id="DejaVuSans-73" d="M 2834 3397 
L 2834 2853 
Q 2591 2978 2328 3040 
Q 2066 3103 1784 3103 
Q 1356 3103 1142 2972 
Q 928 2841 928 2578 
Q 928 2378 1081 2264 
Q 1234 2150 1697 2047 
L 1894 2003 
Q 2506 1872 2764 1633 
Q 3022 1394 3022 966 
Q 3022 478 2636 193 
Q 2250 -91 1575 -91 
Q 1294 -91 989 -36 
Q 684 19 347 128 
L 347 722 
Q 666 556 975 473 
Q 1284 391 1588 391 
Q 1994 391 2212 530 
Q 2431 669 2431 922 
Q 2431 1156 2273 1281 
Q 2116 1406 1581 1522 
L 1381 1569 
Q 847 1681 609 1914 
Q 372 2147 372 2553 
Q 372 3047 722 3315 
Q 1072 3584 1716 3584 
Q 2034 3584 2315 3537 
Q 2597 3491 2834 3397 
z
" transform="scale(0.015625)"/>
      <path id="DejaVuSans-64" d="M 2906 2969 
L 2906 4863 
L 3481 4863 
L 3481 0 
L 2906 0 
L 2906 525 
Q 2725 213 2448 61 
Q 2172 -91 1784 -91 
Q 1150 -91 751 415 
Q 353 922 353 1747 
Q 353 2572 751 3078 
Q 1150 3584 1784 3584 
Q 2172 3584 2448 3432 
Q 2725 3281 2906 2969 
z
M 947 1747 
Q 947 1113 1208 752 
Q 1469 391 1925 391 
Q 2381 391 2643 752 
Q 2906 1113 2906 1747 
Q 2906 2381 2643 2742 
Q 2381 3103 1925 3103 
Q 1469 3103 1208 2742 
Q 947 2381 947 1747 
z
" transform="scale(0.015625)"/>
      <path id="DejaVuSans-52" d="M 2841 2188 
Q 3044 2119 3236 1894 
Q 3428 1669 3622 1275 
L 4263 0 
L 3584 0 
L 2988 1197 
Q 2756 1666 2539 1819 
Q 2322 1972 1947 1972 
L 1259 1972 
L 1259 0 
L 628 0 
L 628 4666 
L 2053 4666 
Q 2853 4666 3247 4331 
Q 3641 3997 3641 3322 
Q 3641 2881 3436 2590 
Q 3231 2300 2841 2188 
z
M 1259 4147 
L 1259 2491 
L 2053 2491 
Q 2509 2491 2742 2702 
Q 2975 2913 2975 3322 
Q 2975 3731 2742 3939 
Q 2509 4147 2053 4147 
L 1259 4147 
z
" transform="scale(0.015625)"/>
     </defs>
     <use xlink:href="#DejaVuSans-68"/>
     <use xlink:href="#DejaVuSans-73" x="63.378906"/>
     <use xlink:href="#DejaVuSans-64" x="115.478516"/>
     <use xlink:href="#DejaVuSans-52" x="178.955078"/>
    </g>
   </g>
   <g id="text_10">
    <!-- hsdM -->
    <g style="fill: #ffffff" transform="translate(129.512771 218.150238)scale(0.11 -0.11)">
     <defs>
      <path id="DejaVuSans-4d" d="M 628 4666 
L 1569 4666 
L 2759 1491 
L 3956 4666 
L 4897 4666 
L 4897 0 
L 4281 0 
L 4281 4097 
L 3078 897 
L 2444 897 
L 1241 4097 
L 1241 0 
L 628 0 
L 628 4666 
z
" transform="scale(0.015625)"/>
     </defs>
     <use xlink:href="#DejaVuSans-68"/>
     <use xlink:href="#DejaVuSans-73" x="63.378906"/>
     <use xlink:href="#DejaVuSans-64" x="115.478516"/>
     <use xlink:href="#DejaVuSans-4d" x="178.955078"/>
    </g>
   </g>
   <g id="text_11">
    <!-- hsdS -->
    <g style="fill: #ffffff" transform="translate(189.714701 190.607838)scale(0.11 -0.11)">
     <defs>
      <path id="DejaVuSans-53" d="M 3425 4513 
L 3425 3897 
Q 3066 4069 2747 4153 
Q 2428 4238 2131 4238 
Q 1616 4238 1336 4038 
Q 1056 3838 1056 3469 
Q 1056 3159 1242 3001 
Q 1428 2844 1947 2747 
L 2328 2669 
Q 3034 2534 3370 2195 
Q 3706 1856 3706 1288 
Q 3706 609 3251 259 
Q 2797 -91 1919 -91 
Q 1588 -91 1214 -16 
Q 841 59 441 206 
L 441 856 
Q 825 641 1194 531 
Q 1563 422 1919 422 
Q 2459 422 2753 634 
Q 3047 847 3047 1241 
Q 3047 1584 2836 1778 
Q 2625 1972 2144 2069 
L 1759 2144 
Q 1053 2284 737 2584 
Q 422 2884 422 3419 
Q 422 4038 858 4394 
Q 1294 4750 2059 4750 
Q 2388 4750 2728 4690 
Q 3069 4631 3425 4513 
z
" transform="scale(0.015625)"/>
     </defs>
     <use xlink:href="#DejaVuSans-68"/>
     <use xlink:href="#DejaVuSans-73" x="63.378906"/>
     <use xlink:href="#DejaVuSans-64" x="115.478516"/>
     <use xlink:href="#DejaVuSans-53" x="178.955078"/>
    </g>
   </g>
   <g id="text_12">
    <!-- adhE -->
    <g style="fill: #ffffff" transform="translate(312.658156 218.150238)scale(0.11 -0.11)">
     <defs>
      <path id="DejaVuSans-61" d="M 2194 1759 
Q 1497 1759 1228 1600 
Q 959 1441 959 1056 
Q 959 750 1161 570 
Q 1363 391 1709 391 
Q 2188 391 2477 730 
Q 2766 1069 2766 1631 
L 2766 1759 
L 2194 1759 
z
M 3341 1997 
L 3341 0 
L 2766 0 
L 2766 531 
Q 2569 213 2275 61 
Q 1981 -91 1556 -91 
Q 1019 -91 701 211 
Q 384 513 384 1019 
Q 384 1609 779 1909 
Q 1175 2209 1959 2209 
L 2766 2209 
L 2766 2266 
Q 2766 2663 2505 2880 
Q 2244 3097 1772 3097 
Q 1472 3097 1187 3025 
Q 903 2953 641 2809 
L 641 3341 
Q 956 3463 1253 3523 
Q 1550 3584 1831 3584 
Q 2591 3584 2966 3190 
Q 3341 2797 3341 1997 
z
" transform="scale(0.015625)"/>
      <path id="DejaVuSans-45" d="M 628 4666 
L 3578 4666 
L 3578 4134 
L 1259 4134 
L 1259 2753 
L 3481 2753 
L 3481 2222 
L 1259 2222 
L 1259 531 
L 3634 531 
L 3634 0 
L 628 0 
L 628 4666 
z
" transform="scale(0.015625)"/>
     </defs>
     <use xlink:href="#DejaVuSans-61"/>
     <use xlink:href="#DejaVuSans-64" x="61.279297"/>
     <use xlink:href="#DejaVuSans-68" x="124.755859"/>
     <use xlink:href="#DejaVuSans-45" x="188.134766"/>
    </g>
   </g>
   <g id="text_13">
    <!-- yjiN -->
    <g style="fill: #ffffff" transform="translate(468.173679 218.150238)scale(0.11 -0.11)">
     <defs>
      <path id="DejaVuSans-79" d="M 2059 -325 
Q 1816 -950 1584 -1140 
Q 1353 -1331 966 -1331 
L 506 -1331 
L 506 -850 
L 844 -850 
Q 1081 -850 1212 -737 
Q 1344 -625 1503 -206 
L 1606 56 
L 191 3500 
L 800 3500 
L 1894 763 
L 2988 3500 
L 3597 3500 
L 2059 -325 
z
" transform="scale(0.015625)"/>
      <path id="DejaVuSans-6a" d="M 603 3500 
L 1178 3500 
L 1178 -63 
Q 1178 -731 923 -1031 
Q 669 -1331 103 -1331 
L -116 -1331 
L -116 -844 
L 38 -844 
Q 366 -844 484 -692 
Q 603 -541 603 -63 
L 603 3500 
z
M 603 4863 
L 1178 4863 
L 1178 4134 
L 603 4134 
L 603 4863 
z
" transform="scale(0.015625)"/>
      <path id="DejaVuSans-69" d="M 603 3500 
L 1178 3500 
L 1178 0 
L 603 0 
L 603 3500 
z
M 603 4863 
L 1178 4863 
L 1178 4134 
L 603 4134 
L 603 4863 
z
" transform="scale(0.015625)"/>
      <path id="DejaVuSans-4e" d="M 628 4666 
L 1478 4666 
L 3547 763 
L 3547 4666 
L 4159 4666 
L 4159 0 
L 3309 0 
L 1241 3903 
L 1241 0 
L 628 0 
L 628 4666 
z
" transform="scale(0.015625)"/>
     </defs>
     <use xlink:href="#DejaVuSans-79"/>
     <use xlink:href="#DejaVuSans-6a" x="59.179688"/>
     <use xlink:href="#DejaVuSans-69" x="86.962891"/>
     <use xlink:href="#DejaVuSans-4e" x="114.746094"/>
    </g>
   </g>
   <g id="text_14">
    <!-- mdtM -->
    <g transform="translate(409.929673 218.150238)scale(0.11 -0.11)">
     <defs>
      <path id="DejaVuSans-6d" d="M 3328 2828 
Q 3544 3216 3844 3400 
Q 4144 3584 4550 3584 
Q 5097 3584 5394 3201 
Q 5691 2819 5691 2113 
L 5691 0 
L 5113 0 
L 5113 2094 
Q 5113 2597 4934 2840 
Q 4756 3084 4391 3084 
Q 3944 3084 3684 2787 
Q 3425 2491 3425 1978 
L 3425 0 
L 2847 0 
L 2847 2094 
Q 2847 2600 2669 2842 
Q 2491 3084 2119 3084 
Q 1678 3084 1418 2786 
Q 1159 2488 1159 1978 
L 1159 0 
L 581 0 
L 581 3500 
L 1159 3500 
L 1159 2956 
Q 1356 3278 1631 3431 
Q 1906 3584 2284 3584 
Q 2666 3584 2933 3390 
Q 3200 3197 3328 2828 
z
" transform="scale(0.015625)"/>
      <path id="DejaVuSans-74" d="M 1172 4494 
L 1172 3500 
L 2356 3500 
L 2356 3053 
L 1172 3053 
L 1172 1153 
Q 1172 725 1289 603 
Q 1406 481 1766 481 
L 2356 481 
L 2356 0 
L 1766 0 
Q 1100 0 847 248 
Q 594 497 594 1153 
L 594 3053 
L 172 3053 
L 172 3500 
L 594 3500 
L 594 4494 
L 1172 4494 
z
" transform="scale(0.015625)"/>
     </defs>
     <use xlink:href="#DejaVuSans-6d"/>
     <use xlink:href="#DejaVuSans-64" x="97.412109"/>
     <use xlink:href="#DejaVuSans-74" x="160.888672"/>
     <use xlink:href="#DejaVuSans-4d" x="200.097656"/>
    </g>
   </g>
   <g id="text_15">
    <!-- iadA -->
    <g style="fill: #ffffff" transform="translate(649.339985 218.150238)scale(0.11 -0.11)">
     <defs>
      <path id="DejaVuSans-41" d="M 2188 4044 
L 1331 1722 
L 3047 1722 
L 2188 4044 
z
M 1831 4666 
L 2547 4666 
L 4325 0 
L 3669 0 
L 3244 1197 
L 1141 1197 
L 716 0 
L 50 0 
L 1831 4666 
z
" transform="scale(0.015625)"/>
     </defs>
     <use xlink:href="#DejaVuSans-69"/>
     <use xlink:href="#DejaVuSans-61" x="27.783203"/>
     <use xlink:href="#DejaVuSans-64" x="89.0625"/>
     <use xlink:href="#DejaVuSans-41" x="152.539062"/>
    </g>
   </g>
   <g id="text_16">
    <g id="patch_22">
     <path d="M 693.56955 196.195494 
L 720.7533 196.195494 
Q 724.0533 196.195494 724.0533 192.895494 
L 724.0533 182.249556 
Q 724.0533 178.949556 720.7533 178.949556 
L 693.56955 178.949556 
Q 690.26955 178.949556 690.26955 182.249556 
L 690.26955 192.895494 
Q 690.26955 196.195494 693.56955 196.195494 
z
" style="fill: #edf1f7; stroke: #808080; stroke-width: 0.3; stroke-linejoin: miter"/>
    </g>
    <!-- hypT -->
    <g transform="translate(693.56955 190.607838)scale(0.11 -0.11)">
     <defs>
      <path id="DejaVuSans-70" d="M 1159 525 
L 1159 -1331 
L 581 -1331 
L 581 3500 
L 1159 3500 
L 1159 2969 
Q 1341 3281 1617 3432 
Q 1894 3584 2278 3584 
Q 2916 3584 3314 3078 
Q 3713 2572 3713 1747 
Q 3713 922 3314 415 
Q 2916 -91 2278 -91 
Q 1894 -91 1617 61 
Q 1341 213 1159 525 
z
M 3116 1747 
Q 3116 2381 2855 2742 
Q 2594 3103 2138 3103 
Q 1681 3103 1420 2742 
Q 1159 2381 1159 1747 
Q 1159 1113 1420 752 
Q 1681 391 2138 391 
Q 2594 391 2855 752 
Q 3116 1113 3116 1747 
z
" transform="scale(0.015625)"/>
      <path id="DejaVuSans-54" d="M -19 4666 
L 3928 4666 
L 3928 4134 
L 2272 4134 
L 2272 0 
L 1638 0 
L 1638 4134 
L -19 4134 
L -19 4666 
z
" transform="scale(0.015625)"/>
     </defs>
     <use xlink:href="#DejaVuSans-68"/>
     <use xlink:href="#DejaVuSans-79" x="63.378906"/>
     <use xlink:href="#DejaVuSans-70" x="122.558594"/>
     <use xlink:href="#DejaVuSans-54" x="186.035156"/>
    </g>
   </g>
   <g id="text_17">
    <g id="patch_23">
     <path d="M 589.375803 58.483494 
L 623.869397 58.483494 
Q 627.169397 58.483494 627.169397 55.183494 
L 627.169397 44.537556 
Q 627.169397 41.237556 623.869397 41.237556 
L 589.375803 41.237556 
Q 586.075803 41.237556 586.075803 44.537556 
L 586.075803 55.183494 
Q 586.075803 58.483494 589.375803 58.483494 
z
" style="fill: #edf1f7; stroke: #808080; stroke-width: 0.3; stroke-linejoin: miter"/>
    </g>
    <!-- spoVV -->
    <g transform="translate(589.375803 52.895837)scale(0.11 -0.11)">
     <defs>
      <path id="DejaVuSans-6f" d="M 1959 3097 
Q 1497 3097 1228 2736 
Q 959 2375 959 1747 
Q 959 1119 1226 758 
Q 1494 397 1959 397 
Q 2419 397 2687 759 
Q 2956 1122 2956 1747 
Q 2956 2369 2687 2733 
Q 2419 3097 1959 3097 
z
M 1959 3584 
Q 2709 3584 3137 3096 
Q 3566 2609 3566 1747 
Q 3566 888 3137 398 
Q 2709 -91 1959 -91 
Q 1206 -91 779 398 
Q 353 888 353 1747 
Q 353 2609 779 3096 
Q 1206 3584 1959 3584 
z
" transform="scale(0.015625)"/>
      <path id="DejaVuSans-56" d="M 1831 0 
L 50 4666 
L 709 4666 
L 2188 738 
L 3669 4666 
L 4325 4666 
L 2547 0 
L 1831 0 
z
" transform="scale(0.015625)"/>
     </defs>
     <use xlink:href="#DejaVuSans-73"/>
     <use xlink:href="#DejaVuSans-70" x="52.099609"/>
     <use xlink:href="#DejaVuSans-6f" x="115.576172"/>
     <use xlink:href="#DejaVuSans-56" x="176.757812"/>
     <use xlink:href="#DejaVuSans-56" x="245.166016"/>
    </g>
   </g>
   <g id="text_18">
    <g id="patch_24">
     <path d="M 203.34981 141.110694 
L 338.09981 141.110694 
Q 341.39981 141.110694 341.39981 137.810694 
L 341.39981 127.164756 
Q 341.39981 123.864756 338.09981 123.864756 
L 203.34981 123.864756 
Q 200.04981 123.864756 200.04981 127.164756 
L 200.04981 137.810694 
Q 200.04981 141.110694 203.34981 141.110694 
z
" style="fill: #edf1f7; stroke: #808080; stroke-width: 0.3; stroke-linejoin: miter"/>
    </g>
    <!-- Inner membrane protein -->
    <g transform="translate(203.34981 135.523037)scale(0.11 -0.11)">
     <defs>
      <path id="DejaVuSans-49" d="M 628 4666 
L 1259 4666 
L 1259 0 
L 628 0 
L 628 4666 
z
" transform="scale(0.015625)"/>
      <path id="DejaVuSans-6e" d="M 3513 2113 
L 3513 0 
L 2938 0 
L 2938 2094 
Q 2938 2591 2744 2837 
Q 2550 3084 2163 3084 
Q 1697 3084 1428 2787 
Q 1159 2491 1159 1978 
L 1159 0 
L 581 0 
L 581 3500 
L 1159 3500 
L 1159 2956 
Q 1366 3272 1645 3428 
Q 1925 3584 2291 3584 
Q 2894 3584 3203 3211 
Q 3513 2838 3513 2113 
z
" transform="scale(0.015625)"/>
      <path id="DejaVuSans-65" d="M 3597 1894 
L 3597 1613 
L 953 1613 
Q 991 1019 1311 708 
Q 1631 397 2203 397 
Q 2534 397 2845 478 
Q 3156 559 3463 722 
L 3463 178 
Q 3153 47 2828 -22 
Q 2503 -91 2169 -91 
Q 1331 -91 842 396 
Q 353 884 353 1716 
Q 353 2575 817 3079 
Q 1281 3584 2069 3584 
Q 2775 3584 3186 3129 
Q 3597 2675 3597 1894 
z
M 3022 2063 
Q 3016 2534 2758 2815 
Q 2500 3097 2075 3097 
Q 1594 3097 1305 2825 
Q 1016 2553 972 2059 
L 3022 2063 
z
" transform="scale(0.015625)"/>
      <path id="DejaVuSans-72" d="M 2631 2963 
Q 2534 3019 2420 3045 
Q 2306 3072 2169 3072 
Q 1681 3072 1420 2755 
Q 1159 2438 1159 1844 
L 1159 0 
L 581 0 
L 581 3500 
L 1159 3500 
L 1159 2956 
Q 1341 3275 1631 3429 
Q 1922 3584 2338 3584 
Q 2397 3584 2469 3576 
Q 2541 3569 2628 3553 
L 2631 2963 
z
" transform="scale(0.015625)"/>
      <path id="DejaVuSans-20" transform="scale(0.015625)"/>
      <path id="DejaVuSans-62" d="M 3116 1747 
Q 3116 2381 2855 2742 
Q 2594 3103 2138 3103 
Q 1681 3103 1420 2742 
Q 1159 2381 1159 1747 
Q 1159 1113 1420 752 
Q 1681 391 2138 391 
Q 2594 391 2855 752 
Q 3116 1113 3116 1747 
z
M 1159 2969 
Q 1341 3281 1617 3432 
Q 1894 3584 2278 3584 
Q 2916 3584 3314 3078 
Q 3713 2572 3713 1747 
Q 3713 922 3314 415 
Q 2916 -91 2278 -91 
Q 1894 -91 1617 61 
Q 1341 213 1159 525 
L 1159 0 
L 581 0 
L 581 4863 
L 1159 4863 
L 1159 2969 
z
" transform="scale(0.015625)"/>
     </defs>
     <use xlink:href="#DejaVuSans-49"/>
     <use xlink:href="#DejaVuSans-6e" x="29.492188"/>
     <use xlink:href="#DejaVuSans-6e" x="92.871094"/>
     <use xlink:href="#DejaVuSans-65" x="156.25"/>
     <use xlink:href="#DejaVuSans-72" x="217.773438"/>
     <use xlink:href="#DejaVuSans-20" x="258.886719"/>
     <use xlink:href="#DejaVuSans-6d" x="290.673828"/>
     <use xlink:href="#DejaVuSans-65" x="388.085938"/>
     <use xlink:href="#DejaVuSans-6d" x="449.609375"/>
     <use xlink:href="#DejaVuSans-62" x="547.021484"/>
     <use xlink:href="#DejaVuSans-72" x="610.498047"/>
     <use xlink:href="#DejaVuSans-61" x="651.611328"/>
     <use xlink:href="#DejaVuSans-6e" x="712.890625"/>
     <use xlink:href="#DejaVuSans-65" x="776.269531"/>
     <use xlink:href="#DejaVuSans-20" x="837.792969"/>
     <use xlink:href="#DejaVuSans-70" x="869.580078"/>
     <use xlink:href="#DejaVuSans-72" x="933.056641"/>
     <use xlink:href="#DejaVuSans-6f" x="971.919922"/>
     <use xlink:href="#DejaVuSans-74" x="1033.101562"/>
     <use xlink:href="#DejaVuSans-65" x="1072.310547"/>
     <use xlink:href="#DejaVuSans-69" x="1133.833984"/>
     <use xlink:href="#DejaVuSans-6e" x="1161.617188"/>
    </g>
   </g>
   <g id="text_19">
    <g id="patch_25">
     <path d="M 820.907461 168.653094 
L 843.708398 168.653094 
Q 847.008398 168.653094 847.008398 165.353094 
L 847.008398 154.707156 
Q 847.008398 151.407156 843.708398 151.407156 
L 820.907461 151.407156 
Q 817.607461 151.407156 817.607461 154.707156 
L 817.607461 165.353094 
Q 817.607461 168.653094 820.907461 168.653094 
z
" style="fill: #edf1f7; stroke: #808080; stroke-width: 0.3; stroke-linejoin: miter"/>
    </g>
    <!-- trpS -->
    <g transform="translate(820.907461 163.065438)scale(0.11 -0.11)">
     <use xlink:href="#DejaVuSans-74"/>
     <use xlink:href="#DejaVuSans-72" x="39.208984"/>
     <use xlink:href="#DejaVuSans-70" x="80.322266"/>
     <use xlink:href="#DejaVuSans-53" x="143.798828"/>
    </g>
   </g>
   <g id="text_20">
    <g id="patch_26">
     <path d="M 494.27007 105.955891 
L 601.788195 105.955891 
Q 605.088195 105.955891 605.088195 102.655891 
L 605.088195 79.692359 
Q 605.088195 76.392359 601.788195 76.392359 
L 494.27007 76.392359 
Q 490.97007 76.392359 490.97007 79.692359 
L 490.97007 102.655891 
Q 490.97007 105.955891 494.27007 105.955891 
z
" style="fill: #edf1f7; stroke: #808080; stroke-width: 0.3; stroke-linejoin: miter"/>
    </g>
    <!-- Major facilitator -->
    <g transform="translate(504.787101 88.050641)scale(0.11 -0.11)">
     <defs>
      <path id="DejaVuSans-66" d="M 2375 4863 
L 2375 4384 
L 1825 4384 
Q 1516 4384 1395 4259 
Q 1275 4134 1275 3809 
L 1275 3500 
L 2222 3500 
L 2222 3053 
L 1275 3053 
L 1275 0 
L 697 0 
L 697 3053 
L 147 3053 
L 147 3500 
L 697 3500 
L 697 3744 
Q 697 4328 969 4595 
Q 1241 4863 1831 4863 
L 2375 4863 
z
" transform="scale(0.015625)"/>
      <path id="DejaVuSans-63" d="M 3122 3366 
L 3122 2828 
Q 2878 2963 2633 3030 
Q 2388 3097 2138 3097 
Q 1578 3097 1268 2742 
Q 959 2388 959 1747 
Q 959 1106 1268 751 
Q 1578 397 2138 397 
Q 2388 397 2633 464 
Q 2878 531 3122 666 
L 3122 134 
Q 2881 22 2623 -34 
Q 2366 -91 2075 -91 
Q 1284 -91 818 406 
Q 353 903 353 1747 
Q 353 2603 823 3093 
Q 1294 3584 2113 3584 
Q 2378 3584 2631 3529 
Q 2884 3475 3122 3366 
z
" transform="scale(0.015625)"/>
      <path id="DejaVuSans-6c" d="M 603 4863 
L 1178 4863 
L 1178 0 
L 603 0 
L 603 4863 
z
" transform="scale(0.015625)"/>
     </defs>
     <use xlink:href="#DejaVuSans-4d"/>
     <use xlink:href="#DejaVuSans-61" x="86.279297"/>
     <use xlink:href="#DejaVuSans-6a" x="147.558594"/>
     <use xlink:href="#DejaVuSans-6f" x="175.341797"/>
     <use xlink:href="#DejaVuSans-72" x="236.523438"/>
     <use xlink:href="#DejaVuSans-20" x="277.636719"/>
     <use xlink:href="#DejaVuSans-66" x="309.423828"/>
     <use xlink:href="#DejaVuSans-61" x="344.628906"/>
     <use xlink:href="#DejaVuSans-63" x="405.908203"/>
     <use xlink:href="#DejaVuSans-69" x="460.888672"/>
     <use xlink:href="#DejaVuSans-6c" x="488.671875"/>
     <use xlink:href="#DejaVuSans-69" x="516.455078"/>
     <use xlink:href="#DejaVuSans-74" x="544.238281"/>
     <use xlink:href="#DejaVuSans-61" x="583.447266"/>
     <use xlink:href="#DejaVuSans-74" x="644.726562"/>
     <use xlink:href="#DejaVuSans-6f" x="683.935547"/>
     <use xlink:href="#DejaVuSans-72" x="745.117188"/>
    </g>
    <!-- superfamily protein -->
    <g transform="translate(494.27007 100.368234)scale(0.11 -0.11)">
     <defs>
      <path id="DejaVuSans-75" d="M 544 1381 
L 544 3500 
L 1119 3500 
L 1119 1403 
Q 1119 906 1312 657 
Q 1506 409 1894 409 
Q 2359 409 2629 706 
Q 2900 1003 2900 1516 
L 2900 3500 
L 3475 3500 
L 3475 0 
L 2900 0 
L 2900 538 
Q 2691 219 2414 64 
Q 2138 -91 1772 -91 
Q 1169 -91 856 284 
Q 544 659 544 1381 
z
M 1991 3584 
L 1991 3584 
z
" transform="scale(0.015625)"/>
     </defs>
     <use xlink:href="#DejaVuSans-73"/>
     <use xlink:href="#DejaVuSans-75" x="52.099609"/>
     <use xlink:href="#DejaVuSans-70" x="115.478516"/>
     <use xlink:href="#DejaVuSans-65" x="178.955078"/>
     <use xlink:href="#DejaVuSans-72" x="240.478516"/>
     <use xlink:href="#DejaVuSans-66" x="281.591797"/>
     <use xlink:href="#DejaVuSans-61" x="316.796875"/>
     <use xlink:href="#DejaVuSans-6d" x="378.076172"/>
     <use xlink:href="#DejaVuSans-69" x="475.488281"/>
     <use xlink:href="#DejaVuSans-6c" x="503.271484"/>
     <use xlink:href="#DejaVuSans-79" x="531.054688"/>
     <use xlink:href="#DejaVuSans-20" x="590.234375"/>
     <use xlink:href="#DejaVuSans-70" x="622.021484"/>
     <use xlink:href="#DejaVuSans-72" x="685.498047"/>
     <use xlink:href="#DejaVuSans-6f" x="724.361328"/>
     <use xlink:href="#DejaVuSans-74" x="785.542969"/>
     <use xlink:href="#DejaVuSans-65" x="824.751953"/>
     <use xlink:href="#DejaVuSans-69" x="886.275391"/>
     <use xlink:href="#DejaVuSans-6e" x="914.058594"/>
    </g>
   </g>
   <g id="text_21">
    <g id="patch_27">
     <path d="M 359.130498 141.110694 
L 385.288154 141.110694 
Q 388.588154 141.110694 388.588154 137.810694 
L 388.588154 127.164756 
Q 388.588154 123.864756 385.288154 123.864756 
L 359.130498 123.864756 
Q 355.830498 123.864756 355.830498 127.164756 
L 355.830498 137.810694 
Q 355.830498 141.110694 359.130498 141.110694 
z
" style="fill: #edf1f7; stroke: #808080; stroke-width: 0.3; stroke-linejoin: miter"/>
    </g>
    <!-- rpnC -->
    <g transform="translate(359.130498 135.523037)scale(0.11 -0.11)">
     <defs>
      <path id="DejaVuSans-43" d="M 4122 4306 
L 4122 3641 
Q 3803 3938 3442 4084 
Q 3081 4231 2675 4231 
Q 1875 4231 1450 3742 
Q 1025 3253 1025 2328 
Q 1025 1406 1450 917 
Q 1875 428 2675 428 
Q 3081 428 3442 575 
Q 3803 722 4122 1019 
L 4122 359 
Q 3791 134 3420 21 
Q 3050 -91 2638 -91 
Q 1578 -91 968 557 
Q 359 1206 359 2328 
Q 359 3453 968 4101 
Q 1578 4750 2638 4750 
Q 3056 4750 3426 4639 
Q 3797 4528 4122 4306 
z
" transform="scale(0.015625)"/>
     </defs>
     <use xlink:href="#DejaVuSans-72"/>
     <use xlink:href="#DejaVuSans-70" x="41.113281"/>
     <use xlink:href="#DejaVuSans-6e" x="104.589844"/>
     <use xlink:href="#DejaVuSans-43" x="167.96875"/>
    </g>
   </g>
   <g id="text_22">
    <g id="patch_28">
     <path d="M 558.876165 161.040691 
L 698.737727 161.040691 
Q 702.037727 161.040691 702.037727 157.740691 
L 702.037727 134.777159 
Q 702.037727 131.477159 698.737727 131.477159 
L 558.876165 131.477159 
Q 555.576165 131.477159 555.576165 134.777159 
L 555.576165 157.740691 
Q 555.576165 161.040691 558.876165 161.040691 
z
" style="fill: #edf1f7; stroke: #808080; stroke-width: 0.3; stroke-linejoin: miter"/>
    </g>
    <!-- Transporter gate domain- -->
    <g transform="translate(558.876165 143.135441)scale(0.11 -0.11)">
     <defs>
      <path id="DejaVuSans-67" d="M 2906 1791 
Q 2906 2416 2648 2759 
Q 2391 3103 1925 3103 
Q 1463 3103 1205 2759 
Q 947 2416 947 1791 
Q 947 1169 1205 825 
Q 1463 481 1925 481 
Q 2391 481 2648 825 
Q 2906 1169 2906 1791 
z
M 3481 434 
Q 3481 -459 3084 -895 
Q 2688 -1331 1869 -1331 
Q 1566 -1331 1297 -1286 
Q 1028 -1241 775 -1147 
L 775 -588 
Q 1028 -725 1275 -790 
Q 1522 -856 1778 -856 
Q 2344 -856 2625 -561 
Q 2906 -266 2906 331 
L 2906 616 
Q 2728 306 2450 153 
Q 2172 0 1784 0 
Q 1141 0 747 490 
Q 353 981 353 1791 
Q 353 2603 747 3093 
Q 1141 3584 1784 3584 
Q 2172 3584 2450 3431 
Q 2728 3278 2906 2969 
L 2906 3500 
L 3481 3500 
L 3481 434 
z
" transform="scale(0.015625)"/>
      <path id="DejaVuSans-2d" d="M 313 2009 
L 1997 2009 
L 1997 1497 
L 313 1497 
L 313 2009 
z
" transform="scale(0.015625)"/>
     </defs>
     <use xlink:href="#DejaVuSans-54"/>
     <use xlink:href="#DejaVuSans-72" x="46.333984"/>
     <use xlink:href="#DejaVuSans-61" x="87.447266"/>
     <use xlink:href="#DejaVuSans-6e" x="148.726562"/>
     <use xlink:href="#DejaVuSans-73" x="212.105469"/>
     <use xlink:href="#DejaVuSans-70" x="264.205078"/>
     <use xlink:href="#DejaVuSans-6f" x="327.681641"/>
     <use xlink:href="#DejaVuSans-72" x="388.863281"/>
     <use xlink:href="#DejaVuSans-74" x="429.976562"/>
     <use xlink:href="#DejaVuSans-65" x="469.185547"/>
     <use xlink:href="#DejaVuSans-72" x="530.708984"/>
     <use xlink:href="#DejaVuSans-20" x="571.822266"/>
     <use xlink:href="#DejaVuSans-67" x="603.609375"/>
     <use xlink:href="#DejaVuSans-61" x="667.085938"/>
     <use xlink:href="#DejaVuSans-74" x="728.365234"/>
     <use xlink:href="#DejaVuSans-65" x="767.574219"/>
     <use xlink:href="#DejaVuSans-20" x="829.097656"/>
     <use xlink:href="#DejaVuSans-64" x="860.884766"/>
     <use xlink:href="#DejaVuSans-6f" x="924.361328"/>
     <use xlink:href="#DejaVuSans-6d" x="985.542969"/>
     <use xlink:href="#DejaVuSans-61" x="1082.955078"/>
     <use xlink:href="#DejaVuSans-69" x="1144.234375"/>
     <use xlink:href="#DejaVuSans-6e" x="1172.017578"/>
     <use xlink:href="#DejaVuSans-2d" x="1235.396484"/>
    </g>
    <!-- containing protein -->
    <g transform="translate(578.590227 155.453034)scale(0.11 -0.11)">
     <use xlink:href="#DejaVuSans-63"/>
     <use xlink:href="#DejaVuSans-6f" x="54.980469"/>
     <use xlink:href="#DejaVuSans-6e" x="116.162109"/>
     <use xlink:href="#DejaVuSans-74" x="179.541016"/>
     <use xlink:href="#DejaVuSans-61" x="218.75"/>
     <use xlink:href="#DejaVuSans-69" x="280.029297"/>
     <use xlink:href="#DejaVuSans-6e" x="307.8125"/>
     <use xlink:href="#DejaVuSans-69" x="371.191406"/>
     <use xlink:href="#DejaVuSans-6e" x="398.974609"/>
     <use xlink:href="#DejaVuSans-67" x="462.353516"/>
     <use xlink:href="#DejaVuSans-20" x="525.830078"/>
     <use xlink:href="#DejaVuSans-70" x="557.617188"/>
     <use xlink:href="#DejaVuSans-72" x="621.09375"/>
     <use xlink:href="#DejaVuSans-6f" x="659.957031"/>
     <use xlink:href="#DejaVuSans-74" x="721.138672"/>
     <use xlink:href="#DejaVuSans-65" x="760.347656"/>
     <use xlink:href="#DejaVuSans-69" x="821.871094"/>
     <use xlink:href="#DejaVuSans-6e" x="849.654297"/>
    </g>
   </g>
   <g id="text_23">
    <g id="patch_29">
     <path d="M 762.452134 168.653094 
L 782.454946 168.653094 
Q 785.754946 168.653094 785.754946 165.353094 
L 785.754946 154.707156 
Q 785.754946 151.407156 782.454946 151.407156 
L 762.452134 151.407156 
Q 759.152134 151.407156 759.152134 154.707156 
L 759.152134 165.353094 
Q 759.152134 168.653094 762.452134 168.653094 
z
" style="fill: #edf1f7; stroke: #808080; stroke-width: 0.3; stroke-linejoin: miter"/>
    </g>
    <!-- hcp -->
    <g transform="translate(762.452134 163.065438)scale(0.11 -0.11)">
     <use xlink:href="#DejaVuSans-68"/>
     <use xlink:href="#DejaVuSans-63" x="63.378906"/>
     <use xlink:href="#DejaVuSans-70" x="118.359375"/>
    </g>
   </g>
   <g id="text_24">
    <g id="patch_30">
     <path d="M 231.341322 113.568294 
L 261.247572 113.568294 
Q 264.547572 113.568294 264.547572 110.268294 
L 264.547572 99.622356 
Q 264.547572 96.322356 261.247572 96.322356 
L 231.341322 96.322356 
Q 228.041322 96.322356 228.041322 99.622356 
L 228.041322 110.268294 
Q 228.041322 113.568294 231.341322 113.568294 
z
" style="fill: #edf1f7; stroke: #808080; stroke-width: 0.3; stroke-linejoin: miter"/>
    </g>
    <!-- symE -->
    <g transform="translate(231.341322 107.980638)scale(0.11 -0.11)">
     <use xlink:href="#DejaVuSans-73"/>
     <use xlink:href="#DejaVuSans-79" x="52.099609"/>
     <use xlink:href="#DejaVuSans-6d" x="111.279297"/>
     <use xlink:href="#DejaVuSans-45" x="208.691406"/>
    </g>
   </g>
   <g id="text_25">
    <g id="patch_31">
     <path d="M 275.187517 196.195494 
L 304.010954 196.195494 
Q 307.310954 196.195494 307.310954 192.895494 
L 307.310954 182.249556 
Q 307.310954 178.949556 304.010954 178.949556 
L 275.187517 178.949556 
Q 271.887517 178.949556 271.887517 182.249556 
L 271.887517 192.895494 
Q 271.887517 196.195494 275.187517 196.195494 
z
" style="fill: #edf1f7; stroke: #808080; stroke-width: 0.3; stroke-linejoin: miter"/>
    </g>
    <!-- ⇦yjiS -->
    <g transform="translate(275.187517 190.607838)scale(0.11 -0.11)">
     <defs>
      <path id="DejaVuSans-21e6" d="M 1447 2838 
L 616 2006 
L 1447 1175 
L 1447 1584 
L 4684 1584 
L 4684 2428 
L 1447 2428 
L 1447 2838 
z
M 1759 419 
L 172 2006 
L 1759 3594 
L 1759 2741 
L 4997 2741 
L 4997 1272 
L 1759 1272 
L 1759 419 
z
" transform="scale(0.015625)"/>
     </defs>
     <use xlink:href="#DejaVuSans-21e6"/>
     <use xlink:href="#DejaVuSans-79" x="83.789062"/>
     <use xlink:href="#DejaVuSans-6a" x="142.96875"/>
     <use xlink:href="#DejaVuSans-69" x="170.751953"/>
     <use xlink:href="#DejaVuSans-53" x="198.535156"/>
    </g>
   </g>
   <g id="text_26">
    <g id="patch_32">
     <path d="M 787.852138 196.195494 
L 819.037138 196.195494 
Q 822.337138 196.195494 822.337138 192.895494 
L 822.337138 182.249556 
Q 822.337138 178.949556 819.037138 178.949556 
L 787.852138 178.949556 
Q 784.552138 178.949556 784.552138 182.249556 
L 784.552138 192.895494 
Q 784.552138 196.195494 787.852138 196.195494 
z
" style="fill: #eef6f0; stroke: #808080; stroke-width: 0.3; stroke-linejoin: miter"/>
    </g>
    <!-- ⇦isrQ -->
    <g transform="translate(787.852138 190.607838)scale(0.11 -0.11)">
     <defs>
      <path id="DejaVuSans-51" d="M 2522 4238 
Q 1834 4238 1429 3725 
Q 1025 3213 1025 2328 
Q 1025 1447 1429 934 
Q 1834 422 2522 422 
Q 3209 422 3611 934 
Q 4013 1447 4013 2328 
Q 4013 3213 3611 3725 
Q 3209 4238 2522 4238 
z
M 3406 84 
L 4238 -825 
L 3475 -825 
L 2784 -78 
Q 2681 -84 2626 -87 
Q 2572 -91 2522 -91 
Q 1538 -91 948 567 
Q 359 1225 359 2328 
Q 359 3434 948 4092 
Q 1538 4750 2522 4750 
Q 3503 4750 4090 4092 
Q 4678 3434 4678 2328 
Q 4678 1516 4351 937 
Q 4025 359 3406 84 
z
" transform="scale(0.015625)"/>
     </defs>
     <use xlink:href="#DejaVuSans-21e6"/>
     <use xlink:href="#DejaVuSans-69" x="83.789062"/>
     <use xlink:href="#DejaVuSans-73" x="111.572266"/>
     <use xlink:href="#DejaVuSans-72" x="163.671875"/>
     <use xlink:href="#DejaVuSans-51" x="204.785156"/>
    </g>
   </g>
   <g id="text_27">
    <g id="patch_33">
     <path d="M 278.267859 168.653094 
L 427.732077 168.653094 
Q 431.032077 168.653094 431.032077 165.353094 
L 431.032077 154.707156 
Q 431.032077 151.407156 427.732077 151.407156 
L 278.267859 151.407156 
Q 274.967859 151.407156 274.967859 154.707156 
L 274.967859 165.353094 
Q 274.967859 168.653094 278.267859 168.653094 
z
" style="fill: #edf1f7; stroke: #808080; stroke-width: 0.3; stroke-linejoin: miter"/>
    </g>
    <!-- ⇦Aldehyde dehydrogenase -->
    <g transform="translate(278.267859 163.065438)scale(0.11 -0.11)">
     <use xlink:href="#DejaVuSans-21e6"/>
     <use xlink:href="#DejaVuSans-41" x="83.789062"/>
     <use xlink:href="#DejaVuSans-6c" x="152.197266"/>
     <use xlink:href="#DejaVuSans-64" x="179.980469"/>
     <use xlink:href="#DejaVuSans-65" x="243.457031"/>
     <use xlink:href="#DejaVuSans-68" x="304.980469"/>
     <use xlink:href="#DejaVuSans-79" x="368.359375"/>
     <use xlink:href="#DejaVuSans-64" x="427.539062"/>
     <use xlink:href="#DejaVuSans-65" x="491.015625"/>
     <use xlink:href="#DejaVuSans-20" x="552.539062"/>
     <use xlink:href="#DejaVuSans-64" x="584.326172"/>
     <use xlink:href="#DejaVuSans-65" x="647.802734"/>
     <use xlink:href="#DejaVuSans-68" x="709.326172"/>
     <use xlink:href="#DejaVuSans-79" x="772.705078"/>
     <use xlink:href="#DejaVuSans-64" x="831.884766"/>
     <use xlink:href="#DejaVuSans-72" x="895.361328"/>
     <use xlink:href="#DejaVuSans-6f" x="934.224609"/>
     <use xlink:href="#DejaVuSans-67" x="995.40625"/>
     <use xlink:href="#DejaVuSans-65" x="1058.882812"/>
     <use xlink:href="#DejaVuSans-6e" x="1120.40625"/>
     <use xlink:href="#DejaVuSans-61" x="1183.785156"/>
     <use xlink:href="#DejaVuSans-73" x="1245.064453"/>
     <use xlink:href="#DejaVuSans-65" x="1297.164062"/>
    </g>
   </g>
   <g id="text_28">
    <g id="patch_34">
     <path d="M 218.564509 168.653094 
L 258.381071 168.653094 
Q 261.681071 168.653094 261.681071 165.353094 
L 261.681071 154.707156 
Q 261.681071 151.407156 258.381071 151.407156 
L 218.564509 151.407156 
Q 215.264509 151.407156 215.264509 154.707156 
L 215.264509 165.353094 
Q 215.264509 168.653094 218.564509 168.653094 
z
" style="fill: #eef6f0; stroke: #808080; stroke-width: 0.3; stroke-linejoin: miter"/>
    </g>
    <!-- ⇦symR -->
    <g transform="translate(218.564509 163.065438)scale(0.11 -0.11)">
     <use xlink:href="#DejaVuSans-21e6"/>
     <use xlink:href="#DejaVuSans-73" x="83.789062"/>
     <use xlink:href="#DejaVuSans-79" x="135.888672"/>
     <use xlink:href="#DejaVuSans-6d" x="195.068359"/>
     <use xlink:href="#DejaVuSans-52" x="292.480469"/>
    </g>
   </g>
   <g id="text_29">
    <!-- NCTC 74 isolated in 1911 -->
    <g transform="translate(349.857188 16.318125)scale(0.12 -0.12)">
     <defs>
      <path id="DejaVuSans-31" d="M 794 531 
L 1825 531 
L 1825 4091 
L 703 3866 
L 703 4441 
L 1819 4666 
L 2450 4666 
L 2450 531 
L 3481 531 
L 3481 0 
L 794 0 
L 794 531 
z
" transform="scale(0.015625)"/>
      <path id="DejaVuSans-39" d="M 703 97 
L 703 672 
Q 941 559 1184 500 
Q 1428 441 1663 441 
Q 2288 441 2617 861 
Q 2947 1281 2994 2138 
Q 2813 1869 2534 1725 
Q 2256 1581 1919 1581 
Q 1219 1581 811 2004 
Q 403 2428 403 3163 
Q 403 3881 828 4315 
Q 1253 4750 1959 4750 
Q 2769 4750 3195 4129 
Q 3622 3509 3622 2328 
Q 3622 1225 3098 567 
Q 2575 -91 1691 -91 
Q 1453 -91 1209 -44 
Q 966 3 703 97 
z
M 1959 2075 
Q 2384 2075 2632 2365 
Q 2881 2656 2881 3163 
Q 2881 3666 2632 3958 
Q 2384 4250 1959 4250 
Q 1534 4250 1286 3958 
Q 1038 3666 1038 3163 
Q 1038 2656 1286 2365 
Q 1534 2075 1959 2075 
z
" transform="scale(0.015625)"/>
     </defs>
     <use xlink:href="#DejaVuSans-4e"/>
     <use xlink:href="#DejaVuSans-43" x="74.804688"/>
     <use xlink:href="#DejaVuSans-54" x="144.628906"/>
     <use xlink:href="#DejaVuSans-43" x="199.837891"/>
     <use xlink:href="#DejaVuSans-20" x="269.662109"/>
     <use xlink:href="#DejaVuSans-37" x="301.449219"/>
     <use xlink:href="#DejaVuSans-34" x="365.072266"/>
     <use xlink:href="#DejaVuSans-20" x="428.695312"/>
     <use xlink:href="#DejaVuSans-69" x="460.482422"/>
     <use xlink:href="#DejaVuSans-73" x="488.265625"/>
     <use xlink:href="#DejaVuSans-6f" x="540.365234"/>
     <use xlink:href="#DejaVuSans-6c" x="601.546875"/>
     <use xlink:href="#DejaVuSans-61" x="629.330078"/>
     <use xlink:href="#DejaVuSans-74" x="690.609375"/>
     <use xlink:href="#DejaVuSans-65" x="729.818359"/>
     <use xlink:href="#DejaVuSans-64" x="791.341797"/>
     <use xlink:href="#DejaVuSans-20" x="854.818359"/>
     <use xlink:href="#DejaVuSans-69" x="886.605469"/>
     <use xlink:href="#DejaVuSans-6e" x="914.388672"/>
     <use xlink:href="#DejaVuSans-20" x="977.767578"/>
     <use xlink:href="#DejaVuSans-31" x="1009.554688"/>
     <use xlink:href="#DejaVuSans-39" x="1073.177734"/>
     <use xlink:href="#DejaVuSans-31" x="1136.800781"/>
     <use xlink:href="#DejaVuSans-31" x="1200.423828"/>
    </g>
   </g>
  </g>
 </g>
 <defs>
  <clipPath id="p2f070e9d72">
   <rect x="7.2" y="22.318125" width="837" height="206.568"/>
  </clipPath>
 </defs>
</svg>
