<?xml version="1.0" encoding="utf-8" standalone="no"?>
<!DOCTYPE svg PUBLIC "-//W3C//DTD SVG 1.1//EN"
  "http://www.w3.org/Graphics/SVG/1.1/DTD/svg11.dtd">
<svg xmlns:xlink="http://www.w3.org/1999/xlink" width="886.220844pt" height="231.02025pt" viewBox="0 0 886.220844 231.02025" xmlns="http://www.w3.org/2000/svg" version="1.1">
 <metadata>
  <rdf:RDF xmlns:dc="http://purl.org/dc/elements/1.1/" xmlns:cc="http://creativecommons.org/ns#" xmlns:rdf="http://www.w3.org/1999/02/22-rdf-syntax-ns#">
   <cc:Work>
    <dc:type rdf:resource="http://purl.org/dc/dcmitype/StillImage"/>
    <dc:date>2024-03-15T08:05:45.316639</dc:date>
    <dc:format>image/svg+xml</dc:format>
    <dc:creator>
     <cc:Agent>
      <dc:title>Matplotlib v3.5.2, https://matplotlib.org/</dc:title>
     </cc:Agent>
    </dc:creator>
   </cc:Work>
  </rdf:RDF>
 </metadata>
 <defs>
  <style type="text/css">*{stroke-linejoin: round; stroke-linecap: butt}</style>
 </defs>
 <g id="figure_1">
  <g id="patch_1">
   <path d="M 0 231.02025 
L 886.220844 231.02025 
L 886.220844 0 
L 0 0 
L 0 231.02025 
z
" style="fill: none"/>
  </g>
  <g id="axes_1">
   <g id="line2d_1">
    <path d="M 23.036754 192.924894 
L 860.036754 192.924894 
" clip-path="url(#p23c6e402d1)" style="fill: none; stroke: #000000; stroke-width: 1.5; stroke-linecap: square"/>
   </g>
   <g id="line2d_2">
    <path d="M 360.530096 136.055971 
L 360.530096 192.924894 
" clip-path="url(#p23c6e402d1)" style="fill: none; stroke: #000000; stroke-width: 0.5; stroke-linecap: square"/>
   </g>
   <g id="line2d_3">
    <path d="M 441.39784 50.752587 
L 441.39784 192.924894 
" clip-path="url(#p23c6e402d1)" style="fill: none; stroke: #000000; stroke-width: 0.5; stroke-linecap: square"/>
   </g>
   <g id="line2d_4">
    <path d="M 774.43403 136.055971 
L 774.43403 192.924894 
" clip-path="url(#p23c6e402d1)" style="fill: none; stroke: #000000; stroke-width: 0.5; stroke-linecap: square"/>
   </g>
   <g id="line2d_5">
    <path d="M 106.337476 164.490433 
L 106.337476 192.924894 
" clip-path="url(#p23c6e402d1)" style="fill: none; stroke: #000000; stroke-width: 0.5; stroke-linecap: square"/>
   </g>
   <g id="line2d_6">
    <path d="M 557.768012 136.055971 
L 557.768012 164.490433 
" clip-path="url(#p23c6e402d1)" style="fill: none; stroke: #000000; stroke-width: 0.5; stroke-linecap: square"/>
   </g>
   <g id="line2d_7">
    <path d="M 737.641687 107.62151 
L 737.641687 192.924894 
" clip-path="url(#p23c6e402d1)" style="fill: none; stroke: #000000; stroke-width: 0.5; stroke-linecap: square"/>
   </g>
   <g id="line2d_8">
    <path d="M 814.262634 107.62151 
L 814.262634 192.924894 
" clip-path="url(#p23c6e402d1)" style="fill: none; stroke: #000000; stroke-width: 0.5; stroke-linecap: square"/>
   </g>
   <g id="line2d_9">
    <path d="M 250.192758 164.490433 
L 250.192758 192.924894 
" clip-path="url(#p23c6e402d1)" style="fill: none; stroke: #000000; stroke-width: 0.5; stroke-linecap: square"/>
   </g>
   <g id="line2d_10">
    <path d="M 844.942765 136.055971 
L 844.942765 192.924894 
" clip-path="url(#p23c6e402d1)" style="fill: none; stroke: #000000; stroke-width: 0.5; stroke-linecap: square"/>
   </g>
   <g id="line2d_11">
    <path d="M 406.272464 79.187048 
L 406.272464 164.490433 
" clip-path="url(#p23c6e402d1)" style="fill: none; stroke: #000000; stroke-width: 0.5; stroke-linecap: square"/>
   </g>
   <g id="line2d_12">
    <path d="M 707.933954 79.187048 
L 707.933954 192.924894 
" clip-path="url(#p23c6e402d1)" style="fill: none; stroke: #000000; stroke-width: 0.5; stroke-linecap: square"/>
   </g>
   <g id="line2d_13">
    <path d="M 686.144315 136.055971 
L 686.144315 192.924894 
" clip-path="url(#p23c6e402d1)" style="fill: none; stroke: #000000; stroke-width: 0.5; stroke-linecap: square"/>
   </g>
   <g id="line2d_14">
    <path d="M 465.271189 107.62151 
L 465.271189 164.490433 
" clip-path="url(#p23c6e402d1)" style="fill: none; stroke: #000000; stroke-width: 0.5; stroke-linecap: square"/>
   </g>
   <g id="line2d_15">
    <path d="M 464.040808 79.187048 
L 464.040808 136.055971 
" clip-path="url(#p23c6e402d1)" style="fill: none; stroke: #000000; stroke-width: 0.5; stroke-linecap: square"/>
   </g>
   <g id="line2d_16">
    <path d="M 796.461808 164.490433 
L 796.461808 192.924894 
" clip-path="url(#p23c6e402d1)" style="fill: none; stroke: #000000; stroke-width: 0.5; stroke-linecap: square"/>
   </g>
   <g id="line2d_17">
    <path d="M 695.034805 164.490433 
L 695.034805 192.924894 
" clip-path="url(#p23c6e402d1)" style="fill: none; stroke: #000000; stroke-width: 0.5; stroke-linecap: square"/>
   </g>
   <g id="line2d_18">
    <path d="M 859.687485 164.490433 
L 859.687485 192.924894 
" clip-path="url(#p23c6e402d1)" style="fill: none; stroke: #000000; stroke-width: 0.5; stroke-linecap: square"/>
   </g>
   <g id="line2d_19">
    <path d="M 23.247109 136.055971 
L 23.247109 164.490433 
" clip-path="url(#p23c6e402d1)" style="fill: none; stroke: #000000; stroke-width: 0.5; stroke-linecap: square"/>
   </g>
   <g id="patch_2">
    <path d="M 132.234999 185.924894 
Q 173.0442 185.924894 213.853402 185.924894 
L 213.853402 185.924894 
Q 218.052309 189.424894 222.251216 192.924894 
Q 218.052309 196.424894 213.853402 199.924894 
L 213.853402 199.924894 
Q 173.0442 199.924894 132.234999 199.924894 
L 132.234999 185.924894 
z
" clip-path="url(#p23c6e402d1)" style="fill: #4c72b0; stroke: #000000; stroke-linecap: round"/>
   </g>
   <g id="patch_3">
    <path d="M 663.521191 199.924894 
Q 623.486631 199.924894 583.45207 199.924894 
L 583.45207 199.924894 
Q 579.252471 196.424894 575.052872 192.924894 
Q 579.252471 189.424894 583.45207 185.924894 
L 583.45207 185.924894 
Q 623.486631 185.924894 663.521191 185.924894 
L 663.521191 199.924894 
z
" clip-path="url(#p23c6e402d1)" style="fill: #4c72b0; stroke: #000000; stroke-linecap: round"/>
   </g>
   <g id="patch_4">
    <path d="M 327.905171 185.924894 
Q 356.330513 185.924894 384.755856 185.924894 
L 384.755856 185.924894 
Q 388.955439 189.424894 393.155022 192.924894 
Q 388.955439 196.424894 384.755856 199.924894 
L 384.755856 199.924894 
Q 356.330513 199.924894 327.905171 199.924894 
L 327.905171 185.924894 
z
" clip-path="url(#p23c6e402d1)" style="fill: #4c72b0; stroke: #000000; stroke-linecap: round"/>
   </g>
   <g id="patch_5">
    <path d="M 529.886004 199.924894 
Q 504.259058 199.924894 478.632111 199.924894 
L 478.632111 199.924894 
Q 474.432256 196.424894 470.2324 192.924894 
Q 474.432256 189.424894 478.632111 185.924894 
L 478.632111 185.924894 
Q 504.259058 185.924894 529.886004 185.924894 
L 529.886004 199.924894 
z
" clip-path="url(#p23c6e402d1)" style="fill: #4c72b0; stroke: #000000; stroke-linecap: round"/>
   </g>
   <g id="patch_6">
    <path d="M 77.106019 199.924894 
Q 54.396108 199.924894 31.686198 199.924894 
L 31.686198 199.924894 
Q 27.486498 196.424894 23.286799 192.924894 
Q 27.486498 189.424894 31.686198 185.924894 
L 31.686198 185.924894 
Q 54.396108 185.924894 77.106019 185.924894 
L 77.106019 199.924894 
z
" clip-path="url(#p23c6e402d1)" style="fill: #4c72b0; stroke: #000000; stroke-linecap: round"/>
   </g>
   <g id="patch_7">
    <path d="M 270.712328 185.924894 
Q 293.065678 185.924894 315.419028 185.924894 
L 315.419028 185.924894 
Q 319.618081 189.424894 323.817133 192.924894 
Q 319.618081 196.424894 315.419028 199.924894 
L 315.419028 199.924894 
Q 293.065678 199.924894 270.712328 199.924894 
L 270.712328 185.924894 
z
" clip-path="url(#p23c6e402d1)" style="fill: #4c72b0; stroke: #000000; stroke-linecap: round"/>
   </g>
   <g id="patch_8">
    <path d="M 419.548666 185.924894 
Q 437.198435 185.924894 454.848205 185.924894 
L 454.848205 185.924894 
Q 459.04761 189.424894 463.247015 192.924894 
Q 459.04761 196.424894 454.848205 199.924894 
L 454.848205 199.924894 
Q 437.198435 199.924894 419.548666 199.924894 
L 419.548666 185.924894 
z
" clip-path="url(#p23c6e402d1)" style="fill: #dd8452; stroke: #000000; stroke-linecap: round"/>
   </g>
   <g id="patch_9">
    <path d="M 754.251823 185.924894 
Q 770.23351 185.924894 786.215197 185.924894 
L 786.215197 185.924894 
Q 790.415717 189.424894 794.616238 192.924894 
Q 790.415717 196.424894 786.215197 199.924894 
L 786.215197 199.924894 
Q 770.23351 199.924894 754.251823 199.924894 
L 754.251823 185.924894 
z
" clip-path="url(#p23c6e402d1)" style="fill: #4c72b0; stroke: #000000; stroke-linecap: round"/>
   </g>
   <g id="patch_10">
    <path d="M 88.298512 185.924894 
Q 102.13822 185.924894 115.977928 185.924894 
L 115.977928 185.924894 
Q 120.177184 189.424894 124.37644 192.924894 
Q 120.177184 196.424894 115.977928 199.924894 
L 115.977928 199.924894 
Q 102.13822 199.924894 88.298512 199.924894 
L 88.298512 185.924894 
z
" clip-path="url(#p23c6e402d1)" style="fill: #4c72b0; stroke: #000000; stroke-linecap: round"/>
   </g>
   <g id="patch_11">
    <path d="M 575.21163 171.490433 
Q 561.969215 171.490433 548.7268 171.490433 
L 548.7268 171.490433 
Q 544.525596 167.990433 540.324393 164.490433 
Q 544.525596 160.990433 548.7268 157.490433 
L 548.7268 157.490433 
Q 561.969215 157.490433 575.21163 157.490433 
L 575.21163 171.490433 
z
" clip-path="url(#p23c6e402d1)" style="fill: #4c72b0; stroke: #000000; stroke-linecap: round"/>
   </g>
   <g id="patch_12">
    <path d="M 721.984105 185.924894 
Q 733.442504 185.924894 744.900904 185.924894 
L 744.900904 185.924894 
Q 749.100087 189.424894 753.29927 192.924894 
Q 749.100087 196.424894 744.900904 199.924894 
L 744.900904 199.924894 
Q 733.442504 199.924894 721.984105 199.924894 
L 721.984105 185.924894 
z
" clip-path="url(#p23c6e402d1)" style="fill: #4c72b0; stroke: #000000; stroke-linecap: round"/>
   </g>
   <g id="patch_13">
    <path d="M 798.783655 185.924894 
Q 810.062223 185.924894 821.340791 185.924894 
L 821.340791 185.924894 
Q 825.541202 189.424894 829.741614 192.924894 
Q 825.541202 196.424894 821.340791 199.924894 
L 821.340791 199.924894 
Q 810.062223 199.924894 798.783655 199.924894 
L 798.783655 185.924894 
z
" clip-path="url(#p23c6e402d1)" style="fill: #4c72b0; stroke: #000000; stroke-linecap: round"/>
   </g>
   <g id="patch_14">
    <path d="M 235.070986 185.924894 
Q 245.993291 185.924894 256.915596 185.924894 
L 256.915596 185.924894 
Q 261.115063 189.424894 265.31453 192.924894 
Q 261.115063 196.424894 256.915596 199.924894 
L 256.915596 199.924894 
Q 245.993291 199.924894 235.070986 199.924894 
L 235.070986 185.924894 
z
" clip-path="url(#p23c6e402d1)" style="fill: #4c72b0; stroke: #000000; stroke-linecap: round"/>
   </g>
   <g id="patch_15">
    <path d="M 830.535407 185.924894 
Q 840.741205 185.924894 850.947003 185.924894 
L 850.947003 185.924894 
Q 855.148563 189.424894 859.350122 192.924894 
Q 855.148563 196.424894 850.947003 199.924894 
L 850.947003 199.924894 
Q 840.741205 199.924894 830.535407 199.924894 
L 830.535407 185.924894 
z
" clip-path="url(#p23c6e402d1)" style="fill: #4c72b0; stroke: #000000; stroke-linecap: round"/>
   </g>
   <g id="patch_16">
    <path d="M 392.996263 157.490433 
Q 402.073412 157.490433 411.150561 157.490433 
L 411.150561 157.490433 
Q 415.349613 160.990433 419.548666 164.490433 
Q 415.349613 167.990433 411.150561 171.490433 
L 411.150561 171.490433 
Q 402.073412 171.490433 392.996263 171.490433 
L 392.996263 157.490433 
z
" clip-path="url(#p23c6e402d1)" style="fill: #4c72b0; stroke: #000000; stroke-linecap: round"/>
   </g>
   <g id="patch_17">
    <path d="M 699.122843 185.924894 
Q 703.732758 185.924894 708.342673 185.924894 
L 708.342673 185.924894 
Q 712.543869 189.424894 716.745066 192.924894 
Q 712.543869 196.424894 708.342673 199.924894 
L 708.342673 199.924894 
Q 703.732758 199.924894 699.122843 199.924894 
L 699.122843 185.924894 
z
" clip-path="url(#p23c6e402d1)" style="fill: #4c72b0; stroke: #000000; stroke-linecap: round"/>
   </g>
   <g id="patch_18">
    <path d="M 679.476447 185.924894 
Q 682.808753 185.924894 686.141059 185.924894 
L 686.141059 185.924894 
Q 689.476621 189.424894 692.812182 192.924894 
Q 689.476621 196.424894 686.141059 199.924894 
L 686.141059 199.924894 
Q 682.808753 199.924894 679.476447 199.924894 
L 679.476447 185.924894 
z
" clip-path="url(#p23c6e402d1)" style="fill: #4c72b0; stroke: #000000; stroke-linecap: round"/>
   </g>
   <g id="patch_19">
    <path d="M 468.565433 171.490433 
Q 466.919919 171.490433 465.274406 171.490433 
L 465.274406 171.490433 
Q 463.625675 167.990433 461.976944 164.490433 
Q 463.625675 160.990433 465.274406 157.490433 
L 465.274406 157.490433 
Q 466.919919 157.490433 468.565433 157.490433 
L 468.565433 171.490433 
z
" clip-path="url(#p23c6e402d1)" style="fill: #55a868; stroke: #000000; stroke-linecap: round"/>
   </g>
   <g id="patch_20">
    <path d="M 465.826844 143.055971 
Q 464.935571 143.055971 464.044297 143.055971 
L 464.044297 143.055971 
Q 463.149534 139.555971 462.254772 136.055971 
Q 463.149534 132.555971 464.044297 129.055971 
L 464.044297 129.055971 
Q 464.935571 129.055971 465.826844 129.055971 
L 465.826844 143.055971 
z
" clip-path="url(#p23c6e402d1)" style="fill: #4c72b0; stroke: #000000; stroke-linecap: round"/>
   </g>
   <g id="patch_21">
    <path d="M 798.069241 199.924894 
Q 797.267094 199.924894 796.464948 199.924894 
L 796.464948 199.924894 
Q 795.659662 196.424894 794.854376 192.924894 
Q 795.659662 189.424894 796.464948 185.924894 
L 796.464948 185.924894 
Q 797.267094 185.924894 798.069241 185.924894 
L 798.069241 199.924894 
z
" clip-path="url(#p23c6e402d1)" style="fill: #55a868; stroke: #000000; stroke-linecap: round"/>
   </g>
   <g id="patch_22">
    <path d="M 693.486907 185.924894 
Q 694.259345 185.924894 695.031782 185.924894 
L 695.031782 185.924894 
Q 695.807242 189.424894 696.582703 192.924894 
Q 695.807242 196.424894 695.031782 199.924894 
L 695.031782 199.924894 
Q 694.259345 199.924894 693.486907 199.924894 
L 693.486907 185.924894 
z
" clip-path="url(#p23c6e402d1)" style="fill: #55a868; stroke: #000000; stroke-linecap: round"/>
   </g>
   <g id="patch_23">
    <path d="M 859.350122 185.924894 
Q 859.705934 185.924894 860.061746 185.924894 
L 860.061746 185.924894 
Q 860.063141 189.424894 860.064537 192.924894 
Q 860.063141 196.424894 860.061746 199.924894 
L 860.061746 199.924894 
Q 859.705934 199.924894 859.350122 199.924894 
L 859.350122 185.924894 
z
" clip-path="url(#p23c6e402d1)" style="fill: #4c72b0; stroke: #000000; stroke-linecap: round"/>
   </g>
   <g id="patch_24">
    <path d="M 23.008971 157.490433 
Q 23.126645 157.490433 23.244319 157.490433 
L 23.244319 157.490433 
Q 23.344938 160.990433 23.445558 164.490433 
Q 23.344938 167.990433 23.244319 171.490433 
L 23.244319 171.490433 
Q 23.126645 171.490433 23.008971 171.490433 
L 23.008971 157.490433 
z
" clip-path="url(#p23c6e402d1)" style="fill: #4c72b0; stroke: #000000; stroke-linecap: round"/>
   </g>
   <g id="matplotlib.axis_1">
    <g id="xtick_1">
     <g id="line2d_20">
      <defs>
       <path id="me4e0b1892f" d="M 0 0 
L 0 3.5 
" style="stroke: #808080; stroke-width: 0.8"/>
      </defs>
      <g>
       <use xlink:href="#me4e0b1892f" x="48.311149" y="207.142125" style="fill: #808080; stroke: #808080; stroke-width: 0.8"/>
      </g>
     </g>
     <g id="text_1">
      <!-- 4,217,500 -->
      <g style="fill: #808080" transform="translate(22.864274 221.740563)scale(0.1 -0.1)">
       <defs>
        <path id="DejaVuSans-34" d="M 2419 4116 
L 825 1625 
L 2419 1625 
L 2419 4116 
z
M 2253 4666 
L 3047 4666 
L 3047 1625 
L 3713 1625 
L 3713 1100 
L 3047 1100 
L 3047 0 
L 2419 0 
L 2419 1100 
L 313 1100 
L 313 1709 
L 2253 4666 
z
" transform="scale(0.015625)"/>
        <path id="DejaVuSans-2c" d="M 750 794 
L 1409 794 
L 1409 256 
L 897 -744 
L 494 -744 
L 750 256 
L 750 794 
z
" transform="scale(0.015625)"/>
        <path id="DejaVuSans-32" d="M 1228 531 
L 3431 531 
L 3431 0 
L 469 0 
L 469 531 
Q 828 903 1448 1529 
Q 2069 2156 2228 2338 
Q 2531 2678 2651 2914 
Q 2772 3150 2772 3378 
Q 2772 3750 2511 3984 
Q 2250 4219 1831 4219 
Q 1534 4219 1204 4116 
Q 875 4013 500 3803 
L 500 4441 
Q 881 4594 1212 4672 
Q 1544 4750 1819 4750 
Q 2544 4750 2975 4387 
Q 3406 4025 3406 3419 
Q 3406 3131 3298 2873 
Q 3191 2616 2906 2266 
Q 2828 2175 2409 1742 
Q 1991 1309 1228 531 
z
" transform="scale(0.015625)"/>
        <path id="DejaVuSans-31" d="M 794 531 
L 1825 531 
L 1825 4091 
L 703 3866 
L 703 4441 
L 1819 4666 
L 2450 4666 
L 2450 531 
L 3481 531 
L 3481 0 
L 794 0 
L 794 531 
z
" transform="scale(0.015625)"/>
        <path id="DejaVuSans-37" d="M 525 4666 
L 3525 4666 
L 3525 4397 
L 1831 0 
L 1172 0 
L 2766 4134 
L 525 4134 
L 525 4666 
z
" transform="scale(0.015625)"/>
        <path id="DejaVuSans-35" d="M 691 4666 
L 3169 4666 
L 3169 4134 
L 1269 4134 
L 1269 2991 
Q 1406 3038 1543 3061 
Q 1681 3084 1819 3084 
Q 2600 3084 3056 2656 
Q 3513 2228 3513 1497 
Q 3513 744 3044 326 
Q 2575 -91 1722 -91 
Q 1428 -91 1123 -41 
Q 819 9 494 109 
L 494 744 
Q 775 591 1075 516 
Q 1375 441 1709 441 
Q 2250 441 2565 725 
Q 2881 1009 2881 1497 
Q 2881 1984 2565 2268 
Q 2250 2553 1709 2553 
Q 1456 2553 1204 2497 
Q 953 2441 691 2322 
L 691 4666 
z
" transform="scale(0.015625)"/>
        <path id="DejaVuSans-30" d="M 2034 4250 
Q 1547 4250 1301 3770 
Q 1056 3291 1056 2328 
Q 1056 1369 1301 889 
Q 1547 409 2034 409 
Q 2525 409 2770 889 
Q 3016 1369 3016 2328 
Q 3016 3291 2770 3770 
Q 2525 4250 2034 4250 
z
M 2034 4750 
Q 2819 4750 3233 4129 
Q 3647 3509 3647 2328 
Q 3647 1150 3233 529 
Q 2819 -91 2034 -91 
Q 1250 -91 836 529 
Q 422 1150 422 2328 
Q 422 3509 836 4129 
Q 1250 4750 2034 4750 
z
" transform="scale(0.015625)"/>
       </defs>
       <use xlink:href="#DejaVuSans-34"/>
       <use xlink:href="#DejaVuSans-2c" x="63.623047"/>
       <use xlink:href="#DejaVuSans-32" x="95.410156"/>
       <use xlink:href="#DejaVuSans-31" x="159.033203"/>
       <use xlink:href="#DejaVuSans-37" x="222.65625"/>
       <use xlink:href="#DejaVuSans-2c" x="286.279297"/>
       <use xlink:href="#DejaVuSans-35" x="318.066406"/>
       <use xlink:href="#DejaVuSans-30" x="381.689453"/>
       <use xlink:href="#DejaVuSans-30" x="445.3125"/>
      </g>
     </g>
    </g>
    <g id="xtick_2">
     <g id="line2d_21">
      <g>
       <use xlink:href="#me4e0b1892f" x="147.535374" y="207.142125" style="fill: #808080; stroke: #808080; stroke-width: 0.8"/>
      </g>
     </g>
     <g id="text_2">
      <!-- 4,220,000 -->
      <g style="fill: #808080" transform="translate(122.088499 221.740563)scale(0.1 -0.1)">
       <use xlink:href="#DejaVuSans-34"/>
       <use xlink:href="#DejaVuSans-2c" x="63.623047"/>
       <use xlink:href="#DejaVuSans-32" x="95.410156"/>
       <use xlink:href="#DejaVuSans-32" x="159.033203"/>
       <use xlink:href="#DejaVuSans-30" x="222.65625"/>
       <use xlink:href="#DejaVuSans-2c" x="286.279297"/>
       <use xlink:href="#DejaVuSans-30" x="318.066406"/>
       <use xlink:href="#DejaVuSans-30" x="381.689453"/>
       <use xlink:href="#DejaVuSans-30" x="445.3125"/>
      </g>
     </g>
    </g>
    <g id="xtick_3">
     <g id="line2d_22">
      <g>
       <use xlink:href="#me4e0b1892f" x="246.7596" y="207.142125" style="fill: #808080; stroke: #808080; stroke-width: 0.8"/>
      </g>
     </g>
     <g id="text_3">
      <!-- 4,222,500 -->
      <g style="fill: #808080" transform="translate(221.312725 221.740563)scale(0.1 -0.1)">
       <use xlink:href="#DejaVuSans-34"/>
       <use xlink:href="#DejaVuSans-2c" x="63.623047"/>
       <use xlink:href="#DejaVuSans-32" x="95.410156"/>
       <use xlink:href="#DejaVuSans-32" x="159.033203"/>
       <use xlink:href="#DejaVuSans-32" x="222.65625"/>
       <use xlink:href="#DejaVuSans-2c" x="286.279297"/>
       <use xlink:href="#DejaVuSans-35" x="318.066406"/>
       <use xlink:href="#DejaVuSans-30" x="381.689453"/>
       <use xlink:href="#DejaVuSans-30" x="445.3125"/>
      </g>
     </g>
    </g>
    <g id="xtick_4">
     <g id="line2d_23">
      <g>
       <use xlink:href="#me4e0b1892f" x="345.983825" y="207.142125" style="fill: #808080; stroke: #808080; stroke-width: 0.8"/>
      </g>
     </g>
     <g id="text_4">
      <!-- 4,225,000 -->
      <g style="fill: #808080" transform="translate(320.53695 221.740563)scale(0.1 -0.1)">
       <use xlink:href="#DejaVuSans-34"/>
       <use xlink:href="#DejaVuSans-2c" x="63.623047"/>
       <use xlink:href="#DejaVuSans-32" x="95.410156"/>
       <use xlink:href="#DejaVuSans-32" x="159.033203"/>
       <use xlink:href="#DejaVuSans-35" x="222.65625"/>
       <use xlink:href="#DejaVuSans-2c" x="286.279297"/>
       <use xlink:href="#DejaVuSans-30" x="318.066406"/>
       <use xlink:href="#DejaVuSans-30" x="381.689453"/>
       <use xlink:href="#DejaVuSans-30" x="445.3125"/>
      </g>
     </g>
    </g>
    <g id="xtick_5">
     <g id="line2d_24">
      <g>
       <use xlink:href="#me4e0b1892f" x="445.20805" y="207.142125" style="fill: #808080; stroke: #808080; stroke-width: 0.8"/>
      </g>
     </g>
     <g id="text_5">
      <!-- 4,227,500 -->
      <g style="fill: #808080" transform="translate(419.761175 221.740563)scale(0.1 -0.1)">
       <use xlink:href="#DejaVuSans-34"/>
       <use xlink:href="#DejaVuSans-2c" x="63.623047"/>
       <use xlink:href="#DejaVuSans-32" x="95.410156"/>
       <use xlink:href="#DejaVuSans-32" x="159.033203"/>
       <use xlink:href="#DejaVuSans-37" x="222.65625"/>
       <use xlink:href="#DejaVuSans-2c" x="286.279297"/>
       <use xlink:href="#DejaVuSans-35" x="318.066406"/>
       <use xlink:href="#DejaVuSans-30" x="381.689453"/>
       <use xlink:href="#DejaVuSans-30" x="445.3125"/>
      </g>
     </g>
    </g>
    <g id="xtick_6">
     <g id="line2d_25">
      <g>
       <use xlink:href="#me4e0b1892f" x="544.432276" y="207.142125" style="fill: #808080; stroke: #808080; stroke-width: 0.8"/>
      </g>
     </g>
     <g id="text_6">
      <!-- 4,230,000 -->
      <g style="fill: #808080" transform="translate(518.985401 221.740563)scale(0.1 -0.1)">
       <defs>
        <path id="DejaVuSans-33" d="M 2597 2516 
Q 3050 2419 3304 2112 
Q 3559 1806 3559 1356 
Q 3559 666 3084 287 
Q 2609 -91 1734 -91 
Q 1441 -91 1130 -33 
Q 819 25 488 141 
L 488 750 
Q 750 597 1062 519 
Q 1375 441 1716 441 
Q 2309 441 2620 675 
Q 2931 909 2931 1356 
Q 2931 1769 2642 2001 
Q 2353 2234 1838 2234 
L 1294 2234 
L 1294 2753 
L 1863 2753 
Q 2328 2753 2575 2939 
Q 2822 3125 2822 3475 
Q 2822 3834 2567 4026 
Q 2313 4219 1838 4219 
Q 1578 4219 1281 4162 
Q 984 4106 628 3988 
L 628 4550 
Q 988 4650 1302 4700 
Q 1616 4750 1894 4750 
Q 2613 4750 3031 4423 
Q 3450 4097 3450 3541 
Q 3450 3153 3228 2886 
Q 3006 2619 2597 2516 
z
" transform="scale(0.015625)"/>
       </defs>
       <use xlink:href="#DejaVuSans-34"/>
       <use xlink:href="#DejaVuSans-2c" x="63.623047"/>
       <use xlink:href="#DejaVuSans-32" x="95.410156"/>
       <use xlink:href="#DejaVuSans-33" x="159.033203"/>
       <use xlink:href="#DejaVuSans-30" x="222.65625"/>
       <use xlink:href="#DejaVuSans-2c" x="286.279297"/>
       <use xlink:href="#DejaVuSans-30" x="318.066406"/>
       <use xlink:href="#DejaVuSans-30" x="381.689453"/>
       <use xlink:href="#DejaVuSans-30" x="445.3125"/>
      </g>
     </g>
    </g>
    <g id="xtick_7">
     <g id="line2d_26">
      <g>
       <use xlink:href="#me4e0b1892f" x="643.656501" y="207.142125" style="fill: #808080; stroke: #808080; stroke-width: 0.8"/>
      </g>
     </g>
     <g id="text_7">
      <!-- 4,232,500 -->
      <g style="fill: #808080" transform="translate(618.209626 221.740563)scale(0.1 -0.1)">
       <use xlink:href="#DejaVuSans-34"/>
       <use xlink:href="#DejaVuSans-2c" x="63.623047"/>
       <use xlink:href="#DejaVuSans-32" x="95.410156"/>
       <use xlink:href="#DejaVuSans-33" x="159.033203"/>
       <use xlink:href="#DejaVuSans-32" x="222.65625"/>
       <use xlink:href="#DejaVuSans-2c" x="286.279297"/>
       <use xlink:href="#DejaVuSans-35" x="318.066406"/>
       <use xlink:href="#DejaVuSans-30" x="381.689453"/>
       <use xlink:href="#DejaVuSans-30" x="445.3125"/>
      </g>
     </g>
    </g>
    <g id="xtick_8">
     <g id="line2d_27">
      <g>
       <use xlink:href="#me4e0b1892f" x="742.880727" y="207.142125" style="fill: #808080; stroke: #808080; stroke-width: 0.8"/>
      </g>
     </g>
     <g id="text_8">
      <!-- 4,235,000 -->
      <g style="fill: #808080" transform="translate(717.433852 221.740563)scale(0.1 -0.1)">
       <use xlink:href="#DejaVuSans-34"/>
       <use xlink:href="#DejaVuSans-2c" x="63.623047"/>
       <use xlink:href="#DejaVuSans-32" x="95.410156"/>
       <use xlink:href="#DejaVuSans-33" x="159.033203"/>
       <use xlink:href="#DejaVuSans-35" x="222.65625"/>
       <use xlink:href="#DejaVuSans-2c" x="286.279297"/>
       <use xlink:href="#DejaVuSans-30" x="318.066406"/>
       <use xlink:href="#DejaVuSans-30" x="381.689453"/>
       <use xlink:href="#DejaVuSans-30" x="445.3125"/>
      </g>
     </g>
    </g>
    <g id="xtick_9">
     <g id="line2d_28">
      <g>
       <use xlink:href="#me4e0b1892f" x="842.104952" y="207.142125" style="fill: #808080; stroke: #808080; stroke-width: 0.8"/>
      </g>
     </g>
     <g id="text_9">
      <!-- 4,237,500 -->
      <g style="fill: #808080" transform="translate(816.658077 221.740563)scale(0.1 -0.1)">
       <use xlink:href="#DejaVuSans-34"/>
       <use xlink:href="#DejaVuSans-2c" x="63.623047"/>
       <use xlink:href="#DejaVuSans-32" x="95.410156"/>
       <use xlink:href="#DejaVuSans-33" x="159.033203"/>
       <use xlink:href="#DejaVuSans-37" x="222.65625"/>
       <use xlink:href="#DejaVuSans-2c" x="286.279297"/>
       <use xlink:href="#DejaVuSans-35" x="318.066406"/>
       <use xlink:href="#DejaVuSans-30" x="381.689453"/>
       <use xlink:href="#DejaVuSans-30" x="445.3125"/>
      </g>
     </g>
    </g>
   </g>
   <g id="text_10">
    <!-- adiA -->
    <g style="fill: #ffffff" transform="translate(165.090685 195.960207)scale(0.11 -0.11)">
     <defs>
      <path id="DejaVuSans-61" d="M 2194 1759 
Q 1497 1759 1228 1600 
Q 959 1441 959 1056 
Q 959 750 1161 570 
Q 1363 391 1709 391 
Q 2188 391 2477 730 
Q 2766 1069 2766 1631 
L 2766 1759 
L 2194 1759 
z
M 3341 1997 
L 3341 0 
L 2766 0 
L 2766 531 
Q 2569 213 2275 61 
Q 1981 -91 1556 -91 
Q 1019 -91 701 211 
Q 384 513 384 1019 
Q 384 1609 779 1909 
Q 1175 2209 1959 2209 
L 2766 2209 
L 2766 2266 
Q 2766 2663 2505 2880 
Q 2244 3097 1772 3097 
Q 1472 3097 1187 3025 
Q 903 2953 641 2809 
L 641 3341 
Q 956 3463 1253 3523 
Q 1550 3584 1831 3584 
Q 2591 3584 2966 3190 
Q 3341 2797 3341 1997 
z
" transform="scale(0.015625)"/>
      <path id="DejaVuSans-64" d="M 2906 2969 
L 2906 4863 
L 3481 4863 
L 3481 0 
L 2906 0 
L 2906 525 
Q 2725 213 2448 61 
Q 2172 -91 1784 -91 
Q 1150 -91 751 415 
Q 353 922 353 1747 
Q 353 2572 751 3078 
Q 1150 3584 1784 3584 
Q 2172 3584 2448 3432 
Q 2725 3281 2906 2969 
z
M 947 1747 
Q 947 1113 1208 752 
Q 1469 391 1925 391 
Q 2381 391 2643 752 
Q 2906 1113 2906 1747 
Q 2906 2381 2643 2742 
Q 2381 3103 1925 3103 
Q 1469 3103 1208 2742 
Q 947 2381 947 1747 
z
" transform="scale(0.015625)"/>
      <path id="DejaVuSans-69" d="M 603 3500 
L 1178 3500 
L 1178 0 
L 603 0 
L 603 3500 
z
M 603 4863 
L 1178 4863 
L 1178 4134 
L 603 4134 
L 603 4863 
z
" transform="scale(0.015625)"/>
      <path id="DejaVuSans-41" d="M 2188 4044 
L 1331 1722 
L 3047 1722 
L 2188 4044 
z
M 1831 4666 
L 2547 4666 
L 4325 0 
L 3669 0 
L 3244 1197 
L 1141 1197 
L 716 0 
L 50 0 
L 1831 4666 
z
" transform="scale(0.015625)"/>
     </defs>
     <use xlink:href="#DejaVuSans-61"/>
     <use xlink:href="#DejaVuSans-64" x="61.279297"/>
     <use xlink:href="#DejaVuSans-69" x="124.755859"/>
     <use xlink:href="#DejaVuSans-41" x="152.539062"/>
    </g>
   </g>
   <g id="text_11">
    <!-- crfC -->
    <g style="fill: #ffffff" transform="translate(608.225156 195.960207)scale(0.11 -0.11)">
     <defs>
      <path id="DejaVuSans-63" d="M 3122 3366 
L 3122 2828 
Q 2878 2963 2633 3030 
Q 2388 3097 2138 3097 
Q 1578 3097 1268 2742 
Q 959 2388 959 1747 
Q 959 1106 1268 751 
Q 1578 397 2138 397 
Q 2388 397 2633 464 
Q 2878 531 3122 666 
L 3122 134 
Q 2881 22 2623 -34 
Q 2366 -91 2075 -91 
Q 1284 -91 818 406 
Q 353 903 353 1747 
Q 353 2603 823 3093 
Q 1294 3584 2113 3584 
Q 2378 3584 2631 3529 
Q 2884 3475 3122 3366 
z
" transform="scale(0.015625)"/>
      <path id="DejaVuSans-72" d="M 2631 2963 
Q 2534 3019 2420 3045 
Q 2306 3072 2169 3072 
Q 1681 3072 1420 2755 
Q 1159 2438 1159 1844 
L 1159 0 
L 581 0 
L 581 3500 
L 1159 3500 
L 1159 2956 
Q 1341 3275 1631 3429 
Q 1922 3584 2338 3584 
Q 2397 3584 2469 3576 
Q 2541 3569 2628 3553 
L 2631 2963 
z
" transform="scale(0.015625)"/>
      <path id="DejaVuSans-66" d="M 2375 4863 
L 2375 4384 
L 1825 4384 
Q 1516 4384 1395 4259 
Q 1275 4134 1275 3809 
L 1275 3500 
L 2222 3500 
L 2222 3053 
L 1275 3053 
L 1275 0 
L 697 0 
L 697 3053 
L 147 3053 
L 147 3500 
L 697 3500 
L 697 3744 
Q 697 4328 969 4595 
Q 1241 4863 1831 4863 
L 2375 4863 
z
" transform="scale(0.015625)"/>
      <path id="DejaVuSans-43" d="M 4122 4306 
L 4122 3641 
Q 3803 3938 3442 4084 
Q 3081 4231 2675 4231 
Q 1875 4231 1450 3742 
Q 1025 3253 1025 2328 
Q 1025 1406 1450 917 
Q 1875 428 2675 428 
Q 3081 428 3442 575 
Q 3803 722 4122 1019 
L 4122 359 
Q 3791 134 3420 21 
Q 3050 -91 2638 -91 
Q 1578 -91 968 557 
Q 359 1206 359 2328 
Q 359 3453 968 4101 
Q 1578 4750 2638 4750 
Q 3056 4750 3426 4639 
Q 3797 4528 4122 4306 
z
" transform="scale(0.015625)"/>
     </defs>
     <use xlink:href="#DejaVuSans-63"/>
     <use xlink:href="#DejaVuSans-72" x="54.980469"/>
     <use xlink:href="#DejaVuSans-66" x="96.09375"/>
     <use xlink:href="#DejaVuSans-43" x="131.298828"/>
    </g>
   </g>
   <g id="text_12">
    <g id="patch_25">
     <path d="M 306.1583 144.67894 
L 414.901893 144.67894 
Q 418.201893 144.67894 418.201893 141.37894 
L 418.201893 130.733002 
Q 418.201893 127.433002 414.901893 127.433002 
L 306.1583 127.433002 
Q 302.8583 127.433002 302.8583 130.733002 
L 302.8583 141.37894 
Q 302.8583 144.67894 306.1583 144.67894 
z
" style="fill: #edf1f7; stroke: #808080; stroke-width: 0.3; stroke-linejoin: miter"/>
    </g>
    <!-- Cell division protein -->
    <g transform="translate(306.1583 139.091284)scale(0.11 -0.11)">
     <defs>
      <path id="DejaVuSans-65" d="M 3597 1894 
L 3597 1613 
L 953 1613 
Q 991 1019 1311 708 
Q 1631 397 2203 397 
Q 2534 397 2845 478 
Q 3156 559 3463 722 
L 3463 178 
Q 3153 47 2828 -22 
Q 2503 -91 2169 -91 
Q 1331 -91 842 396 
Q 353 884 353 1716 
Q 353 2575 817 3079 
Q 1281 3584 2069 3584 
Q 2775 3584 3186 3129 
Q 3597 2675 3597 1894 
z
M 3022 2063 
Q 3016 2534 2758 2815 
Q 2500 3097 2075 3097 
Q 1594 3097 1305 2825 
Q 1016 2553 972 2059 
L 3022 2063 
z
" transform="scale(0.015625)"/>
      <path id="DejaVuSans-6c" d="M 603 4863 
L 1178 4863 
L 1178 0 
L 603 0 
L 603 4863 
z
" transform="scale(0.015625)"/>
      <path id="DejaVuSans-20" transform="scale(0.015625)"/>
      <path id="DejaVuSans-76" d="M 191 3500 
L 800 3500 
L 1894 563 
L 2988 3500 
L 3597 3500 
L 2284 0 
L 1503 0 
L 191 3500 
z
" transform="scale(0.015625)"/>
      <path id="DejaVuSans-73" d="M 2834 3397 
L 2834 2853 
Q 2591 2978 2328 3040 
Q 2066 3103 1784 3103 
Q 1356 3103 1142 2972 
Q 928 2841 928 2578 
Q 928 2378 1081 2264 
Q 1234 2150 1697 2047 
L 1894 2003 
Q 2506 1872 2764 1633 
Q 3022 1394 3022 966 
Q 3022 478 2636 193 
Q 2250 -91 1575 -91 
Q 1294 -91 989 -36 
Q 684 19 347 128 
L 347 722 
Q 666 556 975 473 
Q 1284 391 1588 391 
Q 1994 391 2212 530 
Q 2431 669 2431 922 
Q 2431 1156 2273 1281 
Q 2116 1406 1581 1522 
L 1381 1569 
Q 847 1681 609 1914 
Q 372 2147 372 2553 
Q 372 3047 722 3315 
Q 1072 3584 1716 3584 
Q 2034 3584 2315 3537 
Q 2597 3491 2834 3397 
z
" transform="scale(0.015625)"/>
      <path id="DejaVuSans-6f" d="M 1959 3097 
Q 1497 3097 1228 2736 
Q 959 2375 959 1747 
Q 959 1119 1226 758 
Q 1494 397 1959 397 
Q 2419 397 2687 759 
Q 2956 1122 2956 1747 
Q 2956 2369 2687 2733 
Q 2419 3097 1959 3097 
z
M 1959 3584 
Q 2709 3584 3137 3096 
Q 3566 2609 3566 1747 
Q 3566 888 3137 398 
Q 2709 -91 1959 -91 
Q 1206 -91 779 398 
Q 353 888 353 1747 
Q 353 2609 779 3096 
Q 1206 3584 1959 3584 
z
" transform="scale(0.015625)"/>
      <path id="DejaVuSans-6e" d="M 3513 2113 
L 3513 0 
L 2938 0 
L 2938 2094 
Q 2938 2591 2744 2837 
Q 2550 3084 2163 3084 
Q 1697 3084 1428 2787 
Q 1159 2491 1159 1978 
L 1159 0 
L 581 0 
L 581 3500 
L 1159 3500 
L 1159 2956 
Q 1366 3272 1645 3428 
Q 1925 3584 2291 3584 
Q 2894 3584 3203 3211 
Q 3513 2838 3513 2113 
z
" transform="scale(0.015625)"/>
      <path id="DejaVuSans-70" d="M 1159 525 
L 1159 -1331 
L 581 -1331 
L 581 3500 
L 1159 3500 
L 1159 2969 
Q 1341 3281 1617 3432 
Q 1894 3584 2278 3584 
Q 2916 3584 3314 3078 
Q 3713 2572 3713 1747 
Q 3713 922 3314 415 
Q 2916 -91 2278 -91 
Q 1894 -91 1617 61 
Q 1341 213 1159 525 
z
M 3116 1747 
Q 3116 2381 2855 2742 
Q 2594 3103 2138 3103 
Q 1681 3103 1420 2742 
Q 1159 2381 1159 1747 
Q 1159 1113 1420 752 
Q 1681 391 2138 391 
Q 2594 391 2855 752 
Q 3116 1113 3116 1747 
z
" transform="scale(0.015625)"/>
      <path id="DejaVuSans-74" d="M 1172 4494 
L 1172 3500 
L 2356 3500 
L 2356 3053 
L 1172 3053 
L 1172 1153 
Q 1172 725 1289 603 
Q 1406 481 1766 481 
L 2356 481 
L 2356 0 
L 1766 0 
Q 1100 0 847 248 
Q 594 497 594 1153 
L 594 3053 
L 172 3053 
L 172 3500 
L 594 3500 
L 594 4494 
L 1172 4494 
z
" transform="scale(0.015625)"/>
     </defs>
     <use xlink:href="#DejaVuSans-43"/>
     <use xlink:href="#DejaVuSans-65" x="69.824219"/>
     <use xlink:href="#DejaVuSans-6c" x="131.347656"/>
     <use xlink:href="#DejaVuSans-6c" x="159.130859"/>
     <use xlink:href="#DejaVuSans-20" x="186.914062"/>
     <use xlink:href="#DejaVuSans-64" x="218.701172"/>
     <use xlink:href="#DejaVuSans-69" x="282.177734"/>
     <use xlink:href="#DejaVuSans-76" x="309.960938"/>
     <use xlink:href="#DejaVuSans-69" x="369.140625"/>
     <use xlink:href="#DejaVuSans-73" x="396.923828"/>
     <use xlink:href="#DejaVuSans-69" x="449.023438"/>
     <use xlink:href="#DejaVuSans-6f" x="476.806641"/>
     <use xlink:href="#DejaVuSans-6e" x="537.988281"/>
     <use xlink:href="#DejaVuSans-20" x="601.367188"/>
     <use xlink:href="#DejaVuSans-70" x="633.154297"/>
     <use xlink:href="#DejaVuSans-72" x="696.630859"/>
     <use xlink:href="#DejaVuSans-6f" x="735.494141"/>
     <use xlink:href="#DejaVuSans-74" x="796.675781"/>
     <use xlink:href="#DejaVuSans-65" x="835.884766"/>
     <use xlink:href="#DejaVuSans-69" x="897.408203"/>
     <use xlink:href="#DejaVuSans-6e" x="925.191406"/>
    </g>
   </g>
   <g id="text_13">
    <!-- proP -->
    <g style="fill: #ffffff" transform="translate(487.748655 195.960207)scale(0.11 -0.11)">
     <defs>
      <path id="DejaVuSans-50" d="M 1259 4147 
L 1259 2394 
L 2053 2394 
Q 2494 2394 2734 2622 
Q 2975 2850 2975 3272 
Q 2975 3691 2734 3919 
Q 2494 4147 2053 4147 
L 1259 4147 
z
M 628 4666 
L 2053 4666 
Q 2838 4666 3239 4311 
Q 3641 3956 3641 3272 
Q 3641 2581 3239 2228 
Q 2838 1875 2053 1875 
L 1259 1875 
L 1259 0 
L 628 0 
L 628 4666 
z
" transform="scale(0.015625)"/>
     </defs>
     <use xlink:href="#DejaVuSans-70"/>
     <use xlink:href="#DejaVuSans-72" x="63.476562"/>
     <use xlink:href="#DejaVuSans-6f" x="102.339844"/>
     <use xlink:href="#DejaVuSans-50" x="163.521484"/>
    </g>
   </g>
   <g id="text_14">
    <!-- melA -->
    <g style="fill: #ffffff" transform="translate(36.164534 195.960207)scale(0.11 -0.11)">
     <defs>
      <path id="DejaVuSans-6d" d="M 3328 2828 
Q 3544 3216 3844 3400 
Q 4144 3584 4550 3584 
Q 5097 3584 5394 3201 
Q 5691 2819 5691 2113 
L 5691 0 
L 5113 0 
L 5113 2094 
Q 5113 2597 4934 2840 
Q 4756 3084 4391 3084 
Q 3944 3084 3684 2787 
Q 3425 2491 3425 1978 
L 3425 0 
L 2847 0 
L 2847 2094 
Q 2847 2600 2669 2842 
Q 2491 3084 2119 3084 
Q 1678 3084 1418 2786 
Q 1159 2488 1159 1978 
L 1159 0 
L 581 0 
L 581 3500 
L 1159 3500 
L 1159 2956 
Q 1356 3278 1631 3431 
Q 1906 3584 2284 3584 
Q 2666 3584 2933 3390 
Q 3200 3197 3328 2828 
z
" transform="scale(0.015625)"/>
     </defs>
     <use xlink:href="#DejaVuSans-6d"/>
     <use xlink:href="#DejaVuSans-65" x="97.412109"/>
     <use xlink:href="#DejaVuSans-6c" x="158.935547"/>
     <use xlink:href="#DejaVuSans-41" x="186.71875"/>
    </g>
   </g>
   <g id="text_15">
    <!-- adiC -->
    <g style="fill: #ffffff" transform="translate(285.034105 195.960207)scale(0.11 -0.11)">
     <use xlink:href="#DejaVuSans-61"/>
     <use xlink:href="#DejaVuSans-64" x="61.279297"/>
     <use xlink:href="#DejaVuSans-69" x="124.755859"/>
     <use xlink:href="#DejaVuSans-43" x="152.539062"/>
    </g>
   </g>
   <g id="text_16">
    <g id="patch_26">
     <path d="M 426.514324 59.375555 
L 456.281356 59.375555 
Q 459.581356 59.375555 459.581356 56.075555 
L 459.581356 45.429618 
Q 459.581356 42.129618 456.281356 42.129618 
L 426.514324 42.129618 
Q 423.214324 42.129618 423.214324 45.429618 
L 423.214324 56.075555 
Q 423.214324 59.375555 426.514324 59.375555 
z
" style="fill: #fbf0ea; stroke: #808080; stroke-width: 0.3; stroke-linejoin: miter"/>
    </g>
    <!-- pmrB -->
    <g transform="translate(426.514324 53.787899)scale(0.11 -0.11)">
     <defs>
      <path id="DejaVuSans-42" d="M 1259 2228 
L 1259 519 
L 2272 519 
Q 2781 519 3026 730 
Q 3272 941 3272 1375 
Q 3272 1813 3026 2020 
Q 2781 2228 2272 2228 
L 1259 2228 
z
M 1259 4147 
L 1259 2741 
L 2194 2741 
Q 2656 2741 2882 2914 
Q 3109 3088 3109 3444 
Q 3109 3797 2882 3972 
Q 2656 4147 2194 4147 
L 1259 4147 
z
M 628 4666 
L 2241 4666 
Q 2963 4666 3353 4366 
Q 3744 4066 3744 3513 
Q 3744 3084 3544 2831 
Q 3344 2578 2956 2516 
Q 3422 2416 3680 2098 
Q 3938 1781 3938 1306 
Q 3938 681 3513 340 
Q 3088 0 2303 0 
L 628 0 
L 628 4666 
z
" transform="scale(0.015625)"/>
     </defs>
     <use xlink:href="#DejaVuSans-70"/>
     <use xlink:href="#DejaVuSans-6d" x="63.476562"/>
     <use xlink:href="#DejaVuSans-72" x="160.888672"/>
     <use xlink:href="#DejaVuSans-42" x="202.001953"/>
    </g>
   </g>
   <g id="text_17">
    <g id="patch_27">
     <path d="M 759.73614 144.67894 
L 789.131921 144.67894 
Q 792.431921 144.67894 792.431921 141.37894 
L 792.431921 130.733002 
Q 792.431921 127.433002 789.131921 127.433002 
L 759.73614 127.433002 
Q 756.43614 127.433002 756.43614 130.733002 
L 756.43614 141.37894 
Q 756.43614 144.67894 759.73614 144.67894 
z
" style="fill: #edf1f7; stroke: #808080; stroke-width: 0.3; stroke-linejoin: miter"/>
    </g>
    <!-- phnD -->
    <g transform="translate(759.73614 139.091284)scale(0.11 -0.11)">
     <defs>
      <path id="DejaVuSans-68" d="M 3513 2113 
L 3513 0 
L 2938 0 
L 2938 2094 
Q 2938 2591 2744 2837 
Q 2550 3084 2163 3084 
Q 1697 3084 1428 2787 
Q 1159 2491 1159 1978 
L 1159 0 
L 581 0 
L 581 4863 
L 1159 4863 
L 1159 2956 
Q 1366 3272 1645 3428 
Q 1925 3584 2291 3584 
Q 2894 3584 3203 3211 
Q 3513 2838 3513 2113 
z
" transform="scale(0.015625)"/>
      <path id="DejaVuSans-44" d="M 1259 4147 
L 1259 519 
L 2022 519 
Q 2988 519 3436 956 
Q 3884 1394 3884 2338 
Q 3884 3275 3436 3711 
Q 2988 4147 2022 4147 
L 1259 4147 
z
M 628 4666 
L 1925 4666 
Q 3281 4666 3915 4102 
Q 4550 3538 4550 2338 
Q 4550 1131 3912 565 
Q 3275 0 1925 0 
L 628 0 
L 628 4666 
z
" transform="scale(0.015625)"/>
     </defs>
     <use xlink:href="#DejaVuSans-70"/>
     <use xlink:href="#DejaVuSans-68" x="63.476562"/>
     <use xlink:href="#DejaVuSans-6e" x="126.855469"/>
     <use xlink:href="#DejaVuSans-44" x="190.234375"/>
    </g>
   </g>
   <g id="text_18">
    <g id="patch_28">
     <path d="M 92.246304 173.113401 
L 120.428648 173.113401 
Q 123.728648 173.113401 123.728648 169.813401 
L 123.728648 159.167464 
Q 123.728648 155.867464 120.428648 155.867464 
L 92.246304 155.867464 
Q 88.946304 155.867464 88.946304 159.167464 
L 88.946304 169.813401 
Q 88.946304 173.113401 92.246304 173.113401 
z
" style="fill: #edf1f7; stroke: #808080; stroke-width: 0.3; stroke-linejoin: miter"/>
    </g>
    <!-- melR -->
    <g transform="translate(92.246304 167.525745)scale(0.11 -0.11)">
     <defs>
      <path id="DejaVuSans-52" d="M 2841 2188 
Q 3044 2119 3236 1894 
Q 3428 1669 3622 1275 
L 4263 0 
L 3584 0 
L 2988 1197 
Q 2756 1666 2539 1819 
Q 2322 1972 1947 1972 
L 1259 1972 
L 1259 0 
L 628 0 
L 628 4666 
L 2053 4666 
Q 2853 4666 3247 4331 
Q 3641 3997 3641 3322 
Q 3641 2881 3436 2590 
Q 3231 2300 2841 2188 
z
M 1259 4147 
L 1259 2491 
L 2053 2491 
Q 2509 2491 2742 2702 
Q 2975 2913 2975 3322 
Q 2975 3731 2742 3939 
Q 2509 4147 2053 4147 
L 1259 4147 
z
" transform="scale(0.015625)"/>
     </defs>
     <use xlink:href="#DejaVuSans-6d"/>
     <use xlink:href="#DejaVuSans-65" x="97.412109"/>
     <use xlink:href="#DejaVuSans-6c" x="158.935547"/>
     <use xlink:href="#DejaVuSans-52" x="186.71875"/>
    </g>
   </g>
   <g id="text_19">
    <g id="patch_29">
     <path d="M 545.362934 144.67894 
L 570.17309 144.67894 
Q 573.47309 144.67894 573.47309 141.37894 
L 573.47309 130.733002 
Q 573.47309 127.433002 570.17309 127.433002 
L 545.362934 127.433002 
Q 542.062934 127.433002 542.062934 130.733002 
L 542.062934 141.37894 
Q 542.062934 144.67894 545.362934 144.67894 
z
" style="fill: #edf1f7; stroke: #808080; stroke-width: 0.3; stroke-linejoin: miter"/>
    </g>
    <!-- yhjH -->
    <g transform="translate(545.362934 139.091284)scale(0.11 -0.11)">
     <defs>
      <path id="DejaVuSans-79" d="M 2059 -325 
Q 1816 -950 1584 -1140 
Q 1353 -1331 966 -1331 
L 506 -1331 
L 506 -850 
L 844 -850 
Q 1081 -850 1212 -737 
Q 1344 -625 1503 -206 
L 1606 56 
L 191 3500 
L 800 3500 
L 1894 763 
L 2988 3500 
L 3597 3500 
L 2059 -325 
z
" transform="scale(0.015625)"/>
      <path id="DejaVuSans-6a" d="M 603 3500 
L 1178 3500 
L 1178 -63 
Q 1178 -731 923 -1031 
Q 669 -1331 103 -1331 
L -116 -1331 
L -116 -844 
L 38 -844 
Q 366 -844 484 -692 
Q 603 -541 603 -63 
L 603 3500 
z
M 603 4863 
L 1178 4863 
L 1178 4134 
L 603 4134 
L 603 4863 
z
" transform="scale(0.015625)"/>
      <path id="DejaVuSans-48" d="M 628 4666 
L 1259 4666 
L 1259 2753 
L 3553 2753 
L 3553 4666 
L 4184 4666 
L 4184 0 
L 3553 0 
L 3553 2222 
L 1259 2222 
L 1259 0 
L 628 0 
L 628 4666 
z
" transform="scale(0.015625)"/>
     </defs>
     <use xlink:href="#DejaVuSans-79"/>
     <use xlink:href="#DejaVuSans-68" x="59.179688"/>
     <use xlink:href="#DejaVuSans-6a" x="122.558594"/>
     <use xlink:href="#DejaVuSans-48" x="150.341797"/>
    </g>
   </g>
   <g id="text_20">
    <g id="patch_30">
     <path d="M 723.33825 116.244478 
L 751.945125 116.244478 
Q 755.245125 116.244478 755.245125 112.944478 
L 755.245125 102.298541 
Q 755.245125 98.998541 751.945125 98.998541 
L 723.33825 98.998541 
Q 720.03825 98.998541 720.03825 102.298541 
L 720.03825 112.944478 
Q 720.03825 116.244478 723.33825 116.244478 
z
" style="fill: #edf1f7; stroke: #808080; stroke-width: 0.3; stroke-linejoin: miter"/>
    </g>
    <!-- phnC -->
    <g transform="translate(723.33825 110.656822)scale(0.11 -0.11)">
     <use xlink:href="#DejaVuSans-70"/>
     <use xlink:href="#DejaVuSans-68" x="63.476562"/>
     <use xlink:href="#DejaVuSans-6e" x="126.855469"/>
     <use xlink:href="#DejaVuSans-43" x="190.234375"/>
    </g>
   </g>
   <g id="text_21">
    <g id="patch_31">
     <path d="M 800.324431 116.244478 
L 828.200837 116.244478 
Q 831.500837 116.244478 831.500837 112.944478 
L 831.500837 102.298541 
Q 831.500837 98.998541 828.200837 98.998541 
L 800.324431 98.998541 
Q 797.024431 98.998541 797.024431 102.298541 
L 797.024431 112.944478 
Q 797.024431 116.244478 800.324431 116.244478 
z
" style="fill: #edf1f7; stroke: #808080; stroke-width: 0.3; stroke-linejoin: miter"/>
    </g>
    <!-- phnE -->
    <g transform="translate(800.324431 110.656822)scale(0.11 -0.11)">
     <defs>
      <path id="DejaVuSans-45" d="M 628 4666 
L 3578 4666 
L 3578 4134 
L 1259 4134 
L 1259 2753 
L 3481 2753 
L 3481 2222 
L 1259 2222 
L 1259 531 
L 3634 531 
L 3634 0 
L 628 0 
L 628 4666 
z
" transform="scale(0.015625)"/>
     </defs>
     <use xlink:href="#DejaVuSans-70"/>
     <use xlink:href="#DejaVuSans-68" x="63.476562"/>
     <use xlink:href="#DejaVuSans-6e" x="126.855469"/>
     <use xlink:href="#DejaVuSans-45" x="190.234375"/>
    </g>
   </g>
   <g id="text_22">
    <g id="patch_32">
     <path d="M 238.443383 173.113401 
L 261.942133 173.113401 
Q 265.242133 173.113401 265.242133 169.813401 
L 265.242133 159.167464 
Q 265.242133 155.867464 261.942133 155.867464 
L 238.443383 155.867464 
Q 235.143383 155.867464 235.143383 159.167464 
L 235.143383 169.813401 
Q 235.143383 173.113401 238.443383 173.113401 
z
" style="fill: #edf1f7; stroke: #808080; stroke-width: 0.3; stroke-linejoin: miter"/>
    </g>
    <!-- adiY -->
    <g transform="translate(238.443383 167.525745)scale(0.11 -0.11)">
     <defs>
      <path id="DejaVuSans-59" d="M -13 4666 
L 666 4666 
L 1959 2747 
L 3244 4666 
L 3922 4666 
L 2272 2222 
L 2272 0 
L 1638 0 
L 1638 2222 
L -13 4666 
z
" transform="scale(0.015625)"/>
     </defs>
     <use xlink:href="#DejaVuSans-61"/>
     <use xlink:href="#DejaVuSans-64" x="61.279297"/>
     <use xlink:href="#DejaVuSans-69" x="124.755859"/>
     <use xlink:href="#DejaVuSans-59" x="152.539062"/>
    </g>
   </g>
   <g id="text_23">
    <g id="patch_33">
     <path d="M 831.316515 144.67894 
L 858.569015 144.67894 
Q 861.869015 144.67894 861.869015 141.37894 
L 861.869015 130.733002 
Q 861.869015 127.433002 858.569015 127.433002 
L 831.316515 127.433002 
Q 828.016515 127.433002 828.016515 130.733002 
L 828.016515 141.37894 
Q 828.016515 144.67894 831.316515 144.67894 
z
" style="fill: #edf1f7; stroke: #808080; stroke-width: 0.3; stroke-linejoin: miter"/>
    </g>
    <!-- phnF -->
    <g transform="translate(831.316515 139.091284)scale(0.11 -0.11)">
     <defs>
      <path id="DejaVuSans-46" d="M 628 4666 
L 3309 4666 
L 3309 4134 
L 1259 4134 
L 1259 2759 
L 3109 2759 
L 3109 2228 
L 1259 2228 
L 1259 0 
L 628 0 
L 628 4666 
z
" transform="scale(0.015625)"/>
     </defs>
     <use xlink:href="#DejaVuSans-70"/>
     <use xlink:href="#DejaVuSans-68" x="63.476562"/>
     <use xlink:href="#DejaVuSans-6e" x="126.855469"/>
     <use xlink:href="#DejaVuSans-46" x="190.234375"/>
    </g>
   </g>
   <g id="text_24">
    <g id="patch_34">
     <path d="M 391.400121 87.810017 
L 421.144808 87.810017 
Q 424.444808 87.810017 424.444808 84.510017 
L 424.444808 73.864079 
Q 424.444808 70.564079 421.144808 70.564079 
L 391.400121 70.564079 
Q 388.100121 70.564079 388.100121 73.864079 
L 388.100121 84.510017 
Q 388.100121 87.810017 391.400121 87.810017 
z
" style="fill: #edf1f7; stroke: #808080; stroke-width: 0.3; stroke-linejoin: miter"/>
    </g>
    <!-- pmrA -->
    <g transform="translate(391.400121 82.222361)scale(0.11 -0.11)">
     <use xlink:href="#DejaVuSans-70"/>
     <use xlink:href="#DejaVuSans-6d" x="63.476562"/>
     <use xlink:href="#DejaVuSans-72" x="160.888672"/>
     <use xlink:href="#DejaVuSans-41" x="202.001953"/>
    </g>
   </g>
   <g id="text_25">
    <g id="patch_35">
     <path d="M 695.544345 87.810017 
L 720.323564 87.810017 
Q 723.623564 87.810017 723.623564 84.510017 
L 723.623564 73.864079 
Q 723.623564 70.564079 720.323564 70.564079 
L 695.544345 70.564079 
Q 692.244345 70.564079 692.244345 73.864079 
L 692.244345 84.510017 
Q 692.244345 87.810017 695.544345 87.810017 
z
" style="fill: #edf1f7; stroke: #808080; stroke-width: 0.3; stroke-linejoin: miter"/>
    </g>
    <!-- yjdN -->
    <g transform="translate(695.544345 82.222361)scale(0.11 -0.11)">
     <defs>
      <path id="DejaVuSans-4e" d="M 628 4666 
L 1478 4666 
L 3547 763 
L 3547 4666 
L 4159 4666 
L 4159 0 
L 3309 0 
L 1241 3903 
L 1241 0 
L 628 0 
L 628 4666 
z
" transform="scale(0.015625)"/>
     </defs>
     <use xlink:href="#DejaVuSans-79"/>
     <use xlink:href="#DejaVuSans-6a" x="59.179688"/>
     <use xlink:href="#DejaVuSans-64" x="86.962891"/>
     <use xlink:href="#DejaVuSans-4e" x="150.439453"/>
    </g>
   </g>
   <g id="text_26">
    <g id="patch_36">
     <path d="M 673.123924 144.67894 
L 699.164705 144.67894 
Q 702.464705 144.67894 702.464705 141.37894 
L 702.464705 130.733002 
Q 702.464705 127.433002 699.164705 127.433002 
L 673.123924 127.433002 
Q 669.823924 127.433002 669.823924 130.733002 
L 669.823924 141.37894 
Q 669.823924 144.67894 673.123924 144.67894 
z
" style="fill: #edf1f7; stroke: #808080; stroke-width: 0.3; stroke-linejoin: miter"/>
    </g>
    <!-- yjdM -->
    <g transform="translate(673.123924 139.091284)scale(0.11 -0.11)">
     <defs>
      <path id="DejaVuSans-4d" d="M 628 4666 
L 1569 4666 
L 2759 1491 
L 3956 4666 
L 4897 4666 
L 4897 0 
L 4281 0 
L 4281 4097 
L 3078 897 
L 2444 897 
L 1241 4097 
L 1241 0 
L 628 0 
L 628 4666 
z
" transform="scale(0.015625)"/>
     </defs>
     <use xlink:href="#DejaVuSans-79"/>
     <use xlink:href="#DejaVuSans-6a" x="59.179688"/>
     <use xlink:href="#DejaVuSans-64" x="86.962891"/>
     <use xlink:href="#DejaVuSans-4d" x="150.439453"/>
    </g>
   </g>
   <g id="text_27">
    <g id="patch_37">
     <path d="M 436.803532 116.244478 
L 493.738845 116.244478 
Q 497.038845 116.244478 497.038845 112.944478 
L 497.038845 102.298541 
Q 497.038845 98.998541 493.738845 98.998541 
L 436.803532 98.998541 
Q 433.503532 98.998541 433.503532 102.298541 
L 433.503532 112.944478 
Q 433.503532 116.244478 436.803532 116.244478 
z
" style="fill: #eef6f0; stroke: #808080; stroke-width: 0.3; stroke-linejoin: miter"/>
    </g>
    <!-- ⇦STnc630 -->
    <g transform="translate(436.803532 110.656822)scale(0.11 -0.11)">
     <defs>
      <path id="DejaVuSans-21e6" d="M 1447 2838 
L 616 2006 
L 1447 1175 
L 1447 1584 
L 4684 1584 
L 4684 2428 
L 1447 2428 
L 1447 2838 
z
M 1759 419 
L 172 2006 
L 1759 3594 
L 1759 2741 
L 4997 2741 
L 4997 1272 
L 1759 1272 
L 1759 419 
z
" transform="scale(0.015625)"/>
      <path id="DejaVuSans-53" d="M 3425 4513 
L 3425 3897 
Q 3066 4069 2747 4153 
Q 2428 4238 2131 4238 
Q 1616 4238 1336 4038 
Q 1056 3838 1056 3469 
Q 1056 3159 1242 3001 
Q 1428 2844 1947 2747 
L 2328 2669 
Q 3034 2534 3370 2195 
Q 3706 1856 3706 1288 
Q 3706 609 3251 259 
Q 2797 -91 1919 -91 
Q 1588 -91 1214 -16 
Q 841 59 441 206 
L 441 856 
Q 825 641 1194 531 
Q 1563 422 1919 422 
Q 2459 422 2753 634 
Q 3047 847 3047 1241 
Q 3047 1584 2836 1778 
Q 2625 1972 2144 2069 
L 1759 2144 
Q 1053 2284 737 2584 
Q 422 2884 422 3419 
Q 422 4038 858 4394 
Q 1294 4750 2059 4750 
Q 2388 4750 2728 4690 
Q 3069 4631 3425 4513 
z
" transform="scale(0.015625)"/>
      <path id="DejaVuSans-54" d="M -19 4666 
L 3928 4666 
L 3928 4134 
L 2272 4134 
L 2272 0 
L 1638 0 
L 1638 4134 
L -19 4134 
L -19 4666 
z
" transform="scale(0.015625)"/>
      <path id="DejaVuSans-36" d="M 2113 2584 
Q 1688 2584 1439 2293 
Q 1191 2003 1191 1497 
Q 1191 994 1439 701 
Q 1688 409 2113 409 
Q 2538 409 2786 701 
Q 3034 994 3034 1497 
Q 3034 2003 2786 2293 
Q 2538 2584 2113 2584 
z
M 3366 4563 
L 3366 3988 
Q 3128 4100 2886 4159 
Q 2644 4219 2406 4219 
Q 1781 4219 1451 3797 
Q 1122 3375 1075 2522 
Q 1259 2794 1537 2939 
Q 1816 3084 2150 3084 
Q 2853 3084 3261 2657 
Q 3669 2231 3669 1497 
Q 3669 778 3244 343 
Q 2819 -91 2113 -91 
Q 1303 -91 875 529 
Q 447 1150 447 2328 
Q 447 3434 972 4092 
Q 1497 4750 2381 4750 
Q 2619 4750 2861 4703 
Q 3103 4656 3366 4563 
z
" transform="scale(0.015625)"/>
     </defs>
     <use xlink:href="#DejaVuSans-21e6"/>
     <use xlink:href="#DejaVuSans-53" x="83.789062"/>
     <use xlink:href="#DejaVuSans-54" x="147.265625"/>
     <use xlink:href="#DejaVuSans-6e" x="208.349609"/>
     <use xlink:href="#DejaVuSans-63" x="271.728516"/>
     <use xlink:href="#DejaVuSans-36" x="326.708984"/>
     <use xlink:href="#DejaVuSans-33" x="390.332031"/>
     <use xlink:href="#DejaVuSans-30" x="453.955078"/>
    </g>
   </g>
   <g id="text_28">
    <g id="patch_38">
     <path d="M 444.50034 87.810017 
L 483.581277 87.810017 
Q 486.881277 87.810017 486.881277 84.510017 
L 486.881277 73.864079 
Q 486.881277 70.564079 483.581277 70.564079 
L 444.50034 70.564079 
Q 441.20034 70.564079 441.20034 73.864079 
L 441.20034 84.510017 
Q 441.20034 87.810017 444.50034 87.810017 
z
" style="fill: #edf1f7; stroke: #808080; stroke-width: 0.3; stroke-linejoin: miter"/>
    </g>
    <!-- ⇦pmrR -->
    <g transform="translate(444.50034 82.222361)scale(0.11 -0.11)">
     <use xlink:href="#DejaVuSans-21e6"/>
     <use xlink:href="#DejaVuSans-70" x="83.789062"/>
     <use xlink:href="#DejaVuSans-6d" x="147.265625"/>
     <use xlink:href="#DejaVuSans-72" x="244.677734"/>
     <use xlink:href="#DejaVuSans-52" x="285.791016"/>
    </g>
   </g>
   <g id="text_29">
    <g id="patch_39">
     <path d="M 769.79884 173.113401 
L 823.124777 173.113401 
Q 826.424777 173.113401 826.424777 169.813401 
L 826.424777 159.167464 
Q 826.424777 155.867464 823.124777 155.867464 
L 769.79884 155.867464 
Q 766.49884 155.867464 766.49884 159.167464 
L 766.49884 169.813401 
Q 766.49884 173.113401 769.79884 173.113401 
z
" style="fill: #eef6f0; stroke: #808080; stroke-width: 0.3; stroke-linejoin: miter"/>
    </g>
    <!-- ⇦naRNA4 -->
    <g transform="translate(769.79884 167.525745)scale(0.11 -0.11)">
     <use xlink:href="#DejaVuSans-21e6"/>
     <use xlink:href="#DejaVuSans-6e" x="83.789062"/>
     <use xlink:href="#DejaVuSans-61" x="147.167969"/>
     <use xlink:href="#DejaVuSans-52" x="208.447266"/>
     <use xlink:href="#DejaVuSans-4e" x="277.929688"/>
     <use xlink:href="#DejaVuSans-41" x="352.734375"/>
     <use xlink:href="#DejaVuSans-34" x="421.142578"/>
    </g>
   </g>
   <g id="text_30">
    <g id="patch_40">
     <path d="M 668.371836 173.113401 
L 721.697774 173.113401 
Q 724.997774 173.113401 724.997774 169.813401 
L 724.997774 159.167464 
Q 724.997774 155.867464 721.697774 155.867464 
L 668.371836 155.867464 
Q 665.071836 155.867464 665.071836 159.167464 
L 665.071836 169.813401 
Q 665.071836 173.113401 668.371836 173.113401 
z
" style="fill: #eef6f0; stroke: #808080; stroke-width: 0.3; stroke-linejoin: miter"/>
    </g>
    <!-- naRNA4⇨ -->
    <g transform="translate(668.371836 167.525745)scale(0.11 -0.11)">
     <defs>
      <path id="DejaVuSans-21e8" d="M 3775 2838 
L 3775 2428 
L 538 2428 
L 538 1584 
L 3775 1584 
L 3775 1175 
L 4606 2006 
L 3775 2838 
z
M 3463 419 
L 3463 1272 
L 225 1272 
L 225 2741 
L 3463 2741 
L 3463 3594 
L 5050 2006 
L 3463 419 
z
" transform="scale(0.015625)"/>
     </defs>
     <use xlink:href="#DejaVuSans-6e"/>
     <use xlink:href="#DejaVuSans-61" x="63.378906"/>
     <use xlink:href="#DejaVuSans-52" x="124.658203"/>
     <use xlink:href="#DejaVuSans-4e" x="194.140625"/>
     <use xlink:href="#DejaVuSans-41" x="268.945312"/>
     <use xlink:href="#DejaVuSans-34" x="337.353516"/>
     <use xlink:href="#DejaVuSans-21e8" x="400.976562"/>
    </g>
   </g>
   <g id="text_31">
    <g id="patch_41">
     <path d="M 840.354125 173.113401 
L 879.020844 173.113401 
Q 882.320844 173.113401 882.320844 169.813401 
L 882.320844 159.167464 
Q 882.320844 155.867464 879.020844 155.867464 
L 840.354125 155.867464 
Q 837.054125 155.867464 837.054125 159.167464 
L 837.054125 169.813401 
Q 837.054125 173.113401 840.354125 173.113401 
z
" style="fill: #edf1f7; stroke: #808080; stroke-width: 0.3; stroke-linejoin: miter"/>
    </g>
    <!-- phnG⇨ -->
    <g transform="translate(840.354125 167.525745)scale(0.11 -0.11)">
     <defs>
      <path id="DejaVuSans-47" d="M 3809 666 
L 3809 1919 
L 2778 1919 
L 2778 2438 
L 4434 2438 
L 4434 434 
Q 4069 175 3628 42 
Q 3188 -91 2688 -91 
Q 1594 -91 976 548 
Q 359 1188 359 2328 
Q 359 3472 976 4111 
Q 1594 4750 2688 4750 
Q 3144 4750 3555 4637 
Q 3966 4525 4313 4306 
L 4313 3634 
Q 3963 3931 3569 4081 
Q 3175 4231 2741 4231 
Q 1884 4231 1454 3753 
Q 1025 3275 1025 2328 
Q 1025 1384 1454 906 
Q 1884 428 2741 428 
Q 3075 428 3337 486 
Q 3600 544 3809 666 
z
" transform="scale(0.015625)"/>
     </defs>
     <use xlink:href="#DejaVuSans-70"/>
     <use xlink:href="#DejaVuSans-68" x="63.476562"/>
     <use xlink:href="#DejaVuSans-6e" x="126.855469"/>
     <use xlink:href="#DejaVuSans-47" x="190.234375"/>
     <use xlink:href="#DejaVuSans-21e8" x="267.724609"/>
    </g>
   </g>
   <g id="text_32">
    <g id="patch_42">
     <path d="M 7.2 144.67894 
L 39.294219 144.67894 
Q 42.594219 144.67894 42.594219 141.37894 
L 42.594219 130.733002 
Q 42.594219 127.433002 39.294219 127.433002 
L 7.2 127.433002 
Q 3.9 127.433002 3.9 130.733002 
L 3.9 141.37894 
Q 3.9 144.67894 7.2 144.67894 
z
" style="fill: #edf1f7; stroke: #808080; stroke-width: 0.3; stroke-linejoin: miter"/>
    </g>
    <!-- yjdF⇨ -->
    <g transform="translate(7.2 139.091284)scale(0.11 -0.11)">
     <use xlink:href="#DejaVuSans-79"/>
     <use xlink:href="#DejaVuSans-6a" x="59.179688"/>
     <use xlink:href="#DejaVuSans-64" x="86.962891"/>
     <use xlink:href="#DejaVuSans-46" x="150.439453"/>
     <use xlink:href="#DejaVuSans-21e8" x="207.958984"/>
    </g>
   </g>
   <g id="text_33">
    <!-- NCTC 8603 isolated in 1947 -->
    <g transform="translate(358.058942 16.318125)scale(0.12 -0.12)">
     <defs>
      <path id="DejaVuSans-38" d="M 2034 2216 
Q 1584 2216 1326 1975 
Q 1069 1734 1069 1313 
Q 1069 891 1326 650 
Q 1584 409 2034 409 
Q 2484 409 2743 651 
Q 3003 894 3003 1313 
Q 3003 1734 2745 1975 
Q 2488 2216 2034 2216 
z
M 1403 2484 
Q 997 2584 770 2862 
Q 544 3141 544 3541 
Q 544 4100 942 4425 
Q 1341 4750 2034 4750 
Q 2731 4750 3128 4425 
Q 3525 4100 3525 3541 
Q 3525 3141 3298 2862 
Q 3072 2584 2669 2484 
Q 3125 2378 3379 2068 
Q 3634 1759 3634 1313 
Q 3634 634 3220 271 
Q 2806 -91 2034 -91 
Q 1263 -91 848 271 
Q 434 634 434 1313 
Q 434 1759 690 2068 
Q 947 2378 1403 2484 
z
M 1172 3481 
Q 1172 3119 1398 2916 
Q 1625 2713 2034 2713 
Q 2441 2713 2670 2916 
Q 2900 3119 2900 3481 
Q 2900 3844 2670 4047 
Q 2441 4250 2034 4250 
Q 1625 4250 1398 4047 
Q 1172 3844 1172 3481 
z
" transform="scale(0.015625)"/>
      <path id="DejaVuSans-39" d="M 703 97 
L 703 672 
Q 941 559 1184 500 
Q 1428 441 1663 441 
Q 2288 441 2617 861 
Q 2947 1281 2994 2138 
Q 2813 1869 2534 1725 
Q 2256 1581 1919 1581 
Q 1219 1581 811 2004 
Q 403 2428 403 3163 
Q 403 3881 828 4315 
Q 1253 4750 1959 4750 
Q 2769 4750 3195 4129 
Q 3622 3509 3622 2328 
Q 3622 1225 3098 567 
Q 2575 -91 1691 -91 
Q 1453 -91 1209 -44 
Q 966 3 703 97 
z
M 1959 2075 
Q 2384 2075 2632 2365 
Q 2881 2656 2881 3163 
Q 2881 3666 2632 3958 
Q 2384 4250 1959 4250 
Q 1534 4250 1286 3958 
Q 1038 3666 1038 3163 
Q 1038 2656 1286 2365 
Q 1534 2075 1959 2075 
z
" transform="scale(0.015625)"/>
     </defs>
     <use xlink:href="#DejaVuSans-4e"/>
     <use xlink:href="#DejaVuSans-43" x="74.804688"/>
     <use xlink:href="#DejaVuSans-54" x="144.628906"/>
     <use xlink:href="#DejaVuSans-43" x="199.837891"/>
     <use xlink:href="#DejaVuSans-20" x="269.662109"/>
     <use xlink:href="#DejaVuSans-38" x="301.449219"/>
     <use xlink:href="#DejaVuSans-36" x="365.072266"/>
     <use xlink:href="#DejaVuSans-30" x="428.695312"/>
     <use xlink:href="#DejaVuSans-33" x="492.318359"/>
     <use xlink:href="#DejaVuSans-20" x="555.941406"/>
     <use xlink:href="#DejaVuSans-69" x="587.728516"/>
     <use xlink:href="#DejaVuSans-73" x="615.511719"/>
     <use xlink:href="#DejaVuSans-6f" x="667.611328"/>
     <use xlink:href="#DejaVuSans-6c" x="728.792969"/>
     <use xlink:href="#DejaVuSans-61" x="756.576172"/>
     <use xlink:href="#DejaVuSans-74" x="817.855469"/>
     <use xlink:href="#DejaVuSans-65" x="857.064453"/>
     <use xlink:href="#DejaVuSans-64" x="918.587891"/>
     <use xlink:href="#DejaVuSans-20" x="982.064453"/>
     <use xlink:href="#DejaVuSans-69" x="1013.851562"/>
     <use xlink:href="#DejaVuSans-6e" x="1041.634766"/>
     <use xlink:href="#DejaVuSans-20" x="1105.013672"/>
     <use xlink:href="#DejaVuSans-31" x="1136.800781"/>
     <use xlink:href="#DejaVuSans-39" x="1200.423828"/>
     <use xlink:href="#DejaVuSans-34" x="1264.046875"/>
     <use xlink:href="#DejaVuSans-37" x="1327.669922"/>
    </g>
   </g>
  </g>
 </g>
 <defs>
  <clipPath id="p23c6e402d1">
   <rect x="23.036754" y="22.318125" width="837" height="184.824"/>
  </clipPath>
 </defs>
</svg>
