<?xml version="1.0" encoding="utf-8" standalone="no"?>
<!DOCTYPE svg PUBLIC "-//W3C//DTD SVG 1.1//EN"
  "http://www.w3.org/Graphics/SVG/1.1/DTD/svg11.dtd">
<svg xmlns:xlink="http://www.w3.org/1999/xlink" width="180.216pt" height="222.184469pt" viewBox="0 0 180.216 222.184469" xmlns="http://www.w3.org/2000/svg" version="1.1">
 <metadata>
  <rdf:RDF xmlns:dc="http://purl.org/dc/elements/1.1/" xmlns:cc="http://creativecommons.org/ns#" xmlns:rdf="http://www.w3.org/1999/02/22-rdf-syntax-ns#">
   <cc:Work>
    <dc:type rdf:resource="http://purl.org/dc/dcmitype/StillImage"/>
    <dc:date>2023-06-03T02:10:52.655775</dc:date>
    <dc:format>image/svg+xml</dc:format>
    <dc:creator>
     <cc:Agent>
      <dc:title>Matplotlib v3.5.2, https://matplotlib.org/</dc:title>
     </cc:Agent>
    </dc:creator>
   </cc:Work>
  </rdf:RDF>
 </metadata>
 <defs>
  <style type="text/css">*{stroke-linejoin: round; stroke-linecap: butt}</style>
 </defs>
 <g id="figure_1">
  <g id="patch_1">
   <path d="M 0 222.184469 
L 180.216 222.184469 
L 180.216 0 
L 0 0 
z
" style="fill: #ffffff"/>
  </g>
  <g id="axes_1">
   <g id="patch_2">
    <path d="M 34.308 185.902688 
L 145.908 185.902688 
L 145.908 19.582687 
L 34.308 19.582687 
z
" style="fill: #ffffff"/>
   </g>
   <g id="matplotlib.axis_1">
    <g id="xtick_1">
     <g id="text_1">
      <!-- −0.2 -->
      <g style="fill: #262626" transform="translate(41.859424 201.253484)scale(0.077 -0.077)">
       <defs>
        <path id="DejaVuSans-2212" d="M 678 2272 
L 4684 2272 
L 4684 1741 
L 678 1741 
L 678 2272 
z
" transform="scale(0.015625)"/>
        <path id="DejaVuSans-30" d="M 2034 4250 
Q 1547 4250 1301 3770 
Q 1056 3291 1056 2328 
Q 1056 1369 1301 889 
Q 1547 409 2034 409 
Q 2525 409 2770 889 
Q 3016 1369 3016 2328 
Q 3016 3291 2770 3770 
Q 2525 4250 2034 4250 
z
M 2034 4750 
Q 2819 4750 3233 4129 
Q 3647 3509 3647 2328 
Q 3647 1150 3233 529 
Q 2819 -91 2034 -91 
Q 1250 -91 836 529 
Q 422 1150 422 2328 
Q 422 3509 836 4129 
Q 1250 4750 2034 4750 
z
" transform="scale(0.015625)"/>
        <path id="DejaVuSans-2e" d="M 684 794 
L 1344 794 
L 1344 0 
L 684 0 
L 684 794 
z
" transform="scale(0.015625)"/>
        <path id="DejaVuSans-32" d="M 1228 531 
L 3431 531 
L 3431 0 
L 469 0 
L 469 531 
Q 828 903 1448 1529 
Q 2069 2156 2228 2338 
Q 2531 2678 2651 2914 
Q 2772 3150 2772 3378 
Q 2772 3750 2511 3984 
Q 2250 4219 1831 4219 
Q 1534 4219 1204 4116 
Q 875 4013 500 3803 
L 500 4441 
Q 881 4594 1212 4672 
Q 1544 4750 1819 4750 
Q 2544 4750 2975 4387 
Q 3406 4025 3406 3419 
Q 3406 3131 3298 2873 
Q 3191 2616 2906 2266 
Q 2828 2175 2409 1742 
Q 1991 1309 1228 531 
z
" transform="scale(0.015625)"/>
       </defs>
       <use xlink:href="#DejaVuSans-2212"/>
       <use xlink:href="#DejaVuSans-30" x="83.789062"/>
       <use xlink:href="#DejaVuSans-2e" x="147.412109"/>
       <use xlink:href="#DejaVuSans-32" x="179.199219"/>
      </g>
     </g>
    </g>
    <g id="xtick_2">
     <g id="text_2">
      <!-- 0.0 -->
      <g style="fill: #262626" transform="translate(85.42945 201.253484)scale(0.077 -0.077)">
       <use xlink:href="#DejaVuSans-30"/>
       <use xlink:href="#DejaVuSans-2e" x="63.623047"/>
       <use xlink:href="#DejaVuSans-30" x="95.410156"/>
      </g>
     </g>
    </g>
    <g id="xtick_3">
     <g id="text_3">
      <!-- 0.2 -->
      <g style="fill: #262626" transform="translate(125.773296 201.253484)scale(0.077 -0.077)">
       <use xlink:href="#DejaVuSans-30"/>
       <use xlink:href="#DejaVuSans-2e" x="63.623047"/>
       <use xlink:href="#DejaVuSans-32" x="95.410156"/>
      </g>
     </g>
    </g>
    <g id="text_4">
     <!-- Null $\Delta$ distribution in 10000 simulations -->
     <g style="fill: #262626" transform="translate(7.2 213.237531)scale(0.084 -0.084)">
      <defs>
       <path id="DejaVuSans-4e" d="M 628 4666 
L 1478 4666 
L 3547 763 
L 3547 4666 
L 4159 4666 
L 4159 0 
L 3309 0 
L 1241 3903 
L 1241 0 
L 628 0 
L 628 4666 
z
" transform="scale(0.015625)"/>
       <path id="DejaVuSans-75" d="M 544 1381 
L 544 3500 
L 1119 3500 
L 1119 1403 
Q 1119 906 1312 657 
Q 1506 409 1894 409 
Q 2359 409 2629 706 
Q 2900 1003 2900 1516 
L 2900 3500 
L 3475 3500 
L 3475 0 
L 2900 0 
L 2900 538 
Q 2691 219 2414 64 
Q 2138 -91 1772 -91 
Q 1169 -91 856 284 
Q 544 659 544 1381 
z
M 1991 3584 
L 1991 3584 
z
" transform="scale(0.015625)"/>
       <path id="DejaVuSans-6c" d="M 603 4863 
L 1178 4863 
L 1178 0 
L 603 0 
L 603 4863 
z
" transform="scale(0.015625)"/>
       <path id="DejaVuSans-20" transform="scale(0.015625)"/>
       <path id="DejaVuSans-394" d="M 2188 4044 
L 906 525 
L 3472 525 
L 2188 4044 
z
M 50 0 
L 1831 4666 
L 2547 4666 
L 4325 0 
L 50 0 
z
" transform="scale(0.015625)"/>
       <path id="DejaVuSans-64" d="M 2906 2969 
L 2906 4863 
L 3481 4863 
L 3481 0 
L 2906 0 
L 2906 525 
Q 2725 213 2448 61 
Q 2172 -91 1784 -91 
Q 1150 -91 751 415 
Q 353 922 353 1747 
Q 353 2572 751 3078 
Q 1150 3584 1784 3584 
Q 2172 3584 2448 3432 
Q 2725 3281 2906 2969 
z
M 947 1747 
Q 947 1113 1208 752 
Q 1469 391 1925 391 
Q 2381 391 2643 752 
Q 2906 1113 2906 1747 
Q 2906 2381 2643 2742 
Q 2381 3103 1925 3103 
Q 1469 3103 1208 2742 
Q 947 2381 947 1747 
z
" transform="scale(0.015625)"/>
       <path id="DejaVuSans-69" d="M 603 3500 
L 1178 3500 
L 1178 0 
L 603 0 
L 603 3500 
z
M 603 4863 
L 1178 4863 
L 1178 4134 
L 603 4134 
L 603 4863 
z
" transform="scale(0.015625)"/>
       <path id="DejaVuSans-73" d="M 2834 3397 
L 2834 2853 
Q 2591 2978 2328 3040 
Q 2066 3103 1784 3103 
Q 1356 3103 1142 2972 
Q 928 2841 928 2578 
Q 928 2378 1081 2264 
Q 1234 2150 1697 2047 
L 1894 2003 
Q 2506 1872 2764 1633 
Q 3022 1394 3022 966 
Q 3022 478 2636 193 
Q 2250 -91 1575 -91 
Q 1294 -91 989 -36 
Q 684 19 347 128 
L 347 722 
Q 666 556 975 473 
Q 1284 391 1588 391 
Q 1994 391 2212 530 
Q 2431 669 2431 922 
Q 2431 1156 2273 1281 
Q 2116 1406 1581 1522 
L 1381 1569 
Q 847 1681 609 1914 
Q 372 2147 372 2553 
Q 372 3047 722 3315 
Q 1072 3584 1716 3584 
Q 2034 3584 2315 3537 
Q 2597 3491 2834 3397 
z
" transform="scale(0.015625)"/>
       <path id="DejaVuSans-74" d="M 1172 4494 
L 1172 3500 
L 2356 3500 
L 2356 3053 
L 1172 3053 
L 1172 1153 
Q 1172 725 1289 603 
Q 1406 481 1766 481 
L 2356 481 
L 2356 0 
L 1766 0 
Q 1100 0 847 248 
Q 594 497 594 1153 
L 594 3053 
L 172 3053 
L 172 3500 
L 594 3500 
L 594 4494 
L 1172 4494 
z
" transform="scale(0.015625)"/>
       <path id="DejaVuSans-72" d="M 2631 2963 
Q 2534 3019 2420 3045 
Q 2306 3072 2169 3072 
Q 1681 3072 1420 2755 
Q 1159 2438 1159 1844 
L 1159 0 
L 581 0 
L 581 3500 
L 1159 3500 
L 1159 2956 
Q 1341 3275 1631 3429 
Q 1922 3584 2338 3584 
Q 2397 3584 2469 3576 
Q 2541 3569 2628 3553 
L 2631 2963 
z
" transform="scale(0.015625)"/>
       <path id="DejaVuSans-62" d="M 3116 1747 
Q 3116 2381 2855 2742 
Q 2594 3103 2138 3103 
Q 1681 3103 1420 2742 
Q 1159 2381 1159 1747 
Q 1159 1113 1420 752 
Q 1681 391 2138 391 
Q 2594 391 2855 752 
Q 3116 1113 3116 1747 
z
M 1159 2969 
Q 1341 3281 1617 3432 
Q 1894 3584 2278 3584 
Q 2916 3584 3314 3078 
Q 3713 2572 3713 1747 
Q 3713 922 3314 415 
Q 2916 -91 2278 -91 
Q 1894 -91 1617 61 
Q 1341 213 1159 525 
L 1159 0 
L 581 0 
L 581 4863 
L 1159 4863 
L 1159 2969 
z
" transform="scale(0.015625)"/>
       <path id="DejaVuSans-6f" d="M 1959 3097 
Q 1497 3097 1228 2736 
Q 959 2375 959 1747 
Q 959 1119 1226 758 
Q 1494 397 1959 397 
Q 2419 397 2687 759 
Q 2956 1122 2956 1747 
Q 2956 2369 2687 2733 
Q 2419 3097 1959 3097 
z
M 1959 3584 
Q 2709 3584 3137 3096 
Q 3566 2609 3566 1747 
Q 3566 888 3137 398 
Q 2709 -91 1959 -91 
Q 1206 -91 779 398 
Q 353 888 353 1747 
Q 353 2609 779 3096 
Q 1206 3584 1959 3584 
z
" transform="scale(0.015625)"/>
       <path id="DejaVuSans-6e" d="M 3513 2113 
L 3513 0 
L 2938 0 
L 2938 2094 
Q 2938 2591 2744 2837 
Q 2550 3084 2163 3084 
Q 1697 3084 1428 2787 
Q 1159 2491 1159 1978 
L 1159 0 
L 581 0 
L 581 3500 
L 1159 3500 
L 1159 2956 
Q 1366 3272 1645 3428 
Q 1925 3584 2291 3584 
Q 2894 3584 3203 3211 
Q 3513 2838 3513 2113 
z
" transform="scale(0.015625)"/>
       <path id="DejaVuSans-31" d="M 794 531 
L 1825 531 
L 1825 4091 
L 703 3866 
L 703 4441 
L 1819 4666 
L 2450 4666 
L 2450 531 
L 3481 531 
L 3481 0 
L 794 0 
L 794 531 
z
" transform="scale(0.015625)"/>
       <path id="DejaVuSans-6d" d="M 3328 2828 
Q 3544 3216 3844 3400 
Q 4144 3584 4550 3584 
Q 5097 3584 5394 3201 
Q 5691 2819 5691 2113 
L 5691 0 
L 5113 0 
L 5113 2094 
Q 5113 2597 4934 2840 
Q 4756 3084 4391 3084 
Q 3944 3084 3684 2787 
Q 3425 2491 3425 1978 
L 3425 0 
L 2847 0 
L 2847 2094 
Q 2847 2600 2669 2842 
Q 2491 3084 2119 3084 
Q 1678 3084 1418 2786 
Q 1159 2488 1159 1978 
L 1159 0 
L 581 0 
L 581 3500 
L 1159 3500 
L 1159 2956 
Q 1356 3278 1631 3431 
Q 1906 3584 2284 3584 
Q 2666 3584 2933 3390 
Q 3200 3197 3328 2828 
z
" transform="scale(0.015625)"/>
       <path id="DejaVuSans-61" d="M 2194 1759 
Q 1497 1759 1228 1600 
Q 959 1441 959 1056 
Q 959 750 1161 570 
Q 1363 391 1709 391 
Q 2188 391 2477 730 
Q 2766 1069 2766 1631 
L 2766 1759 
L 2194 1759 
z
M 3341 1997 
L 3341 0 
L 2766 0 
L 2766 531 
Q 2569 213 2275 61 
Q 1981 -91 1556 -91 
Q 1019 -91 701 211 
Q 384 513 384 1019 
Q 384 1609 779 1909 
Q 1175 2209 1959 2209 
L 2766 2209 
L 2766 2266 
Q 2766 2663 2505 2880 
Q 2244 3097 1772 3097 
Q 1472 3097 1187 3025 
Q 903 2953 641 2809 
L 641 3341 
Q 956 3463 1253 3523 
Q 1550 3584 1831 3584 
Q 2591 3584 2966 3190 
Q 3341 2797 3341 1997 
z
" transform="scale(0.015625)"/>
      </defs>
      <use xlink:href="#DejaVuSans-4e" transform="translate(0 0.015625)"/>
      <use xlink:href="#DejaVuSans-75" transform="translate(74.804688 0.015625)"/>
      <use xlink:href="#DejaVuSans-6c" transform="translate(138.183594 0.015625)"/>
      <use xlink:href="#DejaVuSans-6c" transform="translate(165.966797 0.015625)"/>
      <use xlink:href="#DejaVuSans-20" transform="translate(193.75 0.015625)"/>
      <use xlink:href="#DejaVuSans-394" transform="translate(225.537109 0.015625)"/>
      <use xlink:href="#DejaVuSans-20" transform="translate(293.945312 0.015625)"/>
      <use xlink:href="#DejaVuSans-64" transform="translate(325.732422 0.015625)"/>
      <use xlink:href="#DejaVuSans-69" transform="translate(389.208984 0.015625)"/>
      <use xlink:href="#DejaVuSans-73" transform="translate(416.992188 0.015625)"/>
      <use xlink:href="#DejaVuSans-74" transform="translate(469.091797 0.015625)"/>
      <use xlink:href="#DejaVuSans-72" transform="translate(508.300781 0.015625)"/>
      <use xlink:href="#DejaVuSans-69" transform="translate(549.414062 0.015625)"/>
      <use xlink:href="#DejaVuSans-62" transform="translate(577.197266 0.015625)"/>
      <use xlink:href="#DejaVuSans-75" transform="translate(640.673828 0.015625)"/>
      <use xlink:href="#DejaVuSans-74" transform="translate(704.052734 0.015625)"/>
      <use xlink:href="#DejaVuSans-69" transform="translate(743.261719 0.015625)"/>
      <use xlink:href="#DejaVuSans-6f" transform="translate(771.044922 0.015625)"/>
      <use xlink:href="#DejaVuSans-6e" transform="translate(832.226562 0.015625)"/>
      <use xlink:href="#DejaVuSans-20" transform="translate(895.605469 0.015625)"/>
      <use xlink:href="#DejaVuSans-69" transform="translate(927.392578 0.015625)"/>
      <use xlink:href="#DejaVuSans-6e" transform="translate(955.175781 0.015625)"/>
      <use xlink:href="#DejaVuSans-20" transform="translate(1018.554688 0.015625)"/>
      <use xlink:href="#DejaVuSans-31" transform="translate(1050.341797 0.015625)"/>
      <use xlink:href="#DejaVuSans-30" transform="translate(1113.964844 0.015625)"/>
      <use xlink:href="#DejaVuSans-30" transform="translate(1177.587891 0.015625)"/>
      <use xlink:href="#DejaVuSans-30" transform="translate(1241.210938 0.015625)"/>
      <use xlink:href="#DejaVuSans-30" transform="translate(1304.833984 0.015625)"/>
      <use xlink:href="#DejaVuSans-20" transform="translate(1368.457031 0.015625)"/>
      <use xlink:href="#DejaVuSans-73" transform="translate(1400.244141 0.015625)"/>
      <use xlink:href="#DejaVuSans-69" transform="translate(1452.34375 0.015625)"/>
      <use xlink:href="#DejaVuSans-6d" transform="translate(1480.126953 0.015625)"/>
      <use xlink:href="#DejaVuSans-75" transform="translate(1577.539062 0.015625)"/>
      <use xlink:href="#DejaVuSans-6c" transform="translate(1640.917969 0.015625)"/>
      <use xlink:href="#DejaVuSans-61" transform="translate(1668.701172 0.015625)"/>
      <use xlink:href="#DejaVuSans-74" transform="translate(1729.980469 0.015625)"/>
      <use xlink:href="#DejaVuSans-69" transform="translate(1769.189453 0.015625)"/>
      <use xlink:href="#DejaVuSans-6f" transform="translate(1796.972656 0.015625)"/>
      <use xlink:href="#DejaVuSans-6e" transform="translate(1858.154297 0.015625)"/>
      <use xlink:href="#DejaVuSans-73" transform="translate(1921.533203 0.015625)"/>
     </g>
    </g>
   </g>
   <g id="matplotlib.axis_2">
    <g id="ytick_1">
     <g id="text_5">
      <!-- 0 -->
      <g style="fill: #262626" transform="translate(19.908875 188.828086)scale(0.077 -0.077)">
       <use xlink:href="#DejaVuSans-30"/>
      </g>
     </g>
    </g>
    <g id="ytick_2">
     <g id="text_6">
      <!-- 1 -->
      <g style="fill: #262626" transform="translate(19.908875 164.146823)scale(0.077 -0.077)">
       <use xlink:href="#DejaVuSans-31"/>
      </g>
     </g>
    </g>
    <g id="ytick_3">
     <g id="text_7">
      <!-- 2 -->
      <g style="fill: #262626" transform="translate(19.908875 139.465559)scale(0.077 -0.077)">
       <use xlink:href="#DejaVuSans-32"/>
      </g>
     </g>
    </g>
    <g id="ytick_4">
     <g id="text_8">
      <!-- 3 -->
      <g style="fill: #262626" transform="translate(19.908875 114.784296)scale(0.077 -0.077)">
       <defs>
        <path id="DejaVuSans-33" d="M 2597 2516 
Q 3050 2419 3304 2112 
Q 3559 1806 3559 1356 
Q 3559 666 3084 287 
Q 2609 -91 1734 -91 
Q 1441 -91 1130 -33 
Q 819 25 488 141 
L 488 750 
Q 750 597 1062 519 
Q 1375 441 1716 441 
Q 2309 441 2620 675 
Q 2931 909 2931 1356 
Q 2931 1769 2642 2001 
Q 2353 2234 1838 2234 
L 1294 2234 
L 1294 2753 
L 1863 2753 
Q 2328 2753 2575 2939 
Q 2822 3125 2822 3475 
Q 2822 3834 2567 4026 
Q 2313 4219 1838 4219 
Q 1578 4219 1281 4162 
Q 984 4106 628 3988 
L 628 4550 
Q 988 4650 1302 4700 
Q 1616 4750 1894 4750 
Q 2613 4750 3031 4423 
Q 3450 4097 3450 3541 
Q 3450 3153 3228 2886 
Q 3006 2619 2597 2516 
z
" transform="scale(0.015625)"/>
       </defs>
       <use xlink:href="#DejaVuSans-33"/>
      </g>
     </g>
    </g>
    <g id="ytick_5">
     <g id="text_9">
      <!-- 4 -->
      <g style="fill: #262626" transform="translate(19.908875 90.103032)scale(0.077 -0.077)">
       <defs>
        <path id="DejaVuSans-34" d="M 2419 4116 
L 825 1625 
L 2419 1625 
L 2419 4116 
z
M 2253 4666 
L 3047 4666 
L 3047 1625 
L 3713 1625 
L 3713 1100 
L 3047 1100 
L 3047 0 
L 2419 0 
L 2419 1100 
L 313 1100 
L 313 1709 
L 2253 4666 
z
" transform="scale(0.015625)"/>
       </defs>
       <use xlink:href="#DejaVuSans-34"/>
      </g>
     </g>
    </g>
    <g id="ytick_6">
     <g id="text_10">
      <!-- 5 -->
      <g style="fill: #262626" transform="translate(19.908875 65.421769)scale(0.077 -0.077)">
       <defs>
        <path id="DejaVuSans-35" d="M 691 4666 
L 3169 4666 
L 3169 4134 
L 1269 4134 
L 1269 2991 
Q 1406 3038 1543 3061 
Q 1681 3084 1819 3084 
Q 2600 3084 3056 2656 
Q 3513 2228 3513 1497 
Q 3513 744 3044 326 
Q 2575 -91 1722 -91 
Q 1428 -91 1123 -41 
Q 819 9 494 109 
L 494 744 
Q 775 591 1075 516 
Q 1375 441 1709 441 
Q 2250 441 2565 725 
Q 2881 1009 2881 1497 
Q 2881 1984 2565 2268 
Q 2250 2553 1709 2553 
Q 1456 2553 1204 2497 
Q 953 2441 691 2322 
L 691 4666 
z
" transform="scale(0.015625)"/>
       </defs>
       <use xlink:href="#DejaVuSans-35"/>
      </g>
     </g>
    </g>
    <g id="ytick_7">
     <g id="text_11">
      <!-- 6 -->
      <g style="fill: #262626" transform="translate(19.908875 40.740506)scale(0.077 -0.077)">
       <defs>
        <path id="DejaVuSans-36" d="M 2113 2584 
Q 1688 2584 1439 2293 
Q 1191 2003 1191 1497 
Q 1191 994 1439 701 
Q 1688 409 2113 409 
Q 2538 409 2786 701 
Q 3034 994 3034 1497 
Q 3034 2003 2786 2293 
Q 2538 2584 2113 2584 
z
M 3366 4563 
L 3366 3988 
Q 3128 4100 2886 4159 
Q 2644 4219 2406 4219 
Q 1781 4219 1451 3797 
Q 1122 3375 1075 2522 
Q 1259 2794 1537 2939 
Q 1816 3084 2150 3084 
Q 2853 3084 3261 2657 
Q 3669 2231 3669 1497 
Q 3669 778 3244 343 
Q 2819 -91 2113 -91 
Q 1303 -91 875 529 
Q 447 1150 447 2328 
Q 447 3434 972 4092 
Q 1497 4750 2381 4750 
Q 2619 4750 2861 4703 
Q 3103 4656 3366 4563 
z
" transform="scale(0.015625)"/>
       </defs>
       <use xlink:href="#DejaVuSans-36"/>
      </g>
     </g>
    </g>
    <g id="text_12">
     <!-- Density -->
     <g style="fill: #262626" transform="translate(14.161937 118.709906)rotate(-90)scale(0.084 -0.084)">
      <defs>
       <path id="DejaVuSans-44" d="M 1259 4147 
L 1259 519 
L 2022 519 
Q 2988 519 3436 956 
Q 3884 1394 3884 2338 
Q 3884 3275 3436 3711 
Q 2988 4147 2022 4147 
L 1259 4147 
z
M 628 4666 
L 1925 4666 
Q 3281 4666 3915 4102 
Q 4550 3538 4550 2338 
Q 4550 1131 3912 565 
Q 3275 0 1925 0 
L 628 0 
L 628 4666 
z
" transform="scale(0.015625)"/>
       <path id="DejaVuSans-65" d="M 3597 1894 
L 3597 1613 
L 953 1613 
Q 991 1019 1311 708 
Q 1631 397 2203 397 
Q 2534 397 2845 478 
Q 3156 559 3463 722 
L 3463 178 
Q 3153 47 2828 -22 
Q 2503 -91 2169 -91 
Q 1331 -91 842 396 
Q 353 884 353 1716 
Q 353 2575 817 3079 
Q 1281 3584 2069 3584 
Q 2775 3584 3186 3129 
Q 3597 2675 3597 1894 
z
M 3022 2063 
Q 3016 2534 2758 2815 
Q 2500 3097 2075 3097 
Q 1594 3097 1305 2825 
Q 1016 2553 972 2059 
L 3022 2063 
z
" transform="scale(0.015625)"/>
       <path id="DejaVuSans-79" d="M 2059 -325 
Q 1816 -950 1584 -1140 
Q 1353 -1331 966 -1331 
L 506 -1331 
L 506 -850 
L 844 -850 
Q 1081 -850 1212 -737 
Q 1344 -625 1503 -206 
L 1606 56 
L 191 3500 
L 800 3500 
L 1894 763 
L 2988 3500 
L 3597 3500 
L 2059 -325 
z
" transform="scale(0.015625)"/>
      </defs>
      <use xlink:href="#DejaVuSans-44"/>
      <use xlink:href="#DejaVuSans-65" x="77.001953"/>
      <use xlink:href="#DejaVuSans-6e" x="138.525391"/>
      <use xlink:href="#DejaVuSans-73" x="201.904297"/>
      <use xlink:href="#DejaVuSans-69" x="254.003906"/>
      <use xlink:href="#DejaVuSans-74" x="281.787109"/>
      <use xlink:href="#DejaVuSans-79" x="320.996094"/>
     </g>
    </g>
   </g>
   <g id="patch_3">
    <path d="M 43.992298 185.902688 
L 45.639287 185.902688 
L 45.639287 185.600397 
L 43.992298 185.600397 
z
" clip-path="url(#pe6074ab61e)" style="fill: #4c72b0; fill-opacity: 0.75"/>
   </g>
   <g id="patch_4">
    <path d="M 45.639287 185.902688 
L 47.286276 185.902688 
L 47.286276 184.995817 
L 45.639287 184.995817 
z
" clip-path="url(#pe6074ab61e)" style="fill: #4c72b0; fill-opacity: 0.75"/>
   </g>
   <g id="patch_5">
    <path d="M 47.286276 185.902688 
L 48.933266 185.902688 
L 48.933266 185.902688 
L 47.286276 185.902688 
z
" clip-path="url(#pe6074ab61e)" style="fill: #4c72b0; fill-opacity: 0.75"/>
   </g>
   <g id="patch_6">
    <path d="M 48.933266 185.902688 
L 50.580255 185.902688 
L 50.580255 185.298107 
L 48.933266 185.298107 
z
" clip-path="url(#pe6074ab61e)" style="fill: #4c72b0; fill-opacity: 0.75"/>
   </g>
   <g id="patch_7">
    <path d="M 50.580255 185.902688 
L 52.227244 185.902688 
L 52.227244 184.693527 
L 50.580255 184.693527 
z
" clip-path="url(#pe6074ab61e)" style="fill: #4c72b0; fill-opacity: 0.75"/>
   </g>
   <g id="patch_8">
    <path d="M 52.227244 185.902688 
L 53.874234 185.902688 
L 53.874234 182.879787 
L 52.227244 182.879787 
z
" clip-path="url(#pe6074ab61e)" style="fill: #4c72b0; fill-opacity: 0.75"/>
   </g>
   <g id="patch_9">
    <path d="M 53.874234 185.902688 
L 55.521223 185.902688 
L 55.521223 182.879787 
L 53.874234 182.879787 
z
" clip-path="url(#pe6074ab61e)" style="fill: #4c72b0; fill-opacity: 0.75"/>
   </g>
   <g id="patch_10">
    <path d="M 55.521223 185.902688 
L 57.168213 185.902688 
L 57.168213 179.252306 
L 55.521223 179.252306 
z
" clip-path="url(#pe6074ab61e)" style="fill: #4c72b0; fill-opacity: 0.75"/>
   </g>
   <g id="patch_11">
    <path d="M 57.168213 185.902688 
L 58.815202 185.902688 
L 58.815202 178.043146 
L 57.168213 178.043146 
z
" clip-path="url(#pe6074ab61e)" style="fill: #4c72b0; fill-opacity: 0.75"/>
   </g>
   <g id="patch_12">
    <path d="M 58.815202 185.902688 
L 60.462191 185.902688 
L 60.462191 173.811084 
L 58.815202 173.811084 
z
" clip-path="url(#pe6074ab61e)" style="fill: #4c72b0; fill-opacity: 0.75"/>
   </g>
   <g id="patch_13">
    <path d="M 60.462191 185.902688 
L 62.109181 185.902688 
L 62.109181 171.090474 
L 60.462191 171.090474 
z
" clip-path="url(#pe6074ab61e)" style="fill: #4c72b0; fill-opacity: 0.75"/>
   </g>
   <g id="patch_14">
    <path d="M 62.109181 185.902688 
L 63.75617 185.902688 
L 63.75617 166.858413 
L 62.109181 166.858413 
z
" clip-path="url(#pe6074ab61e)" style="fill: #4c72b0; fill-opacity: 0.75"/>
   </g>
   <g id="patch_15">
    <path d="M 63.75617 185.902688 
L 65.403159 185.902688 
L 65.403159 158.394291 
L 63.75617 158.394291 
z
" clip-path="url(#pe6074ab61e)" style="fill: #4c72b0; fill-opacity: 0.75"/>
   </g>
   <g id="patch_16">
    <path d="M 65.403159 185.902688 
L 67.050149 185.902688 
L 67.050149 155.0691 
L 65.403159 155.0691 
z
" clip-path="url(#pe6074ab61e)" style="fill: #4c72b0; fill-opacity: 0.75"/>
   </g>
   <g id="patch_17">
    <path d="M 67.050149 185.902688 
L 68.697138 185.902688 
L 68.697138 152.348489 
L 67.050149 152.348489 
z
" clip-path="url(#pe6074ab61e)" style="fill: #4c72b0; fill-opacity: 0.75"/>
   </g>
   <g id="patch_18">
    <path d="M 68.697138 185.902688 
L 70.344128 185.902688 
L 70.344128 133.001924 
L 68.697138 133.001924 
z
" clip-path="url(#pe6074ab61e)" style="fill: #4c72b0; fill-opacity: 0.75"/>
   </g>
   <g id="patch_19">
    <path d="M 70.344128 185.902688 
L 71.991117 185.902688 
L 71.991117 130.281313 
L 70.344128 130.281313 
z
" clip-path="url(#pe6074ab61e)" style="fill: #4c72b0; fill-opacity: 0.75"/>
   </g>
   <g id="patch_20">
    <path d="M 71.991117 185.902688 
L 73.638106 185.902688 
L 73.638106 122.421771 
L 71.991117 122.421771 
z
" clip-path="url(#pe6074ab61e)" style="fill: #4c72b0; fill-opacity: 0.75"/>
   </g>
   <g id="patch_21">
    <path d="M 73.638106 185.902688 
L 75.285096 185.902688 
L 75.285096 106.098107 
L 73.638106 106.098107 
z
" clip-path="url(#pe6074ab61e)" style="fill: #4c72b0; fill-opacity: 0.75"/>
   </g>
   <g id="patch_22">
    <path d="M 75.285096 185.902688 
L 76.932085 185.902688 
L 76.932085 104.586657 
L 75.285096 104.586657 
z
" clip-path="url(#pe6074ab61e)" style="fill: #4c72b0; fill-opacity: 0.75"/>
   </g>
   <g id="patch_23">
    <path d="M 76.932085 185.902688 
L 78.579074 185.902688 
L 78.579074 82.217191 
L 76.932085 82.217191 
z
" clip-path="url(#pe6074ab61e)" style="fill: #4c72b0; fill-opacity: 0.75"/>
   </g>
   <g id="patch_24">
    <path d="M 78.579074 185.902688 
L 80.226064 185.902688 
L 80.226064 77.68284 
L 78.579074 77.68284 
z
" clip-path="url(#pe6074ab61e)" style="fill: #4c72b0; fill-opacity: 0.75"/>
   </g>
   <g id="patch_25">
    <path d="M 80.226064 185.902688 
L 81.873053 185.902688 
L 81.873053 61.661466 
L 80.226064 61.661466 
z
" clip-path="url(#pe6074ab61e)" style="fill: #4c72b0; fill-opacity: 0.75"/>
   </g>
   <g id="patch_26">
    <path d="M 81.873053 185.902688 
L 83.520043 185.902688 
L 83.520043 60.452306 
L 81.873053 60.452306 
z
" clip-path="url(#pe6074ab61e)" style="fill: #4c72b0; fill-opacity: 0.75"/>
   </g>
   <g id="patch_27">
    <path d="M 83.520043 185.902688 
L 85.167032 185.902688 
L 85.167032 39.594291 
L 83.520043 39.594291 
z
" clip-path="url(#pe6074ab61e)" style="fill: #4c72b0; fill-opacity: 0.75"/>
   </g>
   <g id="patch_28">
    <path d="M 85.167032 185.902688 
L 86.814021 185.902688 
L 86.814021 45.942382 
L 85.167032 45.942382 
z
" clip-path="url(#pe6074ab61e)" style="fill: #4c72b0; fill-opacity: 0.75"/>
   </g>
   <g id="patch_29">
    <path d="M 86.814021 185.902688 
L 88.461011 185.902688 
L 88.461011 41.408031 
L 86.814021 41.408031 
z
" clip-path="url(#pe6074ab61e)" style="fill: #4c72b0; fill-opacity: 0.75"/>
   </g>
   <g id="patch_30">
    <path d="M 88.461011 185.902688 
L 90.108 185.902688 
L 90.108 41.710321 
L 88.461011 41.710321 
z
" clip-path="url(#pe6074ab61e)" style="fill: #4c72b0; fill-opacity: 0.75"/>
   </g>
   <g id="patch_31">
    <path d="M 90.108 185.902688 
L 91.754989 185.902688 
L 91.754989 27.502687 
L 90.108 27.502687 
z
" clip-path="url(#pe6074ab61e)" style="fill: #4c72b0; fill-opacity: 0.75"/>
   </g>
   <g id="patch_32">
    <path d="M 91.754989 185.902688 
L 93.401979 185.902688 
L 93.401979 35.66452 
L 91.754989 35.66452 
z
" clip-path="url(#pe6074ab61e)" style="fill: #4c72b0; fill-opacity: 0.75"/>
   </g>
   <g id="patch_33">
    <path d="M 93.401979 185.902688 
L 95.048968 185.902688 
L 95.048968 48.965283 
L 93.401979 48.965283 
z
" clip-path="url(#pe6074ab61e)" style="fill: #4c72b0; fill-opacity: 0.75"/>
   </g>
   <g id="patch_34">
    <path d="M 95.048968 185.902688 
L 96.695957 185.902688 
L 96.695957 49.267573 
L 95.048968 49.267573 
z
" clip-path="url(#pe6074ab61e)" style="fill: #4c72b0; fill-opacity: 0.75"/>
   </g>
   <g id="patch_35">
    <path d="M 96.695957 185.902688 
L 98.342947 185.902688 
L 98.342947 59.243146 
L 96.695957 59.243146 
z
" clip-path="url(#pe6074ab61e)" style="fill: #4c72b0; fill-opacity: 0.75"/>
   </g>
   <g id="patch_36">
    <path d="M 98.342947 185.902688 
L 99.989936 185.902688 
L 99.989936 57.731695 
L 98.342947 57.731695 
z
" clip-path="url(#pe6074ab61e)" style="fill: #4c72b0; fill-opacity: 0.75"/>
   </g>
   <g id="patch_37">
    <path d="M 99.989936 185.902688 
L 101.636926 185.902688 
L 101.636926 81.310321 
L 99.989936 81.310321 
z
" clip-path="url(#pe6074ab61e)" style="fill: #4c72b0; fill-opacity: 0.75"/>
   </g>
   <g id="patch_38">
    <path d="M 101.636926 185.902688 
L 103.283915 185.902688 
L 103.283915 90.076733 
L 101.636926 90.076733 
z
" clip-path="url(#pe6074ab61e)" style="fill: #4c72b0; fill-opacity: 0.75"/>
   </g>
   <g id="patch_39">
    <path d="M 103.283915 185.902688 
L 104.930904 185.902688 
L 104.930904 95.820245 
L 103.283915 95.820245 
z
" clip-path="url(#pe6074ab61e)" style="fill: #4c72b0; fill-opacity: 0.75"/>
   </g>
   <g id="patch_40">
    <path d="M 104.930904 185.902688 
L 106.577894 185.902688 
L 106.577894 113.353069 
L 104.930904 113.353069 
z
" clip-path="url(#pe6074ab61e)" style="fill: #4c72b0; fill-opacity: 0.75"/>
   </g>
   <g id="patch_41">
    <path d="M 106.577894 185.902688 
L 108.224883 185.902688 
L 108.224883 120.608031 
L 106.577894 120.608031 
z
" clip-path="url(#pe6074ab61e)" style="fill: #4c72b0; fill-opacity: 0.75"/>
   </g>
   <g id="patch_42">
    <path d="M 108.224883 185.902688 
L 109.871872 185.902688 
L 109.871872 139.047726 
L 108.224883 139.047726 
z
" clip-path="url(#pe6074ab61e)" style="fill: #4c72b0; fill-opacity: 0.75"/>
   </g>
   <g id="patch_43">
    <path d="M 109.871872 185.902688 
L 111.518862 185.902688 
L 111.518862 145.395817 
L 109.871872 145.395817 
z
" clip-path="url(#pe6074ab61e)" style="fill: #4c72b0; fill-opacity: 0.75"/>
   </g>
   <g id="patch_44">
    <path d="M 111.518862 185.902688 
L 113.165851 185.902688 
L 113.165851 153.557649 
L 111.518862 153.557649 
z
" clip-path="url(#pe6074ab61e)" style="fill: #4c72b0; fill-opacity: 0.75"/>
   </g>
   <g id="patch_45">
    <path d="M 113.165851 185.902688 
L 114.812841 185.902688 
L 114.812841 156.88284 
L 113.165851 156.88284 
z
" clip-path="url(#pe6074ab61e)" style="fill: #4c72b0; fill-opacity: 0.75"/>
   </g>
   <g id="patch_46">
    <path d="M 114.812841 185.902688 
L 116.45983 185.902688 
L 116.45983 165.951542 
L 114.812841 165.951542 
z
" clip-path="url(#pe6074ab61e)" style="fill: #4c72b0; fill-opacity: 0.75"/>
   </g>
   <g id="patch_47">
    <path d="M 116.45983 185.902688 
L 118.106819 185.902688 
L 118.106819 169.276733 
L 116.45983 169.276733 
z
" clip-path="url(#pe6074ab61e)" style="fill: #4c72b0; fill-opacity: 0.75"/>
   </g>
   <g id="patch_48">
    <path d="M 118.106819 185.902688 
L 119.753809 185.902688 
L 119.753809 175.322535 
L 118.106819 175.322535 
z
" clip-path="url(#pe6074ab61e)" style="fill: #4c72b0; fill-opacity: 0.75"/>
   </g>
   <g id="patch_49">
    <path d="M 119.753809 185.902688 
L 121.400798 185.902688 
L 121.400798 175.927115 
L 119.753809 175.927115 
z
" clip-path="url(#pe6074ab61e)" style="fill: #4c72b0; fill-opacity: 0.75"/>
   </g>
   <g id="patch_50">
    <path d="M 121.400798 185.902688 
L 123.047787 185.902688 
L 123.047787 179.252306 
L 121.400798 179.252306 
z
" clip-path="url(#pe6074ab61e)" style="fill: #4c72b0; fill-opacity: 0.75"/>
   </g>
   <g id="patch_51">
    <path d="M 123.047787 185.902688 
L 124.694777 185.902688 
L 124.694777 179.856886 
L 123.047787 179.856886 
z
" clip-path="url(#pe6074ab61e)" style="fill: #4c72b0; fill-opacity: 0.75"/>
   </g>
   <g id="patch_52">
    <path d="M 124.694777 185.902688 
L 126.341766 185.902688 
L 126.341766 181.368336 
L 124.694777 181.368336 
z
" clip-path="url(#pe6074ab61e)" style="fill: #4c72b0; fill-opacity: 0.75"/>
   </g>
   <g id="patch_53">
    <path d="M 126.341766 185.902688 
L 127.988756 185.902688 
L 127.988756 184.995817 
L 126.341766 184.995817 
z
" clip-path="url(#pe6074ab61e)" style="fill: #4c72b0; fill-opacity: 0.75"/>
   </g>
   <g id="patch_54">
    <path d="M 127.988756 185.902688 
L 129.635745 185.902688 
L 129.635745 184.693527 
L 127.988756 184.693527 
z
" clip-path="url(#pe6074ab61e)" style="fill: #4c72b0; fill-opacity: 0.75"/>
   </g>
   <g id="patch_55">
    <path d="M 129.635745 185.902688 
L 131.282734 185.902688 
L 131.282734 185.600397 
L 129.635745 185.600397 
z
" clip-path="url(#pe6074ab61e)" style="fill: #4c72b0; fill-opacity: 0.75"/>
   </g>
   <g id="patch_56">
    <path d="M 131.282734 185.902688 
L 132.929724 185.902688 
L 132.929724 185.600397 
L 131.282734 185.600397 
z
" clip-path="url(#pe6074ab61e)" style="fill: #4c72b0; fill-opacity: 0.75"/>
   </g>
   <g id="patch_57">
    <path d="M 132.929724 185.902688 
L 134.576713 185.902688 
L 134.576713 185.600397 
L 132.929724 185.600397 
z
" clip-path="url(#pe6074ab61e)" style="fill: #4c72b0; fill-opacity: 0.75"/>
   </g>
   <g id="patch_58">
    <path d="M 134.576713 185.902688 
L 136.223702 185.902688 
L 136.223702 185.600397 
L 134.576713 185.600397 
z
" clip-path="url(#pe6074ab61e)" style="fill: #4c72b0; fill-opacity: 0.75"/>
   </g>
   <g id="line2d_1">
    <path d="M 39.380727 185.820046 
L 43.987224 185.595204 
L 46.909407 185.2398 
L 49.141631 184.750688 
L 50.988288 184.12319 
L 52.601577 183.343626 
L 54.072815 182.386108 
L 55.452734 181.219736 
L 56.771775 179.809552 
L 58.060377 178.100944 
L 59.338832 176.029305 
L 60.627434 173.506526 
L 61.936328 170.440128 
L 63.275662 166.718867 
L 64.655582 162.21138 
L 66.096381 156.725272 
L 67.618351 150.028077 
L 69.251933 141.800255 
L 71.047858 131.564025 
L 73.107591 118.47601 
L 75.836991 99.570368 
L 80.727589 65.547677 
L 82.5641 54.465 
L 84.035338 46.877797 
L 85.273207 41.599601 
L 86.338587 37.97822 
L 87.251769 35.610224 
L 88.033047 34.151764 
L 88.702714 33.331122 
L 89.281063 32.946911 
L 89.798533 32.860169 
L 90.29571 33.005926 
L 90.823326 33.405432 
L 91.411821 34.146 
L 92.091635 35.382774 
L 92.872913 37.296146 
L 93.775949 40.137086 
L 94.810888 44.172671 
L 96.008172 49.786348 
L 97.418531 57.523819 
L 99.153577 68.36168 
L 101.578583 85.059424 
L 107.088116 123.370533 
L 109.208728 136.316689 
L 111.045239 146.207113 
L 112.729553 154.098342 
L 114.302256 160.434081 
L 115.793787 165.5505 
L 117.224439 169.691966 
L 118.614505 173.05747 
L 119.974132 175.785178 
L 121.323612 178.005618 
L 122.673093 179.805037 
L 124.03272 181.25469 
L 125.432932 182.428384 
L 126.914317 183.381306 
L 128.517459 184.14642 
L 130.313384 184.752452 
L 132.403557 185.216574 
L 134.990906 185.553525 
L 138.511731 185.772043 
L 140.835273 185.837099 
L 140.835273 185.837099 
" clip-path="url(#pe6074ab61e)" style="fill: none; stroke: #1a1a1a; stroke-width: 2; stroke-linecap: round"/>
   </g>
   <g id="line2d_2">
    <path d="M 135.31881 185.902688 
L 135.31881 19.582687 
" clip-path="url(#pe6074ab61e)" style="fill: none; stroke: #ff0000; stroke-width: 1.5; stroke-linecap: round"/>
   </g>
   <g id="patch_59">
    <path d="M 34.308 185.902688 
L 34.308 19.582687 
" style="fill: none; stroke: #262626; stroke-width: 1.25; stroke-linejoin: miter; stroke-linecap: square"/>
   </g>
   <g id="patch_60">
    <path d="M 34.308 185.902688 
L 145.908 185.902688 
" style="fill: none; stroke: #262626; stroke-width: 1.25; stroke-linejoin: miter; stroke-linecap: square"/>
   </g>
   <g id="text_13">
    <!-- Observed $\Delta$ = 0.217 -->
    <g style="fill: #262626" transform="translate(133.183397 103.955062)rotate(-90)scale(0.058296 -0.058296)">
     <defs>
      <path id="DejaVuSans-4f" d="M 2522 4238 
Q 1834 4238 1429 3725 
Q 1025 3213 1025 2328 
Q 1025 1447 1429 934 
Q 1834 422 2522 422 
Q 3209 422 3611 934 
Q 4013 1447 4013 2328 
Q 4013 3213 3611 3725 
Q 3209 4238 2522 4238 
z
M 2522 4750 
Q 3503 4750 4090 4092 
Q 4678 3434 4678 2328 
Q 4678 1225 4090 567 
Q 3503 -91 2522 -91 
Q 1538 -91 948 565 
Q 359 1222 359 2328 
Q 359 3434 948 4092 
Q 1538 4750 2522 4750 
z
" transform="scale(0.015625)"/>
      <path id="DejaVuSans-76" d="M 191 3500 
L 800 3500 
L 1894 563 
L 2988 3500 
L 3597 3500 
L 2284 0 
L 1503 0 
L 191 3500 
z
" transform="scale(0.015625)"/>
      <path id="DejaVuSans-3d" d="M 678 2906 
L 4684 2906 
L 4684 2381 
L 678 2381 
L 678 2906 
z
M 678 1631 
L 4684 1631 
L 4684 1100 
L 678 1100 
L 678 1631 
z
" transform="scale(0.015625)"/>
      <path id="DejaVuSans-37" d="M 525 4666 
L 3525 4666 
L 3525 4397 
L 1831 0 
L 1172 0 
L 2766 4134 
L 525 4134 
L 525 4666 
z
" transform="scale(0.015625)"/>
     </defs>
     <use xlink:href="#DejaVuSans-4f" transform="translate(0 0.015625)"/>
     <use xlink:href="#DejaVuSans-62" transform="translate(78.710938 0.015625)"/>
     <use xlink:href="#DejaVuSans-73" transform="translate(142.1875 0.015625)"/>
     <use xlink:href="#DejaVuSans-65" transform="translate(194.287109 0.015625)"/>
     <use xlink:href="#DejaVuSans-72" transform="translate(255.810547 0.015625)"/>
     <use xlink:href="#DejaVuSans-76" transform="translate(296.923828 0.015625)"/>
     <use xlink:href="#DejaVuSans-65" transform="translate(356.103516 0.015625)"/>
     <use xlink:href="#DejaVuSans-64" transform="translate(417.626953 0.015625)"/>
     <use xlink:href="#DejaVuSans-20" transform="translate(481.103516 0.015625)"/>
     <use xlink:href="#DejaVuSans-394" transform="translate(512.890625 0.015625)"/>
     <use xlink:href="#DejaVuSans-20" transform="translate(581.298828 0.015625)"/>
     <use xlink:href="#DejaVuSans-3d" transform="translate(613.085938 0.015625)"/>
     <use xlink:href="#DejaVuSans-20" transform="translate(696.875 0.015625)"/>
     <use xlink:href="#DejaVuSans-30" transform="translate(728.662109 0.015625)"/>
     <use xlink:href="#DejaVuSans-2e" transform="translate(792.285156 0.015625)"/>
     <use xlink:href="#DejaVuSans-32" transform="translate(818.572266 0.015625)"/>
     <use xlink:href="#DejaVuSans-31" transform="translate(882.195312 0.015625)"/>
     <use xlink:href="#DejaVuSans-37" transform="translate(945.818359 0.015625)"/>
    </g>
   </g>
   <g id="text_14">
    <g id="patch_61">
     <path d="M 72.814312 38.548312 
L 140.328 38.548312 
Q 142.848 38.548312 142.848 36.028312 
L 142.848 27.898688 
Q 142.848 25.378687 140.328 25.378687 
L 72.814312 25.378687 
Q 70.294312 25.378687 70.294312 27.898688 
L 70.294312 36.028312 
Q 70.294312 38.548312 72.814312 38.548312 
z
" style="fill: #ffffff"/>
    </g>
    <!-- p-value = 0.000 -->
    <g style="fill: #262626" transform="translate(72.814312 34.281375)scale(0.084 -0.084)">
     <defs>
      <path id="DejaVuSans-70" d="M 1159 525 
L 1159 -1331 
L 581 -1331 
L 581 3500 
L 1159 3500 
L 1159 2969 
Q 1341 3281 1617 3432 
Q 1894 3584 2278 3584 
Q 2916 3584 3314 3078 
Q 3713 2572 3713 1747 
Q 3713 922 3314 415 
Q 2916 -91 2278 -91 
Q 1894 -91 1617 61 
Q 1341 213 1159 525 
z
M 3116 1747 
Q 3116 2381 2855 2742 
Q 2594 3103 2138 3103 
Q 1681 3103 1420 2742 
Q 1159 2381 1159 1747 
Q 1159 1113 1420 752 
Q 1681 391 2138 391 
Q 2594 391 2855 752 
Q 3116 1113 3116 1747 
z
" transform="scale(0.015625)"/>
      <path id="DejaVuSans-2d" d="M 313 2009 
L 1997 2009 
L 1997 1497 
L 313 1497 
L 313 2009 
z
" transform="scale(0.015625)"/>
     </defs>
     <use xlink:href="#DejaVuSans-70"/>
     <use xlink:href="#DejaVuSans-2d" x="63.476562"/>
     <use xlink:href="#DejaVuSans-76" x="96.935547"/>
     <use xlink:href="#DejaVuSans-61" x="156.115234"/>
     <use xlink:href="#DejaVuSans-6c" x="217.394531"/>
     <use xlink:href="#DejaVuSans-75" x="245.177734"/>
     <use xlink:href="#DejaVuSans-65" x="308.556641"/>
     <use xlink:href="#DejaVuSans-20" x="370.080078"/>
     <use xlink:href="#DejaVuSans-3d" x="401.867188"/>
     <use xlink:href="#DejaVuSans-20" x="485.65625"/>
     <use xlink:href="#DejaVuSans-30" x="517.443359"/>
     <use xlink:href="#DejaVuSans-2e" x="581.066406"/>
     <use xlink:href="#DejaVuSans-30" x="612.853516"/>
     <use xlink:href="#DejaVuSans-30" x="676.476562"/>
     <use xlink:href="#DejaVuSans-30" x="740.099609"/>
    </g>
   </g>
   <g id="text_15">
    <!-- Structured Shuffling -->
    <g style="fill: #262626" transform="translate(47.962969 13.582687)scale(0.084 -0.084)">
     <defs>
      <path id="DejaVuSans-53" d="M 3425 4513 
L 3425 3897 
Q 3066 4069 2747 4153 
Q 2428 4238 2131 4238 
Q 1616 4238 1336 4038 
Q 1056 3838 1056 3469 
Q 1056 3159 1242 3001 
Q 1428 2844 1947 2747 
L 2328 2669 
Q 3034 2534 3370 2195 
Q 3706 1856 3706 1288 
Q 3706 609 3251 259 
Q 2797 -91 1919 -91 
Q 1588 -91 1214 -16 
Q 841 59 441 206 
L 441 856 
Q 825 641 1194 531 
Q 1563 422 1919 422 
Q 2459 422 2753 634 
Q 3047 847 3047 1241 
Q 3047 1584 2836 1778 
Q 2625 1972 2144 2069 
L 1759 2144 
Q 1053 2284 737 2584 
Q 422 2884 422 3419 
Q 422 4038 858 4394 
Q 1294 4750 2059 4750 
Q 2388 4750 2728 4690 
Q 3069 4631 3425 4513 
z
" transform="scale(0.015625)"/>
      <path id="DejaVuSans-63" d="M 3122 3366 
L 3122 2828 
Q 2878 2963 2633 3030 
Q 2388 3097 2138 3097 
Q 1578 3097 1268 2742 
Q 959 2388 959 1747 
Q 959 1106 1268 751 
Q 1578 397 2138 397 
Q 2388 397 2633 464 
Q 2878 531 3122 666 
L 3122 134 
Q 2881 22 2623 -34 
Q 2366 -91 2075 -91 
Q 1284 -91 818 406 
Q 353 903 353 1747 
Q 353 2603 823 3093 
Q 1294 3584 2113 3584 
Q 2378 3584 2631 3529 
Q 2884 3475 3122 3366 
z
" transform="scale(0.015625)"/>
      <path id="DejaVuSans-68" d="M 3513 2113 
L 3513 0 
L 2938 0 
L 2938 2094 
Q 2938 2591 2744 2837 
Q 2550 3084 2163 3084 
Q 1697 3084 1428 2787 
Q 1159 2491 1159 1978 
L 1159 0 
L 581 0 
L 581 4863 
L 1159 4863 
L 1159 2956 
Q 1366 3272 1645 3428 
Q 1925 3584 2291 3584 
Q 2894 3584 3203 3211 
Q 3513 2838 3513 2113 
z
" transform="scale(0.015625)"/>
      <path id="DejaVuSans-66" d="M 2375 4863 
L 2375 4384 
L 1825 4384 
Q 1516 4384 1395 4259 
Q 1275 4134 1275 3809 
L 1275 3500 
L 2222 3500 
L 2222 3053 
L 1275 3053 
L 1275 0 
L 697 0 
L 697 3053 
L 147 3053 
L 147 3500 
L 697 3500 
L 697 3744 
Q 697 4328 969 4595 
Q 1241 4863 1831 4863 
L 2375 4863 
z
" transform="scale(0.015625)"/>
      <path id="DejaVuSans-67" d="M 2906 1791 
Q 2906 2416 2648 2759 
Q 2391 3103 1925 3103 
Q 1463 3103 1205 2759 
Q 947 2416 947 1791 
Q 947 1169 1205 825 
Q 1463 481 1925 481 
Q 2391 481 2648 825 
Q 2906 1169 2906 1791 
z
M 3481 434 
Q 3481 -459 3084 -895 
Q 2688 -1331 1869 -1331 
Q 1566 -1331 1297 -1286 
Q 1028 -1241 775 -1147 
L 775 -588 
Q 1028 -725 1275 -790 
Q 1522 -856 1778 -856 
Q 2344 -856 2625 -561 
Q 2906 -266 2906 331 
L 2906 616 
Q 2728 306 2450 153 
Q 2172 0 1784 0 
Q 1141 0 747 490 
Q 353 981 353 1791 
Q 353 2603 747 3093 
Q 1141 3584 1784 3584 
Q 2172 3584 2450 3431 
Q 2728 3278 2906 2969 
L 2906 3500 
L 3481 3500 
L 3481 434 
z
" transform="scale(0.015625)"/>
     </defs>
     <use xlink:href="#DejaVuSans-53"/>
     <use xlink:href="#DejaVuSans-74" x="63.476562"/>
     <use xlink:href="#DejaVuSans-72" x="102.685547"/>
     <use xlink:href="#DejaVuSans-75" x="143.798828"/>
     <use xlink:href="#DejaVuSans-63" x="207.177734"/>
     <use xlink:href="#DejaVuSans-74" x="262.158203"/>
     <use xlink:href="#DejaVuSans-75" x="301.367188"/>
     <use xlink:href="#DejaVuSans-72" x="364.746094"/>
     <use xlink:href="#DejaVuSans-65" x="403.609375"/>
     <use xlink:href="#DejaVuSans-64" x="465.132812"/>
     <use xlink:href="#DejaVuSans-20" x="528.609375"/>
     <use xlink:href="#DejaVuSans-53" x="560.396484"/>
     <use xlink:href="#DejaVuSans-68" x="623.873047"/>
     <use xlink:href="#DejaVuSans-75" x="687.251953"/>
     <use xlink:href="#DejaVuSans-66" x="750.630859"/>
     <use xlink:href="#DejaVuSans-66" x="785.835938"/>
     <use xlink:href="#DejaVuSans-6c" x="821.041016"/>
     <use xlink:href="#DejaVuSans-69" x="848.824219"/>
     <use xlink:href="#DejaVuSans-6e" x="876.607422"/>
     <use xlink:href="#DejaVuSans-67" x="939.986328"/>
    </g>
   </g>
  </g>
 </g>
 <defs>
  <clipPath id="pe6074ab61e">
   <rect x="34.308" y="19.582687" width="111.6" height="166.32"/>
  </clipPath>
 </defs>
</svg>
